<?xml version="1.0" encoding="utf-8"?>
<!-- Generator: Adobe Illustrator 22.0.1, SVG Export Plug-In . SVG Version: 6.00 Build 0)  -->
<svg version="1.1"
	 id="svg8" inkscape:export-filename="/home/jeremiah/Documents/Programming/branding/logos/logo_seasonal/christmas/festive.png" inkscape:export-xdpi="164.38356" inkscape:export-ydpi="164.38356" inkscape:version="0.92.2 2405546, 2018-03-11" sodipodi:docname="festive.svg" xmlns:cc="http://creativecommons.org/ns#" xmlns:dc="http://purl.org/dc/elements/1.1/" xmlns:inkscape="http://www.inkscape.org/namespaces/inkscape" xmlns:rdf="http://www.w3.org/1999/02/22-rdf-syntax-ns#" xmlns:sodipodi="http://sodipodi.sourceforge.net/DTD/sodipodi-0.dtd" xmlns:svg="http://www.w3.org/2000/svg"
	 xmlns="http://www.w3.org/2000/svg" xmlns:xlink="http://www.w3.org/1999/xlink" x="0px" y="0px" viewBox="0 0 438 438"
	 style="enable-background:new 0 0 438 438;" xml:space="preserve">
<style type="text/css">
	.st0{fill:#226F54;}
	.st1{fill:#31423A;}
	.st2{fill:#F23C3C;}
	.st3{fill:#FFFFFF;}
</style>
<sodipodi:namedview  bordercolor="#666666" borderopacity="1.0" fit-margin-bottom="0" fit-margin-left="0" fit-margin-right="0" fit-margin-top="0" id="base" inkscape:current-layer="layer2" inkscape:cx="22.037774" inkscape:cy="142.2941" inkscape:document-units="mm" inkscape:measure-end="312.669,891.049" inkscape:measure-start="288.048,912.183" inkscape:pageopacity="0.0" inkscape:pageshadow="2" inkscape:window-height="1045" inkscape:window-maximized="0" inkscape:window-width="1912" inkscape:window-x="4" inkscape:window-y="31" inkscape:zoom="0.70710678" pagecolor="#ffffff" showgrid="false" showguides="false">
	</sodipodi:namedview>
<g>
	<rect id="rect3885" class="st0" width="438" height="438"/>
	<path id="path5041" inkscape:connector-curvature="0" sodipodi:nodetypes="ccccc" class="st1" d="M359.9,145.6l17.7,15.2l7.6,36.9
		l-59.7-34.3L359.9,145.6z"/>
	<g id="g5072">
		<g id="g5070" inkscape:label="Clip">
			<g id="g5031">
				<g id="g5029" inkscape:label="Clip">
					<g id="g4984">
						<g id="g4982" inkscape:label="Clip">
							<g id="g4955">
								<g id="g4953" inkscape:label="Clip">
									<g id="g4899" transform="matrix(63.8638,0,0,63.8638,-273.24001,-38.357102)">
										<g id="g4897" inkscape:label="Clip">
											<g id="g4853" transform="translate(-2.8377931,-0.23976758)">
												<g id="g4851" inkscape:label="Clip">
													<g id="g4835">
														<g id="g4833" inkscape:label="Clip">
															<path id="path1948-3" inkscape:connector-curvature="0" class="st1" d="M10.8,1.9c-0.2,0-0.4,0-0.6,0.1
																C9.7,2.1,9.6,2.3,9.6,2.6v0.5h1.2v0.2H9.6H9.1c-0.4,0-0.7,0.2-0.8,0.6c-0.1,0.5-0.1,0.8,0,1.3C8.4,5.5,8.6,5.7,9,5.7
																h0.4V5.2c0-0.4,0.4-0.8,0.8-0.8h1.2c0.3,0,0.6-0.3,0.6-0.6V2.6c0-0.3-0.3-0.6-0.6-0.6C11.2,1.9,11,1.9,10.8,1.9
																L10.8,1.9z M10.1,2.3c0.1,0,0.2,0.1,0.2,0.2c0,0.1-0.1,0.2-0.2,0.2c-0.1,0-0.2-0.1-0.2-0.2C9.9,2.4,10,2.3,10.1,2.3z
																"/>
															<path id="path1950-6" inkscape:connector-curvature="0" class="st1" d="M12.2,3.2v0.5c0,0.4-0.4,0.8-0.8,0.8h-1.2
																c-0.3,0-0.6,0.3-0.6,0.6v1.2c0,0.3,0.3,0.5,0.6,0.6c0.4,0.1,0.8,0.1,1.2,0c0.3-0.1,0.6-0.3,0.6-0.6V5.9h-1.2V5.7h1.2
																h0.6c0.4,0,0.5-0.3,0.6-0.6c0.1-0.4,0.1-0.8,0-1.3c-0.1-0.4-0.3-0.6-0.6-0.6H12.2z M11.5,6.2c0.1,0,0.2,0.1,0.2,0.2
																c0,0.1-0.1,0.2-0.2,0.2c-0.1,0-0.2-0.1-0.2-0.2C11.3,6.3,11.4,6.2,11.5,6.2z"/>
														</g>
													</g>
													<rect id="rect4841" x="9.8" y="2.3" class="st1" width="0.7" height="0.6"/>
													<rect id="rect4843" x="11.2" y="6.2" class="st1" width="0.6" height="0.6"/>
												</g>
											</g>
											<rect id="rect4882" x="6.6" y="1.8" class="st1" width="0.6" height="0.3"/>
										</g>
									</g>
									<path id="path4939" inkscape:connector-curvature="0" class="st1" d="M297.9,308.2l17.7,15.1v2.1H294V309L297.9,308.2z"/>
								</g>
							</g>
							<rect id="rect4965" x="155.3" y="89.1" class="st1" width="7.7" height="11.6"/>
						</g>
					</g>
					<path id="path5009" inkscape:connector-curvature="0" class="st1" d="M139.6,128l17.7,15.1h18.8V117h-34.3L139.6,128z"/>
				</g>
			</g>
			<path id="path5047" inkscape:connector-curvature="0" sodipodi:nodetypes="ccccc" class="st1" d="M283.1,68l17,14.6l-6.7,14.5
				l-32.9-22.6L283.1,68z"/>
		</g>
	</g>
	<path id="path5082" inkscape:connector-curvature="0" sodipodi:nodetypes="ccccc" class="st1" d="M78.5,289.8l17.1,14.8l20.2,0.7
		l-35.1-34.9L78.5,289.8z"/>
	<path id="path1948" inkscape:connector-curvature="0" sodipodi:nodetypes="ccsccccsccscsssssccsccs" class="st2" d="M217,53.7
		c-13.5,0.1-26.5,1.2-37.9,3.2c-33.5,5.9-39.6,18.2-39.6,41V128h79.2v10h-79.2h-29.7c-23,0-43.2,13.8-49.5,40
		c-7.3,30-7.6,48.8,0,80.2c5.6,23.4,19.1,40,42.1,40h27.2v-36c0-26,22.6-49,49.5-49h79.1c22,0,39.6-18.1,39.6-40.1V97.9
		c0-21.4-18.1-37.4-39.6-41C244.7,54.6,230.6,53.6,217,53.7L217,53.7z M178.7,80.1c9.8,0,17.7,9.7,17.7,20.4h-35.7
		C160.6,89.8,168.8,80.1,178.7,80.1z"/>
	<path id="path1950" inkscape:connector-curvature="0" sodipodi:nodetypes="csssssccsccccsccsccscc" class="st3" d="M307.8,138v35
		c0,27.2-23.1,50-49.5,50h-79.1c-21.7,0-39.6,18.5-39.6,40.1v75.1c0,21.4,18.7,34,39.6,40.1c25.1,7.3,49.1,8.7,79.1,0
		c19.9-5.7,39.6-17.3,39.6-40.1v-30.1h-79.1v-10h79.1h39.6c23,0,31.6-16,39.6-40c8.3-24.7,7.9-48.5,0-80.2
		c-5.7-22.8-16.6-40-39.6-40H307.8z M280.3,330.4c0,11.2-8,20.4-17.8,20.4c-9.8,0-17.8-9.1-17.8-20.4H280.3z"/>
</g>
</svg>
