<svg xmlns="http://www.w3.org/2000/svg" viewBox="0 0 800 800"><defs><style>.cls-1{fill:#b76402;}.cls-2{fill:#ffb655;}.cls-3{fill:#3e04ad;}.cls-4{fill:#9a4dff;}</style></defs><g id="Trial_Logo_Shape"><path class="cls-1" d="M232.37,97.22c-.56-.2-1.12-.39-1.69-.57a37.37,37.37,0,0,1,4.66,9.79c.57.35,1.13.71,1.67,1.09A30.49,30.49,0,1,1,198.92,155c-.25-.22-.49-.45-.73-.68A38.77,38.77,0,0,1,187,152.07l.71,1.05a38.35,38.35,0,0,0,31.46,16.24c21,0,38.09-16.7,38.09-37.21A37.34,37.34,0,0,0,232.37,97.22Zm0,0c-.56-.2-1.12-.39-1.69-.57a37.37,37.37,0,0,1,4.66,9.79c.57.35,1.13.71,1.67,1.09A30.49,30.49,0,1,1,198.92,155c-.25-.22-.49-.45-.73-.68A38.77,38.77,0,0,1,187,152.07l.71,1.05a38.35,38.35,0,0,0,31.46,16.24c21,0,38.09-16.7,38.09-37.21A37.34,37.34,0,0,0,232.37,97.22Zm0,0c-.56-.2-1.12-.39-1.69-.57a37.37,37.37,0,0,1,4.66,9.79c.57.35,1.13.71,1.67,1.09A30.49,30.49,0,1,1,198.92,155c-.25-.22-.49-.45-.73-.68A38.77,38.77,0,0,1,187,152.07l.71,1.05a38.35,38.35,0,0,0,31.46,16.24c21,0,38.09-16.7,38.09-37.21A37.34,37.34,0,0,0,232.37,97.22Zm0,0c-.56-.2-1.12-.39-1.69-.57a37.37,37.37,0,0,1,4.66,9.79c.57.35,1.13.71,1.67,1.09A30.49,30.49,0,1,1,198.92,155c-.25-.22-.49-.45-.73-.68A38.77,38.77,0,0,1,187,152.07l.71,1.05a38.35,38.35,0,0,0,31.46,16.24c21,0,38.09-16.7,38.09-37.21A37.34,37.34,0,0,0,232.37,97.22Zm0,0c-.56-.2-1.12-.39-1.69-.57a37.37,37.37,0,0,1,4.66,9.79c.57.35,1.13.71,1.67,1.09A30.49,30.49,0,1,1,198.92,155c-.25-.22-.49-.45-.73-.68A38.77,38.77,0,0,1,187,152.07l.71,1.05a38.35,38.35,0,0,0,31.46,16.24c21,0,38.09-16.7,38.09-37.21A37.34,37.34,0,0,0,232.37,97.22Zm0,0c-.56-.2-1.12-.39-1.69-.57a37.37,37.37,0,0,1,4.66,9.79c.57.35,1.13.71,1.67,1.09A30.49,30.49,0,1,1,198.92,155c-.25-.22-.49-.45-.73-.68A38.77,38.77,0,0,1,187,152.07l.71,1.05a38.35,38.35,0,0,0,31.46,16.24c21,0,38.09-16.7,38.09-37.21A37.34,37.34,0,0,0,232.37,97.22Zm263.86,54.32c-9.14-34.48-29.42-61.79-57.26-80.08a153.6,153.6,0,0,0-42.49-19.25c-18.65-5.32-37.88-7.58-57.15-9.19-10.74-.89-23.71-1.42-37.83-1.25h-.07C237,42.62,149,58.32,140.8,122.31c-.43,3.43.22,21.77.81,40.68.23,7.24.45,14.57.59,21.18a25.11,25.11,0,0,0,25.14,24.61l113.3,0a25.14,25.14,0,0,1,25.11,26.6,128.33,128.33,0,0,1-5.48,30.33q-.78,2.54-1.66,5a.29.29,0,0,1,0,.1,110.3,110.3,0,0,1-8.94,19c-13.69,23.07-34.89,39.11-60.26,52.12s-52.86,25-76.3,41.4c-14.83,10.35-28,22.42-37.9,37.53a109.26,109.26,0,0,0-13.15,28C92,481.4,93.82,517.77,99.48,551c2.94,17.31,8.5,34,19.17,46.66a59.53,59.53,0,0,0,23.5,17c35.28,14.37,75.8,4.22,112.14.66a12.44,12.44,0,0,0,4.83-1.14c3-1.62,4.09-5.23,4.88-8.52,4.56-19,4.68-38,6.9-57.25,3.54-30.78,9-58.27,26.6-84.57,17.12-25.62,39.95-42.59,67.16-56.13s57-26.47,79-47.89c39.48-38.34,55.43-99.27,57.94-152.86C502.51,188.35,501.06,169.71,496.23,151.54Zm-376,323c3.83-21,12.79-41.31,27.4-56.84,19.82-21.07,48-31.68,74.73-42.7,30.57-12.59,56.15-27.76,76.16-54.55,20.55-27.52,31.25-63.14,28.4-97.41-1.36-16.32-10-25.29-22.7-29a57.17,57.17,0,0,0-14.6-2.11c-20.47-.53-40.92.72-61.38,1.32-3.08.09-6.54.33-10.23.59-10.71.74-23.34,1.7-34,0-5.39-.86-10.29-2.38-14.21-5a26.75,26.75,0,0,1-9.19-10.94A50.63,50.63,0,0,1,156.47,165a86.16,86.16,0,0,1,5.58-49.3,1.86,1.86,0,0,1,.1-.25A37.49,37.49,0,0,1,189,81.58l.19-.13c19.61-14,44-17.57,68.44-21.2,37.16-5.5,75.85-6.17,112.07,5A158.19,158.19,0,0,1,410.3,84.48c24.34,16.15,43.78,39.15,52,67,12.19,41.22,4.23,97-11.17,136.59-18.27,47-61.62,69.46-103.51,92.26-38.4,20.9-77.53,46.9-92.57,90.12-13.18,37.86-12.05,79.55-16.41,119-.23,2.09-.52,4.3-1.88,5.9-1.59,1.87-4.23,2.39-6.65,2.8-25.62,4.29-53.73,8.15-76.06-5.11a62,62,0,0,1-15.5-13.08C115.3,552.76,114.3,507,120.22,474.51ZM232.37,97.22c-.56-.2-1.12-.39-1.69-.57a37.37,37.37,0,0,1,4.66,9.79c.57.35,1.13.71,1.67,1.09A30.49,30.49,0,1,1,198.92,155c-.25-.22-.49-.45-.73-.68A38.77,38.77,0,0,1,187,152.07l.71,1.05a38.35,38.35,0,0,0,31.46,16.24c21,0,38.09-16.7,38.09-37.21A37.34,37.34,0,0,0,232.37,97.22Zm0,0c-.56-.2-1.12-.39-1.69-.57a37.37,37.37,0,0,1,4.66,9.79c.57.35,1.13.71,1.67,1.09A30.49,30.49,0,1,1,198.92,155c-.25-.22-.49-.45-.73-.68A38.77,38.77,0,0,1,187,152.07l.71,1.05a38.35,38.35,0,0,0,31.46,16.24c21,0,38.09-16.7,38.09-37.21A37.34,37.34,0,0,0,232.37,97.22Zm0,0c-.56-.2-1.12-.39-1.69-.57a37.37,37.37,0,0,1,4.66,9.79c.57.35,1.13.71,1.67,1.09A30.49,30.49,0,1,1,198.92,155c-.25-.22-.49-.45-.73-.68A38.77,38.77,0,0,1,187,152.07l.71,1.05a38.35,38.35,0,0,0,31.46,16.24c21,0,38.09-16.7,38.09-37.21A37.34,37.34,0,0,0,232.37,97.22Zm0,0c-.56-.2-1.12-.39-1.69-.57a37.37,37.37,0,0,1,4.66,9.79c.57.35,1.13.71,1.67,1.09A30.49,30.49,0,1,1,198.92,155c-.25-.22-.49-.45-.73-.68A38.77,38.77,0,0,1,187,152.07l.71,1.05a38.35,38.35,0,0,0,31.46,16.24c21,0,38.09-16.7,38.09-37.21A37.34,37.34,0,0,0,232.37,97.22Zm0,0c-.56-.2-1.12-.39-1.69-.57a37.37,37.37,0,0,1,4.66,9.79c.57.35,1.13.71,1.67,1.09A30.49,30.49,0,1,1,198.92,155c-.25-.22-.49-.45-.73-.68A38.77,38.77,0,0,1,187,152.07l.71,1.05a38.35,38.35,0,0,0,31.46,16.24c21,0,38.09-16.7,38.09-37.21A37.34,37.34,0,0,0,232.37,97.22Zm0,0c-.56-.2-1.12-.39-1.69-.57a37.37,37.37,0,0,1,4.66,9.79c.57.35,1.13.71,1.67,1.09A30.49,30.49,0,1,1,198.92,155c-.25-.22-.49-.45-.73-.68A38.77,38.77,0,0,1,187,152.07l.71,1.05a38.35,38.35,0,0,0,31.46,16.24c21,0,38.09-16.7,38.09-37.21A37.34,37.34,0,0,0,232.37,97.22Zm0,0c-.56-.2-1.12-.39-1.69-.57a37.37,37.37,0,0,1,4.66,9.79c.57.35,1.13.71,1.67,1.09A30.49,30.49,0,1,1,198.92,155c-.25-.22-.49-.45-.73-.68A38.77,38.77,0,0,1,187,152.07l.71,1.05a38.35,38.35,0,0,0,31.46,16.24c21,0,38.09-16.7,38.09-37.21A37.34,37.34,0,0,0,232.37,97.22Z"/><path class="cls-1" d="M232.37,97.22c-.56-.2-1.12-.39-1.69-.57a37.37,37.37,0,0,1,4.66,9.79c.57.35,1.13.71,1.67,1.09A30.49,30.49,0,1,1,198.92,155c-.25-.22-.49-.45-.73-.68A38.77,38.77,0,0,1,187,152.07l.71,1.05a38.35,38.35,0,0,0,31.46,16.24c21,0,38.09-16.7,38.09-37.21A37.34,37.34,0,0,0,232.37,97.22Zm0,0c-.56-.2-1.12-.39-1.69-.57a37.37,37.37,0,0,1,4.66,9.79c.57.35,1.13.71,1.67,1.09A30.49,30.49,0,1,1,198.92,155c-.25-.22-.49-.45-.73-.68A38.77,38.77,0,0,1,187,152.07l.71,1.05a38.35,38.35,0,0,0,31.46,16.24c21,0,38.09-16.7,38.09-37.21A37.34,37.34,0,0,0,232.37,97.22Zm0,0c-.56-.2-1.12-.39-1.69-.57a37.37,37.37,0,0,1,4.66,9.79c.57.35,1.13.71,1.67,1.09A30.49,30.49,0,1,1,198.92,155c-.25-.22-.49-.45-.73-.68A38.77,38.77,0,0,1,187,152.07l.71,1.05a38.35,38.35,0,0,0,31.46,16.24c21,0,38.09-16.7,38.09-37.21A37.34,37.34,0,0,0,232.37,97.22Zm0,0c-.56-.2-1.12-.39-1.69-.57a37.37,37.37,0,0,1,4.66,9.79c.57.35,1.13.71,1.67,1.09A30.49,30.49,0,1,1,198.92,155c-.25-.22-.49-.45-.73-.68A38.77,38.77,0,0,1,187,152.07l.71,1.05a38.35,38.35,0,0,0,31.46,16.24c21,0,38.09-16.7,38.09-37.21A37.34,37.34,0,0,0,232.37,97.22Zm263.86,54.32c-9.14-34.48-29.42-61.79-57.26-80.08a153.6,153.6,0,0,0-42.49-19.25c-18.65-5.32-37.88-7.58-57.15-9.19-10.74-.89-23.71-1.42-37.83-1.25h-.07C237,42.62,149,58.32,140.8,122.31c-.43,3.43.22,21.77.81,40.68.23,7.24.45,14.57.59,21.18a25.11,25.11,0,0,0,25.14,24.61l113.3,0a25.14,25.14,0,0,1,25.11,26.6,128.33,128.33,0,0,1-5.48,30.33q-.78,2.54-1.66,5a.29.29,0,0,1,0,.1,110.3,110.3,0,0,1-8.94,19c-13.69,23.07-34.89,39.11-60.26,52.12s-52.86,25-76.3,41.4c-14.83,10.35-28,22.42-37.9,37.53a109.26,109.26,0,0,0-13.15,28C92,481.4,93.82,517.77,99.48,551c2.94,17.31,8.5,34,19.17,46.66a59.53,59.53,0,0,0,23.5,17c35.28,14.37,75.8,4.22,112.14.66a12.44,12.44,0,0,0,4.83-1.14c3-1.62,4.09-5.23,4.88-8.52,4.56-19,4.68-38,6.9-57.25,3.54-30.78,9-58.27,26.6-84.57,17.12-25.62,39.95-42.59,67.16-56.13s57-26.47,79-47.89c39.48-38.34,55.43-99.27,57.94-152.86C502.51,188.35,501.06,169.71,496.23,151.54Zm-376,323c3.83-21,12.79-41.31,27.4-56.84,19.82-21.07,48-31.68,74.73-42.7,30.57-12.59,56.15-27.76,76.16-54.55,20.55-27.52,31.25-63.14,28.4-97.41-1.36-16.32-10-25.29-22.7-29a57.17,57.17,0,0,0-14.6-2.11c-20.47-.53-40.92.72-61.38,1.32-3.08.09-6.54.33-10.23.59-10.71.74-23.34,1.7-34,0-5.39-.86-10.29-2.38-14.21-5a26.75,26.75,0,0,1-9.19-10.94A50.63,50.63,0,0,1,156.47,165a86.16,86.16,0,0,1,5.58-49.3,1.86,1.86,0,0,1,.1-.25A37.49,37.49,0,0,1,189,81.58l.19-.13c19.61-14,44-17.57,68.44-21.2,37.16-5.5,75.85-6.17,112.07,5A158.19,158.19,0,0,1,410.3,84.48c24.34,16.15,43.78,39.15,52,67,12.19,41.22,4.23,97-11.17,136.59-18.27,47-61.62,69.46-103.51,92.26-38.4,20.9-77.53,46.9-92.57,90.12-13.18,37.86-12.05,79.55-16.41,119-.23,2.09-.52,4.3-1.88,5.9-1.59,1.87-4.23,2.39-6.65,2.8-25.62,4.29-53.73,8.15-76.06-5.11a62,62,0,0,1-15.5-13.08C115.3,552.76,114.3,507,120.22,474.51ZM232.37,97.22c-.56-.2-1.12-.39-1.69-.57a37.37,37.37,0,0,1,4.66,9.79c.57.35,1.13.71,1.67,1.09A30.49,30.49,0,1,1,198.92,155c-.25-.22-.49-.45-.73-.68A38.77,38.77,0,0,1,187,152.07l.71,1.05a38.35,38.35,0,0,0,31.46,16.24c21,0,38.09-16.7,38.09-37.21A37.34,37.34,0,0,0,232.37,97.22Zm0,0c-.56-.2-1.12-.39-1.69-.57a37.37,37.37,0,0,1,4.66,9.79c.57.35,1.13.71,1.67,1.09A30.49,30.49,0,1,1,198.92,155c-.25-.22-.49-.45-.73-.68A38.77,38.77,0,0,1,187,152.07l.71,1.05a38.35,38.35,0,0,0,31.46,16.24c21,0,38.09-16.7,38.09-37.21A37.34,37.34,0,0,0,232.37,97.22Zm0,0c-.56-.2-1.12-.39-1.69-.57a37.37,37.37,0,0,1,4.66,9.79c.57.35,1.13.71,1.67,1.09A30.49,30.49,0,1,1,198.92,155c-.25-.22-.49-.45-.73-.68A38.77,38.77,0,0,1,187,152.07l.71,1.05a38.35,38.35,0,0,0,31.46,16.24c21,0,38.09-16.7,38.09-37.21A37.34,37.34,0,0,0,232.37,97.22Z"/><path class="cls-1" d="M462.3,151.44c-8.22-27.81-27.66-50.81-52-67a158.19,158.19,0,0,0-40.65-19.23c-36.22-11.17-74.91-10.5-112.07-5-24.46,3.63-48.83,7.23-68.44,21.2l-.19.13a38.8,38.8,0,0,1,6.41-1.35l.49-.06c1.2-.11,2.42-.17,3.65-.17a37.48,37.48,0,0,1,31.18,16.65c.57.18,1.13.37,1.69.57a37.34,37.34,0,0,1,24.93,34.93c0,20.51-17.09,37.21-38.09,37.21a38.35,38.35,0,0,1-31.46-16.24l-.71-1.05a37.34,37.34,0,0,1-24.93-34.92c0-.58,0-1.16,0-1.74a1.86,1.86,0,0,0-.1.25,86.16,86.16,0,0,0-5.58,49.3,50.63,50.63,0,0,0,4.09,12.92,26.75,26.75,0,0,0,9.19,10.94c3.92,2.57,8.82,4.09,14.21,5,10.7,1.7,23.33.74,34,0,3.69-.26,7.15-.5,10.23-.59,20.46-.6,40.91-1.85,61.38-1.32a57.17,57.17,0,0,1,14.6,2.11c12.75,3.75,21.34,12.72,22.7,29,2.85,34.27-7.85,69.89-28.4,97.41-20,26.79-45.59,42-76.16,54.55-26.74,11-54.91,21.63-74.73,42.7-14.61,15.53-23.57,35.86-27.4,56.84C114.3,507,115.3,552.76,138.55,579.9A62,62,0,0,0,154.05,593c22.33,13.26,50.44,9.4,76.06,5.11,2.42-.41,5.06-.93,6.65-2.8,1.36-1.6,1.65-3.81,1.88-5.9,4.36-39.43,3.23-81.12,16.41-119,15-43.22,54.17-69.22,92.57-90.12C389.51,357.49,432.86,335,451.13,288,466.53,248.47,474.49,192.66,462.3,151.44Z"/><circle class="cls-1" cx="186.43" cy="722.82" r="69.18"/><path class="cls-2" d="M237,107.53a36.64,36.64,0,0,0-4.64-10.31,38.34,38.34,0,0,0-32.16-17.29,39.27,39.27,0,0,0-4.36.24c1.2-.11,2.42-.17,3.65-.17a37.5,37.5,0,0,1,20.21,69.09,37,37,0,0,0,18.59-31.94A36.37,36.37,0,0,0,237,107.53Zm0,0a36.64,36.64,0,0,0-4.64-10.31,38.34,38.34,0,0,0-32.16-17.29,39.27,39.27,0,0,0-4.36.24c1.2-.11,2.42-.17,3.65-.17a37.5,37.5,0,0,1,20.21,69.09,37,37,0,0,0,18.59-31.94A36.37,36.37,0,0,0,237,107.53Zm0,0a36.64,36.64,0,0,0-4.64-10.31,38.34,38.34,0,0,0-32.16-17.29,39.27,39.27,0,0,0-4.36.24c1.2-.11,2.42-.17,3.65-.17a37.5,37.5,0,0,1,20.21,69.09,37,37,0,0,0,18.59-31.94A36.37,36.37,0,0,0,237,107.53Zm0,0a36.64,36.64,0,0,0-4.64-10.31,38.34,38.34,0,0,0-32.16-17.29,39.27,39.27,0,0,0-4.36.24c1.2-.11,2.42-.17,3.65-.17a37.5,37.5,0,0,1,20.21,69.09,37,37,0,0,0,18.59-31.94A36.37,36.37,0,0,0,237,107.53Zm0,0a36.64,36.64,0,0,0-4.64-10.31,38.34,38.34,0,0,0-32.16-17.29,39.27,39.27,0,0,0-4.36.24c1.2-.11,2.42-.17,3.65-.17a37.5,37.5,0,0,1,20.21,69.09,37,37,0,0,0,18.59-31.94A36.37,36.37,0,0,0,237,107.53Zm0,0a36.64,36.64,0,0,0-4.64-10.31,38.34,38.34,0,0,0-32.16-17.29,39.27,39.27,0,0,0-4.36.24c1.2-.11,2.42-.17,3.65-.17a37.5,37.5,0,0,1,20.21,69.09,37,37,0,0,0,18.59-31.94A36.37,36.37,0,0,0,237,107.53Zm240.22,29c-6.91-26-20.18-48-38.26-65.08C422.21,55.62,401.29,44,377.48,37.21c-18.65-5.32-37.88-7.58-57.15-9.19-59.76-5-188.59,1.25-198.53,79.29-.6,4.74.88,38,1.4,61.86a25.14,25.14,0,0,0,21,24.26,24.88,24.88,0,0,0,4.17.35h113.3a25.08,25.08,0,0,1,25.11,26.6,128.33,128.33,0,0,1-5.48,30.33c-11.33,36.73-37.5,59.11-70.89,76.23C160.28,352.59,101.21,374.77,83,433.86,73,466.4,74.82,502.77,80.48,536c4.35,25.55,14.38,49.74,38.17,61.66q2.17,1.1,4.5,2c35.28,14.37,75.8,4.22,112.14.66a12.44,12.44,0,0,0,4.83-1.14c3-1.62,4.09-5.23,4.88-8.52,4.56-19,4.68-38,6.9-57.25,3.54-30.78,9-58.27,26.6-84.57,17.12-25.62,39.95-42.59,67.16-56.13s57-26.47,79-47.89c39.48-38.34,55.43-99.27,57.94-152.86C483.51,173.35,482.06,154.71,477.23,136.54ZM135.05,578c-38.13-22.64-40.86-79.86-33.83-118.47a120.17,120.17,0,0,1,14-38.66,98.69,98.69,0,0,1,13.44-18.18,114.6,114.6,0,0,1,24.46-19.35c15.65-9.49,33.25-16.34,50.27-23.35,30.57-12.59,56.15-27.76,76.16-54.55a141.41,141.41,0,0,0,10.13-15.62,145.5,145.5,0,0,0,8.94-19,.29.29,0,0,0,0-.1,142.5,142.5,0,0,0,9.3-62.65,37.7,37.7,0,0,0-3.7-14c-5.93-11.74-18.19-16.7-33.6-17.11-20.47-.53-40.92.72-61.38,1.32-13.27.39-33.7,3.42-48.67-.3a31.54,31.54,0,0,1-9.81-4.06A26.76,26.76,0,0,1,141.61,163a51,51,0,0,1-4.14-13,86.33,86.33,0,0,1,17.85-69.65c21.22-25.88,52.16-30.45,83.26-35.06,20.7-3.06,41.88-4.63,62.85-3.48h.07a204.66,204.66,0,0,1,49.15,8.48A154.49,154.49,0,0,1,410.3,84.48c15.27,14.29,27.06,31.87,33,52,12.19,41.22,4.23,97-11.17,136.59-18.27,47-61.62,69.46-103.51,92.26-38.4,20.9-77.53,46.9-92.57,90.12-13.18,37.86-12.05,79.55-16.41,119-.23,2.09-.52,4.3-1.88,5.9-1.59,1.87-4.23,2.39-6.65,2.8-24.3,4.07-50.84,7.75-72.56-3.19C137.37,579.3,136.2,578.66,135.05,578ZM232.37,97.22a38.34,38.34,0,0,0-32.16-17.29,39.27,39.27,0,0,0-4.36.24c1.2-.11,2.42-.17,3.65-.17a37.5,37.5,0,0,1,20.21,69.09,37,37,0,0,0,18.59-31.94,36.41,36.41,0,0,0-5.93-19.93ZM237,107.53a36.64,36.64,0,0,0-4.64-10.31,38.34,38.34,0,0,0-32.16-17.29,39.27,39.27,0,0,0-4.36.24c1.2-.11,2.42-.17,3.65-.17a37.5,37.5,0,0,1,20.21,69.09,37,37,0,0,0,18.59-31.94A36.37,36.37,0,0,0,237,107.53Zm0,0a36.64,36.64,0,0,0-4.64-10.31,38.34,38.34,0,0,0-32.16-17.29,39.27,39.27,0,0,0-4.36.24c1.2-.11,2.42-.17,3.65-.17a37.5,37.5,0,0,1,20.21,69.09,37,37,0,0,0,18.59-31.94A36.37,36.37,0,0,0,237,107.53Zm0,0a36.64,36.64,0,0,0-4.64-10.31,38.34,38.34,0,0,0-32.16-17.29,39.27,39.27,0,0,0-4.36.24c1.2-.11,2.42-.17,3.65-.17a37.5,37.5,0,0,1,20.21,69.09,37,37,0,0,0,18.59-31.94A36.37,36.37,0,0,0,237,107.53Zm0,0a36.64,36.64,0,0,0-4.64-10.31,38.34,38.34,0,0,0-32.16-17.29,39.27,39.27,0,0,0-4.36.24c1.2-.11,2.42-.17,3.65-.17a37.5,37.5,0,0,1,20.21,69.09,37,37,0,0,0,18.59-31.94A36.37,36.37,0,0,0,237,107.53Zm0,0a36.64,36.64,0,0,0-4.64-10.31,38.34,38.34,0,0,0-32.16-17.29,39.27,39.27,0,0,0-4.36.24c1.2-.11,2.42-.17,3.65-.17a37.5,37.5,0,0,1,20.21,69.09,37,37,0,0,0,18.59-31.94A36.37,36.37,0,0,0,237,107.53Zm0,0a36.64,36.64,0,0,0-4.64-10.31,38.34,38.34,0,0,0-32.16-17.29,39.27,39.27,0,0,0-4.36.24c1.2-.11,2.42-.17,3.65-.17a37.5,37.5,0,0,1,20.21,69.09,37,37,0,0,0,18.59-31.94A36.37,36.37,0,0,0,237,107.53Z"/><path class="cls-2" d="M237,107.53a36.64,36.64,0,0,0-4.64-10.31,38.34,38.34,0,0,0-32.16-17.29,39.27,39.27,0,0,0-4.36.24c1.2-.11,2.42-.17,3.65-.17a37.5,37.5,0,0,1,20.21,69.09,37,37,0,0,0,18.59-31.94A36.37,36.37,0,0,0,237,107.53Zm0,0a36.64,36.64,0,0,0-4.64-10.31,38.34,38.34,0,0,0-32.16-17.29,39.27,39.27,0,0,0-4.36.24c1.2-.11,2.42-.17,3.65-.17a37.5,37.5,0,0,1,20.21,69.09,37,37,0,0,0,18.59-31.94A36.37,36.37,0,0,0,237,107.53Zm0,0a36.64,36.64,0,0,0-4.64-10.31,38.34,38.34,0,0,0-32.16-17.29,39.27,39.27,0,0,0-4.36.24c1.2-.11,2.42-.17,3.65-.17a37.5,37.5,0,0,1,20.21,69.09,37,37,0,0,0,18.59-31.94A36.37,36.37,0,0,0,237,107.53Zm0,0a36.64,36.64,0,0,0-4.64-10.31,38.34,38.34,0,0,0-32.16-17.29,39.27,39.27,0,0,0-4.36.24c1.2-.11,2.42-.17,3.65-.17a37.5,37.5,0,0,1,20.21,69.09,37,37,0,0,0,18.59-31.94A36.37,36.37,0,0,0,237,107.53Zm240.22,29c-6.91-26-20.18-48-38.26-65.08C422.21,55.62,401.29,44,377.48,37.21c-18.65-5.32-37.88-7.58-57.15-9.19-59.76-5-188.59,1.25-198.53,79.29-.6,4.74.88,38,1.4,61.86a25.14,25.14,0,0,0,21,24.26,24.88,24.88,0,0,0,4.17.35h113.3a25.08,25.08,0,0,1,25.11,26.6,128.33,128.33,0,0,1-5.48,30.33c-11.33,36.73-37.5,59.11-70.89,76.23C160.28,352.59,101.21,374.77,83,433.86,73,466.4,74.82,502.77,80.48,536c4.35,25.55,14.38,49.74,38.17,61.66q2.17,1.1,4.5,2c35.28,14.37,75.8,4.22,112.14.66a12.44,12.44,0,0,0,4.83-1.14c3-1.62,4.09-5.23,4.88-8.52,4.56-19,4.68-38,6.9-57.25,3.54-30.78,9-58.27,26.6-84.57,17.12-25.62,39.95-42.59,67.16-56.13s57-26.47,79-47.89c39.48-38.34,55.43-99.27,57.94-152.86C483.51,173.35,482.06,154.71,477.23,136.54ZM135.05,578c-38.13-22.64-40.86-79.86-33.83-118.47a120.17,120.17,0,0,1,14-38.66,98.69,98.69,0,0,1,13.44-18.18,114.6,114.6,0,0,1,24.46-19.35c15.65-9.49,33.25-16.34,50.27-23.35,30.57-12.59,56.15-27.76,76.16-54.55a141.41,141.41,0,0,0,10.13-15.62,145.5,145.5,0,0,0,8.94-19,.29.29,0,0,0,0-.1,142.5,142.5,0,0,0,9.3-62.65,37.7,37.7,0,0,0-3.7-14c-5.93-11.74-18.19-16.7-33.6-17.11-20.47-.53-40.92.72-61.38,1.32-13.27.39-33.7,3.42-48.67-.3a31.54,31.54,0,0,1-9.81-4.06A26.76,26.76,0,0,1,141.61,163a51,51,0,0,1-4.14-13,86.33,86.33,0,0,1,17.85-69.65c21.22-25.88,52.16-30.45,83.26-35.06,20.7-3.06,41.88-4.63,62.85-3.48h.07a204.66,204.66,0,0,1,49.15,8.48A154.49,154.49,0,0,1,410.3,84.48c15.27,14.29,27.06,31.87,33,52,12.19,41.22,4.23,97-11.17,136.59-18.27,47-61.62,69.46-103.51,92.26-38.4,20.9-77.53,46.9-92.57,90.12-13.18,37.86-12.05,79.55-16.41,119-.23,2.09-.52,4.3-1.88,5.9-1.59,1.87-4.23,2.39-6.65,2.8-24.3,4.07-50.84,7.75-72.56-3.19C137.37,579.3,136.2,578.66,135.05,578ZM232.37,97.22a38.34,38.34,0,0,0-32.16-17.29,39.27,39.27,0,0,0-4.36.24c1.2-.11,2.42-.17,3.65-.17a37.5,37.5,0,0,1,20.21,69.09,37,37,0,0,0,18.59-31.94,36.41,36.41,0,0,0-5.93-19.93ZM237,107.53a36.64,36.64,0,0,0-4.64-10.31,38.34,38.34,0,0,0-32.16-17.29,39.27,39.27,0,0,0-4.36.24c1.2-.11,2.42-.17,3.65-.17a37.5,37.5,0,0,1,20.21,69.09,37,37,0,0,0,18.59-31.94A36.37,36.37,0,0,0,237,107.53Zm0,0a36.64,36.64,0,0,0-4.64-10.31,38.34,38.34,0,0,0-32.16-17.29,39.27,39.27,0,0,0-4.36.24c1.2-.11,2.42-.17,3.65-.17a37.5,37.5,0,0,1,20.21,69.09,37,37,0,0,0,18.59-31.94A36.37,36.37,0,0,0,237,107.53Z"/><path class="cls-2" d="M443.3,136.44c-5.94-20.09-17.73-37.67-33-52a154.49,154.49,0,0,0-59.65-34.23,204.66,204.66,0,0,0-49.15-8.48h-.07c-21-1.15-42.15.42-62.85,3.48-31.1,4.61-62,9.18-83.26,35.06A86.33,86.33,0,0,0,137.47,150a51,51,0,0,0,4.14,13,26.76,26.76,0,0,0,9.14,10.83,31.54,31.54,0,0,0,9.81,4.06c15,3.72,35.4.69,48.67.3,20.46-.6,40.91-1.85,61.38-1.32,15.41.41,27.67,5.37,33.6,17.11a37.7,37.7,0,0,1,3.7,14,142.5,142.5,0,0,1-9.3,62.65.29.29,0,0,1,0,.1,145.5,145.5,0,0,1-8.94,19,141.41,141.41,0,0,1-10.13,15.62c-20,26.79-45.59,42-76.16,54.55-17,7-34.62,13.86-50.27,23.35a114.6,114.6,0,0,0-24.46,19.35,98.69,98.69,0,0,0-13.44,18.18,120.17,120.17,0,0,0-14,38.66c-7,38.61-4.3,95.83,33.83,118.47,1.15.68,2.32,1.32,3.5,1.92,21.72,10.94,48.26,7.26,72.56,3.19,2.42-.41,5.06-.93,6.65-2.8,1.36-1.6,1.65-3.81,1.88-5.9,4.36-39.43,3.23-81.12,16.41-119,15-43.22,54.17-69.22,92.57-90.12C370.51,342.49,413.86,320,432.13,273,447.53,233.47,455.49,177.66,443.3,136.44ZM162.11,117.15c0-.58,0-1.16,0-1.74A37.49,37.49,0,0,1,189,81.58a38.8,38.8,0,0,1,6.41-1.35l.49-.06a39.27,39.27,0,0,1,4.36-.24,38.34,38.34,0,0,1,32.16,17.29,36.41,36.41,0,0,1,5.93,19.93,37,37,0,0,1-18.59,31.94l-.08,0a38.52,38.52,0,0,1-19.42,5.22c-.68,0-1.35,0-2-.05A38.77,38.77,0,0,1,187,152.07,37.34,37.34,0,0,1,162.11,117.15Z"/><circle class="cls-2" cx="167.43" cy="707.82" r="69.18"/><path class="cls-1" d="M237,117.5a37.45,37.45,0,0,1-17.29,31.59l-.08,0a38.52,38.52,0,0,1-19.42,5.22c-.68,0-1.35,0-2-.05A38.77,38.77,0,0,1,187,152.07a37.34,37.34,0,0,1-24.93-34.92c0-.58,0-1.16,0-1.74A37.49,37.49,0,0,1,189,81.58a38.8,38.8,0,0,1,6.41-1.35l.49-.06c1.2-.11,2.42-.17,3.65-.17A37.47,37.47,0,0,1,237,117.5Z"/><path class="cls-3" d="M605.33,640.67l-.73-.08a37.56,37.56,0,0,1,7.37,8.49l.54.23a30.51,30.51,0,0,1-23,56.49c-.67-.25-1.32-.53-2-.82a39.23,39.23,0,0,1-12.08.62q.78.66,1.59,1.29a38.76,38.76,0,0,0,44.72,1.58,37.1,37.1,0,0,0,16.74-28.05c.07-.93.11-1.88.11-2.83C638.64,658.67,624.09,643,605.33,640.67Zm0,0-.73-.08a37.56,37.56,0,0,1,7.37,8.49l.54.23a30.51,30.51,0,0,1-23,56.49c-.67-.25-1.32-.53-2-.82a39.23,39.23,0,0,1-12.08.62q.78.66,1.59,1.29a38.76,38.76,0,0,0,44.72,1.58,37.1,37.1,0,0,0,16.74-28.05c.07-.93.11-1.88.11-2.83C638.64,658.67,624.09,643,605.33,640.67Zm0,0-.73-.08a37.56,37.56,0,0,1,7.37,8.49l.54.23a30.51,30.51,0,0,1-23,56.49c-.67-.25-1.32-.53-2-.82a39.23,39.23,0,0,1-12.08.62q.78.66,1.59,1.29a38.76,38.76,0,0,0,44.72,1.58,37.1,37.1,0,0,0,16.74-28.05c.07-.93.11-1.88.11-2.83C638.64,658.67,624.09,643,605.33,640.67Zm0,0-.73-.08a37.56,37.56,0,0,1,7.37,8.49l.54.23a30.51,30.51,0,0,1-23,56.49c-.67-.25-1.32-.53-2-.82a39.23,39.23,0,0,1-12.08.62q.78.66,1.59,1.29a38.76,38.76,0,0,0,44.72,1.58,37.1,37.1,0,0,0,16.74-28.05c.07-.93.11-1.88.11-2.83C638.64,658.67,624.09,643,605.33,640.67Zm0,0-.73-.08a37.56,37.56,0,0,1,7.37,8.49l.54.23a30.51,30.51,0,0,1-23,56.49c-.67-.25-1.32-.53-2-.82a39.23,39.23,0,0,1-12.08.62q.78.66,1.59,1.29a38.76,38.76,0,0,0,44.72,1.58,37.1,37.1,0,0,0,16.74-28.05c.07-.93.11-1.88.11-2.83C638.64,658.67,624.09,643,605.33,640.67Zm0,0-.73-.08a37.56,37.56,0,0,1,7.37,8.49l.54.23a30.51,30.51,0,0,1-23,56.49c-.67-.25-1.32-.53-2-.82a39.23,39.23,0,0,1-12.08.62q.78.66,1.59,1.29a38.76,38.76,0,0,0,44.72,1.58,37.1,37.1,0,0,0,16.74-28.05c.07-.93.11-1.88.11-2.83C638.64,658.67,624.09,643,605.33,640.67ZM720.27,258.76c-4.61-27.11-15.63-52.69-42.67-63.7A93.33,93.33,0,0,0,667,191.49c-32.65-8.86-68.8-.3-101.56,2.91a12.44,12.44,0,0,0-4.83,1.14c-3,1.62-4.09,5.23-4.88,8.52-4.56,19-4.68,38-6.9,57.25-3.54,30.78-9,58.27-26.6,84.57C505.13,371.5,482.3,388.47,455.09,402s-57,26.47-79,47.89c-39.48,38.34-55.43,99.27-57.94,152.86-.88,18.63.57,37.27,5.4,55.44,10.49,39.58,35.67,69.72,70.1,87.6a157.71,157.71,0,0,0,29.65,11.73c18.65,5.32,37.88,7.58,57.15,9.19,59.76,5,188.59-1.25,198.53-79.29.6-4.74-.88-38-1.4-61.86A25.14,25.14,0,0,0,652.41,601h-1.73l-111.57,0A25.15,25.15,0,0,1,514,574.38a128.33,128.33,0,0,1,5.48-30.33c11.33-36.73,37.5-59.11,70.89-76.23,50.1-25.67,109.17-47.85,127.35-106.94C727.73,328.34,725.93,292,720.27,258.76ZM650,620.92a24.35,24.35,0,0,1,6.83,6.85c3.38,5,5.34,11.05,6.45,17a86.33,86.33,0,0,1-17.85,69.65c-13.26,16.17-30.32,24-48.85,28.77h-.05c-11.09,2.83-22.71,4.55-34.36,6.28-37.16,5.5-75.85,6.17-112.07-5A159,159,0,0,1,424,733.83c-31-16-56.78-42.35-66.59-75.53-12.19-41.22-4.23-97,11.17-136.59,18.27-47,61.62-69.46,103.51-92.26,38.4-20.9,77.53-46.9,92.57-90.12,13.18-37.86,12-79.55,16.41-119,.23-2.09.52-4.3,1.88-5.9,1.59-1.87,4.23-2.39,6.65-2.8,19.14-3.2,39.67-6.17,58.14-1.94a62.27,62.27,0,0,1,17.92,7c38.13,22.64,40.86,79.86,33.83,118.47-3.83,21-12.79,41.31-27.4,56.84-19.82,21.07-48,31.68-74.73,42.7-30.57,12.59-56.15,27.76-76.16,54.55-20.55,27.52-31.25,63.14-28.4,97.41.8,9.61,4.1,16.67,9.28,21.61,6.68,6.37,16.46,9.24,28,9.54,20.47.53,40.92-.72,61.38-1.32,11.35-.34,27.92-2.6,41.84-.93C639.7,616.39,645.5,618,650,620.92Zm-45.4,19.67a37.56,37.56,0,0,1,7.37,8.49l.54.23a30.51,30.51,0,0,1-23,56.49c-.67-.25-1.32-.53-2-.82a39.23,39.23,0,0,1-12.08.62q.78.66,1.59,1.29a38.76,38.76,0,0,0,44.72,1.58,37.1,37.1,0,0,0,16.74-28.05c.07-.93.11-1.88.11-2.83,0-18.92-14.55-34.61-33.31-36.92Zm.73.08-.73-.08a37.56,37.56,0,0,1,7.37,8.49l.54.23a30.51,30.51,0,0,1-23,56.49c-.67-.25-1.32-.53-2-.82a39.23,39.23,0,0,1-12.08.62q.78.66,1.59,1.29a38.76,38.76,0,0,0,44.72,1.58,37.1,37.1,0,0,0,16.74-28.05c.07-.93.11-1.88.11-2.83C638.64,658.67,624.09,643,605.33,640.67Zm0,0-.73-.08a37.56,37.56,0,0,1,7.37,8.49l.54.23a30.51,30.51,0,0,1-23,56.49c-.67-.25-1.32-.53-2-.82a39.23,39.23,0,0,1-12.08.62q.78.66,1.59,1.29a38.76,38.76,0,0,0,44.72,1.58,37.1,37.1,0,0,0,16.74-28.05c.07-.93.11-1.88.11-2.83C638.64,658.67,624.09,643,605.33,640.67Zm0,0-.73-.08a37.56,37.56,0,0,1,7.37,8.49l.54.23a30.51,30.51,0,0,1-23,56.49c-.67-.25-1.32-.53-2-.82a39.23,39.23,0,0,1-12.08.62q.78.66,1.59,1.29a38.76,38.76,0,0,0,44.72,1.58,37.1,37.1,0,0,0,16.74-28.05c.07-.93.11-1.88.11-2.83C638.64,658.67,624.09,643,605.33,640.67Zm0,0-.73-.08a37.56,37.56,0,0,1,7.37,8.49l.54.23a30.51,30.51,0,0,1-23,56.49c-.67-.25-1.32-.53-2-.82a39.23,39.23,0,0,1-12.08.62q.78.66,1.59,1.29a38.76,38.76,0,0,0,44.72,1.58,37.1,37.1,0,0,0,16.74-28.05c.07-.93.11-1.88.11-2.83C638.64,658.67,624.09,643,605.33,640.67Zm0,0-.73-.08a37.56,37.56,0,0,1,7.37,8.49l.54.23a30.51,30.51,0,0,1-23,56.49c-.67-.25-1.32-.53-2-.82a39.23,39.23,0,0,1-12.08.62q.78.66,1.59,1.29a38.76,38.76,0,0,0,44.72,1.58,37.1,37.1,0,0,0,16.74-28.05c.07-.93.11-1.88.11-2.83C638.64,658.67,624.09,643,605.33,640.67Zm0,0-.73-.08a37.56,37.56,0,0,1,7.37,8.49l.54.23a30.51,30.51,0,0,1-23,56.49c-.67-.25-1.32-.53-2-.82a39.23,39.23,0,0,1-12.08.62q.78.66,1.59,1.29a38.76,38.76,0,0,0,44.72,1.58,37.1,37.1,0,0,0,16.74-28.05c.07-.93.11-1.88.11-2.83C638.64,658.67,624.09,643,605.33,640.67Z"/><path class="cls-3" d="M605.33,640.67l-.73-.08a37.56,37.56,0,0,1,7.37,8.49l.54.23a30.51,30.51,0,0,1-23,56.49c-.67-.25-1.32-.53-2-.82a39.23,39.23,0,0,1-12.08.62q.78.66,1.59,1.29a38.76,38.76,0,0,0,44.72,1.58,37.1,37.1,0,0,0,16.74-28.05c.07-.93.11-1.88.11-2.83C638.64,658.67,624.09,643,605.33,640.67Zm0,0-.73-.08a37.56,37.56,0,0,1,7.37,8.49l.54.23a30.51,30.51,0,0,1-23,56.49c-.67-.25-1.32-.53-2-.82a39.23,39.23,0,0,1-12.08.62q.78.66,1.59,1.29a38.76,38.76,0,0,0,44.72,1.58,37.1,37.1,0,0,0,16.74-28.05c.07-.93.11-1.88.11-2.83C638.64,658.67,624.09,643,605.33,640.67Zm0,0-.73-.08a37.56,37.56,0,0,1,7.37,8.49l.54.23a30.51,30.51,0,0,1-23,56.49c-.67-.25-1.32-.53-2-.82a39.23,39.23,0,0,1-12.08.62q.78.66,1.59,1.29a38.76,38.76,0,0,0,44.72,1.58,37.1,37.1,0,0,0,16.74-28.05c.07-.93.11-1.88.11-2.83C638.64,658.67,624.09,643,605.33,640.67Zm0,0-.73-.08a37.56,37.56,0,0,1,7.37,8.49l.54.23a30.51,30.51,0,0,1-23,56.49c-.67-.25-1.32-.53-2-.82a39.23,39.23,0,0,1-12.08.62q.78.66,1.59,1.29a38.76,38.76,0,0,0,44.72,1.58,37.1,37.1,0,0,0,16.74-28.05c.07-.93.11-1.88.11-2.83C638.64,658.67,624.09,643,605.33,640.67ZM720.27,258.76c-4.61-27.11-15.63-52.69-42.67-63.7A93.33,93.33,0,0,0,667,191.49c-32.65-8.86-68.8-.3-101.56,2.91a12.44,12.44,0,0,0-4.83,1.14c-3,1.62-4.09,5.23-4.88,8.52-4.56,19-4.68,38-6.9,57.25-3.54,30.78-9,58.27-26.6,84.57C505.13,371.5,482.3,388.47,455.09,402s-57,26.47-79,47.89c-39.48,38.34-55.43,99.27-57.94,152.86-.88,18.63.57,37.27,5.4,55.44,10.49,39.58,35.67,69.72,70.1,87.6a157.71,157.71,0,0,0,29.65,11.73c18.65,5.32,37.88,7.58,57.15,9.19,59.76,5,188.59-1.25,198.53-79.29.6-4.74-.88-38-1.4-61.86A25.14,25.14,0,0,0,652.41,601h-1.73l-111.57,0A25.15,25.15,0,0,1,514,574.38a128.33,128.33,0,0,1,5.48-30.33c11.33-36.73,37.5-59.11,70.89-76.23,50.1-25.67,109.17-47.85,127.35-106.94C727.73,328.34,725.93,292,720.27,258.76ZM650,620.92a24.35,24.35,0,0,1,6.83,6.85c3.38,5,5.34,11.05,6.45,17a86.33,86.33,0,0,1-17.85,69.65c-13.26,16.17-30.32,24-48.85,28.77h-.05c-11.09,2.83-22.71,4.55-34.36,6.28-37.16,5.5-75.85,6.17-112.07-5A159,159,0,0,1,424,733.83c-31-16-56.78-42.35-66.59-75.53-12.19-41.22-4.23-97,11.17-136.59,18.27-47,61.62-69.46,103.51-92.26,38.4-20.9,77.53-46.9,92.57-90.12,13.18-37.86,12-79.55,16.41-119,.23-2.09.52-4.3,1.88-5.9,1.59-1.87,4.23-2.39,6.65-2.8,19.14-3.2,39.67-6.17,58.14-1.94a62.27,62.27,0,0,1,17.92,7c38.13,22.64,40.86,79.86,33.83,118.47-3.83,21-12.79,41.31-27.4,56.84-19.82,21.07-48,31.68-74.73,42.7-30.57,12.59-56.15,27.76-76.16,54.55-20.55,27.52-31.25,63.14-28.4,97.41.8,9.61,4.1,16.67,9.28,21.61,6.68,6.37,16.46,9.24,28,9.54,20.47.53,40.92-.72,61.38-1.32,11.35-.34,27.92-2.6,41.84-.93C639.7,616.39,645.5,618,650,620.92Zm-45.4,19.67a37.56,37.56,0,0,1,7.37,8.49l.54.23a30.51,30.51,0,0,1-23,56.49c-.67-.25-1.32-.53-2-.82a39.23,39.23,0,0,1-12.08.62q.78.66,1.59,1.29a38.76,38.76,0,0,0,44.72,1.58,37.1,37.1,0,0,0,16.74-28.05c.07-.93.11-1.88.11-2.83,0-18.92-14.55-34.61-33.31-36.92Zm.73.08-.73-.08a37.56,37.56,0,0,1,7.37,8.49l.54.23a30.51,30.51,0,0,1-23,56.49c-.67-.25-1.32-.53-2-.82a39.23,39.23,0,0,1-12.08.62q.78.66,1.59,1.29a38.76,38.76,0,0,0,44.72,1.58,37.1,37.1,0,0,0,16.74-28.05c.07-.93.11-1.88.11-2.83C638.64,658.67,624.09,643,605.33,640.67Zm0,0-.73-.08a37.56,37.56,0,0,1,7.37,8.49l.54.23a30.51,30.51,0,0,1-23,56.49c-.67-.25-1.32-.53-2-.82a39.23,39.23,0,0,1-12.08.62q.78.66,1.59,1.29a38.76,38.76,0,0,0,44.72,1.58,37.1,37.1,0,0,0,16.74-28.05c.07-.93.11-1.88.11-2.83C638.64,658.67,624.09,643,605.33,640.67Z"/><path class="cls-3" d="M665.7,216.76a62.27,62.27,0,0,0-17.92-7c-18.47-4.23-39-1.26-58.14,1.94-2.42.41-5.06.93-6.65,2.8-1.36,1.6-1.65,3.81-1.88,5.9-4.36,39.43-3.23,81.12-16.41,119-15,43.22-54.17,69.22-92.57,90.12-41.89,22.8-85.24,45.31-103.51,92.26-15.4,39.56-23.36,95.37-11.17,136.59,9.81,33.18,35.58,59.51,66.59,75.53a159,159,0,0,0,26.06,10.66c36.22,11.17,74.91,10.5,112.07,5,11.65-1.73,23.27-3.45,34.36-6.28h.05c18.53-4.74,35.59-12.6,48.85-28.77a86.33,86.33,0,0,0,17.85-69.65c-1.11-6-3.07-12.06-6.45-17a24.35,24.35,0,0,0-6.83-6.85c-4.5-2.95-10.3-4.53-16.64-5.29-13.92-1.67-30.49.59-41.84.93-20.46.6-40.91,1.85-61.38,1.32-11.56-.3-21.34-3.17-28-9.54-5.18-4.94-8.48-12-9.28-21.61-2.85-34.27,7.85-69.89,28.4-97.41,20-26.79,45.59-42,76.16-54.55,26.74-11,54.91-21.63,74.73-42.7,14.61-15.53,23.57-35.86,27.4-56.84C706.56,296.62,703.83,239.4,665.7,216.76ZM560.6,636.32a38.73,38.73,0,0,1,44,4.27l.73.08c18.76,2.31,33.31,18,33.31,36.92,0,.95,0,1.9-.11,2.83a37.1,37.1,0,0,1-16.74,28.05,38.76,38.76,0,0,1-44.72-1.58q-.81-.63-1.59-1.29a38.28,38.28,0,0,1-28-16.89l-.06-.1a38,38,0,0,1,12.84-52.1Z"/><circle class="cls-3" cx="633.32" cy="86.93" r="69.18"/><path class="cls-4" d="M560.28,636.51a37.06,37.06,0,0,0-18.83,32.08,36.43,36.43,0,0,0,6,20,38,38,0,0,1,12.84-52.1Zm0,0a37.06,37.06,0,0,0-18.83,32.08,36.43,36.43,0,0,0,6,20,38,38,0,0,1,12.84-52.1Zm0,0a37.06,37.06,0,0,0-18.83,32.08,36.43,36.43,0,0,0,6,20,38,38,0,0,1,12.84-52.1Zm0,0a37.06,37.06,0,0,0-18.83,32.08,36.43,36.43,0,0,0,6,20,38,38,0,0,1,12.84-52.1Zm0,0a37.06,37.06,0,0,0-18.83,32.08,36.43,36.43,0,0,0,6,20,38,38,0,0,1,12.84-52.1Zm0,0a37.06,37.06,0,0,0-18.83,32.08,36.43,36.43,0,0,0,6,20,38,38,0,0,1,12.84-52.1Zm139-386.75c-4-23.32-12.68-45.51-32.25-58.27a61.32,61.32,0,0,0-10.42-5.43c-35.28-14.37-75.8-4.22-112.14-.66a12.44,12.44,0,0,0-4.83,1.14c-3,1.62-4.09,5.23-4.88,8.52-4.56,19-4.68,38-6.9,57.25-3.54,30.78-9,58.27-26.6,84.57C484.13,362.5,461.3,379.47,434.09,393s-57,26.47-79,47.89c-39.48,38.34-55.43,99.27-57.94,152.86-.88,18.63.57,37.27,5.4,55.44,12.52,47.24,46,81,91.1,96.6q4.26,1.49,8.65,2.73c18.65,5.32,37.88,7.58,57.15,9.19,34.69,2.88,92.64,2,137.11-14.51h.05c32.12-11.94,57.21-32.05,61.37-64.77.51-4-.48-28.7-1.12-50.66-.1-3.86-.2-7.64-.28-11.2A25.16,25.16,0,0,0,631.41,592l-111.58,0h-1.72A25.14,25.14,0,0,1,493,565.38a128.33,128.33,0,0,1,5.48-30.33c11.33-36.73,37.5-59.11,70.89-76.23,50.1-25.67,109.17-47.85,127.35-106.94C706.73,319.34,704.93,283,699.27,249.76ZM509.14,608.88c20.47.53,40.92-.72,61.38-1.32,16.51-.49,44.09-5.06,58.48,4.36a23.19,23.19,0,0,1,4.36,3.71c4.92,5.35,7.56,12.86,8.92,20.15a85.88,85.88,0,0,1-3.75,44.64,84.46,84.46,0,0,1-14.1,25c-.86,1.05-1.73,2.06-2.64,3-21.09,23.21-50.78,27.6-80.62,32-37.16,5.5-75.85,6.17-112.07-5-1.69-.52-3.38-1.08-5.06-1.66-40-13.83-75.63-44.09-87.59-84.53-12.19-41.22-4.23-97,11.17-136.59,18.27-47,61.62-69.46,103.51-92.26,38.4-20.9,77.53-46.9,92.57-90.12,13.18-37.86,12-79.55,16.41-119,.23-2.09.52-4.3,1.88-5.9,1.59-1.87,4.23-2.39,6.65-2.8,25.62-4.29,53.73-8.15,76.06,5.11,1,.63,2.08,1.28,3.08,2,35.19,23.84,37.59,79,30.75,116.52-3.83,21-12.79,41.31-27.4,56.84-19.82,21.07-48,31.68-74.73,42.7-30.57,12.59-56.15,27.76-76.16,54.55-20.55,27.52-31.25,63.14-28.4,97.41,1.61,19.38,13.42,28.39,30.28,30.61A65.52,65.52,0,0,0,509.14,608.88ZM542,669a38,38,0,0,1,18.28-32.49,37.06,37.06,0,0,0-18.83,32.08,36.43,36.43,0,0,0,6,20A37.85,37.85,0,0,1,542,669Zm18.28-32.49a37.06,37.06,0,0,0-18.83,32.08,36.43,36.43,0,0,0,6,20,38,38,0,0,1,12.84-52.1Zm0,0a37.06,37.06,0,0,0-18.83,32.08,36.43,36.43,0,0,0,6,20,38,38,0,0,1,12.84-52.1Zm0,0a37.06,37.06,0,0,0-18.83,32.08,36.43,36.43,0,0,0,6,20,38,38,0,0,1,12.84-52.1Zm0,0a37.06,37.06,0,0,0-18.83,32.08,36.43,36.43,0,0,0,6,20,38,38,0,0,1,12.84-52.1Zm0,0a37.06,37.06,0,0,0-18.83,32.08,36.43,36.43,0,0,0,6,20,38,38,0,0,1,12.84-52.1Zm0,0a37.06,37.06,0,0,0-18.83,32.08,36.43,36.43,0,0,0,6,20,38,38,0,0,1,12.84-52.1Z"/><path class="cls-4" d="M560.28,636.51a37.06,37.06,0,0,0-18.83,32.08,36.43,36.43,0,0,0,6,20,38,38,0,0,1,12.84-52.1Zm0,0a37.06,37.06,0,0,0-18.83,32.08,36.43,36.43,0,0,0,6,20,38,38,0,0,1,12.84-52.1Zm0,0a37.06,37.06,0,0,0-18.83,32.08,36.43,36.43,0,0,0,6,20,38,38,0,0,1,12.84-52.1Zm0,0a37.06,37.06,0,0,0-18.83,32.08,36.43,36.43,0,0,0,6,20,38,38,0,0,1,12.84-52.1Zm139-386.75c-4-23.32-12.68-45.51-32.25-58.27a61.32,61.32,0,0,0-10.42-5.43c-35.28-14.37-75.8-4.22-112.14-.66a12.44,12.44,0,0,0-4.83,1.14c-3,1.62-4.09,5.23-4.88,8.52-4.56,19-4.68,38-6.9,57.25-3.54,30.78-9,58.27-26.6,84.57C484.13,362.5,461.3,379.47,434.09,393s-57,26.47-79,47.89c-39.48,38.34-55.43,99.27-57.94,152.86-.88,18.63.57,37.27,5.4,55.44,12.52,47.24,46,81,91.1,96.6q4.26,1.49,8.65,2.73c18.65,5.32,37.88,7.58,57.15,9.19,34.69,2.88,92.64,2,137.11-14.51h.05c32.12-11.94,57.21-32.05,61.37-64.77.51-4-.48-28.7-1.12-50.66-.1-3.86-.2-7.64-.28-11.2A25.16,25.16,0,0,0,631.41,592l-111.58,0h-1.72A25.14,25.14,0,0,1,493,565.38a128.33,128.33,0,0,1,5.48-30.33c11.33-36.73,37.5-59.11,70.89-76.23,50.1-25.67,109.17-47.85,127.35-106.94C706.73,319.34,704.93,283,699.27,249.76ZM509.14,608.88c20.47.53,40.92-.72,61.38-1.32,16.51-.49,44.09-5.06,58.48,4.36a23.19,23.19,0,0,1,4.36,3.71c4.92,5.35,7.56,12.86,8.92,20.15a85.88,85.88,0,0,1-3.75,44.64,84.46,84.46,0,0,1-14.1,25c-.86,1.05-1.73,2.06-2.64,3-21.09,23.21-50.78,27.6-80.62,32-37.16,5.5-75.85,6.17-112.07-5-1.69-.52-3.38-1.08-5.06-1.66-40-13.83-75.63-44.09-87.59-84.53-12.19-41.22-4.23-97,11.17-136.59,18.27-47,61.62-69.46,103.51-92.26,38.4-20.9,77.53-46.9,92.57-90.12,13.18-37.86,12-79.55,16.41-119,.23-2.09.52-4.3,1.88-5.9,1.59-1.87,4.23-2.39,6.65-2.8,25.62-4.29,53.73-8.15,76.06,5.11,1,.63,2.08,1.28,3.08,2,35.19,23.84,37.59,79,30.75,116.52-3.83,21-12.79,41.31-27.4,56.84-19.82,21.07-48,31.68-74.73,42.7-30.57,12.59-56.15,27.76-76.16,54.55-20.55,27.52-31.25,63.14-28.4,97.41,1.61,19.38,13.42,28.39,30.28,30.61A65.52,65.52,0,0,0,509.14,608.88ZM542,669a38,38,0,0,1,18.28-32.49,37.06,37.06,0,0,0-18.83,32.08,36.43,36.43,0,0,0,6,20A37.85,37.85,0,0,1,542,669Zm18.28-32.49a37.06,37.06,0,0,0-18.83,32.08,36.43,36.43,0,0,0,6,20,38,38,0,0,1,12.84-52.1Zm0,0a37.06,37.06,0,0,0-18.83,32.08,36.43,36.43,0,0,0,6,20,38,38,0,0,1,12.84-52.1Z"/><path class="cls-4" d="M647.78,209.71c-1-.67-2-1.32-3.08-2-22.33-13.26-50.44-9.4-76.06-5.11-2.42.41-5.06.93-6.65,2.8-1.36,1.6-1.65,3.81-1.88,5.9-4.36,39.43-3.23,81.12-16.41,119-15,43.22-54.17,69.22-92.57,90.12-41.89,22.8-85.24,45.31-103.51,92.26-15.4,39.56-23.36,95.37-11.17,136.59,12,40.44,47.63,70.7,87.59,84.53,1.68.58,3.37,1.14,5.06,1.66,36.22,11.17,74.91,10.5,112.07,5,29.84-4.42,59.53-8.81,80.62-32,.91-1,1.78-2,2.64-3a84.46,84.46,0,0,0,14.1-25,85.88,85.88,0,0,0,3.75-44.64c-1.36-7.29-4-14.8-8.92-20.15a23.19,23.19,0,0,0-4.36-3.71c-14.39-9.42-42-4.85-58.48-4.36-20.46.6-40.91,1.85-61.38,1.32a65.52,65.52,0,0,1-7-.54c-16.86-2.22-28.67-11.23-30.28-30.61-2.85-34.27,7.85-69.89,28.4-97.41,20-26.79,45.59-42,76.16-54.55,26.74-11,54.91-21.63,74.73-42.7,14.61-15.53,23.57-35.86,27.4-56.84C685.37,288.69,683,233.55,647.78,209.71ZM547.44,688.61a36.43,36.43,0,0,1-6-20,37.06,37.06,0,0,1,18.83-32.08l.32-.19a38.73,38.73,0,0,1,44,4.27,37.56,37.56,0,0,1,7.37,8.49,36.32,36.32,0,0,1,5.67,19.51c0,17.83-12.91,32.78-30.08,36.39a39.23,39.23,0,0,1-12.08.62,38.28,38.28,0,0,1-28-16.89Z"/><circle class="cls-4" cx="612.32" cy="77.93" r="69.18"/><path class="cls-3" d="M617.64,668.59c0,17.83-12.91,32.78-30.08,36.39a39.23,39.23,0,0,1-12.08.62,38.28,38.28,0,0,1-28-16.89l-.06-.1a38,38,0,0,1,12.84-52.1l.32-.19a38.73,38.73,0,0,1,44,4.27,37.56,37.56,0,0,1,7.37,8.49A36.32,36.32,0,0,1,617.64,668.59Z"/></g></svg>