<?xml version="1.0" encoding="UTF-8" standalone="no"?>
<svg
   xmlns:dc="http://purl.org/dc/elements/1.1/"
   xmlns:cc="http://creativecommons.org/ns#"
   xmlns:rdf="http://www.w3.org/1999/02/22-rdf-syntax-ns#"
   xmlns:svg="http://www.w3.org/2000/svg"
   xmlns="http://www.w3.org/2000/svg"
   xmlns:xlink="http://www.w3.org/1999/xlink"
   xmlns:sodipodi="http://sodipodi.sourceforge.net/DTD/sodipodi-0.dtd"
   xmlns:inkscape="http://www.inkscape.org/namespaces/inkscape"
   xml:space="preserve"
   style="enable-background:new 0 0 532.5 532.5;"
   viewBox="0 0 532.5 532.5"
   y="0px"
   x="0px"
   id="svg8"
   version="1.1"
   sodipodi:docname="base_icon.svg"
   inkscape:version="0.92.4 (f8dce91, 2019-08-02)"
   enable-background="new"
   inkscape:export-filename="/home/sebastiaan/Pictures/frames/take_two/blue_60.png"
   inkscape:export-xdpi="52.981266"
   inkscape:export-ydpi="52.981266"><sodipodi:namedview
   pagecolor="#ffffff"
   bordercolor="#666666"
   borderopacity="1"
   objecttolerance="10"
   gridtolerance="10"
   guidetolerance="10"
   inkscape:pageopacity="0"
   inkscape:pageshadow="2"
   inkscape:window-width="1920"
   inkscape:window-height="948"
   id="namedview3457"
   showgrid="false"
   inkscape:zoom="1.2535377"
   inkscape:cx="180.26142"
   inkscape:cy="286.80581"
   inkscape:window-x="0"
   inkscape:window-y="132"
   inkscape:window-maximized="0"
   inkscape:current-layer="layer2"
   showborder="true"
   inkscape:snap-global="false"
   inkscape:pagecheckerboard="false" /><metadata
   id="metadata1124"><rdf:RDF><cc:Work
       rdf:about=""><dc:format>image/svg+xml</dc:format><dc:type
         rdf:resource="http://purl.org/dc/dcmitype/StillImage" /><dc:title></dc:title></cc:Work></rdf:RDF></metadata><defs
   id="defs1122"><linearGradient
     inkscape:collect="always"
     id="linearGradient885"><stop
       style="stop-color:#fb27fb;stop-opacity:1"
       offset="0"
       id="stop881" /><stop
       style="stop-color:#5d32aa;stop-opacity:1"
       offset="1"
       id="stop883" /></linearGradient><linearGradient
     id="linearGradient866"
     inkscape:collect="always"><stop
       id="stop862"
       offset="0"
       style="stop-color:#889093;stop-opacity:1" /><stop
       id="stop864"
       offset="1"
       style="stop-color:#333333;stop-opacity:1" /></linearGradient><linearGradient
     inkscape:collect="always"
     id="linearGradient5886"><stop
       style="stop-color:#37ddfc;stop-opacity:1"
       offset="0"
       id="stop5882" /><stop
       style="stop-color:#283df2;stop-opacity:1"
       offset="1"
       id="stop5884" /></linearGradient><linearGradient
     id="linearGradient5857"
     inkscape:collect="always"><stop
       id="stop5861"
       offset="0"
       style="stop-color:#fb10fb;stop-opacity:1" /><stop
       id="stop5863"
       offset="1"
       style="stop-color:#5d32aa;stop-opacity:1" /></linearGradient><radialGradient
     inkscape:collect="always"
     xlink:href="#linearGradient885"
     id="radialGradient5870"
     cx="160.66882"
     cy="277.43893"
     fx="160.66882"
     fy="277.43893"
     r="121.54403"
     gradientTransform="matrix(1.3762111,1.035529,-1.0981508,1.459435,249.68017,-302.61524)"
     gradientUnits="userSpaceOnUse" /><radialGradient
     inkscape:collect="always"
     xlink:href="#linearGradient5886"
     id="radialGradient5880"
     cx="311.492"
     cy="371.75699"
     fx="311.492"
     fy="371.75699"
     r="121.78796"
     gradientTransform="matrix(0.65714315,-1.6010826,1.1278475,0.46291007,-289.75821,728.32408)"
     gradientUnits="userSpaceOnUse" /><filter
     inkscape:collect="always"
     style="color-interpolation-filters:sRGB"
     id="filter6392"
     x="-0.14442021"
     width="1.2888404"
     y="-0.14358223"
     height="1.2871645"><feGaussianBlur
       inkscape:collect="always"
       stdDeviation="14.627846"
       id="feGaussianBlur6394" /></filter><filter
     inkscape:collect="always"
     style="color-interpolation-filters:sRGB"
     id="filter6466"
     x="-0.14483817"
     width="1.2896763"
     y="-0.14317148"
     height="1.286343"><feGaussianBlur
       inkscape:collect="always"
       stdDeviation="14.699621"
       id="feGaussianBlur6468" /></filter><radialGradient
     inkscape:collect="always"
     xlink:href="#linearGradient5886"
     id="radialGradient6470"
     gradientUnits="userSpaceOnUse"
     gradientTransform="matrix(0.65714315,-1.6010826,1.1278475,0.46291007,-289.75821,728.32408)"
     cx="311.492"
     cy="371.75699"
     fx="311.492"
     fy="371.75699"
     r="121.78796" /><radialGradient
     inkscape:collect="always"
     xlink:href="#linearGradient5857"
     id="radialGradient6472"
     gradientUnits="userSpaceOnUse"
     gradientTransform="matrix(1.3762111,1.035529,-1.0981508,1.459435,249.68017,-302.61524)"
     cx="160.66882"
     cy="277.43893"
     fx="160.66882"
     fy="277.43893"
     r="121.54403" /><radialGradient
     inkscape:collect="always"
     xlink:href="#linearGradient866"
     id="radialGradient860"
     gradientUnits="userSpaceOnUse"
     gradientTransform="matrix(1.3762111,1.035529,-1.0981508,1.459435,249.68017,-302.61524)"
     cx="160.66882"
     cy="277.43893"
     fx="160.66882"
     fy="277.43893"
     r="121.54403" /><radialGradient
     inkscape:collect="always"
     xlink:href="#linearGradient866"
     id="radialGradient879"
     gradientUnits="userSpaceOnUse"
     gradientTransform="matrix(0.65714315,-1.6010826,1.1278475,0.46291007,-289.75821,728.32408)"
     cx="311.492"
     cy="371.75699"
     fx="311.492"
     fy="371.75699"
     r="121.78796" /></defs>
<style
   id="style1081"
   type="text/css">
	.st0{fill:#7289DA;}
	.st1{fill:#5B6DAE;}
	.st2{fill:#CAD6FF;}
	.st3{fill:#FFFFFF;}
</style>


<g
   inkscape:groupmode="layer"
   id="layer4"
   inkscape:label="background"><rect
     ry="52.765873"
     y="34.318985"
     x="34.318985"
     height="463.86203"
     width="463.86203"
     id="rect1995"
     style="enable-background:new 0 0 532.50000000000000000 532.50000000000000000;display:inline;opacity:1;vector-effect:none;fill:#1c234a;fill-opacity:1;stroke:none;stroke-width:1;stroke-linecap:butt;stroke-linejoin:miter;stroke-miterlimit:4;stroke-dasharray:none;stroke-dashoffset:0;stroke-opacity:1"
     inkscape:label="background" /></g><g
   inkscape:groupmode="layer"
   id="layer2"
   inkscape:label="Glow Blue"
   style="display:inline;opacity:0.2"><path
     inkscape:label="lower_snake"
     inkscape:connector-curvature="0"
     id="path6396"
     class="st3"
     d="m 355.10607,185.24814 v 35 c 0,27.2 -23.1,50 -49.5,50 h -79.1 c -21.7,0 -39.6,18.5 -39.6,40.1 v 75.1 c 0,21.4 18.7,34 39.6,40.1 25.1,7.3 49.1,8.7 79.1,0 19.9,-5.7 39.6,-17.3 39.6,-40.1 v -30.1 h -79.1 v -10 h 79.1 39.6 c 23,0 31.6,-16 39.6,-40 8.3,-24.7 7.9,-48.5 0,-80.2 -5.7,-22.8 -16.6,-40 -39.6,-40 h -29.7 z m -44.5,190.2 c 8.2,0 14.9,6.7 14.9,15 0,8.3 -6.7,15.1 -14.9,15.1 -8.2,0 -14.9,-6.8 -14.9,-15.1 0,-8.3 6.7,-15 14.9,-15 z"
     style="display:inline;opacity:1;fill:url(#radialGradient6470);fill-opacity:1;filter:url(#filter6466)"
     transform="matrix(1.0872691,0,0,1.0872691,-24.508429,-24.387625)" /></g><g
   inkscape:groupmode="layer"
   id="layer1"
   inkscape:label="Glow Purple"
   style="display:inline;opacity:0.2"><path
     inkscape:label="upper_snake"
     inkscape:connector-curvature="0"
     id="path6330"
     class="st2"
     d="m 265.80078,97.164882 c -13.5,0.1 -27.24736,4.226608 -38.64736,6.226608 -33.5,5.9 -47.75789,14.61007 -44.83147,37.21674 l -1.4947,34.63991 h 85.17882 v 10 h -79.2 -29.7 c -23,0 -43.2,13.8 -49.5,40 -7.3,30 -7.6,48.8 0,80.2 5.6,23.4 19.1,40 42.1,40 l 39.90499,3.78325 -0.74735,-37.5133 c -0.51788,-25.99471 10.64354,-48.7451 37.54236,-49 l 79.84735,-0.75665 c 21.99904,-0.20846 38.19037,-19.62352 38.85265,-41.6133 l 2.24206,-74.44335 c 0.64422,-21.39006 -20.34206,-38.15665 -41.84206,-41.75665 -13.5,-2.3 -26.10529,-7.083258 -39.70529,-6.983258 z m -43.54736,31.009868 c 8.2,0 18.63676,2.26009 18.63676,10.56009 0,8.3 -8.94237,24.76367 -17.14205,24.83647 -8.07607,0.0717 -8.78044,5.27166 -21.62618,-10.4601 -5.28642,-6.4741 11.93147,-24.93646 20.13147,-24.93646 z"
     style="display:inline;opacity:1;fill:url(#radialGradient6472);fill-opacity:1;filter:url(#filter6392)"
     transform="matrix(1.1265541,0,0,1.1127091,-28.893653,-27.351296)"
     sodipodi:nodetypes="ccsccccsccscsssssccsssss" /></g><g
   inkscape:groupmode="layer"
   id="layer3"
   inkscape:label="Foreground"
   style="display:inline"><path
     style="display:inline;fill:url(#radialGradient5870);fill-opacity:1"
     d="m 264.30607,100.94814 c -13.5,0.1 -26.5,1.2 -37.9,3.2 -33.5,5.9 -39.6,18.2 -39.6,41 v 30.1 h 79.2 v 10 h -79.2 -29.7 c -23,0 -43.2,13.8 -49.5,40 -7.3,30 -7.6,48.8 0,80.2 5.6,23.4 19.1,40 42.1,40 h 27.2 v -36 c 0,-26 22.6,-49 49.5,-49 h 79.1 c 22,0 39.6,-18.1 39.6,-40.1 v -75.2 c 0,-21.4 -18.1,-37.4 -39.6,-41 -13.5,-2.3 -27.6,-3.3 -41.2,-3.2 z m -42.8,24.2 c 8.2,0 14.9,6.8 14.9,15.1 0,8.3 -6.7,15 -14.9,15 -8.2,0 -14.9,-6.7 -14.9,-15 0,-8.4 6.7,-15.1 14.9,-15.1 z"
     class="st2"
     id="path1948"
     inkscape:connector-curvature="0"
     inkscape:label="upper_snake" /><path
     style="display:inline;fill:url(#radialGradient5880);fill-opacity:1"
     d="m 355.10607,185.24814 v 35 c 0,27.2 -23.1,50 -49.5,50 h -79.1 c -21.7,0 -39.6,18.5 -39.6,40.1 v 75.1 c 0,21.4 18.7,34 39.6,40.1 25.1,7.3 49.1,8.7 79.1,0 19.9,-5.7 39.6,-17.3 39.6,-40.1 v -30.1 h -79.1 v -10 h 79.1 39.6 c 23,0 31.6,-16 39.6,-40 8.3,-24.7 7.9,-48.5 0,-80.2 -5.7,-22.8 -16.6,-40 -39.6,-40 h -29.7 z m -44.5,190.2 c 8.2,0 14.9,6.7 14.9,15 0,8.3 -6.7,15.1 -14.9,15.1 -8.2,0 -14.9,-6.8 -14.9,-15.1 0,-8.3 6.7,-15 14.9,-15 z"
     class="st3"
     id="path1950"
     inkscape:connector-curvature="0"
     inkscape:label="lower_snake" /></g><g
   style="display:none"
   inkscape:label="Foreground Blue Off"
   id="g877"
   inkscape:groupmode="layer"><path
     inkscape:label="lower_snake"
     inkscape:connector-curvature="0"
     id="path875"
     class="st3"
     d="m 355.10607,185.24814 v 35 c 0,27.2 -23.1,50 -49.5,50 h -79.1 c -21.7,0 -39.6,18.5 -39.6,40.1 v 75.1 c 0,21.4 18.7,34 39.6,40.1 25.1,7.3 49.1,8.7 79.1,0 19.9,-5.7 39.6,-17.3 39.6,-40.1 v -30.1 h -79.1 v -10 h 79.1 39.6 c 23,0 31.6,-16 39.6,-40 8.3,-24.7 7.9,-48.5 0,-80.2 -5.7,-22.8 -16.6,-40 -39.6,-40 h -29.7 z m -44.5,190.2 c 8.2,0 14.9,6.7 14.9,15 0,8.3 -6.7,15.1 -14.9,15.1 -8.2,0 -14.9,-6.8 -14.9,-15.1 0,-8.3 6.7,-15 14.9,-15 z"
     style="display:inline;opacity:0.7;fill:url(#radialGradient879);fill-opacity:1" /></g><g
   style="display:none;opacity:1"
   inkscape:label="Foreground Pink Off"
   id="g858"
   inkscape:groupmode="layer"><path
     inkscape:label="upper_snake"
     inkscape:connector-curvature="0"
     id="path854"
     class="st2"
     d="m 264.30607,100.94814 c -13.5,0.1 -26.5,1.2 -37.9,3.2 -33.5,5.9 -39.6,18.2 -39.6,41 v 30.1 h 79.2 v 10 h -79.2 -29.7 c -23,0 -43.2,13.8 -49.5,40 -7.3,30 -7.6,48.8 0,80.2 5.6,23.4 19.1,40 42.1,40 h 27.2 v -36 c 0,-26 22.6,-49 49.5,-49 h 79.1 c 22,0 39.6,-18.1 39.6,-40.1 v -75.2 c 0,-21.4 -18.1,-37.4 -39.6,-41 -13.5,-2.3 -27.6,-3.3 -41.2,-3.2 z m -42.8,24.2 c 8.2,0 14.9,6.8 14.9,15.1 0,8.3 -6.7,15 -14.9,15 -8.2,0 -14.9,-6.7 -14.9,-15 0,-8.4 6.7,-15.1 14.9,-15.1 z"
     style="display:inline;opacity:0.7;fill:url(#radialGradient860);fill-opacity:1" /></g></svg>