<svg
    version="1.1"
    id="logo_polysexual"
    xmlns:svg="http://www.w3.org/2000/svg"
    xmlns="http://www.w3.org/2000/svg"
    viewBox="0 0 500 500"
>
<defs>
    <clipPath id="bg_clip">
        <rect x="0" y="0" width="500" height="500" />
    </clipPath>
</defs>
<g id="striped_bg" clip-path="url(#bg_clip)">
    <rect id="stripe_3" fill="#1c92f6" width="500" height="500" />
    <polygon id="stripe_1" fill="#f61cb9" points="0,0 0,500 500,0" />
    <line id="stripe_2" stroke="#07d569" x1="500" y2="500" stroke-width="200" />
</g>
<g id="python_logo" transform="scale(1.1415525114155251141552511415525)">
    <path
        id="shadow"
        fill="#231F20"
        opacity="0.36"
        d="m283.1 68-11.506 3.3086c-12.223-1.8051-24.757-2.5971-36.895-2.5078-13.5 0.1-26.498 1.1992-37.898 3.1992-3.6998 0.6516-7.0474 1.386-10.107 2.1992h-35.893v18.801h4.5v7.6992h2.7832c-0.63936 3.7142-0.88476 7.7997-0.88476 12.301v4h-15.398l-2.2012 11 17.6 15.014v0.0859h79.201v10h-108.9c-23 0-43.2 13.8-49.5 40-7.3 30-7.6 48.801 0 80.201 0.49734 2.0782 1.0605 4.0985 1.6836 6.0625l-1.1836 10.438 13.346 11.549c7.032 7.5103 16.371 11.951 28.254 11.951h27.201v-36c0-26 22.6-49 49.5-49h79.199c22 0 39.6-18.102 39.6-40.102v-75.199c0-12.9-6.5819-23.831-16.516-31.273zm76.801 77.6-14.301 7.4004h-20.1v35.1c0 27.2-23.1 50-49.5 50h-79.1c-21.7 0-39.6 18.5-39.6 40.1v75.102c0 21.4 18.7 34 39.6 40.1 25.1 7.3 49.1 8.7 79.1 0 19.9-5.7 39.6-17.3 39.6-40.1v-30.102h-0.11914l-11.721-10h51.439c23 0 31.602-16 39.602-40 8.3-24.7 7.9-48.499 0-80.199-3.6226-14.491-9.3525-26.71-18.947-33.699zm-123.4 167.6h57.5v10h-57.5z"
    />
    <path
        id="upper_snake"
        fill="#CAD6FF"
        d="m217 53.7c-13.5 0.1-26.5 1.2-37.9 3.2-33.5 5.9-39.6 18.2-39.6 41v30.1h79.2v10h-108.9c-23 0-43.2 13.8-49.5 40-7.3 30-7.6 48.8 0 80.2 5.6 23.4 19.1 40 42.1 40h27.2v-36c0-26 22.6-49 49.5-49h79.1c22 0 39.6-18.1 39.6-40.1v-75.2c0-21.4-18.1-37.4-39.6-41-13.5-2.3-27.6-3.3-41.2-3.2zm-42.8 24.2c8.2 0 14.9 6.8 14.9 15.1s-6.7 15-14.9 15-14.9-6.7-14.9-15c0-8.4 6.7-15.1 14.9-15.1z"
    />
    <path
        id="lower_snake"
        fill="#FFFFFF"
        d="m307.8 138v35c0 27.2-23.1 50-49.5 50h-79.1c-21.7 0-39.6 18.5-39.6 40.1v75.1c0 21.4 18.7 34 39.6 40.1 25.1 7.3 49.1 8.7 79.1 0 19.9-5.7 39.6-17.3 39.6-40.1v-30.1h-79.1v-10h118.7c23 0 31.6-16 39.6-40 8.3-24.7 7.9-48.5 0-80.2-5.7-22.8-16.6-40-39.6-40h-29.7zm-44.5 190.2c8.2 0 14.9 6.7 14.9 15s-6.7 15.1-14.9 15.1-14.9-6.8-14.9-15.1 6.7-15 14.9-15z"
    />
</g>
</svg>
