<svg id="Layer_1" data-name="Layer 1" xmlns="http://www.w3.org/2000/svg" viewBox="0 0 256 256"><defs><style>.cls-1{fill:#f87dc8;}</style></defs><path class="cls-1" d="M218.82,62.41c0-1.41,0-2.54-.09-3.32-.23-5.17-3-6.8-5.36-7.24a6.35,6.35,0,0,0-1.89-.09h-17c0-1.44,0-2.89-.05-4.37a.75.75,0,0,0-.75-.74H121.71v.07H62.06a.75.75,0,0,0-.75.74c0,1.45,0,2.88,0,4.3H44.52a6.35,6.35,0,0,0-1.89.09c-2.31.44-5.13,2.07-5.36,7.24,0,.27,0,.59,0,.94,0,.72,0,1.52,0,2.43,0,.32,0,.66,0,1v.13c0,.4,0,.8,0,1.22v0c0,.82,0,1.67,0,2.55v.22c0,1.77,0,3.63,0,5.49.08,6.21.37,17.93,1.42,26.71.23,1.9,6,46.21,47.49,46.53C98.47,159,114,163.08,117.18,163.81a.74.74,0,0,1,.58.72l.4,38.51c-1.37,14.22-16.37,26.23-33.55,27.29H83.23a.76.76,0,0,0-.75.75v10.61a.75.75,0,0,0,.75.74L134,242.3v0l38.47.11a.76.76,0,0,0,.75-.75V231a.76.76,0,0,0-.75-.75h-1.38C153.9,229.2,138.9,217.19,137.54,203l.4-38.51a.73.73,0,0,1,.57-.72c3.15-.73,18.65-4.82,31-17.4,41.83,0,47.64-44.62,47.87-46.53,1-8.78,1.34-20.5,1.42-26.71C218.87,69.28,218.87,65.48,218.82,62.41ZM51.51,98.27c-1.19-10-1.43-25.2-1.37-33.51H61.58c1.79,35.05,10.79,59.25,14.3,67C55,125.08,51.66,99.52,51.51,98.27ZM152.6,135.89,128,123l-24.6,12.93,4.7-27.39L88.2,89.1l27.5-4L128,60.18,140.3,85.1l27.5,4-19.9,19.4Zm51.89-37.62c-.15,1.26-3.51,27.15-24.77,33.62,3.43-7.5,12.58-31.79,14.39-67.13h11.75C205.92,73.07,205.68,88.32,204.49,98.27Z"/></svg>