<svg id="Layer_1" data-name="Layer 1" xmlns="http://www.w3.org/2000/svg" viewBox="0 0 36 36"><defs><style>.cls-1{fill:#7de29c;}.cls-2{fill:#4c936c;}</style></defs><path class="cls-1" d="M11.63,7.49a1.3,1.3,0,0,0-.27.39h0L.13,33.14h0c-.21.41.14,1.23.85,1.94s1.53,1.06,1.93.85h0L28.21,24.74h0a1.56,1.56,0,0,0,.4-.27c1.56-1.56-1-6.63-5.66-11.32S13.19,5.93,11.63,7.49Z"/><path class="cls-1" d="M30.66,22.86c2-.56,3.33.32,3.66,1.48S33.94,27,32,27.51c-.77.21-1,.58-1,.7s.42.31,1.19.09c2-.55,3.34.33,3.66,1.48S35.47,32.39,33.5,33c-.77.22-1,.58-1,.7s.42.31,1.19.1a1,1,0,1,1,.54,1.92c-2,.56-3.33-.32-3.66-1.48S31,31.58,33,31c.77-.21,1-.58,1-.7s-.42-.31-1.19-.09c-2,.55-3.33-.33-3.65-1.48s.37-2.62,2.35-3.17c.76-.22,1-.59,1-.7s-.42-.32-1.19-.1a1,1,0,1,1-.54-1.92Z"/><path class="cls-1" d="M5.75,16a.9.9,0,0,1-.28,0,1,1,0,0,1-.67-1.25C5.93,10.94,7,4.92,5.69,3.35A.87.87,0,0,0,4.85,3C3.91,3.11,4,5.08,4,5.1a1,1,0,0,1-.92,1.08A1,1,0,0,1,2,5.25c-.1-1.38.33-4,2.69-4.21A2.83,2.83,0,0,1,7.25,2.1c2.37,2.95,0,11.5-.54,13.19A1,1,0,0,1,5.75,16Z"/><circle class="cls-1" cx="25.5" cy="9.5" r="1.5"/><circle class="cls-1" cx="2" cy="18" r="2"/><circle class="cls-1" cx="32.5" cy="19.5" r="1.5"/><circle class="cls-1" cx="23.5" cy="31.5" r="1.5"/><circle class="cls-1" cx="28" cy="4" r="2"/><circle class="cls-1" cx="32.5" cy="8.5" r="1.5"/><path class="cls-2" d="M23.3,12.94c4.67,4.67,7.26,9.65,5.79,11.13S22.63,23,18,18.28,10.7,8.62,12.17,7.15,18.62,8.27,23.3,12.94Z"/><circle class="cls-1" cx="29.5" cy="12.5" r="1.5"/><path class="cls-1" d="M19.48,12.62a.88.88,0,0,1-.67.2A3.35,3.35,0,0,1,16.86,12a2,2,0,0,1-.68-1.72c.12-1.1,1.22-2.11,3.11-1.91.73.08,1.06-.15,1.07-.27s-.26-.41-1-.49a3.31,3.31,0,0,1-1.95-.81,2,2,0,0,1-.68-1.72C16.86,4,18,3,19.85,3.19a1.55,1.55,0,0,0,.93-.13c.1-.06.13-.11.14-.14s-.26-.42-1-.5a.92.92,0,1,1,.2-1.83C22,.79,22.88,2,22.76,3.11S21.53,5.23,19.65,5a1.57,1.57,0,0,0-.94.13c-.09.06-.13.11-.13.14s.25.42,1,.5c1.88.2,2.74,1.42,2.62,2.52s-1.22,2.12-3.1,1.91a1.49,1.49,0,0,0-.94.13.3.3,0,0,0-.14.14c0,.11.26.41,1,.49a.92.92,0,0,1,.82,1A.88.88,0,0,1,19.48,12.62Z"/><path class="cls-1" d="M24.86,19.42a.86.86,0,0,1-.67-.32.85.85,0,0,1,.13-1.2,15.15,15.15,0,0,1,10.94-2.75A.85.85,0,1,1,35,16.84a13.55,13.55,0,0,0-9.63,2.4A.87.87,0,0,1,24.86,19.42Z"/></svg>