<svg id="Layer_1" data-name="Layer 1" xmlns="http://www.w3.org/2000/svg" viewBox="0 0 256 256"><defs><style>.cls-1{fill:#3e7be9;}</style></defs><path class="cls-1" d="M128,13.44,48.15,128,128,242.56,207.85,128ZM78.29,128,128,56.68,177.71,128,128,199.32Z"/><polygon class="cls-1" points="128 108.09 114.12 128 128 147.91 141.88 128 128 108.09"/><polygon class="cls-1" points="85.06 57.04 52.56 54.92 65.61 84.76 75.3 70.86 85.06 57.04"/><polygon class="cls-1" points="169.76 57.04 202.26 54.92 189.21 84.76 179.52 70.86 169.76 57.04"/><polygon class="cls-1" points="85.06 198.96 52.56 201.08 65.61 171.24 75.3 185.13 85.06 198.96"/><polygon class="cls-1" points="169.76 198.96 202.26 201.08 189.21 171.24 179.52 185.13 169.76 198.96"/></svg>