<svg id="Layer_1" data-name="Layer 1" xmlns="http://www.w3.org/2000/svg" viewBox="0 0 256 256"><defs><style>.cls-1{fill:#2a82bd;}</style></defs><polygon class="cls-1" points="134.25 134.25 147.91 128 134.25 121.75 128 108.09 121.75 121.75 108.09 128 121.75 134.25 128 147.91 134.25 134.25"/><path class="cls-1" d="M165.46,165.46,242.56,128l-77.1-37.46L128,13.44,90.54,90.54,13.44,128l77.1,37.46L128,242.56ZM199.32,128l-20.49,10,4.84-10-4.84-10Zm-106,0,11.34-23.32L128,93.34l23.32,11.34L162.66,128l-11.34,23.32L128,162.66l-23.32-11.34ZM128,56.68l10,20.49-10-4.84-10,4.84ZM56.68,128l20.49-10-4.84,10,4.84,10ZM128,183.67l10-4.84-10,20.49-10-20.49Z"/><polyline class="cls-1" points="52.83 52.83 67.59 91.83 83.82 83.94 83.86 83.98 83.9 83.91 83.9 83.9 83.9 83.9 91.83 67.69 52.87 52.83"/><polyline class="cls-1" points="203.17 52.83 188.41 91.83 172.18 83.94 172.14 83.98 172.1 83.91 172.1 83.9 172.1 83.9 164.17 67.69 203.13 52.83"/><polyline class="cls-1" points="52.83 203.06 67.59 164.07 83.82 171.96 83.86 171.92 83.9 171.99 83.9 172 83.9 172 91.83 188.21 52.87 203.06"/><polyline class="cls-1" points="203.17 203.06 188.41 164.07 172.18 171.96 172.14 171.92 172.1 171.99 172.1 172 172.1 172 164.17 188.21 203.13 203.06"/></svg>