<svg width="512" height="512" version="1.1" viewBox="0 0 135 135" xmlns="http://www.w3.org/2000/svg" xmlns:xlink="http://www.w3.org/1999/xlink"><defs><linearGradient id="linearGradient1639" x1="-7.1" x2="90" y1="47" y2="106" gradientTransform="matrix(1 0 0 1 -1.6 -7.4)" gradientUnits="userSpaceOnUse" xlink:href="#linearGradient4671-0"/><linearGradient id="linearGradient4671-0"><stop stop-color="#78afec" offset="0"/><stop stop-color="#181650" offset="1"/></linearGradient><linearGradient id="linearGradient1599" x1="63" x2="96" y1="59" y2="74" gradientTransform="matrix(1 0 0 1 -.25 -11)" gradientUnits="userSpaceOnUse" xlink:href="#linearGradient4671-0"/><linearGradient id="linearGradient1591" x1="76" x2="97" y1="64" y2="84" gradientTransform="matrix(1 0 0 1 -.25 -11)" gradientUnits="userSpaceOnUse" xlink:href="#linearGradient4671-0"/><linearGradient id="linearGradient1517" x1="56" x2="69" y1="78" y2="105" gradientTransform="matrix(1 0 0 1 -.25 -11)" gradientUnits="userSpaceOnUse" xlink:href="#linearGradient4671-0"/></defs><path d="m79 64 19 45-56 1.3 14-48" fill="none" stroke="#85c4d8" stroke-linecap="round" stroke-linejoin="round" stroke-width="6.4"/><g><g stroke-width="0"><path d="m27 36s-14 5.2-18 2.9c-3.8-2.3-2.1 2.3 1.5 4.6 3.5 2.3 17 5.6 17 5.6z" fill="#ff0010"/><path d="m33 44s-18 8.1-22 7.7c-4.8-.38-1.7 3.6 2.7 3 4.7-.58 26-1.2 26-1.2z" fill="#ff0010"/><path d="m105 57a.18.09 0 01-.18.09.18.09 0 01-.18-.09.18.09 0 01.18-.09.18.09 0 01.18.09l-.18.00038z" fill="#ff0"/><path d="m51 5.7a30 30 8e-6 00-30 30 30 30 8e-6 007.2 19 33 54 90 00-12 21 33 54 90 009.1 19 23 23 0 0118-8.7 23 23 0 0123 23 23 23 0 01-.00048.11 33 54 90 003.1.054 33 54 90 004.8-.13 23 23 0 01-.042-1.4 23 23 0 0123-23 23 23 0 0118 8.5 33 54 90 003.7-4.7 23 7 89 001.8-3.3 33 54 90 002-8.5 23 7 89 00.017-.13 23 7 89 00-3.8-30l-1.9 14a33 54 90 00-.008-.01l1.9-14a23 7 89 00-5.4-.36 2.8 10 26 00-4.7 7.3 33 54 90 00-30-10 30 30 8e-6 00.94-7.4 30 30 8e-6 00-30-30 30 30 8e-6 00-.072 0z" fill="url(#linearGradient1639)"/><ellipse cx="40" cy="31" rx="5.8" ry="5.8" fill="#fdf6dc"/></g><g stroke-width=".52"><path d="m74 68 5.6-.2c4.3-.16 9-2.3 12-6.1 3.4-4.4 4.8-7.1 5.5-12 .54-3.3-1.3-7.2-5.2-5.5l-7.3 3.7c-13 5.8-44 20-11 20z" fill="url(#linearGradient1599)"/><path d="m83 69 5.5.74c4.3.57 9.2-.74 13-4 3.9-3.8 5.6-6.2 6.9-11 .96-3.2-.32-7.4-4.4-6.3l-7.7 2.4c-14 3.5-46 13-13 18z" fill="url(#linearGradient1591)"/><path d="m71 91c2.5-.0055 4-.32 6.3-.6 6.7-.83 11-5.5 12-8.7l2.4-4-15 2 .66-2 20-2.8c4.3-.7 8.4-1.4 12-4.8 3.5-4.2 5.2-6.5 6.1-11 .63-3.3-1.1-7.2-5-5.7l-7.3 3.4c-5.4 2.3-8.9 1.6-14 1.1 0 0-10-1.9-18-2.1-20 1.7-29 30-8 34 2.5.49 4.7.88 7.2.87zm11-6.5c-85 29-43 14 0 0z" fill="url(#linearGradient1517)"/></g></g><g fill="none"><g stroke="#ccc" stroke-width="2.1"><path d="m42 111h-19"/><path d="m29 98 13 13"/><path d="m42 111v-19"/><path d="m56 98-13 13"/><path d="m42 111h19"/><path d="m56 124-13-13"/><path d="m42 111v19"/><path d="m29 124 13-13"/><path d="m98 110h-19"/><path d="m85 96 13 13"/><path d="m98 110v-19"/><path d="m112 96-13 13"/><path d="m98 110h19"/><path d="m112 123-13-13"/><path d="m98 110v19"/><path d="m85 123 13-13"/></g><ellipse cx="42" cy="111" rx="19" ry="20" stroke="#000" stroke-linecap="round" stroke-linejoin="round" stroke-width="4.2" style="paint-order:stroke markers fill"/><ellipse cx="98" cy="110" rx="19" ry="20" stroke="#000" stroke-linecap="round" stroke-linejoin="round" stroke-width="4.2" style="paint-order:stroke markers fill"/></g></svg>
