<svg id="svg8" xmlns="http://www.w3.org/2000/svg" viewBox="0 0 438 438"><defs><style>.cls-1{fill:#d974bf;}.cls-2{opacity:0.2;}.cls-3{fill:#ffcbf4;}.cls-4{fill:#fff;}.cls-5{fill:#ae5d99;}</style></defs><title>loved_up</title><rect id="bg" class="cls-1" width="438" height="438"/><path id="shadow" class="cls-2" d="M391.2,192c-3.1-12.5-7.8-23.3-15.2-30.5h.1l-13.2-13.2h-51V112c0-10.8-4.7-20.3-12-27.4L288.1,72.8h0l-1.2-1.2v-.1H155L139.5,97.3V128l14.1,14.1v.1h-9.9v10H123.9c-23,0-43.2,13.8-49.5,40-7.3,30-7.6,48.8,0,80.2.4,1.5.8,3,1.2,4.4v10.8l12.7,12.9c7,7.5,16.4,11.9,28.2,11.9h33.9v50.4l13.8,14c.1.1.1.1.1.2h0c7.4,7.2,17.9,12.3,28.9,15.5,25.1,7.3,49.1,8.7,79.1,0,19.9-5.7,39.6-17.3,39.6-40.1V322.3l-10-10h49.6c23,0,31.6-16,39.6-40C399.5,247.5,399.1,223.7,391.2,192Z"/><path id="snake1" class="cls-3" d="M217.1,53.7a233,233,0,0,0-37.9,3.2c-33.5,5.9-39.6,18.2-39.6,41V128h79.2v10H109.9c-23,0-43.2,13.8-49.5,40-7.3,30-7.6,48.8,0,80.2,5.6,23.4,19.1,40,42.1,40h27.2v-36c0-26,22.6-49,49.5-49h79.1c22,0,39.6-18.1,39.6-40.1V97.9c0-21.4-18.1-37.4-39.6-41A237.57,237.57,0,0,0,217.1,53.7Z"/><path id="snake2" class="cls-4" d="M307.9,138v35c0,27.2-23.1,50-49.5,50H179.3c-21.7,0-39.6,18.5-39.6,40.1v75.1c0,21.4,18.7,34,39.6,40.1,25.1,7.3,49.1,8.7,79.1,0,19.9-5.7,39.6-17.3,39.6-40.1V308.1H218.9v-10H337.6c23,0,31.6-16,39.6-40,8.3-24.7,7.9-48.5,0-80.2-5.7-22.8-16.6-40-39.6-40l-29.7.1ZM248.5,343.2m14.9,15.1,14.9-15.1-14.9-15"/><path class="cls-5" d="M184.16,117.86c-6.75-13.28-26.2-11.5-26.2-31.74,0-9.23,5.82-14.27,14-14.27,6.24,0,10.43,2.49,12.21,9.45h.28c1.78-7,6-9.45,12.21-9.45,8.17,0,14,5,14,14.27,0,20.24-19.45,18.46-26.2,31.74Z"/><path class="cls-5" d="M252,318.44c6.75,13.28,26.2,11.5,26.2,31.74,0,9.23-5.82,14.27-14,14.27C258,364.45,253.81,362,252,355h-.28c-1.78,7-6,9.45-12.21,9.45-8.17,0-14-5-14-14.27,0-20.24,19.45-18.46,26.2-31.74Z"/></svg>