<svg xmlns="http://www.w3.org/2000/svg" viewBox="0 0 1920 1228.46"><defs><style>.a{fill:#303136;}.b{fill:#57a679;}.c{fill-opacity:0.21;}.d{fill:#cafbe2;}.e{fill:#fff;}</style></defs><rect class="a" width="1920" height="1080"/><rect class="b" x="128.11" y="425.97" width="499.71" height="499.71" rx="56.85"/><path class="c" d="M447.09,513.16l-12.4,3.56A260.37,260.37,0,0,0,395,514a250.48,250.48,0,0,0-40.83,3.45c-4,.7-7.54,1.49-10.89,2.37H304.56v20.25h4.85v8.3h3a78.32,78.32,0,0,0-1,13.25v4.3H294.87L292.5,577.8l19,16.15V594h85.32V604.8H279.46c-24.77,0-46.54,14.87-53.32,43.09-7.87,32.32-8.19,52.58,0,86.4.52,2.24,1.14,4.42,1.81,6.53l-1.27,11.25,14.37,12.44c7.54,8.09,17.63,12.93,30.44,12.93h29.3V738.66c0-28,24.35-52.79,53.33-52.79h85.33c23.7,0,42.66-19.5,42.66-43.2v-81c0-13.9-7.1-25.67-17.8-33.69Zm82.73,83.6-15.4,8H492.77v37.78c0,29.3-24.89,53.86-53.33,53.86H354.23c-23.38,0-42.66,19.93-42.66,43.2v80.91c0,23,20.14,36.62,42.66,43.2,27,7.86,52.89,9.37,85.21,0,21.44-6.15,42.66-18.64,42.66-43.2V788.05H482l-12.62-10.77h55.41c24.78,0,34-17.24,42.66-43.09,8.94-26.61,8.51-52.25,0-86.4-3.9-15.61-10.07-28.78-20.47-36.31ZM396.89,777.31h61.95v10.77H396.9Z"/><path class="d" d="M375.89,497.75a251.6,251.6,0,0,0-40.83,3.45c-36.09,6.36-42.66,19.61-42.66,44.17V577.8h85.32v10.77H260.39c-24.77,0-46.53,14.86-53.32,43.09-7.87,32.32-8.19,52.57,0,86.4,6,25.21,20.58,43.09,45.35,43.09h29.31V722.37c0-28,24.34-52.79,53.32-52.79h85.21c23.7,0,42.67-19.5,42.67-43.2v-81c0-23.06-19.5-40.29-42.67-44.17a255.65,255.65,0,0,0-44.38-3.45Zm-46.11,26.07a16.22,16.22,0,1,1-16,16.38v-.11a16.16,16.16,0,0,1,16-16.27Z"/><path class="e" d="M473.7,588.57v37.7c0,29.31-24.89,53.87-53.33,53.87H335.16c-23.38,0-42.66,19.93-42.66,43.2v80.9c0,23.06,20.14,36.63,42.66,43.2,27,7.86,52.89,9.37,85.21,0C441.81,841.3,463,828.8,463,804.24V771.78H377.82V761H505.69c24.78,0,34.05-17.24,42.66-43.09,8.95-26.61,8.51-52.25,0-86.4-6.14-24.56-17.88-43.09-42.66-43.09h-32Zm-47.94,204.9a16.21,16.21,0,1,1-16.05,16.37v-.21A16.16,16.16,0,0,1,425.76,793.47Z"/><path class="e" d="M844.07,455.43c45.15,0,67.6,32.63,67.6,65.25,0,32.89-22.71,65.51-67.34,65.51h-27.4v54H770.21V455.43Zm0,43.59H816.93V544.7h27.14C872.26,545,872.26,498.76,844.07,499Z"/><path class="e" d="M979.27,567.4l-64.47-112h54.29l33.41,67.86,33.41-67.86h54.81L1026,567.4v72.82H979.27Z"/><path class="e" d="M1194.33,640.22h-47.24V499.54H1098V455.17H1243.4v44.37h-49.07Z"/><path class="e" d="M1267.93,640.22V455.43h47v69.95h53.25V455.43h47V640.22h-47V570.53h-53.25v69.69Z"/><path class="e" d="M1522.67,452.82c38.36,0,76.73,21.14,76.73,63.43v63.16c0,42.28-38.11,63.42-76.47,63.42s-76.74-21.14-76.74-63.42V516.25C1446.19,473.7,1484.3,452.82,1522.67,452.82Zm.26,146.69c14.87,0,29.75-6.79,29.75-20.1V516.25c0-14.36-15.4-20.88-30.54-20.88-14.61,0-29.23,7.3-29.23,20.88v63.16C1492.91,593,1508.05,599.51,1522.93,599.51Z"/><path class="e" d="M1674.83,455.43l44.63,78.82,15.66,37.07,1.3-.26c-.26,0-5-31.85-5.22-31.85V455.43h46.46V640.22h-47.24l-41.76-72.82-16.18-37.06-1.31.26,6,35.76v73.86h-46.72V455.43Z"/><path class="d" d="M911.15,777.13v62.12c0,42.55-34.72,61.08-71.78,60.82H770.21V715.28h69.16C876.43,715.28,911.15,734.07,911.15,777.13Zm-47,59V778.44c0-12-7.57-19.58-23.23-19.58H817.19v97.36h23.75C856.86,856.22,864.17,848.13,864.17,836.12Z"/><path class="d" d="M934.11,900.07V715.28h46.72V900.07Z"/><path class="d" d="M1089.14,845.26c.52-10.44-16.44-16.45-31.58-18.54-29.75-4.69-56.9-23.49-56.9-58.72,0-36.28,32.89-55.33,66.82-55.33,22.44,0,44.11,6.26,63.16,29.49l-30.54,23.49c-19.31-20.62-52.46-19.84-53.24,1.57.52,8.87,10.18,14.09,24.53,17.22,32.89,6,65.78,17.49,63.69,62.9-1.57,35.76-39.15,55.34-73.08,55.34-22.19,0-45.68-11.23-62.9-33.41l29.49-27.67C1047.12,864.05,1087.84,865.09,1089.14,845.26Z"/><path class="d" d="M1221.47,902.68c-36.28,0-72.82-21.14-72.82-63.17V775.83c0-41.76,36.54-63.16,73.6-63.16,22.71,0,50.11,9.65,65,42.54l-38.11,15.4c-12.52-23-53.76-17.75-53.76,5.22v63.68c0,22.19,41.76,28.45,51.94,2.87l40.71,18.8C1272.62,891.19,1244.7,902.68,1221.47,902.68Z"/><path class="d" d="M1374.93,712.67c38.37,0,76.74,21.14,76.74,63.42v63.16c0,42.29-38.11,63.43-76.48,63.43s-76.73-21.14-76.73-63.43V776.09C1298.46,733.55,1336.56,712.67,1374.93,712.67Zm.26,146.68c14.88,0,29.76-6.79,29.76-20.1V776.09c0-14.35-15.4-20.88-30.54-20.88-14.62,0-29.23,7.31-29.23,20.88v63.16C1345.18,852.83,1360.32,859.35,1375.19,859.35Z"/><path class="d" d="M1521.61,841.34v58.73h-47.24V715.28h73.86c38.11,0,67.6,17.48,68.65,60.81,0,34.19-13.84,53.51-36.28,60.55L1631,900.07h-58.2L1530,841.34ZM1549,758.86h-27.41v42.29H1549C1578.51,801.15,1578.51,758.86,1549,758.86Z"/><path class="d" d="M1781.83,777.13v62.12c0,42.55-34.71,61.08-71.78,60.82h-69.16V715.28h69.16C1747.12,715.28,1781.83,734.07,1781.83,777.13Zm-47,59V778.44c0-12-7.57-19.58-23.23-19.58h-23.75v97.36h23.75C1727.54,856.22,1734.85,848.13,1734.85,836.12Z"/><text/></svg>
