<?xml version="1.0" encoding="UTF-8"?>
<svg enable-background="new 0 0 438 438" version="1.1" viewBox="0 0 438 438" xml:space="preserve" xmlns="http://www.w3.org/2000/svg">
<style type="text/css">
	.st0{fill:#226F54;}
	.st1{fill-opacity:0.2039;}
	.st2{fill:#F23C3C;}
	.st3{fill:#FFFFFF;}
</style>
<rect class="st0" width="438" height="438">
</rect>
<path class="st1" d="m283.1 68-11.5 3.3c-12.2-1.8-24.8-2.6-36.9-2.5-13.5 0.1-26.5 1.2-37.9 3.2-3.7 0.7-7 1.4-10.1 2.2h-35.9v18.8h4.5v7.7h2.8c-0.6 3.7-0.9 7.8-0.9 12.3v4h-15.4l-2.2 11 17.6 15v0.1h79.2v10h-108.9c-23 0-43.2 13.8-49.5 40-7.3 30-7.6 48.8 0 80.2 0.5 2.1 1.1 4.1 1.7 6.1l-1.2 10.4 13.3 11.5c7 7.5 16.4 12 28.3 12h27.2v-36c0-26 22.6-49 49.5-49h79.2c22 0 39.6-18.1 39.6-40.1v-75.2c0-12.9-6.6-23.8-16.5-31.3l-16-13.7zm76.8 77.6-14.3 7.4h-20.1v35.1c0 27.2-23.1 50-49.5 50h-79.1c-21.7 0-39.6 18.5-39.6 40.1v75.1c0 21.4 18.7 34 39.6 40.1 25.1 7.3 49.1 8.7 79.1 0 19.9-5.7 39.6-17.3 39.6-40.1v-30.1h-0.1l-11.7-10h51.4c23 0 31.6-16 39.6-40 8.3-24.7 7.9-48.5 0-80.2-3.6-14.5-9.4-26.7-18.9-33.7l-16-13.7zm-123.4 167.6h57.5v10h-57.5v-10z"/>
<path class="st2" d="m217 53.7c-13.5 0.1-26.5 1.2-37.9 3.2-33.5 5.9-39.6 18.2-39.6 41v30.1h79.2v10h-108.9c-23 0-43.2 13.8-49.5 40-7.3 30-7.6 48.8 0 80.2 5.6 23.4 19.1 40 42.1 40h27.2v-36c0-26 22.6-49 49.5-49h79.1c22 0 39.6-18.1 39.6-40.1v-75.2c0-21.4-18.1-37.4-39.6-41-13.5-2.3-27.6-3.3-41.2-3.2zm-42.8 24.2c8.2 0 14.9 6.8 14.9 15.1s-6.7 15-14.9 15-14.9-6.7-14.9-15c0-8.4 6.7-15.1 14.9-15.1z"/>
<path class="st3" d="m307.8 138v35c0 27.2-23.1 50-49.5 50h-79.1c-21.7 0-39.6 18.5-39.6 40.1v75.1c0 21.4 18.7 34 39.6 40.1 25.1 7.3 49.1 8.7 79.1 0 19.9-5.7 39.6-17.3 39.6-40.1v-30.1h-79.1v-10h118.7c23 0 31.6-16 39.6-40 8.3-24.7 7.9-48.5 0-80.2-5.7-22.8-16.6-40-39.6-40l-29.7 0.1zm-44.5 190.2c8.2 0 14.9 6.7 14.9 15s-6.7 15.1-14.9 15.1-14.9-6.8-14.9-15.1 6.7-15 14.9-15z"/>
</svg>
