<?xml version="1.0" encoding="UTF-8" standalone="no"?>
<!DOCTYPE svg PUBLIC "-//W3C//DTD SVG 1.1//EN" "http://www.w3.org/Graphics/SVG/1.1/DTD/svg11.dtd">
<svg width="100%" height="100%" viewBox="0 0 256 256" version="1.1" xmlns="http://www.w3.org/2000/svg" xmlns:xlink="http://www.w3.org/1999/xlink" xml:space="preserve" xmlns:serif="http://www.serif.com/" style="fill-rule:evenodd;clip-rule:evenodd;">
    <g transform="matrix(1,0,0,1,-283,0)">
        <g id="lemoncette">
        </g>
        <g id="lemon_xd" transform="matrix(1.43275,0,0,1.00685,-96.6949,2.01633)">
            <rect x="265.012" y="-2.003" width="178.149" height="253.33" style="fill:none;"/>
            <g transform="matrix(0.735392,0.130527,-0.0917271,1.04646,-204.657,-134.36)">
                <g transform="matrix(0.149271,0.896737,-0.912882,0.151959,882.857,16.9636)">
                    <g transform="matrix(7.04762,0,0,7.04762,0.500558,1.45139)">
                        <path d="M11.405,3.339C17.885,2.064 19.858,4.604 23.06,3.423C26.262,2.242 23.153,6.243 22.315,6.931C21.475,7.619 14.174,11.74 11.008,10.229C7.842,8.718 7.826,4.043 11.405,3.339Z" style="fill:rgb(92,145,59);fill-rule:nonzero;"/>
                    </g>
                    <g transform="matrix(7.04762,0,0,7.04762,0.500558,1.45139)">
                        <path d="M15.001,16C14.697,16 14.396,15.862 14.2,15.6C13.513,14.684 12.892,13.645 12.235,12.544C9.967,8.749 7.396,4.446 0.783,2.976C0.244,2.856 -0.096,2.322 0.024,1.783C0.144,1.243 0.678,0.905 1.217,1.024C8.671,2.68 11.599,7.581 13.952,11.519C14.582,12.573 15.176,13.568 15.8,14.4C16.132,14.842 16.042,15.469 15.6,15.8C15.42,15.935 15.21,16 15.001,16Z" style="fill:rgb(119,178,85);fill-rule:nonzero;"/>
                    </g>
                    <g transform="matrix(7.04762,0,0,7.04762,0.500558,1.45139)">
                        <path d="M34.3,31.534C34.302,31.517 34.297,31.506 34.297,31.491C37.071,26.156 36.944,16.378 30.951,10.384C25.15,4.584 17.271,4.563 12.184,6.317C10.605,6.931 9.267,6.383 8.369,7.282C7.488,8.163 8.018,10.001 7.655,11.101C4.486,16.303 4.25,24.126 10.343,30.218C15.305,35.18 20.781,37.06 30.323,35.071C30.325,35.069 30.328,35.07 30.331,35.069C31.479,34.851 33.281,35.592 33.897,34.975C34.982,33.89 34.206,32.617 34.3,31.534Z" style="fill:rgb(255,204,77);fill-rule:nonzero;"/>
                    </g>
                    <g transform="matrix(7.04762,0,0,7.04762,0.500558,1.45139)">
                        <path d="M8.208,6.583C8.208,6.583 3.938,5.993 1.351,11.182C-1.236,16.37 1.933,20.307 1.641,23.835C1.348,27.365 3.207,25.1 4.262,23.39C5.317,21.68 8.492,18.495 9.2,14.121C9.907,9.745 9.13,7.663 8.208,6.583Z" style="fill:rgb(119,178,85);fill-rule:nonzero;"/>
                    </g>
                </g>
                <g transform="matrix(0.825348,0.653224,-0.653224,0.825348,752.237,-21.1212)">
                    <path d="M127.565,132.475L127.565,132.425C127.565,132.425 141.578,132.155 148.424,134.911C152.101,136.391 160.692,141.337 168.096,141.956C181.248,143.055 190.616,141.736 196.016,141.781C197.666,141.794 204.786,137.236 205.876,136.78C208.507,135.679 215.44,136.025 215.44,136.025C215.44,136.025 213.757,170.613 193.065,197.211C173.646,222.173 155.669,231.24 142.265,237.725C140.226,238.712 135.072,247.866 132.515,249.883C129.603,252.181 127.57,251.427 127.565,251.425L127.565,251.475C127.565,251.475 125.531,252.233 122.616,249.933C120.059,247.916 116.713,242.918 114.965,241.475C103.987,232.415 80.584,222.723 61.165,197.761C40.474,171.163 40.565,136.075 40.565,136.075C40.565,136.075 46.624,135.729 49.255,136.83C50.345,137.286 57.465,141.844 59.115,141.831C64.515,141.786 74.524,143.341 87.676,142.242C95.08,141.623 103.03,136.441 106.706,134.961C113.55,132.206 127.554,132.475 127.565,132.475Z" style="fill:rgb(125,106,90);"/>
                </g>
            </g>
            <g transform="matrix(1.0164,0.0896943,-0.0461431,1.0588,4.3982,-40.2002)">
                <g id="mouth" transform="matrix(0.69796,0,0,0.993195,265.244,-863.288)">
                    <path d="M99.249,1040.66C80.293,1023.87 55.834,988.905 44.987,989.944C5.526,993.726 14.269,1063.95 43.198,1089.73C72.127,1115.5 157.974,1109.78 146.371,1082.79C136.744,1063.08 112.094,1051.92 99.249,1040.66Z" style="fill:rgb(66,44,1);fill-rule:nonzero;"/>
                </g>
                <g id="path903" transform="matrix(0.69796,0,0,0.993195,265.244,-863.288)">
                    <path d="M137.799,1081.72C128.172,1062.01 107.452,1054.78 94.607,1043.51C75.651,1026.73 58.155,997.655 47.308,998.694C44.819,998.933 43.416,1000.15 41.304,1000.89C45.22,1008.51 54.438,1027.04 72.754,1046.62C91.071,1066.2 122.787,1084.82 133.61,1091.48C138.331,1089.48 139.46,1085.69 137.799,1081.72Z" style="fill:white;fill-rule:nonzero;"/>
                </g>
            </g>
            <g id="path835-2" transform="matrix(0.657193,-0.325594,0.228809,0.935184,34.0422,-759.008)">
                <path d="M190.293,1059.01L146.359,1012.26L161.717,1070.81" style="fill:none;fill-rule:nonzero;stroke:rgb(104,70,1);stroke-width:7px;"/>
            </g>
            <g id="path835-21" serif:id="path835-2" transform="matrix(0.213531,-0.942472,-0.662315,-0.303854,990.054,570.33)">
                <path d="M190.293,1059.01L146.359,1012.26L161.717,1070.81" style="fill:none;fill-rule:nonzero;stroke:rgb(104,70,1);stroke-width:7px;"/>
            </g>
            <g id="path1024-1" transform="matrix(0.695699,0.0228681,-0.0160704,0.989979,283.242,-870.389)">
                <path d="M199.63,1031.97C197.806,1031.13 187.405,1020.66 180.405,1002.9C173.404,985.146 174.594,976.43 174.594,976.43" style="fill:none;fill-rule:nonzero;stroke:rgb(104,70,1);stroke-width:5.9px;"/>
            </g>
            <g id="path1024-11" serif:id="path1024-1" transform="matrix(-0.0504756,-0.987635,-0.694052,0.0718266,1062.93,183.746)">
                <path d="M199.63,1031.97C197.806,1031.13 187.405,1020.66 180.405,1002.9C173.404,985.146 174.594,976.43 174.594,976.43" style="fill:none;fill-rule:nonzero;stroke:rgb(104,70,1);stroke-width:5.9px;"/>
            </g>
            <g id="path942" transform="matrix(0.581364,0.544233,-0.382455,0.82728,175.168,-854.017)">
                <ellipse cx="690.091" cy="691.507" rx="19.621" ry="13.004" style="fill:rgb(154,216,226);"/>
            </g>
            <g id="path942-6" transform="matrix(-0.354898,-0.851785,-0.598585,0.505019,463.51,-868.895)">
                <ellipse cx="-868.088" cy="644.439" rx="19.621" ry="13.004" style="fill:rgb(154,216,226);"/>
            </g>
        </g>
    </g>
</svg>
