<?xml version="1.0" encoding="UTF-8" standalone="no"?>
<!DOCTYPE svg PUBLIC "-//W3C//DTD SVG 1.1//EN" "http://www.w3.org/Graphics/SVG/1.1/DTD/svg11.dtd">
<svg width="100%" height="100%" viewBox="0 0 255 255" version="1.1" xmlns="http://www.w3.org/2000/svg" xmlns:xlink="http://www.w3.org/1999/xlink" xml:space="preserve" xmlns:serif="http://www.serif.com/" style="fill-rule:evenodd;clip-rule:evenodd;stroke-linejoin:round;stroke-miterlimit:2;">
    <g transform="matrix(1,0,0,1,-564.333,0)">
        <g id="lemoncette">
        </g>
        <g id="lemon_final" transform="matrix(0.975765,0,0,0.996094,289.557,1.00043)">
            <rect x="281.601" y="-1.004" width="261.333" height="256" style="fill:none;"/>
            <g transform="matrix(1.11089,0.204592,-0.201485,1.04982,299.756,-37.2487)">
                <g transform="matrix(0.149271,0.896737,-0.912882,0.151959,225.357,-3.03644)">
                    <g transform="matrix(7.04762,0,0,7.04762,0.500558,1.45139)">
                        <path d="M11.405,3.339C17.885,2.064 19.858,4.604 23.06,3.423C26.262,2.242 23.153,6.243 22.315,6.931C21.475,7.619 14.174,11.74 11.008,10.229C7.842,8.718 7.826,4.043 11.405,3.339Z" style="fill:rgb(92,145,59);fill-rule:nonzero;"/>
                    </g>
                    <g transform="matrix(7.04762,0,0,7.04762,0.500558,1.45139)">
                        <path d="M15.001,16C14.697,16 14.396,15.862 14.2,15.6C13.513,14.684 12.892,13.645 12.235,12.544C9.967,8.749 7.396,4.446 0.783,2.976C0.244,2.856 -0.096,2.322 0.024,1.783C0.144,1.243 0.678,0.905 1.217,1.024C8.671,2.68 11.599,7.581 13.952,11.519C14.582,12.573 15.176,13.568 15.8,14.4C16.132,14.842 16.042,15.469 15.6,15.8C15.42,15.935 15.21,16 15.001,16Z" style="fill:rgb(119,178,85);fill-rule:nonzero;"/>
                    </g>
                    <g transform="matrix(7.04762,0,0,7.04762,0.500558,1.45139)">
                        <path d="M34.3,31.534C34.302,31.517 34.297,31.506 34.297,31.491C37.071,26.156 36.944,16.378 30.951,10.384C25.15,4.584 17.271,4.563 12.184,6.317C10.605,6.931 9.267,6.383 8.369,7.282C7.488,8.163 8.018,10.001 7.655,11.101C4.486,16.303 4.25,24.126 10.343,30.218C15.305,35.18 20.781,37.06 30.323,35.071C30.325,35.069 30.328,35.07 30.331,35.069C31.479,34.851 33.281,35.592 33.897,34.975C34.982,33.89 34.206,32.617 34.3,31.534Z" style="fill:rgb(255,204,77);fill-rule:nonzero;"/>
                    </g>
                    <g transform="matrix(7.04762,0,0,7.04762,0.500558,1.45139)">
                        <path d="M8.208,6.583C8.208,6.583 3.938,5.993 1.351,11.182C-1.236,16.37 1.933,20.307 1.641,23.835C1.348,27.365 3.207,25.1 4.262,23.39C5.317,21.68 8.492,18.495 9.2,14.121C9.907,9.745 9.13,7.663 8.208,6.583Z" style="fill:rgb(119,178,85);fill-rule:nonzero;"/>
                    </g>
                </g>
                <g transform="matrix(0.825348,0.653224,-0.653224,0.825348,94.7371,-41.1212)">
                    <path d="M127.565,132.475L127.565,132.425C127.565,132.425 141.578,132.155 148.424,134.911C152.101,136.391 160.692,141.337 168.096,141.956C181.248,143.055 190.616,141.736 196.016,141.781C197.666,141.794 204.786,137.236 205.876,136.78C208.507,135.679 215.615,135.981 215.615,135.981C215.615,135.981 214.282,169.983 193.065,197.211C173.627,222.157 156.37,231.865 142.937,237.483C140.844,238.359 136.4,247.933 132.515,249.883C130.256,251.017 129.199,251.609 126.834,251.785C125.086,251.915 123.775,251.046 121.968,249.701C119.356,247.757 114.925,241.523 113.177,240.081C102.198,231.021 86.769,227.944 61.165,197.761C40.892,173.862 40.234,136.075 40.234,136.075C40.234,136.075 46.624,135.729 49.255,136.83C50.345,137.286 57.465,141.844 59.115,141.831C64.515,141.786 74.524,143.341 87.676,142.242C95.08,141.623 103.03,136.441 106.706,134.961C113.55,132.206 127.554,132.475 127.565,132.475Z" style="fill:rgb(125,106,90);"/>
                </g>
            </g>
            <g id="path4607-2" transform="matrix(1.2,0.284138,-0.290057,1.17551,564.387,-1069.94)">
                <path d="M87.137,933.784C84.989,934.257 82.917,934.893 80.961,935.68C80.136,936.018 79.333,936.381 78.555,936.77C79.657,939.782 81.279,942.995 83.36,946.288C80.331,947.415 77.463,949.178 74.981,951.436C74.981,951.436 74.981,951.436 74.98,951.437C66.235,959.449 64.332,971.819 70.764,978.84C77.197,985.861 89.686,985.045 98.431,977.033C98.432,977.032 98.432,977.032 98.432,977.032C100.983,974.68 103.041,971.871 104.432,968.842C105.162,969.4 105.895,969.943 106.631,970.469C107.563,970.174 108.473,969.847 109.358,969.489C111.464,968.625 113.415,967.592 115.167,966.413C111.656,964.196 108.17,961.568 104.885,958.665C95.809,950.641 89.1,941.236 87.137,933.784Z" style="fill:rgb(104,70,1);fill-rule:nonzero;"/>
            </g>
            <g id="path4607-21" serif:id="path4607-2" transform="matrix(-0.162259,-1.19888,-1.22385,0.158947,1646.91,108.539)">
                <path d="M87.137,933.784C84.989,934.257 82.917,934.893 80.961,935.68C80.136,936.018 79.333,936.381 78.555,936.77C79.657,939.782 81.279,942.995 83.36,946.288C80.331,947.415 77.463,949.178 74.981,951.436C74.981,951.436 74.981,951.436 74.98,951.437C66.235,959.449 64.332,971.819 70.764,978.84C77.197,985.861 89.686,985.045 98.431,977.033C98.432,977.032 98.432,977.032 98.432,977.032C100.983,974.68 103.041,971.871 104.432,968.842C105.162,969.4 105.895,969.943 106.631,970.469C107.563,970.174 108.473,969.847 109.358,969.489C111.464,968.625 113.415,967.592 115.167,966.413C111.656,964.196 108.17,961.568 104.885,958.665C95.809,950.641 89.1,941.236 87.137,933.784Z" style="fill:rgb(104,70,1);fill-rule:nonzero;"/>
            </g>
            <g id="path3389" transform="matrix(1.07404,0.320516,-0.327193,1.05212,612.795,-943.611)">
                <path d="M33.697,1035.03C34.648,1033.47 64.21,1009.57 84.052,1014.16C88.099,1015.69 92.159,1017.53 95.619,1019.67C99.25,1021.91 100.774,1022.57 104.76,1026.78C114.886,1037.49 108.524,1077.43 107.623,1079.23C106.722,1081.04 101.419,1046.64 98.849,1039.87C96.06,1032.52 82.412,1025 74.226,1025.43C63.353,1026 32.747,1036.59 33.697,1035.03Z" style="fill:rgb(66,44,1);fill-rule:nonzero;"/>
            </g>
        </g>
    </g>
</svg>
