<?xml version="1.0" encoding="UTF-8" standalone="no"?>
<!DOCTYPE svg PUBLIC "-//W3C//DTD SVG 1.1//EN" "http://www.w3.org/Graphics/SVG/1.1/DTD/svg11.dtd">
<svg width="100%" height="100%" viewBox="0 0 256 238" version="1.1" xmlns="http://www.w3.org/2000/svg" xmlns:xlink="http://www.w3.org/1999/xlink" xml:space="preserve" xmlns:serif="http://www.serif.com/" style="fill-rule:evenodd;clip-rule:evenodd;stroke-linejoin:round;stroke-miterlimit:2;">
    <g transform="matrix(1.28044,0.489935,-0.489002,1.28288,446.841,-1238.37)">
        <g id="lemoncette">
            <g>
                <g id="back" transform="matrix(1.41584,0.447151,-0.447147,1.41583,71.1632,872.662)">
                    <path id="rhair" d="M32.879,26.578L51.995,11.41C69.656,10.111 76.659,16.822 87.157,12.95C99.259,8.486 87.509,23.608 84.341,26.209C81.167,28.809 53.572,44.384 41.606,38.674C36.374,36.176 33.418,31.393 32.879,26.578Z" style="fill:rgb(92,145,59);fill-rule:nonzero;"/>
                    <path id="mhair" d="M56.698,60.485C55.549,60.485 54.411,59.964 53.671,58.973C51.074,55.511 48.727,51.584 46.244,47.423C42.226,40.701 37.957,33.556 31.981,27.29L37.931,22.57C44.234,29.325 48.707,36.81 52.733,43.549C55.114,47.533 57.359,51.293 59.718,54.438C60.973,56.108 60.632,58.478 58.962,59.729C58.282,60.24 57.488,60.485 56.698,60.485Z" style="fill:rgb(119,178,85);fill-rule:nonzero;"/>
                    <path id="skin" d="M68.872,20.045C60.517,20.124 52.659,21.61 46.05,23.889C40.824,25.921 36.296,24.584 32.972,26.504L31.503,27.67C28.355,31.049 30.288,37.868 28.934,41.97C16.956,61.631 16.064,91.197 39.093,114.222C41.164,116.293 43.26,118.214 45.396,119.997C47.742,121.275 48.969,119.637 51.409,118.889C55.19,118.146 57.477,117.584 64.424,110.001C71.372,102.418 73.523,98.947 74.699,93.954C76.266,87.296 77.416,87.465 85.154,78.433C92.853,69.546 91.937,69.453 96.353,65.97C104.641,62.492 103.685,64.703 107.552,60.512C113.497,53.781 114.429,51.313 114.016,47.172C113.604,43.03 113.994,38.739 114.656,38.017C114.732,37.934 114.121,36.639 113.183,35.759C99.542,24.079 83.441,19.908 68.872,20.045Z" style="fill:rgb(255,204,77);fill-rule:nonzero;"/>
                    <path id="lhair" d="M32.475,26.898L1.995,51.082C-1.265,66.469 7.136,78.835 6.203,90.098C5.096,103.44 12.122,94.879 16.11,88.416C20.097,81.953 32.097,69.915 34.773,53.383C37.062,39.217 35.236,31.412 32.475,26.898Z" style="fill:rgb(119,178,85);fill-rule:nonzero;"/>
                    <path id="beard" d="M113.197,35.695C113.06,35.904 112.912,36.098 112.829,36.188C112.167,36.91 111.777,41.203 112.189,45.344C112.601,49.486 111.669,51.953 105.724,58.683C101.857,62.874 102.812,60.663 94.524,64.141C90.108,67.625 91.025,67.718 83.326,76.605C75.589,85.637 74.438,85.467 72.871,92.125C71.695,97.118 69.543,100.59 62.596,108.173C55.648,115.756 53.362,116.318 49.582,117.061C46.992,117.151 46.409,118.923 45.362,120.04C56.187,129.073 68.11,134.356 83.45,135.37L136.131,93.571C137.197,75.152 131.881,54.094 117.015,39.225C115.767,37.978 114.493,36.804 113.197,35.695L113.197,35.695Z" style="fill:rgb(125,106,90);fill-rule:nonzero;"/>
                </g>
                <g transform="matrix(0.986015,-0.166659,0.166659,0.986015,-160.818,36.8653)">
                    <g id="mouth" transform="matrix(0.712,0.356233,-0.356233,0.712,395.887,246.509)">
                        <path d="M197.637,988.355C192.961,993.415 190.578,1004.26 174.617,1022.29C157.834,1041.24 135.743,1049.36 137.476,1060.12C139.115,1070.29 182.788,1080.99 205.828,1055.84C230.514,1028.89 223.415,984.373 205.324,985.164C201.694,985.322 199.467,986.375 197.637,988.355Z" style="fill:rgb(66,44,1);fill-rule:nonzero;"/>
                    </g>
                    <g id="teeth" transform="matrix(0.712,0.356233,-0.356233,0.712,395.887,246.509)">
                        <path d="M145.396,1056.09C148.247,1057.54 170.591,1055.96 186.591,1038.5C202.592,1021.03 209.153,997.103 204.594,992.054C204.594,992.054 197.392,1009.16 177.241,1029.75C155.461,1052.84 145.396,1056.09 145.396,1056.09Z" style="fill:white;fill-rule:nonzero;"/>
                    </g>
                </g>
                <g transform="matrix(4.38448,-2.68737,2.68737,4.38448,21.2038,977.48)">
                    <path d="M28.457,17.797C28.397,17.662 26.958,14.5 24,14.5C21.043,14.5 19.603,17.662 19.543,17.797C19.451,18.004 19.511,18.246 19.688,18.388C19.863,18.53 20.114,18.535 20.298,18.402C20.31,18.393 21.56,17.5 24,17.5C26.426,17.5 27.674,18.381 27.702,18.401C27.79,18.467 27.896,18.5 28,18.5C28.11,18.5 28.221,18.463 28.312,18.391C28.489,18.249 28.55,18.005 28.457,17.797ZM16.457,17.797C16.397,17.662 14.958,14.5 12,14.5C9.043,14.5 7.603,17.662 7.543,17.797C7.451,18.004 7.511,18.246 7.687,18.388C7.863,18.53 8.114,18.535 8.297,18.402C8.31,18.393 9.559,17.5 12,17.5C14.426,17.5 15.674,18.381 15.702,18.401C15.79,18.467 15.896,18.5 16,18.5C16.11,18.5 16.221,18.463 16.312,18.391C16.49,18.249 16.549,18.005 16.457,17.797Z" style="fill:rgb(102,69,0);fill-rule:nonzero;"/>
                </g>
                <g transform="matrix(4.17481,-2.61684,2.61684,4.17481,31.8587,978.657)">
                    <path d="M35,11C35,13.762 32.762,16 30,16C27.238,16 25,13.762 25,11C25,8.238 29,1 30,1C31,1 35,8.238 35,11Z" style="fill:rgb(93,173,236);fill-rule:nonzero;"/>
                </g>
            </g>
        </g>
    </g>
</svg>
