<?xml version="1.0" encoding="UTF-8" standalone="no"?>
<!DOCTYPE svg PUBLIC "-//W3C//DTD SVG 1.1//EN" "http://www.w3.org/Graphics/SVG/1.1/DTD/svg11.dtd">
<svg width="100%" height="100%" viewBox="0 0 255 255" version="1.1" xmlns="http://www.w3.org/2000/svg" xmlns:xlink="http://www.w3.org/1999/xlink" xml:space="preserve" xmlns:serif="http://www.serif.com/" style="fill-rule:evenodd;clip-rule:evenodd;stroke-linejoin:round;stroke-miterlimit:2;">
    <g transform="matrix(1,0,0,1,-602.667,-3.33333)">
        <g id="lemoncette">
        </g>
        <g id="lemon_final" transform="matrix(0.92615,0,0,0.990933,351.625,3.66795)">
            <rect x="271.06" y="-0.338" width="275.333" height="257.333" style="fill:none;"/>
            <g transform="matrix(1.15613,0.0607503,-0.0627064,1.04243,276.896,-12.5124)">
                <g transform="matrix(0.149271,0.896737,-0.912882,0.151959,225.357,-3.03644)">
                    <g transform="matrix(7.04762,0,0,7.04762,0.500558,1.45139)">
                        <path d="M11.405,3.339C17.885,2.064 19.858,4.604 23.06,3.423C26.262,2.242 23.153,6.243 22.315,6.931C21.475,7.619 14.174,11.74 11.008,10.229C7.842,8.718 7.826,4.043 11.405,3.339Z" style="fill:rgb(92,145,59);fill-rule:nonzero;"/>
                    </g>
                    <g transform="matrix(7.04762,0,0,7.04762,0.500558,1.45139)">
                        <path d="M15.001,16C14.697,16 14.396,15.862 14.2,15.6C13.513,14.684 12.892,13.645 12.235,12.544C9.967,8.749 7.396,4.446 0.783,2.976C0.244,2.856 -0.096,2.322 0.024,1.783C0.144,1.243 0.678,0.905 1.217,1.024C8.671,2.68 11.599,7.581 13.952,11.519C14.582,12.573 15.176,13.568 15.8,14.4C16.132,14.842 16.042,15.469 15.6,15.8C15.42,15.935 15.21,16 15.001,16Z" style="fill:rgb(119,178,85);fill-rule:nonzero;"/>
                    </g>
                    <g transform="matrix(7.04762,0,0,7.04762,0.500558,1.45139)">
                        <path d="M34.3,31.534C34.302,31.517 34.297,31.506 34.297,31.491C37.071,26.156 36.944,16.378 30.951,10.384C25.15,4.584 17.271,4.563 12.184,6.317C10.605,6.931 9.267,6.383 8.369,7.282C7.488,8.163 8.018,10.001 7.655,11.101C4.486,16.303 4.25,24.126 10.343,30.218C15.305,35.18 20.781,37.06 30.323,35.071C30.325,35.069 30.328,35.07 30.331,35.069C31.479,34.851 33.281,35.592 33.897,34.975C34.982,33.89 34.206,32.617 34.3,31.534Z" style="fill:rgb(255,204,77);fill-rule:nonzero;"/>
                    </g>
                    <g transform="matrix(7.04762,0,0,7.04762,0.500558,1.45139)">
                        <path d="M8.208,6.583C8.208,6.583 3.938,5.993 1.351,11.182C-1.236,16.37 1.933,20.307 1.641,23.835C1.348,27.365 3.207,25.1 4.262,23.39C5.317,21.68 8.492,18.495 9.2,14.121C9.907,9.745 9.13,7.663 8.208,6.583Z" style="fill:rgb(119,178,85);fill-rule:nonzero;"/>
                    </g>
                </g>
                <g transform="matrix(0.825348,0.653224,-0.653224,0.825348,94.7371,-41.1212)">
                    <path d="M127.565,132.475L127.565,132.425C127.565,132.425 141.578,132.155 148.424,134.911C152.101,136.391 160.692,141.337 168.096,141.956C181.248,143.055 190.616,141.736 196.016,141.781C197.666,141.794 204.786,137.236 205.876,136.78C208.507,135.679 215.615,135.981 215.615,135.981C215.615,135.981 214.282,169.983 193.065,197.211C173.627,222.157 156.37,231.865 142.937,237.483C140.844,238.359 136.4,247.933 132.515,249.883C130.256,251.017 129.199,251.609 126.834,251.785C125.086,251.915 123.775,251.046 121.968,249.701C119.356,247.757 114.925,241.523 113.177,240.081C102.198,231.021 86.769,227.944 61.165,197.761C40.892,173.862 40.234,136.075 40.234,136.075C40.234,136.075 46.624,135.729 49.255,136.83C50.345,137.286 57.465,141.844 59.115,141.831C64.515,141.786 74.524,143.341 87.676,142.242C95.08,141.623 103.03,136.441 106.706,134.961C113.55,132.206 127.554,132.475 127.565,132.475Z" style="fill:rgb(125,106,90);"/>
                </g>
            </g>
            <g id="mouth" transform="matrix(1.18325,0.10703,-0.114516,1.10589,385.756,-983.353)">
                <path d="M73.492,1025.48C76.791,1027.79 83.187,1030.68 94.878,1038.73C107.172,1047.2 113.755,1054.88 119.738,1056.62C125.396,1058.27 127.634,1048.6 111.256,1037.16C93.708,1024.89 68.943,1017.65 70.993,1022.73C71.404,1023.75 72.201,1024.57 73.492,1025.48L73.492,1025.48Z" style="fill:rgb(66,44,1);fill-rule:nonzero;"/>
            </g>
            <g id="path2582" transform="matrix(0.960112,0.043954,-0.0470285,0.897345,334.145,-764.357)">
                <path d="M77.663,1022.53C74.512,1023.05 73.075,1027.53 65.952,1032.95C57.994,1039.12 48.73,1036.12 32.214,1039.6C20.325,1042.1 13.663,1048.32 7.213,1064.31C0.87,1082.81 8.917,1101.27 16.029,1105.31C23.141,1109.34 42.24,1116.31 49.191,1119.14C56.143,1121.96 69.666,1123.8 81.149,1106.65C85.452,1100.22 86.636,1091.67 88.672,1084.42C99.909,1086.75 113.839,1096.51 118.146,1084.14C122.899,1070.48 106.727,1050.19 102.33,1053.04C97.933,1055.9 103.496,1066.5 104.015,1067.84C104.533,1069.18 104.058,1071.42 99.863,1069.74C88.848,1065.85 90.676,1066.41 81.256,1062.56C76.19,1060.68 66.936,1057.33 66.781,1055.99C66.626,1054.66 74.706,1049.2 80.581,1041.29C86.109,1033.84 83.176,1022.33 79.142,1022.56C78.601,1022.46 78.113,1022.45 77.663,1022.53L77.663,1022.53Z" style="fill:rgb(255,182,56);fill-rule:nonzero;"/>
            </g>
            <g id="path4607-7-3" transform="matrix(1.02318,-0.00942713,0.0100865,0.956285,281.114,-816.418)">
                <path d="M111.541,970.368C107.944,964.371 105.596,961.442 101.402,957.261C97.733,953.597 94.323,951.8 88.995,949.319C86.821,950.569 84.812,952.182 83.071,954.073C75.39,962.457 74.62,974.253 81.351,980.419C88.082,986.585 99.765,984.787 107.446,976.403C109.109,974.584 110.496,972.54 111.541,970.368Z" style="fill:rgb(104,70,1);fill-rule:nonzero;"/>
            </g>
            <g id="path4607-7-6" transform="matrix(1.02318,-0.00942713,0.0100865,0.956285,283.201,-818.695)">
                <path d="M124.782,965.963C119.281,958.775 115.845,955.042 109.874,949.396C104.648,944.451 100.045,941.421 92.904,937.004C90.473,937.382 88.292,938.145 86.443,939.236C93.736,943.765 98.93,947.342 104.721,952.744C111.267,958.844 115.397,963.15 120.915,970.027C122.552,968.923 123.87,967.558 124.782,965.963Z" style="fill:rgb(104,70,1);fill-rule:nonzero;"/>
            </g>
            <g id="reye" transform="matrix(0.760948,0.61784,-0.661057,0.711201,278.039,-803.701)">
                <ellipse cx="797.585" cy="655.946" rx="17.358" ry="21.621" style="fill:rgb(104,70,1);"/>
            </g>
            <g id="path4607-7-6-6" transform="matrix(1.00794,-0.00928674,0.00993633,0.942044,277.01,-802.579)">
                <path d="M207.742,993.026C199.82,988.649 197.139,983.394 189.404,980.618C182.634,978.185 175.237,980.47 166.924,979.289C164.849,980.611 163.158,982.185 161.901,983.926C170.399,985.149 179.092,984.019 186.564,986.644C195.006,989.606 198.018,994.215 205.831,998.301C206.888,996.632 207.547,994.853 207.742,993.026L207.742,993.026Z" style="fill:rgb(104,70,1);fill-rule:nonzero;"/>
            </g>
        </g>
    </g>
</svg>
