<?xml version="1.0" encoding="UTF-8" standalone="no"?>
<!DOCTYPE svg PUBLIC "-//W3C//DTD SVG 1.1//EN" "http://www.w3.org/Graphics/SVG/1.1/DTD/svg11.dtd">
<svg width="100%" height="100%" viewBox="0 0 255 255" version="1.1" xmlns="http://www.w3.org/2000/svg" xmlns:xlink="http://www.w3.org/1999/xlink" xml:space="preserve" xmlns:serif="http://www.serif.com/" style="fill-rule:evenodd;clip-rule:evenodd;stroke-linejoin:round;stroke-miterlimit:2;">
    <g transform="matrix(1,0,0,1,-1.33336,-280.167)">
        <g id="lemon_final" transform="matrix(0.921687,0,0,0.980769,-266.811,281.152)">
            <rect x="290.928" y="-1.004" width="276.667" height="260" style="fill:none;"/>
            <clipPath id="_clip1">
                <rect x="290.928" y="-1.004" width="276.667" height="260"/>
            </clipPath>
            <g clip-path="url(#_clip1)">
                <g id="lemoncette">
                </g>
                <g transform="matrix(0.154108,-1.08297,1.11173,0.139715,262.79,250.132)">
                    <g transform="matrix(0.149271,0.896737,-0.912882,0.151959,225.357,-3.03644)">
                        <g transform="matrix(7.04762,0,0,7.04762,0.500558,1.45139)">
                            <path d="M11.405,3.339C17.885,2.064 19.858,4.604 23.06,3.423C26.262,2.242 23.153,6.243 22.315,6.931C21.475,7.619 14.174,11.74 11.008,10.229C7.842,8.718 7.826,4.043 11.405,3.339Z" style="fill:rgb(92,145,59);fill-rule:nonzero;"/>
                        </g>
                        <g transform="matrix(7.04762,0,0,7.04762,0.500558,1.45139)">
                            <path d="M15.001,16C14.697,16 14.396,15.862 14.2,15.6C13.513,14.684 12.892,13.645 12.235,12.544C9.967,8.749 7.396,4.446 0.783,2.976C0.244,2.856 -0.096,2.322 0.024,1.783C0.144,1.243 0.678,0.905 1.217,1.024C8.671,2.68 11.599,7.581 13.952,11.519C14.582,12.573 15.176,13.568 15.8,14.4C16.132,14.842 16.042,15.469 15.6,15.8C15.42,15.935 15.21,16 15.001,16Z" style="fill:rgb(119,178,85);fill-rule:nonzero;"/>
                        </g>
                        <g id="path1492" transform="matrix(0.262369,0.00944889,-0.0068986,0.249025,-0.271611,3.50013)">
                            <path d="M8.353,33.181C7.064,35.442 5.112,40.197 4.517,42.875C1.32,57.234 11.997,72.113 26.356,75.31C128.162,97.94 192.026,142.55 241.137,198.41L281.442,206.257C281.442,206.257 242.572,177.27 230.819,165.088C217.69,151.479 190.686,125.255 158.603,105.69C126.207,85.933 55.342,61.819 20.921,51.02C13.206,48.6 11.103,36.847 8.353,33.181Z" style="fill:rgb(115,156,70);fill-rule:nonzero;"/>
                        </g>
                        <g transform="matrix(7.04762,0,0,7.04762,0.500558,1.45139)">
                            <path d="M34.3,31.534C34.302,31.517 34.297,31.506 34.297,31.491C37.071,26.156 36.944,16.378 30.951,10.384C25.15,4.584 17.271,4.563 12.184,6.317C10.605,6.931 9.267,6.383 8.369,7.282C7.488,8.163 8.018,10.001 7.655,11.101C4.486,16.303 4.25,24.126 10.343,30.218C15.305,35.18 20.781,37.06 30.323,35.071C30.325,35.069 30.328,35.07 30.331,35.069C31.479,34.851 33.281,35.592 33.897,34.975C34.982,33.89 34.206,32.617 34.3,31.534Z" style="fill:rgb(255,204,77);fill-rule:nonzero;"/>
                        </g>
                        <g id="path4587-8-6-0" transform="matrix(0.265771,0.0278336,-0.0262229,0.252042,11.5686,-3.76276)">
                            <path d="M194.793,683.866C215.213,723.274 242.969,761.686 279.094,797.805C293.691,812.401 308.461,825.936 323.519,838.502C332.761,833.275 341.254,821.116 353.925,818.187C298.736,787.495 241.039,739.303 194.793,683.866Z" style="fill:rgb(255,173,77);fill-rule:nonzero;"/>
                        </g>
                        <g transform="matrix(-0.790251,0.621264,0.722796,0.819204,439.895,-572.564)">
                            <g>
                                <g id="path10982-62" transform="matrix(0.730582,1.57945,-1.57943,0.730576,742.098,153.638)">
                                    <path d="M106.253,-7.157C107.605,-5.429 108.887,-3.215 109.549,-0.532C110.264,2.366 110.609,5.348 110.776,7.907C107.307,11.168 103.452,14.337 99.327,17.002C82.607,27.804 71.523,30.34 71.523,30.34L60.909,21.699C60.909,21.699 69.832,11.46 89.464,0.47C95.256,-2.773 101.011,-5.258 106.253,-7.157Z" style="fill:rgb(255,204,77);fill-rule:nonzero;"/>
                                </g>
                                <g id="path10982-92" transform="matrix(-0.167198,0.165555,0.177678,0.152633,702.676,186.149)">
                                    <path d="M28.591,535.175C30.773,571.251 51.407,629.849 54.992,660.384C60.291,705.517 61.942,740.783 64.539,779.997C79.523,783.82 105.625,794.157 124.814,790.826C145.545,787.227 161.793,781.541 178.782,775.362C189.995,743.73 179.152,760.908 175.662,761.958C91.066,787.402 89.754,741.919 85.209,720.524C79.753,694.837 72.894,662.386 69.763,648.474C64.457,624.894 49.379,571.541 28.591,535.175Z" style="fill:rgb(255,173,77);fill-rule:nonzero;"/>
                                </g>
                                <g id="path1549" transform="matrix(0.122921,0.268793,-0.288988,0.114331,727.89,117.903)">
                                    <path d="M782.769,37.014C767.835,51.927 722.793,88.975 703.031,99.647C651.217,127.629 620.649,136.036 620.649,136.036C620.649,136.036 642.008,134.08 650.377,132.02C690.545,122.134 677.42,122.907 706.099,108.257C734.09,93.959 756.474,74.594 784.363,48.433C784.062,43.806 783.717,42.036 782.769,37.014Z" style="fill:rgb(255,173,77);fill-rule:nonzero;"/>
                                </g>
                                <g id="path10982-6-0" transform="matrix(1,0,0,1,147.689,-58.2222)">
                                    <path d="M682.887,374.046C695.331,387.71 702.653,398.825 702.653,398.825L705.22,402.975L700.386,402.293C700.386,402.293 683.033,399.757 662.57,392.582C666.648,390.216 670.987,387.401 675.012,384.178C678.692,381.232 680.8,377.441 682.887,374.046Z" style="fill:rgb(12,12,12);fill-rule:nonzero;"/>
                                </g>
                            </g>
                        </g>
                        <g transform="matrix(7.04762,0,0,7.04762,0.500558,1.45139)">
                            <path d="M8.208,6.583C8.208,6.583 3.938,5.993 1.351,11.182C-1.236,16.37 1.933,20.307 1.641,23.835C1.348,27.365 3.207,25.1 4.262,23.39C5.317,21.68 8.492,18.495 9.2,14.121C9.907,9.745 9.13,7.663 8.208,6.583Z" style="fill:rgb(119,178,85);fill-rule:nonzero;"/>
                        </g>
                    </g>
                    <g transform="matrix(0.825348,0.653224,-0.653224,0.825348,94.7371,-41.1212)">
                        <path d="M127.565,132.475L127.565,132.425C127.565,132.425 141.578,132.155 148.424,134.911C152.101,136.391 160.692,141.337 168.096,141.956C181.248,143.055 190.616,141.736 196.016,141.781C197.666,141.794 204.786,137.236 205.876,136.78C208.507,135.679 215.615,135.981 215.615,135.981C215.615,135.981 214.282,169.983 193.065,197.211C173.627,222.157 156.37,231.865 142.937,237.483C140.844,238.359 136.4,247.933 132.515,249.883C130.256,251.017 129.199,251.609 126.834,251.785C125.086,251.915 123.775,251.046 121.968,249.701C119.356,247.757 114.925,241.523 113.177,240.081C102.198,231.021 86.769,227.944 61.165,197.761C40.892,173.862 40.234,136.075 40.234,136.075C40.234,136.075 46.624,135.729 49.255,136.83C50.345,137.286 57.465,141.844 59.115,141.831C64.515,141.786 74.524,143.341 87.676,142.242C95.08,141.623 103.03,136.441 106.706,134.961C113.55,132.206 127.554,132.475 127.565,132.475Z" style="fill:rgb(125,106,90);"/>
                    </g>
                </g>
                <g transform="matrix(0.883769,-0.108366,0.120722,0.869488,-46.6962,-684.299)">
                    <g id="path959" transform="matrix(0.933124,0,0,0.933124,294.799,72.9561)">
                        <path d="M306.784,1049.96C306.784,1049.96 291.81,1026.53 271.299,1020.03C250.787,1013.53 211.895,1026.32 211.895,1026.32L222.767,1033.04C222.767,1033.04 220.642,1034.39 218.17,1035.49C215.7,1036.59 211.834,1040.1 211.834,1040.1L222.415,1044.65C222.415,1044.65 220.105,1047.35 217.269,1048.95C214.433,1050.55 211.556,1053.34 211.556,1053.34C211.556,1053.34 228.552,1061.42 233.922,1063.57C239.292,1065.72 265.84,1076 275.95,1084.45C286.061,1092.9 306.784,1049.96 306.784,1049.96L306.784,1049.96Z" style="fill:rgb(255,204,77);fill-rule:nonzero;"/>
                    </g>
                    <g id="path1512" transform="matrix(0.246889,0,0,0.246889,294.799,881.526)">
                        <path d="M802.227,604.791L841.927,629.328L862.847,619.651L802.227,604.791ZM801.85,656.575L840.62,673.265C840.62,673.265 840.117,673.819 839.86,674.107L856.166,664.51L801.85,656.575ZM806.818,705.03C804.024,705.048 802.31,705.142 800.507,705.229C800.195,705.523 799.584,706.092 799.584,706.092C799.584,706.092 863.817,736.634 884.114,744.751C904.412,752.869 1004.75,791.729 1042.96,823.679C1058.31,836.507 1080.11,818.003 1100.72,791.279C1075.05,779.275 1034.59,761.871 975.472,740.396C887.78,708.54 830.151,704.873 806.818,705.029L806.818,705.03Z" style="fill:rgb(255,173,77);fill-rule:nonzero;"/>
                    </g>
                </g>
                <g id="path934" transform="matrix(0.880021,-0.000182347,0.000194036,0.827008,317.037,-687.556)">
                    <path d="M198.636,1021.11C198.553,1021.11 198.47,1021.11 198.387,1021.12C197.648,1021.15 196.962,1021.51 196.515,1022.1C196.515,1022.1 190.297,1030.08 182.328,1038.71C174.935,1046.72 167.909,1052.06 167.052,1052.7C160.252,1048.83 153.553,1049.63 153.553,1049.63C152.241,1049.71 151.208,1050.82 151.208,1052.13C151.208,1053.51 152.341,1054.64 153.718,1054.64C153.857,1054.64 153.995,1054.63 154.132,1054.61C154.132,1054.61 159.818,1053.95 165.416,1057.57C170.814,1061.05 173.532,1068.45 173.532,1068.45C173.841,1069.52 174.829,1070.26 175.944,1070.26C177.321,1070.26 178.454,1069.13 178.454,1067.75C178.454,1067.44 178.395,1067.13 178.279,1066.83C178.279,1066.83 176.28,1060.61 171.231,1055.81C173.937,1053.67 179.917,1048.72 186.014,1042.11C194.145,1033.31 200.476,1025.19 200.476,1025.19C200.834,1024.75 201.03,1024.19 201.03,1023.62C201.03,1022.29 199.968,1021.18 198.636,1021.11L198.636,1021.11Z" style="fill:rgb(66,44,1);fill-rule:nonzero;"/>
                </g>
                <g transform="matrix(0.926967,-0.87151,0.986823,0.926967,-98.511,380.711)">
                    <g id="path10933" transform="matrix(0.737922,0.00806243,-0.0724976,0.690161,861.665,-430.6)">
                        <ellipse cx="-574.469" cy="860.581" rx="23.206" ry="18.867" style="fill:rgb(243,88,45);"/>
                    </g>
                    <g id="path10935" transform="matrix(-0.036517,0.692666,-0.737949,0.00552392,861.665,-430.6)">
                        <ellipse cx="834.897" cy="614.122" rx="4.423" ry="3.495" style="fill:white;fill-opacity:0.69;"/>
                    </g>
                    <g id="path10937" transform="matrix(-0.341375,0.614854,-0.681702,-0.265614,861.665,-430.6)">
                        <ellipse cx="1029.05" cy="184.746" rx="2.585" ry="1.594" style="fill:white;fill-opacity:0.69;"/>
                    </g>
                </g>
                <g transform="matrix(0.926967,-0.87151,0.986823,0.926967,1.39142,286.785)">
                    <g id="path109331" serif:id="path10933" transform="matrix(0.737922,0.00806243,-0.0724976,0.690161,861.665,-430.6)">
                        <ellipse cx="-574.469" cy="860.581" rx="23.206" ry="18.867" style="fill:rgb(243,88,45);"/>
                    </g>
                    <g id="path109351" serif:id="path10935" transform="matrix(-0.036517,0.692666,-0.737949,0.00552392,861.665,-430.6)">
                        <ellipse cx="834.897" cy="614.122" rx="4.423" ry="3.495" style="fill:white;fill-opacity:0.69;"/>
                    </g>
                    <g id="path109371" serif:id="path10937" transform="matrix(-0.341375,0.614854,-0.681702,-0.265614,861.665,-430.6)">
                        <ellipse cx="1029.05" cy="184.746" rx="2.585" ry="1.594" style="fill:white;fill-opacity:0.69;"/>
                    </g>
                </g>
                <g id="path1304" transform="matrix(1.32179,0.115471,-0.122873,1.24216,369.601,-1124.54)">
                    <path d="M146.22,1011.97L157.82,998.713C157.82,998.713 158.234,1006.9 156.473,1008.76C154.713,1010.62 146.22,1011.97 146.22,1011.97Z" style="fill:rgb(66,44,1);fill-rule:nonzero;"/>
                </g>
                <g transform="matrix(1.18903,-0.0571074,0.0607682,1.1174,-134.616,-967.371)">
                    <g id="leye" transform="matrix(0.63036,-0.688016,0.688016,0.63036,294.799,72.9561)">
                        <ellipse cx="-682.334" cy="763.639" rx="17.358" ry="21.621" style="fill:rgb(104,70,1);"/>
                    </g>
                    <g id="path10915" transform="matrix(0.933124,0,0,0.933124,294.799,72.9561)">
                        <path d="M101.942,1008.67C100.829,1010.29 97.99,1010.29 95.651,1008.67C95.651,1008.67 95.651,1008.67 95.651,1008.67C93.312,1007.06 92.303,1004.41 93.415,1002.79C93.416,1002.79 93.416,1002.79 93.416,1002.79C94.528,1001.18 97.368,1001.18 99.706,1002.79C99.706,1002.79 99.706,1002.79 99.706,1002.79C102.045,1004.41 103.054,1007.06 101.942,1008.67C101.942,1008.67 101.942,1008.67 101.942,1008.67Z" style="fill:white;fill-rule:nonzero;"/>
                    </g>
                </g>
                <g transform="matrix(1.18903,-0.0571074,0.0607682,1.1174,-71.8466,-1026.38)">
                    <g id="leye1" serif:id="leye" transform="matrix(0.63036,-0.688016,0.688016,0.63036,294.799,72.9561)">
                        <ellipse cx="-682.334" cy="763.639" rx="17.358" ry="21.621" style="fill:rgb(104,70,1);"/>
                    </g>
                    <g id="path109151" serif:id="path10915" transform="matrix(0.933124,0,0,0.933124,294.799,72.9561)">
                        <path d="M101.942,1008.67C100.829,1010.29 97.99,1010.29 95.651,1008.67C95.651,1008.67 95.651,1008.67 95.651,1008.67C93.312,1007.06 92.303,1004.41 93.415,1002.79C93.416,1002.79 93.416,1002.79 93.416,1002.79C94.528,1001.18 97.368,1001.18 99.706,1002.79C99.706,1002.79 99.706,1002.79 99.706,1002.79C102.045,1004.41 103.054,1007.06 101.942,1008.67C101.942,1008.67 101.942,1008.67 101.942,1008.67Z" style="fill:white;fill-rule:nonzero;"/>
                    </g>
                </g>
                <g transform="matrix(0.825339,-0.862408,0.985803,0.833188,-38.247,387.259)">
                    <g transform="matrix(0.836137,-0.158405,0.181223,0.844804,-216.265,-43.723)">
                        <g id="path10982-621" serif:id="path10982-62" transform="matrix(0.730582,1.57945,-1.57943,0.730576,742.098,153.638)">
                            <path d="M106.253,-7.157C107.605,-5.429 108.887,-3.215 109.549,-0.532C110.264,2.366 110.609,5.348 110.776,7.907C107.307,11.168 103.452,14.337 99.327,17.002C82.607,27.804 71.523,30.34 71.523,30.34L60.909,21.699C60.909,21.699 69.832,11.46 89.464,0.47C95.256,-2.773 101.011,-5.258 106.253,-7.157Z" style="fill:rgb(255,204,77);fill-rule:nonzero;"/>
                        </g>
                        <g id="path10982-6-01" serif:id="path10982-6-0" transform="matrix(1,0,0,1,147.689,-58.2222)">
                            <path d="M682.887,374.046C695.331,387.71 702.653,398.825 702.653,398.825L705.22,402.975L700.386,402.293C700.386,402.293 683.033,399.757 662.57,392.582C666.648,390.216 670.987,387.401 675.012,384.178C678.692,381.232 680.8,377.441 682.887,374.046Z" style="fill:rgb(12,12,12);fill-rule:nonzero;"/>
                        </g>
                    </g>
                    <g id="path15491" serif:id="path1549" transform="matrix(0.15149,0.207606,-0.220914,0.142364,413.718,-59.4197)">
                        <path d="M782.769,37.014C767.835,51.927 722.793,88.975 703.031,99.647C651.217,127.629 594.644,136.599 594.644,136.599C594.644,136.599 614.844,140.79 623.213,138.73C663.381,128.845 668.613,129.107 697.292,114.457C725.283,100.159 756.474,74.594 784.363,48.433C784.062,43.806 783.717,42.036 782.769,37.014Z" style="fill:rgb(255,173,77);fill-rule:nonzero;"/>
                    </g>
                </g>
                <g transform="matrix(1.21014,-0.104237,0.110919,1.13724,-180.819,-960.235)">
                    <g id="path879-2-7" transform="matrix(0.933124,0,0,0.933124,294.799,72.9561)">
                        <path d="M74.785,913.426C74.785,913.426 93.912,901.572 103.338,892.293C112.764,883.013 127.643,869.474 127.643,869.474C127.643,869.474 128.992,889.45 125.21,900.923C121.429,912.396 120.106,912.98 120.106,912.98C120.106,912.98 128.258,903.351 138.146,899.613C144.135,897.153 144.42,896.998 144.42,896.998C144.42,896.998 133.819,912.344 133.681,915.251" style="fill:rgb(255,204,77);fill-rule:nonzero;"/>
                    </g>
                    <g id="path1551" transform="matrix(0.246889,0,0,0.246889,294.799,881.526)">
                        <path d="M482.34,74.601C474.92,90.149 457.157,126.136 444.589,141.304C428.443,160.791 407.192,175.94 407.192,175.94C407.192,175.94 441.374,187.363 457.234,170.891C460.153,165.631 465.175,154.486 473.238,130.025C478.486,114.104 481.108,93.859 482.34,74.601ZM545.839,115.194C545.839,115.194 544.813,115.632 544.621,115.719C536.699,121.867 505.471,146.325 494.978,158.282C483.007,171.923 477.992,178.885 477.992,178.885C477.992,178.885 481.057,183.336 495.812,179.439C501.271,177.997 505.61,176.099 508.93,174.279C518.904,154.19 545.839,115.194 545.839,115.194Z" style="fill:rgb(255,173,77);fill-rule:nonzero;"/>
                    </g>
                </g>
                <g id="path1459-6" transform="matrix(0.272437,-0.00777981,0.00827851,0.256025,293.327,17.0411)">
                    <path d="M19.163,346.218C-7.681,457.708 53.968,546.784 47.266,627.756C39.461,721.796 88.986,661.456 117.092,615.901C145.197,570.346 222.997,473.802 244.439,368.003C245.127,364.609 246.374,357.19 246.86,353.876C244.3,363.037 218.22,431.841 210.196,443.432C201.606,455.84 164.168,530.411 144.124,549.5C124.08,568.59 72.542,631.587 72.542,631.587C72.542,631.587 68.725,601.041 68.725,581.951C68.725,562.862 20.996,426.371 20.042,407.281C19.393,394.296 19.23,366.47 19.163,346.218Z" style="fill:rgb(115,156,70);fill-rule:nonzero;"/>
                </g>
                <g id="path1407" transform="matrix(0.272545,-0.00295839,0.00314803,0.256127,295.449,13.5226)">
                    <path d="M315.947,793.145C303.585,800.299 297.762,808.539 291.423,815.301C395.779,918.405 462.909,938.956 567.54,953.328C693.851,970.678 771.468,931.891 824.613,927.173C853.734,924.588 890.174,940.967 906.585,924.53C917.319,913.796 920.327,902.697 921.154,891.138C903.272,893.983 833.196,872.785 817.495,875.267C738.218,870.51 700.557,878.115 643.365,872.258C575.651,865.323 467.616,859.261 413.046,846.075C377.214,837.417 315.947,793.145 315.947,793.145Z" style="fill:rgb(115,90,83);fill-rule:nonzero;"/>
                </g>
            </g>
        </g>
    </g>
</svg>
