<?xml version="1.0" encoding="UTF-8" standalone="no"?><!DOCTYPE svg PUBLIC "-//W3C//DTD SVG 1.1//EN" "http://www.w3.org/Graphics/SVG/1.1/DTD/svg11.dtd">
<!-- Smiley lemoji :) -->
<svg height="100%" style="fill-rule:nonzero;clip-rule:evenodd;stroke-linecap:round;stroke-linejoin:round;" xmlns:xlink="http://www.w3.org/1999/xlink" xmlns="http://www.w3.org/2000/svg" xml:space="preserve" width="100%" version="1.1" viewBox="0 0 255 255">
<metadata>
</metadata>
<defs>
<path d="M0+0L255+0L255+0L255+255L255+255L0+255L0+255L0+0L0+0Z" id="Mask"/>
<path d="M35.9834+8.52651e-14L208.259+5.68434e-14L208.259+5.68434e-14L208.259+255L208.259+255L35.9834+255L35.9834+255L35.9834+8.52651e-14L35.9834+8.52651e-14Z" id="Mask_2"/>
</defs>
<g id="Layer" opacity="0.997863">
<path d="M0+0L255+0L255+0L255+255L255+255L0+255L0+255L0+0L0+0Z" opacity="1" fill="none"/>
<g opacity="1">
<g opacity="1">
<clipPath id="ClipPath">
<use xlink:href="#Mask" fill="none" overflow="visible"/>
</clipPath>
<g clip-path="url(#ClipPath)">
<g opacity="1">
<path d="M35.9834+8.52651e-14L208.259+5.68434e-14L208.259+5.68434e-14L208.259+255L208.259+255L35.9834+255L35.9834+255L35.9834+8.52651e-14L35.9834+8.52651e-14Z" fill-rule="evenodd" fill-opacity="0" fill="#7d6a5a" opacity="1"/>
<g opacity="1">
<clipPath id="ClipPath_2">
<use xlink:href="#Mask_2" fill="none" overflow="visible"/>
</clipPath>
<g clip-path="url(#ClipPath_2)">
<g opacity="1">
<path d="M157.455+48.0753C187.638+65.8666+185.763+83.2503+202.759+89.79C219.756+96.3296+192.468+101.645+186.588+101.482C180.7+101.312+136.549+92.2366+129.866+74.8234C123.183+57.4102+140.786+38.2481+157.455+48.0753Z" fill-rule="evenodd" fill="#5c913b" opacity="1"/>
<path d="M122.233+112.281C121.025+111.223+120.339+109.602+120.531+107.832C121.196+101.638+122.578+95.1623+124.047+88.304C129.097+64.6526+134.826+37.8373+113.984+8.71521C112.286+6.34081+112.914+2.94016+115.389+1.11992C117.867-0.704467+121.243-0.24909+122.945+2.12116C146.441+34.9429+139.915+65.4838+134.673+90.0248C133.271+96.5939+131.944+102.793+131.341+108.419C131.022+111.41+128.34+113.7+125.356+113.536C124.14+113.47+123.064+113.009+122.233+112.281Z" fill-rule="evenodd" fill="#77b255" opacity="1"/>
<g opacity="1">
<path d="M127.632+51.2603C127.86+51.2583+128.079+51.2703+128.291+51.2933C131.515+51.5903+134.065+53.8893+138.78+57.5993L139.528+58.1843C144.392+61.7723+162.371+69.0833+179.494+87.4483L179.5+87.4553C195.577+104.623+205.433+127.707+205.446+153.079C205.446+153.081+189+171+189+171C189+190+156.018+232+127.5+232C98.9818+232+66.9999+191+66.9999+171L49.7459+153.13C49.7459+127.737+59.6039+104.634+75.6919+87.4552L75.6979+87.4482C92.8218+69.0832+110.8+61.7722+115.664+58.1842L116.412+57.5993C121.127+53.8893+123.677+51.5903+126.901+51.2933C127.114+51.2693+127.333+51.2583+127.56+51.2603L127.596+51.2603L127.632+51.2603Z" fill-rule="evenodd" fill="#ffcc4d" opacity="1"/>
<path d="M49.7849+153.128C50.2889+153.103+55.5299+152.872+57.7159+153.793C58.6679+154.194+64.8379+158.205+66.2999+158.193C71.0859+158.153+79.9079+159.52+91.5948+158.551C98.1748+158.006+105.377+153.445+108.68+152.142C114.829+149.717+127.596+150.004+127.596+150.004C127.596+150.004+139.96+149.721+145.942+152.145C149.155+153.447+156.616+157.799+163.158+158.343C174.778+159.308+183.119+158.146+187.902+158.185C189.364+158.197+195.812+154.185+196.792+153.783C199.151+152.817+205.414+153.078+205.446+153.079L205.446+153.13C205.446+192.951+181.202+227.142+146.714+241.68C135.449+246.429+134.107+255.091+127.599+254.999C121.119+255.06+119.762+246.42+108.518+241.68C74.0289+227.142+49.7849+192.95+49.7849+153.13L49.7849+153.128Z" fill-rule="evenodd" fill="#7d6a5a" opacity="1"/>
</g>
<path d="M132.583+48.2624C132.583+48.2624+118.062+30.7243+88.3532+42.809C58.6481+54.8896+56.2329+82.2329+41.7866+95.6443C27.3289+109.06+43.1588+106.37+53.7431+103.105C64.3275+99.8392+88.7869+98.0424+108.054+82.6403C127.325+67.2264+132.127+55.9498+132.583+48.2624Z" fill-rule="evenodd" fill="#77b255" opacity="1"/>
</g>
</g>
</g>
</g>
</g>
</g>
<path d="M85.1692+124.609C84.8639+115.678+90.0209+108.269+96.6878+108.06C103.355+107.851+109.007+114.922+109.312+123.853C109.617+132.784+104.46+140.193+97.7936+140.402C91.1267+140.611+85.4746+133.54+85.1692+124.609Z" fill-rule="evenodd" fill="#664500" opacity="1"/>
<path d="M145.773+123.747C145.468+114.816+150.625+107.407+157.292+107.198C163.959+106.99+169.611+114.06+169.916+122.991C170.222+131.922+165.065+139.331+158.398+139.54C151.731+139.749+146.079+132.678+145.773+123.747Z" fill-rule="evenodd" fill="#664500" opacity="1"/>
<path d="M126.221+192.213C144.696+192.802+160.527+181.836+162.896+179.802C164.975+178.017+163.995+176.545+162.889+175.84C161.782+175.135+159.538+176.096+158.437+176.907C157.337+177.717+141.736+185.984+126.037+185.744C109.439+185.491+97.6155+176.995+95.733+176.031C93.8505+175.068+92.8306+174.815+91.7282+176.058C90.6257+177.3+91.1177+178.65+92.3909+179.493C93.664+180.336+107.745+191.624+126.221+192.213Z" opacity="1" fill="#422c01"/>
</g>
</g>
</svg>
