<?xml version="1.0" encoding="UTF-8" standalone="no"?><!DOCTYPE svg PUBLIC "-//W3C//DTD SVG 1.1//EN" "http://www.w3.org/Graphics/SVG/1.1/DTD/svg11.dtd">
<!-- Smirking lemoji ;P -->
<svg height="100%" style="fill-rule:nonzero;clip-rule:evenodd;stroke-linecap:round;stroke-linejoin:round;" xmlns:xlink="http://www.w3.org/1999/xlink" xmlns="http://www.w3.org/2000/svg" xml:space="preserve" width="100%" version="1.1" viewBox="0 0 255 255">
<metadata>
</metadata>
<defs/>
<g id="Lemon">
<g opacity="1">
<path d="M85.4035+18.4438C129.727+9.57556+142.936+27.9746+164.892+19.6224C186.848+11.2702+165.251+39.9464+159.468+44.8626C153.671+49.7787+103.469+79.1134+82.0218+68.0702C60.5748+57.0269+60.9229+23.3405+85.4035+18.4438Z" fill-rule="evenodd" fill="#5c913b" opacity="1"/>
<path d="M107.036+110.816C104.963+110.838+102.906+109.864+101.562+107.99C96.8515+101.437+92.5875+93.9929+88.0762+86.1047C72.5031+58.9152+54.8495+28.0861+9.70649+17.9569C6.02705+17.1299+3.69343+13.3055+4.49699+9.4128C5.30053+5.51286+8.93323+3.03956+12.6126+3.85929C63.4966+15.2699+83.6016+50.3834+99.7583+78.5974C104.084+86.1489+108.163+93.2776+112.442+99.2296C114.718+102.392+114.122+106.916+111.116+109.333C109.892+110.318+108.462+110.801+107.036+110.816Z" fill-rule="evenodd" fill="#77b255" opacity="1"/>
<g opacity="1">
<path d="M59.5343+47.2516C59.7514+47.053+59.9719+46.8756+60.1952+46.7149C63.5454+44.2198+67.9772+44.2388+75.7048+43.752L76.9276+43.6713C84.6929+42.938+108.258+34.4826+140.544+37.4366L140.556+37.4382C170.806+40.1393+200.193+53.9191+222.111+78.4007C222.112+78.4026+221.801+109.891+221.801+109.891C238.205+128.233+242.816+197.235+215.45+221.842C188.083+246.449+121.996+234.465+104.729+215.158L72.7438+212.795C50.8207+188.282+40.3346+157.474+40.9412+127.009L40.9409+126.997C41.5178+94.4927+52.4577+71.9228+54.0275+64.2622L54.2403+63.0521C55.5618+55.4023+56.024+50.9828+58.8613+47.9142C59.045+47.7073+59.2457+47.5077+59.4652+47.3138L59.4998+47.2827L59.5343+47.2516Z" fill-rule="evenodd" fill="#ffcc4d" opacity="1"/>
<path d="M72.7795+212.759C73.2415+212.3+78.0714+207.555+80.9642+206.558C82.224+206.124+91.6077+204.672+93.0003+203.399C97.5584+199.231+107.204+192.938+117.583+181.919C123.426+175.715+126.4+165.098+128.444+160.99C132.251+153.344+144.75+142.605+144.75+142.605C144.75+142.605+156.371+131.663+164.204+128.842C168.411+127.326+179.328+125.09+186.075+119.97C198.059+110.876+205.06+102.557+209.684+98.4675C211.097+97.2176+213.821+87.781+214.414+86.5473C215.844+83.5794+222.079+78.4273+222.111+78.4007L222.155+78.4499C256.534+116.891+262.788+170.816+242.245+214.608C235.535+228.912+241.725+238.432+235.401+243.959C229.235+249.609+220.474+242.439+205.591+247.565C159.944+263.29+107.16+251.201+72.7812+212.761L72.7795+212.759Z" fill-rule="evenodd" fill="#7d6a5a" opacity="1"/>
</g>
<path d="M61.6977+40.0852C61.6977+40.0852+32.6214+35.6846+14.5458+72.9847C-3.52966+110.278+17.7595+138.757+15.4755+164.169C13.1845+189.595+26.0522+173.339+33.3899+161.054C40.7276+148.769+62.6478+125.93+67.8394+94.4367C73.0244+62.9291+67.897+47.8996+61.6977+40.0852Z" fill-rule="evenodd" fill="#77b255" opacity="1"/>
</g>
<g opacity="1">
<path d="M88.5114+161.65C85.6854+154.003+89.3149+144.724+96.6181+140.924C103.921+137.124+112.133+140.243+114.959+147.89C117.785+155.537+114.155+164.817+106.852+168.616C99.5486+172.416+91.3373+169.297+88.5114+161.65Z" opacity="1" fill="#664500"/>
<path d="M90.9702+162.608C87.7183+166.079+83.9348+168.456+79.9331+176.505C73.633+189.177+70.0463+165.513+83.4458+149.95C98.979+131.909+117.164+140.167+112.006+150.458" opacity="1" fill="#664500"/>
</g>
<g opacity="1">
<path d="M158.93+101.452C156.011+93.8054+159.524+84.5183+166.777+80.7084C174.031+76.8985+182.278+80.0085+185.198+87.6548C188.117+95.3011+184.604+104.588+177.35+108.398C170.097+112.208+161.85+109.098+158.93+101.452Z" opacity="1" fill="#664500"/>
<path d="M161.21+102.306C158.002+105.782+154.249+108.164+150.349+116.221C144.208+128.905+140.329+105.237+153.531+89.6526C168.836+71.5863+187.116+79.8255+182.087+90.1264" opacity="1" fill="#664500"/>
</g>
<path d="M153.359+194.338C139.984+201.353+135.74+191.747+144.431+188.905C153.404+185.971+180.043+167.927+187.719+152.402C188.981+149.85+190.911+143.245+190.879+140.172C190.848+137.216+189.841+127.809+191.837+126.938C193.131+126.373+194.214+127.87+196.838+134.705C200.974+145.478+197.468+158.015+186.209+169.486C179.737+176.08+166.734+187.324+153.359+194.338Z" opacity="1" fill="#422c01"/>
<path stroke="#664500" stroke-width="8" d="M56.022+165.347C56.022+165.347+52.7814+118.473+80.5755+116.81" fill="none" stroke-linecap="round" opacity="1" stroke-linejoin="round"/>
<path stroke="#664500" stroke-width="8" d="M180.811+58.3522C180.811+58.3522+135.221+47.5581+129.064+74.7959" fill="none" stroke-linecap="round" opacity="1" stroke-linejoin="round"/>
</g>
</svg>
