<?xml version="1.0" encoding="UTF-8" standalone="no"?>
<!DOCTYPE svg PUBLIC "-//W3C//DTD SVG 1.1//EN" "http://www.w3.org/Graphics/SVG/1.1/DTD/svg11.dtd">
<svg height="255.0pt" stroke-miterlimit="10" style="fill-rule:nonzero;clip-rule:evenodd;stroke-linecap:round;stroke-linejoin:round;" version="1.1" viewBox="0 0 255 255" width="255.0pt" xml:space="preserve" xmlns="http://www.w3.org/2000/svg" xmlns:xlink="http://www.w3.org/1999/xlink">
<defs/>
<clipPath id="ArtboardFrame">
<rect height="255" width="255" x="0" y="0"/>
</clipPath>
<g clip-path="url(#ArtboardFrame)" id="Layer">
<path d="M84.727 17.5361C129.677 8.67467 142.919 27.2733 165.214 18.8873C187.508 10.5014 165.429 39.403 159.536 44.3536C153.63 49.304 102.579 78.8122 80.9411 67.6216C59.3029 56.4311 59.9007 22.4289 84.727 17.5361Z" fill="#5c913b" fill-rule="evenodd" opacity="1" stroke="none"/>
<path d="M107.646 109.848C105.546 109.828 103.488 108.805 102.174 106.887C97.5677 100.182 93.436 92.5858 89.065 84.5365C73.9753 56.7915 56.8697 25.3326 11.4175 14.2213C7.71286 13.3143 5.44544 9.40897 6.35593 5.49646C7.26657 1.57668 11.006-0.84766 14.7108 0.0520606C65.9435 12.5696 85.4242 48.4004 101.079 77.1908C105.271 84.8965 109.223 92.1708 113.407 98.2616C115.633 101.497 114.916 106.052 111.813 108.431C110.55 109.401 109.089 109.861 107.646 109.848Z" fill="#77b255" fill-rule="evenodd" opacity="1" stroke="none"/>
<path d="M238.587 224.052C238.604 223.928 238.571 223.848 238.573 223.739C258.541 185.114 259.145 113.991 218.661 70.0157C179.473 27.464 125.057 26.8108 89.6562 39.2445C78.6573 43.6098 69.499 39.5392 63.1604 46.0206C56.942 52.3721 60.3241 65.7735 57.6503 73.7507C34.9743 111.383 32.159 168.265 73.3194 212.959C106.839 249.362 144.376 263.383 210.583 249.524C210.597 249.509 210.618 249.517 210.639 249.509C218.601 247.997 230.934 253.501 235.283 249.052C242.941 241.23 237.774 231.922 238.587 224.052Z" fill="#ffcc4d" fill-rule="evenodd" opacity="1" stroke="none"/>
<path d="M147.429 143.714L147.392 143.67C147.392 143.67 159.203 132.496 167.121 129.568C171.374 127.996 182.417 125.626 189.224 120.39C201.315 111.088 208.364 102.62 213.026 98.4442C214.45 97.1677 217.162 87.6145 217.758 86.364C219.194 83.3452 225.511 78.062 225.511 78.062C225.511 78.062 249.664 108.911 251.733 149.341C253.63 186.382 246.06 208.362 238.725 223.772C237.583 226.174 240.896 238.036 239.016 242.778C237.924 245.535 237.458 246.879 235.562 248.879C234.16 250.357 232.39 250.619 229.84 250.85C226.155 251.185 217.72 249.178 215.148 249.278C198.997 249.905 183.483 259.25 139.082 252.775C103.925 247.647 75.25 215.034 75.25 215.034C75.25 215.034 80.4699 209.743 83.5442 208.655C84.8177 208.204 94.3116 206.642 95.7163 205.343C100.312 201.089 110.048 194.639 120.504 183.411C126.39 177.089 129.349 166.341 131.399 162.174C135.216 154.417 147.42 143.722 147.429 143.714Z" fill="#7d6a5a" fill-rule="evenodd" opacity="1" stroke="none"/>
<path d="M153.514 69.0388C194.911 49.0377 229.241 100.984 188.449 122.033C137.184 148.487 119.242 85.5973 153.514 69.0388Z" fill="#ffffff" fill-rule="evenodd" opacity="1" stroke="none"/>
<path d="M72.0388 143.242C95.3259 105.149 150.425 133.263 128.178 171.967C100.219 220.608 52.7599 174.779 72.0388 143.242Z" fill="#ffffff" fill-rule="evenodd" opacity="1" stroke="none"/>
<path d="M166.606 55.8101C164.428 56.975 155.681 61.3494 145.611 63.4029C136.697 65.2205 130.88 65.5672 124.321 65.2784C117.762 64.9895 112.223 61.0532 112.492 57.4039C112.762 53.7546 120.7 56.1799 124.916 55.9112C129.656 55.609 135.145 56.2283 144.804 54.0684C154.463 51.9084 162.129 48.9065 165.362 47.6719C168.595 46.4372 174.17 42.1728 175.388 43.9413C178.106 47.8906 170.444 53.7576 166.606 55.8101Z" fill="#664500" fill-rule="nonzero" opacity="1" stroke="none"/>
<path d="M58.0362 150.655C59.6031 148.745 65.5981 141.018 69.5742 131.541C73.0937 123.152 74.5672 117.514 75.5619 111.025C76.5565 104.535 73.7748 98.3354 70.143 97.8885C66.5112 97.4416 67.3434 105.7 66.2583 109.783C65.0384 114.373 64.5763 119.878 60.5758 128.931C56.5753 137.984 52.1371 144.919 50.2963 147.849C48.4554 150.779 43.1864 155.417 44.6838 156.956C48.0277 160.392 55.2751 154.02 58.0362 150.655Z" fill="#664500" fill-rule="nonzero" opacity="1" stroke="none"/>
<path d="M150.551 65.4661C191.948 45.465 226.279 97.411 185.487 118.46C134.222 144.914 116.28 82.0246 150.551 65.4661Z" fill="#3c2900" fill-rule="evenodd" opacity="1" stroke="none"/>
<path d="M139.173 92.4925C142.623 75.6386 161.944 62.2139 170.284 80.3902C175.729 92.2574 170.795 103.033 154.116 110.118C143.48 114.636 137.118 102.533 139.173 92.4925Z" fill="#ffffff" fill-rule="evenodd" opacity="1" stroke="none"/>
<path d="M184.302 87.956C179.347 98.8757 191.241 100.479 195.798 93.195C200.355 85.9112 189.256 77.0363 184.302 87.956Z" fill="#ffffff" fill-rule="evenodd" opacity="1" stroke="none"/>
<path d="M68.4945 139.913C91.7816 101.82 146.88 129.934 124.634 168.638C96.6751 217.279 49.2156 171.449 68.4945 139.913Z" fill="#3c2900" fill-rule="evenodd" opacity="1" stroke="none"/>
<path d="M69.5068 154.15C72.4401 137.318 90.8103 124.321 99.3158 142.773C104.869 154.82 100.354 165.514 84.3874 172.213C74.2058 176.485 67.7593 164.178 69.5068 154.15Z" fill="#ffffff" fill-rule="evenodd" opacity="1" stroke="none"/>
<path d="M111.334 149.744C106.803 160.582 118.349 162.486 122.583 155.288C126.817 148.089 115.865 138.906 111.334 149.744Z" fill="#ffffff" fill-rule="evenodd" opacity="1" stroke="none"/>
<path d="M157.836 183.124C159.796 178.57 163.478 173.206 167.902 169.069C172.327 164.932 177.697 162.625 182.054 161.117C186.411 159.608 192.862 160.198 194.471 164.824C196.08 169.45 191.537 172.375 189.613 173.606C187.688 174.838 181.487 175.082 176.981 179.366C172.475 183.651 172.23 188.156 170.692 190.078C169.155 192.001 165.816 196.102 160.783 194.599C155.751 193.096 155.876 187.678 157.836 183.124Z" fill="#402a01" fill-rule="nonzero" opacity="1" stroke="none"/>
<path d="M62.1543 40.9265C62.1543 40.9265 32.7515 36.3643 14.0973 73.9394C-4.5568 111.507 16.7345 140.342 14.1832 165.983C11.6246 191.638 24.8076 175.282 32.3534 162.913C39.8992 150.543 62.311 127.58 67.8638 95.8132C73.41 64.0316 68.3588 48.8399 62.1543 40.9265Z" fill="#77b255" fill-rule="evenodd" opacity="1" stroke="none"/>
</g>
</svg>
