<?xml version="1.0" encoding="UTF-8" standalone="no"?>
<svg
   xmlns:serif="http://www.serif.com/"
   xmlns:dc="http://purl.org/dc/elements/1.1/"
   xmlns:cc="http://creativecommons.org/ns#"
   xmlns:rdf="http://www.w3.org/1999/02/22-rdf-syntax-ns#"
   xmlns:svg="http://www.w3.org/2000/svg"
   xmlns="http://www.w3.org/2000/svg"
   xmlns:sodipodi="http://sodipodi.sourceforge.net/DTD/sodipodi-0.dtd"
   xmlns:inkscape="http://www.inkscape.org/namespaces/inkscape"
   width="100%"
   height="100%"
   viewBox="0 0 255 255"
   version="1.1"
   xml:space="preserve"
   style="fill-rule:evenodd;clip-rule:evenodd;stroke-linejoin:round;stroke-miterlimit:2;"
   id="svg513"
   sodipodi:docname="lemon_starstruck.svg"
   inkscape:export-filename="/home/vinam/Downloads/lemon_starstruck.png"
   inkscape:export-xdpi="48.188213"
   inkscape:export-ydpi="48.188213"
   inkscape:version="1.0.2 (e86c870879, 2021-01-15)"><metadata
   id="metadata519"><rdf:RDF><cc:Work
       rdf:about=""><dc:format>image/svg+xml</dc:format><dc:type
         rdf:resource="http://purl.org/dc/dcmitype/StillImage" /><dc:title /></cc:Work></rdf:RDF></metadata><defs
   id="defs517" /><sodipodi:namedview
   pagecolor="#ffffff"
   bordercolor="#666666"
   borderopacity="1"
   objecttolerance="10"
   gridtolerance="10"
   guidetolerance="10"
   inkscape:pageopacity="0"
   inkscape:pageshadow="2"
   inkscape:window-width="1366"
   inkscape:window-height="743"
   id="namedview515"
   showgrid="false"
   inkscape:zoom="1.1019608"
   inkscape:cx="-0.63665571"
   inkscape:cy="146.40467"
   inkscape:window-x="0"
   inkscape:window-y="25"
   inkscape:window-maximized="0"
   inkscape:current-layer="g592"
   inkscape:document-rotation="0" />
    <rect
   id="Artboard1"
   x="0"
   y="0"
   width="255"
   height="255"
   style="fill:none;" />
    <g
   id="Artboard11"
   serif:id="Artboard1">
        <g
   id="tilted"
   transform="matrix(0.143973,-1.0826,1.04467,0.140946,-26.7611,237.17)">
            <g
   id="Back-leaf"
   serif:id="Back leaf"
   transform="matrix(1.12567,6.30636,-6.42053,1.1515,220.143,-2.15814)">
                <path
   d="M11.405,3.339C17.885,2.064 19.858,4.604 23.06,3.423C26.262,2.242 23.153,6.243 22.315,6.931C21.475,7.619 14.174,11.74 11.008,10.229C7.842,8.718 7.826,4.043 11.405,3.339Z"
   style="fill:rgb(92,145,59);fill-rule:nonzero;"
   id="path493" />
            </g>
            <g
   id="Stem"
   transform="matrix(1.23169,6.28526,-6.39994,1.26745,217.08,-5.05983)">
                <path
   d="M15.001,16C14.697,16 14.396,15.862 14.2,15.6C13.513,14.684 12.892,13.645 12.235,12.544C9.967,8.749 7.396,4.446 0.783,2.976C0.244,2.856 -0.096,2.322 0.024,1.783C0.144,1.243 0.678,0.905 1.217,1.024C8.671,2.68 11.599,7.581 13.952,11.519C14.582,12.573 15.176,13.568 15.8,14.4C16.132,14.842 16.042,15.469 15.6,15.8C15.42,15.935 15.21,16 15.001,16Z"
   style="fill:rgb(119,178,85);fill-rule:nonzero;"
   id="path496" />
            </g>
            <g
   id="Base">
                <g
   id="Lemon"
   transform="matrix(0.931358,0.737331,-0.70992,0.963526,99.025,-88.8077)">
                    <path
   d="M127.632,51.26C127.86,51.258 128.079,51.27 128.291,51.293C131.515,51.59 134.065,53.889 138.78,57.599L139.528,58.184C144.392,61.772 162.371,69.083 179.494,87.448L179.5,87.455C195.577,104.623 205.433,127.707 205.446,153.079C205.446,153.081 189,171 189,171C189,190 156.018,232 127.5,232C98.982,232 67,191 67,171L49.746,153.13C49.746,127.737 59.604,104.634 75.692,87.455L75.698,87.448C92.822,69.083 110.8,61.772 115.664,58.184L116.412,57.599C121.127,53.889 123.677,51.59 126.901,51.293C127.114,51.269 127.333,51.258 127.56,51.26L127.596,51.26L127.632,51.26Z"
   style="fill:rgb(255,204,77);"
   id="path499" />
                </g>
                <g
   id="Shape"
   transform="matrix(0.931358,0.737331,-0.70992,0.963526,99.025,-88.8077)">
                    <path
   d="M49.785,153.128C50.289,153.103 55.53,152.872 57.716,153.793C58.668,154.194 64.838,158.205 66.3,158.193C71.086,158.153 79.908,159.52 91.595,158.551C98.175,158.006 105.377,153.445 108.68,152.142C114.829,149.717 127.596,150.004 127.596,150.004C127.596,150.004 139.96,149.721 145.942,152.145C149.155,153.447 156.616,157.799 163.158,158.343C174.778,159.308 183.119,158.146 187.902,158.185C189.364,158.197 195.812,154.185 196.792,153.783C199.151,152.817 205.414,153.078 205.446,153.079L205.446,153.13C205.446,192.951 181.202,227.142 146.714,241.68C135.449,246.429 134.107,255.091 127.599,254.999C121.119,255.06 119.762,246.42 108.518,241.68C74.029,227.142 49.785,192.95 49.785,153.13L49.785,153.128Z"
   style="fill:rgb(125,106,90);"
   id="path502" />
                </g>
            </g>
            <g
   transform="matrix(1.13833,6.30395,-6.41818,1.16534,221.153,-3.96215)"
   id="g509">
                <g
   id="Front-leaf"
   serif:id="Front leaf">
                    <path
   d="M8.208,6.583C8.208,6.583 3.938,5.993 1.351,11.182C-1.236,16.37 1.933,20.307 1.641,23.835C1.348,27.365 3.207,25.1 4.262,23.39C5.317,21.68 8.492,18.495 9.2,14.121C9.907,9.745 9.13,7.663 8.208,6.583Z"
   style="fill:rgb(119,178,85);fill-rule:nonzero;"
   id="path506" />
                </g>
            </g>
        </g>
    </g>
<path
   fill="#e95f28"
   d="m 79.224593,92.596982 -14.690204,22.612088 -28.38148,-6.93552 c -3.129596,-0.765 -6.380428,0.50144 -8.07703,3.10852 -1.704207,2.62389 -1.488164,6.04208 0.537465,8.49593 l 18.403392,22.29381 -14.690238,22.61213 c -1.731911,2.66204 -1.469942,6.14488 0.640982,8.60407 2.1111,2.45896 5.59042,3.33206 8.612615,2.16041 l 24.984017,-9.70728 18.458248,22.36641 c 2.057479,2.48977 5.506415,3.43011 8.545505,2.33646 1.121241,-0.40688 2.085098,-1.0566 2.853118,-1.87331 1.31486,-1.39821 2.042624,-3.28924 1.923237,-5.29168 l -1.763569,-29.20196 27.735639,-10.77447 c 3.00524,-1.1711 4.86725,-4.10243 4.601,-7.26653 -0.26635,-3.16408 -2.59616,-5.82673 -5.7646,-6.60279 l -28.480529,-6.96108 -1.58417,-26.312058 c -0.190396,-3.175003 -2.472435,-5.897209 -5.635936,-6.739605 -3.171483,-0.833892 -6.503129,0.431181 -8.227462,3.076455 z M 97.866058,72.773569 119.70266,56.542851 110.13952,29.59583 c -1.05475,-2.97141 -0.0433,-6.237503 2.47411,-8.111629 2.52991,-1.878704 6.04321,-1.966807 8.7283,-0.214206 l 24.39472,15.922641 21.83663,-16.230769 c 2.57457,-1.917456 6.15348,-1.970598 8.84744,-0.131447 2.69387,1.839253 3.89351,5.136574 2.95903,8.172455 l -7.74701,25.09903 24.47371,15.969553 c 2.72461,1.780361 3.98642,5.046462 3.13317,8.091977 -0.31825,1.123882 -0.89849,2.116171 -1.66651,2.932889 -1.31483,1.398203 -3.18463,2.269465 -5.24218,2.328046 l -30.00711,0.832399 -8.59826,27.863151 c -0.93536,3.01936 -3.76988,5.08235 -7.02777,5.09956 -3.25788,0.0172 -6.18293,-2.01254 -7.25237,-5.0207 l -9.59347,-27.036958 -27.03711,0.754747 c -3.262438,0.09186 -6.244208,-1.886302 -7.381042,-4.883875 -1.124801,-3.010357 -0.121819,-6.354748 2.43226,-8.25912 z"
   id="path129"
   style="clip-rule:evenodd;fill-rule:evenodd;stroke-width:5.92384;stroke-linejoin:round;stroke-miterlimit:2" /><g
   transform="matrix(0.86331534,-0.91898375,0.86167028,0.80947265,-314.60649,386.17122)"
   id="g151"
   style="clip-rule:evenodd;fill-rule:evenodd;stroke-linejoin:round;stroke-miterlimit:4;stroke-width:1.00005026;stroke-dasharray:none"><g
     id="g592"
     transform="matrix(0.99970984,-0.02569092,0.02258634,0.99970981,-35.224436,-117.2856)"
     style="stroke-width:1.00005026;stroke-miterlimit:4;stroke-dasharray:none"><g
       transform="matrix(4.6041674,0.24818286,-0.21794695,4.5990437,344.19342,187.85631)"
       id="g470"
       style="clip-rule:evenodd;fill-rule:evenodd;stroke-linejoin:round;stroke-miterlimit:4;stroke-width:0.21704936;stroke-dasharray:none;fill:#422c01;fill-opacity:1"><path
         d="m 18,21 c -3.623,0 -6.027,-0.422 -9,-1 -0.679,-0.131 -2,0 -2,2 0,4 4.595,9 11,9 6.404,0 11,-5 11,-9 0,-2 -1.321,-2.132 -2,-2 -2.973,0.578 -5.377,1 -9,1 z"
         style="fill:#422c01;fill-rule:nonzero;stroke-width:0.21704936;stroke-miterlimit:4;stroke-dasharray:none;fill-opacity:1"
         id="path468" /></g><g
       transform="matrix(4.6041674,0.24818286,-0.23368623,4.9311693,344.67117,177.77502)"
       id="g474"
       style="clip-rule:evenodd;fill-rule:evenodd;stroke-linejoin:round;stroke-miterlimit:4;stroke-width:0.20961257;stroke-dasharray:none"><path
         d="m 9,22 c 0,0 3,1 9,1 6,0 9,-1 9,-1 0,0 -2,4 -9,4 -7,0 -9,-4 -9,-4 z"
         style="fill:#ffffff;fill-rule:nonzero;stroke-width:0.20961257;stroke-miterlimit:4;stroke-dasharray:none"
         id="path472" /></g></g></g></svg>
