<?xml version="1.0" encoding="UTF-8" standalone="no"?><!DOCTYPE svg PUBLIC "-//W3C//DTD SVG 1.1//EN" "http://www.w3.org/Graphics/SVG/1.1/DTD/svg11.dtd">
<!-- Winking lemoji ;) -->
<svg height="100%" style="fill-rule:nonzero;clip-rule:evenodd;stroke-linecap:round;stroke-linejoin:round;" xmlns:xlink="http://www.w3.org/1999/xlink" xmlns="http://www.w3.org/2000/svg" xml:space="preserve" width="100%" version="1.1" viewBox="0 0 255 255">
<metadata>
</metadata>
<defs/>
<g id="layer">
<g opacity="1">
<path d="M125.93+38.0879C161.389+46.6508+164.789+64.5088+183.702+65.8704C202.615+67.232+177.042+80.7758+171.136+82.393C165.219+84.0054+118.488+88.3389+106.553+73.0412C94.6187+57.7435+106.347+33.3575+125.93+38.0879Z" fill-rule="evenodd" fill="#5c913b" opacity="1"/>
<path d="M110.301+112.608C108.777+111.922+107.603+110.517+107.258+108.698C106.042+102.336+105.457+95.4766+104.842+88.2105C102.705+63.1575+100.286+34.7523+70.6981+12.0928C68.2869+10.245+67.8816+6.6726+69.7956+4.11317C71.7119+1.54849+75.2128+0.979888+77.6264+2.8225C110.979+28.3586+113.733+60.7108+115.948+86.7067C116.542+93.665+117.099+100.232+118.203+106.011C118.792+109.082+116.815+112.172+113.792+112.911C112.561+113.214+111.349+113.08+110.301+112.608Z" fill-rule="evenodd" fill="#77b255" opacity="1"/>
<g opacity="1">
<path d="M97.1866+50.2803C97.4131+50.2094+97.6349+50.155+97.8531+50.1138C101.155+49.4336+104.392+50.9487+110.213+53.2121L111.135+53.5676C117.068+55.6646+137.193+57.4961+159.816+70.5814L159.824+70.5865C181.042+82.7978+197.856+102.776+205.558+128.008C205.558+128.01+194.606+150.81+194.606+150.81C200.364+169.708+180.236+221.463+151.828+230.093C123.42+238.722+79.1356+207.619+73.0746+187.726L50.4715+175.173C42.7762+149.916+45.5949+123.954+56.4151+101.998L56.4189+101.99C67.9116+78.5413+83.6049+65.8294+87.3629+60.7887L87.9308+59.9805C91.5033+54.8637+93.3468+51.8054+96.4684+50.5344C96.6733+50.4461+96.8882+50.3688+97.1149+50.3021L97.1507+50.2912L97.1866+50.2803Z" fill-rule="evenodd" fill="#ffcc4d" opacity="1"/>
<path d="M50.5097+175.159C51.0042+174.982+56.155+173.166+58.6118+173.421C59.6816+173.531+67.0434+175.654+68.4962+175.2C73.2517+173.712+82.454+172.402+93.8025+167.902C100.192+165.368+105.984+158.653+108.88+156.357C114.27+152.084+127.075+148.507+127.075+148.507C127.075+148.507+139.306+144.484+145.999+145.085C149.595+145.407+158.346+147.479+165.027+146.04C176.895+143.484+184.852+139.804+189.628+138.395C191.088+137.965+196.296+132.023+197.15+131.327C199.207+129.652+205.525+128.017+205.558+128.008L205.573+128.059C217.641+167.667+203.851+209.011+173.902+233.907C164.119+242.039+165.407+251.061+158.897+252.939C152.46+254.96+148.49+246.777+135.853+245.465C97.0904+241.441+62.5777+214.768+50.5103+175.161L50.5097+175.159Z" fill-rule="evenodd" fill="#7d6a5a" opacity="1"/>
</g>
<path d="M101.211+45.8002C101.211+45.8002+81.4303+32.7501+55.4978+53.7599C29.5678+74.7645+35.4482+102.692+25.1217+120.403C14.7852+138.122+29.739+130.656+39.2931+124.206C48.8473+117.755+72.6682+108.566+87.1939+87.4165C101.72+66.2538+103.086+53.5844+101.211+45.8002Z" fill-rule="evenodd" fill="#77b255" opacity="1"/>
<path d="M114.625+194.297C123.741+199.336+133.454+198.744+142.33+196.171C168.117+188.695+166.748+163.672+166.992+162.344C167.363+160.302+166.471+158.312+164.817+157.539C163.973+157.15+163.025+157.131+162.153+157.415C161.329+157.685+159.987+159.029+159.987+159.029C159.987+159.029+154.23+168.533+135.008+174.803C115.668+181.11+105.803+176.221+105.684+176.176C104.006+175.495+102+176.206+100.85+177.893C99.6987+179.581+99.6483+181.832+100.732+183.39C101.175+184.026+107.621+190.425+114.625+194.297Z" opacity="1" fill="#422c01"/>
<path d="M109.926+180.45C109.926+180.45+120.569+182.646+136.639+177.665C152.349+172.797+157.891+165.276+157.891+165.276C157.891+165.276+157.891+178.826+138.358+184.446C119.494+189.874+109.926+180.45+109.926+180.45Z" fill-rule="evenodd" fill="#ffffff" opacity="1"/>
<path d="M88.2207+124.158C82.4391+124.061+77.787+129.029+77.3388+136.375C76.8266+144.77+82.0115+153.069+88.914+154.904C95.8164+156.74+101.817+151.427+102.329+143.032C102.841+134.637+97.6855+126.342+90.7831+124.506C89.9203+124.277+89.0467+124.172+88.2207+124.158Z" opacity="1" fill="#664500"/>
<path d="M171.746+98.2924C153.918+92.7238+141.148+98.3815+140.54+98.6597C138.453+99.6138+137.736+102.04+138.946+104.077C140.155+106.111+142.828+107+144.915+106.055C145.505+105.794+158.591+100.194+176.258+108.607C177.573+109.235+178.997+109.241+180.146+108.715C180.932+108.355+181.599+107.75+181.983+106.941C182.927+104.955+181.879+102.488+179.659+101.428C176.925+100.126+174.293+99.0879+171.746+98.2924Z" opacity="1" fill="#664500"/>
<path d="M76.3658+104.563C62.2526+116.783+60.364+130.604+60.2814+131.266C59.9983+133.54+61.6887+135.424+64.061+135.466C66.4289+135.508+68.5912+133.704+68.882+131.435C68.9704+130.797+71.0742+116.737+87.5264+106.148C88.7524+105.361+89.5056+104.154+89.6615+102.902C89.7682+102.045+89.6023+101.161+89.1147+100.41C87.9189+98.5639+85.2653+98.1586+83.196+99.4883C80.6503+101.126+78.382+102.817+76.3658+104.563Z" opacity="1" fill="#664500"/>
<path d="M167.882+113.853C164.134+112.571+158.315+112.622+153.518+113.852C140.72+117.135+138.508+129.674+138.392+130.338C138.215+131.359+138.734+132.384+139.656+132.814C140.126+133.031+140.648+133.064+141.124+132.942C141.574+132.826+141.984+132.57+142.294+132.181C142.394+132.061+146.844+126.781+157.339+124.089C167.9+121.38+174.266+123.942+174.332+123.968C175.265+124.352+176.36+124.043+176.97+123.22C177.58+122.397+177.577+121.263+176.958+120.451C176.706+120.119+173.663+115.831+167.882+113.853Z" opacity="1" fill="#664500"/>
</g>
</g>
</svg>
