<?xml version="1.0" encoding="UTF-8" standalone="no"?>
<!DOCTYPE svg PUBLIC "-//W3C//DTD SVG 1.1//EN" "http://www.w3.org/Graphics/SVG/1.1/DTD/svg11.dtd">
<svg width="100%" height="100%" viewBox="0 0 255 255" version="1.1" xmlns="http://www.w3.org/2000/svg" xmlns:xlink="http://www.w3.org/1999/xlink" xml:space="preserve" xmlns:serif="http://www.serif.com/" style="fill-rule:evenodd;clip-rule:evenodd;stroke-linecap:round;">
    <g transform="matrix(1,0,0,1,-853.333,-3.33333)">
        <g id="lemoncette">
        </g>
        <g id="lemon_final_v2" transform="matrix(1.00131,0,0,0.998694,574.314,2.33898)">
            <rect x="278.655" y="0.996" width="254.667" height="255.333" style="fill:none;"/>
            <clipPath id="_clip1">
                <rect x="278.655" y="0.996" width="254.667" height="255.333"/>
            </clipPath>
            <g clip-path="url(#_clip1)">
                <g id="path2582-9" transform="matrix(0.957799,0.150857,-0.150463,0.960306,440.091,-833.681)">
                    <path d="M175.745,1025.31C172.721,1025.94 171.511,1030.33 164.845,1035.85C157.402,1042.14 148.328,1039.61 132.507,1043.63C121.116,1046.53 114.928,1052.8 109.336,1068.51C103.948,1086.65 112.465,1104.17 119.5,1107.78C126.535,1111.4 145.272,1117.37 152.103,1119.82C158.935,1122.27 172.077,1123.5 182.487,1106.46C186.387,1100.08 188.9,1095.5 190.577,1088.42C201.531,1090.22 215.983,1093.9 228.062,1096.22C238.149,1098.53 245.59,1099.09 246.593,1093.46C249.78,1083.91 244.556,1082.15 232.221,1079.18C221.688,1077 205.295,1072.44 201.207,1071C190.405,1067.68 188.596,1066.67 182.466,1064.61C177.495,1063 166.773,1059.37 166.57,1058.09C166.367,1056.8 173.957,1051.21 179.317,1043.32C184.361,1035.9 181.065,1024.9 177.175,1025.28C176.648,1025.21 176.177,1025.22 175.745,1025.31L175.745,1025.31Z" style="fill:rgb(255,182,56);fill-rule:nonzero;"/>
                </g>
                <g transform="matrix(0.984569,-0.0782204,0.0752636,0.952318,287.265,18.6031)">
                    <g transform="matrix(0.149271,0.896737,-0.912882,0.151959,225.357,-3.03644)">
                        <g transform="matrix(7.04762,0,0,7.04762,0.500558,1.45139)">
                            <path d="M11.405,3.339C17.885,2.064 19.858,4.604 23.06,3.423C26.262,2.242 23.153,6.243 22.315,6.931C21.475,7.619 14.174,11.74 11.008,10.229C7.842,8.718 7.826,4.043 11.405,3.339Z" style="fill:rgb(92,145,59);fill-rule:nonzero;"/>
                        </g>
                        <g transform="matrix(7.04762,0,0,7.04762,0.500558,1.45139)">
                            <path d="M15.001,16C14.697,16 14.396,15.862 14.2,15.6C13.513,14.684 12.892,13.645 12.235,12.544C9.967,8.749 7.396,4.446 0.783,2.976C0.244,2.856 -0.096,2.322 0.024,1.783C0.144,1.243 0.678,0.905 1.217,1.024C8.671,2.68 11.599,7.581 13.952,11.519C14.582,12.573 15.176,13.568 15.8,14.4C16.132,14.842 16.042,15.469 15.6,15.8C15.42,15.935 15.21,16 15.001,16Z" style="fill:rgb(119,178,85);fill-rule:nonzero;"/>
                        </g>
                        <g transform="matrix(7.04762,0,0,7.04762,0.500558,1.45139)">
                            <path d="M34.3,31.534C34.302,31.517 34.297,31.506 34.297,31.491C37.071,26.156 36.944,16.378 30.951,10.384C25.15,4.584 17.271,4.563 12.184,6.317C10.605,6.931 9.267,6.383 8.369,7.282C7.488,8.163 8.018,10.001 7.655,11.101C4.486,16.303 4.25,24.126 10.343,30.218C15.305,35.18 20.781,37.06 30.323,35.071C30.325,35.069 30.328,35.07 30.331,35.069C31.479,34.851 33.281,35.592 33.897,34.975C34.982,33.89 34.206,32.617 34.3,31.534Z" style="fill:rgb(255,204,77);fill-rule:nonzero;"/>
                        </g>
                        <g transform="matrix(7.04762,0,0,7.04762,0.500558,1.45139)">
                            <path d="M8.208,6.583C8.208,6.583 3.938,5.993 1.351,11.182C-1.236,16.37 1.933,20.307 1.641,23.835C1.348,27.365 3.207,25.1 4.262,23.39C5.317,21.68 8.492,18.495 9.2,14.121C9.907,9.745 9.13,7.663 8.208,6.583Z" style="fill:rgb(119,178,85);fill-rule:nonzero;"/>
                        </g>
                    </g>
                    <g transform="matrix(0.825348,0.653224,-0.653224,0.825348,94.7371,-41.1212)">
                        <path d="M127.565,132.475L127.565,132.425C127.565,132.425 141.578,132.155 148.424,134.911C152.101,136.391 160.692,141.337 168.096,141.956C181.248,143.055 190.616,141.736 196.016,141.781C197.666,141.794 204.786,137.236 205.876,136.78C208.507,135.679 215.615,135.981 215.615,135.981C215.615,135.981 214.282,169.983 193.065,197.211C173.627,222.157 156.37,231.865 142.937,237.483C140.844,238.359 136.4,247.933 132.515,249.883C130.256,251.017 129.199,251.609 126.834,251.785C125.086,251.915 123.775,251.046 121.968,249.701C119.356,247.757 114.925,241.523 113.177,240.081C102.198,231.021 86.769,227.944 61.165,197.761C40.892,173.862 40.234,136.075 40.234,136.075C40.234,136.075 46.624,135.729 49.255,136.83C50.345,137.286 57.465,141.844 59.115,141.831C64.515,141.786 74.524,143.341 87.676,142.242C95.08,141.623 103.03,136.441 106.706,134.961C113.55,132.206 127.554,132.475 127.565,132.475Z" style="fill:rgb(125,106,90);"/>
                    </g>
                </g>
                <g transform="matrix(5.08346,3.28966,-3.28107,5.09676,378.443,3.15986)">
                    <ellipse cx="12" cy="13.5" rx="2.5" ry="3.5" style="fill:rgb(102,69,0);"/>
                </g>
                <g transform="matrix(5.08346,3.28966,-3.28107,5.09676,379.459,3.81694)">
                    <ellipse cx="24" cy="13.5" rx="2.5" ry="3.5" style="fill:rgb(102,69,0);"/>
                </g>
                <g transform="matrix(4.21558,2.72803,-2.72091,4.22662,387.101,25.0295)">
                    <path d="M1.24,11.018C1.48,11.257 2.678,11.975 2.917,12.693C3.157,13.41 3.637,17.477 5.075,18.674C6.558,19.906 12.152,19.448 13.223,18.914C15.62,17.719 15.914,14.383 16.338,12.693C16.577,11.736 18.015,11.736 18.015,11.736C18.015,11.736 19.453,11.736 19.693,12.692C20.117,14.383 20.413,17.719 22.808,18.913C23.88,19.448 29.474,19.907 30.959,18.675C32.395,17.478 32.874,13.411 33.114,12.693C33.352,11.976 34.552,11.258 34.791,11.019C35.032,10.78 35.032,9.823 34.791,9.583C34.312,9.105 28.657,8.679 22.568,9.344C21.353,9.477 20.891,9.822 18.014,9.822C15.139,9.822 14.675,9.476 13.461,9.344C7.376,8.678 1.72,9.104 1.24,9.582C1.001,9.821 1.001,10.779 1.24,11.018Z" style="fill:rgb(41,47,51);"/>
                </g>
                <g transform="matrix(-0.908666,-0.587644,-0.449036,0.697977,1038.79,404.957)">
                    <g id="path920" transform="matrix(0.502358,0.776829,-0.595151,0.65571,1148.68,-648.053)">
                        <path d="M154.549,1081.81C153.982,1076.99 172.363,1066.48 181.535,1057.52C186.073,1053.08 192.231,1046.17 196.858,1038.48C201.581,1030.63 204.731,1022 205.19,1019.17C206.098,1013.57 209.25,1004.05 213.682,1012.43C218.114,1020.81 223.613,1045.43 220.083,1057.94C216.553,1070.45 201.04,1091.03 179.477,1091.8C157.914,1092.57 154.549,1081.81 154.549,1081.81Z" style="fill:rgb(66,44,1);fill-rule:nonzero;"/>
                    </g>
                    <g id="path962" transform="matrix(0.502358,0.776829,-0.595151,0.65571,1148.52,-649.166)">
                        <path d="M160.313,1080.94C160.313,1080.94 180.51,1067.04 191.418,1054.03C204.85,1038.01 211.703,1016.35 211.703,1016.35L214.673,1029.85C214.673,1029.85 211.456,1047.58 198.344,1062.71C182.456,1081.05 168.547,1086.04 168.547,1086.04C168.547,1086.04 166.71,1086.57 163.548,1084.33C162.173,1083.35 160.313,1080.94 160.313,1080.94Z" style="fill:white;fill-rule:nonzero;"/>
                    </g>
                </g>
                <g id="path922" transform="matrix(-0.452087,0.161358,0.151796,0.427526,306.898,-323.278)">
                    <path d="M213.606,997.04C213.606,997.04 226.563,992.036 233.419,999.307C240.275,1006.58 237.323,1018.2 237.323,1018.2C237.323,1018.2 233.855,1008.26 228.647,1002.37C223.439,996.471 213.606,997.039 213.606,997.039L213.606,997.04Z" style="fill:rgb(66,44,1);fill-rule:nonzero;"/>
                </g>
                <g id="path2582" transform="matrix(0.957799,0.150857,-0.150463,0.960306,428.703,-850.945)">
                    <path d="M70.015,1025.42C66.991,1026.05 65.782,1030.43 59.115,1035.96C51.672,1042.24 42.598,1039.71 26.777,1043.74C15.387,1046.63 9.199,1052.91 3.606,1068.62C-1.782,1086.76 6.735,1104.27 13.77,1107.89C20.805,1111.5 39.542,1117.47 46.374,1119.92C53.205,1122.37 66.348,1123.6 76.757,1106.57C80.658,1100.19 83.171,1095.61 84.848,1088.52C95.801,1090.32 110.254,1094 122.333,1096.33C132.419,1098.63 139.86,1099.2 140.864,1093.57C144.051,1084.02 138.826,1082.25 126.491,1079.29C115.958,1077.11 99.565,1072.55 95.477,1071.1C84.676,1067.79 82.866,1066.78 76.736,1064.72C71.765,1063.1 61.044,1059.48 60.841,1058.19C60.637,1056.91 68.228,1051.31 73.588,1043.43C78.631,1036.01 75.336,1025.01 71.446,1025.38C70.918,1025.31 70.447,1025.33 70.015,1025.42L70.015,1025.42Z" style="fill:rgb(255,182,56);fill-rule:nonzero;"/>
                </g>
                <g id="path903" transform="matrix(-0.277651,-0.516948,0.515598,-0.278378,56.8466,434.367)">
                    <path d="M139.661,864.872C139.661,864.872 125.66,889.464 114.262,895.57C102.865,901.675 75.105,898.457 75.105,898.457" style="fill:none;fill-rule:nonzero;stroke:rgb(104,70,1);stroke-width:5.57px;"/>
                </g>
                <g id="path903-5" transform="matrix(-0.134807,0.571368,-0.569876,-0.13516,973.219,202.691)">
                    <path d="M16.399,1019.7C16.399,1019.7 22.848,992.628 26.35,983.149C29.824,973.744 44.056,948.886 44.056,948.886" style="fill:none;fill-rule:nonzero;stroke:rgb(104,70,1);stroke-width:5.57px;"/>
                </g>
            </g>
        </g>
    </g>
</svg>
