<?xml version="1.0" encoding="UTF-8" standalone="no"?>
<svg
   xmlns:serif="http://www.serif.com/"
   xmlns:dc="http://purl.org/dc/elements/1.1/"
   xmlns:cc="http://creativecommons.org/ns#"
   xmlns:rdf="http://www.w3.org/1999/02/22-rdf-syntax-ns#"
   xmlns:svg="http://www.w3.org/2000/svg"
   xmlns="http://www.w3.org/2000/svg"
   xmlns:sodipodi="http://sodipodi.sourceforge.net/DTD/sodipodi-0.dtd"
   xmlns:inkscape="http://www.inkscape.org/namespaces/inkscape"
   inkscape:export-ydpi="96"
   inkscape:export-xdpi="96"
   inkscape:export-filename="/home/akarys/Projects/PyDis/branding/emotes/lemoji/dist/lemon_raised_eyebrow.png"
   sodipodi:docname="lemon_raised_eyebrow.svg"
   inkscape:version="1.0 (4035a4fb49, 2020-05-01)"
   id="svg8"
   version="1.1"
   viewBox="0 0 67.733332 67.733332"
   height="256"
   width="256">
  <defs
     id="defs2" />
  <sodipodi:namedview
     inkscape:guide-bbox="true"
     showguides="true"
     inkscape:document-rotation="0"
     borderlayer="true"
     units="px"
     inkscape:pagecheckerboard="true"
     inkscape:window-maximized="1"
     inkscape:window-y="0"
     inkscape:window-x="0"
     inkscape:window-height="1006"
     inkscape:window-width="1920"
     showgrid="false"
     inkscape:current-layer="layer1"
     inkscape:document-units="px"
     inkscape:cy="127.109"
     inkscape:cx="127.7953"
     inkscape:zoom="2.8"
     inkscape:pageshadow="2"
     inkscape:pageopacity="0.0"
     borderopacity="1.0"
     bordercolor="#666666"
     pagecolor="#ffffff"
     id="base">
    <sodipodi:guide
       id="guide87"
       orientation="0.70710678,-0.70710678"
       position="63.329351,67.52396" />
  </sodipodi:namedview>
  <metadata
     id="metadata5">
    <rdf:RDF>
      <cc:Work
         rdf:about="">
        <dc:format>image/svg+xml</dc:format>
        <dc:type
           rdf:resource="http://purl.org/dc/dcmitype/StillImage" />
        <dc:title />
      </cc:Work>
    </rdf:RDF>
  </metadata>
  <g
     transform="translate(0,-229.26668)"
     style="display:inline"
     id="layer1"
     inkscape:groupmode="layer"
     inkscape:label="lemoncette">
    <g
       transform="matrix(-0.27413555,0.06036008,0.06036008,0.27413555,62.940286,219.80448)"
       style="clip-rule:evenodd;fill-rule:evenodd;stroke-linejoin:round;stroke-miterlimit:2"
       id="Artboard11"
       serif:id="Artboard1">
      <g
         id="tilted"
         transform="matrix(0.143973,-1.0826,1.04467,0.140946,-26.7611,237.17)">
        <g
           id="Back-leaf"
           serif:id="Back leaf"
           transform="matrix(1.12567,6.30636,-6.42053,1.1515,220.143,-2.15814)">
          <path
             d="m 11.405,3.339 c 6.48,-1.275 8.453,1.265 11.655,0.084 3.202,-1.181 0.093,2.82 -0.745,3.508 -0.84,0.688 -8.141,4.809 -11.307,3.298 C 7.842,8.718 7.826,4.043 11.405,3.339 Z"
             style="fill:#5c913b;fill-rule:nonzero"
             id="path3" />
        </g>
        <g
           id="Stem"
           transform="matrix(1.23169,6.28526,-6.39994,1.26745,217.08,-5.05983)">
          <path
             d="M 15.001,16 C 14.697,16 14.396,15.862 14.2,15.6 13.513,14.684 12.892,13.645 12.235,12.544 9.967,8.749 7.396,4.446 0.783,2.976 0.244,2.856 -0.096,2.322 0.024,1.783 0.144,1.243 0.678,0.905 1.217,1.024 8.671,2.68 11.599,7.581 13.952,11.519 c 0.63,1.054 1.224,2.049 1.848,2.881 0.332,0.442 0.242,1.069 -0.2,1.4 -0.18,0.135 -0.39,0.2 -0.599,0.2 z"
             style="fill:#77b255;fill-rule:nonzero"
             id="path6" />
        </g>
        <g
           id="Base">
          <g
             id="Lemon"
             transform="matrix(0.931358,0.737331,-0.70992,0.963526,99.025,-88.8077)">
            <path
               d="m 127.632,51.26 c 0.228,-0.002 0.447,0.01 0.659,0.033 3.224,0.297 5.774,2.596 10.489,6.306 l 0.748,0.585 c 4.864,3.588 22.843,10.899 39.966,29.264 l 0.006,0.007 c 16.077,17.168 25.933,40.252 25.946,65.624 C 205.446,153.081 189,171 189,171 c 0,19 -32.982,61 -61.5,61 C 98.982,232 67,191 67,171 L 49.746,153.13 c 0,-25.393 9.858,-48.496 25.946,-65.675 l 0.006,-0.007 C 92.822,69.083 110.8,61.772 115.664,58.184 l 0.748,-0.585 c 4.715,-3.71 7.265,-6.009 10.489,-6.306 0.213,-0.024 0.432,-0.035 0.659,-0.033 h 0.036 z"
               style="fill:#ffcc4d"
               id="path9" />
          </g>
          <g
             id="Shape"
             transform="matrix(0.931358,0.737331,-0.70992,0.963526,99.025,-88.8077)">
            <path
               d="m 49.785,153.128 c 0.504,-0.025 5.745,-0.256 7.931,0.665 0.952,0.401 7.122,4.412 8.584,4.4 4.786,-0.04 13.608,1.327 25.295,0.358 6.58,-0.545 13.782,-5.106 17.085,-6.409 6.149,-2.425 18.916,-2.138 18.916,-2.138 0,0 12.364,-0.283 18.346,2.141 3.213,1.302 10.674,5.654 17.216,6.198 11.62,0.965 19.961,-0.197 24.744,-0.158 1.462,0.012 7.91,-4 8.89,-4.402 2.359,-0.966 8.622,-0.705 8.654,-0.704 v 0.051 c 0,39.821 -24.244,74.012 -58.732,88.55 -11.265,4.749 -12.607,13.411 -19.115,13.319 -6.48,0.061 -7.837,-8.579 -19.081,-13.319 C 74.029,227.142 49.785,192.95 49.785,153.13 Z"
               style="fill:#7d6a5a"
               id="path12" />
          </g>
        </g>
        <g
           transform="matrix(1.13833,6.30395,-6.41818,1.16534,221.153,-3.96215)"
           id="g19">
          <g
             id="Front-leaf"
             serif:id="Front leaf">
            <path
               d="m 8.208,6.583 c 0,0 -4.27,-0.59 -6.857,4.599 -2.587,5.188 0.582,9.125 0.29,12.653 C 1.348,27.365 3.207,25.1 4.262,23.39 5.317,21.68 8.492,18.495 9.2,14.121 9.907,9.745 9.13,7.663 8.208,6.583 Z"
               style="fill:#77b255;fill-rule:nonzero"
               id="path16" />
          </g>
        </g>
      </g>
    </g>
    <ellipse
       inkscape:label="leye"
       transform="matrix(-0.86111092,-0.50841714,-0.50841714,0.86111092,0,0)"
       ry="5.7205558"
       rx="4.5925584"
       cy="208.47566"
       cx="-172.39633"
       id="path4607"
       style="display:inline;opacity:1;fill:#684601;fill-opacity:1;stroke:none;stroke-width:0.574442;stroke-miterlimit:4;stroke-dasharray:1.14888, 0.574442;stroke-dashoffset:0;stroke-opacity:0.949074;paint-order:normal" />
    <ellipse
       inkscape:label="reye"
       transform="matrix(-0.86111092,-0.50841714,-0.50841714,0.86111092,0,0)"
       ry="5.7205558"
       rx="4.5925584"
       cy="207.89548"
       cx="-149.60927"
       id="path4607-3"
       style="display:inline;opacity:1;fill:#684601;fill-opacity:1;stroke:none;stroke-width:0.574442;stroke-miterlimit:4;stroke-dasharray:1.14888, 0.574442;stroke-dashoffset:0;stroke-opacity:0.949074;paint-order:normal" />
    <path
       inkscape:label="teeth"
       sodipodi:nodetypes="ccc"
       inkscape:connector-curvature="0"
       id="path4638"
       d="m 49.368976,274.76835 c 4.847793,-5.8104 4.633021,-9.99932 -2.473907,-2.31459 -5.878862,6.74318 -2.383412,7.47135 2.473907,2.31459 z"
       style="display:none;fill:#ffffff;stroke:none;stroke-width:0.0731244px;stroke-linecap:butt;stroke-linejoin:miter;stroke-opacity:1" />
    <path
       id="path1090"
       d="m 19.530855,244.55751 c 0.595929,0.19732 1.284045,0.13803 1.878783,-0.21795 3.349866,-2.01364 7.33211,-2.39746 8.975768,-1.85314 1.039647,0.34431 3.654067,1.97579 4.344312,3.37617 0.502883,1.02621 1.515598,1.44629 2.598718,0.92481 1.085826,-0.52304 1.455887,-1.55613 0.957481,-2.57901 -0.396436,-0.80899 -2.91422,-3.56884 -6.008824,-4.59363 -3.246828,-1.07519 -7.969695,-0.63008 -12.128188,1.86841 -1.034336,0.62068 -1.222996,2.10706 -0.61805,3.07434 0.258943,0.41536 -0.441102,-0.14348 -5.65e-4,0.002 z"
       style="display:inline;fill:#684601;fill-opacity:1;stroke-width:1.69945" />
    <path
       id="path1036"
       d="m 53.445287,263.32741 c -0.507956,0.0883 -1.038371,-0.035 -1.422789,-0.37494 -5.178143,-4.57103 -10.893935,-3.70288 -11.135013,-3.66366 -0.917379,0.14889 -1.757196,-0.40325 -1.87488,-1.23683 -0.117604,-0.83368 0.524803,-1.63554 1.440309,-1.79411 0.30574,-0.0532 7.568722,-1.23143 13.96785,4.41653 0.650625,0.57405 0.64003,1.54905 -0.02361,2.17671 -0.267909,0.25684 -0.604559,0.41505 -0.951972,0.47646 z"
       style="display:inline;fill:#684601;fill-opacity:1;stroke-width:1.60812" />
    <rect
       transform="rotate(30.31181)"
       ry="2.116714"
       y="223.26689"
       x="148.87112"
       height="4.233428"
       width="22.057602"
       id="rect85"
       style="fill:#422c01;fill-opacity:1;stroke-width:0.24578" />
  </g>
</svg>
