<?xml version="1.0" encoding="UTF-8" standalone="no"?>
<!DOCTYPE svg PUBLIC "-//W3C//DTD SVG 1.1//EN" "http://www.w3.org/Graphics/SVG/1.1/DTD/svg11.dtd">
<svg width="100%" height="100%" viewBox="0 0 274 270" version="1.1" xmlns="http://www.w3.org/2000/svg" xmlns:xlink="http://www.w3.org/1999/xlink" xml:space="preserve" xmlns:serif="http://www.serif.com/" style="fill-rule:evenodd;clip-rule:evenodd;stroke-linejoin:round;stroke-miterlimit:2;">
    <g transform="matrix(1,0,0,1,-609.942,-277.133)">
        <g transform="matrix(1,0,0,1,509.827,0)">
            <g transform="matrix(1.11022e-16,1.18553,-1.18553,1.11022e-16,1424.8,244.371)">
                <g id="back" transform="matrix(1.86495,0,0,1.86494,0.937115,864.587)">
                    <path id="beard" d="M113.197,35.695C113.06,35.904 112.912,36.098 112.829,36.188C112.167,36.91 111.777,41.203 112.189,45.344C112.601,49.486 111.669,51.953 105.724,58.683C101.857,62.874 102.812,60.663 94.524,64.141C90.108,67.625 91.025,67.718 83.326,76.605C75.589,85.637 74.438,85.467 72.871,92.125C71.695,97.118 69.543,100.59 62.596,108.173C55.648,115.756 53.362,116.318 49.582,117.061C46.992,117.151 46.409,118.923 45.362,120.04C62.572,134.401 82.561,139.286 114.642,132.598C114.649,132.591 114.661,132.595 114.672,132.591C119.011,131.767 125.788,134.534 128.116,132.202C132.217,128.101 129.317,123.324 129.673,119.23C129.68,119.166 129.661,119.124 129.661,119.068C138.694,101.696 139.589,71.808 125.178,49.378C122.862,45.774 120.151,42.362 117.015,39.225C115.767,37.978 114.493,36.804 113.197,35.695L113.197,35.695Z" style="fill:rgb(255,203,76);fill-rule:nonzero;"/>
                    <clipPath id="_clip1">
                        <path id="beard1" serif:id="beard" d="M113.197,35.695C113.06,35.904 112.912,36.098 112.829,36.188C112.167,36.91 111.777,41.203 112.189,45.344C112.601,49.486 111.669,51.953 105.724,58.683C101.857,62.874 102.812,60.663 94.524,64.141C90.108,67.625 91.025,67.718 83.326,76.605C75.589,85.637 74.438,85.467 72.871,92.125C71.695,97.118 69.543,100.59 62.596,108.173C55.648,115.756 53.362,116.318 49.582,117.061C46.992,117.151 46.409,118.923 45.362,120.04C62.572,134.401 82.561,139.286 114.642,132.598C114.649,132.591 114.661,132.595 114.672,132.591C119.011,131.767 125.788,134.534 128.116,132.202C132.217,128.101 129.317,123.324 129.673,119.23C129.68,119.166 129.661,119.124 129.661,119.068C138.694,101.696 139.589,71.808 125.178,49.378C122.862,45.774 120.151,42.362 117.015,39.225C115.767,37.978 114.493,36.804 113.197,35.695L113.197,35.695Z" clip-rule="nonzero"/>
                    </clipPath>
                    <g clip-path="url(#_clip1)">
                        <g transform="matrix(0.438341,-0.448701,0.429547,0.450031,-24.2313,85.279)">
                            <path d="M127.565,132.475L127.565,132.425C127.565,132.425 141.578,132.155 148.424,134.911C152.101,136.391 160.692,141.337 168.096,141.956C181.248,143.055 190.616,141.736 196.016,141.781C197.666,141.794 204.786,137.236 205.876,136.78C208.507,135.679 215.615,135.981 215.615,135.981C215.615,135.981 214.282,169.983 193.065,197.211C173.627,222.157 156.37,231.865 142.937,237.483C140.844,238.359 136.4,247.933 132.515,249.883C130.256,251.017 129.199,251.609 126.834,251.785C125.086,251.915 123.775,251.046 121.968,249.701C119.356,247.757 114.925,241.523 113.177,240.081C102.198,231.021 86.769,227.944 61.165,197.761C40.892,173.862 40.234,136.075 40.234,136.075C40.234,136.075 46.624,135.729 49.255,136.83C50.345,137.286 57.465,141.844 59.115,141.831C64.515,141.786 74.524,143.341 87.676,142.242C95.08,141.623 103.03,136.441 106.706,134.961C113.55,132.206 127.554,132.475 127.565,132.475Z" style="fill:rgb(125,106,90);"/>
                        </g>
                    </g>
                </g>
                <g id="skin" transform="matrix(0,-0.843502,0.843502,0,-190.49,1119.92)">
                    <path d="M54.152,309.746C54.671,309.17 55.208,308.589 55.625,308.173C74.388,289.409 104.797,289.403 123.558,308.164C131.794,316.4 137.407,337.651 137.407,337.651L209.14,395.695C209.14,395.695 220.764,401.601 225.603,406.441C242.71,423.548 244.209,450.349 230.104,469.166C230.104,469.166 229.892,469.428 229.551,469.844L229.551,469.844C227.829,472.104 225.487,475.232 223.787,477.218C221.841,479.291 218.836,480.611 218.653,480.443C217.056,478.98 207.569,478.118 198.412,479.029C189.256,479.941 183.799,477.881 168.918,464.737C159.653,456.186 164.541,458.3 156.851,439.976C149.149,430.212 148.943,432.238 129.295,415.215C109.327,398.108 109.7,395.565 94.979,392.1C83.941,389.501 76.266,384.744 59.5,369.383C42.735,354.022 41.491,348.966 39.848,340.607C38.195,335.212 34.575,332.499 37.4,327.312C41.341,322.589 45.771,317.955 50.35,313.377L54.152,309.745L54.152,309.746Z" style="fill:rgb(255,204,77);fill-rule:nonzero;"/>
                </g>
                <g transform="matrix(4.93308,-4.93308,4.93308,4.93308,-4185.76,109.261)">
                    <g transform="matrix(0.78404,-0.00138532,0.00138532,0.78404,74.7523,116.222)">
                        <g transform="matrix(1,0,0,1,329.562,507.739)">
                            <path d="M30.126,13.751C29.185,13.507 29.117,14.137 27.924,13.997C26.756,13.86 28.353,13.258 27.729,12.905C27.519,12.786 27.218,12.761 26.847,12.807C25.795,12.936 9.893,13.351 9.3,13.637C8.773,13.891 8.461,14.185 7.982,13.738C7.379,13.176 6.516,13.5 6.266,13.687C5.944,13.929 5.877,14.409 6.5,14.964C7.121,15.384 8.173,15.823 9.965,16.123C10.162,16.156 10.33,16.169 10.487,16.175C11.714,16.216 11.884,14.505 13.617,14.459C14.753,14.429 24.77,15.529 25.595,15.417C25.696,15.403 25.802,15.393 25.924,15.393C27.487,15.393 27.85,16.843 29.513,15.709C30.218,15.136 31.324,14.061 30.126,13.751Z" style="fill:rgb(241,144,32);fill-rule:nonzero;"/>
                        </g>
                        <g transform="matrix(1,0,0,1,329.562,507.739)">
                            <path d="M5.938,9.115C7.461,10.642 8.542,12.26 9.3,13.638C9.866,14.667 10.256,15.567 10.487,16.176C11.714,16.217 11.884,15.506 13.617,15.46C14.753,15.43 15.4,16.229 16.24,16.689C17.742,17.511 18.809,15.959 19.959,15.959C20.809,15.959 22.178,17.166 23.135,16.723C24.522,16.08 24.77,15.532 25.595,15.419C25.917,14.628 26.336,13.723 26.847,12.81C27.587,11.486 28.525,10.145 29.688,9.117L5.938,9.117L5.938,9.115Z" style="fill:rgb(243,108,36);fill-rule:nonzero;"/>
                        </g>
                        <g transform="matrix(1,0,0,1,330.063,507.535)">
                            <path d="M29.306,9.435C30.587,8.172 6.267,9.451 6.965,10.223C7.953,11.317 9.165,13.376 9.165,13.376C9.165,13.376 13.922,15.781 17.516,12.75C20.016,14.25 23.516,13.719 25.078,11.141C25.078,11.141 26.295,11.594 27.529,11.672C27.529,11.672 28.482,10.247 29.306,9.435Z" style="fill:rgb(206,92,31);fill-rule:nonzero;"/>
                        </g>
                        <g transform="matrix(1,0,0,1,329.562,507.739)">
                            <path d="M31.125,3.725C30.885,3.725 30.658,3.77 30.439,3.834C29.751,2.989 28.716,2.438 27.541,2.438C27.454,2.438 27.372,2.458 27.286,2.464C26.552,1.637 25.492,1.105 24.299,1.105C22.794,1.105 21.499,1.944 20.813,3.171C20.467,2.373 19.674,1.814 18.749,1.814C18.031,1.814 17.4,2.156 16.988,2.679C16.48,1.209 15.1,0.147 13.458,0.147C12.135,0.147 10.978,0.836 10.31,1.87C10.126,1.841 9.942,1.812 9.75,1.812C8.318,1.812 7.089,2.624 6.457,3.804C6.254,3.766 6.047,3.741 5.833,3.741C3.969,3.741 2.458,5.252 2.458,7.116C2.458,8.98 3.969,10.491 5.833,10.491C6.421,10.491 6.968,10.332 7.447,10.066C7.823,10.348 8.285,10.522 8.792,10.522C8.937,10.522 9.077,10.506 9.214,10.479C10.069,11.858 11.581,12.782 13.323,12.782C15.032,12.782 16.529,11.897 17.396,10.565C18.116,11.447 19.198,12.022 20.425,12.022C22.24,12.022 23.752,10.784 24.201,9.111C24.235,9.112 24.266,9.121 24.3,9.121C24.583,9.121 24.859,9.09 25.126,9.034C25.78,9.59 26.617,9.938 27.543,9.938C28.717,9.938 29.753,9.387 30.44,8.542C30.659,8.606 30.886,8.651 31.126,8.651C32.486,8.651 33.589,7.548 33.589,6.188C33.589,4.828 32.485,3.725 31.125,3.725Z" style="fill:rgb(204,214,221);fill-rule:nonzero;"/>
                        </g>
                        <g transform="matrix(1,0,0,1,330.063,507.535)">
                            <circle cx="27.795" cy="5.767" r="2.121" style="fill:rgb(225,232,237);"/>
                        </g>
                        <g transform="matrix(1,0,0,1,330.063,507.535)">
                            <path d="M19.876,5.903C19.876,4.71 18.909,3.742 17.716,3.742C17.348,3.742 17.006,3.843 16.703,4.005C16.452,3.404 15.859,2.981 15.166,2.981C14.599,2.981 14.099,3.266 13.798,3.699C13.128,3.076 12.237,2.686 11.25,2.686C9.495,2.686 8.034,3.896 7.625,5.524C7.26,5.157 6.755,4.929 6.196,4.929C5.085,4.929 4.184,5.83 4.184,6.941C4.184,8.052 5.085,8.953 6.196,8.953C6.899,8.953 7.515,8.592 7.875,8.046C8.392,9.127 9.404,9.919 10.624,10.125C11.014,10.795 11.731,11.25 12.562,11.25C13.636,11.25 14.531,10.496 14.755,9.49C15.079,9.67 15.446,9.782 15.842,9.782C16.912,9.782 17.804,9.033 18.032,8.032C19.074,7.877 19.876,6.988 19.876,5.903Z" style="fill:rgb(225,232,237);fill-rule:nonzero;"/>
                        </g>
                    </g>
                    <g transform="matrix(1,0,0,1,0.888042,-0.205217)">
                        <g transform="matrix(0.88047,0.0129249,-0.0136946,0.932897,331.7,513.837)">
                            <ellipse cx="18" cy="28.638" rx="4.332" ry="4.95" style="fill:rgb(66,44,1);"/>
                        </g>
                        <g transform="matrix(0.99998,0.00635117,-0.00635117,0.99998,2.65046,1.64829)">
                            <g transform="matrix(1,0,0,1,330.112,507.535)">
                                <path d="M14,20.606C14,22.079 13.104,23.273 12,23.273C10.895,23.273 10,22.079 10,20.606C10,19.133 10.895,17.939 12,17.939C13.104,17.939 14,19.133 14,20.606Z" style="fill:rgb(101,71,27);fill-rule:nonzero;"/>
                            </g>
                            <g transform="matrix(1,0,0,1,342.013,507.535)">
                                <path d="M14,20.606C14,22.079 13.104,23.273 12,23.273C10.895,23.273 10,22.079 10,20.606C10,19.133 10.895,17.939 12,17.939C13.104,17.939 14,19.133 14,20.606Z" style="fill:rgb(101,71,27);fill-rule:nonzero;"/>
                            </g>
                        </g>
                    </g>
                </g>
            </g>
        </g>
    </g>
</svg>
