<?xml version="1.0" encoding="UTF-8"?><svg id="Layer_1" xmlns="http://www.w3.org/2000/svg" xmlns:xlink="http://www.w3.org/1999/xlink" viewBox="0 0 512 512"><defs><style>.cls-1{fill:none;}.cls-2{clip-path:url(#clippath);}.cls-3{fill:#ea596e;}.cls-4{fill:#664500;}.cls-5{fill:#dd2e44;}.cls-6{fill:#269;}.cls-7{fill:#88c9f9;}.cls-8{fill:#55acee;}.cls-9{fill:#3b88c3;}.cls-10{fill:#5c913b;}.cls-11{fill:#77b255;}.cls-12{fill:#7d6a5a;}.cls-12,.cls-13{fill-rule:evenodd;}.cls-13{fill:#ffcc4d;}</style><clipPath id="clippath"><rect class="cls-1" x="-9.05" y="55.36" width="433.72" height="433.72" transform="translate(-113.81 389.91) rotate(-72.74)"/></clipPath></defs><rect id="Artboard1" class="cls-1" x="-31.31" y="38.45" width="467.55" height="467.55"/><circle class="cls-8" cx="32.63" cy="480.45" r="21.33"/><circle class="cls-8" cx="409.51" cy="32.45" r="28.44"/><path class="cls-3" d="M66.25,419.95l-33.25-79.87L2.93,426.05l63.32-6.1ZM366.85,75.12l-56.89,14.22,14.22-56.89,42.67,42.67Z"/><path class="cls-11" d="M452.17,188.89l56.9-71.13-42.67-28.43-14.24,99.56Z"/><rect id="Artboard1-2" class="cls-1" x="-25.96" y="38.45" width="467.55" height="467.55"/><g class="cls-2"><g><g id="tilted"><g id="Back-leaf"><path class="cls-10" d="M187.88,66.77c78.59,3.81,93.03,40.32,133.65,35.55,40.62-4.77-8.06,34.32-19.92,40.14-11.88,5.82-109.12,33.93-140.6,6.31-31.48-27.62-16.53-84.11,26.87-82Z"/></g><g id="Stem"><path class="cls-11" d="M184.99,231.2c-3.51-.84-6.56-3.34-8.03-7.06-5.16-13.01-9.18-27.32-13.43-42.49-14.68-52.29-31.33-111.57-103.19-147.67-5.86-2.94-8.16-10.36-5.15-16.56,3.02-6.22,10.21-8.84,16.07-5.91,81.01,40.67,99.96,108.2,115.19,162.45,4.08,14.52,7.92,28.23,12.6,40.04,2.49,6.28-.44,13.63-6.55,16.43-2.49,1.14-5.11,1.35-7.52,.77Z"/></g><g id="Base"><g id="Lemon"><path class="cls-13" d="M132.42,107.88c.44-.23,.87-.43,1.3-.6,6.51-2.69,13.75-.85,26.58,1.52l2.03,.37c13,1.98,55.02-2.15,106.58,15.87h.02c48.34,16.78,90.69,51.25,116.4,100.08,0,0-13.52,51.16-13.52,51.16,19.24,36.58-1.73,150.84-56.64,179.72s-158-17.68-178.25-56.18l-51.31-16.93c-25.71-48.89-30.13-103.35-16.55-152.72v-.02c14.38-52.7,41.59-84.98,47.32-96.81l.85-1.88c5.32-11.92,7.9-18.93,13.81-22.76,.39-.26,.8-.5,1.24-.73l.14-.07Z"/></g><g id="Shape"><path class="cls-12" d="M85.69,382.84c.95-.56,10.8-6.31,15.94-6.75,2.24-.19,18.18,1.28,20.98-.22,9.17-4.92,27.54-11.22,49.06-24.92,12.12-7.71,21.36-23.79,26.4-29.64,9.38-10.9,34.25-23.27,34.25-23.27,0,0,23.52-13.06,37.49-14.45,7.5-.75,26.28,.08,39.42-5.5,23.35-9.91,38.23-20.59,47.48-25.36,2.83-1.46,11.18-15.71,12.66-17.48,3.56-4.25,15.89-10.09,15.95-10.12l.05,.1c40.32,76.67,28.26,167.05-23.42,229.96-16.88,20.55-10.69,38.59-23.32,45-12.41,6.68-23.78-8.58-50.22-6.32-81.12,6.93-162.42-34.35-202.74-111.02h0Z"/></g></g></g><path class="cls-4" d="M124.76,330.12c-1.97,.51-4.12,.49-6.2-.17-5.89-1.87-9.15-8.16-7.28-14.06,5.83-18.33,29.01-53.13,75-53.8,6.18-.09,11.26,4.86,11.36,11.04,.08,6.18-4.9,11.25-11.04,11.36-41.55,.61-53.84,37.81-53.96,38.18-1.22,3.81-4.28,6.52-7.87,7.45Zm119.23-74.33c-3.14,.82-6.6,.27-9.42-1.78-5-3.64-6.11-10.66-2.45-15.66,27.08-37.19,68.89-36.01,87.23-30.17,5.89,1.87,9.15,8.17,7.27,14.07-1.86,5.87-8.13,9.14-14.03,7.3-1.73-.52-38.22-11.15-62.37,22.01-1.58,2.18-3.8,3.62-6.22,4.25Z"/></g></g><g><path class="cls-5" d="M233.91,101.54c-.57-.58-1.43-.88-2.43-1.01,0,0-201.23-27.15-209.44-19.08-8.2,8.08,15.79,209.72,15.79,209.72,.12,1.01,.39,1.86,.97,2.44,8.01,8.15,58.18-28.26,112.05-81.29,53.89-53.04,91.06-102.63,83.05-110.78Z"/><path class="cls-3" d="M21.73,82.18c-.17,.39-.3,.91-.39,1.56,2.91,17.04,29.68,157.13,44.02,200.6,17.43-11.01,34.95-25.63,55.48-43.78C100.83,208.21,31.77,80.08,21.73,82.18Z"/></g><g><ellipse class="cls-4" cx="268.09" cy="367.61" rx="25.97" ry="32.47" transform="translate(-89.86 86.76) rotate(-15.78)"/><path class="cls-9" d="M428.25,365.93l-136.74,21.06c-14.48,2.72-39.35,9.61-44.4-13.12-4.57-20.61,20.65-24.36,39.38-26.78l139.22-15.4,2.54,34.25Z"/><path class="cls-7" d="M425.71,331.69l-55.32,5.86c-6.49,.63-9.39,11.38-6.91,21.2,2.75,10.91,7.44,15.5,14.04,15.01l53.6-8.24s-5.4-33.83-5.4-33.83Z"/><path class="cls-9" d="M480.75,312.12l-24.25,39.39-76.58-47.15,24.25-39.39c12.59-20.45,39.63-26.88,60.08-14.29l2.21,1.36c20.45,12.6,26.88,39.63,14.29,60.08Z"/><ellipse class="cls-7" cx="418.19" cy="327.96" rx="35.98" ry="44.96" transform="translate(-80.34 512.09) rotate(-58.38)"/><ellipse class="cls-6" cx="418.19" cy="327.96" rx="17.99" ry="26.97" transform="translate(-80.34 512.09) rotate(-58.38)"/></g></svg>