<?xml version="1.0" encoding="UTF-8" standalone="no"?>
<!DOCTYPE svg PUBLIC "-//W3C//DTD SVG 1.1//EN" "http://www.w3.org/Graphics/SVG/1.1/DTD/svg11.dtd">
<svg width="100%" height="100%" viewBox="0 0 255 255" version="1.1" xmlns="http://www.w3.org/2000/svg" xmlns:xlink="http://www.w3.org/1999/xlink" xml:space="preserve" xmlns:serif="http://www.serif.com/" style="fill-rule:evenodd;clip-rule:evenodd;stroke-linecap:round;stroke-linejoin:round;">
    <g transform="matrix(1,0,0,1,-858.667,-6)">
        <g id="lemoncette">
        </g>
        <g id="lemon_sleep_v1" transform="matrix(0.930657,0,0,0.973282,579.54,9.57293)">
            <rect x="299.924" y="-3.671" width="274" height="262" style="fill:none;"/>
            <g transform="matrix(1.14819,0.081355,-0.0820793,1.05917,303.232,-18.859)">
                <g transform="matrix(0.149271,0.896737,-0.912882,0.151959,225.357,-3.03644)">
                    <g transform="matrix(7.04762,0,0,7.04762,0.500558,1.45139)">
                        <path d="M11.405,3.339C17.885,2.064 19.858,4.604 23.06,3.423C26.262,2.242 23.153,6.243 22.315,6.931C21.475,7.619 14.174,11.74 11.008,10.229C7.842,8.718 7.826,4.043 11.405,3.339Z" style="fill:rgb(92,145,59);fill-rule:nonzero;"/>
                    </g>
                    <g transform="matrix(7.04762,0,0,7.04762,0.500558,1.45139)">
                        <path d="M15.001,16C14.697,16 14.396,15.862 14.2,15.6C13.513,14.684 12.892,13.645 12.235,12.544C9.967,8.749 7.396,4.446 0.783,2.976C0.244,2.856 -0.096,2.322 0.024,1.783C0.144,1.243 0.678,0.905 1.217,1.024C8.671,2.68 11.599,7.581 13.952,11.519C14.582,12.573 15.176,13.568 15.8,14.4C16.132,14.842 16.042,15.469 15.6,15.8C15.42,15.935 15.21,16 15.001,16Z" style="fill:rgb(119,178,85);fill-rule:nonzero;"/>
                    </g>
                    <g transform="matrix(7.04762,0,0,7.04762,0.500558,1.45139)">
                        <path d="M34.3,31.534C34.302,31.517 34.297,31.506 34.297,31.491C37.071,26.156 36.944,16.378 30.951,10.384C25.15,4.584 17.271,4.563 12.184,6.317C10.605,6.931 9.267,6.383 8.369,7.282C7.488,8.163 8.018,10.001 7.655,11.101C4.486,16.303 4.25,24.126 10.343,30.218C15.305,35.18 20.781,37.06 30.323,35.071C30.325,35.069 30.328,35.07 30.331,35.069C31.479,34.851 33.281,35.592 33.897,34.975C34.982,33.89 34.206,32.617 34.3,31.534Z" style="fill:rgb(255,204,77);fill-rule:nonzero;"/>
                    </g>
                    <g transform="matrix(7.04762,0,0,7.04762,0.500558,1.45139)">
                        <path d="M8.208,6.583C8.208,6.583 3.938,5.993 1.351,11.182C-1.236,16.37 1.933,20.307 1.641,23.835C1.348,27.365 3.207,25.1 4.262,23.39C5.317,21.68 8.492,18.495 9.2,14.121C9.907,9.745 9.13,7.663 8.208,6.583Z" style="fill:rgb(119,178,85);fill-rule:nonzero;"/>
                    </g>
                </g>
                <g transform="matrix(0.825348,0.653224,-0.653224,0.825348,94.7371,-41.1212)">
                    <path d="M127.565,132.475L127.565,132.425C127.565,132.425 141.578,132.155 148.424,134.911C152.101,136.391 160.692,141.337 168.096,141.956C181.248,143.055 190.616,141.736 196.016,141.781C197.666,141.794 204.786,137.236 205.876,136.78C208.507,135.679 215.615,135.981 215.615,135.981C215.615,135.981 214.282,169.983 193.065,197.211C173.627,222.157 156.37,231.865 142.937,237.483C140.844,238.359 136.4,247.933 132.515,249.883C130.256,251.017 129.199,251.609 126.834,251.785C125.086,251.915 123.775,251.046 121.968,249.701C119.356,247.757 114.925,241.523 113.177,240.081C102.198,231.021 86.769,227.944 61.165,197.761C40.892,173.862 40.234,136.075 40.234,136.075C40.234,136.075 46.624,135.729 49.255,136.83C50.345,137.286 57.465,141.844 59.115,141.831C64.515,141.786 74.524,143.341 87.676,142.242C95.08,141.623 103.03,136.441 106.706,134.961C113.55,132.206 127.554,132.475 127.565,132.475Z" style="fill:rgb(125,106,90);"/>
                </g>
            </g>
            <g id="path915" transform="matrix(2.87451,-0.613576,0.641678,2.74862,-725.135,-2758.07)">
                <path d="M129.25,1042.47L147.591,1046.69L125.184,1062.65L143.735,1067.09" style="fill:none;fill-rule:nonzero;"/>
            </g>
            <g id="path9151" serif:id="path915" transform="matrix(2.87451,-0.613576,0.641678,2.74862,-719.434,-2762.99)">
                <path d="M129.25,1042.47L147.591,1046.69L125.184,1062.65L143.735,1067.09" style="fill:none;fill-rule:nonzero;stroke:rgb(40,238,255);stroke-width:7.85px;"/>
            </g>
            <g id="path9152" serif:id="path915" transform="matrix(1.98559,-0.423832,0.443244,1.89863,-245.281,-1879.59)">
                <path d="M129.25,1042.47L147.591,1046.69L125.184,1062.65L143.735,1067.09" style="fill:none;fill-rule:nonzero;"/>
            </g>
            <g id="path9153" serif:id="path915" transform="matrix(1.98559,-0.423832,0.443244,1.89863,-193.527,-1879.08)">
                <path d="M129.25,1042.47L147.591,1046.69L125.184,1062.65L143.735,1067.09" style="fill:none;fill-rule:nonzero;stroke:rgb(40,238,255);stroke-width:7.85px;"/>
            </g>
            <g id="path84" transform="matrix(0.768839,0.652903,-0.682807,0.735167,1043.77,-643.08)">
                <ellipse cx="84.6" cy="1050.37" rx="14.395" ry="14.142" style="fill:rgb(66,44,1);"/>
            </g>
            <g id="path13687" transform="matrix(1.00824,0.185725,-0.194232,0.964082,476.066,-848.397)">
                <path d="M162.756,942.509C162.756,942.509 155.05,942.17 145.932,940.951C139.948,940.15 133.356,938.97 127.935,937.256C114.256,932.93 106.058,928 106.058,928" style="fill:none;fill-rule:nonzero;stroke:rgb(104,70,1);stroke-width:4.63px;stroke-linecap:butt;stroke-linejoin:miter;"/>
            </g>
            <g id="path136871" serif:id="path13687" transform="matrix(-0.311961,-0.935397,-0.978239,0.298298,1457.27,-15.5067)">
                <path d="M162.756,942.509C162.756,942.509 155.05,942.17 145.932,940.951C139.948,940.15 133.356,938.97 127.935,937.256C114.256,932.93 106.058,928 106.058,928" style="fill:none;fill-rule:nonzero;stroke:rgb(104,70,1);stroke-width:4.63px;stroke-linecap:butt;stroke-linejoin:miter;"/>
            </g>
            <g id="path13650" transform="matrix(1.02655,-0.0206291,0.021574,0.981592,280.054,-843.631)">
                <path d="M82.952,960.852C82.952,960.852 83.696,962.83 85.276,965.504C86.857,968.178 90.048,972.724 93.565,975.61C104.516,984.595 119.349,987.498 119.349,987.498L122.544,982.352C122.544,982.352 108.91,975.902 102.798,968.718C99.184,964.471 97.053,961.283 95.856,959.258C94.659,957.232 94.535,956.758 94.535,956.758L82.952,960.852Z" style="fill:rgb(104,70,1);fill-rule:nonzero;"/>
            </g>
            <g id="path13650-9" transform="matrix(1.02655,-0.0206291,0.021574,0.981592,280.054,-843.631)">
                <path d="M176.837,1048.16C176.837,1048.16 174.83,1047.49 172.093,1046.03C169.356,1044.56 164.684,1041.55 161.656,1038.16C152.231,1027.58 148.723,1012.88 148.723,1012.88L153.734,1009.48C153.734,1009.48 160.736,1022.84 168.164,1028.65C172.556,1032.09 175.829,1034.09 177.901,1035.2C179.974,1036.31 180.453,1036.42 180.453,1036.42L176.837,1048.16Z" style="fill:rgb(104,70,1);fill-rule:nonzero;"/>
            </g>
            <g id="path9154" serif:id="path915" transform="matrix(2.50224,-0.534114,0.558577,2.39265,-505.404,-2411.93)">
                <path d="M129.25,1042.47L147.591,1046.69L125.184,1062.65L143.735,1067.09" style="fill:none;fill-rule:nonzero;"/>
            </g>
            <g id="path9155" serif:id="path915" transform="matrix(2.50224,-0.534114,0.558577,2.39265,-475.728,-2417.62)">
                <path d="M129.25,1042.47L147.591,1046.69L125.184,1062.65L143.735,1067.09" style="fill:none;fill-rule:nonzero;stroke:rgb(40,238,255);stroke-width:7.85px;"/>
            </g>
            <g transform="matrix(2.72434,0.879441,-0.91972,2.60502,339.931,116.503)">
                <path d="M28.37,20.712C31.86,27.26 35.548,29.315 35.289,32.456C35.011,35.842 32.149,36.717 29.935,34.325C28.046,32.286 29.607,27.919 28.37,20.712Z" style="fill:rgb(93,173,236);fill-rule:nonzero;"/>
            </g>
            <g id="path841" serif:id="path84" transform="matrix(0.768839,0.652903,-0.682807,0.735167,1043.77,-643.08)">
                <ellipse cx="84.6" cy="1050.37" rx="14.395" ry="14.142" style="fill:rgb(66,44,1);"/>
            </g>
        </g>
    </g>
</svg>
