<?xml version="1.0" encoding="UTF-8" standalone="no"?>
<!DOCTYPE svg PUBLIC "-//W3C//DTD SVG 1.1//EN" "http://www.w3.org/Graphics/SVG/1.1/DTD/svg11.dtd">
<svg width="100%" height="100%" viewBox="0 0 255 255" version="1.1" xmlns="http://www.w3.org/2000/svg" xmlns:xlink="http://www.w3.org/1999/xlink" xml:space="preserve" xmlns:serif="http://www.serif.com/" style="fill-rule:evenodd;clip-rule:evenodd;stroke-linecap:round;stroke-linejoin:round;stroke-miterlimit:1.5;">
    <g transform="matrix(1,0,0,1,-421.333,-2.66667)">
        <g id="final_lemon_warpaint" transform="matrix(1.50152,0,0,0.980769,19.0567,1.28151)">
            <rect x="267.912" y="1.412" width="169.827" height="260" style="fill:none;"/>
            <clipPath id="_clip1">
                <rect x="267.912" y="1.412" width="169.827" height="260"/>
            </clipPath>
            <g clip-path="url(#_clip1)">
                <g transform="matrix(0.839799,-0.981945,0.61876,1.24034,164.936,100.289)">
                    <g transform="matrix(0.149271,0.896737,-0.912882,0.151959,225.357,-3.03644)">
                        <g transform="matrix(7.04762,0,0,7.04762,0.500558,1.45139)">
                            <path d="M11.405,3.339C17.885,2.064 19.858,4.604 23.06,3.423C26.262,2.242 23.153,6.243 22.315,6.931C21.475,7.619 14.174,11.74 11.008,10.229C7.842,8.718 7.826,4.043 11.405,3.339Z" style="fill:rgb(92,145,59);fill-rule:nonzero;"/>
                        </g>
                        <g transform="matrix(7.04762,0,0,7.04762,0.500558,1.45139)">
                            <path d="M15.001,16C14.697,16 14.396,15.862 14.2,15.6C13.513,14.684 12.892,13.645 12.235,12.544C9.967,8.749 7.396,4.446 0.783,2.976C0.244,2.856 -0.096,2.322 0.024,1.783C0.144,1.243 0.678,0.905 1.217,1.024C8.671,2.68 11.599,7.581 13.952,11.519C14.582,12.573 15.176,13.568 15.8,14.4C16.132,14.842 16.042,15.469 15.6,15.8C15.42,15.935 15.21,16 15.001,16Z" style="fill:rgb(119,178,85);fill-rule:nonzero;"/>
                        </g>
                        <g transform="matrix(7.04762,-3.91221e-16,0,7.04762,0.500558,1.45139)">
                            <path d="M34.3,31.534C34.302,31.517 34.297,31.506 34.297,31.491C37.071,26.156 36.944,16.378 30.951,10.384C25.15,4.584 17.271,4.563 12.184,6.317C10.605,6.931 9.267,6.383 8.369,7.282C7.488,8.163 8.018,10.001 7.655,11.101C4.486,16.303 4.25,24.126 10.343,30.218C15.305,35.18 20.781,37.06 30.323,35.071C30.325,35.069 30.328,35.07 30.331,35.069C31.479,34.851 33.281,35.592 33.897,34.975C34.982,33.89 34.206,32.617 34.3,31.534Z" style="fill:rgb(255,204,77);fill-rule:nonzero;"/>
                        </g>
                        <g transform="matrix(1.06696,-0.950197,1.01322,1.0242,-136.115,119.433)">
                            <path d="M140.598,158.567L58.835,161.436C58.835,161.436 51.849,130.998 69.082,102.431C86.445,73.649 118.897,57.312 133.39,57.776C140.785,58.012 142.806,153.359 140.598,158.567Z" style="fill:rgb(237,237,241);"/>
                        </g>
                        <g transform="matrix(1.03281,-0.919778,0.980789,0.991416,-133.211,117.268)">
                            <path d="M133.036,57.771C133.036,57.771 133.307,55.26 141.457,61.725C150.105,68.586 151.379,65.777 163.897,74.062C174.888,81.337 207.108,107.067 202.481,154.889C200.538,174.97 177.997,185.192 177.997,185.192L130.147,191.592L129.947,152.392C129.947,152.392 123.558,139.866 124.023,134.374C124.489,128.883 134.118,121.627 135.284,116.311C136.428,111.099 131.465,102.672 132.631,97.464C133.881,91.881 140.891,90.499 140.24,85.942C139.552,81.126 129.618,73.196 128.503,68.566C127.481,64.325 133.036,57.771 133.036,57.771Z" style="fill:rgb(145,170,255);stroke:rgb(145,170,255);stroke-opacity:0;stroke-width:0.5px;"/>
                        </g>
                        <g id="path1073" transform="matrix(1.9548,-0.161128,0.169165,1.63317,-27.6698,23.2079)">
                            <clipPath id="_clip2">
                                <path d="M126.37,135.225C126.383,135.153 126.37,135.104 126.375,135.04C138.267,113.191 141.433,71.308 122.229,43.548C103.64,16.685 75.482,13.816 56.648,19.527C50.776,21.597 46.196,18.781 42.653,22.31C39.177,25.769 40.391,33.821 38.686,38.399C25.432,59.54 21.691,92.929 41.217,121.144C57.117,144.126 75.997,154.101 110.843,148.956C110.851,148.948 110.862,148.953 110.873,148.95C115.057,148.422 121.225,152.228 123.655,149.806C127.935,145.546 125.633,139.825 126.37,135.225Z" clip-rule="nonzero"/>
                            </clipPath>
                            <g clip-path="url(#_clip2)">
                                <path d="M22.387,98.274C23.337,98.822 24.609,98.521 25.634,98.38C28.844,97.817 31.981,96.92 35.112,96.032C39.811,94.646 44.467,93.121 49.142,91.659C54.719,89.865 60.404,88.453 66.11,87.142C72.258,85.738 78.424,84.42 84.584,83.068C90.236,81.754 95.926,80.636 101.651,79.689C106.768,78.859 111.913,78.225 117.062,77.636C121.737,77.093 126.423,76.704 131.123,76.48C135.56,76.356 139.991,76.107 144.418,75.798C154.114,77.504 152.136,88.744 142.44,87.038C138.084,86.837 133.72,86.734 129.363,86.977C124.724,87.213 120.088,87.505 115.452,87.782C110.387,88.103 105.321,88.442 100.28,89.048C94.655,89.743 89.039,90.529 83.451,91.485C77.282,92.587 71.132,93.822 65.091,95.505C59.381,97.15 53.709,98.931 48.174,101.102C43.405,102.982 38.673,104.954 34.036,107.139C30.721,108.731 27.429,110.38 24.315,112.343C23.421,112.91 22.531,113.48 21.671,114.099C21.573,114.17 20.881,114.679 20.738,114.826C20.678,114.888 20.645,114.972 20.599,115.045C6.132,113.503 7.919,96.732 22.387,98.274L22.387,98.274Z" style="fill:rgb(73,88,145);fill-rule:nonzero;"/>
                            </g>
                        </g>
                        <g id="path1077" transform="matrix(1.9548,-0.161128,0.169165,1.63317,-27.6697,23.2079)">
                            <clipPath id="_clip3">
                                <path d="M126.37,135.225C126.383,135.153 126.37,135.104 126.375,135.04C138.267,113.191 141.433,71.308 122.229,43.548C103.64,16.685 75.482,13.816 56.648,19.527C50.776,21.597 46.196,18.781 42.653,22.31C39.177,25.769 40.391,33.821 38.686,38.399C25.432,59.54 21.691,92.929 41.217,121.144C57.117,144.126 75.997,154.101 110.843,148.956C110.851,148.948 110.862,148.953 110.873,148.95C115.057,148.422 121.225,152.228 123.655,149.806C127.935,145.546 125.633,139.825 126.37,135.225Z" clip-rule="nonzero"/>
                            </clipPath>
                            <g clip-path="url(#_clip3)">
                                <path d="M2.383,73.269C3.375,73.868 4.584,73.908 5.71,74.01C9.263,74.211 12.809,73.732 16.319,73.242C21.507,72.426 26.669,71.453 31.825,70.459C37.834,69.32 43.834,68.14 49.842,66.995C56.471,65.77 63.112,64.615 69.76,63.497C76.544,62.365 83.336,61.283 90.124,60.169C96.165,59.198 102.209,58.248 108.254,57.306C113.208,56.506 118.166,55.735 123.134,55.025C127.125,54.474 131.112,53.896 135.095,53.289C135.662,53.202 136.229,53.115 136.796,53.028C147.328,54.707 145.382,66.916 134.85,65.237L133.188,65.265C129.278,65.344 125.368,65.465 121.463,65.678C116.591,65.929 111.718,66.166 106.848,66.463C100.88,66.87 94.914,67.331 88.966,67.972C82.197,68.702 75.44,69.57 68.743,70.81C62.054,72.071 55.399,73.503 48.775,75.075C42.723,76.47 36.678,77.901 30.664,79.456C25.403,80.807 20.157,82.219 14.966,83.82C11.213,85.014 7.456,86.238 3.858,87.852C2.75,88.378 1.694,88.921 0.684,89.617C0.566,89.698 0.431,89.758 0.326,89.855C0.28,89.898 0.27,89.969 0.242,90.026C-14.214,88.179 -12.073,71.421 2.383,73.268L2.383,73.269Z" style="fill:rgb(73,88,145);fill-rule:nonzero;"/>
                            </g>
                        </g>
                        <g id="path1081" transform="matrix(1.9548,-0.161128,0.169165,1.63317,-27.6698,23.2079)">
                            <clipPath id="_clip4">
                                <path d="M126.37,135.225C126.383,135.153 126.37,135.104 126.375,135.04C138.267,113.191 141.433,71.308 122.229,43.548C103.64,16.685 75.482,13.816 56.648,19.527C50.776,21.597 46.196,18.781 42.653,22.31C39.177,25.769 40.391,33.821 38.686,38.399C25.432,59.54 21.691,92.929 41.217,121.144C57.117,144.126 75.997,154.101 110.843,148.956C110.851,148.948 110.862,148.953 110.873,148.95C115.057,148.422 121.225,152.228 123.655,149.806C127.935,145.546 125.633,139.825 126.37,135.225Z" clip-rule="nonzero"/>
                            </clipPath>
                            <g clip-path="url(#_clip4)">
                                <path d="M16.905,47.024C17.319,47.537 19.105,47.588 19.67,47.624C22.483,47.657 25.28,47.274 28.067,46.936C32.091,46.38 36.11,45.787 40.123,45.16C44.997,44.384 49.86,43.54 54.725,42.707C60.208,41.792 65.689,40.861 71.188,40.041C77.414,39.173 83.659,38.45 89.891,37.624C96.405,36.741 109.601,34.753 116.076,33.621C121.641,32.633 120.453,32.317 125.978,31.127L128.33,30.605C137.305,31.909 135.794,42.313 126.818,41.009C126.05,41.067 125.281,41.126 124.513,41.184C119.052,41.614 113.593,42.085 108.149,42.699C101.671,43.448 95.197,44.258 88.769,45.371C82.48,46.451 76.204,47.615 69.952,48.898C64.432,50.017 58.911,51.133 53.421,52.394C48.513,53.504 43.593,54.569 38.705,55.771C34.609,56.796 30.531,57.896 26.46,59.022C23.532,59.872 20.585,60.698 17.782,61.914C16.972,62.286 16.164,62.656 15.395,63.109C14.632,63.557 15.248,63.211 14.675,63.6C14.604,63.648 14.527,63.686 14.453,63.729C0.042,61.614 2.494,44.909 16.905,47.024L16.905,47.024Z" style="fill:rgb(73,88,145);fill-rule:nonzero;"/>
                            </g>
                        </g>
                        <g transform="matrix(7.04762,-8.88178e-16,3.55271e-15,7.04762,0.500558,1.45139)">
                            <path d="M8.208,6.583C8.208,6.583 3.938,5.993 1.351,11.182C-1.236,16.37 1.933,20.307 1.641,23.835C1.348,27.365 3.207,25.1 4.262,23.39C5.317,21.68 8.492,18.495 9.2,14.121C9.907,9.745 9.13,7.663 8.208,6.583Z" style="fill:rgb(119,178,85);fill-rule:nonzero;"/>
                        </g>
                    </g>
                    <g transform="matrix(0.825348,0.653224,-0.653224,0.825348,94.7371,-41.1212)">
                        <path d="M127.565,132.475L127.565,132.425C127.565,132.425 141.578,132.155 148.424,134.911C152.101,136.391 160.692,141.337 168.096,141.956C181.248,143.055 190.616,141.736 196.016,141.781C197.666,141.794 204.786,137.236 205.876,136.78C208.507,135.679 215.615,135.981 215.615,135.981C215.615,135.981 214.282,169.983 193.065,197.211C173.627,222.157 156.37,231.865 142.937,237.483C140.844,238.359 136.4,247.933 132.515,249.883C130.256,251.017 129.199,251.609 126.834,251.785C125.086,251.915 123.775,251.046 121.968,249.701C119.356,247.757 114.925,241.523 113.177,240.081C102.198,231.021 86.769,227.944 61.165,197.761C40.892,173.862 40.234,136.075 40.234,136.075C40.234,136.075 46.624,135.729 49.255,136.83C50.345,137.286 57.465,141.844 59.115,141.831C64.515,141.786 74.524,143.341 87.676,142.242C95.08,141.623 103.03,136.441 106.706,134.961C113.55,132.206 127.554,132.475 127.565,132.475Z" style="fill:rgb(125,106,90);"/>
                    </g>
                </g>
                <g id="path1206" transform="matrix(0.851149,0.026591,-0.0173688,1.30308,257.652,-1203.76)">
                    <path d="M98.632,1108.14C98.632,1108.14 108.939,1096.13 130.362,1093.25C154.96,1089.96 168.955,1106.61 168.955,1106.61" style="fill:none;fill-rule:nonzero;stroke:rgb(82,54,1);stroke-width:9.51px;stroke-miterlimit:3;"/>
                </g>
                <g id="path4607-3" transform="matrix(0.722739,0,0,1.10649,256.743,-979.749)">
                    <path d="M121.822,968.27C121.822,968.27 117.365,975.274 104.442,977.823C91.92,980.293 80.207,977.639 73.778,976.57C67.35,975.5 41.555,973.063 41.555,973.063L40.795,981.04C40.795,981.04 64.87,983.208 72.463,984.472C80.84,985.866 112.329,987.65 112.329,987.65L121.822,968.27ZM93.55,990.569L58.068,986.142C53.145,992.025 50.607,1000.37 51.124,1008.97C52.117,1025.16 63.461,1037.64 76.46,1036.84C89.458,1036.04 99.189,1022.27 98.196,1006.08C97.854,1000.5 96.242,995.124 93.55,990.569Z" style="fill:rgb(104,70,1);fill-rule:nonzero;"/>
                </g>
                <g id="path4607-31" serif:id="path4607-3" transform="matrix(-0.722739,0,0,1.10649,447.686,-979.749)">
                    <path d="M121.822,968.27C121.822,968.27 117.365,975.274 104.442,977.823C91.92,980.293 80.207,977.639 73.778,976.57C67.35,975.5 41.555,973.063 41.555,973.063L40.795,981.04C40.795,981.04 64.87,983.208 72.463,984.472C80.84,985.866 112.329,987.65 112.329,987.65L121.822,968.27ZM93.55,990.569L58.068,986.142C53.145,992.025 50.607,1000.37 51.124,1008.97C52.117,1025.16 63.461,1037.64 76.46,1036.84C89.458,1036.04 99.189,1022.27 98.196,1006.08C97.854,1000.5 96.242,995.124 93.55,990.569Z" style="fill:rgb(104,70,1);fill-rule:nonzero;"/>
                </g>
            </g>
        </g>
    </g>
</svg>
