<?xml version="1.0" encoding="UTF-8" standalone="no"?>
<svg
   xmlns:serif="http://www.serif.com/"
   xmlns:dc="http://purl.org/dc/elements/1.1/"
   xmlns:cc="http://creativecommons.org/ns#"
   xmlns:rdf="http://www.w3.org/1999/02/22-rdf-syntax-ns#"
   xmlns:svg="http://www.w3.org/2000/svg"
   xmlns="http://www.w3.org/2000/svg"
   xmlns:sodipodi="http://sodipodi.sourceforge.net/DTD/sodipodi-0.dtd"
   xmlns:inkscape="http://www.inkscape.org/namespaces/inkscape"
   inkscape:export-ydpi="96"
   inkscape:export-xdpi="96"
   inkscape:export-filename="/home/akarys/Projects/PyDis/branding/emotes/lemoji/dist/lemon_tongue.png"
   sodipodi:docname="lemon_tongue.svg"
   inkscape:version="1.0 (4035a4fb49, 2020-05-01)"
   id="svg8"
   version="1.1"
   viewBox="0 0 67.733332 67.733332"
   height="256"
   width="256">
  <defs
     id="defs2" />
  <sodipodi:namedview
     inkscape:guide-bbox="true"
     showguides="true"
     inkscape:document-rotation="0"
     borderlayer="true"
     units="px"
     inkscape:pagecheckerboard="true"
     inkscape:window-maximized="1"
     inkscape:window-y="0"
     inkscape:window-x="0"
     inkscape:window-height="1006"
     inkscape:window-width="1920"
     showgrid="false"
     inkscape:current-layer="layer1"
     inkscape:document-units="px"
     inkscape:cy="127.109"
     inkscape:cx="127.7953"
     inkscape:zoom="2.8"
     inkscape:pageshadow="2"
     inkscape:pageopacity="0.0"
     borderopacity="1.0"
     bordercolor="#666666"
     pagecolor="#ffffff"
     id="base">
    <sodipodi:guide
       id="guide768"
       orientation="0.70710678,0.70710678"
       position="-0.11726974,67.76454" />
  </sodipodi:namedview>
  <metadata
     id="metadata5">
    <rdf:RDF>
      <cc:Work
         rdf:about="">
        <dc:format>image/svg+xml</dc:format>
        <dc:type
           rdf:resource="http://purl.org/dc/dcmitype/StillImage" />
        <dc:title />
      </cc:Work>
    </rdf:RDF>
  </metadata>
  <g
     transform="translate(0,-229.26668)"
     style="display:inline"
     id="layer1"
     inkscape:groupmode="layer"
     inkscape:label="lemoncette">
    <g
       serif:id="Artboard1"
       id="Artboard11"
       style="clip-rule:evenodd;fill-rule:evenodd;stroke-linejoin:round;stroke-miterlimit:2"
       transform="matrix(0.26148153,0,0,0.26148153,-1.5077394,230.21516)">
      <g
         transform="matrix(0.143973,-1.0826,1.04467,0.140946,-26.7611,237.17)"
         id="tilted">
        <g
           transform="matrix(1.12567,6.30636,-6.42053,1.1515,220.143,-2.15814)"
           serif:id="Back leaf"
           id="Back-leaf">
          <path
             id="path3"
             style="fill:#5c913b;fill-rule:nonzero"
             d="m 11.405,3.339 c 6.48,-1.275 8.453,1.265 11.655,0.084 3.202,-1.181 0.093,2.82 -0.745,3.508 -0.84,0.688 -8.141,4.809 -11.307,3.298 C 7.842,8.718 7.826,4.043 11.405,3.339 Z" />
        </g>
        <g
           transform="matrix(1.23169,6.28526,-6.39994,1.26745,217.08,-5.05983)"
           id="Stem">
          <path
             id="path6"
             style="fill:#77b255;fill-rule:nonzero"
             d="M 15.001,16 C 14.697,16 14.396,15.862 14.2,15.6 13.513,14.684 12.892,13.645 12.235,12.544 9.967,8.749 7.396,4.446 0.783,2.976 0.244,2.856 -0.096,2.322 0.024,1.783 0.144,1.243 0.678,0.905 1.217,1.024 8.671,2.68 11.599,7.581 13.952,11.519 c 0.63,1.054 1.224,2.049 1.848,2.881 0.332,0.442 0.242,1.069 -0.2,1.4 -0.18,0.135 -0.39,0.2 -0.599,0.2 z" />
        </g>
        <g
           id="Base">
          <g
             transform="matrix(0.931358,0.737331,-0.70992,0.963526,99.025,-88.8077)"
             id="Lemon">
            <path
               id="path9"
               style="fill:#ffcc4d"
               d="m 127.632,51.26 c 0.228,-0.002 0.447,0.01 0.659,0.033 3.224,0.297 5.774,2.596 10.489,6.306 l 0.748,0.585 c 4.864,3.588 22.843,10.899 39.966,29.264 l 0.006,0.007 c 16.077,17.168 25.933,40.252 25.946,65.624 C 205.446,153.081 189,171 189,171 c 0,19 -32.982,61 -61.5,61 C 98.982,232 67,191 67,171 L 49.746,153.13 c 0,-25.393 9.858,-48.496 25.946,-65.675 l 0.006,-0.007 C 92.822,69.083 110.8,61.772 115.664,58.184 l 0.748,-0.585 c 4.715,-3.71 7.265,-6.009 10.489,-6.306 0.213,-0.024 0.432,-0.035 0.659,-0.033 h 0.036 z" />
          </g>
          <g
             transform="matrix(0.931358,0.737331,-0.70992,0.963526,99.025,-88.8077)"
             id="Shape">
            <path
               id="path12"
               style="fill:#7d6a5a"
               d="m 49.785,153.128 c 0.504,-0.025 5.745,-0.256 7.931,0.665 0.952,0.401 7.122,4.412 8.584,4.4 4.786,-0.04 13.608,1.327 25.295,0.358 6.58,-0.545 13.782,-5.106 17.085,-6.409 6.149,-2.425 18.916,-2.138 18.916,-2.138 0,0 12.364,-0.283 18.346,2.141 3.213,1.302 10.674,5.654 17.216,6.198 11.62,0.965 19.961,-0.197 24.744,-0.158 1.462,0.012 7.91,-4 8.89,-4.402 2.359,-0.966 8.622,-0.705 8.654,-0.704 v 0.051 c 0,39.821 -24.244,74.012 -58.732,88.55 -11.265,4.749 -12.607,13.411 -19.115,13.319 -6.48,0.061 -7.837,-8.579 -19.081,-13.319 C 74.029,227.142 49.785,192.95 49.785,153.13 Z" />
          </g>
        </g>
        <g
           id="g19"
           transform="matrix(1.13833,6.30395,-6.41818,1.16534,221.153,-3.96215)">
          <g
             serif:id="Front leaf"
             id="Front-leaf">
            <path
               id="path16"
               style="fill:#77b255;fill-rule:nonzero"
               d="m 8.208,6.583 c 0,0 -4.27,-0.59 -6.857,4.599 -2.587,5.188 0.582,9.125 0.29,12.653 C 1.348,27.365 3.207,25.1 4.262,23.39 5.317,21.68 8.492,18.495 9.2,14.121 9.907,9.745 9.13,7.663 8.208,6.583 Z" />
          </g>
        </g>
      </g>
    </g>
    <ellipse
       inkscape:label="leye"
       transform="rotate(-47.504126)"
       ry="5.7205558"
       rx="4.5925584"
       cy="202.04616"
       cx="-180.53415"
       id="path4607"
       style="display:none;opacity:1;fill:#684601;fill-opacity:1;stroke:none;stroke-width:0.574442;stroke-miterlimit:4;stroke-dasharray:1.14888, 0.574442;stroke-dashoffset:0;stroke-opacity:0.949074;paint-order:normal" />
    <ellipse
       inkscape:label="reye"
       transform="rotate(-47.504126)"
       ry="5.7205558"
       rx="4.5925584"
       cy="201.46597"
       cx="-157.74709"
       id="path4607-3"
       style="display:none;opacity:1;fill:#684601;fill-opacity:1;stroke:none;stroke-width:0.574442;stroke-miterlimit:4;stroke-dasharray:1.14888, 0.574442;stroke-dashoffset:0;stroke-opacity:0.949074;paint-order:normal" />
    <path
       inkscape:label="mouth"
       sodipodi:nodetypes="cssssc"
       inkscape:connector-curvature="0"
       id="path4634"
       d="m 50.444868,261.36332 c -1.544693,1.67155 -2.332223,5.2543 -7.604766,11.20939 -5.544603,6.26234 -12.842667,8.94452 -12.270133,12.49867 0.541471,3.36131 14.96944,6.89297 22.580944,-1.41475 8.155192,-8.9011 5.809942,-23.60894 -0.16653,-23.34757 -1.199276,0.0523 -1.935071,0.40017 -2.539515,1.05426 z"
       style="display:inline;fill:#422c01;fill-opacity:1;stroke:none;stroke-width:0.0995902px;stroke-linecap:butt;stroke-linejoin:miter;stroke-opacity:1" />
    <path
       style="stroke-width:1.11276"
       fill="#e8596e"
       d="m 46.50526,275.96467 -0.823749,0.89181 c -2.480741,2.58058 -4.592205,4.02315 -4.592205,4.02315 l 5.708116,5.23605 c 2.460052,2.25657 6.424501,2.87313 9.433281,-0.40692 3.008778,-3.28005 2.053133,-7.1767 -0.406917,-9.43328 l -5.674491,-5.2052 c -1.121818,1.87317 -2.403304,3.51386 -3.644035,4.89439 z"
       id="path317" />
    <path
       style="stroke-width:1.09706"
       fill="#dd2f45"
       d="m 51.152994,280.50593 c 0.233503,-0.23328 0.233673,-0.61189 2.2e-5,-0.8455 l -5.968569,-5.96858 -0.85021,0.84245 5.972433,5.97242 c 0.234125,0.23271 0.612803,0.23271 0.846313,-10e-4 z"
       id="path319" />
    <path
       inkscape:label="teeth"
       sodipodi:nodetypes="csscc"
       inkscape:connector-curvature="0"
       id="path4638"
       d="m 33.186654,283.74129 c 0.941656,0.47684 8.323104,-0.0444 13.609141,-5.81392 5.286039,-5.76954 7.45351,-13.6742 5.947369,-15.34208 0,0 -2.37931,5.65104 -9.036291,12.45208 -7.195423,7.63017 -10.520219,8.70392 -10.520219,8.70392 z"
       style="display:inline;fill:#ffffff;stroke:none;stroke-width:0.0913032px;stroke-linecap:butt;stroke-linejoin:miter;stroke-opacity:1" />
    <path
       sodipodi:nodetypes="ccsccssccscsccccscccscccscsccc"
       style="stroke-width:1.43796"
       fill="#66471b"
       d="m 47.918169,251.8892 c -0.202403,0.0294 -3.413391,0.51348 -7.107421,2.34064 -0.09031,-0.14333 -0.18996,-0.28348 -0.315242,-0.40877 -0.375079,-0.37508 -0.856147,-0.57346 -1.345244,-0.61515 1.303547,-2.36099 2.845026,-3.93497 2.872484,-3.96243 0.558396,-0.56209 0.557166,-1.47235 -0.0051,-2.03259 -0.561161,-0.55932 -1.469261,-0.56025 -2.030536,0.001 -0.224696,0.22469 -5.504152,5.58094 -5.504936,12.20152 1.1e-4,0.58172 0.349792,1.10626 0.887692,1.32896 0.53591,0.2227 1.156111,0.0987 1.566894,-0.31215 4.667093,-4.66709 11.323034,-5.68389 11.390108,-5.69408 0.319472,-0.0466 0.599079,-0.19403 0.810586,-0.40552 0.310118,-0.31013 0.473727,-0.75659 0.407707,-1.22322 -0.114872,-0.78597 -0.841921,-1.32998 -1.626854,-1.21811 z m -18.098972,12.18729 c -6.619344,0 -11.976823,5.28023 -12.201535,5.50494 -0.561272,0.56128 -0.561268,1.47029 -10e-4,2.03053 0.560247,0.56229 1.470313,0.56333 2.033619,0.004 0.02652,-0.0266 1.599526,-1.56881 3.962424,-2.87249 0.04085,0.49027 0.238959,0.97106 0.61415,1.34625 0.124908,0.12495 0.264405,0.22598 0.409782,0.31426 -1.828198,3.69503 -2.312175,6.90608 -2.341656,7.10844 -0.112779,0.78606 0.434162,1.51399 1.220116,1.62685 0.465618,0.067 0.912085,-0.0987 1.221194,-0.40772 0.211481,-0.21148 0.359981,-0.49208 0.405768,-0.81234 0.01073,-0.0646 1.003585,-6.69762 5.694062,-11.3881 0.410787,-0.41079 0.533661,-1.03016 0.312153,-1.56689 -0.222853,-0.53806 -0.747356,-0.8877 -1.328994,-0.88766 z"
       id="path315" />
  </g>
</svg>
