<?xml version="1.0" encoding="UTF-8" standalone="no"?>
<svg
   width="512"
   height="512"
   viewBox="0 0 512 512"
   version="1.1"
   xml:space="preserve"
   style="clip-rule:evenodd;fill-rule:evenodd;stroke-linejoin:round;stroke-miterlimit:2"
   id="svg50"
   sodipodi:docname="lemon_pleased.svg"
   inkscape:export-filename="D:\Design\Projects\lemon_yawn.png"
   inkscape:export-xdpi="96"
   inkscape:export-ydpi="96"
   inkscape:version="1.1.1 (3bf5ae0d25, 2021-09-20)"
   xmlns:inkscape="http://www.inkscape.org/namespaces/inkscape"
   xmlns:sodipodi="http://sodipodi.sourceforge.net/DTD/sodipodi-0.dtd"
   xmlns="http://www.w3.org/2000/svg"
   xmlns:svg="http://www.w3.org/2000/svg"><defs
   id="defs54">
        
        
    
        
            
            
            
            
            
        
                
            
                
            </defs><sodipodi:namedview
   id="namedview52"
   pagecolor="#ffffff"
   bordercolor="#666666"
   borderopacity="1.0"
   inkscape:pageshadow="2"
   inkscape:pageopacity="0.0"
   inkscape:pagecheckerboard="0"
   showgrid="false"
   inkscape:zoom="0.99688191"
   inkscape:cx="231.72253"
   inkscape:cy="300.43679"
   inkscape:window-width="1920"
   inkscape:window-height="1051"
   inkscape:window-x="-9"
   inkscape:window-y="-9"
   inkscape:window-maximized="1"
   inkscape:current-layer="svg50" />
    <rect
   x="624.96869"
   y="-958.37628"
   width="255.0009"
   height="254.99994"
   style="fill:none;stroke-width:1.05"
   id="rect3"
   transform="rotate(45)" />
<path
   fill="#ffcc4d"
   d="m 909.78886,-103.30871 c 0,34.852904 -28.2528,63.105704 -63.10571,63.105704 -34.84919,0 -63.1057,-28.2528 -63.1057,-63.105704 0,-34.8492 28.25651,-63.1057 63.1057,-63.1057 34.85291,0 63.10571,28.2565 63.10571,63.1057"
   id="path885"
   style="stroke-width:3.7121" /><ellipse
   fill="#664500"
   cx="846.68317"
   cy="-94.028465"
   rx="25.984701"
   ry="27.840752"
   id="ellipse887"
   style="stroke-width:3.7121" /><path
   fill="#f4900c"
   d="m 863.26882,-64.810526 c 0,0 3.70096,-2.67642 0.61249,-5.99132 -3.08847,-3.31491 -6.01731,0.19302 -6.01731,0.19302 l -15.39779,14.35098 c -0.25614,-0.76098 -1.70386,-2.75809 -2.04166,-3.51536 l 21.36314,-19.91912 c 0,0 3.70467,-2.67643 0.60878,-5.995046 -3.08847,-3.311193 -6.02102,0.189317 -6.02102,0.189317 l -20.0936,18.731259 c -0.46402,-0.58651 -1.71128,-2.00454 -2.20499,-2.59105 L 857.374,-91.073629 c 0,0 3.70096,-2.680137 0.60878,-5.99133 -3.08846,-3.314901 -6.01731,0.189317 -6.01731,0.189317 l -23.30456,21.708366 c -0.55682,-0.53826 -2.27181,-2.26067 -2.83605,-2.76923 l 21.77518,-20.297764 c 0,0 3.69725,-2.68014 0.60878,-5.99133 -3.09217,-3.31491 -6.01731,0.18932 -6.01731,0.18932 l -23.02616,21.459644 -1.84491,1.72242 -0.81666,0.7684 c 0,0 -1.99711,2.76181 -4.03505,0.66447 l 6.83768,-15.434913 c 0,0 2.15302,-3.986796 -1.83006,-6.143531 -3.99051,-2.15673 -6.14353,1.83007 -6.14353,1.83007 l -6.19178,10.237972 c -2.46112,4.057326 -5.00762,8.084952 -8.01442,11.756222 -8.47844,10.36789 -8.20746,25.66546 1.18044,35.74381 10.24169,10.98411 27.4547,11.58918 38.4388,1.35121 l 1.65931,-1.55166 z"
   id="path889"
   style="stroke-width:3.7121" /><path
   fill="#664500"
   d="m 820.75784,-143.84484 c -8.37078,2.2421 -12.9181,7.29427 -13.19651,7.6098 -1.35121,1.54052 -1.19901,3.88657 0.3378,5.24149 1.54052,1.35491 3.88286,1.20643 5.23777,-0.33781 0.29326,-0.32295 7.75829,-8.36336 21.5673,-5.53845 2.01196,0.41204 3.97195,-0.88719 4.38028,-2.89172 0.41205,-2.00825 -0.88348,-3.97195 -2.89172,-4.38028 -6.06929,-1.24727 -11.23282,-0.8278 -15.43492,0.29697 z m 51.85062,0.004 c -4.2021,-1.12477 -9.36563,-1.54424 -15.43863,-0.3044 -2.00824,0.41205 -3.30376,2.37203 -2.89172,4.38028 0.41575,2.00825 2.37203,3.30377 4.38028,2.89173 13.82386,-2.82862 21.27404,5.2155 21.58215,5.55701 1.36234,1.51083 3.7121,1.64817 5.23406,0.28954 1.52196,-1.35862 1.67415,-3.67869 0.32666,-5.21178 -0.2784,-0.31182 -4.82573,-5.36028 -13.1928,-7.60238 z"
   id="path891"
   style="stroke-width:3.7121" /><g
   id="g3009"
   transform="translate(0,12.749079)"><g
     transform="matrix(0.27213023,-1.8950011,1.8281376,0.26252728,-16.783485,413.16774)"
     id="g27">
                <g
   transform="matrix(0.149271,0.896737,-0.912882,0.151959,225.357,-3.03644)"
   id="g21">
                    <g
   transform="matrix(7.04762,0,0,7.04762,0.500558,1.45139)"
   id="g7">
                        <path
   d="m 11.405,3.339 c 6.48,-1.275 8.453,1.265 11.655,0.084 3.202,-1.181 0.093,2.82 -0.745,3.508 -0.84,0.688 -8.141,4.809 -11.307,3.298 C 7.842,8.718 7.826,4.043 11.405,3.339 Z"
   style="fill:#5c913b;fill-rule:nonzero"
   id="path5" />
                    </g>
                    <g
   transform="matrix(7.04762,0,0,7.04762,0.500558,1.45139)"
   id="g11">
                        <path
   d="M 15.001,16 C 14.697,16 14.396,15.862 14.2,15.6 13.513,14.684 12.892,13.645 12.235,12.544 9.967,8.749 7.396,4.446 0.783,2.976 0.244,2.856 -0.096,2.322 0.024,1.783 0.144,1.243 0.678,0.905 1.217,1.024 8.671,2.68 11.599,7.581 13.952,11.519 c 0.63,1.054 1.224,2.049 1.848,2.881 0.332,0.442 0.242,1.069 -0.2,1.4 -0.18,0.135 -0.39,0.2 -0.599,0.2 z"
   style="fill:#77b255;fill-rule:nonzero"
   id="path9" />
                    </g>
                    <g
   transform="matrix(7.04762,0,0,7.04762,0.500558,1.45139)"
   id="g15">
                        <path
   d="M 34.3,31.534 C 34.302,31.517 34.297,31.506 34.297,31.491 37.071,26.156 36.944,16.378 30.951,10.384 25.15,4.584 17.271,4.563 12.184,6.317 10.605,6.931 9.267,6.383 8.369,7.282 7.488,8.163 8.018,10.001 7.655,11.101 4.486,16.303 4.25,24.126 10.343,30.218 c 4.962,4.962 10.438,6.842 19.98,4.853 0.002,-0.002 0.005,-10e-4 0.008,-0.002 1.148,-0.218 2.95,0.523 3.566,-0.094 1.085,-1.085 0.309,-2.358 0.403,-3.441 z"
   style="fill:#ffcc4d;fill-rule:nonzero"
   id="path13" />
                    </g>
                    <g
   transform="matrix(7.04762,0,0,7.04762,0.500558,1.45139)"
   id="g19">
                        <path
   d="m 8.208,6.583 c 0,0 -4.27,-0.59 -6.857,4.599 -2.587,5.188 0.582,9.125 0.29,12.653 C 1.348,27.365 3.207,25.1 4.262,23.39 5.317,21.68 8.492,18.495 9.2,14.121 9.907,9.745 9.13,7.663 8.208,6.583 Z"
   style="fill:#77b255;fill-rule:nonzero"
   id="path17" />
                    </g>
                </g>
                <g
   transform="matrix(0.825348,0.653224,-0.653224,0.825348,94.7371,-41.1212)"
   id="g25">
                    <path
   d="m 127.565,132.475 v -0.05 c 0,0 14.013,-0.27 20.859,2.486 3.677,1.48 12.268,6.426 19.672,7.045 13.152,1.099 22.52,-0.22 27.92,-0.175 1.65,0.013 8.77,-4.545 9.86,-5.001 2.631,-1.101 9.739,-0.799 9.739,-0.799 0,0 -1.333,34.002 -22.55,61.23 -19.438,24.946 -36.695,34.654 -50.128,40.272 -2.093,0.876 -6.537,10.45 -10.422,12.4 -2.259,1.134 -3.316,1.726 -5.681,1.902 -1.748,0.13 -3.059,-0.739 -4.866,-2.084 -2.612,-1.944 -7.043,-8.178 -8.791,-9.62 -10.979,-9.06 -26.408,-12.137 -52.012,-42.32 -20.273,-23.899 -20.931,-61.686 -20.931,-61.686 0,0 6.39,-0.346 9.021,0.755 1.09,0.456 8.21,5.014 9.86,5.001 5.4,-0.045 15.409,1.51 28.561,0.411 7.404,-0.619 15.354,-5.801 19.03,-7.281 6.844,-2.755 20.848,-2.486 20.859,-2.486 z"
   style="fill:#7d6a5a"
   id="path23" />
                </g>
            </g><ellipse
     fill="#664500"
     cx="37.073742"
     cy="469.55356"
     rx="66.316345"
     ry="71.05323"
     id="ellipse1005"
     style="stroke-width:9.47372"
     transform="rotate(-45)" /><path
     fill="#f4900c"
     d="m 439.07286,326.03413 c 0,0 1.86054,-11.58116 -9.76781,-11.99234 -11.62838,-0.41122 -10.57677,11.27778 -10.57677,11.27778 l -1.90098,54.02299 c -1.84704,-0.91675 -8.10278,-1.91442 -10.0914,-2.67619 l 2.62231,-74.96752 c 0,0 1.86724,-11.58792 -9.78131,-11.99236 -11.62163,-0.40446 -10.59026,11.27776 -10.59026,11.27776 l -2.47395,70.505 c -1.90772,-0.22243 -6.74781,-0.53255 -8.70947,-0.70107 l 2.8717,-81.74232 c 0,0 1.85378,-11.58794 -9.77459,-11.98565 -11.6283,-0.41117 -10.58347,11.27109 -10.58347,11.27109 l -2.89865,81.74232 c -1.98864,0.0338 -8.23089,0.0202 -10.17904,0.12135 l 2.68295,-76.40338 c 0,0 1.84703,-11.58121 -9.77456,-11.98566 -11.63512,-0.40449 -10.58348,11.27108 -10.58348,11.27108 l -2.84478,80.78508 -0.22243,6.47821 -0.0875,2.87841 c 0,0 1.38866,8.64208 -6.12091,8.5342 l -15.61233,-40.44644 c 0,0 -3.33012,-11.14977 -14.47984,-7.83316 -11.16322,3.3301 -7.83313,14.47985 -7.83313,14.47985 l 7.34776,29.83601 c 2.89868,11.83734 5.58837,23.77578 6.79502,35.90297 3.4312,34.22447 31.70326,61.51235 67.05351,62.76621 38.5455,1.3482 70.90267,-28.81136 72.25763,-67.35012 l 0.19551,-5.83105 z"
     id="path1087"
     style="fill:#ffcc4d;fill-opacity:1;stroke-width:9.53336" /><path
     fill="#664500"
     d="m 182.74576,243.68773 c -13.22622,22.90356 -12.13672,43.62009 -12.05663,44.90185 0.40856,6.24062 5.80001,10.97515 12.04061,10.58262 6.2486,-0.40057 10.98315,-5.77598 10.57457,-12.03259 -0.0641,-1.32984 -1.30579,-34.79194 34.59167,-58.49662 5.23122,-3.45275 6.65718,-10.48646 3.21243,-15.69363 -3.44474,-5.22321 -10.47844,-6.66519 -15.69362,-3.21244 -15.78978,10.40635 -26.02788,22.45496 -32.66903,33.95081 z M 294.65254,131.79806 c -11.49587,6.64115 -23.54445,16.87925 -33.97485,32.66102 -3.44473,5.22319 -2.01072,12.24887 3.21243,15.69362 5.23123,3.43675 12.2489,2.01077 15.69365,-3.21243 23.72872,-35.93752 57.16678,-34.65577 58.56873,-34.58367 6.20054,0.32045 11.56794,-4.45412 11.92042,-10.67068 0.35249,-6.21658 -4.32598,-11.5519 -10.54254,-11.95247 -1.27374,-0.0721 -21.98227,-1.15359 -44.87784,12.06461 z"
     id="path2692"
     style="stroke-width:11.3293" /></g></svg>
