<?xml version="1.0" encoding="UTF-8" standalone="no"?>
<svg
   xmlns:serif="http://www.serif.com/"
   xmlns:dc="http://purl.org/dc/elements/1.1/"
   xmlns:cc="http://creativecommons.org/ns#"
   xmlns:rdf="http://www.w3.org/1999/02/22-rdf-syntax-ns#"
   xmlns:svg="http://www.w3.org/2000/svg"
   xmlns="http://www.w3.org/2000/svg"
   xmlns:sodipodi="http://sodipodi.sourceforge.net/DTD/sodipodi-0.dtd"
   xmlns:inkscape="http://www.inkscape.org/namespaces/inkscape"
   width="256"
   height="256"
   viewBox="0 0 67.733332 67.733332"
   version="1.1"
   id="svg8"
   inkscape:version="1.0 (4035a4fb49, 2020-05-01)"
   sodipodi:docname="lemon_tongue.svg"
   inkscape:export-filename="/home/akarys/Projects/PyDis/branding/emotes/lemoji/dist/lemon_tongue.png"
   inkscape:export-xdpi="96"
   inkscape:export-ydpi="96">
  <defs
     id="defs2" />
  <sodipodi:namedview
     id="base"
     pagecolor="#ffffff"
     bordercolor="#666666"
     borderopacity="1.0"
     inkscape:pageopacity="0.0"
     inkscape:pageshadow="2"
     inkscape:zoom="2.8"
     inkscape:cx="127.7953"
     inkscape:cy="127.109"
     inkscape:document-units="px"
     inkscape:current-layer="layer1"
     showgrid="false"
     inkscape:window-width="1914"
     inkscape:window-height="1006"
     inkscape:window-x="0"
     inkscape:window-y="0"
     inkscape:window-maximized="0"
     inkscape:pagecheckerboard="true"
     units="px"
     borderlayer="true"
     inkscape:document-rotation="0"
     showguides="true"
     inkscape:guide-bbox="true">
    <sodipodi:guide
       position="4.9170355,67.599996"
       orientation="0.70710678,0.70710678"
       id="guide768" />
  </sodipodi:namedview>
  <metadata
     id="metadata5">
    <rdf:RDF>
      <cc:Work
         rdf:about="">
        <dc:format>image/svg+xml</dc:format>
        <dc:type
           rdf:resource="http://purl.org/dc/dcmitype/StillImage" />
        <dc:title />
      </cc:Work>
    </rdf:RDF>
  </metadata>
  <g
     inkscape:label="lemoncette"
     inkscape:groupmode="layer"
     id="layer1"
     style="display:inline"
     transform="translate(0,-229.26668)">
    <g
       transform="matrix(0.26148153,0,0,0.26148153,-1.5077394,230.21516)"
       style="clip-rule:evenodd;fill-rule:evenodd;stroke-linejoin:round;stroke-miterlimit:2"
       id="Artboard11"
       serif:id="Artboard1">
      <g
         id="tilted"
         transform="matrix(0.143973,-1.0826,1.04467,0.140946,-26.7611,237.17)">
        <g
           id="Back-leaf"
           serif:id="Back leaf"
           transform="matrix(1.12567,6.30636,-6.42053,1.1515,220.143,-2.15814)">
          <path
             d="m 11.405,3.339 c 6.48,-1.275 8.453,1.265 11.655,0.084 3.202,-1.181 0.093,2.82 -0.745,3.508 -0.84,0.688 -8.141,4.809 -11.307,3.298 C 7.842,8.718 7.826,4.043 11.405,3.339 Z"
             style="fill:#5c913b;fill-rule:nonzero"
             id="path3" />
        </g>
        <g
           id="Stem"
           transform="matrix(1.23169,6.28526,-6.39994,1.26745,217.08,-5.05983)">
          <path
             d="M 15.001,16 C 14.697,16 14.396,15.862 14.2,15.6 13.513,14.684 12.892,13.645 12.235,12.544 9.967,8.749 7.396,4.446 0.783,2.976 0.244,2.856 -0.096,2.322 0.024,1.783 0.144,1.243 0.678,0.905 1.217,1.024 8.671,2.68 11.599,7.581 13.952,11.519 c 0.63,1.054 1.224,2.049 1.848,2.881 0.332,0.442 0.242,1.069 -0.2,1.4 -0.18,0.135 -0.39,0.2 -0.599,0.2 z"
             style="fill:#77b255;fill-rule:nonzero"
             id="path6" />
        </g>
        <g
           id="Base">
          <g
             id="Lemon"
             transform="matrix(0.931358,0.737331,-0.70992,0.963526,99.025,-88.8077)">
            <path
               d="m 127.632,51.26 c 0.228,-0.002 0.447,0.01 0.659,0.033 3.224,0.297 5.774,2.596 10.489,6.306 l 0.748,0.585 c 4.864,3.588 22.843,10.899 39.966,29.264 l 0.006,0.007 c 16.077,17.168 25.933,40.252 25.946,65.624 C 205.446,153.081 189,171 189,171 c 0,19 -32.982,61 -61.5,61 C 98.982,232 67,191 67,171 L 49.746,153.13 c 0,-25.393 9.858,-48.496 25.946,-65.675 l 0.006,-0.007 C 92.822,69.083 110.8,61.772 115.664,58.184 l 0.748,-0.585 c 4.715,-3.71 7.265,-6.009 10.489,-6.306 0.213,-0.024 0.432,-0.035 0.659,-0.033 h 0.036 z"
               style="fill:#ffcc4d"
               id="path9" />
          </g>
          <g
             id="Shape"
             transform="matrix(0.931358,0.737331,-0.70992,0.963526,99.025,-88.8077)">
            <path
               d="m 49.785,153.128 c 0.504,-0.025 5.745,-0.256 7.931,0.665 0.952,0.401 7.122,4.412 8.584,4.4 4.786,-0.04 13.608,1.327 25.295,0.358 6.58,-0.545 13.782,-5.106 17.085,-6.409 6.149,-2.425 18.916,-2.138 18.916,-2.138 0,0 12.364,-0.283 18.346,2.141 3.213,1.302 10.674,5.654 17.216,6.198 11.62,0.965 19.961,-0.197 24.744,-0.158 1.462,0.012 7.91,-4 8.89,-4.402 2.359,-0.966 8.622,-0.705 8.654,-0.704 v 0.051 c 0,39.821 -24.244,74.012 -58.732,88.55 -11.265,4.749 -12.607,13.411 -19.115,13.319 -6.48,0.061 -7.837,-8.579 -19.081,-13.319 C 74.029,227.142 49.785,192.95 49.785,153.13 Z"
               style="fill:#7d6a5a"
               id="path12" />
          </g>
        </g>
        <g
           transform="matrix(1.13833,6.30395,-6.41818,1.16534,221.153,-3.96215)"
           id="g19">
          <g
             id="Front-leaf"
             serif:id="Front leaf">
            <path
               d="m 8.208,6.583 c 0,0 -4.27,-0.59 -6.857,4.599 -2.587,5.188 0.582,9.125 0.29,12.653 C 1.348,27.365 3.207,25.1 4.262,23.39 5.317,21.68 8.492,18.495 9.2,14.121 9.907,9.745 9.13,7.663 8.208,6.583 Z"
               style="fill:#77b255;fill-rule:nonzero"
               id="path16" />
          </g>
        </g>
      </g>
    </g>
    <ellipse
       style="display:none;opacity:1;fill:#684601;fill-opacity:1;stroke:none;stroke-width:0.574442;stroke-miterlimit:4;stroke-dasharray:1.14888, 0.574442;stroke-dashoffset:0;stroke-opacity:0.949074;paint-order:normal"
       id="path4607"
       cx="-180.53415"
       cy="202.04616"
       rx="4.5925584"
       ry="5.7205558"
       transform="rotate(-47.504126)"
       inkscape:label="leye" />
    <ellipse
       style="display:none;opacity:1;fill:#684601;fill-opacity:1;stroke:none;stroke-width:0.574442;stroke-miterlimit:4;stroke-dasharray:1.14888, 0.574442;stroke-dashoffset:0;stroke-opacity:0.949074;paint-order:normal"
       id="path4607-3"
       cx="-157.74709"
       cy="201.46597"
       rx="4.5925584"
       ry="5.7205558"
       transform="rotate(-47.504126)"
       inkscape:label="reye" />
    <path
       style="display:inline;fill:#422c01;fill-opacity:1;stroke:none;stroke-width:0.07976142px;stroke-linecap:butt;stroke-linejoin:miter;stroke-opacity:1"
       d="m 52.291507,261.50226 c -1.23714,1.33874 -1.86787,4.20815 -6.090632,8.97756 -4.440654,5.01549 -10.285649,7.16364 -9.827109,10.01015 0.433663,2.69206 11.988975,5.52055 18.085003,-1.13307 6.531466,-7.12886 4.653163,-18.90832 -0.133373,-18.69899 -0.960496,0.0419 -1.549792,0.32049 -2.033889,0.84435 z"
       id="path4634"
       inkscape:connector-curvature="0"
       sodipodi:nodetypes="cssssc"
       inkscape:label="mouth" />
    <path
       id="path317"
       d="m 49.136288,273.19643 -0.659738,0.71425 c -1.986817,2.06678 -3.677882,3.22213 -3.677882,3.22213 l 4.571611,4.19353 c 1.970248,1.80728 5.145362,2.30108 7.555084,-0.3259 2.40972,-2.62698 1.644347,-5.74779 -0.325899,-7.55508 l -4.544681,-4.16883 c -0.89846,1.50022 -1.924798,2.81424 -2.918495,3.9199 z"
       fill="#e8596e"
       style="stroke-width:0.891204" />
    <path
       id="path319"
       d="m 55.634002,280.01051 c 0.233503,-0.23328 0.233673,-0.61189 2.2e-5,-0.8455 l -5.968569,-5.96858 -0.85021,0.84245 5.972433,5.97242 c 0.234125,0.23271 0.612803,0.23271 0.846313,-0.001 z"
       fill="#dd2f45"
       style="stroke-width:1.09706" />
    <path
       style="display:inline;fill:#ffffff;stroke:none;stroke-width:0.0731244px;stroke-linecap:butt;stroke-linejoin:miter;stroke-opacity:1"
       d="m 38.469461,279.4247 c 0.754169,0.3819 6.665946,-0.0356 10.899515,-4.65635 4.233571,-4.6208 5.969492,-10.95162 4.763228,-12.28742 0,0 -1.905581,4.5259 -7.237135,9.97283 -5.76279,6.11098 -8.425608,6.97094 -8.425608,6.97094 z"
       id="path4638"
       inkscape:connector-curvature="0"
       sodipodi:nodetypes="csscc"
       inkscape:label="teeth" />
    <path
       id="path315"
       d="m 50.233821,250.9636 c -0.202403,0.0294 -3.413391,0.51348 -7.107421,2.34064 -0.09031,-0.14333 -0.18996,-0.28348 -0.315242,-0.40877 -0.375079,-0.37508 -0.856147,-0.57346 -1.345244,-0.61515 1.303547,-2.36099 2.845026,-3.93497 2.872484,-3.96243 0.558396,-0.56209 0.557166,-1.47235 -0.0051,-2.03259 -0.561161,-0.55932 -1.469261,-0.56025 -2.030536,0.001 -0.224696,0.22469 -5.504152,5.58094 -5.504936,12.20152 1.1e-4,0.58172 0.349792,1.10626 0.887692,1.32896 0.53591,0.2227 1.156111,0.0987 1.566894,-0.31215 4.667093,-4.66709 11.323034,-5.68389 11.390108,-5.69408 0.319472,-0.0466 0.599079,-0.19403 0.810586,-0.40552 0.310118,-0.31013 0.473727,-0.75659 0.407707,-1.22322 -0.114872,-0.78597 -0.841921,-1.32998 -1.626854,-1.21811 z m -18.098972,12.18729 c -6.619344,0 -11.976823,5.28023 -12.201535,5.50494 -0.561272,0.56128 -0.561268,1.47029 -10e-4,2.03053 0.560247,0.56229 1.470313,0.56333 2.033619,0.004 0.02652,-0.0266 1.599526,-1.56881 3.962424,-2.87249 0.04085,0.49027 0.238959,0.97106 0.61415,1.34625 0.124908,0.12495 0.264405,0.22598 0.409782,0.31426 -1.828198,3.69503 -2.312175,6.90608 -2.341656,7.10844 -0.112779,0.78606 0.434162,1.51399 1.220116,1.62685 0.465618,0.067 0.912085,-0.0987 1.221194,-0.40772 0.211481,-0.21148 0.359981,-0.49208 0.405768,-0.81234 0.01073,-0.0646 1.003585,-6.69762 5.694062,-11.3881 0.410787,-0.41079 0.533661,-1.03016 0.312153,-1.56689 -0.222853,-0.53806 -0.747356,-0.8877 -1.328994,-0.88766 z"
       fill="#66471b"
       style="stroke-width:1.43796"
       sodipodi:nodetypes="ccsccssccscsccccscccscccscsccc" />
  </g>
</svg>
