<?xml version="1.0" encoding="UTF-8" standalone="no"?>
<!DOCTYPE svg PUBLIC "-//W3C//DTD SVG 1.1//EN" "http://www.w3.org/Graphics/SVG/1.1/DTD/svg11.dtd">
<svg width="100%" height="100%" viewBox="0 0 255 255" version="1.1" xmlns="http://www.w3.org/2000/svg" xmlns:xlink="http://www.w3.org/1999/xlink" xml:space="preserve" xmlns:serif="http://www.serif.com/" style="fill-rule:evenodd;clip-rule:evenodd;">
    <g transform="matrix(1,0,0,1,-625,-1.66667)">
        <g id="lemoncette">
        </g>
        <g id="lemon_final" transform="matrix(1.05956,0,0,1.00658,290.762,-0.00658801)">
            <rect x="315.45" y="1.662" width="240.667" height="253.333" style="fill:none;"/>
            <clipPath id="_clip1">
                <rect x="315.45" y="1.662" width="240.667" height="253.333"/>
            </clipPath>
            <g clip-path="url(#_clip1)">
                <g transform="matrix(1.15855,0.166743,-0.152817,1.17649,298.714,-30.8082)">
                    <g transform="matrix(0.149271,0.896737,-0.912882,0.151959,225.357,-3.03644)">
                        <g transform="matrix(7.04762,0,0,7.04762,0.500558,1.45139)">
                            <path d="M11.405,3.339C17.885,2.064 19.858,4.604 23.06,3.423C26.262,2.242 23.153,6.243 22.315,6.931C21.475,7.619 14.174,11.74 11.008,10.229C7.842,8.718 7.826,4.043 11.405,3.339Z" style="fill:rgb(92,145,59);fill-rule:nonzero;"/>
                        </g>
                        <g transform="matrix(7.04762,0,0,7.04762,0.500558,1.45139)">
                            <path d="M15.001,16C14.697,16 14.396,15.862 14.2,15.6C13.513,14.684 12.892,13.645 12.235,12.544C9.967,8.749 7.396,4.446 0.783,2.976C0.244,2.856 -0.096,2.322 0.024,1.783C0.144,1.243 0.678,0.905 1.217,1.024C8.671,2.68 11.599,7.581 13.952,11.519C14.582,12.573 15.176,13.568 15.8,14.4C16.132,14.842 16.042,15.469 15.6,15.8C15.42,15.935 15.21,16 15.001,16Z" style="fill:rgb(119,178,85);fill-rule:nonzero;"/>
                        </g>
                        <g transform="matrix(7.04762,0,0,7.04762,0.500558,1.45139)">
                            <path d="M34.3,31.534C34.302,31.517 34.297,31.506 34.297,31.491C37.071,26.156 36.944,16.378 30.951,10.384C25.15,4.584 17.271,4.563 12.184,6.317C10.605,6.931 9.267,6.383 8.369,7.282C7.488,8.163 8.018,10.001 7.655,11.101C4.486,16.303 4.25,24.126 10.343,30.218C15.305,35.18 20.781,37.06 30.323,35.071C30.325,35.069 30.328,35.07 30.331,35.069C31.479,34.851 33.281,35.592 33.897,34.975C34.982,33.89 34.206,32.617 34.3,31.534Z" style="fill:rgb(255,204,77);fill-rule:nonzero;"/>
                        </g>
                        <g transform="matrix(7.04762,0,0,7.04762,0.500558,1.45139)">
                            <path d="M8.208,6.583C8.208,6.583 3.938,5.993 1.351,11.182C-1.236,16.37 1.933,20.307 1.641,23.835C1.348,27.365 3.207,25.1 4.262,23.39C5.317,21.68 8.492,18.495 9.2,14.121C9.907,9.745 9.13,7.663 8.208,6.583Z" style="fill:rgb(119,178,85);fill-rule:nonzero;"/>
                        </g>
                    </g>
                    <g transform="matrix(0.825348,0.653224,-0.653224,0.825348,94.7371,-41.1212)">
                        <path d="M127.565,132.475L127.565,132.425C127.565,132.425 141.578,132.155 148.424,134.911C152.101,136.391 160.692,141.337 168.096,141.956C181.248,143.055 190.616,141.736 196.016,141.781C197.666,141.794 204.786,137.236 205.876,136.78C208.507,135.679 215.615,135.981 215.615,135.981C215.615,135.981 214.282,169.983 193.065,197.211C173.627,222.157 156.37,231.865 142.937,237.483C140.844,238.359 136.4,247.933 132.515,249.883C130.256,251.017 129.199,251.609 126.834,251.785C125.086,251.915 123.775,251.046 121.968,249.701C119.356,247.757 114.925,241.523 113.177,240.081C102.198,231.021 86.769,227.944 61.165,197.761C40.892,173.862 40.234,136.075 40.234,136.075C40.234,136.075 46.624,135.729 49.255,136.83C50.345,137.286 57.465,141.844 59.115,141.831C64.515,141.786 74.524,143.341 87.676,142.242C95.08,141.623 103.03,136.441 106.706,134.961C113.55,132.206 127.554,132.475 127.565,132.475Z" style="fill:rgb(125,106,90);"/>
                    </g>
                </g>
                <g id="path4607" transform="matrix(0.909962,0.143437,-0.136265,0.957855,449.509,-841.468)">
                    <path d="M67.523,948.736C65.831,948.79 64.47,950.196 64.47,951.889C64.47,952.883 64.939,953.82 65.735,954.415L82.649,967.395C81.178,967.979 79.637,969.344 77.872,971.873C71.709,980.702 72.457,991.87 79.544,996.818C86.632,1001.76 97.374,998.618 103.537,989.79C104.794,987.99 105.453,986.435 105.658,985.052L107.201,986.238C107.765,986.701 108.473,986.954 109.203,986.954C110.933,986.954 112.357,985.53 112.357,983.799C112.357,982.784 111.867,981.829 111.043,981.237L69.575,949.415C68.992,948.954 68.265,948.713 67.523,948.736L67.523,948.736Z" style="fill:rgb(104,70,1);fill-rule:nonzero;"/>
                </g>
                <g id="path4607-3" transform="matrix(0.909962,0.143437,-0.136265,0.957855,453.607,-839.385)">
                    <path d="M140.9,1005.35C139.208,1005.41 137.846,1006.82 137.846,1008.51C137.846,1009.5 138.316,1010.44 139.112,1011.03L156.025,1024.01C154.554,1024.6 153.014,1025.96 151.248,1028.49C145.085,1037.32 145.833,1048.49 152.921,1053.44C160.008,1058.38 170.751,1055.24 176.914,1046.41C178.17,1044.61 178.829,1043.05 179.034,1041.67L180.578,1042.86C181.142,1043.32 181.849,1043.57 182.579,1043.57C184.31,1043.57 185.734,1042.15 185.734,1040.42C185.734,1039.4 185.244,1038.45 184.42,1037.86L142.952,1006.03C142.369,1005.57 141.642,1005.33 140.9,1005.35L140.9,1005.35Z" style="fill:rgb(104,70,1);fill-rule:nonzero;"/>
                </g>
                <g id="path1190" transform="matrix(0.912348,0.125527,-0.11925,0.960366,434.118,-838.947)">
                    <path d="M78.331,936.064C104.717,939.383 122.927,949.888 124.992,972.721" style="fill:none;fill-rule:nonzero;stroke:rgb(104,70,1);stroke-width:3.38px;"/>
                </g>
                <g id="path1190-5" transform="matrix(0.912348,0.125527,-0.11925,0.960366,434.118,-838.947)">
                    <path d="M149.121,990.687C175.507,994.006 193.717,1004.51 195.782,1027.34" style="fill:none;fill-rule:nonzero;stroke:rgb(104,70,1);stroke-width:3.38px;"/>
                </g>
                <g id="path4900" transform="matrix(0.865815,0.0800545,-0.0760518,0.911384,400.756,-780.957)">
                    <path d="M112.959,1099.9C112.959,1099.9 120.744,1096.38 121.506,1089.02C122.268,1081.66 113.658,1075.53 113.658,1075.53C113.658,1075.53 116.321,1081.01 116.424,1087.12C116.527,1093.23 112.959,1099.9 112.959,1099.9Z" style="fill:rgb(66,44,1);fill-rule:nonzero;"/>
                </g>
                <g id="path1188" transform="matrix(0.865815,0.0800545,-0.0760518,0.911384,400.756,-780.957)">
                    <path d="M47.021,1032.29C47.021,1032.29 64.247,1046.06 80.008,1058.66C95.768,1071.26 106.269,1082.11 101.637,1094.59" style="fill:none;fill-rule:nonzero;stroke:rgb(66,44,1);stroke-width:6.75px;stroke-linecap:round;"/>
                </g>
            </g>
        </g>
    </g>
</svg>
