<?xml version="1.0" encoding="utf-8"?>
<!-- Generator: Adobe Illustrator 24.3.0, SVG Export Plug-In . SVG Version: 6.00 Build 0)  -->
<svg version="1.1" id="Layer_1" xmlns="http://www.w3.org/2000/svg" xmlns:xlink="http://www.w3.org/1999/xlink" x="0px" y="0px"
	 viewBox="0 0 512 512" style="enable-background:new 0 0 512 512;" xml:space="preserve">
<style type="text/css">
	.st0{fill:#5C913B;}
	.st1{fill:#77B255;}
	.st2{fill:#FFCC4D;}
	.st3{fill:url(#SVGID_1_);}
	.st4{fill:#7D6A5A;}
	.st5{fill:none;}
	.st6{fill:#684601;}
	.st7{opacity:0.8;fill:#FFFFFF;enable-background:new    ;}
	.st8{fill:#5DADEC;}
	.st9{display:none;fill:#422C01;}
	.st10{display:none;fill:none;}
	.st11{fill:#422C01;}
</style>
<g id="Back-leaf">
	<path class="st0" d="M125.4-27.1c117-29.6,154.2,19.1,211.7-6.4s3.1,55.6-11.6,69.8c-14.8,14.1-145.3,100.4-203.6,72.9
		S60.9-10.6,125.4-27.1z"/>
</g>
<g id="Stem">
	<path class="st1" d="M193,223c-5.9,0.3-11.4-2.4-14.8-7.1c-13.3-17.4-25.4-37.1-38.3-58.2C95.6,85.3,45.3,3-76-19
		c-9.8-1.9-16.5-12.1-14.7-22.8c1.7-10.7,11-18,21-16.1C66.9-33.1,124.1,60.5,170.2,135.9c12.3,20.1,23.9,39.1,36,54.8
		c6.4,8.5,5.4,20.6-2.5,27.8C200.8,221.2,197.1,222.7,193,223z"/>
</g>
<g id="Base">
	<g id="Lemon">
		<path class="st2" d="M59.8,55c0.6-0.6,1.1-1.1,1.7-1.6c8.6-7.3,20.5-7.7,40.9-10l3.2-0.5c20.5-3,82.3-29,168.6-24.9l0,0
			c83.7,3.8,163,40.2,221.5,102l2.6,86.2c45.6,48.1,65.4,236.4-4.8,307.1s-247.3,46-295.3-4.7l-85.3-2.5
			c-58.7-61.8-92.3-144.3-93.8-230.8l0,0c-2-89,24.7-152.1,28-173.3l0.4-3.3c2.7-21.1,3.4-33.2,10.7-42.1
			C58.5,56.1,59.1,55.6,59.8,55L59.8,55L59.8,55z"/>
	</g>
	
		<linearGradient id="SVGID_1_" gradientUnits="userSpaceOnUse" x1="221.3576" y1="2682.0574" x2="-65.1894" y2="2395.51" gradientTransform="matrix(0.9999 1.161072e-02 -1.161072e-02 0.9999 111.6331 -2374.9358)">
		<stop  offset="0" style="stop-color:#FFFFFF;stop-opacity:0.8"/>
		<stop  offset="0" style="stop-color:#FFF8E8;stop-opacity:0.8024"/>
		<stop  offset="0" style="stop-color:#FFEEC4;stop-opacity:0.807"/>
		<stop  offset="0" style="stop-color:#FFE5A4;stop-opacity:0.8121"/>
		<stop  offset="0" style="stop-color:#FFDD88;stop-opacity:0.8178"/>
		<stop  offset="0" style="stop-color:#FFD772;stop-opacity:0.8242"/>
		<stop  offset="0" style="stop-color:#FFD261;stop-opacity:0.8317"/>
		<stop  offset="0" style="stop-color:#FFCE56;stop-opacity:0.841"/>
		<stop  offset="0" style="stop-color:#FFCD4F;stop-opacity:0.854"/>
		<stop  offset="0.1499" style="stop-color:#FFC94D;stop-opacity:0.8985"/>
		<stop  offset="0.2163" style="stop-color:#FEBE4C;stop-opacity:0.9056"/>
		<stop  offset="0.3081" style="stop-color:#FDAD4B;stop-opacity:0.9123"/>
		<stop  offset="0.3952" style="stop-color:#FB954A;stop-opacity:0.9186"/>
		<stop  offset="0.4149" style="stop-color:#FB8E4A;stop-opacity:0.92"/>
		<stop  offset="0.6368" style="stop-color:#F96949;stop-opacity:0.94"/>
	</linearGradient>
	<path class="st3" d="M35.7,73.5L4.9,191.3c0,0,5.9,199.3,88.9,292.9c0,0,128.2-104.5,215.3-190.9
		c40.7-40.3,186.5-173.2,186.5-173.2C362.8-19.4,190.4,20.2,153.2,30.5c-22.5,6.2-45.6,12-45.6,12c0.2,0-9.2,1.1-14.8,1.6
		c-11.3,1.3-22.9,2.7-27,7.5C50.6,68.6,35.7,73.5,35.7,73.5"/>
	<g id="Shape">
		<path class="st4" d="M112.9,506.2c1.1-1.4,13.5-14.8,21.2-18c3.2-1.4,28.1-6.5,31.7-10.1c11.7-12,36.6-30.4,63.1-61.7
			c14.9-17.7,21.6-47.1,26.7-58.6c9.3-21.4,41.4-52.3,41.4-52.3s29.7-31.4,50.3-40c11-4.6,39.8-12.1,57.2-27
			c30.9-26.3,48.6-50,60.5-61.7c3.7-3.5,9.9-29.8,11.2-33.2c3.5-8.3,19.5-23.2,19.5-23.2l0.1,0.1c95.6,100.9,118.1,247.7,68.2,370.1
			c-16.3,40,1.2,65.3-15.1,81.2c-15.8,16.2-39.8-2.3-78.9,13.5C350.3,633.7,208.6,607.1,112.9,506.2L112.9,506.2z"/>
	</g>
</g>
<line class="st5" x1="75.8" y1="54.8" x2="109.3" y2="42.4"/>
<g id="Front-leaf">
	<path class="st1" d="M64.9,35c0,0-27.1-3-58.4,16C-0.2,55-7,60.1-13.8,66.4c-15.4,14.2-30.7,34.7-43.3,64.4
		C-101.2,235-41.4,310.3-44.7,380.1c-3.4,69.8,29.2,23.8,47.3-10.8s74-99.6,84.4-186.4S82.2,55.7,64.9,35z"/>
</g>
<path class="st6" d="M176.1,238.3c11.1-6.7,14.4-20,4-20.9c-10.3-0.1-23.5,9.2-23.5,9.2l-63.7,40.5c0.9-0.9-15.9,11-9.6,18.5
	c4.3,5.2,16-2.3,29.4-9.3L176.1,238.3z"/>
<path class="st6" d="M118.9,312c0,0,2.4,24.4,24.8,47.1c19.5,17.4,59.7,26,78.7,12.3c8.1-5.9,35.3-38.5,9.2-74.5
	c-27.9-38.3-49.4-42.4-65.8-40.2C112,263.7,118.9,312,118.9,312z"/>
<ellipse transform="matrix(1.161262e-02 -0.9999 0.9999 1.161262e-02 -169.5348 527.6307)" class="st7" cx="182.1" cy="349.6" rx="8.4" ry="8.1"/>
<ellipse transform="matrix(1.161262e-02 -0.9999 0.9999 1.161262e-02 -141.5719 458.061)" class="st7" cx="160.9" cy="300.6" rx="24.7" ry="24"/>
<path class="st8" d="M242.1,320.3c6.3,26.1-14.6,57.1-37.4,58.9c-14.8,1.4-48.1,1-69.1-29.5c0,0,46.3,10.2,63.2,1.6
	C215.8,342.9,242,324,242.1,320.3z"/>
<path class="st6" d="M249.3,165.2c-5.4,5.5-20.3,23-21.4,6.7c-0.8-12.6,14.1-33.3,13.4-32.3l48.2-68.8c0,0,8.2-9.6,16.2-2.4
	c5.1,4.4,9.3,9.8-12.5,36L249.3,165.2z"/>
<path class="st6" d="M323.9,118.1c0.4,0.2,18.4-1.6,42.7,18.4c20,16.3,36.2,56.7,25.3,77.9c-4.8,9-27.4,19.1-70.1,16.6
	c-50.5-22.3-50.6-60-50.6-60S260.4,115.6,323.9,118.1"/>
<ellipse transform="matrix(1.161262e-02 -0.9999 0.9999 1.161262e-02 115.1937 540.3036)" class="st7" cx="330.9" cy="211.9" rx="8.4" ry="8.1"/>
<path class="st8" d="M285.9,205.1c0,0,39.2,10.6,51.2,10.1c18.1-3.1,44.3-3.9,58.4-16.3C393.1,268.1,307.9,238,285.9,205.1z"/>
<path class="st9" d="M309.8,454.1c0,0-8.7-24.2-11.4-46.4c-2.7-22.7,2.4-109.7,82.9-101.1c37.4,3.2,56.8,17.7,56.8,17.7
	C432.6,327.8,349.9,336,309.8,454.1z"/>
<path class="st8" d="M193.5,388.2c0,0-31.5,49.7-38.1,72c-1.9,4.3-7.7,53.4,39.1,57.1c46.6,3.6,39.6-56.7,37.6-60.9
	C230.1,438.3,193.5,388.2,193.5,388.2z"/>
<line class="st10" x1="6" y1="-66.6" x2="618" y2="506.6"/>
<ellipse transform="matrix(1.161189e-02 -0.9999 0.9999 1.161189e-02 148.1955 472.4879)" class="st7" cx="313.1" cy="161.3" rx="24.7" ry="24"/>
<path class="st11" d="M442.4,335.2c28-6.8-44.3-54.9-106.6-0.3c-54.3,47.7-28.2,143.9-14.9,118.2C321,453.1,339.7,360.1,442.4,335.2
	z"/>
</svg>
