<?xml version="1.0" encoding="UTF-8" standalone="no"?>
<!DOCTYPE svg PUBLIC "-//W3C//DTD SVG 1.1//EN" "http://www.w3.org/Graphics/SVG/1.1/DTD/svg11.dtd">
<svg width="100%" height="100%" viewBox="0 0 255 256" version="1.1" xmlns="http://www.w3.org/2000/svg" xmlns:xlink="http://www.w3.org/1999/xlink" xml:space="preserve" xmlns:serif="http://www.serif.com/" style="fill-rule:evenodd;clip-rule:evenodd;stroke-linejoin:round;stroke-miterlimit:2;">
    <g transform="matrix(1,0,0,1,-568.667,0)">
        <g id="lemoncette">
        </g>
        <g id="lemon_final" transform="matrix(1.07595,0,0,1,258.68,-0.175358)">
            <rect x="288.105" y="0.175" width="237" height="255" style="fill:none;"/>
            <g transform="matrix(0.185826,-1.08931,0.976698,0.192885,253.869,238.025)">
                <g transform="matrix(0.149271,0.896737,-0.912882,0.151959,225.357,-3.03644)">
                    <g transform="matrix(7.04762,0,0,7.04762,0.500558,1.45139)">
                        <path d="M11.405,3.339C17.885,2.064 19.858,4.604 23.06,3.423C26.262,2.242 23.153,6.243 22.315,6.931C21.475,7.619 14.174,11.74 11.008,10.229C7.842,8.718 7.826,4.043 11.405,3.339Z" style="fill:rgb(92,145,59);fill-rule:nonzero;"/>
                    </g>
                    <g transform="matrix(7.04762,0,0,7.04762,0.500558,1.45139)">
                        <path d="M15.001,16C14.697,16 14.396,15.862 14.2,15.6C13.513,14.684 12.892,13.645 12.235,12.544C9.967,8.749 7.396,4.446 0.783,2.976C0.244,2.856 -0.096,2.322 0.024,1.783C0.144,1.243 0.678,0.905 1.217,1.024C8.671,2.68 11.599,7.581 13.952,11.519C14.582,12.573 15.176,13.568 15.8,14.4C16.132,14.842 16.042,15.469 15.6,15.8C15.42,15.935 15.21,16 15.001,16Z" style="fill:rgb(119,178,85);fill-rule:nonzero;"/>
                    </g>
                    <g transform="matrix(7.04762,0,0,7.04762,0.500558,1.45139)">
                        <path d="M34.3,31.534C34.302,31.517 34.297,31.506 34.297,31.491C37.071,26.156 36.944,16.378 30.951,10.384C25.15,4.584 17.271,4.563 12.184,6.317C10.605,6.931 9.267,6.383 8.369,7.282C7.488,8.163 8.018,10.001 7.655,11.101C4.486,16.303 4.25,24.126 10.343,30.218C15.305,35.18 20.781,37.06 30.323,35.071C30.325,35.069 30.328,35.07 30.331,35.069C31.479,34.851 33.281,35.592 33.897,34.975C34.982,33.89 34.206,32.617 34.3,31.534Z" style="fill:rgb(255,204,77);fill-rule:nonzero;"/>
                    </g>
                    <g transform="matrix(7.04762,0,0,7.04762,0.500558,1.45139)">
                        <path d="M8.208,6.583C8.208,6.583 3.938,5.993 1.351,11.182C-1.236,16.37 1.933,20.307 1.641,23.835C1.348,27.365 3.207,25.1 4.262,23.39C5.317,21.68 8.492,18.495 9.2,14.121C9.907,9.745 9.13,7.663 8.208,6.583Z" style="fill:rgb(119,178,85);fill-rule:nonzero;"/>
                    </g>
                </g>
                <g transform="matrix(0.825348,0.653224,-0.653224,0.825348,94.7371,-41.1212)">
                    <path d="M127.565,132.475L127.565,132.425C127.565,132.425 141.578,132.155 148.424,134.911C152.101,136.391 160.692,141.337 168.096,141.956C181.248,143.055 190.616,141.736 196.016,141.781C197.666,141.794 204.786,137.236 205.876,136.78C208.507,135.679 215.615,135.981 215.615,135.981C215.615,135.981 214.282,169.983 193.065,197.211C173.627,222.157 156.37,231.865 142.937,237.483C140.844,238.359 136.4,247.933 132.515,249.883C130.256,251.017 129.199,251.609 126.834,251.785C125.086,251.915 123.775,251.046 121.968,249.701C119.356,247.757 114.925,241.523 113.177,240.081C102.198,231.021 86.769,227.944 61.165,197.761C40.892,173.862 40.234,136.075 40.234,136.075C40.234,136.075 46.624,135.729 49.255,136.83C50.345,137.286 57.465,141.844 59.115,141.831C64.515,141.786 74.524,143.341 87.676,142.242C95.08,141.623 103.03,136.441 106.706,134.961C113.55,132.206 127.554,132.475 127.565,132.475Z" style="fill:rgb(125,106,90);"/>
                </g>
            </g>
            <g id="path7048" transform="matrix(0.959895,0.104556,-0.0971754,1.0328,370.746,-914.196)">
                <path d="M89.686,959.662C75.512,953.802 59.271,960.525 53.398,974.696C49.833,983.295 50.95,992.654 55.498,999.993C47.095,1001.97 39.695,1007.8 36.137,1016.39C30.276,1030.55 37.001,1046.81 51.175,1052.67C53.182,1053.5 55.238,1054.05 57.291,1054.39C80.9,1059.99 114.451,1045.05 128.154,1030.07C129.044,1009.78 115.875,975.497 95.224,962.773C93.532,961.557 91.685,960.498 89.686,959.662L89.686,959.662ZM100.418,947.712C93.072,934.247 98.021,917.376 111.477,910.022C119.646,905.556 129.071,905.665 136.858,909.396C137.922,900.829 142.924,892.848 151.084,888.391C164.54,881.046 181.42,885.994 188.774,899.45C189.807,901.362 190.579,903.342 191.134,905.352C199.233,928.224 187.972,963.183 174.539,978.416C154.467,981.474 118.971,972.049 104.107,952.88C102.714,951.333 101.463,949.61 100.418,947.712L100.418,947.712Z" style="fill:rgb(221,46,68);fill-rule:nonzero;"/>
            </g>
            <g transform="matrix(0.867742,-0.847436,0.738496,0.875418,-25.9091,357.539)">
                <g transform="matrix(4.60728,0,0,4.60215,314.431,64.7038)">
                    <path d="M18,21C14.377,21 11.973,20.578 9,20C8.321,19.869 7,20 7,22C7,26 11.595,31 18,31C24.404,31 29,26 29,22C29,20 27.679,19.868 27,20C24.027,20.578 21.623,21 18,21Z" style="fill:rgb(66,44,1);fill-rule:nonzero;"/>
                </g>
                <g transform="matrix(4.60728,0,0,4.9345,314.431,54.6157)">
                    <path d="M9,22C9,22 12,23 18,23C24,23 27,22 27,22C27,22 25,26 18,26C11,26 9,22 9,22Z" style="fill:white;fill-rule:nonzero;"/>
                </g>
            </g>
        </g>
    </g>
</svg>
