<?xml version="1.0" encoding="UTF-8" standalone="no"?>
<!DOCTYPE svg PUBLIC "-//W3C//DTD SVG 1.1//EN" "http://www.w3.org/Graphics/SVG/1.1/DTD/svg11.dtd">
<svg width="100%" height="100%" viewBox="0 0 255 255" version="1.1" xmlns="http://www.w3.org/2000/svg" xmlns:xlink="http://www.w3.org/1999/xlink" xml:space="preserve" xmlns:serif="http://www.serif.com/" style="fill-rule:evenodd;clip-rule:evenodd;">
    <g transform="matrix(1,0,0,1,-575.667,-3)">
        <g id="lemon_final" transform="matrix(1.00131,0,0,0.996094,292.04,4.67748)">
            <rect x="283.256" y="-1.684" width="254.667" height="256" style="fill:none;"/>
            <g transform="matrix(1.09718,0.123063,-0.118103,1.06401,293.082,-26.4875)">
                <g transform="matrix(0.149271,0.896737,-0.912882,0.151959,225.357,-3.03644)">
                    <g transform="matrix(7.04762,0,0,7.04762,0.500558,1.45139)">
                        <path d="M11.405,3.339C17.885,2.064 19.858,4.604 23.06,3.423C26.262,2.242 23.153,6.243 22.315,6.931C21.475,7.619 14.174,11.74 11.008,10.229C7.842,8.718 7.826,4.043 11.405,3.339Z" style="fill:rgb(92,145,59);fill-rule:nonzero;"/>
                    </g>
                    <g transform="matrix(7.04762,0,0,7.04762,0.500558,1.45139)">
                        <path d="M15.001,16C14.697,16 14.396,15.862 14.2,15.6C13.513,14.684 12.892,13.645 12.235,12.544C9.967,8.749 7.396,4.446 0.783,2.976C0.244,2.856 -0.096,2.322 0.024,1.783C0.144,1.243 0.678,0.905 1.217,1.024C8.671,2.68 11.599,7.581 13.952,11.519C14.582,12.573 15.176,13.568 15.8,14.4C16.132,14.842 16.042,15.469 15.6,15.8C15.42,15.935 15.21,16 15.001,16Z" style="fill:rgb(119,178,85);fill-rule:nonzero;"/>
                    </g>
                    <g transform="matrix(7.04762,0,0,7.04762,0.500558,1.45139)">
                        <path d="M34.3,31.534C34.302,31.517 34.297,31.506 34.297,31.491C37.071,26.156 36.944,16.378 30.951,10.384C25.15,4.584 17.271,4.563 12.184,6.317C10.605,6.931 9.267,6.383 8.369,7.282C7.488,8.163 8.018,10.001 7.655,11.101C4.486,16.303 4.25,24.126 10.343,30.218C15.305,35.18 20.781,37.06 30.323,35.071C30.325,35.069 30.328,35.07 30.331,35.069C31.479,34.851 33.281,35.592 33.897,34.975C34.982,33.89 34.206,32.617 34.3,31.534Z" style="fill:rgb(255,204,77);fill-rule:nonzero;"/>
                    </g>
                    <g transform="matrix(7.04762,0,0,7.04762,0.500558,1.45139)">
                        <path d="M8.208,6.583C8.208,6.583 3.938,5.993 1.351,11.182C-1.236,16.37 1.933,20.307 1.641,23.835C1.348,27.365 3.207,25.1 4.262,23.39C5.317,21.68 8.492,18.495 9.2,14.121C9.907,9.745 9.13,7.663 8.208,6.583Z" style="fill:rgb(119,178,85);fill-rule:nonzero;"/>
                    </g>
                </g>
                <g transform="matrix(0.825348,0.653224,-0.653224,0.825348,94.7371,-41.1212)">
                    <path d="M127.565,132.475L127.565,132.425C127.565,132.425 141.578,132.155 148.424,134.911C152.101,136.391 160.692,141.337 168.096,141.956C181.248,143.055 190.616,141.736 196.016,141.781C197.666,141.794 204.786,137.236 205.876,136.78C208.507,135.679 215.615,135.981 215.615,135.981C215.615,135.981 214.282,169.983 193.065,197.211C173.627,222.157 156.37,231.865 142.937,237.483C140.844,238.359 136.4,247.933 132.515,249.883C130.256,251.017 129.199,251.609 126.834,251.785C125.086,251.915 123.775,251.046 121.968,249.701C119.356,247.757 114.925,241.523 113.177,240.081C102.198,231.021 86.769,227.944 61.165,197.761C40.892,173.862 40.234,136.075 40.234,136.075C40.234,136.075 46.624,135.729 49.255,136.83C50.345,137.286 57.465,141.844 59.115,141.831C64.515,141.786 74.524,143.341 87.676,142.242C95.08,141.623 103.03,136.441 106.706,134.961C113.55,132.206 127.554,132.475 127.565,132.475Z" style="fill:rgb(125,106,90);"/>
                </g>
            </g>
            <g transform="matrix(0.988767,0.00118441,-0.00117211,0.988767,6.66772,7.32)">
                <g id="path13687" transform="matrix(0.998693,0,0,1.00392,282.59,-872.271)">
                    <path d="M106.058,928C106.058,928 127.199,928.928 140.879,933.253C154.558,937.579 162.756,942.509 162.756,942.509" style="fill:none;fill-rule:nonzero;stroke:rgb(104,70,1);stroke-width:4.63px;"/>
                </g>
                <g id="path136871" serif:id="path13687" transform="matrix(-0.0463896,-1.00284,-0.997615,0.0466325,1418.34,217.568)">
                    <path d="M106.058,928C106.058,928 127.199,928.928 140.879,933.253C154.558,937.579 162.756,942.509 162.756,942.509" style="fill:none;fill-rule:nonzero;stroke:rgb(104,70,1);stroke-width:4.63px;"/>
                </g>
            </g>
            <g transform="matrix(0.988636,0.0162461,-0.0160774,0.988636,7.28291,-0.358228)">
                <g id="circle14003" transform="matrix(0.716561,0.699292,-0.69565,0.720312,282.59,-872.271)">
                    <circle cx="725.004" cy="662.831" r="31.231" style="fill:rgb(255,120,146);"/>
                </g>
                <g id="circle14005" transform="matrix(0.716561,0.699292,-0.69565,0.720312,282.59,-872.271)">
                    <circle cx="853.978" cy="659.877" r="31.231" style="fill:rgb(255,120,146);"/>
                </g>
            </g>
            <g transform="matrix(0.988541,0.0213187,-0.0210972,0.988541,8.44064,-1.88571)">
                <g id="path13650" transform="matrix(0.998693,0,0,1.00392,282.59,-872.271)">
                    <path d="M123.595,980.248C123.595,980.248 122.638,978.363 120.775,975.878C118.911,973.393 115.241,969.224 111.429,966.74C99.56,959.008 84.499,957.746 84.499,957.746L81.887,963.211C81.887,963.211 96.145,968.129 103.006,974.601C107.063,978.427 109.531,981.363 110.942,983.245C112.353,985.127 112.529,985.585 112.529,985.585L123.595,980.248Z" style="fill:rgb(104,70,1);fill-rule:nonzero;"/>
                </g>
                <g id="path13650-9" transform="matrix(0.998693,0,0,1.00392,282.59,-872.271)">
                    <path d="M153.687,1008.97C153.687,1008.97 155.66,1009.73 158.322,1011.33C160.985,1012.93 165.508,1016.15 168.368,1019.69C177.274,1030.7 180.07,1045.56 180.07,1045.56L174.901,1048.71C174.901,1048.71 168.55,1035.03 161.41,1028.87C157.189,1025.23 154.016,1023.07 152,1021.86C149.983,1020.65 149.509,1020.52 149.509,1020.52L153.687,1008.97Z" style="fill:rgb(104,70,1);fill-rule:nonzero;"/>
                </g>
            </g>
            <g transform="matrix(0.987587,0.0485644,-0.0480599,0.987587,12.8443,-12.5913)">
                <g id="mouth" transform="matrix(0.998693,0,0,1.00392,282.59,-872.271)">
                    <path d="M128.623,1055.81C124.026,1051.71 114.173,1049.63 97.796,1035.64C80.574,1020.94 73.198,1001.58 63.424,1003.1C54.18,1004.54 44.468,1042.8 67.314,1062.99C91.793,1084.62 132.241,1078.4 131.522,1062.55C131.378,1059.37 130.421,1057.41 128.623,1055.81Z" style="fill:rgb(66,44,1);fill-rule:nonzero;"/>
                </g>
                <g id="teeth" transform="matrix(0.998693,0,0,1.00392,282.59,-872.271)">
                    <path d="M70.212,1013.85C69.073,1016.06 70.318,1033.44 84.104,1045.88C97.89,1058.33 116.778,1063.43 120.763,1059.88C120.763,1059.88 107.26,1054.28 91.01,1038.61C72.778,1021.67 70.212,1013.85 70.212,1013.85Z" style="fill:white;fill-rule:nonzero;"/>
                </g>
            </g>
        </g>
    </g>
</svg>
