<svg xmlns="http://www.w3.org/2000/svg" xmlns:xlink="http://www.w3.org/1999/xlink" viewBox="0 0 1280 1024"><defs><style>.cls-1{fill:#2a6797;}.cls-2{fill:#193d59;}.cls-3{fill:#1e4b6e;}.cls-4{fill:#4289c1;}.cls-5{fill:url(#linear-gradient);}.cls-6{fill:url(#linear-gradient-2);}.cls-7{fill:url(#linear-gradient-3);}.cls-8{fill:#ffcc4d;}.cls-9{fill:#7d6a5a;}.cls-10{fill:#684601;}.cls-11{fill:#f55;}.cls-12{fill:#fff;}.cls-13{fill:#77b255;}.cls-14{fill:#fdcb58;}</style><linearGradient id="linear-gradient" x1="605.09" y1="986.61" x2="622.7" y2="1015.7" gradientUnits="userSpaceOnUse"><stop offset="0" stop-color="#ff0"/><stop offset="0.61" stop-color="#ffff6f" stop-opacity="0.56"/><stop offset="1" stop-color="#ffffb1" stop-opacity="0.31"/></linearGradient><linearGradient id="linear-gradient-2" x1="605.09" y1="939.61" x2="622.7" y2="968.7" xlink:href="#linear-gradient"/><linearGradient id="linear-gradient-3" x1="605.09" y1="892.61" x2="622.7" y2="921.7" xlink:href="#linear-gradient"/></defs><g id="Layer_1" data-name="Layer 1"><path class="cls-1" d="M767.25,651.48H441.75C364.72,651.48,279,795.28,279,987v37H393.68C398,983.88,419,836.6,419,834c0-3,3-6,6-5s10.34,180,11,195H772c-.4-21.32-3.84-205.94-2-205s2,1,4,10c1.83,8.21,25.31,164.69,27.87,195H930V987C930,795.28,844.32,651.48,767.25,651.48Z"/><path class="cls-2" d="M646.13,746.91c18.15,13.88,37.11,27.78,44,30.77.37.16.33-2.46.25-2.54-40.1-51.14-83.65-78.85-83.65-78.85l.27-.21-.29,0h-.61l.22.18s-42.81,27.33-82.64,77.64c.26,2.3.75,3.53,1.55,3.06,6.09-3.57,24.07-17.09,41.58-30.53a48.93,48.93,0,0,0,2.29,6.14c3.2,6.27,10.82,20.21,10.82,20.21s-15.42,12.54-21.2,57.19h95.59c-5.75-35.59-21.12-57.19-21.12-57.19s7.68-13.94,10.88-20.21A50,50,0,0,0,646.13,746.91Z"/><path class="cls-2" d="M665.75,1024H551.82c-.2-60.46,7.18-194,7.18-194h95S664.12,964.07,665.75,1024Z"/><path class="cls-3" d="M606.58,711.46c-11.51.69-29.74,21-27.84,29.63,8.75,39.82,16,29.27,28.49,29.27,11.1,0,19,9.75,28.49-31C638.18,728.66,614.55,710.94,606.58,711.46Z"/><path class="cls-3" d="M652.71,1024H562.87c1.65-62.34,6-143.25,17.29-194,6.48-29.16,15.24-48.37,27.08-48.37s20.69,19.21,27.31,48.37C646.06,880.75,650.79,961.67,652.71,1024Z"/><path class="cls-4" d="M606.05,696.11c-1.54-1.14-32.41-24-59-44.63-17.26-13.37-32.72-25.79-37.22-30.68-5.55-6-19.87,20.2-19.62,27q.06,1.62.27,3.72c3,29.9,28.3,128.56,32.15,123.66l1-1.21c39.83-50.33,82.64-77.64,82.64-77.64A1.46,1.46,0,0,1,606.05,696.11Zm97.08-75.31c-4.5,4.9-20,17.31-37.21,30.68-26.52,20.55-57.29,43.36-59,44.6l-.27.21s43.55,27.71,83.65,78.85l0,0c.08,0,.2-.14.3-.14,4.63.62,28.91-94.3,31.82-123.54q.21-2.1.27-3.72C723,641,708.66,614.76,703.13,620.8Z"/><polygon class="cls-5" points="591 989 601 989 607 974 614 989 625 989 616 998 618 1011 609 1002 602 1012 601 997 591 989"/><polygon class="cls-6" points="591 942 601 942 607 927 614 942 625 942 616 951 618 964 609 955 602 965 601 950 591 942"/><polygon class="cls-7" points="591 895 601 895 607 880 614 895 625 895 616 904 618 917 609 908 602 918 601 903 591 895"/></g><g id="lemonhead"><path class="cls-8" d="M845,428c-4.11-40.32-15.51-76.91-27.5-106-9.07-.82-54.09-21.73-66.39-27.51L754,315l-39,34s28,3,35,38-16,61-33,67-42-7-50-31,3-42,3-42l-15,6-8-21s27-4,60-35c21.91-20.59,34-31.32,39.61-36.21-24.45,5.72-56.57,10-93,12C643.82,329.09,636,333.11,634,343s-7,11-6,27c-5-2-5-17-4-27,0,0,17.5-28.55,28.63-36.16-15.43.85-31.62,1.3-48.3,1.3q-7.74,0-15.32-.13c4,7,17,26,16,32s-8,35-10,32c1-11,2-23-2-34,0,0-7.27-21.36-8.33-30.07-19.54-.42-38.21-1.46-55.56-3,5.39,8.67,12.25,18.41,18.89,24.1,14,12,13,17,33,29l-12,19-13-10s5,27-14,49-43,13-43,13-23-6-28-38,13-51,13-51a48.91,48.91,0,0,1,36-16c-4.24-5.45-9.94-14.92-13.78-21.55-7.67-1-15-2.05-21.91-3.22L491,312c-26,10-41,22-45,56s16,48,16,48-6,8-20,13c-3-5-25-27-18-70,6.1-37.46,29.22-55.26,43.78-62.93-29.37-6.29-49-14.62-53.67-23.88a8,8,0,0,1-.43-.95,304.37,304.37,0,0,0-22.5,37.57c-23.07,45.46-34.4,93.9-38.51,132.05,5.38.12,18.73,2.31,38.33,18.14,29,9,38,13,69,15s58-4,88-13c48,2,83-4,135,32,24,14,56,17,73,19s41,3,41,3,13-12,37-11c4,.66,7.49,1.32,9.43,1.7A321.7,321.7,0,0,0,845,428Zm-46-33c-2,45-23,65-34,76-6-5-17-16-17-16s34-24,28-60-30-50-30-50l17-18S801,350,799,395Z"/><path class="cls-8" d="M751,293.72l.1.75L754,315l-39,34s28,3,35,38-16,61-33,67-42-7-50-31,3-42,3-42l-15,6-8-21s27-4,60-35c21.91-20.59,34-31.32,39.61-36.21-24.45,5.72-56.57,10-93,12C643.82,329.09,636,333.11,634,343s-7,11-6,27c-5-2-5-17-4-27,0,0,17.5-28.55,28.63-36.16-15.43.85-31.62,1.3-48.3,1.3q-7.74,0-15.32-.13c4,7,17,26,16,32s-8,35-10,32c1-11,2-23-2-34,0,0-7.27-21.36-8.33-30.07-19.54-.42-38.21-1.46-55.56-3,5.39,8.67,12.25,18.41,18.89,24.1,14,12,13,17,33,29l-12,19-13-10s5,27-14,49-43,13-43,13-23-6-28-38,13-51,13-51a48.91,48.91,0,0,1,36-16c-4.24-5.45-9.94-14.92-13.78-21.55-7.67-1-15-2.05-21.91-3.22L491,312c-26,10-41,22-45,56s16,48,16,48-6,8-20,13c-3-5-25-27-18-70,6.1-37.46,29.22-55.26,43.78-62.93-29.37-6.29-49-14.62-53.67-23.88a8,8,0,0,1-.43-.95c.79-1.13,1.6-2.26,2.42-3.38q2.58-3.56,5.3-7.05c.77-1,1.57-2,2.38-3q4-5,8.22-9.79l.25-.28c31-34.82,86-45.23,140.45-45.34h0a530.23,530.23,0,0,1,59.62,3.49A688.11,688.11,0,0,1,730,224l41.11,23.72L782,254s.91,1.3,2.51,3.79c1.12,1.74,2.58,4,4.31,6.91.59,1,1.22,2,1.88,3.16,1,1.68,2.06,3.52,3.18,5.49C788.9,281.05,773.6,288.05,751,293.72Z"/><path class="cls-8" d="M776,395c-6-36-30-50-30-50l17-18s38,23,36,68-23,65-34,76c-6-5-17-16-17-16S782,431,776,395Z"/><path class="cls-8" d="M843.43,505.7c-1.16,8.29-3.84,15.95-5.43,23.3a321,321,0,0,1-11,39c-6.52,18.47-11,29-11,29l-39.9-4.67L644.94,577l-64-7.5L462.39,555.58,442,553.19h0a239.86,239.86,0,0,1-25-6.19c-21-6.34-46.1-17.68-56.94-36-1.82-3.07-2.27-7.55-3-11-1.74-8.28-5.53-19.48-5-35,.25-7.31-.24-15.67.67-24.14,5.38.12,18.73,2.31,38.33,18.14,29,9,38,13,69,15s58-4,88-13c48,2,83-4,135,32,24,14,56,17,73,19s41,3,41,3,13-12,37-11C838,504.66,841.49,505.32,843.43,505.7Z"/><path class="cls-9" d="M839.25,529.18c-2.87,11-6.64,24.76-11,38.87-9.1,29.69-20.66,60.78-31.28,70-22,19-79.33,64.44-86.67,77.22S672,740,665,742s-49,18-54,26-36,33-41,31-6,6-38-47c-23-13-35-15-57-37-18.73-18.73-94.71-81.66-118.13-204.23A387.16,387.16,0,0,1,351,464.61c-.53-7.67,1.72-23.75,1.72-23.75S371.4,443.17,391,459c29,9,38,13,69,15s58-4,88-13c48,2,83-4,135,32,24,14,56,17,73,19s41,3,41,3,13-12,37-11c4,.66,9.43,1.7,9.43,1.7A136.45,136.45,0,0,1,839.25,529.18Z"/><path id="mouth" class="cls-10" d="M409,570s22-83,67-85c12,0,20,22,51,27s30.8-24.58,54-22c36,4,39,45,61,47s20-26,53-23,62,19,81,78-10,63-23,66-33,1-41,27c-9,26-19,34-35,32s-30-6-45-26c-6-8-4-9-19-11s-20-4-54,28c-18,6-32,8-46-14s-19-41-29-30c-13,10-33,13-47-5S406,580,409,570Z"/><path id="tongue" class="cls-11" d="M636,663l51,7s-12-108-86-111c-12,0-51,41-88,34s-46-63-84-32c-19,42,54,74,59,78s39,7,60-6c26-16,54-39,67-19S636,663,636,663Z"/><path id="teeth" class="cls-12" d="M499,653s93-5,205,17c-6,25-14,40-30,38s-30-17-34-31c-14-8-23-9-30-9s-28,2-44,18-20,16-24,16S520,693,499,653Z"/><path id="teeth_2" data-name="teeth 2" class="cls-12" d="M448,518s19-25,30-21,21,21,42,27,33-3,33-3,10-19,29-17,38,34,38,34a31.21,31.21,0,0,0,25,10c16-1,33-14,39-21s36,1,50,13c-18,5-57,17-123,12S448,518,448,518Z"/><path class="cls-13" d="M817.5,322c-9.07-.82-54.09-21.73-66.39-27.51l-.1-.75c22.59-5.67,37.89-12.67,42.87-20.37,2.33,4.11,4.91,8.82,7.63,14.08-1.88-5.68-4-11.24-6.35-16.69a8.3,8.3,0,0,0,.27-.94c6,9.27,16.33,27.62,21.29,39.9-1,1.13-2,2.24-3,3.35Q815.62,317.39,817.5,322Z"/><path class="cls-13" d="M795.16,270.74c2.34,5.45,4.47,11,6.35,16.69-2.72-5.26-5.3-10-7.63-14.08-5,7.7-20.28,14.7-42.87,20.37l.1.75L750,294l-1.6-.75L748,293s23-17.24,35.42-25.14a59.84,59.84,0,0,1,5.4-3.16A4.14,4.14,0,0,1,791,264c.39.13,1.28,1.2,2.52,3l.62.9c.4.59.83,1.24,1.29,1.94A8.3,8.3,0,0,1,795.16,270.74Z"/><path class="cls-13" d="M818,322l-.5,0q-1.87-4.59-3.79-8.93c1-1.11,2-2.22,3-3.35C819.62,316.89,820.7,322,818,322Z"/><path class="cls-10" d="M750,387c7,35-16,61-33,67s-42-7-50-31,3-42,3-42l-15,6-8-21s27-4,60-35c21.91-20.59,34-31.32,39.61-36.21l1.83-1.58c1.55-1.33,2.23-1.88,2.23-1.88l.34,2.39.1.75L754,315l-39,34S743,352,750,387Z"/><path class="cls-10" d="M799,395c-2,45-23,65-34,76-6-5-17-16-17-16s34-24,28-60-30-50-30-50l17-18S801,350,799,395Z"/><path class="cls-10" d="M654,306c-.11.26-.23.52-.35.78C643.82,329.09,636,333.11,634,343s-7,11-6,27c-5-2-5-17-4-27,0,0,17.5-28.55,28.63-36.16C653.1,306.52,653.56,306.24,654,306Z"/><path class="cls-10" d="M605,340c-1,6-8,35-10,32,1-11,2-23-2-34,0,0-7.27-21.36-8.33-30.07-.52-4.21.42-5.47,4.33.07h0C593,315,606,334,605,340Z"/><path class="cls-10" d="M569,377l-13-10s5,27-14,49-43,13-43,13-23-6-28-38,13-51,13-51a48.91,48.91,0,0,1,36-16c-4.24-5.45-9.94-14.92-13.78-21.55C503.72,298.12,502,295,502,295l17-8s4.15,8.29,10.11,17.9c5.39,8.67,12.25,18.41,18.89,24.1,14,12,13,17,33,29Z"/><path class="cls-10" d="M462,416s-6,8-20,13c-3-5-25-27-18-70,6.1-37.46,29.22-55.26,43.78-62.93A63.78,63.78,0,0,1,480,291l4.31,8.23L491,312c-26,10-41,22-45,56S462,416,462,416Z"/></g><g id="hat"><path class="cls-1" d="M846,237.65c0,26.09-10.63,50.61-29.28,72-5-12.28-15.28-30.63-21.29-39.9a8.3,8.3,0,0,1-.27.94c-.39-1-.81-1.92-1.24-2.88-.12-.3-.26-.6-.4-.9-1.37-3.09-2.82-6.15-4.31-9.17H423.08c-.53,1-1.09,2-1.68,3-1.35,2.31-2.85,4.67-4.42,7.05-.94,1.43-1.9,2.88-2.87,4.33a8,8,0,0,1-.43-.95,304.37,304.37,0,0,0-22.5,37.57c-18.19-21.24-28.51-45.39-28.51-71.16,0-83.37,108.34-151,241.66-151C737.85,86.61,846,154.28,846,237.65Z"/><path class="cls-1" d="M795.65,247.72v20.14a8.49,8.49,0,0,1-.22,1.94,8.3,8.3,0,0,1-.27.94,10.87,10.87,0,0,1-1.28,2.61c-5,7.7-20.28,14.7-42.87,20.37-.32.08-.64.17-1,.24-1.12.28-2.27.56-3.43.83-24.45,5.72-56.57,10-93,12q-.51,0-1,.06c-15.43.85-31.62,1.3-48.3,1.3q-7.74,0-15.32-.13l-4.34-.08c-19.54-.42-38.21-1.46-55.56-3q-11.88-1.06-22.89-2.45c-7.67-1-15-2.05-21.91-3.22q-8.7-1.47-16.53-3.16c-29.37-6.29-49-14.62-53.67-23.88a8,8,0,0,1-.43-.95,9,9,0,0,1-.67-3.38V247.72Z"/><path class="cls-4" d="M785.6,247.72V207.44s-75.52-45.31-181.27-45.31-181.21,45.31-181.21,45.31v40.28Z"/><path class="cls-14" d="M795.65,247.72H413a10.07,10.07,0,1,0,0,20.14H795.65a10.07,10.07,0,1,0,0-20.14Z"/><path class="cls-14" d="M644.79,127.47h0a13.47,13.47,0,0,0-10.44,5.16c-5.14,1.26-12.21,1.54-21.18-1.3a13.66,13.66,0,0,0-19,0c-9,2.84-16.06,2.56-21.19,1.3a13.49,13.49,0,0,0-10.45-5.17h0a13.74,13.74,0,0,0,0,27.47h0c0,54.94,27.43,68.68,41.15,68.68s41.16-13.74,41.16-68.68h0a13.74,13.74,0,1,0,0-27.48Z"/></g></svg>