<?xml version="1.0" encoding="UTF-8"?><svg id="Layer_1" xmlns="http://www.w3.org/2000/svg" viewBox="0 0 512 512"><defs><style>.cls-1{fill:rgba(125,106,90,0);}.cls-2{fill:none;}.cls-3{fill:#f4900c;}.cls-4{fill:#fff;}.cls-5{fill:#65471b;}.cls-6{fill:#422c01;}.cls-7{fill:#5dadec;}.cls-8{fill:#5c913b;}.cls-9{fill:#77b255;}.cls-10{fill:#7d6a5a;}.cls-10,.cls-11{fill-rule:evenodd;}.cls-11{fill:#ffcc4d;}</style></defs><rect id="Artboard1" class="cls-2" x="-66.97" y="-75.58" width="653.94" height="653.94" transform="translate(-101.61 257.48) rotate(-45)"/><g id="Lemoji-Base"><rect class="cls-1" x="-76.72" y="20.74" width="653.94" height="441.8" transform="translate(-97.57 247.72) rotate(-45)"/><g id="Lemon--PRODUCTION-"><g id="Back-leaf"><path class="cls-8" d="M458.35,161.68c22.47,86.99-12.45,115.12,6.51,157.8,18.96,42.68-40.16,2.83-50.53-8.12-10.37-10.99-73.97-107.5-54.52-151.2,19.46-43.7,86.13-46.52,98.53,1.52Z"/></g><g id="Stem"><path class="cls-9" d="M278.05,214.24c-.27-4.11,1.42-8.29,4.98-11.15,12.44-10.03,26.69-19.26,41.79-29.04,52.05-33.73,111.06-71.97,126.07-162.57,1.23-7.38,8.53-12.41,16.32-11.23,7.8,1.19,13.1,8.13,11.89,15.52-16.91,102.12-84.13,145.67-138.13,180.67-14.45,9.37-28.1,18.2-39.4,27.31-6,4.85-15.02,4.14-20.13-1.57-2.09-2.32-3.2-5.11-3.39-7.94Z"/></g><g id="Base"><g id="Lemon"><path class="cls-11" d="M398.49,113.38c.42,.41,.79,.83,1.14,1.25,5.31,6.38,5.76,15.18,7.59,30.46l.3,2.42c2.31,15.33,21.66,61.19,19.41,125.54v.02c-1.98,60.29-25.97,120.02-71.95,166.05,0,0-62.32,2.67-62.32,2.67-34.45,34.45-170.42,50.81-222.14-.91-51.71-51.71-35.36-184.06,.91-220.32l1.12-63.69c46.05-46.05,105.82-70.06,166.14-72.04h.02c64.35-2.25,110.21,17.09,125.54,19.4l2.42,.3c15.28,1.82,24.07,2.28,30.46,7.59,.43,.34,.85,.72,1.25,1.14l.07,.07,.07,.07Z"/></g><g id="Shape"><path class="cls-10" d="M72.6,156.94c.96,.87,10.88,9.95,13.18,15.59,1,2.45,4.91,20.92,7.59,23.54,8.75,8.61,22.27,27.08,45.22,46.52,12.92,10.94,34.25,15.73,42.6,19.36,15.55,6.75,38.18,30.42,38.18,30.42,0,0,22.93,21.91,29.39,37.15,3.47,8.19,9.1,29.61,19.98,42.46,19.32,22.82,36.55,35.84,45.16,44.58,2.63,2.67,21.6,7.09,24.1,8.14,6.03,2.53,16.91,14.36,16.97,14.42l-.09,.09c-72.21,72.21-178.17,90.25-267.07,54.07-29.04-11.82-47.18,1.46-58.81-10.51-11.86-11.64,1.35-29.77-10.45-58.75C-17.65,335.11,.39,229.15,72.6,156.94h0Z"/></g></g><g id="Front-leaf"><path class="cls-9" d="M412.9,116.92s5.47-58.14-70.32-90.09c-75.77-31.96-129.74,13.24-180.25,11.37-50.55-1.89-16.96,21.94,8.15,35.21,25.11,13.27,72.73,54.37,135.59,61.38,62.9,6.99,92.05-4.75,106.82-17.86Z"/></g></g></g><g><path class="cls-5" d="M383.25,306.49c4.26-4.21,4.35-11.05,.22-15.37-.51-.52-12.31-13.18-12.31-38.63,0-6.02-4.88-10.9-10.9-10.9-6.02,0-10.9,4.88-10.9,10.9h0c0,34.96,17.85,53.21,18.61,53.97,4.22,4.21,11.05,4.23,15.29,.04Z"/><path class="cls-5" d="M258.71,161.84c6.02,0,10.9-4.88,10.9-10.9,0-6.02-4.88-10.9-10.9-10.9h0c-25.3,0-37.96-11.66-38.63-12.3-4.28-4.24-11.18-4.2-15.42,.08-4.24,4.28-4.2,11.18,.08,15.42,.76,.76,19.01,18.61,53.97,18.61Z"/><path class="cls-4" d="M353.37,350.27c9.56-43.27-12.01-81.96-34.68-91.1-12.51-5.07-28.78,2.4-49.22,22.44-4.8,4.7-9.84,10.12-15.11,16.22-3.11,3.6-6.24,7.27-9.51,11.35-8.37,10.43-10.82,22.81-7.09,35.76,2.47,8.63,7.53,16.85,13.95,24.15,11,12.48,26.08,22.29,39.17,26.85,13.83,4.83,28,2.78,38.89-5.61,10.83-8.33,19.75-22.64,23.61-40.04Z"/><path class="cls-3" d="M329.77,390.32c10.82-8.34,19.75-22.65,23.6-40.05,1.91-8.88,2.55-17.99,1.9-27.05-3.13-10.02-8.64-19.13-16.07-26.55-18.42-18.38-45.97-24.1-70.19-14.59-4.66,4.6-9.55,9.83-14.66,15.76-3.11,3.6-6.24,7.27-9.51,11.36-8.37,10.43-10.82,22.81-7.09,35.76,2.47,8.63,7.53,16.85,13.95,24.15,11,12.48,26.08,22.29,39.17,26.85,13.84,4.82,28,2.78,38.9-5.62Z"/><circle class="cls-5" cx="296.8" cy="339.06" r="43.61"/><ellipse class="cls-4" cx="312.24" cy="308.21" rx="18.25" ry="14.21"/><path class="cls-7" d="M232.52,346.45c2.57,8.95,7.65,17.78,15.11,26.24,1.32,1.49,2.68,2.95,4.1,4.36,10.73,10.73,24.35,19.49,37.35,24.03,11.13,3.88,22.45,3.73,32.53-.12,3.11-1.19,4.79-4.57,3.85-7.76-5.01-16.9-33.02-12.02-48.06-27.06-15.05-15.05-24.19-38.63-40.52-40.52-3.03-.34-5.76,1.85-6.09,4.87,0,.08-.02,.16-.02,.24-.34,5.1,.22,10.36,1.76,15.71Z"/><path class="cls-4" d="M160.92,157.82c43.27-9.56,81.96,12.01,91.1,34.68,5.07,12.51-2.4,28.78-22.44,49.22-4.7,4.8-10.12,9.84-16.22,15.11-3.6,3.11-7.27,6.24-11.35,9.51-10.43,8.37-22.81,10.82-35.76,7.09-8.63-2.47-16.85-7.53-24.15-13.95-12.48-11-22.29-26.08-26.85-39.17-4.83-13.83-2.78-28,5.61-38.89,8.33-10.83,22.64-19.75,40.04-23.61Z"/><path class="cls-3" d="M202.01,266.35c-10.43,8.37-22.81,10.82-35.76,7.09-8.63-2.47-16.85-7.53-24.15-13.95-12.48-11-22.29-26.08-26.85-39.17-4.83-13.83-2.78-28,5.61-38.89,8.34-10.82,22.65-19.75,40.05-23.6,8.88-1.91,17.99-2.55,27.05-1.9,10.02,3.13,19.13,8.64,26.55,16.07,18.38,18.42,24.1,45.97,14.59,70.19-4.6,4.66-9.83,9.55-15.76,14.66-3.73,3.23-7.51,6.4-11.35,9.5Z"/><circle class="cls-5" cx="172.13" cy="214.38" r="43.61"/><path class="cls-4" d="M198.76,194.76c-7.95,4.82-19.42,3.71-25.61-2.48s-4.76-15.12,3.19-19.94c7.95-4.82,19.42-3.71,25.61,2.48s4.76,15.12-3.19,19.94Z"/><path class="cls-7" d="M164.74,278.67c-8.95-2.57-17.78-7.65-26.24-15.11-1.5-1.32-2.95-2.69-4.36-4.1-10.73-10.73-19.49-24.35-24.03-37.35-3.88-11.13-3.73-22.45,.12-32.53,1.19-3.11,4.57-4.79,7.76-3.85,16.9,5.01,12.02,33.02,27.06,48.06,15.05,15.05,38.63,24.19,40.52,40.52,.34,3.03-1.85,5.76-4.87,6.09-.08,0-.16,.02-.24,.02-5.3,.33-10.62-.26-15.71-1.76Z"/></g><path class="cls-6" d="M122.57,388.64c-44.79-44.79-26.81-82.93-26.01-84.54,2.7-5.6,9.43-7.94,15.03-5.24,5.6,2.7,7.94,9.43,5.24,15.03-.58,1.3-11,26.17,21.66,58.83,32.84,32.84,57.8,22.12,58.85,21.66,5.59-2.52,12.28-.14,14.89,5.41s.39,12.15-5.12,14.85c-1.61,.8-39.75,18.78-84.54-26.01Z"/></svg>