<?xml version="1.0" encoding="UTF-8" standalone="no"?>
<!DOCTYPE svg PUBLIC "-//W3C//DTD SVG 1.1//EN" "http://www.w3.org/Graphics/SVG/1.1/DTD/svg11.dtd">
<svg width="100%" height="100%" viewBox="0 0 255 255" version="1.1" xmlns="http://www.w3.org/2000/svg" xmlns:xlink="http://www.w3.org/1999/xlink" xml:space="preserve" xmlns:serif="http://www.serif.com/" style="fill-rule:evenodd;clip-rule:evenodd;stroke-linejoin:round;stroke-miterlimit:2;">
    <g transform="matrix(1,0,0,1,-632.667,-0.333333)">
        <g id="lemon_final" transform="matrix(0.875286,0,0,0.996094,374.921,-0.867948)">
            <rect x="294.47" y="1.206" width="291.333" height="256" style="fill:none;"/>
            <clipPath id="_clip1">
                <rect x="294.47" y="1.206" width="291.333" height="256"/>
            </clipPath>
            <g clip-path="url(#_clip1)">
                <g transform="matrix(1.00027,-0.972523,1.0677,0.847949,165.512,130.994)">
                    <g transform="matrix(0.149271,0.896737,-0.912882,0.151959,225.357,-3.03644)">
                        <g transform="matrix(7.04762,0,0,7.04762,0.500558,1.45139)">
                            <path d="M11.405,3.339C17.885,2.064 19.858,4.604 23.06,3.423C26.262,2.242 23.153,6.243 22.315,6.931C21.475,7.619 14.174,11.74 11.008,10.229C7.842,8.718 7.826,4.043 11.405,3.339Z" style="fill:rgb(92,145,59);fill-rule:nonzero;"/>
                        </g>
                        <g transform="matrix(7.04762,0,0,7.04762,0.500558,1.45139)">
                            <path d="M15.001,16C14.697,16 14.396,15.862 14.2,15.6C13.513,14.684 12.892,13.645 12.235,12.544C9.967,8.749 7.396,4.446 0.783,2.976C0.244,2.856 -0.096,2.322 0.024,1.783C0.144,1.243 0.678,0.905 1.217,1.024C8.671,2.68 11.599,7.581 13.952,11.519C14.582,12.573 15.176,13.568 15.8,14.4C16.132,14.842 16.042,15.469 15.6,15.8C15.42,15.935 15.21,16 15.001,16Z" style="fill:rgb(119,178,85);fill-rule:nonzero;"/>
                        </g>
                        <g transform="matrix(7.04762,0,0,7.04762,0.500558,1.45139)">
                            <path d="M34.3,31.534C34.302,31.517 34.297,31.506 34.297,31.491C37.071,26.156 36.944,16.378 30.951,10.384C25.15,4.584 17.271,4.563 12.184,6.317C10.605,6.931 9.267,6.383 8.369,7.282C7.488,8.163 8.018,10.001 7.655,11.101C4.486,16.303 4.25,24.126 10.343,30.218C15.305,35.18 20.781,37.06 30.323,35.071C30.325,35.069 30.328,35.07 30.331,35.069C31.479,34.851 33.281,35.592 33.897,34.975C34.982,33.89 34.206,32.617 34.3,31.534Z" style="fill:rgb(255,204,77);fill-rule:nonzero;"/>
                        </g>
                        <g transform="matrix(7.04762,0,0,7.04762,0.500558,1.45139)">
                            <path d="M8.208,6.583C8.208,6.583 3.938,5.993 1.351,11.182C-1.236,16.37 1.933,20.307 1.641,23.835C1.348,27.365 3.207,25.1 4.262,23.39C5.317,21.68 8.492,18.495 9.2,14.121C9.907,9.745 9.13,7.663 8.208,6.583Z" style="fill:rgb(119,178,85);fill-rule:nonzero;"/>
                        </g>
                    </g>
                    <g transform="matrix(0.825348,0.653224,-0.653224,0.825348,94.7371,-41.1212)">
                        <path d="M127.565,132.475L127.565,132.425C127.565,132.425 141.578,132.155 148.424,134.911C152.101,136.391 160.692,141.337 168.096,141.956C181.248,143.055 190.616,141.736 196.016,141.781C197.666,141.794 204.786,137.236 205.876,136.78C208.507,135.679 215.615,135.981 215.615,135.981C215.615,135.981 214.282,169.983 193.065,197.211C173.627,222.157 156.37,231.865 142.937,237.483C140.844,238.359 136.4,247.933 132.515,249.883C130.256,251.017 129.199,251.609 126.834,251.785C125.086,251.915 123.775,251.046 121.968,249.701C119.356,247.757 114.925,241.523 113.177,240.081C102.198,231.021 86.769,227.944 61.165,197.761C40.892,173.862 40.234,136.075 40.234,136.075C40.234,136.075 46.624,135.729 49.255,136.83C50.345,137.286 57.465,141.844 59.115,141.831C64.515,141.786 74.524,143.341 87.676,142.242C95.08,141.623 103.03,136.441 106.706,134.961C113.55,132.206 127.554,132.475 127.565,132.475Z" style="fill:rgb(125,106,90);"/>
                    </g>
                </g>
                <g transform="matrix(7.1531,-1.37255,1.55956,6.29764,322.414,41.0839)">
                    <path d="M35,11C35,13.762 32.762,16 30,16C27.238,16 25,13.762 25,11C25,8.238 29,1 30,1C31,1 35,8.238 35,11Z" style="fill:rgb(93,173,236);fill-rule:nonzero;"/>
                </g>
                <g transform="matrix(1.76518,0.299746,-0.340421,1.55405,530.265,-1478.83)">
                    <g id="mouth" transform="matrix(0.712,0.356233,-0.356233,0.712,395.887,246.509)">
                        <path d="M197.637,988.355C192.961,993.415 190.578,1004.26 174.617,1022.29C157.834,1041.24 135.743,1049.36 137.476,1060.12C139.115,1070.29 182.788,1080.99 205.828,1055.84C230.514,1028.89 223.415,984.373 205.324,985.164C201.694,985.322 199.467,986.375 197.637,988.355Z" style="fill:rgb(66,44,1);fill-rule:nonzero;"/>
                    </g>
                    <g id="teeth" transform="matrix(0.712,0.356233,-0.356233,0.712,395.887,246.509)">
                        <path d="M145.396,1056.09C148.247,1057.54 170.591,1055.96 186.591,1038.5C202.592,1021.03 209.153,997.103 204.594,992.054C204.594,992.054 197.392,1009.16 177.241,1029.75C155.461,1052.84 145.396,1056.09 145.396,1056.09Z" style="fill:white;fill-rule:nonzero;"/>
                    </g>
                </g>
                <g transform="matrix(9.0961,-1.45394,1.65129,8.00811,245.122,12.2045)">
                    <path d="M28.457,17.797C28.397,17.662 26.958,14.5 24,14.5C21.043,14.5 19.603,17.662 19.543,17.797C19.451,18.004 19.511,18.246 19.688,18.388C19.863,18.53 20.114,18.535 20.298,18.402C20.31,18.393 21.56,17.5 24,17.5C26.426,17.5 27.674,18.381 27.702,18.401C27.79,18.467 27.896,18.5 28,18.5C28.11,18.5 28.221,18.463 28.312,18.391C28.489,18.249 28.55,18.005 28.457,17.797ZM16.457,17.797C16.397,17.662 14.958,14.5 12,14.5C9.043,14.5 7.603,17.662 7.543,17.797C7.451,18.004 7.511,18.246 7.687,18.388C7.863,18.53 8.114,18.535 8.297,18.402C8.31,18.393 9.559,17.5 12,17.5C14.426,17.5 15.674,18.381 15.702,18.401C15.79,18.467 15.896,18.5 16,18.5C16.11,18.5 16.221,18.463 16.312,18.391C16.49,18.249 16.549,18.005 16.457,17.797Z" style="fill:rgb(102,69,0);fill-rule:nonzero;"/>
                </g>
            </g>
        </g>
    </g>
</svg>
