<?xml version="1.0" encoding="UTF-8" standalone="no"?>
<!DOCTYPE svg PUBLIC "-//W3C//DTD SVG 1.1//EN" "http://www.w3.org/Graphics/SVG/1.1/DTD/svg11.dtd">
<svg width="100%" height="100%" viewBox="0 0 255 255" version="1.1" xmlns="http://www.w3.org/2000/svg" xmlns:xlink="http://www.w3.org/1999/xlink" xml:space="preserve" xmlns:serif="http://www.serif.com/" style="fill-rule:evenodd;clip-rule:evenodd;">
    <g transform="matrix(1,0,0,1,-748.5,-3.16667)">
        <g id="lemoncette">
        </g>
        <g id="lemon_final" transform="matrix(0.894737,0,0,0.685484,327.828,49.6683)">
            <rect x="470.162" y="-67.838" width="285" height="372" style="fill:none;"/>
            <clipPath id="_clip1">
                <rect x="470.162" y="-67.838" width="285" height="372"/>
            </clipPath>
            <g clip-path="url(#_clip1)">
                <g transform="matrix(0.293194,-2.34345,1.73204,0.369193,321.754,365.48)">
                    <g transform="matrix(0.149271,0.896737,-0.912882,0.151959,225.357,-3.03644)">
                        <g transform="matrix(7.04762,0,0,7.04762,0.500558,1.45139)">
                            <path d="M11.405,3.339C17.885,2.064 19.858,4.604 23.06,3.423C26.262,2.242 23.153,6.243 22.315,6.931C21.475,7.619 14.174,11.74 11.008,10.229C7.842,8.718 7.826,4.043 11.405,3.339Z" style="fill:rgb(92,145,59);fill-rule:nonzero;"/>
                        </g>
                        <g transform="matrix(7.04762,0,0,7.04762,0.500558,1.45139)">
                            <path d="M15.001,16C14.697,16 14.396,15.862 14.2,15.6C13.513,14.684 12.892,13.645 12.235,12.544C9.967,8.749 7.396,4.446 0.783,2.976C0.244,2.856 -0.096,2.322 0.024,1.783C0.144,1.243 0.678,0.905 1.217,1.024C8.671,2.68 11.599,7.581 13.952,11.519C14.582,12.573 15.176,13.568 15.8,14.4C16.132,14.842 16.042,15.469 15.6,15.8C15.42,15.935 15.21,16 15.001,16Z" style="fill:rgb(119,178,85);fill-rule:nonzero;"/>
                        </g>
                        <g transform="matrix(7.04762,0,0,7.04762,0.500558,1.45139)">
                            <path d="M34.3,31.534C34.302,31.517 34.297,31.506 34.297,31.491C37.071,26.156 36.944,16.378 30.951,10.384C25.15,4.584 17.271,4.563 12.184,6.317C10.605,6.931 9.267,6.383 8.369,7.282C7.488,8.163 8.018,10.001 7.655,11.101C4.486,16.303 4.25,24.126 10.343,30.218C15.305,35.18 20.781,37.06 30.323,35.071C30.325,35.069 30.328,35.07 30.331,35.069C31.479,34.851 33.281,35.592 33.897,34.975C34.982,33.89 34.206,32.617 34.3,31.534Z" style="fill:rgb(255,204,77);fill-rule:nonzero;"/>
                        </g>
                        <g transform="matrix(7.04762,0,0,7.04762,0.500558,1.45139)">
                            <path d="M8.208,6.583C8.208,6.583 3.938,5.993 1.351,11.182C-1.236,16.37 1.933,20.307 1.641,23.835C1.348,27.365 3.207,25.1 4.262,23.39C5.317,21.68 8.492,18.495 9.2,14.121C9.907,9.745 9.13,7.663 8.208,6.583Z" style="fill:rgb(119,178,85);fill-rule:nonzero;"/>
                        </g>
                    </g>
                    <g transform="matrix(0.825348,0.653224,-0.653224,0.825348,94.7371,-41.1212)">
                        <path d="M127.565,132.475L127.565,132.425C127.565,132.425 141.578,132.155 148.424,134.911C152.101,136.391 160.692,141.337 168.096,141.956C181.248,143.055 190.616,141.736 196.016,141.781C197.666,141.794 204.786,137.236 205.876,136.78C208.507,135.679 215.615,135.981 215.615,135.981C215.615,135.981 214.282,169.983 193.065,197.211C173.627,222.157 156.37,231.865 142.937,237.483C140.844,238.359 136.4,247.933 132.515,249.883C130.256,251.017 129.199,251.609 126.834,251.785C125.086,251.915 123.775,251.046 121.968,249.701C119.356,247.757 114.925,241.523 113.177,240.081C102.198,231.021 86.769,227.944 61.165,197.761C40.892,173.862 40.234,136.075 40.234,136.075C40.234,136.075 46.624,135.729 49.255,136.83C50.345,137.286 57.465,141.844 59.115,141.831C64.515,141.786 74.524,143.341 87.676,142.242C95.08,141.623 103.03,136.441 106.706,134.961C113.55,132.206 127.554,132.475 127.565,132.475Z" style="fill:rgb(125,106,90);"/>
                    </g>
                </g>
                <g id="path4607" transform="matrix(1.07598,0.0986602,-0.0755865,1.40443,540.966,-1292.17)">
                    <path d="M81.058,994.097C81.058,994.097 68.033,1013.85 59.647,1022.73C51.345,1031.52 34.358,1043.04 34.358,1043.04L39.822,1052.76C39.822,1052.76 40.965,1052.12 42.488,1051.22C43.095,1052.08 43.736,1052.9 44.41,1053.7C44.41,1053.71 44.411,1053.71 44.411,1053.71C55.851,1066.97 74.024,1070.32 84.669,1061.13C84.669,1061.13 84.67,1061.13 84.67,1061.13C95.315,1051.95 94.66,1033.48 83.22,1020.22C82.181,1019.04 81.073,1017.93 79.906,1016.88C86,1007.97 90.71,999.688 90.71,999.688L81.058,994.097Z" style="fill:rgb(104,70,1);fill-rule:nonzero;"/>
                </g>
                <g id="path4607-5" transform="matrix(1.07598,0.0986602,-0.0755865,1.40443,533.536,-1285.51)">
                    <path d="M169.368,893.03C169.368,893.03 159.863,911.229 152.084,920.485C144.226,929.834 126.103,945.043 126.103,945.043L132.765,953.985C132.765,953.985 133.893,953.134 134.633,952.579C135.304,953.534 136.019,954.461 136.774,955.356C148.213,968.615 166.385,971.968 177.03,962.785C187.675,953.601 187.021,935.133 175.581,921.874C173.88,919.929 171.996,918.158 169.971,916.6C175.742,906.87 179.65,897.345 179.65,897.345L169.368,893.03Z" style="fill:rgb(104,70,1);fill-rule:nonzero;"/>
                </g>
                <g id="path903" transform="matrix(1.07598,0.0986602,-0.0755865,1.40443,537.761,-1293.4)">
                    <path d="M134.854,870.401C134.854,870.401 121.406,883.169 110.008,889.274C98.61,895.38 80.831,897.92 80.831,897.92" style="fill:none;fill-rule:nonzero;stroke:rgb(104,70,1);stroke-width:5.57px;"/>
                </g>
                <g id="path903-5" transform="matrix(1.07598,0.0986602,-0.0755865,1.40443,542.943,-1271.14)">
                    <path d="M17.911,1012.7C17.911,1012.7 29.017,997.845 33.747,985.811C38.476,973.777 38.919,955.822 38.919,955.822" style="fill:none;fill-rule:nonzero;stroke:rgb(104,70,1);stroke-width:5.57px;"/>
                </g>
                <g transform="matrix(1.42067,-1.82193,1.06939,1.42067,-408.441,1062.17)">
                    <g id="path920" transform="matrix(0.502358,0.776829,-0.595151,0.65571,1148.68,-648.053)">
                        <path d="M154.549,1081.81C153.982,1076.99 172.363,1066.48 181.535,1057.52C186.073,1053.08 192.231,1046.17 196.858,1038.48C201.581,1030.63 204.731,1022 205.19,1019.17C206.098,1013.57 209.25,1004.05 213.682,1012.43C218.114,1020.81 223.613,1045.43 220.083,1057.94C216.553,1070.45 201.04,1091.03 179.477,1091.8C157.914,1092.57 154.549,1081.81 154.549,1081.81Z" style="fill:rgb(66,44,1);fill-rule:nonzero;"/>
                    </g>
                    <g id="path962" transform="matrix(0.502358,0.776829,-0.595151,0.65571,1148.52,-649.166)">
                        <path d="M160.313,1080.94C160.313,1080.94 180.51,1067.04 191.418,1054.03C204.85,1038.01 211.703,1016.35 211.703,1016.35L214.673,1029.85C214.673,1029.85 211.456,1047.58 198.344,1062.71C182.456,1081.05 168.547,1086.04 168.547,1086.04C168.547,1086.04 166.71,1086.57 163.548,1084.33C162.173,1083.35 160.313,1080.94 160.313,1080.94Z" style="fill:white;fill-rule:nonzero;"/>
                    </g>
                </g>
                <g id="path922" transform="matrix(1.3194,-0.0748866,0.0573728,1.72217,365.854,-1602.92)">
                    <path d="M213.606,997.04C213.606,997.04 226.563,992.036 233.419,999.307C240.275,1006.58 237.323,1018.2 237.323,1018.2C237.323,1018.2 233.855,1008.26 228.647,1002.37C223.439,996.471 213.606,997.039 213.606,997.039L213.606,997.04Z" style="fill:rgb(66,44,1);fill-rule:nonzero;"/>
                </g>
            </g>
        </g>
    </g>
</svg>
