<?xml version="1.0" encoding="utf-8"?>
<!-- Generator: Adobe Illustrator 23.0.1, SVG Export Plug-In . SVG Version: 6.00 Build 0)  -->
<svg version="1.1" id="Layer_1" xmlns:serif="http://www.serif.com/"
	 xmlns="http://www.w3.org/2000/svg" xmlns:xlink="http://www.w3.org/1999/xlink" x="0px" y="0px" viewBox="0 0 562.4 600.5"
	 style="enable-background:new 0 0 562.4 600.5;" xml:space="preserve">
<style type="text/css">
	.st0{fill:#512888;}
	.st1{fill:#7349AC;}
	.st2{fill-rule:evenodd;clip-rule:evenodd;fill:#ED8C01;}
	.st3{clip-path:url(#SVGID_2_);}
	.st4{fill-rule:evenodd;clip-rule:evenodd;fill:#7D6A5A;}
	.st5{fill:#FFC901;}
	.st6{clip-path:url(#SVGID_4_);fill:#FFF05F;}
	.st7{clip-path:url(#SVGID_6_);fill:#FFF05F;}
	.st8{fill:#FFF05F;}
	.st9{clip-path:url(#SVGID_8_);fill:#FFC901;}
</style>
<g>
	<g id="Back-leaf" transform="matrix(1.12567,6.30636,-6.42053,1.1515,220.143,-2.15814)" serif:id="Back leaf">
		<path class="st0" d="M38.2-42.8c16.4-1.2,20.4,5.8,28.7,3.8c8.3-2-0.8,7.2-3.1,8.7c-2.3,1.5-21.8,9.7-29,4.9S29.2-42.1,38.2-42.8z
			"/>
	</g>
	<g id="Stem" transform="matrix(1.23169,6.28526,-6.39994,1.26745,217.08,-5.05983)">
		<g>
			<path class="st1" d="M42.6-8.8c-0.7-0.1-1.4-0.5-1.8-1.3c-1.4-2.5-2.5-5.4-3.7-8.4c-4.2-10.4-9-22.1-24.8-27.9
				c-1.3-0.5-1.9-1.9-1.4-3.3c0.5-1.3,1.9-2,3.2-1.6c17.8,6.5,23.2,19.9,27.6,30.7c1.2,2.9,2.3,5.6,3.5,7.9c0.7,1.2,0.2,2.8-1,3.5
				C43.7-8.9,43.1-8.8,42.6-8.8z"/>
		</g>
	</g>
	<g id="Shape" transform="matrix(0.931358,0.737331,-0.70992,0.963526,99.025,-88.8077)">
		<path class="st2" d="M283.2,463.8c-16.3-1.7-16.4-23.7-42.8-38.9c-81-46.4-128.8-139-113.7-238.6C142.9,80,226-2.2,326.7-22.7l0,0
			c14.6-3.7,19.3-25,34.1-23.1l0,0c14.7,1.6,12.9,23.2,25.9,30.1l0,0c91.1,42.7,146.7,141,130.6,247.3
			c-15.1,99.6-88.9,178.1-181,204.4C306.2,444.6,299.5,465.9,283.2,463.8z"/>
		<g>
			<defs>
				<path id="SVGID_1_" d="M283.2,463.8c-16.3-1.7-16.4-23.7-42.8-38.9c-81-46.4-128.8-139-113.7-238.6C142.9,80,226-2.2,326.7-22.7
					l0,0c14.6-3.7,19.3-25,34.1-23.1l0,0c14.7,1.6,12.9,23.2,25.9,30.1l0,0c91.1,42.7,146.7,141,130.6,247.3
					c-15.1,99.6-88.9,178.1-181,204.4C306.2,444.6,299.5,465.9,283.2,463.8z"/>
			</defs>
			<clipPath id="SVGID_2_">
				<use xlink:href="#SVGID_1_"  style="overflow:visible;"/>
			</clipPath>
			<g class="st3">
				<g id="Beard" transform="matrix(1.04411,-1.11022e-16,1.11022e-16,1.04616,-5.52752,-7.10573)">
					<path class="st4" d="M126.6,184.9c0,0,13.7,0.8,18.9,3.8c2.1,1.2,15.5,12.5,19,12.9c11.5,1.2,32.2,7,60.6,7.9
						c16,0.5,35-8.4,43.4-10.6c15.7-4.1,46.2,0.1,46.2,0.1s29.8,2.8,43.3,10.2c7.2,4,23.6,16.5,39.1,19.6c27.6,5.5,48,5.1,59.5,6.5
						c3.5,0.4,20.5-7.4,23-8.1c6-1.7,21,0.7,21,0.7l20.1,2.3C511.6,338.9,406.6,438.6,305.3,453c-14,3.5-18.5,23.9-32.6,22.1
						c-14.2-1.4-12.4-22.2-24.8-28.7c-90.5-36.5-163.7-152.8-141.3-263.8L126.6,184.9z"/>
				</g>
			</g>
		</g>
	</g>
	<g id="Top-visual-correction" serif:id="Top visual correction">
		<g id="Left" transform="matrix(-0.263185,-1.00003,-0.930706,0.263185,280.108,221.754)">
			<g id="Top" transform="matrix(0.972438,0.769853,-0.74269,1.008,99.001,-99.6669)">
				<path class="st2" d="M-95.8-37C-80.4-38.7-70-21.6-18.1-1.1c32.8,12.9-65.8,42.5-65.8,42.5L-95.8-37z"/>
			</g>
			<g id="Bottom" transform="matrix(0.972438,0.769853,-0.74269,1.008,98.9214,-99.7299)">
				<path class="st2" d="M-65.6-24.4C-54.4-17.3-7.2-5.3,42.1,35.1c35.2,28.8-89,33.2-89,33.2l-39.3-87.7
					C-86.2-19.4-77.4-31.8-65.6-24.4z"/>
			</g>
		</g>
		<g id="Right">
			<g id="Top1" transform="matrix(0.972438,0.769853,-0.74269,1.008,99.001,-99.6669)" serif:id="Top">
				<path class="st2" d="M350.6-37c15.4,1.8,20.2,20.7,64.3,52.3c27.8,19.9-76.2,26-76.2,26L350.6-37z"/>
			</g>
			<g id="Bottom1" transform="matrix(0.972438,0.769853,-0.74269,1.008,98.9214,-99.7299)" serif:id="Bottom">
				<path class="st2" d="M376-18c8.7,9.4,50.7,31.8,86.2,82c25.4,35.9-95.9,11.8-95.9,11.8l-11.7-93.6C354.6-17.8,366.9-27.9,376-18
					z"/>
			</g>
		</g>
	</g>
	<g id="Front-leaf" serif:id="Front leaf">
		<path class="st1" d="M484.4,137.2c0,0,6.4-68.3-82.6-105.8C312.9-6.1,249.5,47,190.2,44.8c-59.4-2.2-19.9,25.8,9.6,41.4
			c29.5,15.6,85.4,63.9,159.2,72.1C432.8,166.4,467.1,152.6,484.4,137.2z"/>
	</g>
	<g id="Left_eye">
		<path class="st5" d="M252.6,170.7l8,133.7l-89.6-81.6C171.1,222.8,193.8,154.6,252.6,170.7z"/>
		<g>
			<defs>
				<path id="SVGID_3_" d="M252.6,170.7l8,133.7l-89.6-81.6C171.1,222.8,193.8,154.6,252.6,170.7z"/>
			</defs>
			<clipPath id="SVGID_4_">
				<use xlink:href="#SVGID_3_"  style="overflow:visible;"/>
			</clipPath>
			<path class="st6" d="M186.3,237.5c0,0,22.2-59.1,71.5-45.8l3.4,114"/>
		</g>
	</g>
	<g id="Right_eye">
		<path class="st5" d="M429.3,347.3l-133.7-8l81.6,89.6C377.1,428.9,445.3,406.1,429.3,347.3z"/>
		<g>
			<defs>
				<path id="SVGID_5_" d="M429.3,347.3l-133.7-8l81.6,89.6C377.1,428.9,445.3,406.1,429.3,347.3z"/>
			</defs>
			<clipPath id="SVGID_6_">
				<use xlink:href="#SVGID_5_"  style="overflow:visible;"/>
			</clipPath>
			<path class="st7" d="M362.5,413.6c0,0,59.1-22.2,45.8-71.5l-114-3.4"/>
		</g>
	</g>
	<g id="Mouth">
		<path class="st8" d="M99.9,265.5c2,4,1.5,7.9,1,11.2c-1.3,9.3-4,26-3.2,36.6c0.1,1.6,0.4,4.7,2.7,6.7c2.2,1.9,5.1,1.9,6.5,1.9
			c12.1-0.1,24.1,1.2,36.2,0.8c10.2-0.3,14,2.6,11,13.7c-3.3,12.2-5,24.5-7.4,36.8c-3.2,16-3.2,16,12.2,14.3
			c16.5-1.8,33-3.5,49.5-5.6c7.8-1,10.4,1.6,9.4,9.4c-2.2,16.9-3.3,33.9-6,50.8c-1.8,11.1,0,15.1,12.2,11.6
			c12.6-3.6,25.5-4.5,38-7.9c12.2-3.4,15.6,0.6,15,12.1c-0.6,11.8,0.8,23.3,0.7,35c-0.1,6.5,2.3,8.5,8.8,7.6
			c8.1-1.1,16.1-1.9,24.2-2.6c4.1-0.4,7.3-0.9,11.3-1.1c9.5-0.4,11.8,0.7,12.8,1.4c3.6,2.2,6.8,7,5.7,10.8
			c-1.2,4.1-7.3,5.3-10.7,6.6c-25.6,9.9-51.2,19.3-76.8,29.3c-1.8,0.7-6.5,2.8-9.2,0.7c-2.4-1.8-2.1-5.9-2-8.1
			c0.5-10,1.1-23.8-3.4-28.8c-3.9-4.2-13.5-1.9-32.9,2.8c-11.7,2.8-23.8,3.7-35.6,6.2c-7.9,1.7-10.4-0.7-10-8.5
			c0.9-20.6,0.9-41.1,1.9-61.7c0.4-7.6-1.8-9.8-9.4-9.4c-20.6,1.1-41.1,1-61.7,1.9c-7.8,0.4-10-2.2-8.4-10.1
			c3.8-19.5,6.4-39,10.4-58.4c1.8-9-0.7-11.9-9.2-11.8c-7.5,0.1-14.7-1.6-22.2-1.7c-8.3-0.1-9-3.8-6.1-11.3
			c10.3-26.4,20.5-52.7,30.1-79.3c0.8-2.3,2.7-7.9,6.3-8.4C94.7,258.4,98.3,262.2,99.9,265.5z"/>
		<g>
			<defs>
				<path id="SVGID_7_" d="M99.9,265.5c2,4,1.5,7.9,1,11.2c-1.3,9.3-4,26-3.2,36.6c0.1,1.6,0.4,4.7,2.7,6.7c2.2,1.9,5.1,1.9,6.5,1.9
					c12.1-0.1,24.1,1.2,36.2,0.8c10.2-0.3,14,2.6,11,13.7c-3.3,12.2-5,24.5-7.4,36.8c-3.2,16-3.2,16,12.2,14.3
					c16.5-1.8,33-3.5,49.5-5.6c7.8-1,10.4,1.6,9.4,9.4c-2.2,16.9-3.3,33.9-6,50.8c-1.8,11.1,0,15.1,12.2,11.6
					c12.6-3.6,25.5-4.5,38-7.9c12.2-3.4,15.6,0.6,15,12.1c-0.6,11.8,0.8,23.3,0.7,35c-0.1,6.5,2.3,8.5,8.8,7.6
					c8.1-1.1,16.1-1.9,24.2-2.6c4.1-0.4,7.3-0.9,11.3-1.1c9.5-0.4,11.8,0.7,12.8,1.4c3.6,2.2,6.8,7,5.7,10.8
					c-1.2,4.1-7.3,5.3-10.7,6.6c-25.6,9.9-51.2,19.3-76.8,29.3c-1.8,0.7-6.5,2.8-9.2,0.7c-2.4-1.8-2.1-5.9-2-8.1
					c0.5-10,1.1-23.8-3.4-28.8c-3.9-4.2-13.5-1.9-32.9,2.8c-11.7,2.8-23.8,3.7-35.6,6.2c-7.9,1.7-10.4-0.7-10-8.5
					c0.9-20.6,0.9-41.1,1.9-61.7c0.4-7.6-1.8-9.8-9.4-9.4c-20.6,1.1-41.1,1-61.7,1.9c-7.8,0.4-10-2.2-8.4-10.1
					c3.8-19.5,6.4-39,10.4-58.4c1.8-9-0.7-11.9-9.2-11.8c-7.5,0.1-14.7-1.6-22.2-1.7c-8.3-0.1-9-3.8-6.1-11.3
					c10.3-26.4,20.5-52.7,30.1-79.3c0.8-2.3,2.7-7.9,6.3-8.4C94.7,258.4,98.3,262.2,99.9,265.5z"/>
			</defs>
			<clipPath id="SVGID_8_">
				<use xlink:href="#SVGID_7_"  style="overflow:visible;"/>
			</clipPath>
			<path class="st9" d="M74.2,338.9c0.2,2.1,0.7,3.9,1.6,5.4c1.9,2.9,5.6,4,9.1,4.1c5.3,0.1,16.8-3.1,19.3,3.9
				c0.4,1.2,0.4,2.6,0.2,3.9c-2,17.5-13.1,33.8-7.1,52c0.9,2.7,2.5,5.3,5,6.8c1.8,1.1,3.9,1.5,6,1.7c20.8,2.2,42.3-6.1,62.4,3.1
				c15,6.9,5.8,32.2,4.1,44.4c-1.4,10.1-3.3,24.8,2.4,28.7c2.4,1.7,4.7,0.9,16-1.6c9.3-2,26-8.1,34.7-2.4
				c5.4,3.5,10.1,11.2,13.2,16.8c17.7,32.4,58.7,13.7,83.9,4.3c19-7.1,27.4-10.8,28.2-9.4c0.9,1.7-10.3,9.9-19.9,15.6
				c-5.1,3-10.5,5.9-34.2,15.2c-50.8,20-27.3,7.5-44,14.7c-4,1.7-11.8,5.2-14.9,2.2c-1.7-1.6-1-4.3-1-8.2c0.1-8-2.6-18.5-7.5-22.1
				c-6.1-4.5-14.4,2.9-29.5,5.9c-1.7,0.3-31.8,6.2-44-6.1c-17.7-17.8,11.7-63.8-3.3-74.7c-4.4-3.2-8,0-25.5,1.7
				c-20.7,2-43,4.1-50.9-5.3c-13.9-16.3,24-58.3,9.8-75.1c-8.7-10.3-26,1.7-36.2-8.9c-17.5-18.1-2.3-80.2,34.3-97.4
				c12.9-6,29-6.7,30.6-2.9c1.6,3.8-13.7,7.8-26.2,25.1c-3.6,5-6.2,10.8-8.4,16.6c-2.6,7-4.5,14.3-5.8,21.7
				C75.9,323.7,73.6,332.4,74.2,338.9z"/>
		</g>
	</g>
</g>
</svg>
