<?xml version="1.0" encoding="UTF-8" standalone="no"?>
<!DOCTYPE svg PUBLIC "-//W3C//DTD SVG 1.1//EN" "http://www.w3.org/Graphics/SVG/1.1/DTD/svg11.dtd">
<svg width="100%" height="100%" viewBox="0 0 255 255" version="1.1" xmlns="http://www.w3.org/2000/svg" xmlns:xlink="http://www.w3.org/1999/xlink" xml:space="preserve" xmlns:serif="http://www.serif.com/" style="fill-rule:evenodd;clip-rule:evenodd;">
    <g transform="matrix(1,0,0,1,-570.667,-2)">
        <g id="lemon_final" transform="matrix(2.39707,0,0,2.01581,228.446,2.10151)">
            <rect x="142.766" y="-0.05" width="106.38" height="126.5" style="fill:none;"/>
            <clipPath id="_clip1">
                <rect x="142.766" y="-0.05" width="106.38" height="126.5"/>
            </clipPath>
            <g clip-path="url(#_clip1)">
                <g transform="matrix(0.106529,-0.67225,0.545382,0.122208,117.827,143.653)">
                    <g id="lemoncette">
                        <g>
                            <g transform="matrix(0.149271,0.896737,-0.912882,0.151959,225.357,-3.03644)">
                                <g transform="matrix(7.04762,0,0,7.04762,0.500558,1.45139)">
                                    <path d="M11.405,3.339C17.885,2.064 19.858,4.604 23.06,3.423C26.262,2.242 23.153,6.243 22.315,6.931C21.475,7.619 14.174,11.74 11.008,10.229C7.842,8.718 7.826,4.043 11.405,3.339Z" style="fill:rgb(92,145,59);fill-rule:nonzero;"/>
                                </g>
                                <g transform="matrix(7.04762,0,0,7.04762,0.500558,1.45139)">
                                    <path d="M15.001,16C14.697,16 14.396,15.862 14.2,15.6C13.513,14.684 12.892,13.645 12.235,12.544C9.967,8.749 7.396,4.446 0.783,2.976C0.244,2.856 -0.096,2.322 0.024,1.783C0.144,1.243 0.678,0.905 1.217,1.024C8.671,2.68 11.599,7.581 13.952,11.519C14.582,12.573 15.176,13.568 15.8,14.4C16.132,14.842 16.042,15.469 15.6,15.8C15.42,15.935 15.21,16 15.001,16Z" style="fill:rgb(119,178,85);fill-rule:nonzero;"/>
                                </g>
                                <g transform="matrix(7.04762,0,0,7.04762,0.500558,1.45139)">
                                    <path d="M34.3,31.534C34.302,31.517 34.297,31.506 34.297,31.491C37.071,26.156 36.944,16.378 30.951,10.384C25.15,4.584 17.271,4.563 12.184,6.317C10.605,6.931 9.267,6.383 8.369,7.282C7.488,8.163 8.018,10.001 7.655,11.101C4.486,16.303 4.25,24.126 10.343,30.218C15.305,35.18 20.781,37.06 30.323,35.071C30.325,35.069 30.328,35.07 30.331,35.069C31.479,34.851 33.281,35.592 33.897,34.975C34.982,33.89 34.206,32.617 34.3,31.534Z" style="fill:rgb(255,204,77);fill-rule:nonzero;"/>
                                </g>
                                <g transform="matrix(7.04762,0,0,7.04762,0.500558,1.45139)">
                                    <path d="M8.208,6.583C8.208,6.583 3.938,5.993 1.351,11.182C-1.236,16.37 1.933,20.307 1.641,23.835C1.348,27.365 3.207,25.1 4.262,23.39C5.317,21.68 8.492,18.495 9.2,14.121C9.907,9.745 9.13,7.663 8.208,6.583Z" style="fill:rgb(119,178,85);fill-rule:nonzero;"/>
                                </g>
                            </g>
                            <g transform="matrix(0.825348,0.653224,-0.653224,0.825348,94.7371,-41.1212)">
                                <path d="M127.565,132.475L127.565,132.425C127.565,132.425 141.578,132.155 148.424,134.911C152.101,136.391 160.692,141.337 168.096,141.956C181.248,143.055 190.616,141.736 196.016,141.781C197.666,141.794 204.786,137.236 205.876,136.78C208.507,135.679 215.615,135.981 215.615,135.981C215.615,135.981 214.282,169.983 193.065,197.211C173.627,222.157 156.37,231.865 142.937,237.483C140.844,238.359 136.4,247.933 132.515,249.883C130.256,251.017 129.199,251.609 126.834,251.785C125.086,251.915 123.775,251.046 121.968,249.701C119.356,247.757 114.925,241.523 113.177,240.081C102.198,231.021 86.769,227.944 61.165,197.761C40.892,173.862 40.234,136.075 40.234,136.075C40.234,136.075 46.624,135.729 49.255,136.83C50.345,137.286 57.465,141.844 59.115,141.831C64.515,141.786 74.524,143.341 87.676,142.242C95.08,141.623 103.03,136.441 106.706,134.961C113.55,132.206 127.554,132.475 127.565,132.475Z" style="fill:rgb(125,106,90);"/>
                            </g>
                        </g>
                    </g>
                </g>
                <g id="mouth" transform="matrix(0.828666,-0.0260969,0.0219461,0.985394,126.123,-973.894)">
                    <path d="M84.913,1108.19C86.819,1106.66 88.142,1103.06 94.679,1097.56C101.552,1091.79 109.883,1089.93 109.715,1086.18C109.556,1082.64 94.225,1077.2 84.826,1084.83C74.756,1093.01 75.426,1108.49 81.999,1108.97C83.318,1109.06 84.168,1108.79 84.913,1108.19Z" style="fill:rgb(66,44,1);fill-rule:nonzero;"/>
                </g>
                <g transform="matrix(0.893156,-0.506475,0.358176,0.893156,1.03437,121.907)">
                    <g id="leye" transform="matrix(0.329769,0.886697,-0.771775,0.312654,400.653,-946.828)">
                        <ellipse cx="902.714" cy="674.95" rx="18.471" ry="22.831" style="fill:rgb(249,249,249);stroke:rgb(104,70,1);stroke-width:2.3px;"/>
                    </g>
                    <g id="path4607-36" transform="matrix(0.779783,0.283168,-0.23813,0.927266,400.653,-946.828)">
                        <path d="M32.911,1066.31C35.398,1064.2 36.299,1067.4 38.894,1065.89C42.208,1064.34 43.97,1060.76 47.149,1060.82C49.66,1060.84 49.536,1064.39 54.768,1065.2C60.45,1065.85 61.34,1068.53 61.592,1070.61C61.503,1074.71 58.035,1074.79 57.509,1076.99C56.902,1079.98 59.228,1080.35 58.148,1082.91C56.703,1085.66 56.204,1086.88 53.612,1088.02C50.876,1089.23 50.439,1087.52 46.81,1088.97C42.091,1090.87 41.992,1093.09 39.517,1093.68C37.294,1094.44 30.902,1092.08 29.392,1090.37C27.947,1088.62 29.268,1086.19 29.554,1083.21C29.77,1080.95 26.289,1080.35 26.089,1077.63C25.68,1074.11 28.167,1074.36 29.658,1072.23C31.036,1069.7 30.541,1067.88 32.911,1066.31Z" style="fill:rgb(104,70,1);fill-rule:nonzero;"/>
                    </g>
                    <g id="leye1" serif:id="leye" transform="matrix(-0.426884,0.82603,-0.772417,-0.310404,400.653,-946.828)">
                        <ellipse cx="1096.75" cy="-323.578" rx="5.492" ry="7.206" style="fill:rgb(249,249,249);"/>
                    </g>
                    <g id="leye2" serif:id="leye" transform="matrix(-0.425289,0.827192,-0.773257,-0.307433,400.653,-946.828)">
                        <ellipse cx="1111.95" cy="-317.407" rx="3.433" ry="4.398" style="fill:rgb(249,249,249);"/>
                    </g>
                    <g id="path4851" transform="matrix(0.779783,0.283168,-0.23813,0.927266,400.653,-946.828)">
                        <path d="M18.722,1081.47L32.258,1067.7L38.558,1055.5L36.075,1041.1L33.076,1053.07L18.44,1069.5L18.722,1081.47Z" style="fill:rgb(255,204,77);fill-rule:nonzero;"/>
                    </g>
                    <g id="path4662" transform="matrix(0.779783,0.283168,-0.23813,0.927266,400.653,-946.828)">
                        <path d="M18.722,1081.47C18.722,1081.47 41.378,1067.29 40.001,1052C39.049,1041.44 37.354,1042.18 37.354,1042.18C37.354,1042.18 38.313,1053.55 35.103,1058.98C31.893,1064.41 18.722,1081.47 18.722,1081.47L18.722,1081.47Z" style="fill:rgb(125,106,90);fill-rule:nonzero;"/>
                    </g>
                    <g id="path4645" transform="matrix(0.981458,0.193102,-0.183301,1.1627,448.168,-1169.94)">
                        <ellipse cx="-80.799" cy="1090.73" rx="13.545" ry="9.572" style="fill:rgb(154,216,226);"/>
                    </g>
                </g>
                <g transform="matrix(1.0529,-0.261438,0.184887,1.0529,-23.8154,56.1755)">
                    <g id="reye" transform="matrix(0.523905,0.742889,-0.654047,0.578889,149.734,-960.105)">
                        <ellipse cx="889.656" cy="603.528" rx="17.272" ry="21.405" style="fill:rgb(249,249,249);stroke:rgb(104,70,1);stroke-width:2.16px;"/>
                    </g>
                    <g id="path4607-36-2" transform="matrix(0.815332,0,0,0.969539,149.734,-960.105)">
                        <path d="M97.815,1053.66C95.163,1055.57 94.529,1052.3 91.818,1053.59C88.388,1054.86 86.337,1058.29 83.174,1057.97C80.674,1057.74 81.089,1054.21 75.941,1052.97C70.332,1051.86 69.665,1049.12 69.585,1047.02C70.011,1042.94 73.474,1043.14 74.179,1040.99C75.03,1038.07 72.741,1037.51 74.029,1035.04C75.695,1032.43 76.292,1031.25 78.969,1030.32C81.795,1029.34 82.253,1029.14 85.989,1027.99C90.848,1026.5 90.967,1026.22 93.482,1025.85C95.76,1025.27 101.937,1028.14 103.301,1029.98C104.597,1031.84 103.08,1034.15 102.551,1037.1C102.149,1039.34 105.569,1040.21 105.545,1042.94C105.663,1046.48 103.205,1046.03 101.543,1048.04C99.963,1050.44 100.306,1052.29 97.815,1053.66L97.815,1053.66Z" style="fill:rgb(104,70,1);fill-rule:nonzero;"/>
                    </g>
                    <g id="leye3" serif:id="leye" transform="matrix(-0.205388,0.938272,-0.814977,-0.0286063,149.734,-960.105)">
                        <ellipse cx="1058.79" cy="-357.091" rx="5.492" ry="7.206" style="fill:rgb(249,249,249);"/>
                    </g>
                    <g id="leye4" serif:id="leye" transform="matrix(-0.203578,0.93883,-0.815051,-0.0254736,149.734,-960.105)">
                        <ellipse cx="1074.53" cy="-352.562" rx="3.433" ry="4.398" style="fill:rgb(249,249,249);"/>
                    </g>
                    <g id="path4868" transform="matrix(0.815332,0,0,0.969539,149.734,-960.105)">
                        <path d="M57.602,1025.16L65.07,1032.12L74.509,1033.64L97.9,1020.8L90.202,1018.93L57.602,1025.16Z" style="fill:rgb(255,204,77);fill-rule:nonzero;"/>
                    </g>
                    <g id="path4662-9" transform="matrix(0.815332,0,0,0.969539,149.734,-960.105)">
                        <path d="M97.9,1020.8C97.9,1020.8 75.476,1040.7 65.003,1033.26C54.531,1025.83 57.602,1025.16 57.602,1025.16C57.602,1025.16 66.964,1032 72.737,1030.46C78.511,1028.93 97.9,1020.8 97.9,1020.8Z" style="fill:rgb(125,106,90);fill-rule:nonzero;"/>
                    </g>
                    <g id="path4645-2" transform="matrix(-0.504847,0.923127,-0.823783,-0.50296,139.117,-1095.15)">
                        <ellipse cx="885.78" cy="-661.369" rx="14.087" ry="10.258" style="fill:rgb(154,216,226);"/>
                    </g>
                </g>
            </g>
        </g>
    </g>
</svg>
