<?xml version="1.0" encoding="UTF-8" standalone="no"?>
<!DOCTYPE svg PUBLIC "-//W3C//DTD SVG 1.1//EN" "http://www.w3.org/Graphics/SVG/1.1/DTD/svg11.dtd">
<svg width="100%" height="100%" viewBox="0 0 512 512" version="1.1" xmlns="http://www.w3.org/2000/svg" xmlns:xlink="http://www.w3.org/1999/xlink" xml:space="preserve" xmlns:serif="http://www.serif.com/" style="fill-rule:evenodd;clip-rule:evenodd;stroke-linecap:round;stroke-linejoin:round;stroke-miterlimit:1.5;">
    <g transform="matrix(1,0,0,1,130.695,123.228)">
        <g id="path4607">
        </g>
        <g id="Lemoji-Base" serif:id="Lemoji Base" transform="matrix(1.97738,-1.55969,1.54103,1.95372,-330.907,69.8323)">
            <rect x="35.936" y="-0" width="170.214" height="255" style="fill:rgb(125,106,90);fill-opacity:0;"/>
            <g transform="matrix(0.670026,-0.518942,0.493671,0.655501,-22.1244,109.602)">
                <g id="Source">
                    <g id="Back-leaf" serif:id="Back leaf" transform="matrix(1.12567,6.30636,-6.42053,1.1515,220.143,-2.15814)">
                        <path d="M11.405,3.339C17.885,2.064 19.858,4.604 23.06,3.423C26.262,2.242 23.153,6.243 22.315,6.931C21.475,7.619 14.174,11.74 11.008,10.229C7.842,8.718 7.826,4.043 11.405,3.339Z" style="fill:rgb(92,145,59);fill-rule:nonzero;"/>
                    </g>
                    <g id="Stem" transform="matrix(1.23169,6.28526,-6.39994,1.26745,217.08,-5.05983)">
                        <path d="M15.001,16C14.697,16 14.396,15.862 14.2,15.6C13.513,14.684 12.892,13.645 12.235,12.544C9.967,8.749 7.396,4.446 0.783,2.976C0.244,2.856 -0.096,2.322 0.024,1.783C0.144,1.243 0.678,0.905 1.217,1.024C8.671,2.68 11.599,7.581 13.952,11.519C14.582,12.573 15.176,13.568 15.8,14.4C16.132,14.842 16.042,15.469 15.6,15.8C15.42,15.935 15.21,16 15.001,16Z" style="fill:rgb(119,178,85);fill-rule:nonzero;"/>
                    </g>
                    <g id="Base">
                        <g id="Shape" transform="matrix(0.931358,0.737331,-0.70992,0.963526,99.025,-88.8077)">
                            <path d="M127.599,254.999C121.119,255.06 119.762,246.42 108.518,241.68C74.029,227.142 49.785,192.95 49.785,153.13C49.785,110.611 77.427,74.509 115.669,61.899L115.67,61.898C121.168,59.794 121.751,51.176 127.635,51.26L127.635,51.261C133.483,51.214 134.076,59.799 139.561,61.898L139.562,61.899C177.805,74.509 205.446,110.611 205.446,153.13C205.446,192.951 181.202,227.142 146.714,241.68C135.449,246.429 134.107,255.091 127.599,254.999Z" style="fill:rgb(255,204,77);"/>
                            <g>
                                <clipPath id="_clip1">
                                    <path d="M127.599,254.999C121.119,255.06 119.762,246.42 108.518,241.68C74.029,227.142 49.785,192.95 49.785,153.13C49.785,110.611 77.427,74.509 115.669,61.899L115.67,61.898C121.168,59.794 121.751,51.176 127.635,51.26L127.635,51.261C133.483,51.214 134.076,59.799 139.561,61.898L139.562,61.899C177.805,74.509 205.446,110.611 205.446,153.13C205.446,192.951 181.202,227.142 146.714,241.68C135.449,246.429 134.107,255.091 127.599,254.999Z"/>
                                </clipPath>
                                <g clip-path="url(#_clip1)">
                                    <g id="Beard" transform="matrix(1.04411,-1.11022e-16,1.11022e-16,1.04616,-5.52752,-7.10573)">
                                        <path d="M52.939,153.166C52.941,153.165 58.372,152.874 60.572,153.8C61.484,154.183 67.393,158.016 68.793,158.005C73.377,157.967 81.826,159.274 93.02,158.348C99.321,157.826 106.22,153.466 109.383,152.221C115.272,149.903 127.5,150.177 127.5,150.177C127.5,150.177 139.342,149.907 145.071,152.225C148.148,153.469 155.294,157.629 161.559,158.148C172.688,159.071 180.677,157.961 185.259,157.998C186.659,158.009 192.835,154.174 193.773,153.79C196.032,152.866 202.03,153.116 202.061,153.117L210.061,153.117C212.945,196.146 177.759,240.107 138.95,250.375C133.694,252.393 133.132,260.621 127.5,260.54C121.868,260.621 121.306,252.393 116.05,250.375C78.428,240.167 42.812,197.77 44.939,153.166L52.939,153.166Z" style="fill:rgb(125,106,90);"/>
                                    </g>
                                </g>
                            </g>
                        </g>
                        <g id="Top-visual-correction" serif:id="Top visual correction">
                            <g id="Left" transform="matrix(-0.263185,-1.00003,-0.930706,0.263185,280.108,221.754)">
                                <g id="Top" transform="matrix(0.972438,0.769853,-0.74269,1.008,99.001,-99.6669)">
                                    <path d="M127.418,55.79C133.541,55.811 136.582,63.016 155.722,73.419C167.788,79.977 127.418,87.108 127.418,87.108L127.418,55.79Z" style="fill:rgb(255,204,77);"/>
                                </g>
                                <g id="Bottom" transform="matrix(0.972438,0.769853,-0.74269,1.008,98.9214,-99.7299)">
                                    <path d="M138.529,62.098C142.509,65.412 160.293,72.279 177.205,90.382C189.288,103.316 140.334,99.397 140.334,99.397L130.166,63.142C130.166,63.142 134.377,58.641 138.529,62.098Z" style="fill:rgb(255,204,77);"/>
                                </g>
                            </g>
                            <g id="Right">
                                <g id="Top1" serif:id="Top" transform="matrix(0.972438,0.769853,-0.74269,1.008,99.001,-99.6669)">
                                    <path d="M127.418,55.79C133.541,55.811 136.582,63.016 155.722,73.419C167.788,79.977 127.418,87.108 127.418,87.108L127.418,55.79Z" style="fill:rgb(255,204,77);"/>
                                </g>
                                <g id="Bottom1" serif:id="Bottom" transform="matrix(0.972438,0.769853,-0.74269,1.008,98.9214,-99.7299)">
                                    <path d="M138.529,62.098C142.509,65.412 160.293,72.279 177.205,90.382C189.288,103.316 140.334,99.397 140.334,99.397L130.166,63.142C130.166,63.142 134.377,58.641 138.529,62.098Z" style="fill:rgb(255,204,77);"/>
                                </g>
                            </g>
                        </g>
                    </g>
                    <g transform="matrix(1.13833,6.30395,-6.41818,1.16534,221.153,-3.96215)">
                        <g id="Front-leaf" serif:id="Front leaf">
                            <path d="M8.208,6.583C8.208,6.583 3.938,5.993 1.351,11.182C-1.236,16.37 1.933,20.307 1.641,23.835C1.348,27.365 3.207,25.1 4.262,23.39C5.317,21.68 8.492,18.495 9.2,14.121C9.907,9.745 9.13,7.663 8.208,6.583Z" style="fill:rgb(119,178,85);fill-rule:nonzero;"/>
                        </g>
                    </g>
                </g>
            </g>
        </g>
        <g id="path1190">
        </g>
    </g>
    <g id="mask" transform="matrix(1,0,0,1,131.643,124.906)">
        <g transform="matrix(1.95372,-1.54103,1.54103,1.95372,-606.589,75.034)">
            <path d="M150.708,254.523C149.03,255.242 147.257,255.236 145.47,255.086L146.632,258.079C148.113,258.473 149.775,258.309 151.583,257.698L150.708,254.523Z" style="fill:rgb(202,214,255);"/>
        </g>
        <g transform="matrix(1.95372,-1.54103,1.54103,1.95372,-606.589,75.034)">
            <path d="M281.043,253.579C283.599,253.532 286.077,253.08 288.312,252.712L286.901,256.237C284.994,256.925 282.79,257.169 280.329,257.027L281.043,253.579Z" style="fill:rgb(202,214,255);"/>
        </g>
        <g transform="matrix(1.95372,-1.54103,1.54103,1.95372,-606.589,75.034)">
            <path d="M284.031,223.955C288.047,223.495 291.355,222.583 294.237,221.4L293.972,227.48C291.298,228.572 287.682,229.586 283.786,229.833L284.031,223.955Z" style="fill:rgb(202,214,255);"/>
        </g>
        <g transform="matrix(1.95372,-1.54103,1.54103,1.95372,-606.589,75.034)">
            <path d="M145.004,225.327L145.845,230.613C143.596,230.851 140.976,230.235 139.075,229.52L138.652,224.363C139.705,224.986 141.828,225.769 145.004,225.327Z" style="fill:rgb(202,214,255);"/>
        </g>
        <g id="Fill" transform="matrix(1.95372,-1.54103,1.54103,1.95372,-1180.7,743.011)">
            <path d="M492.386,157.452C492.386,157.452 497.636,157.249 505.187,155.504C513.272,153.637 523.996,150.002 533.738,142.957C551.246,130.295 546.302,127.216 564.77,127.5C583.48,127.788 582.135,132.845 588.347,138.728C610.082,159.313 631.562,156.053 631.562,156.053C631.562,156.053 630.267,198.008 619.512,211.101C602.651,231.626 598.045,233.247 583.022,239.749C572.993,244.09 564,245.802 553.715,242.359C533.508,235.594 520.336,225.986 509.208,212.757C497.379,198.693 492.386,157.452 492.386,157.452Z" style="fill:rgb(114,137,218);"/>
        </g>
        <g id="Fill1" serif:id="Fill" transform="matrix(1.95372,-1.54103,1.54103,1.95372,-1180.7,743.011)">
            <path d="M492.22,157.457C492.22,157.457 497.636,157.249 505.187,155.504C513.272,153.637 523.996,150.002 533.738,142.957C551.246,130.295 546.302,127.216 564.77,127.5C583.48,127.788 582.135,132.845 588.347,138.728C610.082,159.313 631.652,156.05 631.652,156.05L630.967,165.802C629.531,166.95 614.104,163.958 601.729,158.041C589.658,152.27 585.392,143.533 578.314,141.256C571.768,139.151 561.565,136.58 550.227,141.632C546.429,143.325 538.087,153.405 525.363,159.384C515.51,164.014 502.255,167.395 493.967,167.85L492.22,157.457Z" style="fill:rgb(202,214,255);"/>
        </g>
        <g transform="matrix(1.95372,-1.54103,0.987993,1.25258,-1086.17,863.1)">
            <path d="M494.01,165.787C494.01,165.787 505.909,170.281 513.84,168.343C521.95,166.362 526.783,164.399 536.281,157.029C547.148,148.596 550.339,146.601 564.069,146.723C581.032,146.873 582.67,151.818 591.166,158.015C612.482,173.565 631.075,161.714 631.075,161.714C630.91,165.068 630.853,168.046 630.59,170.823C630.59,170.823 612.765,182.677 591.449,167.128C582.953,160.93 581.315,155.985 564.352,155.835C550.622,155.714 547.431,157.708 536.564,166.141C527.066,173.512 522.233,175.474 514.123,177.455C506.192,179.393 495.068,174.523 495.068,174.523C494.663,171.66 494.39,168.733 494.01,165.787Z" style="fill:rgb(202,214,255);"/>
        </g>
        <g transform="matrix(1.95372,-1.54103,1.54103,1.95372,-1189.44,737.339)">
            <path d="M496.169,176.396C526.026,194.947 563.291,198.53 593.159,192.692C610.205,189.36 619.116,180.941 632.03,173.504L631.316,179.552C618.403,186.99 610.411,195.319 593.365,198.651C563.497,204.489 527.297,201.044 497.44,182.493C496.999,180.479 496.581,178.44 496.169,176.396Z" style="fill:rgb(202,214,255);"/>
        </g>
        <g transform="matrix(1.95372,-1.54103,1.54103,1.95372,-1187.62,739.112)">
            <path d="M496.857,179.35C508.991,196.449 519.716,210.831 534.395,215.18C571.878,226.285 605.874,223.161 631.353,177.133C631.134,179.159 630.862,181.206 630.527,183.278C606.353,229.266 572.614,230.277 534.566,221.006C519.064,217.228 508.33,203.733 498.324,185.902C497.852,184.008 497.256,181.275 496.857,179.35Z" style="fill:rgb(202,214,255);"/>
        </g>
        <g id="stiches" transform="matrix(1,0,0,1,-438.082,-1.67845)">
            <g transform="matrix(1.95372,-1.54103,1.54103,1.95372,-539.724,989.656)">
                <path d="M489.753,31.858C489.753,31.858 495.762,31.634 503.056,30.341C511.323,28.876 519.116,25.273 529.516,18.584C547.689,6.896 543.352,1.907 561.82,2.191C580.53,2.478 577.907,7.937 584.285,13.639C605.122,32.268 627.846,31.203 627.846,31.203" style="fill:none;stroke:black;stroke-width:0.4px;stroke-dasharray:1.21,2.01,0,0;"/>
            </g>
            <g transform="matrix(1.95372,-1.54103,1.54103,1.95372,-530.718,999.473)">
                <path d="M490.496,33.014C490.496,33.014 499.68,32.48 506.47,30.252C514.447,27.635 520.152,26.586 530.061,19.406C547.557,6.728 542.417,3.614 560.885,3.898C579.595,4.185 578.155,7.214 584.361,13.104C604.461,32.18 627.538,31.192 627.538,31.192" style="fill:none;stroke:black;stroke-width:0.4px;stroke-dasharray:1.21,2.01,0,0;stroke-dashoffset:0.8;"/>
            </g>
        </g>
    </g>
    <g transform="matrix(9.48069,-7.47927,7.47928,9.48068,-33.2108,249.842)">
        <ellipse cx="12" cy="13.5" rx="2.5" ry="3.5" style="fill:rgb(102,69,0);"/>
    </g>
    <g transform="matrix(9.48069,-7.47927,7.47928,9.48068,-24.4674,242.96)">
        <ellipse cx="24" cy="13.5" rx="2.5" ry="3.5" style="fill:rgb(102,69,0);"/>
    </g>
    <g transform="matrix(1.26224,-0.995614,0.995614,1.26224,-227.648,218.959)">
        <path d="M149.155,165.335C163.338,156.455 178.96,154.471 197.264,165.335" style="fill:none;stroke:rgb(102,69,0);stroke-width:5.18px;stroke-linejoin:miter;stroke-miterlimit:1;"/>
    </g>
    <g transform="matrix(1.26224,-0.995614,0.995614,1.26224,-105.378,122.02)">
        <path d="M149.155,165.335C165.446,156.229 180.758,154.156 197.264,165.335" style="fill:none;stroke:rgb(102,69,0);stroke-width:5.18px;stroke-linejoin:miter;stroke-miterlimit:1;"/>
    </g>
</svg>
