<?xml version="1.0" encoding="UTF-8" standalone="no"?>
<!DOCTYPE svg PUBLIC "-//W3C//DTD SVG 1.1//EN" "http://www.w3.org/Graphics/SVG/1.1/DTD/svg11.dtd">
<svg width="100%" height="100%" viewBox="0 0 255 255" version="1.1" xmlns="http://www.w3.org/2000/svg" xmlns:xlink="http://www.w3.org/1999/xlink" xml:space="preserve" xmlns:serif="http://www.serif.com/" style="fill-rule:evenodd;clip-rule:evenodd;stroke-linejoin:round;stroke-miterlimit:2;">
    <rect id="Artboard1" x="0" y="0" width="255" height="255" style="fill:none;"/>
    <clipPath id="_clip1">
        <rect id="Artboard11" serif:id="Artboard1" x="0" y="0" width="255" height="255"/>
    </clipPath>
    <g clip-path="url(#_clip1)">
        <g id="lemon_zipped_mouth" transform="matrix(1.01642,1.1504e-16,5.752e-16,1.18403,-1.19904e-13,5.73906)">
            <rect x="0" y="11.23" width="250.88" height="183.212" style="fill:none;"/>
            <clipPath id="_clip2">
                <rect x="0" y="11.23" width="250.88" height="183.212"/>
            </clipPath>
            <g clip-path="url(#_clip2)">
                <g id="Lemoji-Base" serif:id="Lemoji Base" transform="matrix(0.818005,-0.702211,0.808217,0.693809,-94.4003,95.394)">
                    <g>
                        <g id="Lemon--PRODUCTION-" serif:id="Lemon [PRODUCTION]" transform="matrix(0.670026,-0.518942,0.493671,0.655501,-22.1244,109.602)">
                            <g id="Back-leaf" serif:id="Back leaf" transform="matrix(1.12567,6.30636,-6.42053,1.1515,220.143,-2.15814)">
                                <path d="M11.405,3.339C17.885,2.064 19.858,4.604 23.06,3.423C26.262,2.242 23.153,6.243 22.315,6.931C21.475,7.619 14.174,11.74 11.008,10.229C7.842,8.718 7.826,4.043 11.405,3.339Z" style="fill:rgb(92,145,59);fill-rule:nonzero;"/>
                            </g>
                            <g id="Stem" transform="matrix(1.23169,6.28526,-6.39994,1.26745,217.08,-5.05983)">
                                <path d="M15.001,16C14.697,16 14.396,15.862 14.2,15.6C13.513,14.684 12.892,13.645 12.235,12.544C9.967,8.749 7.396,4.446 0.783,2.976C0.244,2.856 -0.096,2.322 0.024,1.783C0.144,1.243 0.678,0.905 1.217,1.024C8.671,2.68 11.599,7.581 13.952,11.519C14.582,12.573 15.176,13.568 15.8,14.4C16.132,14.842 16.042,15.469 15.6,15.8C15.42,15.935 15.21,16 15.001,16Z" style="fill:rgb(119,178,85);fill-rule:nonzero;"/>
                            </g>
                            <g id="Base">
                                <g id="Lemon" transform="matrix(0.931358,0.737331,-0.70992,0.963526,99.025,-88.8077)">
                                    <path d="M127.632,51.26C127.86,51.258 128.079,51.27 128.291,51.293C131.515,51.59 134.065,53.889 138.78,57.599L139.528,58.184C144.392,61.772 162.371,69.083 179.494,87.448L179.5,87.455C195.577,104.623 205.433,127.707 205.446,153.079C205.446,153.081 189,171 189,171C189,190 156.018,232 127.5,232C98.982,232 67,191 67,171L49.746,153.13C49.746,127.737 59.604,104.634 75.692,87.455L75.698,87.448C92.822,69.083 110.8,61.772 115.664,58.184L116.412,57.599C121.127,53.889 123.677,51.59 126.901,51.293C127.114,51.269 127.333,51.258 127.56,51.26L127.632,51.26Z" style="fill:rgb(255,204,77);"/>
                                </g>
                                <g id="Shape" transform="matrix(0.931358,0.737331,-0.70992,0.963526,99.025,-88.8077)">
                                    <path d="M49.785,153.128C50.289,153.103 55.53,152.872 57.716,153.793C58.668,154.194 64.838,158.205 66.3,158.193C71.086,158.153 79.908,159.52 91.595,158.551C98.175,158.006 105.377,153.445 108.68,152.142C114.829,149.717 127.596,150.004 127.596,150.004C127.596,150.004 139.96,149.721 145.942,152.145C149.155,153.447 156.616,157.799 163.158,158.343C174.778,159.308 183.119,158.146 187.902,158.185C189.364,158.197 195.812,154.185 196.792,153.783C199.151,152.817 205.414,153.078 205.446,153.079L205.446,153.13C205.446,192.951 181.202,227.142 146.714,241.68C135.449,246.429 134.107,255.091 127.599,254.999C121.119,255.06 119.762,246.42 108.518,241.68C74.029,227.142 49.785,192.95 49.785,153.13L49.785,153.128Z" style="fill:rgb(125,106,90);"/>
                                </g>
                            </g>
                            <g transform="matrix(1.13833,6.30395,-6.41818,1.16534,221.153,-3.96215)">
                                <g id="Front-leaf" serif:id="Front leaf">
                                    <path d="M8.208,6.583C8.208,6.583 3.938,5.993 1.351,11.182C-1.236,16.37 1.933,20.307 1.641,23.835C1.348,27.365 3.207,25.1 4.262,23.39C5.317,21.68 8.492,18.495 9.2,14.121C9.907,9.745 9.13,7.663 8.208,6.583Z" style="fill:rgb(119,178,85);fill-rule:nonzero;"/>
                                </g>
                            </g>
                        </g>
                        <rect x="35.936" y="-0" width="170.214" height="255" style="fill:rgb(125,106,90);fill-opacity:0;"/>
                    </g>
                </g>
                <g transform="matrix(4.22091,-3.62341,4.22091,3.62341,-23.8222,109.078)">
                    <path d="M14.496,14.499C14.496,16.433 13.377,17.999 11.996,17.999C10.615,17.999 9.496,16.433 9.496,14.499C9.496,12.566 10.615,10.999 11.996,10.999C13.377,10.999 14.496,12.566 14.496,14.499M26.572,14.499C26.572,16.433 25.453,17.999 24.072,17.999C22.691,17.999 21.572,16.433 21.572,14.499C21.572,12.566 22.691,10.999 24.072,10.999C25.453,10.999 26.572,12.566 26.572,14.499" style="fill:rgb(102,69,0);fill-rule:nonzero;"/>
                </g>
                <g transform="matrix(0.808217,-0.693809,0.808217,0.693809,-94.4468,91.9089)">
                    <g transform="matrix(4.91474,-3.0813e-16,3.0813e-16,4.91474,39.0663,60.9995)">
                        <path d="M25.001,27.004L10,27.004C9,27.004 9,26.004 9,26.004L9,25.004C9,25.004 9,24.001 10,24.001L25.001,24.004L25.001,27.004Z" style="fill:rgb(66,44,1);fill-rule:nonzero;"/>
                    </g>
                    <g transform="matrix(4.91474,-3.0813e-16,3.0813e-16,4.91474,39.4236,61.8153)">
                        <path d="M35.255,26.084L27.542,23.963C26.822,23.766 26.493,24.25 26.371,24.51L24.731,23.726L24,25.255L24,23.001L22,23.001L22,25.001L20,25.001L20,23.001L17.999,23.001L17.999,25.001L16,25.001L16,23.001L14,23.001L14,25.001L12,25.001L12,23.001L10,23.001L10,26.001L12,26.001L12,28.001L14,28.001L14,26.001L15.999,26.001L15.999,28.001L17.999,28.001L17.999,26.001L20,26.001L20,28.001L22,28.001L22,26.001L23.643,26.001L23.063,27.213L24.711,28.001L24.612,28.208C24.612,28.208 24.364,28.945 24.985,29.483C25.606,30.02 30.27,34.218 30.27,34.218C30.27,34.218 31.169,35.084 32.039,34.297C32.777,33.627 35.688,28.277 35.953,27.314C36.219,26.35 35.255,26.084 35.255,26.084ZM31.483,32.155L28.839,29.907L30.453,26.838L33.791,27.97L31.483,32.155Z" style="fill:rgb(153,170,181);fill-rule:nonzero;"/>
                    </g>
                </g>
            </g>
        </g>
    </g>
</svg>
