<?xml version="1.0" encoding="UTF-8" standalone="no"?>
<svg
   xmlns:serif="http://www.serif.com/"
   xmlns:dc="http://purl.org/dc/elements/1.1/"
   xmlns:cc="http://creativecommons.org/ns#"
   xmlns:rdf="http://www.w3.org/1999/02/22-rdf-syntax-ns#"
   xmlns:svg="http://www.w3.org/2000/svg"
   xmlns="http://www.w3.org/2000/svg"
   xmlns:xlink="http://www.w3.org/1999/xlink"
   xmlns:sodipodi="http://sodipodi.sourceforge.net/DTD/sodipodi-0.dtd"
   xmlns:inkscape="http://www.inkscape.org/namespaces/inkscape"
   inkscape:export-ydpi="96"
   inkscape:export-xdpi="96"
   inkscape:export-filename="/home/akarys/Projects/PyDis/branding/emotes/lemoji/dist/lemon_partying.png"
   sodipodi:docname="lemon_partying.svg"
   inkscape:version="1.0 (4035a4fb49, 2020-05-01)"
   id="svg8"
   version="1.1"
   viewBox="0 0 67.733332 67.733332"
   height="256"
   width="256">
  <defs
     id="defs2">
    <clipPath
       clipPathUnits="userSpaceOnUse"
       id="clipPath49">
      <use
         height="100%"
         width="100%"
         x="0"
         y="0"
         xlink:href="#g45"
         id="use51" />
    </clipPath>
    <clipPath
       clipPathUnits="userSpaceOnUse"
       id="clipPath85">
      <g
         id="use87"
         inkscape:label="Clip">
        <path
           fill="#dd2e44"
           d="M 17.179,2.72 C 17.136,2.671 17.069,2.644 16.99,2.629 c 0,0 -15.924,-3.023 -16.613,-2.415 -0.688,0.609 0.363,16.784 0.363,16.784 0.005,0.081 0.023,0.15 0.067,0.199 0.604,0.684 4.758,-2.004 9.279,-6.001 4.522,-3.998 7.697,-7.792 7.093,-8.476 z"
           id="path188" />
        <path
           fill="#ea596e"
           d="M 0.349,0.271 C 0.334,0.301 0.321,0.342 0.311,0.394 0.47,1.765 2.006,13.046 2.963,16.572 4.399,15.769 5.858,14.678 7.572,13.319 6.116,10.654 1.158,0.146 0.349,0.271 Z"
           id="path190" />
      </g>
    </clipPath>
  </defs>
  <sodipodi:namedview
     inkscape:guide-bbox="true"
     showguides="true"
     inkscape:document-rotation="0"
     borderlayer="true"
     units="px"
     inkscape:pagecheckerboard="true"
     inkscape:window-maximized="1"
     inkscape:window-y="0"
     inkscape:window-x="0"
     inkscape:window-height="1006"
     inkscape:window-width="1920"
     showgrid="false"
     inkscape:current-layer="layer1"
     inkscape:document-units="px"
     inkscape:cy="121.71697"
     inkscape:cx="168.9047"
     inkscape:zoom="2.8"
     inkscape:pageshadow="2"
     inkscape:pageopacity="0.0"
     borderopacity="1.0"
     bordercolor="#666666"
     pagecolor="#ffffff"
     id="base">
    <sodipodi:guide
       id="guide170"
       orientation="0.70710678,0.70710678"
       position="5.5656324,67.196849" />
  </sodipodi:namedview>
  <metadata
     id="metadata5">
    <rdf:RDF>
      <cc:Work
         rdf:about="">
        <dc:format>image/svg+xml</dc:format>
        <dc:type
           rdf:resource="http://purl.org/dc/dcmitype/StillImage" />
        <dc:title />
      </cc:Work>
    </rdf:RDF>
  </metadata>
  <g
     transform="translate(0,-229.26668)"
     style="display:inline"
     id="layer1"
     inkscape:groupmode="layer"
     inkscape:label="lemoncette">
    <g
       transform="matrix(0.22856245,0.08382635,-0.08382635,0.22856245,9.1828105,221.61681)"
       style="clip-rule:evenodd;fill-rule:evenodd;stroke-linejoin:round;stroke-miterlimit:2"
       id="Artboard11"
       serif:id="Artboard1">
      <g
         id="tilted"
         transform="matrix(0.143973,-1.0826,1.04467,0.140946,-26.7611,237.17)">
        <g
           id="Back-leaf"
           serif:id="Back leaf"
           transform="matrix(1.12567,6.30636,-6.42053,1.1515,220.143,-2.15814)">
          <path
             d="m 11.405,3.339 c 6.48,-1.275 8.453,1.265 11.655,0.084 3.202,-1.181 0.093,2.82 -0.745,3.508 -0.84,0.688 -8.141,4.809 -11.307,3.298 C 7.842,8.718 7.826,4.043 11.405,3.339 Z"
             style="fill:#5c913b;fill-rule:nonzero"
             id="path3" />
        </g>
        <g
           id="Stem"
           transform="matrix(1.23169,6.28526,-6.39994,1.26745,217.08,-5.05983)">
          <path
             d="M 15.001,16 C 14.697,16 14.396,15.862 14.2,15.6 13.513,14.684 12.892,13.645 12.235,12.544 9.967,8.749 7.396,4.446 0.783,2.976 0.244,2.856 -0.096,2.322 0.024,1.783 0.144,1.243 0.678,0.905 1.217,1.024 8.671,2.68 11.599,7.581 13.952,11.519 c 0.63,1.054 1.224,2.049 1.848,2.881 0.332,0.442 0.242,1.069 -0.2,1.4 -0.18,0.135 -0.39,0.2 -0.599,0.2 z"
             style="fill:#77b255;fill-rule:nonzero"
             id="path6-3" />
        </g>
        <g
           id="Base">
          <g
             id="Lemon"
             transform="matrix(0.931358,0.737331,-0.70992,0.963526,99.025,-88.8077)">
            <path
               d="m 127.632,51.26 c 0.228,-0.002 0.447,0.01 0.659,0.033 3.224,0.297 5.774,2.596 10.489,6.306 l 0.748,0.585 c 4.864,3.588 22.843,10.899 39.966,29.264 l 0.006,0.007 c 16.077,17.168 25.933,40.252 25.946,65.624 C 205.446,153.081 189,171 189,171 c 0,19 -32.982,61 -61.5,61 C 98.982,232 67,191 67,171 L 49.746,153.13 c 0,-25.393 9.858,-48.496 25.946,-65.675 l 0.006,-0.007 C 92.822,69.083 110.8,61.772 115.664,58.184 l 0.748,-0.585 c 4.715,-3.71 7.265,-6.009 10.489,-6.306 0.213,-0.024 0.432,-0.035 0.659,-0.033 h 0.036 z"
               style="fill:#ffcc4d"
               id="path9" />
          </g>
          <g
             id="Shape"
             transform="matrix(0.931358,0.737331,-0.70992,0.963526,99.025,-88.8077)">
            <path
               d="m 49.785,153.128 c 0.504,-0.025 5.745,-0.256 7.931,0.665 0.952,0.401 7.122,4.412 8.584,4.4 4.786,-0.04 13.608,1.327 25.295,0.358 6.58,-0.545 13.782,-5.106 17.085,-6.409 6.149,-2.425 18.916,-2.138 18.916,-2.138 0,0 12.364,-0.283 18.346,2.141 3.213,1.302 10.674,5.654 17.216,6.198 11.62,0.965 19.961,-0.197 24.744,-0.158 1.462,0.012 7.91,-4 8.89,-4.402 2.359,-0.966 8.622,-0.705 8.654,-0.704 v 0.051 c 0,39.821 -24.244,74.012 -58.732,88.55 -11.265,4.749 -12.607,13.411 -19.115,13.319 -6.48,0.061 -7.837,-8.579 -19.081,-13.319 C 74.029,227.142 49.785,192.95 49.785,153.13 Z"
               style="fill:#7d6a5a"
               id="path12" />
          </g>
        </g>
        <g
           transform="matrix(1.13833,6.30395,-6.41818,1.16534,221.153,-3.96215)"
           id="g19">
          <g
             id="Front-leaf"
             serif:id="Front leaf">
            <path
               d="m 8.208,6.583 c 0,0 -4.27,-0.59 -6.857,4.599 -2.587,5.188 0.582,9.125 0.29,12.653 C 1.348,27.365 3.207,25.1 4.262,23.39 5.317,21.68 8.492,18.495 9.2,14.121 9.907,9.745 9.13,7.663 8.208,6.583 Z"
               style="fill:#77b255;fill-rule:nonzero"
               id="path16-6" />
          </g>
        </g>
      </g>
    </g>
    <ellipse
       inkscape:label="leye"
       transform="rotate(-47.504126)"
       ry="5.7205558"
       rx="4.5925584"
       cy="202.04616"
       cx="-180.53415"
       id="path4607"
       style="display:none;opacity:1;fill:#684601;fill-opacity:1;stroke:none;stroke-width:0.574442;stroke-miterlimit:4;stroke-dasharray:1.14888, 0.574442;stroke-dashoffset:0;stroke-opacity:0.949074;paint-order:normal" />
    <ellipse
       inkscape:label="reye"
       transform="rotate(-47.504126)"
       ry="5.7205558"
       rx="4.5925584"
       cy="201.46597"
       cx="-157.74709"
       id="path4607-3"
       style="display:none;opacity:1;fill:#684601;fill-opacity:1;stroke:none;stroke-width:0.574442;stroke-miterlimit:4;stroke-dasharray:1.14888, 0.574442;stroke-dashoffset:0;stroke-opacity:0.949074;paint-order:normal" />
    <path
       inkscape:label="mouth"
       sodipodi:nodetypes="cssssc"
       inkscape:connector-curvature="0"
       id="path4634"
       d="m 52.291507,261.50226 c -1.23714,1.33874 -1.86787,4.20815 -6.090632,8.97756 -4.440654,5.01549 -10.285649,7.16364 -9.827109,10.01015 0.433663,2.69206 11.988975,5.52055 18.085003,-1.13307 6.531466,-7.12886 4.653163,-18.90832 -0.133373,-18.69899 -0.960496,0.0419 -1.549792,0.32049 -2.033889,0.84435 z"
       style="display:none;fill:#422c01;fill-opacity:1;stroke:none;stroke-width:0.0797614px;stroke-linecap:butt;stroke-linejoin:miter;stroke-opacity:1" />
    <path
       inkscape:label="teeth"
       sodipodi:nodetypes="csscc"
       inkscape:connector-curvature="0"
       id="path4638"
       d="m 38.469461,279.4247 c 0.754169,0.3819 6.665946,-0.0356 10.899515,-4.65635 4.233571,-4.6208 5.969492,-10.95162 4.763228,-12.28742 0,0 -1.905581,4.5259 -7.237135,9.97283 -5.76279,6.11098 -8.425608,6.97094 -8.425608,6.97094 z"
       style="display:none;fill:#ffffff;stroke:none;stroke-width:0.0731244px;stroke-linecap:butt;stroke-linejoin:miter;stroke-opacity:1" />
    <ellipse
       transform="rotate(-22.483118)"
       style="fill:#422c01;fill-opacity:1;stroke-width:1.36011"
       fill="#664500"
       cx="-72.128654"
       cy="269.91858"
       rx="2.7201936"
       ry="3.4002416"
       id="ellipse4" />
    <path
       style="stroke-width:1.57282"
       fill="#664500"
       d="m 16.264456,267.54221 c -0.278471,0.0662 -0.579721,0.0571 -0.870144,-0.0425 -0.821512,-0.28016 -1.260128,-1.17328 -0.980411,-1.99631 0.873259,-2.55648 4.231141,-7.37181 10.689994,-7.329 0.867878,0.006 1.566856,0.71558 1.561306,1.58349 -0.0071,0.86815 -0.720936,1.56485 -1.58345,1.56124 -5.83555,-0.039 -7.671411,5.14697 -7.689571,5.19979 -0.182414,0.53155 -0.619749,0.90225 -1.127767,1.02298 z M 33.22461,257.46214 c -0.443764,0.10547 -0.926887,0.018 -1.317414,-0.27838 -0.690829,-0.52614 -0.825452,-1.51421 -0.297822,-2.20548 3.912913,-5.13956 9.779119,-4.84915 12.335582,-3.97595 0.821561,0.28007 1.260485,1.17478 0.978912,1.99666 -0.279227,0.81813 -1.16866,1.25908 -1.991046,0.98215 -0.241661,-0.0782 -5.333105,-1.67967 -8.82219,2.90332 -0.228933,0.30184 -0.544772,0.49668 -0.886004,0.57778 z"
       id="path6" />
    <g
       transform="matrix(1.5506848,0.16342132,-0.16342132,1.5506848,7.2946465,231.20831)"
       id="g971">
      <circle
         id="circle24"
         r="1.5"
         cy="33.5"
         cx="2.5"
         fill="#55acee" />
      <circle
         id="circle26"
         r="2"
         cy="2"
         cx="29"
         fill="#55acee" />
      <path
         style="fill:#ea596e;fill-opacity:1"
         id="path28"
         d="M 4.864,29.246 2.526,23.63 0.412,29.675 Z M 26,5 22,6 23,2 Z"
         fill="#EA596E" />
      <path
         id="path30"
         d="M 31.999,13 36,7.999 33,6 Z"
         fill="#77b255" />
    </g>
    <path
       style="fill:#665343;fill-opacity:1;stroke-width:1.44719"
       fill="#e2a62d"
       d="m 32.824646,286.90429 c -0.09437,0.0279 -0.193225,0.0458 -0.295343,0.0473 -0.598716,0.007 -1.090552,-0.47284 -1.097454,-1.07294 -0.02543,-2.31655 -0.884826,-4.3095 -2.356612,-5.46953 -0.977787,-0.77032 -2.136373,-1.07513 -3.179852,-0.83764 -0.585395,0.13323 -1.167066,-0.23143 -1.300438,-0.81525 -0.133262,-0.58383 0.220603,-1.19857 0.815672,-1.29903 1.686046,-0.38671 3.510756,0.0686 5.006189,1.24679 1.989426,1.56834 3.150632,4.17381 3.183697,7.14911 0.0068,0.49764 -0.322758,0.91938 -0.775186,1.05315 z m 14.061217,-8.77681 c -0.19706,0.0582 -0.411982,0.0613 -0.622635,-0.003 -1.935524,-0.58975 -3.394453,-2.19121 -4.003086,-4.39264 -0.630497,-2.28103 -0.171007,-4.7077 1.165866,-6.18346 0.401202,-0.4449 1.087028,-0.47827 1.532404,-0.0746 0.445081,0.40285 0.478356,1.08699 0.07428,1.53241 -0.83622,0.92332 -1.111357,2.59078 -0.681601,4.14638 0.405088,1.47233 1.33424,2.52716 2.543323,2.89562 0.573732,0.17423 0.896368,0.78075 0.721945,1.35449 -0.110051,0.36278 -0.39181,0.62463 -0.73043,0.72472 z"
       id="path8" />
    <g
       transform="matrix(1.8098989,-0.13588407,0.13588407,1.8098989,1.4730973,231.99267)"
       id="g47"
       clip-path="url(#clipPath49)">
      <g
         inkscape:label="Clip"
         id="g45">
        <path
           id="path14"
           d="M 29.902,29.229 19.329,27.926 c -1.13,-0.102 -3.117,-0.112 -3.015,-1.902 0.093,-1.623 2.04,-1.373 3.479,-1.16 l 10.638,1.774 z"
           fill="#3b88c3" />
        <path
           id="path16"
           d="m 30.43,26.639 -4.222,-0.724 c -0.494,-0.089 -0.934,0.647 -0.956,1.426 -0.025,0.866 0.227,1.304 0.726,1.406 l 4.144,0.512 z"
           fill="#88c9f9" />
        <path
           style="fill:#226699;fill-opacity:1"
           id="path18"
           d="m 34.918,26.341 -2.622,2.411 -4.687,-5.097 2.622,-2.411 c 1.361,-1.252 3.499,-1.162 4.751,0.199 l 0.135,0.147 c 1.251,1.362 1.162,3.499 -0.199,4.751 z"
           fill="#3B88C3" />
        <ellipse
           id="ellipse20"
           ry="3.4619999"
           rx="2.77"
           cy="26.202999"
           cx="29.952"
           fill="#88c9f9"
           transform="rotate(-42.597,29.954,26.205)" />
        <ellipse
           id="ellipse22"
           ry="2.0769999"
           rx="1.385"
           cy="26.202999"
           cx="29.952"
           fill="#226699"
           transform="rotate(-42.597,29.954,26.205)" />
      </g>
    </g>
  </g>
</svg>
