<?xml version="1.0" encoding="UTF-8" standalone="no"?>
<!DOCTYPE svg PUBLIC "-//W3C//DTD SVG 1.1//EN" "http://www.w3.org/Graphics/SVG/1.1/DTD/svg11.dtd">
<svg width="100%" height="100%" viewBox="0 0 255 255" version="1.1" xmlns="http://www.w3.org/2000/svg" xmlns:xlink="http://www.w3.org/1999/xlink" xml:space="preserve" xmlns:serif="http://www.serif.com/" style="fill-rule:evenodd;clip-rule:evenodd;stroke-linejoin:round;stroke-miterlimit:2;">
    <g transform="matrix(1,0,0,1,-567.333,-0.666667)">
        <g id="lemon_final" transform="matrix(1.05663,0,0,0.98329,284.161,2.30976)">
            <rect x="267.996" y="-1.671" width="241.333" height="259.333" style="fill:none;"/>
            <g transform="matrix(1.02242,0.0970044,-0.0870865,1.05991,270.467,-20.81)">
                <g id="lemoncette">
                    <g>
                        <g transform="matrix(0.149271,0.896737,-0.912882,0.151959,225.357,-3.03644)">
                            <g transform="matrix(7.04762,0,0,7.04762,0.500558,1.45139)">
                                <path d="M11.405,3.339C17.885,2.064 19.858,4.604 23.06,3.423C26.262,2.242 23.153,6.243 22.315,6.931C21.475,7.619 14.174,11.74 11.008,10.229C7.842,8.718 7.826,4.043 11.405,3.339Z" style="fill:rgb(92,145,59);fill-rule:nonzero;"/>
                            </g>
                            <g transform="matrix(7.04762,0,0,7.04762,0.500558,1.45139)">
                                <path d="M15.001,16C14.697,16 14.396,15.862 14.2,15.6C13.513,14.684 12.892,13.645 12.235,12.544C9.967,8.749 7.396,4.446 0.783,2.976C0.244,2.856 -0.096,2.322 0.024,1.783C0.144,1.243 0.678,0.905 1.217,1.024C8.671,2.68 11.599,7.581 13.952,11.519C14.582,12.573 15.176,13.568 15.8,14.4C16.132,14.842 16.042,15.469 15.6,15.8C15.42,15.935 15.21,16 15.001,16Z" style="fill:rgb(119,178,85);fill-rule:nonzero;"/>
                            </g>
                            <g transform="matrix(7.04762,0,0,7.04762,0.500558,1.45139)">
                                <path d="M34.3,31.534C34.302,31.517 34.297,31.506 34.297,31.491C37.071,26.156 36.944,16.378 30.951,10.384C25.15,4.584 17.271,4.563 12.184,6.317C10.605,6.931 9.267,6.383 8.369,7.282C7.488,8.163 8.018,10.001 7.655,11.101C4.486,16.303 4.25,24.126 10.343,30.218C15.305,35.18 20.781,37.06 30.323,35.071C30.325,35.069 30.328,35.07 30.331,35.069C31.479,34.851 33.281,35.592 33.897,34.975C34.982,33.89 34.206,32.617 34.3,31.534Z" style="fill:rgb(255,204,77);fill-rule:nonzero;"/>
                            </g>
                            <g transform="matrix(7.04762,0,0,7.04762,0.500558,1.45139)">
                                <path d="M8.208,6.583C8.208,6.583 3.938,5.993 1.351,11.182C-1.236,16.37 1.933,20.307 1.641,23.835C1.348,27.365 3.207,25.1 4.262,23.39C5.317,21.68 8.492,18.495 9.2,14.121C9.907,9.745 9.13,7.663 8.208,6.583Z" style="fill:rgb(119,178,85);fill-rule:nonzero;"/>
                            </g>
                        </g>
                        <g transform="matrix(0.825348,0.653224,-0.653224,0.825348,94.7371,-41.1212)">
                            <path d="M127.565,132.475L127.565,132.425C127.565,132.425 141.578,132.155 148.424,134.911C152.101,136.391 160.692,141.337 168.096,141.956C181.248,143.055 190.616,141.736 196.016,141.781C197.666,141.794 204.786,137.236 205.876,136.78C208.507,135.679 215.615,135.981 215.615,135.981C215.615,135.981 214.282,169.983 193.065,197.211C173.627,222.157 156.37,231.865 142.937,237.483C140.844,238.359 136.4,247.933 132.515,249.883C130.256,251.017 129.199,251.609 126.834,251.785C125.086,251.915 123.775,251.046 121.968,249.701C119.356,247.757 114.925,241.523 113.177,240.081C102.198,231.021 86.769,227.944 61.165,197.761C40.892,173.862 40.234,136.075 40.234,136.075C40.234,136.075 46.624,135.729 49.255,136.83C50.345,137.286 57.465,141.844 59.115,141.831C64.515,141.786 74.524,143.341 87.676,142.242C95.08,141.623 103.03,136.441 106.706,134.961C113.55,132.206 127.554,132.475 127.565,132.475Z" style="fill:rgb(125,106,90);"/>
                        </g>
                    </g>
                </g>
            </g>
            <g transform="matrix(0.9797,0.961857,-0.832968,0.9797,119.126,-370.325)">
                <g id="leye" transform="matrix(0.677374,0.0153815,-0.0143139,0.727897,-68.4963,-408.023)">
                    <ellipse cx="647.853" cy="723.899" rx="17.65" ry="21.986" style="fill:rgb(104,70,1);"/>
                </g>
                <g id="path4607-9-2" transform="matrix(0.559316,-0.410889,0.38237,0.601033,-68.4963,-408.023)">
                    <path d="M126.036,976.097C126.859,975.421 127.772,975.069 129.679,974.169C131.586,973.268 132.523,972.556 134.806,971.224C132.581,968.287 129.094,961.789 126.956,951.987C124.817,942.184 123.336,931.272 123.73,919.389C121.886,920.604 120.059,922.074 118.287,923.768C117.537,924.491 116.798,925.252 116.074,926.05C116.303,939.204 119.045,949.862 120.914,958.859C122.782,967.856 124.124,973.095 126.036,976.097L126.036,976.097Z" style="fill:rgb(104,70,1);fill-rule:nonzero;"/>
                </g>
                <g id="path4607-7" transform="matrix(0.559316,-0.410889,0.38237,0.601033,-68.4963,-408.023)">
                    <path d="M109.912,927.523L108.152,927.291C96.58,925.739 84.223,931.98 76.388,942.87L76.38,942.871C70.644,950.879 68.007,960.503 69.277,969.361L69.626,971.798L72.037,971.286C73.535,970.966 75.099,970.798 76.703,970.795L79.516,970.794L78.954,968.041C77.68,961.787 79.436,954.36 83.842,948.211L83.851,948.196C89.811,939.947 99.263,935.753 107.05,937.369L110.022,937.991L109.804,934.955C109.69,933.352 109.792,931.681 110.107,929.981L110.171,929.633L109.912,927.523Z" style="fill:rgb(104,70,1);fill-rule:nonzero;"/>
                </g>
            </g>
            <g transform="matrix(-0.9797,-0.961857,-0.832968,0.9797,878.197,374.922)">
                <g id="leye1" serif:id="leye" transform="matrix(0.677374,0.0153815,-0.0143139,0.727897,-68.4963,-408.023)">
                    <ellipse cx="647.853" cy="723.899" rx="17.65" ry="21.986" style="fill:rgb(104,70,1);"/>
                </g>
                <g id="path4607-9-21" serif:id="path4607-9-2" transform="matrix(0.559316,-0.410889,0.38237,0.601033,-68.4963,-408.023)">
                    <path d="M126.036,976.097C126.859,975.421 127.772,975.069 129.679,974.169C131.586,973.268 132.523,972.556 134.806,971.224C132.581,968.287 129.094,961.789 126.956,951.987C124.817,942.184 123.336,931.272 123.73,919.389C121.886,920.604 120.059,922.074 118.287,923.768C117.537,924.491 116.798,925.252 116.074,926.05C116.303,939.204 119.045,949.862 120.914,958.859C122.782,967.856 124.124,973.095 126.036,976.097L126.036,976.097Z" style="fill:rgb(104,70,1);fill-rule:nonzero;"/>
                </g>
                <g id="path4607-71" serif:id="path4607-7" transform="matrix(0.559316,-0.410889,0.38237,0.601033,-68.4963,-408.023)">
                    <path d="M109.912,927.523L108.152,927.291C96.58,925.739 84.223,931.98 76.388,942.87L76.38,942.871C70.644,950.879 68.007,960.503 69.277,969.361L69.626,971.798L72.037,971.286C73.535,970.966 75.099,970.798 76.703,970.795L79.516,970.794L78.954,968.041C77.68,961.787 79.436,954.36 83.842,948.211L83.851,948.196C89.811,939.947 99.263,935.753 107.05,937.369L110.022,937.991L109.804,934.955C109.69,933.352 109.792,931.681 110.107,929.981L110.171,929.633L109.912,927.523Z" style="fill:rgb(104,70,1);fill-rule:nonzero;"/>
                </g>
            </g>
            <g id="path9673-3" transform="matrix(0.890219,0.135433,-0.126033,0.956617,391.89,-835.948)">
                <path d="M158.816,1065.64C158.415,1060.88 157.478,1057.29 154.805,1054.71C152.132,1052.14 148.652,1051.88 146.107,1051.93C141.018,1052.04 137.103,1053.03 131.48,1049.45C128.509,1047.56 127.355,1046.09 126.767,1044.92C126.178,1043.76 126.045,1042.66 125.975,1040.94C125.906,1039.22 126.026,1036.89 125.079,1034.14C124.132,1031.4 121.926,1028.67 118.635,1026.66C115.169,1024.55 111.424,1023.97 108.258,1024.25C105.091,1024.54 102.444,1025.49 100.151,1026.19C97.858,1026.89 95.958,1027.36 94.34,1027.33C92.722,1027.29 91.276,1026.94 89.161,1025.33C86.853,1023.58 86.234,1022.48 85.943,1021.66C85.651,1020.84 85.642,1019.92 85.705,1018.18C85.767,1016.44 85.884,1013.88 84.832,1011.06C83.779,1008.24 81.637,1005.5 78.254,1002.91C71.685,997.883 64.079,995.557 55.933,996.494C47.787,997.432 39.235,1001.27 29.276,1007.63C23.959,1011.03 20.6,1014.53 19.184,1018.66C17.769,1022.78 18.847,1026.92 20.503,1029.94C22.159,1032.97 24.319,1035.37 26.037,1037.46C27.755,1039.56 28.912,1041.39 29.126,1042.17C30.052,1045.57 28.058,1049.76 26.141,1055.13C25.183,1057.82 24.241,1060.9 24.934,1064.45C25.627,1068.01 28.27,1071.3 32.132,1073.51C39.494,1077.71 45.932,1075.98 49.49,1075C51.269,1074.51 52.404,1074.29 53.747,1074.47C55.09,1074.66 56.913,1075.28 59.756,1077.43C65.248,1081.58 66.418,1085.73 67.146,1090.52C67.509,1092.92 67.646,1095.42 68.074,1098C68.5,1100.59 69.238,1103.47 71.413,1105.93C74.08,1108.95 77.889,1109.41 81.071,1109.23C84.254,1109.05 87.409,1108.23 90.454,1107.37C93.5,1106.5 96.427,1105.55 98.726,1104.97C101.024,1104.39 102.868,1104.58 102.161,1104.35C101.63,1104.18 101.84,1104.05 102.361,1105.13C102.881,1106.21 103.47,1108.04 104.224,1110.03C104.978,1112.03 105.856,1114.28 107.857,1116.32C109.856,1118.37 113.465,1119.65 116.816,1119.01C122.331,1117.96 129.025,1115.37 134.898,1111.98C140.964,1108.49 146.756,1104.17 150.687,1100.2C154.48,1096.38 156.81,1091.19 158.132,1085.75C159.439,1080.38 159.566,1074.49 158.819,1065.64L158.816,1065.64Z" style="fill:rgb(104,70,1);fill-rule:nonzero;"/>
            </g>
            <g id="path13632" transform="matrix(0.890219,0.135433,-0.126033,0.956617,391.89,-835.948)">
                <path d="M148.103,1089.01C147.417,1083.04 141.724,1078.96 135.845,1080.23C135.845,1080.23 132.225,1080.96 127.302,1080.99C122.379,1081.02 116.759,1079.99 114.007,1078.23C113.228,1077.74 111.359,1073.48 109.131,1065.49C106.903,1057.49 103.027,1045.85 91.254,1040.08C79.497,1034.32 67.561,1037.45 59.324,1040.97C51.087,1044.5 45.227,1049.18 45.227,1049.18C18.158,1065.74 47.17,1073.77 57.836,1065.13C57.836,1065.13 61.821,1062.03 67.321,1059.68C72.82,1057.33 78.509,1056.48 82.311,1058.34C86.098,1060.2 87.55,1063.82 89.538,1070.95C91.526,1078.09 92.762,1088.82 103.085,1095.39C111.435,1100.7 120.471,1101.36 127.428,1101.32C134.386,1101.28 139.87,1100.17 139.87,1100.17C145.117,1099.18 148.712,1094.31 148.103,1089.01Z" style="fill:rgb(255,85,85);fill-rule:nonzero;"/>
            </g>
            <g id="path9673" transform="matrix(0.890219,0.135433,-0.126033,0.956617,391.89,-835.948)">
                <path d="M153.955,1064.52C152.058,1049.79 142.418,1062 128.947,1053.43C115.042,1044.59 126.597,1037.06 116.173,1030.69C105.748,1024.33 97.533,1037.63 86.307,1029.1C75.082,1020.57 86.994,1015.54 75.38,1006.66C70.416,1002.86 65.256,1000.97 59.471,1001.01C70.234,1015.35 86.512,1033.91 105.953,1045.81C126.627,1058.46 142.595,1067.18 154.44,1072.19C154.408,1070.33 154.303,1068.29 154.113,1066.03C154.067,1065.5 154.018,1065 153.956,1064.52L153.955,1064.52ZM101.44,1099.71C95.414,1093.65 88.393,1087.3 80.268,1080.97C63.955,1068.28 47.424,1057.48 33.374,1049.03C31.149,1056.99 25.184,1064.1 34.473,1069.4C46.82,1076.46 49.441,1063.71 62.601,1073.66C75.762,1083.61 69.88,1097.08 74.945,1102.8C79.469,1107.92 94.452,1100.19 101.44,1099.71L101.44,1099.71Z" style="fill:white;fill-rule:nonzero;"/>
            </g>
            <g id="path13615" transform="matrix(0.890219,0.135433,-0.126033,0.956617,391.89,-835.948)">
                <path d="M174.066,968.207C174.066,968.207 161.69,970.605 156.563,974.177C151.437,977.749 149.153,986.803 149.153,986.803C149.153,986.803 154.313,980.325 159.072,977.112C163.83,973.899 174.066,968.207 174.066,968.207Z" style="fill:rgb(104,70,1);fill-rule:nonzero;"/>
            </g>
            <g id="path13615-4" transform="matrix(0.890219,0.135433,-0.126033,0.956617,391.89,-835.948)">
                <path d="M149.099,949.435C149.099,949.435 150.711,961.939 148.931,967.928C147.151,973.917 139.275,978.931 139.275,978.931C139.275,978.931 143.802,971.997 145.357,966.469C146.912,960.941 149.099,949.435 149.099,949.435Z" style="fill:rgb(104,70,1);fill-rule:nonzero;"/>
            </g>
        </g>
    </g>
</svg>
