<?xml version="1.0" encoding="UTF-8" standalone="no"?>
<!DOCTYPE svg PUBLIC "-//W3C//DTD SVG 1.1//EN" "http://www.w3.org/Graphics/SVG/1.1/DTD/svg11.dtd">
<svg width="100%" height="100%" viewBox="0 0 255 255" version="1.1" xmlns="http://www.w3.org/2000/svg" xmlns:xlink="http://www.w3.org/1999/xlink" xml:space="preserve" xmlns:serif="http://www.serif.com/" style="fill-rule:evenodd;clip-rule:evenodd;stroke-linejoin:round;stroke-miterlimit:2;">
    <g transform="matrix(1,0,0,1,-574.547,-3)">
        <g id="lemon_ping_zoomed" transform="matrix(1,0,0,1,574.547,3)">
            <rect x="0" y="0" width="255" height="255" style="fill:none;"/>
            <clipPath id="_clip1">
                <rect x="0" y="0" width="255" height="255"/>
            </clipPath>
            <g clip-path="url(#_clip1)">
                <g transform="matrix(1.40503,0.0366986,-0.0354038,1.35545,-30.6317,-63.2328)">
                    <g transform="matrix(0.149271,0.896737,-0.912882,0.151959,225.357,-3.03644)">
                        <g transform="matrix(7.04762,0,0,7.04762,0.500558,1.45139)">
                            <path d="M11.405,3.339C17.885,2.064 19.858,4.604 23.06,3.423C26.262,2.242 23.153,6.243 22.315,6.931C21.475,7.619 14.174,11.74 11.008,10.229C7.842,8.718 7.826,4.043 11.405,3.339Z" style="fill:rgb(92,145,59);fill-rule:nonzero;"/>
                        </g>
                        <g transform="matrix(7.04762,0,0,7.04762,0.500558,1.45139)">
                            <path d="M15.001,16C14.697,16 14.396,15.862 14.2,15.6C13.513,14.684 12.892,13.645 12.235,12.544C9.967,8.749 7.396,4.446 0.783,2.976C0.244,2.856 -0.096,2.322 0.024,1.783C0.144,1.243 0.678,0.905 1.217,1.024C8.671,2.68 11.599,7.581 13.952,11.519C14.582,12.573 15.176,13.568 15.8,14.4C16.132,14.842 16.042,15.469 15.6,15.8C15.42,15.935 15.21,16 15.001,16Z" style="fill:rgb(119,178,85);fill-rule:nonzero;"/>
                        </g>
                        <g transform="matrix(7.04762,0,0,7.04762,0.500558,1.45139)">
                            <path d="M34.3,31.534C34.302,31.517 34.297,31.506 34.297,31.491C37.071,26.156 36.944,16.378 30.951,10.384C25.15,4.584 17.271,4.563 12.184,6.317C10.605,6.931 9.267,6.383 8.369,7.282C7.488,8.163 8.018,10.001 7.655,11.101C4.486,16.303 4.25,24.126 10.343,30.218C15.305,35.18 20.781,37.06 30.323,35.071C30.325,35.069 30.328,35.07 30.331,35.069C31.479,34.851 33.281,35.592 33.897,34.975C34.982,33.89 34.206,32.617 34.3,31.534Z" style="fill:rgb(255,204,77);fill-rule:nonzero;"/>
                        </g>
                        <g transform="matrix(7.04762,0,0,7.04762,0.500558,1.45139)">
                            <path d="M8.208,6.583C8.208,6.583 3.938,5.993 1.351,11.182C-1.236,16.37 1.933,20.307 1.641,23.835C1.348,27.365 3.207,25.1 4.262,23.39C5.317,21.68 8.492,18.495 9.2,14.121C9.907,9.745 9.13,7.663 8.208,6.583Z" style="fill:rgb(119,178,85);fill-rule:nonzero;"/>
                        </g>
                    </g>
                    <g transform="matrix(0.825348,0.653224,-0.653224,0.825348,94.7371,-41.1212)">
                        <path d="M127.565,132.475L127.565,132.425C127.565,132.425 141.578,132.155 148.424,134.911C152.101,136.391 160.692,141.337 168.096,141.956C181.248,143.055 190.616,141.736 196.016,141.781C197.666,141.794 204.786,137.236 205.876,136.78C208.507,135.679 215.615,135.981 215.615,135.981C215.615,135.981 214.282,169.983 193.065,197.211C173.627,222.157 156.37,231.865 142.937,237.483C140.844,238.359 136.4,247.933 132.515,249.883C130.256,251.017 129.199,251.609 126.834,251.785C125.086,251.915 123.775,251.046 121.968,249.701C119.356,247.757 114.925,241.523 113.177,240.081C102.198,231.021 86.769,227.944 61.165,197.761C40.892,173.862 40.234,136.075 40.234,136.075C40.234,136.075 46.624,135.729 49.255,136.83C50.345,137.286 57.465,141.844 59.115,141.831C64.515,141.786 74.524,143.341 87.676,142.242C95.08,141.623 103.03,136.441 106.706,134.961C113.55,132.206 127.554,132.475 127.565,132.475Z" style="fill:rgb(125,106,90);"/>
                    </g>
                </g>
                <g transform="matrix(1.33,0.0353133,-0.0353133,1.33,-740.218,269.139)">
                    <g transform="matrix(-4.57088,-3.38473,-3.38473,4.57088,627.195,-145.442)">
                        <path d="M0,-7C-1.381,-7 -2.5,-5.433 -2.5,-3.5C-2.5,-1.567 -1.381,0 0,0C1.381,0 2.5,-1.567 2.5,-3.5C2.5,-5.433 1.381,-7 0,-7" style="fill:rgb(102,69,0);fill-rule:nonzero;"/>
                    </g>
                    <g transform="matrix(-4.57088,-3.38473,-3.38473,4.57088,680.379,-103.492)">
                        <path d="M0,-7C-1.381,-7 -2.5,-5.433 -2.5,-3.5C-2.5,-1.567 -1.381,0 0,0C1.381,0 2.5,-1.567 2.5,-3.5C2.5,-5.433 1.381,-7 0,-7" style="fill:rgb(102,69,0);fill-rule:nonzero;"/>
                    </g>
                    <g transform="matrix(3.38819,2.60065,-2.60065,3.38819,667.346,238.776)">
                        <g transform="matrix(1,0,0,1,-47.25,-48)">
                            <path d="M0,-8C2.209,-8 4,-6.209 4,-4C4,-1.791 2.209,0 0,0L-14,0C-16.209,0 -18,-1.791 -18,-4C-18,-6.209 -16.209,-8 -14,-8L0,-8Z" style="fill:white;fill-rule:nonzero;"/>
                        </g>
                        <g transform="matrix(1,0,0,1,-47.125,-55.125)">
                            <path d="M0,6L-0.5,6L-0.5,3.5L2.949,3.5C2.71,4.916 1.483,6 0,6M-4.5,3.5L-1.5,3.5L-1.5,6L-4.5,6L-4.5,3.5ZM-8.5,3.5L-5.5,3.5L-5.5,6L-8.5,6L-8.5,3.5ZM-12.5,3.5L-9.5,3.5L-9.5,6L-12.5,6L-12.5,3.5ZM-14,6C-15.483,6 -16.71,4.916 -16.949,3.5L-13.5,3.5L-13.5,6L-14,6ZM-14,0L-13.5,0L-13.5,2.5L-16.949,2.5C-16.71,1.084 -15.483,0 -14,0M-9.5,2.5L-12.5,2.5L-12.5,0L-9.5,0L-9.5,2.5ZM-5.5,2.5L-8.5,2.5L-8.5,0L-5.5,0L-5.5,2.5ZM-1.5,2.5L-4.5,2.5L-4.5,0L-1.5,0L-1.5,2.5ZM0,0C1.483,0 2.71,1.084 2.949,2.5L-0.5,2.5L-0.5,0L0,0ZM0,-2L-14,-2C-16.757,-2 -19,0.243 -19,3C-19,5.757 -16.757,8 -14,8L0,8C2.757,8 5,5.757 5,3C5,0.243 2.757,-2 0,-2" style="fill:rgb(102,69,0);fill-rule:nonzero;"/>
                        </g>
                    </g>
                </g>
                <g id="Layer-1" serif:id="Layer 1">
                </g>
                <g id="svg8" transform="matrix(1,0,0,1,1.19338,0.714004)">
                    <g transform="matrix(0,-1,-1,0,45.9094,0.0002)">
                        <path d="M-45.909,-45.909C-71.264,-45.909 -91.818,-25.355 -91.818,0C-91.818,25.355 -71.264,45.909 -45.909,45.909C-20.554,45.909 0,25.355 0,0C0,-25.355 -20.554,-45.909 -45.909,-45.909" style="fill:rgb(196,18,18);fill-rule:nonzero;"/>
                    </g>
                    <g transform="matrix(1,0,0,1,43.4219,59.7827)">
                        <path d="M0,-27.747L-3.703,-27.747C-6.716,-27.747 -7.972,-29.944 -7.972,-32.078C-7.972,-34.275 -6.402,-36.411 -3.703,-36.411L5.21,-36.411C7.911,-36.411 9.417,-34.465 9.417,-31.955L9.417,3.769C9.417,6.909 7.408,8.664 4.707,8.664C2.009,8.664 0,6.909 0,3.769L0,-27.747Z" style="fill:white;fill-rule:nonzero;"/>
                    </g>
                </g>
            </g>
        </g>
    </g>
</svg>
