<?xml version="1.0" encoding="UTF-8" standalone="no"?>
<!DOCTYPE svg PUBLIC "-//W3C//DTD SVG 1.1//EN" "http://www.w3.org/Graphics/SVG/1.1/DTD/svg11.dtd">
<svg width="100%" height="100%" viewBox="0 0 255 255" version="1.1" xmlns="http://www.w3.org/2000/svg" xmlns:xlink="http://www.w3.org/1999/xlink" xml:space="preserve" xmlns:serif="http://www.serif.com/" style="fill-rule:evenodd;clip-rule:evenodd;stroke-linejoin:round;stroke-miterlimit:2;">
    <rect id="lemon_s_autumn" x="0" y="0" width="255" height="255" style="fill:none;"/>
    <g id="lemon_s_autumn1" serif:id="lemon_s_autumn">
        <g id="emoji">
            <g id="lemon_autumn" transform="matrix(1.49142,2.68458e-17,-5.55112e-17,1.05228,0.00163753,-9.346)">
                <rect x="0" y="8.882" width="170.977" height="226.949" style="fill:rgb(222,128,21);fill-opacity:0;"/>
                <clipPath id="_clip1">
                    <rect x="0" y="8.882" width="170.977" height="226.949"/>
                </clipPath>
                <g clip-path="url(#_clip1)">
                    <g transform="matrix(0.670502,-1.71059e-17,3.53713e-17,0.950321,-387.55,7.61462)">
                        <g id="tilted" transform="matrix(0.143973,-1.0826,1.04467,0.140946,551.241,230.41)">
                            <g id="Back-leaf" serif:id="Back leaf" transform="matrix(1.12567,6.30636,-6.42053,1.1515,220.143,-2.15814)">
                                <path d="M11.405,3.339C17.885,2.064 19.858,4.604 23.06,3.423C26.262,2.242 23.153,6.243 22.315,6.931C21.475,7.619 14.174,11.74 11.008,10.229C7.842,8.718 7.826,4.043 11.405,3.339Z" style="fill:rgb(190,81,26);fill-rule:nonzero;"/>
                            </g>
                            <g id="Stem" transform="matrix(1.23169,6.28526,-6.39994,1.26745,217.08,-5.05983)">
                                <path d="M15.001,16C14.697,16 14.396,15.862 14.2,15.6C13.513,14.684 12.892,13.645 12.235,12.544C9.967,8.749 7.396,4.446 0.783,2.976C0.244,2.856 -0.096,2.322 0.024,1.783C0.144,1.243 0.678,0.905 1.217,1.024C8.671,2.68 11.599,7.581 13.952,11.519C14.582,12.573 15.176,13.568 15.8,14.4C16.132,14.842 16.042,15.469 15.6,15.8C15.42,15.935 15.21,16 15.001,16Z" style="fill:rgb(234,149,51);fill-rule:nonzero;"/>
                            </g>
                            <g id="Base">
                                <g id="Lemon" transform="matrix(0.931358,0.737331,-0.70992,0.963526,99.025,-88.8077)">
                                    <path d="M127.632,51.26C127.86,51.258 128.079,51.27 128.291,51.293C131.515,51.59 134.065,53.889 138.78,57.599L139.528,58.184C144.392,61.772 162.371,69.083 179.494,87.448L179.5,87.455C195.577,104.623 205.433,127.707 205.446,153.079C205.446,153.081 189,171 189,171C189,190 156.018,232 127.5,232C98.982,232 67,191 67,171L49.746,153.13C49.746,127.737 59.604,104.634 75.692,87.455L75.698,87.448C92.822,69.083 110.8,61.772 115.664,58.184L116.412,57.599C121.127,53.889 123.677,51.59 126.901,51.293C127.114,51.269 127.333,51.258 127.56,51.26L127.632,51.26Z" style="fill:rgb(255,204,77);"/>
                                </g>
                                <g id="Shape" transform="matrix(0.931358,0.737331,-0.70992,0.963526,99.025,-88.8077)">
                                    <path d="M49.785,153.128C50.289,153.103 55.53,152.872 57.716,153.793C58.668,154.194 64.838,158.205 66.3,158.193C71.086,158.153 79.908,159.52 91.595,158.551C98.175,158.006 105.377,153.445 108.68,152.142C114.829,149.717 127.596,150.004 127.596,150.004C127.596,150.004 139.96,149.721 145.942,152.145C149.155,153.447 156.616,157.799 163.158,158.343C174.778,159.308 183.119,158.146 187.902,158.185C189.364,158.197 195.812,154.185 196.792,153.783C199.151,152.817 205.414,153.078 205.446,153.079L205.446,153.13C205.446,192.951 181.202,227.142 146.714,241.68C135.449,246.429 134.107,255.091 127.599,254.999C121.119,255.06 119.762,246.42 108.518,241.68C74.029,227.142 49.785,192.95 49.785,153.13L49.785,153.128Z" style="fill:rgb(125,106,90);"/>
                                </g>
                            </g>
                            <g transform="matrix(1.13833,6.30395,-6.41818,1.16534,221.153,-3.96215)">
                                <g id="Front-leaf" serif:id="Front leaf">
                                    <path d="M8.208,6.583C8.208,6.583 3.938,5.993 1.351,11.182C-1.236,16.37 1.933,20.307 1.641,23.835C1.348,27.365 3.207,25.1 4.262,23.39C5.317,21.68 8.492,18.495 9.2,14.121C9.907,9.745 9.13,7.663 8.208,6.583Z" style="fill:rgb(222,128,21);fill-rule:nonzero;"/>
                                </g>
                            </g>
                        </g>
                        <g transform="matrix(0.900526,-0.883632,0.828524,0.844363,250.5,364.348)">
                            <g transform="matrix(4.60728,0,0,4.60215,314.431,64.7038)">
                                <path d="M18,21C14.377,21 11.973,20.578 9,20C8.321,19.869 7,20 7,22C7,26 11.595,31 18,31C24.404,31 29,26 29,22C29,20 27.679,19.868 27,20C24.027,20.578 21.623,21 18,21Z" style="fill:rgb(66,44,1);fill-rule:nonzero;"/>
                            </g>
                            <g transform="matrix(4.60728,0,0,4.9345,314.431,54.6157)">
                                <path d="M9,22C9,22 12,23 18,23C24,23 27,22 27,22C27,22 25,26 18,26C11,26 9,22 9,22Z" style="fill:white;fill-rule:nonzero;"/>
                            </g>
                        </g>
                        <g transform="matrix(4.0597,-3.83217,3.9628,4.19808,581.992,126.531)">
                            <path d="M31.001,11C30.696,11 30.397,10.862 30.2,10.6C27.56,7.079 24.139,7.002 23.994,7C23.444,6.994 23,6.544 23.003,5.995C23.006,5.444 23.45,5 24,5C24.184,5 28.537,5.05 31.8,9.4C32.132,9.842 32.042,10.469 31.6,10.8C31.42,10.935 31.21,11 31.001,11ZM4.999,11C4.791,11 4.58,10.935 4.4,10.8C3.958,10.469 3.869,9.842 4.2,9.4C7.462,5.05 11.816,5 12,5C12.552,5 13,5.448 13,6C13,6.551 12.555,6.998 12.004,7C11.849,7.002 8.436,7.086 5.8,10.6C5.604,10.862 5.303,11 4.999,11Z" style="fill:rgb(102,69,0);fill-rule:nonzero;"/>
                        </g>
                        <g transform="matrix(1,0,0,1,0.00163753,-8.09302)">
                            <g transform="matrix(4.30947,-4.06793,4.2066,4.45635,567.521,129.411)">
                                <ellipse cx="12" cy="14.5" rx="2.5" ry="3.5" style="fill:rgb(102,69,0);"/>
                            </g>
                            <g transform="matrix(4.30947,-4.06793,4.2066,4.45635,567.521,129.411)">
                                <ellipse cx="24" cy="14.5" rx="2.5" ry="3.5" style="fill:rgb(102,69,0);"/>
                            </g>
                        </g>
                    </g>
                </g>
            </g>
            <g transform="matrix(-2.54932,-0.645295,-0.645295,2.54932,241.275,171.478)">
                <path d="M14,20C14,24.418 12,32.562 0.938,33C3.562,29.125 0,24.418 0,20C0,15.582 2.582,12 7,12C11.418,12 14,15.582 14,20Z" style="fill:rgb(217,158,130);fill-rule:nonzero;"/>
                <path d="M7.997,21.582C7.997,21.554 8,21.529 8,21.5L8,18L8.542,18C11.472,18 13.991,20.5 13.991,20.5C13.991,19.947 11.834,16 8.25,16L8,16L8,9C8,8.448 7.552,8 7,8C6.448,8 6,8.448 6,9L6,16L5.459,16C1.876,16 0.015,19.947 0.015,20.5C0.015,20.5 2.238,18 5.167,18L6,18L6,20.042C6,20.435 5.98,20.791 5.968,21.162L5.537,21.153C1.954,21.083 1.011,24.52 1,25.072C1,25.072 2.277,23.089 5.206,23.147L5.84,23.16C5.735,24.211 5.58,25.153 5.387,25.997C3.65,26.376 2.117,27.807 2.027,28.194C2.027,28.194 3.897,27.707 4.891,27.771C3.401,32.095 0.938,33 0.938,33C1.309,33 4.368,32.027 6.336,28.55L6.715,28.729C7.535,29.218 8.46,30.946 8.46,30.946C8.646,30.55 8.598,28.032 7.166,26.705C7.487,25.8 7.731,24.774 7.868,23.611C10.579,24.401 12.091,27.27 12.091,27.27C12.219,26.74 11.35,22.521 7.997,21.582Z" style="fill:rgb(193,105,79);fill-rule:nonzero;"/>
            </g>
            <g transform="matrix(3.45016,-0.999961,0.999961,3.45016,23.7319,133.244)">
                <path d="M14,20C14,24.418 12,32.562 0.938,33C3.562,29.125 0,24.418 0,20C0,15.582 2.582,12 7,12C11.418,12 14,15.582 14,20Z" style="fill:rgb(217,158,130);fill-rule:nonzero;"/>
                <path d="M7.997,21.582C7.997,21.554 8,21.529 8,21.5L8,18L8.542,18C11.472,18 13.991,20.5 13.991,20.5C13.991,19.947 11.834,16 8.25,16L8,16L8,9C8,8.448 7.552,8 7,8C6.448,8 6,8.448 6,9L6,16L5.459,16C1.876,16 0.015,19.947 0.015,20.5C0.015,20.5 2.238,18 5.167,18L6,18L6,20.042C6,20.435 5.98,20.791 5.968,21.162L5.537,21.153C1.954,21.083 1.011,24.52 1,25.072C1,25.072 2.277,23.089 5.206,23.147L5.84,23.16C5.735,24.211 5.58,25.153 5.387,25.997C3.65,26.376 2.117,27.807 2.027,28.194C2.027,28.194 3.897,27.707 4.891,27.771C3.401,32.095 0.938,33 0.938,33C1.309,33 4.368,32.027 6.336,28.55L6.715,28.729C7.535,29.218 8.46,30.946 8.46,30.946C8.646,30.55 8.598,28.032 7.166,26.705C7.487,25.8 7.731,24.774 7.868,23.611C10.579,24.401 12.091,27.27 12.091,27.27C12.219,26.74 11.35,22.521 7.997,21.582Z" style="fill:rgb(193,105,79);fill-rule:nonzero;"/>
            </g>
            <g transform="matrix(-2.19648,0.560556,0.560556,2.19648,268.389,-9.78617)">
                <path d="M15.675,17.283C15.675,23.622 18.545,35.31 34.42,35.938C30.653,30.378 35.766,23.623 35.766,17.283C35.766,10.942 32.06,5.803 25.721,5.803C19.38,5.802 15.675,10.942 15.675,17.283Z" style="fill:rgb(217,158,130);fill-rule:nonzero;"/>
                <path d="M28.296,21.8C32.497,21.716 34.33,24.562 34.33,24.562C34.313,23.769 32.963,18.837 27.819,18.938L27.027,18.954C27.011,18.431 27,17.896 27,17.343L27,15L28.349,15C32.554,15 35.743,18.023 35.743,18.023C35.743,17.23 33.075,12 27.932,12L27,12L27,1.498C27,0.706 26.292,0.063 25.5,0.063C24.707,0.063 24,0.706 24,1.498L24,12L23.927,12C18.783,12 15.689,17.229 15.689,18.023C15.689,18.023 19.305,15 23.51,15L24,15L24,19.435C24,19.507 24.004,19.575 24.005,19.646C19.432,21.148 18.235,26.971 18.416,27.714C18.416,27.714 20.478,23.797 24.187,22.551C24.396,24.275 24.773,25.79 25.264,27.117C23.421,29.065 23.368,32.439 23.626,32.989C23.626,32.989 24.95,30.51 26.129,29.808L26.452,29.656C29.298,34.571 33.669,35.937 34.198,35.937C34.198,35.937 30.691,34.649 28.573,28.442C29.943,28.277 32.855,29.04 32.855,29.04C32.724,28.473 30.415,26.317 27.843,25.84C27.575,24.643 27.359,23.307 27.211,21.82L28.296,21.8Z" style="fill:rgb(193,105,79);fill-rule:nonzero;"/>
            </g>
        </g>
    </g>
</svg>
