<?xml version="1.0" encoding="utf-8"?>
<!-- Generator: Adobe Illustrator 22.0.1, SVG Export Plug-In . SVG Version: 6.00 Build 0)  -->
<svg version="1.1"
	 id="svg8" inkscape:export-filename="/home/jeremiah/Pictures/Vectors/pythondiscord-logo.svg.png" inkscape:export-xdpi="270.42343" inkscape:export-ydpi="270.42343" inkscape:version="0.92.2 2405546, 2018-03-11" sodipodi:docname="logo_circle.svg" xmlns:cc="http://creativecommons.org/ns#" xmlns:dc="http://purl.org/dc/elements/1.1/" xmlns:inkscape="http://www.inkscape.org/namespaces/inkscape" xmlns:rdf="http://www.w3.org/1999/02/22-rdf-syntax-ns#" xmlns:sodipodi="http://sodipodi.sourceforge.net/DTD/sodipodi-0.dtd" xmlns:svg="http://www.w3.org/2000/svg"
	 xmlns="http://www.w3.org/2000/svg" xmlns:xlink="http://www.w3.org/1999/xlink" x="0px" y="0px" viewBox="0 0 438 438"
	 style="enable-background:new 0 0 438 438;" xml:space="preserve">
<style type="text/css">
	.st0{fill:#7289DA;}
	.st1{fill:#5B6DAE;}
	.st2{fill:#CAD6FF;}
	.st3{fill:#FFFFFF;}
</style>
<sodipodi:namedview  bordercolor="#666666" borderopacity="1.0" fit-margin-bottom="0" fit-margin-left="0" fit-margin-right="0" fit-margin-top="0" id="base" inkscape:current-layer="layer1" inkscape:cx="285.70269" inkscape:cy="275.62701" inkscape:document-units="mm" inkscape:measure-end="312.669,891.049" inkscape:measure-start="288.048,912.183" inkscape:pageopacity="0.0" inkscape:pageshadow="2" inkscape:window-height="1045" inkscape:window-maximized="0" inkscape:window-width="1912" inkscape:window-x="4" inkscape:window-y="31" inkscape:zoom="1" pagecolor="#ffffff" showgrid="false">
	</sodipodi:namedview>
<g id="layer1" transform="translate(-11.658899,-6.6740327)" inkscape:groupmode="layer" inkscape:label="Layer 1">
	<ellipse id="path1051" class="st0" cx="230.7" cy="225.7" rx="219" ry="219"/>
</g>
<g id="layer2" transform="translate(-7.9374867,-2.9193843)" inkscape:groupmode="layer" inkscape:label="Layer 2">
	<g id="g5153" transform="matrix(0.95727303,0,0,0.95306026,-1.0022677,-3.4295495)">
		<g id="g5151" inkscape:label="Clip">
			<path id="path5041" inkscape:connector-curvature="0" sodipodi:nodetypes="ccccc" class="st1" d="M385.3,159.4l18.5,15.9l8,38.8
				l-62.4-36L385.3,159.4z"/>
			<g id="g5110" transform="translate(-17.859375,-3.3072917)">
				<g id="g5108" inkscape:label="Clip">
					<g id="g5072">
						<g id="g5070" inkscape:label="Clip">
							<g id="g5031">
								<g id="g5029" inkscape:label="Clip">
									<g id="g4984">
										<g id="g4982" inkscape:label="Clip">
											<g id="g4955">
												<g id="g4953" inkscape:label="Clip">
													<g id="g4899" transform="matrix(63.8638,0,0,63.8638,-273.24001,-38.357102)">
														<g id="g4897" inkscape:label="Clip">
															<g id="g4853" transform="translate(-2.8377931,-0.23976758)">
																<g id="g4851" inkscape:label="Clip">
																	<g id="g4835">
																		<g id="g4833" inkscape:label="Clip">
																			<path id="path1948-3" inkscape:connector-curvature="0" class="st1" d="M11.4,2.1c-0.2,0-0.4,0-0.6,0.1
																				c-0.5,0.1-0.6,0.3-0.6,0.7v0.5h1.3v0.2h-1.3H9.6c-0.4,0-0.7,0.2-0.8,0.7C8.7,4.7,8.7,5,8.8,5.5
																				c0.1,0.4,0.3,0.7,0.7,0.7H10V5.6c0-0.4,0.4-0.8,0.8-0.8h1.3c0.4,0,0.6-0.3,0.6-0.7V2.9c0-0.4-0.3-0.6-0.6-0.7
																				C11.8,2.1,11.6,2.1,11.4,2.1L11.4,2.1z M10.7,2.5c0.1,0,0.2,0.1,0.2,0.2c0,0.1-0.1,0.2-0.2,0.2
																				c-0.1,0-0.2-0.1-0.2-0.2C10.4,2.6,10.5,2.5,10.7,2.5z"/>
																			<path id="path1950-6" inkscape:connector-curvature="0" class="st1" d="M12.9,3.5v0.6c0,0.4-0.4,0.8-0.8,0.8
																				h-1.3c-0.4,0-0.6,0.3-0.6,0.7v1.2c0,0.4,0.3,0.6,0.6,0.7c0.4,0.1,0.8,0.1,1.3,0c0.3-0.1,0.6-0.3,0.6-0.7V6.3
																				h-1.3V6.1h1.3h0.6c0.4,0,0.5-0.3,0.6-0.7c0.1-0.4,0.1-0.8,0-1.3c-0.1-0.4-0.3-0.7-0.6-0.7H12.9z M12.1,6.6
																				c0.1,0,0.2,0.1,0.2,0.2c0,0.1-0.1,0.2-0.2,0.2c-0.1,0-0.2-0.1-0.2-0.2C11.9,6.7,12,6.6,12.1,6.6z"/>
																		</g>
																	</g>
																	<rect id="rect4841" x="10.3" y="2.5" class="st1" width="0.7" height="0.7"/>
																	<rect id="rect4843" x="11.8" y="6.6" class="st1" width="0.7" height="0.6"/>
																</g>
															</g>
															<rect id="rect4882" x="7.2" y="2" class="st1" width="0.7" height="0.3"/>
														</g>
													</g>
													<path id="path4939" inkscape:connector-curvature="0" class="st1" d="M338.4,333.3l18.5,15.9v2.2h-22.6v-17.3
														L338.4,333.3z"/>
												</g>
											</g>
											<rect id="rect4965" x="189.5" y="103.5" class="st1" width="8.1" height="12.2"/>
										</g>
									</g>
									<path id="path5009" inkscape:connector-curvature="0" class="st1" d="M173,144.2l18.5,15.9h19.7v-27.4h-35.8L173,144.2z"/>
								</g>
							</g>
							<path id="path5047" inkscape:connector-curvature="0" sodipodi:nodetypes="ccccc" class="st1" d="M323,81.3l17.8,15.3
								l-7,15.2l-34.4-23.8L323,81.3z"/>
						</g>
					</g>
					<path id="path5082" inkscape:connector-curvature="0" sodipodi:nodetypes="ccccc" class="st1" d="M109.2,314.1l17.9,15.6
						l21.1,0.7l-36.7-36.7L109.2,314.1z"/>
				</g>
			</g>
			<g id="g4821" transform="matrix(63.863799,0,0,63.863799,-291.09937,-41.664393)">
				<g id="g4819" inkscape:label="Clip">
					<path id="path1948" inkscape:connector-curvature="0" class="st2" d="M8.3,1.6c-0.2,0-0.4,0-0.6,0.1C7.1,1.8,7,2,7,2.4v0.5h1.3
						V3H7H6.5C6.1,3,5.8,3.3,5.7,3.7C5.6,4.2,5.6,4.5,5.7,5C5.8,5.4,6,5.7,6.4,5.7h0.4V5.1c0-0.4,0.4-0.8,0.8-0.8h1.3
						c0.4,0,0.6-0.3,0.6-0.7V2.4c0-0.4-0.3-0.6-0.6-0.7C8.7,1.7,8.5,1.6,8.3,1.6L8.3,1.6z M7.6,2c0.1,0,0.2,0.1,0.2,0.2
						c0,0.1-0.1,0.2-0.2,0.2c-0.1,0-0.2-0.1-0.2-0.2C7.3,2.1,7.4,2,7.6,2z"/>
					<path id="path1950" inkscape:connector-curvature="0" class="st3" d="M9.7,3v0.6c0,0.4-0.4,0.8-0.8,0.8H7.6
						C7.3,4.4,7,4.7,7,5.1v1.2C7,6.7,7.3,6.9,7.6,7C8,7.1,8.4,7.1,8.9,7c0.3-0.1,0.6-0.3,0.6-0.7V5.8H8.3V5.7h1.3h0.6
						c0.4,0,0.5-0.3,0.6-0.7c0.1-0.4,0.1-0.8,0-1.3C10.8,3.3,10.6,3,10.2,3H9.7z M9,6.1c0.1,0,0.2,0.1,0.2,0.2
						c0,0.1-0.1,0.2-0.2,0.2c-0.1,0-0.2-0.1-0.2-0.2C8.8,6.3,8.9,6.1,9,6.1z"/>
				</g>
			</g>
		</g>
	</g>
</g>
</svg>
