<?xml version="1.0" encoding="UTF-8" standalone="no"?>
<!-- Generator: Adobe Illustrator 22.0.1, SVG Export Plug-In . SVG Version: 6.00 Build 0)  -->

<svg
   xmlns:dc="http://purl.org/dc/elements/1.1/"
   xmlns:cc="http://creativecommons.org/ns#"
   xmlns:rdf="http://www.w3.org/1999/02/22-rdf-syntax-ns#"
   xmlns:svg="http://www.w3.org/2000/svg"
   xmlns="http://www.w3.org/2000/svg"
   xmlns:sodipodi="http://sodipodi.sourceforge.net/DTD/sodipodi-0.dtd"
   xmlns:inkscape="http://www.inkscape.org/namespaces/inkscape"
   version="1.1"
   id="svg8"
   inkscape:export-filename="/home/jeremiah/Pictures/Vectors/pythondiscord-logo.svg.png"
   inkscape:export-xdpi="270.42343"
   inkscape:export-ydpi="270.42343"
   inkscape:version="0.92.4 5da689c313, 2019-01-14"
   sodipodi:docname="logo_circle.svg"
   x="0px"
   y="0px"
   viewBox="0 0 438 438"
   style="enable-background:new 0 0 438 438;"
   xml:space="preserve"><metadata
   id="metadata1010"><rdf:RDF><cc:Work
       rdf:about=""><dc:format>image/svg+xml</dc:format><dc:type
         rdf:resource="http://purl.org/dc/dcmitype/StillImage" /></cc:Work></rdf:RDF></metadata><defs
   id="defs1008" />
<style
   type="text/css"
   id="style968">
	.st0{fill:#7289DA;}
	.st1{fill:#5B6DAE;}
	.st2{fill:#CAD6FF;}
	.st3{fill:#FFFFFF;}
</style>
<sodipodi:namedview
   bordercolor="#666666"
   borderopacity="1.0"
   fit-margin-bottom="0"
   fit-margin-left="0"
   fit-margin-right="0"
   fit-margin-top="0"
   id="base"
   inkscape:current-layer="svg8"
   inkscape:cx="468.00921"
   inkscape:cy="131.57457"
   inkscape:document-units="mm"
   inkscape:measure-end="312.669,891.049"
   inkscape:measure-start="288.048,912.183"
   inkscape:pageopacity="0.0"
   inkscape:pageshadow="2"
   inkscape:window-height="1440"
   inkscape:window-maximized="1"
   inkscape:window-width="2560"
   inkscape:window-x="6000"
   inkscape:window-y="0"
   inkscape:zoom="1.4142136"
   pagecolor="#ffffff"
   showgrid="false">
	</sodipodi:namedview>
<circle
   id="path1051"
   class="st0"
   cx="219"
   cy="219"
   r="219"
   style="fill:#7289da"
   inkscape:label="background" />

<style
   id="style6006"
   type="text/css">
	.st0{fill:#7289DA;}
	.st1{fill:#5B6DAE;}
	.st2{fill:#CAD6FF;}
	.st3{fill:#FFFFFF;}
</style><path
   style="fill:#000000;fill-opacity:0.20392157"
   inkscape:label="shadow"
   id="path6010-8"
   d="m 283.15608,67.997183 -11.506,3.3086 c -12.223,-1.8051 -24.757,-2.5971 -36.895,-2.5078 -13.5,0.1 -26.498,1.1992 -37.898,3.1992 -3.6998,0.6516 -7.0474,1.386 -10.107,2.1992 h -35.89301 v 18.801 h 4.50001 v 7.699197 h 2.7832 c -0.63936,3.7142 -0.88476,7.7997 -0.88476,12.301 v 4 h -15.39801 l -2.2012,11 17.60001,15.014 v 0.0859 h 79.201 v 10 H 127.55731 c -23,0 -43.2,13.8 -49.5,40 -7.3,30 -7.6,48.801 0,80.201 0.49734,2.0782 1.0605,4.0985 1.6836,6.0625 l -1.1836,10.438 13.346,11.549 c 7.032,7.5103 16.371,11.951 28.254,11.951 h 27.201 v -36 c 0,-26 22.60001,-49 49.50001,-49 h 79.199 c 22,0 39.6,-18.102 39.6,-40.102 v -75.199 c 0,-12.9 -6.5819,-23.830997 -16.516,-31.272997 z m 76.801,77.599997 -14.301,7.4004 h -20.1 v 35.1 c 0,27.2 -23.1,50 -49.5,50 h -79.1 c -21.7,0 -39.6,18.5 -39.6,40.1 v 75.102 c 0,21.4 18.7,34 39.6,40.1 25.1,7.3 49.1,8.7 79.1,0 19.9,-5.7 39.6,-17.3 39.6,-40.1 v -30.102 h -0.11914 l -11.721,-10 h 51.439 c 23,0 31.602,-16 39.602,-40 8.3,-24.7 7.9,-48.499 0,-80.199 -3.6226,-14.491 -9.3525,-26.71 -18.947,-33.699 z m -123.4,167.6 h 57.5 v 10 h -57.5 z"
   inkscape:connector-curvature="0" /><path
   inkscape:label="upper_snake"
   id="path6012-7"
   d="m 217.05607,53.697183 c -13.5,0.1 -26.5,1.2 -37.9,3.2 -33.50001,5.9 -39.60001,18.2 -39.60001,41 v 30.099997 h 79.20001 v 10 H 109.85606 c -22.999996,0 -43.199996,13.8 -49.499991,40 -7.3,30 -7.6,48.8 0,80.2 5.599995,23.4 19.099995,40 42.099991,40 h 27.2 v -36 c 0,-26 22.6,-49 49.50001,-49 h 79.1 c 22,0 39.6,-18.1 39.6,-40.1 V 97.897183 c 0,-21.4 -18.1,-37.4 -39.6,-41 -13.5,-2.3 -27.6,-3.3 -41.2,-3.2 z m -42.8,24.2 c 8.2,0 14.9,6.8 14.9,15.1 0,8.299997 -6.7,14.999997 -14.9,14.999997 -8.2,0 -14.9,-6.7 -14.9,-14.999997 0,-8.4 6.7,-15.1 14.9,-15.1 z"
   class="st2"
   inkscape:connector-curvature="0"
   style="fill:#cad6ff" /><path
   inkscape:label="lower_snake"
   id="path6014-4"
   d="m 307.85607,137.99718 v 35 c 0,27.2 -23.1,50 -49.5,50 h -79.1 c -21.7,0 -39.60001,18.5 -39.60001,40.1 v 75.1 c 0,21.4 18.70001,34 39.60001,40.1 25.1,7.3 49.1,8.7 79.1,0 19.9,-5.7 39.6,-17.3 39.6,-40.1 v -30.1 h -79.1 v -10 h 118.7 c 23,0 31.6,-16 39.6,-40 8.3,-24.7 7.9,-48.5 0,-80.2 -5.7,-22.8 -16.6,-40 -39.6,-40 h -29.7 z m -44.5,190.2 c 8.2,0 14.9,6.7 14.9,15 0,8.3 -6.7,15.1 -14.9,15.1 -8.2,0 -14.9,-6.8 -14.9,-15.1 0,-8.3 6.7,-15 14.9,-15 z"
   class="st3"
   inkscape:connector-curvature="0"
   style="fill:#ffffff" /></svg>