<svg xmlns="http://www.w3.org/2000/svg" xmlns:xlink="http://www.w3.org/1999/xlink" viewBox="0 0 1080 1120"><defs><style>.a{fill:none;}.b{fill:#5d6dae;}.c{fill:#7388da;}.d{clip-path:url(#a);}.e{clip-path:url(#b);}.f{fill:#e53939;}.g{fill:#af1238;}.h{fill:#fc7272;}.i{fill:#ffabdc;}.j{opacity:0.25;}.k{clip-path:url(#c);}.l{fill:#fff;}</style><clipPath id="a" transform="translate(0 0.2)"><path class="a" d="M540-.17C241.77-.17,0,241.6,0,539.83s241.77,540,540,540,540-241.77,540-540S838.23-.17,540-.17Zm-420,605a45,45,0,1,1,45-45A45,45,0,0,1,120,604.86Zm420,235c-165.69,0-300-134.31-300-300s134.31-300,300-300,300,134.31,300,300S705.69,839.86,540,839.86Zm420-235a45,45,0,1,1,45-45A45,45,0,0,1,960,604.86Z"/></clipPath><clipPath id="b" transform="translate(0 0.2)"><path class="a" d="M905.82,503.93,556.91,981.29a21,21,0,0,1-33.82,0L174.18,503.93a22.1,22.1,0,0,1,0-26.08L295.66,311.52a23.69,23.69,0,0,1,19.14-9.72H765.2a23.69,23.69,0,0,1,19.14,9.72L905.83,477.85A22.1,22.1,0,0,1,905.82,503.93Z"/></clipPath><clipPath id="c" transform="translate(0 0.2)"><polygon class="a" points="915.35 490.89 540 1004.41 164.65 490.89 302.76 301.8 504.13 301.81 540 301.8 575.87 301.81 777.24 301.8 915.35 490.89"/></clipPath></defs><path class="b" d="M540,39.8C241.77,39.8,0,281.57,0,579.8s241.77,540,540,540,540-241.77,540-540S838.23,39.8,540,39.8ZM120,625.05a45,45,0,1,1,45-45A45,45,0,0,1,120,625.05ZM540,879.83c-165.69,0-300-134.31-300-300s134.31-300,300-300,300,134.31,300,300S705.69,879.83,540,879.83ZM960,625.05a45,45,0,1,1,45-45A45,45,0,0,1,960,625.05Z" transform="translate(0 0.2)"/><path class="c" d="M540-.2C241.77-.2,0,241.57,0,539.8s241.77,540,540,540,540-241.77,540-540S838.23-.2,540-.2ZM120,585.05a45,45,0,1,1,45-45A45,45,0,0,1,120,585.05ZM540,839.83c-165.69,0-300-134.31-300-300s134.31-300,300-300,300,134.31,300,300S705.69,839.83,540,839.83ZM960,585.05a45,45,0,1,1,45-45A45,45,0,0,1,960,585.05Z" transform="translate(0 0.2)"/><g class="d"><path class="b" d="M321,739.15,199.34,615.28a16.86,16.86,0,0,1-2.94-19.59L311.05,374.81H769L883.6,595.69a16.88,16.88,0,0,1-2.93,19.59L758.45,739.85Z" transform="translate(0 0.2)"/></g><g class="e"><polygon class="f" points="916.93 491.08 541.58 1004.61 166.23 491.08 304.34 301.99 778.82 301.99 916.93 491.08"/><polygon class="g" points="914.88 491.09 683.47 491.09 540 1004.61 914.88 491.09"/><polygon class="g" points="165.12 491.09 396.53 491.09 540 1004.61 165.12 491.09"/><polygon class="h" points="683.47 491.09 777.24 302 575.87 302 683.47 491.09"/><polygon class="h" points="396.53 491.09 302.76 302 504.13 302 396.53 491.09"/><polygon class="i" points="683.47 491.09 540 491.08 396.53 491.09 504.13 301.99 575.87 301.99 683.47 491.09"/></g><g class="j"><g class="k"><path d="M761.05,706.11c-53.54,47-144,75.6-221.66,75.6-76.34,0-165.81-27.67-219-73.32l-8.75-5.7L19.42,644.15c68.94,216.83,275.67,374.27,520,374.27,248.2,0,457.61-162.49,523.16-384.67Z" transform="translate(0 0.2)"/></g></g><path class="c" d="M740.28,763.23a300.05,300.05,0,0,1-398,2.31l-28.25-5.79L24.28,700.41C92.65,920.23,297.69,1079.83,540,1079.83c246.17,0,453.87-164.72,518.88-390Z" transform="translate(0 0.2)"/><path class="l" d="M350.22,983.91c-14.66,1.41-34.52-3.15-53.23-14-34.64-20-44.87-53.65-20.12-96.44,27.75-48,67.09-46.73,93.76-31.3,15.93,9.21,30.14,23.11,32.54,51.45l-33,3.65c-2-15.75-7-23.82-15.33-28.64-14.45-8.36-30.49-1.57-44.1,22-14,24.27-15.81,44,2,54.3,4.08,2.35,10.73,5,14.26,5.27l22-38L381,930.75Z" transform="translate(0 0.2)"/><path class="l" d="M430.2,874.29l91.43,17.51-6,31.52-55.28-10.58L456.25,934l47.5,9.09-6,31.53-47.5-9.1-4.59,24,56.75,10.87-6,31.53-92.9-17.8Z" transform="translate(0 0.2)"/><path class="l" d="M631.91,878l37.28-6.71L701.79,1010l-34.54,6.22-17.32-73.21-.63.12L637.54,1007l-25.28,4.55L579.54,957.9l-.84.16,8.93,72.54-34.33,6.18-17.22-141.5,37.7-6.79L617,962.91l.84-.16Z" transform="translate(0 0.2)"/><path class="l" d="M736.94,945.73c11.63.16,31.09-3.71,41.5-10.07,6.75-4.13,11.25-9.89,6.12-18.29-4.58-7.49-14-5.24-26.48-1.87-18.42,4.74-42.35,9.09-57.31-15.38s-4.34-49.77,20.85-65.17a77.11,77.11,0,0,1,55.6-9.17l-3.63,30.57c-14-1.2-27.49-.25-35.89,4.89-5.84,3.57-9.83,9.77-5.7,16.53,4.69,7.66,14.76,5.27,28.31,2,19.86-4.87,42.21-8.5,57.17,16,15.52,25.38,4.43,50.72-22.59,67.24-18.26,11.17-41.71,15.47-52.8,15Z" transform="translate(0 0.2)"/><path class="l" d="M230.59,154l101.68,99.56L306.37,280,266.92,241.4l-31.44,32.11,39.45,38.63-25.75,26.3L147.5,238.87l25.75-26.3,39.14,38.33,31.44-32.11-39.14-38.33Z" transform="translate(0 0.2)"/><path class="l" d="M351.88,240.63,281.54,116.92l32-18.19,70.34,123.71Z" transform="translate(0 0.2)"/><path class="l" d="M374.07,72.66l48.42-11.89c41.36-10.15,72.13,3.89,82.95,47.95,13.26,54-13.48,81.53-48.19,90.05L408,210.87ZM437,174.45,450.88,171c18.5-4.54,26.67-21.53,19.68-50-7.86-32-25-36.39-42.27-32.15l-11.64,2.85Z" transform="translate(0 0.2)"/><path class="l" d="M542.37,47.47l49.76,3.17c42.5,2.71,67.65,25.32,64.77,70.6-3.54,55.53-37.29,73.75-73,71.48l-50.61-3.23Zm29.5,116,14.31.91c19,1.21,31.89-12.55,33.75-41.81,2.1-32.89-13-42.21-30.69-43.34l-12-.76Z" transform="translate(0 0.2)"/><path class="l" d="M714.33,76.73,797.8,118l-14.22,28.78-50.46-24.92-9.57,19.38,43.37,21.42L752.7,191.39,709.34,170l-10.81,21.88,51.81,25.58-14.21,28.78-84.81-41.88Z" transform="translate(0 0.2)"/><path class="l" d="M932.52,239,830.73,338.43,808,315.17l22.68-89.78-.45-.46-56.48,55.19-25.43-26,101.79-99.47L873.89,179l-22.66,87.67.3.3,55.41-54.14Z" transform="translate(0 0.2)"/></svg>