<svg
    xmlns="http://www.w3.org/2000/svg"
    xmlns:xlink="http://www.w3.org/1999/xlink"
    viewBox="0 0 128 128"
>
    <rect id="square" x="14" y="14" width="100" height="100" rx="10" fill="#cd6d6d" />
    <path
        id="speaker"
        fill="white"
        d="M63.5,28.8c-1.5-0.6-3.2-0.3-4.3,0.9L42.3,48.2H30.4c-2.2,0-3.9,1.8-3.9,3.9v23.7c0,2.2,1.8,3.9,3.9,3.9h11.8l16.9,18.6c1.1,1.1,2.8,1.5,4.3,0.9c1.5-0.6,2.4-2.1,2.4-3.7V32.4C66,30.8,65,29.4,63.5,28.8zM73.9,36.4v7.9c10.9,0,19.7,8.9,19.7,19.7c0,10.9-8.9,19.7-19.7,19.7v7.9c15.2,0,27.6-12.4,27.6-27.6C101.5,48.8,89.1,36.4,73.9,36.4z M73.9,52.2c6.5,0,11.8,5.3,11.8,11.8c0,6.5-5.3,11.8-11.8,11.8v-7.9c2.2,0,3.9-1.8,3.9-3.9c0-2.2-1.8-3.9-3.9-3.9V52.2z"
    />
</svg>
