<svg xmlns="http://www.w3.org/2000/svg" viewBox="0 0 300 300"><defs><style>.a{fill:#04d277;}.b{fill:#fff;}</style></defs><circle class="a" cx="150" cy="150" r="150"/><path class="b" d="M168.71,232.27c0,13.64-11.1,24.32-25.28,24.32-13.86,0-25.14-10.91-25.14-24.32s11.28-24.33,25.14-24.33C157.61,207.94,168.71,218.62,168.71,232.27Z"/><path class="b" d="M216.12,105.25c0,20.73-9.71,36.1-30.55,48.37-17.39,10.06-20.86,15.21-22.47,25.58l0,.2c-2.46,10.95-9.34,16.74-19.91,16.74-12.76,0-21.34-8.85-21.34-22v-1.9c0-16.25,8-28.15,25.8-38.59,16.75-10,21.34-15.83,21.34-27.16,0-11.69-9-19.55-22.27-19.55-11.83,0-19.84,5.6-23.8,16.63C119.13,113.19,112.2,118,102.27,118c-12.39,0-20.39-7.84-20.39-20A36.45,36.45,0,0,1,86.3,80.49C95.72,61.06,119,49.41,148.59,49.41,189,49.41,216.12,71.85,216.12,105.25Z"/></svg>