<svg xmlns="http://www.w3.org/2000/svg" xmlns:xlink="http://www.w3.org/1999/xlink" viewBox="0 0 320.47 300"><defs><style>.a{fill:none;}.b{clip-path:url(#a);}.c{fill:#ec3030;}.d{fill:#b30031;}.e{fill:#f66;}.f{fill:#ff99ce;}.g{opacity:0.25;}</style><clipPath id="a" transform="translate(-0.2 0)"><path class="a" d="M315.94,86.31,167.21,290.13a8.93,8.93,0,0,1-14.42,0L4.06,86.31a9.45,9.45,0,0,1,0-11.14l51.79-71A10.08,10.08,0,0,1,64,0H256a10.08,10.08,0,0,1,8.15,4.15l51.79,71A9.45,9.45,0,0,1,315.94,86.31Z"/></clipPath></defs><g class="b"><polygon class="c" points="320.48 80.74 160.47 300 0.47 80.74 59.35 0 261.6 0 320.48 80.74"/><polygon class="d" points="319.6 80.74 220.96 80.74 159.8 300 319.6 80.74"/><polygon class="d" points="0 80.74 98.64 80.74 159.8 300 0 80.74"/><polygon class="e" points="220.96 80.74 260.93 0 175.09 0 220.96 80.74"/><polygon class="e" points="98.64 80.74 58.67 0 144.51 0 98.64 80.74"/><polygon class="f" points="220.96 80.74 159.8 80.74 98.64 80.74 144.51 0 175.09 0 220.96 80.74"/></g></svg>