<?xml version="1.0" encoding="UTF-8" standalone="no"?>
<!-- Created with Inkscape (http://www.inkscape.org/) -->

<svg
   width="48"
   height="48"
   viewBox="0 0 12.7 12.7"
   version="1.1"
   id="svg1206"
   inkscape:version="1.1 (c4e8f9ed74, 2021-05-24)"
   sodipodi:docname="logo.svg"
   xmlns:inkscape="http://www.inkscape.org/namespaces/inkscape"
   xmlns:sodipodi="http://sodipodi.sourceforge.net/DTD/sodipodi-0.dtd"
   xmlns:xlink="http://www.w3.org/1999/xlink"
   xmlns="http://www.w3.org/2000/svg"
   xmlns:svg="http://www.w3.org/2000/svg">
  <sodipodi:namedview
     id="namedview1208"
     pagecolor="#ffffff"
     bordercolor="#868686"
     borderopacity="1"
     inkscape:pageshadow="0"
     inkscape:pageopacity="0"
     inkscape:pagecheckerboard="true"
     inkscape:document-units="mm"
     showgrid="false"
     units="px"
     inkscape:zoom="5.181201"
     inkscape:cx="17.177485"
     inkscape:cy="26.634751"
     inkscape:window-width="1912"
     inkscape:window-height="1040"
     inkscape:window-x="0"
     inkscape:window-y="32"
     inkscape:window-maximized="1"
     inkscape:current-layer="layer1"
     borderlayer="false" />
  <defs
     id="defs1203">
    <linearGradient
       inkscape:collect="always"
       xlink:href="#linearGradient1646"
       id="linearGradient2241"
       gradientUnits="userSpaceOnUse"
       gradientTransform="matrix(0.09459327,0,0,0.09459327,-49.607555,-4.3585577)"
       x1="494.22159"
       y1="275.99246"
       x2="739.28027"
       y2="39.083111" />
    <linearGradient
       inkscape:collect="always"
       id="linearGradient1646">
      <stop
         style="stop-color:#7a45eb;stop-opacity:1"
         offset="0"
         id="stop1642" />
      <stop
         style="stop-color:#ff598f;stop-opacity:1"
         offset="1"
         id="stop1644" />
    </linearGradient>
    <linearGradient
       inkscape:collect="always"
       xlink:href="#linearGradient2044"
       id="linearGradient2243"
       gradientUnits="userSpaceOnUse"
       gradientTransform="matrix(0.06879599,0,0,0.06879599,-0.2490493,-2.0717465)"
       x1="-3.6589966"
       y1="282.71265"
       x2="131.11731"
       y2="15.314776" />
    <linearGradient
       inkscape:collect="always"
       id="linearGradient2044">
      <stop
         style="stop-color:#fcf4c7;stop-opacity:1"
         offset="0"
         id="stop2040" />
      <stop
         style="stop-color:#feffee;stop-opacity:1"
         offset="1"
         id="stop2042" />
    </linearGradient>
    <linearGradient
       inkscape:collect="always"
       xlink:href="#linearGradient2089"
       id="linearGradient2245"
       gradientUnits="userSpaceOnUse"
       gradientTransform="matrix(0.06879599,0,0,0.06879599,-0.2490493,-2.0717465)"
       x1="212.99208"
       y1="364.1788"
       x2="15.928276"
       y2="3.1610889" />
    <linearGradient
       inkscape:collect="always"
       id="linearGradient2089">
      <stop
         style="stop-color:#ff52e5;stop-opacity:1"
         offset="0"
         id="stop2085" />
      <stop
         style="stop-color:#f6d242;stop-opacity:1"
         offset="1"
         id="stop2087" />
    </linearGradient>
  </defs>
  <g
     inkscape:label="Layer 1"
     inkscape:groupmode="layer"
     id="layer1">
    <g
       id="g1636"
       transform="translate(-0.50852755,-0.7204563)"
       inkscape:export-filename="/home/kosa/Documents/code/python/PythonDiscord/branding/events/summer_code_jam_2021/logo.png"
       inkscape:export-xdpi="1024"
       inkscape:export-ydpi="1024">
      <path
         id="path3952-0-9"
         style="display:inline;fill:url(#linearGradient2241);fill-opacity:1;stroke:#303136;stroke-width:0;stroke-linecap:square;stroke-linejoin:bevel"
         d="M 13.208527,7.0704503 A 6.3499992,6.3499992 0 0 1 6.8585275,13.420456 6.3499992,6.3499992 0 0 1 0.50852809,7.0704503 6.3499992,6.3499992 0 0 1 6.8585275,0.72045659 6.3499992,6.3499992 0 0 1 13.208527,7.0704503 Z" />
      <g
         id="g1629">
        <path
           id="path5041-2-9-5-1-7-0"
           d="M 8.6150329,2.9362086 8.3000165,3.0267936 C 7.9653672,2.9773715 7.6221913,2.9556897 7.289887,2.9581335 6.9202733,2.9608733 6.5643916,2.9909667 6.2522735,3.0457238 6.1509773,3.063564 6.059325,3.0836698 5.9755437,3.1059365 H 4.9928473 v 0.5147424 h 0.1232049 v 0.2107963 h 0.076201 C 5.1747486,3.9331658 5.1680297,4.0450205 5.1680297,4.1682557 V 4.2777711 H 4.7464385 l -0.060266,0.3011671 0.4818572,0.411056 v 0.00236 h 2.168434 V 5.26614 H 5.1680293 4.3548998 c -0.629713,0 -1.182765,0.3778283 -1.3552521,1.0951537 -0.1998652,0.8213639 -0.2080787,1.3361177 0,2.1958126 0.013617,0.056897 0.029036,0.1122114 0.046095,0.1659839 l -0.032406,0.2857672 0.3653902,0.316194 c 0.1925274,0.2056231 0.4482215,0.3272087 0.773559,0.3272087 H 4.8970214 V 8.6666163 c 0,-0.7118493 0.6187611,-1.3415615 1.3552521,-1.3415615 h 2.1683806 c 0.6023332,0 1.0841905,-0.4955998 1.0841905,-1.0979328 V 4.1682557 c 0,-0.3531772 -0.1802061,-0.6524693 -0.4521788,-0.8562299 z M 10.717746,5.0607944 10.326209,5.2634085 H 9.7759056 v 0.00272 0.2820233 0.676235 c 0,0.7447046 -0.6324511,1.3689416 -1.3552515,1.3689416 H 6.2550006 c -0.5941205,0 -1.0841913,0.5064969 -1.0841913,1.097879 V 10.7474 c 0,0.585907 0.5119739,0.930868 1.0841913,1.097879 0.6872079,0.199867 1.3442888,0.238196 2.1656535,0 0.5448384,-0.15606 1.0841905,-0.473641 1.0841905,-1.097879 V 9.9835235 9.9260346 9.923255 h -0.0033 L 9.1806818,9.6494698 h 0.3241611 1.0841901 c 0.629713,0 0.865214,-0.4380615 1.084244,-1.0951536 0.227244,-0.6762559 0.216292,-1.3278503 0,-2.1957588 C 11.574098,5.9618237 11.417215,5.6272549 11.154524,5.4359125 Z M 7.3391909,9.6494736 H 8.9134727 V 9.9232617 H 7.3391909 Z"
           style="display:inline;fill:#7e7e7e;fill-opacity:0.254619;stroke:none;stroke-width:0.034398;stroke-miterlimit:4;stroke-dasharray:none;stroke-opacity:1"
           inkscape:connector-curvature="0"
           inkscape:label="shadow"
           inkscape:export-xdpi="128"
           inkscape:export-ydpi="128" />
        <path
           style="display:inline;fill:url(#linearGradient2243);fill-opacity:1;stroke:none;stroke-width:0.0756757;stroke-miterlimit:4;stroke-dasharray:none;stroke-opacity:1"
           d="M 6.8053046,2.5446738 C 6.4356908,2.5474075 6.0797666,2.5775279 5.7676475,2.6322861 4.850457,2.7938211 4.6834469,3.1305807 4.6834469,3.7548179 v 0.8241022 h 2.1684023 v 0.273788 H 4.6834469 3.8702956 c -0.6297132,0 -1.1827649,0.3778283 -1.3552512,1.0951528 -0.1998651,0.8213647 -0.2080796,1.3360865 0,2.1957814 0.1533216,0.6406641 0.5229353,1.0951518 1.1526485,1.0951518 H 4.4123964 V 8.2531567 c 0,-0.7118494 0.6187611,-1.3415616 1.3552511,-1.3415616 h 2.165664 c 0.6023349,0 1.0842015,-0.4955572 1.0842015,-1.0978902 v -2.058887 c 0,-0.585907 -0.495557,-1.0239686 -1.0842015,-1.1225318 C 7.5636977,2.5693144 7.1776568,2.5419362 6.8053046,2.5446738 Z M 5.6334916,3.207241 c 0.2245058,0 0.4079439,0.1861757 0.4079439,0.4134199 0,0.2272444 -0.1834381,0.4106824 -0.4079439,0.4106824 -0.2245068,0 -0.4079449,-0.183438 -0.4079449,-0.4106824 0,-0.2299817 0.1834381,-0.4134199 0.4079449,-0.4134199 z"
           class="st2"
           id="path1948-2-9-9-7-8"
           inkscape:connector-curvature="0"
           inkscape:label="upper_snake"
           inkscape:export-xdpi="128"
           inkscape:export-ydpi="128" />
        <path
           style="display:inline;fill:url(#linearGradient2245);fill-opacity:1;stroke:none;stroke-width:0.0756757;stroke-miterlimit:4;stroke-dasharray:none;stroke-opacity:1"
           d="m 9.291301,4.8527081 v 0.9582583 c 0,0.7447045 -0.6324506,1.3689416 -1.3552511,1.3689416 H 5.7703851 c -0.5941196,0 -1.0842008,0.5065073 -1.0842008,1.0978893 v 2.0561497 c 0,0.585907 0.5119843,0.93088 1.0842008,1.097891 0.6872089,0.199866 1.3443,0.238196 2.1656648,0 0.5448383,-0.15606 1.0842007,-0.473653 1.0842007,-1.097891 V 9.5098445 H 6.8545857 v -0.273788 h 2.1656649 1.0842014 c 0.629712,0 0.86517,-0.4380614 1.0842,-1.0951527 0.227245,-0.6762568 0.216293,-1.327873 0,-2.1957805 -0.156058,-0.6242372 -0.454488,-1.0951536 -1.0842,-1.0951536 H 9.291301 Z M 8.0729444,10.060159 c 0.2245057,0 0.4079438,0.183437 0.4079438,0.410682 0,0.227245 -0.1834381,0.41342 -0.4079438,0.41342 -0.2245067,0 -0.407945,-0.186175 -0.407945,-0.41342 0,-0.227245 0.1834383,-0.410682 0.407945,-0.410682 z"
           class="st3"
           id="path1950-28-2-4-1-8"
           inkscape:connector-curvature="0"
           inkscape:label="lower_snake"
           inkscape:export-xdpi="128"
           inkscape:export-ydpi="128" />
      </g>
    </g>
  </g>
</svg>
