<?xml version="1.0" encoding="utf-8"?>
<svg
	version="1.1"
	id="logo_transgender"
	xmlns:cc="http://creativecommons.org/ns#"
	xmlns:dc="http://purl.org/dc/elements/1.1/"
	xmlns:rdf="http://www.w3.org/1999/02/22-rdf-syntax-ns#"
	xmlns:svg="http://www.w3.org/2000/svg"
	xmlns="http://www.w3.org/2000/svg"
	xmlns:xlink="http://www.w3.org/1999/xlink"
	x="0px"
	y="0px"
	viewBox="0 0 512 512"
	style="enable-background:new 0 0 512 512;"
	xml:space="preserve">
<defs>
	<pattern id="stripes" width="840" height="120" patternTransform="rotate(45 0 0)" patternUnits="userSpaceOnUse">
		<line x1="62" x2="62" y2="120" style="stroke:#5bcefa; stroke-width:240" />
		<line x1="242" x2="242" y2="120" style="stroke:#f5a9b8; stroke-width:120" />
		<line x1="362" x2="362" y2="120" style="stroke:#ffffff; stroke-width:120" />
		<line x1="482" x2="482" y2="120" style="stroke:#f5a9b8; stroke-width:120" />
		<line x1="662" x2="662" y2="120" style="stroke:#5bcefa; stroke-width:240" />
	</pattern>
</defs>
<rect id="striped_bg" x="0" y="0" width="512" height="512" fill="url(#stripes)"/>
<g id="python_logo">
	<path
		id="shadow"
		style="opacity:0.6;fill:#231F20;fill-opacity:0.6;enable-background:new;"
		d="M330.9,79.5l-13.4,3.9c-14.3-2.1-29-3-43.1-2.9c-15.8,0.1-31,1.4-44.3,3.7
		c-4.3,0.8-8.2,1.6-11.8,2.6h-42v22h5.3v9h3.3c-0.7,4.3-1.1,9.1-1.1,14.4v4.7h-18l-2.6,12.9l20.6,17.5v0.1h92.6V179H149
		c-26.9,0-50.5,16.1-57.9,46.8c-8.5,35.1-8.9,57,0,93.7c0.6,2.5,1.3,4.8,2,7.1l-1.4,12.2l15.5,13.4c8.2,8.8,19.2,14,33.1,14h31.8
		v-42.1c0-30.4,26.4-57.3,57.9-57.3h92.6c25.7,0,46.3-21.2,46.3-46.9v-87.9c0-15.1-7.7-27.8-19.3-36.6L330.9,79.5z M420.7,170.2
		l-16.7,8.7h-23.5v41c0,31.8-27,58.4-57.9,58.4h-92.5c-25.4,0-46.3,21.6-46.3,46.9V413c0,25,21.9,39.7,46.3,46.9
		c29.3,8.5,57.4,10.2,92.5,0c23.3-6.7,46.3-20.2,46.3-46.9v-35.2h-0.1l-13.7-11.7h60.1c26.9,0,36.9-18.7,46.3-46.8
		c9.7-28.9,9.2-56.7,0-93.7c-4.2-16.9-11-31.2-22.1-39.4L420.7,170.2z M276.5,366.1h67.2v11.7h-67.2V366.1z"
	/>
	<path
		id="upper_snake"
		fill="#CAD6FF"
		d="M253.7,62.8c-15.8,0.1-31,1.4-44.3,3.7c-39.2,6.9-46.3,21.3-46.3,47.9v35.2h92.6v11.7
		H128.4c-26.9,0-50.5,16.1-57.9,46.8c-8.5,35.1-8.9,57,0,93.7c6.5,27.4,22.3,46.8,49.2,46.8h31.8v-42.1
		c0-30.4,26.4-57.3,57.9-57.3h92.5c25.7,0,46.3-21.2,46.3-46.9v-87.9c0-25-21.2-43.7-46.3-47.9C286,63.8,269.6,62.7,253.7,62.8
		L253.7,62.8z M203.6,91.1c9.6,0,17.4,7.9,17.4,17.7s-7.8,17.5-17.4,17.5c-9.6,0-17.4-7.8-17.4-17.5
		C186.2,98.9,194,91.1,203.6,91.1z"
	/>
	<path
		id="lower_snake"
		fill="#FFFFFF"
		d="M359.8,161.3v40.9c0,31.8-27,58.4-57.9,58.4h-92.5c-25.4,0-46.3,21.6-46.3,46.9v87.8
		c0,25,21.9,39.7,46.3,46.9c29.3,8.5,57.4,10.2,92.5,0c23.3-6.7,46.3-20.2,46.3-46.9v-35.2h-92.5v-11.7h138.8
		c26.9,0,36.9-18.7,46.3-46.8c9.7-28.9,9.2-56.7,0-93.7c-6.7-26.7-19.4-46.8-46.3-46.8L359.8,161.3z M307.8,383.6
		c9.6,0,17.4,7.8,17.4,17.5s-7.8,17.7-17.4,17.7s-17.4-7.9-17.4-17.7C290.4,391.5,298.2,383.6,307.8,383.6z"
	/>
</g>
</svg>
