<?xml version="1.0" encoding="UTF-8"?>
<svg width="328.46" height="330.62" enable-background="new 0 0 438 438" version="1.1" viewBox="0 0 328.46399 330.61823" xml:space="preserve" xmlns="http://www.w3.org/2000/svg" xmlns:cc="http://creativecommons.org/ns#" xmlns:dc="http://purl.org/dc/elements/1.1/" xmlns:rdf="http://www.w3.org/1999/02/22-rdf-syntax-ns#"><metadata><rdf:RDF><cc:Work rdf:about=""><dc:format>image/svg+xml</dc:format><dc:type rdf:resource="http://purl.org/dc/dcmitype/StillImage"/><dc:title/></cc:Work></rdf:RDF></metadata><style type="text/css">
	.st0{fill:#7289DA;}
	.st1{fill:#5B6DAE;}
	.st2{fill:#CAD6FF;}
	.st3{fill:#FFFFFF;}
</style><path class="st2" d="m162.29 0.0067995c-13.5 0.1-26.5 1.2-37.9 3.2-33.5 5.9-39.6 18.2-39.6 41v30.1h79.2v10h-108.9c-23 0-43.2 13.8-49.5 40-7.3 30-7.6 48.8 0 80.2 5.6 23.4 19.1 40 42.1 40h27.2v-36c0-26 22.6-49 49.5-49h79.1c22 0 39.6-18.1 39.6-40.1v-75.2c0-21.4-18.1-37.4-39.6-41-13.5-2.3-27.6-3.3-41.2-3.2zm-42.8 24.2c8.2 0 14.9 6.8 14.9 15.1s-6.7 15-14.9 15-14.9-6.7-14.9-15c0-8.4 6.7-15.1 14.9-15.1z" fill="#cad6ff"/><path class="st3" d="m253.09 84.307v35c0 27.2-23.1 50-49.5 50h-79.1c-21.7 0-39.6 18.5-39.6 40.1v75.1c0 21.4 18.7 34 39.6 40.1 25.1 7.3 49.1 8.7 79.1 0 19.9-5.7 39.6-17.3 39.6-40.1v-30.1h-79.1v-10h118.7c23 0 31.6-16 39.6-40 8.3-24.7 7.9-48.5 0-80.2-5.7-22.8-16.6-40-39.6-40h-29.7zm-44.5 190.2c8.2 0 14.9 6.7 14.9 15s-6.7 15.1-14.9 15.1-14.9-6.8-14.9-15.1 6.7-15 14.9-15z" fill="#fff"/></svg>
