<?xml version="1.0" encoding="UTF-8"?><svg id="Layer_1" xmlns="http://www.w3.org/2000/svg" viewBox="0 0 256 256"><defs><style>.cls-1{fill:#fff;}.cls-2{fill:#4289c1;}</style></defs><circle class="cls-2" cx="128" cy="128" r="128"/><path class="cls-1" d="m194.52,134.57c5.42,0,9.14,3.59,9.14,9.14,0,4.9-4.49,9.14-9.14,9.14h-50.24c-6.83,0-9.14-3.71-9.14-9.14,0-2.58,2.89-6.81,4.57-9.14l36.54-54.81h-31.97c-5.15,0-9.14-3.85-9.14-9.14,0-4.9,4.24-9.14,9.14-9.14h50.24c7.49,0,9.14,4.62,9.14,9.14,0,2.84-2.9,6.94-4.57,9.14l-36.54,54.81h31.97Zm-73.08,22.84c2.89,0,4.57,1.61,4.57,4.57,0,2.62-2.09,4.57-4.57,4.57h-27.41c-3.65,0-4.57-1.68-4.57-4.57,0-1.37,1.54-3.33,2.43-4.57l20.4-27.41h-18.27c-2.75,0-4.57-1.75-4.57-4.57,0-2.62,1.95-4.57,4.57-4.57h27.41c3.99,0,4.57,2.16,4.57,4.57,0,1.51-1.54,4.01-2.43,5.18l-20.4,26.8h18.27Zm-41.11,31.97c2.89,0,4.57,1.61,4.57,4.57,0,2.62-2.09,4.57-4.57,4.57h-27.41c-3.65,0-4.57-1.68-4.57-4.57,0-1.37,1.54-3.33,2.43-4.57l20.4-27.41h-18.27c-2.75,0-4.57-1.75-4.57-4.57,0-2.61,1.95-4.57,4.57-4.57h27.41c3.99,0,4.57,2.16,4.57,4.57,0,1.51-1.54,4.01-2.43,5.18l-20.4,26.8h18.27Z"/></svg>