<?xml version="1.0" encoding="utf-8"?>
<!-- Generator: Adobe Illustrator 23.0.1, SVG Export Plug-In . SVG Version: 6.00 Build 0)  -->
<svg version="1.1" id="Layer_1" xmlns="http://www.w3.org/2000/svg" xmlns:xlink="http://www.w3.org/1999/xlink" x="0px" y="0px"
	 viewBox="0 0 960 540" style="enable-background:new 0 0 960 540;" xml:space="preserve">
<style type="text/css">
	.st0{fill:#22282D;}
	.st1{clip-path:url(#SVGID_2_);}
	.st2{fill:#252D33;}
	.st3{fill:url(#SVGID_3_);}
	.st4{fill:url(#SVGID_4_);}
	.st5{opacity:0.7;fill:url(#SVGID_5_);enable-background:new    ;}
	.st6{opacity:0.49;}
	.st7{fill:#FFFFFF;}
	.st8{fill:none;stroke:#EEC66D;stroke-width:2.91;stroke-miterlimit:1;}
	.st9{fill:url(#SVGID_6_);}
	.st10{fill:url(#SVGID_7_);}
	.st11{opacity:0.7;fill:url(#SVGID_8_);enable-background:new    ;}
	.st12{fill:#FCFCFC;}
	.st13{font-family:'Helsinki';}
	.st14{font-size:45.1022px;}
	.st15{opacity:0.44;fill:#F2F2F2;enable-background:new    ;}
	.st16{font-size:30.88px;}
	.st17{fill:#2D5569;}
	.st18{fill:#F2F2F2;}
	.st19{fill:#5090AF;}
	.st20{fill:url(#SVGID_9_);}
	.st21{fill:url(#SVGID_10_);}
	.st22{fill:url(#SVGID_11_);}
	.st23{fill:url(#SVGID_12_);}
	.st24{fill:url(#SVGID_13_);}
	.st25{fill:url(#SVGID_14_);}
</style>
<g>
	<rect class="st0" width="960" height="540"/>
	<g>
		<g>
			<g>
				<g>
					<defs>
						<rect id="SVGID_1_" width="960" height="540"/>
					</defs>
					<clipPath id="SVGID_2_">
						<use xlink:href="#SVGID_1_"  style="overflow:visible;"/>
					</clipPath>
					<g class="st1">
						<g>
							<circle class="st2" cx="-42.7" cy="54.7" r="80.3"/>
							<circle class="st2" cx="69.9" cy="132.5" r="71"/>
							<circle class="st2" cx="182.5" cy="210.3" r="61.7"/>
							<circle class="st2" cx="295" cy="288" r="52.4"/>
							<circle class="st2" cx="407.6" cy="365.8" r="43"/>
							<circle class="st2" cx="520.2" cy="443.6" r="33.7"/>
							<circle class="st2" cx="632.8" cy="521.4" r="24.4"/>
						</g>
						<g>
							<circle class="st2" cx="796" cy="465.5" r="80.3"/>
							<circle class="st2" cx="683.4" cy="387.7" r="71"/>
							<circle class="st2" cx="570.8" cy="309.9" r="61.7"/>
							<circle class="st2" cx="458.2" cy="232.1" r="52.4"/>
							<circle class="st2" cx="345.6" cy="154.3" r="43"/>
							
								<ellipse transform="matrix(0.4996 -0.8663 0.8663 0.4996 50.3717 240.1908)" class="st2" cx="233.1" cy="76.5" rx="33.7" ry="33.7"/>
							<circle class="st2" cx="120.5" cy="-1.2" r="24.4"/>
						</g>
						<g>
							<circle class="st2" cx="401" cy="22" r="80.3"/>
							<circle class="st2" cx="513.6" cy="99.8" r="71"/>
							<circle class="st2" cx="626.2" cy="177.6" r="61.7"/>
							<circle class="st2" cx="738.8" cy="255.4" r="52.3"/>
							<circle class="st2" cx="851.3" cy="333.1" r="43"/>
							<circle class="st2" cx="963.9" cy="410.9" r="33.7"/>
						</g>
						<g>
							<ellipse class="st2" cx="964.3" cy="262.6" rx="61.7" ry="61.7"/>
							<circle class="st2" cx="851.8" cy="184.8" r="52.3"/>
							<circle class="st2" cx="739.2" cy="107" r="43"/>
							<circle class="st2" cx="626.7" cy="29.3" r="33.7"/>
						</g>
						<g>
							<circle class="st2" cx="865.3" cy="7.4" r="80.3"/>
							
								<ellipse transform="matrix(0.7071 -0.7071 0.7071 0.7071 226.1359 716.3723)" class="st2" cx="977.8" cy="85.2" rx="71" ry="71"/>
						</g>
						<g>
							<circle class="st2" cx="413.1" cy="538.5" r="80.3"/>
							<circle class="st2" cx="300.5" cy="460.8" r="71"/>
							<circle class="st2" cx="188" cy="383" r="61.7"/>
							<circle class="st2" cx="75.4" cy="305.2" r="52.4"/>
							<circle class="st2" cx="-37.2" cy="227.4" r="43"/>
						</g>
						<g>
							<circle class="st2" cx="26.3" cy="438.5" r="33.7"/>
							
								<ellipse transform="matrix(0.1356 -0.9908 0.9908 0.1356 -391.5428 583.8521)" class="st2" cx="138.8" cy="516.3" rx="24.4" ry="24.4"/>
						</g>
					</g>
				</g>
			</g>
		</g>
	</g>
	<g>
		<g>
			<g>
				
					<linearGradient id="SVGID_3_" gradientUnits="userSpaceOnUse" x1="729.85" y1="1226.7102" x2="729.85" y2="1103.6102" gradientTransform="matrix(1 0 0 1 0 -842.1102)">
					<stop  offset="0" style="stop-color:#F7DA43"/>
					<stop  offset="0.62" style="stop-color:#F9DF68"/>
					<stop  offset="0.63" style="stop-color:#F9E06A"/>
					<stop  offset="0.98" style="stop-color:#F9DF65"/>
				</linearGradient>
				<polygon class="st3" points="684.6,261.5 775.1,261.5 775.1,384.6 684.6,384.6 684.6,332.4 724.3,332.4 724.3,356.5 
					735.6,356.5 735.6,326 684.6,326 684.6,297 735.6,297 735.6,289.1 684.6,289.1 				"/>
				
					<linearGradient id="SVGID_4_" gradientUnits="userSpaceOnUse" x1="729.85" y1="1226.7102" x2="729.85" y2="1103.6102" gradientTransform="matrix(1 0 0 1 0 -842.1102)">
					<stop  offset="8.000000e-02" style="stop-color:#F1CA45"/>
					<stop  offset="0.62" style="stop-color:#F5D66E"/>
					<stop  offset="0.67" style="stop-color:#F5D772;stop-opacity:0.98"/>
					<stop  offset="0.72" style="stop-color:#F6DB7E;stop-opacity:0.91"/>
					<stop  offset="0.78" style="stop-color:#F8E093;stop-opacity:0.81"/>
					<stop  offset="0.84" style="stop-color:#F9E8AF;stop-opacity:0.66"/>
					<stop  offset="0.91" style="stop-color:#FCF2D3;stop-opacity:0.46"/>
					<stop  offset="0.98" style="stop-color:#FFFFFE;stop-opacity:0.23"/>
					<stop  offset="0.98" style="stop-color:#FFFFFF;stop-opacity:0.23"/>
				</linearGradient>
				<polygon class="st4" points="684.6,261.5 775.1,261.5 775.1,384.6 684.6,384.6 684.6,332.4 724.3,332.4 724.3,356.5 
					735.6,356.5 735.6,326 684.6,326 684.6,297 735.6,297 735.6,289.1 684.6,289.1 				"/>
				
					<linearGradient id="SVGID_5_" gradientUnits="userSpaceOnUse" x1="729.85" y1="1103.6102" x2="729.85" y2="1226.7102" gradientTransform="matrix(1 0 0 1 0 -842.1102)">
					<stop  offset="0" style="stop-color:#FFFFFF;stop-opacity:0.77"/>
					<stop  offset="0.2" style="stop-color:#FFFFFF;stop-opacity:0.65"/>
					<stop  offset="0.38" style="stop-color:#FFFFFF;stop-opacity:0.65"/>
					<stop  offset="0.4" style="stop-color:#FFFFFF;stop-opacity:0.62"/>
					<stop  offset="0.42" style="stop-color:#FFFFFF;stop-opacity:0.53"/>
					<stop  offset="0.45" style="stop-color:#FFFFFF;stop-opacity:0.39"/>
					<stop  offset="0.48" style="stop-color:#FFFFFF;stop-opacity:0.2"/>
					<stop  offset="0.51" style="stop-color:#FFFFFF;stop-opacity:0"/>
				</linearGradient>
				<polygon class="st5" points="684.6,261.5 775.1,261.5 775.1,384.6 684.6,384.6 684.6,332.4 724.3,332.4 724.3,356.5 
					735.6,356.5 735.6,326 684.6,326 684.6,297 735.6,297 735.6,289.1 684.6,289.1 				"/>
				<g class="st6">
					<path class="st7" d="M686.4,382.8v-48.7v1.8h36.2v-1.8v24.1c0,0.1,0,1.8,0,1.8h14.8v-1.8v-34c0-0.1,0-1.8,0-1.8h-51v1.8v-25.5
						v1.8h51v-1.8v-11.4c0-0.1,0-1.8,0-1.8h-51v1.8v-24.2v1.8h87.1v-1.8v119.6V381h-87.1v3.6h87.1v-1.8V263.2c0-0.1,0-1.8,0-1.8
						h-87.1v1.8v24.2c0,0.1,0,1.8,0,1.8h51v-1.8v11.4V297h-51v1.8v25.5c0,0.1,0,1.8,0,1.8h51v-1.8v34v-1.8h-14.8v1.8v-24.2
						c0-0.1,0-1.8,0-1.8h-36.2v1.8V382.8C686.3,384.8,686.4,384.9,686.4,382.8z"/>
				</g>
				<polygon class="st8" points="684.6,261.5 775.1,261.5 775.1,384.6 684.6,384.6 684.6,332.4 724.3,332.4 724.3,356.5 
					735.6,356.5 735.6,326 684.6,326 684.6,297 735.6,297 735.6,289.1 684.6,289.1 				"/>
			</g>
		</g>
	</g>
	<g>
		<g>
			<g>
				
					<linearGradient id="SVGID_6_" gradientUnits="userSpaceOnUse" x1="832.3" y1="1226.7102" x2="832.3" y2="1103.6102" gradientTransform="matrix(1 0 0 1 0 -842.1102)">
					<stop  offset="0" style="stop-color:#F7DA43"/>
					<stop  offset="0.62" style="stop-color:#F9DF68"/>
					<stop  offset="0.63" style="stop-color:#F9E06A"/>
					<stop  offset="0.98" style="stop-color:#F9DF65"/>
				</linearGradient>
				<polygon class="st9" points="787,261.5 877.6,261.5 877.6,384.6 787,384.6 787,332.4 826.7,332.4 826.7,356.5 838,356.5 
					838,326 787,326 787,297 838,297 838,289.1 787,289.1 				"/>
				
					<linearGradient id="SVGID_7_" gradientUnits="userSpaceOnUse" x1="832.3" y1="1226.7102" x2="832.3" y2="1103.6102" gradientTransform="matrix(1 0 0 1 0 -842.1102)">
					<stop  offset="8.000000e-02" style="stop-color:#F1CA45"/>
					<stop  offset="0.62" style="stop-color:#F5D66E"/>
					<stop  offset="0.67" style="stop-color:#F5D772;stop-opacity:0.98"/>
					<stop  offset="0.72" style="stop-color:#F6DB7E;stop-opacity:0.91"/>
					<stop  offset="0.78" style="stop-color:#F8E093;stop-opacity:0.81"/>
					<stop  offset="0.84" style="stop-color:#F9E8AF;stop-opacity:0.66"/>
					<stop  offset="0.91" style="stop-color:#FCF2D3;stop-opacity:0.46"/>
					<stop  offset="0.98" style="stop-color:#FFFFFE;stop-opacity:0.23"/>
					<stop  offset="0.98" style="stop-color:#FFFFFF;stop-opacity:0.23"/>
				</linearGradient>
				<polygon class="st10" points="787,261.5 877.6,261.5 877.6,384.6 787,384.6 787,332.4 826.7,332.4 826.7,356.5 838,356.5 
					838,326 787,326 787,297 838,297 838,289.1 787,289.1 				"/>
				
					<linearGradient id="SVGID_8_" gradientUnits="userSpaceOnUse" x1="832.3" y1="1103.6102" x2="832.3" y2="1226.7102" gradientTransform="matrix(1 0 0 1 0 -842.1102)">
					<stop  offset="0" style="stop-color:#FFFFFF;stop-opacity:0.77"/>
					<stop  offset="0.2" style="stop-color:#FFFFFF;stop-opacity:0.65"/>
					<stop  offset="0.38" style="stop-color:#FFFFFF;stop-opacity:0.65"/>
					<stop  offset="0.4" style="stop-color:#FFFFFF;stop-opacity:0.62"/>
					<stop  offset="0.42" style="stop-color:#FFFFFF;stop-opacity:0.53"/>
					<stop  offset="0.45" style="stop-color:#FFFFFF;stop-opacity:0.39"/>
					<stop  offset="0.48" style="stop-color:#FFFFFF;stop-opacity:0.2"/>
					<stop  offset="0.51" style="stop-color:#FFFFFF;stop-opacity:0"/>
				</linearGradient>
				<polygon class="st11" points="787,261.5 877.6,261.5 877.6,384.6 787,384.6 787,332.4 826.7,332.4 826.7,356.5 838,356.5 
					838,326 787,326 787,297 838,297 838,289.1 787,289.1 				"/>
				<g class="st6">
					<path class="st7" d="M788.8,382.8v-48.7v1.8H825v-1.8v24.1c0,0.1,0,1.8,0,1.8h14.8v-1.8v-34c0-0.1,0-1.8,0-1.8h-51v1.8v-25.5
						v1.8h51v-1.8v-11.4c0-0.1,0-1.8,0-1.8h-51v1.8v-24.2v1.8h87.1v-1.8v119.6V381h-87.1v3.6h87.1v-1.8V263.2c0-0.1,0-1.8,0-1.8
						h-87.1v1.8v24.2c0,0.1,0,1.8,0,1.8h51v-1.8v11.4V297h-51v1.8v25.5c0,0.1,0,1.8,0,1.8h51v-1.8v34v-1.8H825v1.8v-24.2
						c0-0.1,0-1.8,0-1.8h-36.2v1.8V382.8C788.8,384.8,788.8,384.9,788.8,382.8z"/>
				</g>
				<polygon class="st8" points="787,261.5 877.6,261.5 877.6,384.6 787,384.6 787,332.4 826.7,332.4 826.7,356.5 838,356.5 
					838,326 787,326 787,297 838,297 838,289.1 787,289.1 				"/>
			</g>
		</g>
	</g>
	<text transform="matrix(1 0 0 1 253.8835 444.81)" class="st12 st13 st14">March 20 - 27,  2022</text>
	<text transform="matrix(1 0 0 1 671.8201 520.02)" class="st15 st13 st16">www.pyweek.org</text>
	<g>
		<g>
			<g>
				<g>
					<polygon class="st17" points="72.7,386.2 72.7,250.1 204.7,250.1 204.7,345 130.4,345 130.4,386.2 					"/>
					<polygon class="st17" points="192.2,386.2 192.2,287.3 287.1,287.3 287.1,336.8 278.8,336.8 278.8,386.2 					"/>
					<polygon class="st17" points="285.7,386.2 285.7,336.7 274.7,336.7 274.7,250.1 406.7,250.1 406.7,336.7 395.7,336.7 
						395.7,386.2 					"/>
					<rect x="394.3" y="287.3" class="st17" width="94.9" height="99"/>
					<rect x="476.8" y="287.3" class="st17" width="94.9" height="99"/>
					<polygon class="st17" points="559.3,386.2 559.3,287.3 658.3,287.3 658.3,328.6 650.1,328.6 650.1,355.3 658.3,355.3 
						658.3,386.2 					"/>
				</g>
				<g>
					<polygon class="st18" points="75.7,383.3 75.7,253.1 201.7,253.1 201.7,342.1 127.5,342.1 127.5,383.3 					"/>
					<polygon class="st18" points="195.2,383.3 195.2,290.2 284.1,290.2 284.1,333.8 275.9,333.8 275.9,383.3 					"/>
					<polygon class="st18" points="288.6,383.3 288.6,333.8 277.6,333.8 277.6,253.1 403.7,253.1 403.7,333.8 392.7,333.8 
						392.7,383.3 					"/>
					<rect x="397.3" y="290.2" class="st18" width="89" height="93.1"/>
					<rect x="479.7" y="290.2" class="st18" width="89" height="93.1"/>
					<polygon class="st18" points="607.1,383.3 607.1,383.3 605.2,383.3 562.2,383.3 562.2,290.2 655.3,290.2 655.3,325.6 
						647.2,325.6 647.2,358.3 655.3,358.3 655.3,383.3 					"/>
				</g>
				<g>
					<path class="st19" d="M81,258.4V378h41.2v-41.3h74.3v-78.4L81,258.4L81,258.4z M165,299.8h-44.4V294H165V299.8z"/>
					<polygon class="st19" points="270.6,295.5 270.6,295.5 241.6,295.5 241.6,323 236.3,323 236.3,295.5 200.5,295.5 200.5,356.1 
						242.3,356.1 242.3,361.5 200.5,361.5 200.5,378 231.8,378 270.6,378 270.6,328.5 278.8,328.5 278.8,295.5 					"/>
					<polygon class="st19" points="398.4,258.4 398.4,328.5 387.4,328.5 387.4,378 344.3,378 344.3,336.8 337.1,336.8 337.1,378 
						294,378 294,328.5 283,328.5 283,258.4 318.8,258.4 318.8,303.8 324.1,303.8 324.1,258.4 357.3,258.4 357.3,303.8 362.6,303.8 
						362.6,258.4 					"/>
					<polygon class="st19" points="480.9,320.3 480.9,295.5 441.7,295.5 402.6,295.5 402.6,336.8 402.6,378 441.7,378 480.9,378 
						480.9,353.2 423.2,353.2 423.2,347.8 480.9,347.8 480.9,336.8 480.9,325.7 423.2,325.7 423.2,320.3 					"/>
					<polygon class="st19" points="563.4,320.3 563.4,295.5 524.2,295.5 485,295.5 485,336.8 485,378 524.2,378 563.4,378 
						563.4,353.2 505.7,353.2 505.7,347.8 563.4,347.8 563.4,336.8 563.4,325.7 505.7,325.7 505.7,320.3 					"/>
					<polygon class="st19" points="641.9,335.4 641.9,320.3 650,320.3 650,295.5 611.9,295.5 611.9,320.3 605.7,320.3 605.7,295.5 
						567.5,295.5 567.5,378 605.2,378 605.2,377.9 605.2,355.2 612.4,355.2 612.4,377.9 612.4,378 642.1,378 650,378 650,363.6 
						642.1,363.6 641.9,363.6 641.9,341.5 629.5,341.5 629.5,335.4 					"/>
				</g>
				<g>
					
						<linearGradient id="SVGID_9_" gradientUnits="userSpaceOnUse" x1="81" y1="1132.5116" x2="196.4" y2="1132.5116" gradientTransform="matrix(1 0 0 1 0 -842.1102)">
						<stop  offset="0" style="stop-color:#6C9EB5"/>
						<stop  offset="1" style="stop-color:#9BB7C4"/>
					</linearGradient>
					<path class="st20" d="M81,315.1c18.9,4.9,38.3,7.3,57.7,7.3c19.5,0.1,38.9-2.4,57.7-7.3v-56.7H81V315.1z M120.6,294H165v5.8
						h-44.4V294z"/>
					
						<linearGradient id="SVGID_10_" gradientUnits="userSpaceOnUse" x1="200.48" y1="1157.8602" x2="278.78" y2="1157.8602" gradientTransform="matrix(1 0 0 1 0 -842.1102)">
						<stop  offset="0" style="stop-color:#6C9EB5"/>
						<stop  offset="1" style="stop-color:#9BB7C4"/>
					</linearGradient>
					<path class="st21" d="M270.6,295.5h-29V323h-5.4v-27.5h-35.8v37.3c12.9,2.2,26,3.2,39.2,3.2c10.3,0,20.7-0.7,30.9-2v-5.5h8.2
						v-33H270.6z"/>
					
						<linearGradient id="SVGID_11_" gradientUnits="userSpaceOnUse" x1="283" y1="1132.4977" x2="398.5" y2="1132.4977" gradientTransform="matrix(1 0 0 1 0 -842.1102)">
						<stop  offset="0" style="stop-color:#6C9EB5"/>
						<stop  offset="1" style="stop-color:#9BB7C4"/>
					</linearGradient>
					<path class="st22" d="M362.6,303.8h-5.4v-45.4h-33.1v45.4h-5.4v-45.4H283v56.7c37.9,9.7,77.6,9.7,115.5,0v-56.7h-35.9V303.8z"
						/>
					
						<linearGradient id="SVGID_12_" gradientUnits="userSpaceOnUse" x1="402.6" y1="1157.8727" x2="481" y2="1157.8727" gradientTransform="matrix(1 0 0 1 0 -842.1102)">
						<stop  offset="0" style="stop-color:#6C9EB5"/>
						<stop  offset="1" style="stop-color:#9BB7C4"/>
					</linearGradient>
					<path class="st23" d="M402.6,295.5v37.3c25.9,4.3,52.4,4.3,78.4,0v-7.1h-57.7v-5.4H481v-24.8H402.6z"/>
					
						<linearGradient id="SVGID_13_" gradientUnits="userSpaceOnUse" x1="485" y1="1157.8727" x2="563.4" y2="1157.8727" gradientTransform="matrix(1 0 0 1 0 -842.1102)">
						<stop  offset="0" style="stop-color:#6C9EB5"/>
						<stop  offset="1" style="stop-color:#9BB7C4"/>
					</linearGradient>
					<path class="st24" d="M485,295.5v37.3c25.9,4.3,52.4,4.3,78.4,0v-7.1h-57.7v-5.4h57.7v-24.8H485z"/>
					
						<linearGradient id="SVGID_14_" gradientUnits="userSpaceOnUse" x1="567.6" y1="1157.8625" x2="650.1" y2="1157.8625" gradientTransform="matrix(1 0 0 1 0 -842.1102)">
						<stop  offset="0" style="stop-color:#6C9EB5"/>
						<stop  offset="1" style="stop-color:#9BB7C4"/>
					</linearGradient>
					<path class="st25" d="M611.9,320.3h-6.2v-24.8h-38.1v36.1c15.1,3,30.4,4.5,45.8,4.4c5.5,0,10.9-0.2,16.2-0.5v-0.1h2
						c3.5-0.3,7-0.6,10.4-1v-14h8.1v-24.8H612L611.9,320.3L611.9,320.3L611.9,320.3z"/>
				</g>
			</g>
		</g>
	</g>
</g>
</svg>
