<svg xmlns="http://www.w3.org/2000/svg" xmlns:xlink="http://www.w3.org/1999/xlink" viewBox="0 0 438 438"><defs><style>.a{fill:none;}.b{clip-path:url(#a);}.c{fill:#22282c;}.d{clip-path:url(#b);}.e{fill:#252d33;}.f{fill-opacity:0.2;}.g{fill:#4f90ae;}.h{fill:url(#c);}.i{fill:#fff;}.j{fill:url(#d);}.k{fill:url(#e);}.l{opacity:0.7;isolation:isolate;fill:url(#f);}.m{opacity:0.5;}.n{fill:#fc6;}</style><clipPath id="a"><rect class="a" width="438" height="438"/></clipPath><clipPath id="b"><rect class="a" x="-303.7" y="-51" width="960" height="540"/></clipPath><linearGradient id="c" x1="149.27" y1="-447.17" x2="223.88" y2="-561.17" gradientTransform="matrix(1, 0, 0, -1, 0, -370.11)" gradientUnits="userSpaceOnUse"><stop offset="0" stop-color="#9ab6c3"/><stop offset="0.29" stop-color="#96b4c2"/><stop offset="0.59" stop-color="#89aebf"/><stop offset="0.9" stop-color="#75a4bb"/><stop offset="1" stop-color="#6ca0b9"/></linearGradient><linearGradient id="d" x1="261.39" y1="-754.42" x2="261.39" y2="-508.01" gradientTransform="matrix(1, 0, 0, -1, 0, -370.11)" gradientUnits="userSpaceOnUse"><stop offset="0" stop-color="#f6ff42"/><stop offset="0.62" stop-color="#f8df68"/><stop offset="0.63" stop-color="#f8df6a"/><stop offset="0.98" stop-color="#f8de65"/></linearGradient><linearGradient id="e" x1="261.39" y1="-754.42" x2="261.39" y2="-508.01" gradientTransform="matrix(1, 0, 0, -1, 0, -370.11)" gradientUnits="userSpaceOnUse"><stop offset="0" stop-color="#fc3"/><stop offset="0.62" stop-color="#f4d56e"/><stop offset="0.67" stop-color="#f4d672" stop-opacity="0.98"/><stop offset="0.72" stop-color="#f5da7f" stop-opacity="0.91"/><stop offset="0.78" stop-color="#f7e093" stop-opacity="0.8"/><stop offset="0.85" stop-color="#f9e8af" stop-opacity="0.65"/><stop offset="0.91" stop-color="#fcf2d3" stop-opacity="0.46"/><stop offset="0.98" stop-color="#fff" stop-opacity="0.23"/></linearGradient><linearGradient id="f" x1="261.39" y1="-508.01" x2="261.39" y2="-754.42" gradientTransform="matrix(1, 0, 0, -1, 0, -370.11)" gradientUnits="userSpaceOnUse"><stop offset="0" stop-color="#fff" stop-opacity="0.77"/><stop offset="0.2" stop-color="#fff" stop-opacity="0.65"/><stop offset="0.38" stop-color="#fff" stop-opacity="0.65"/><stop offset="0.4" stop-color="#fff" stop-opacity="0.62"/><stop offset="0.42" stop-color="#fff" stop-opacity="0.53"/><stop offset="0.45" stop-color="#fff" stop-opacity="0.39"/><stop offset="0.48" stop-color="#fff" stop-opacity="0.2"/><stop offset="0.51" stop-color="#fff" stop-opacity="0"/><stop offset="0.52" stop-color="#fffdf5" stop-opacity="0.01"/><stop offset="0.55" stop-color="#fbefb3" stop-opacity="0.08"/><stop offset="0.6" stop-color="#f9e484" stop-opacity="0.12"/><stop offset="0.67" stop-color="#f7df68" stop-opacity="0.15"/><stop offset="0.85" stop-color="#f7dd61" stop-opacity="0.16"/></linearGradient></defs><title>new_icon</title><g class="b"><rect class="c" x="-77.4" y="-51" width="589.3" height="540"/><g class="d"><circle class="e" cx="-8.7" cy="237" r="52.3"/><circle class="e" cx="103.9" cy="314.8" r="43"/><circle class="e" cx="216.4" cy="392.6" r="33.7"/><circle class="e" cx="492.2" cy="414.5" r="80.3"/><circle class="e" cx="379.6" cy="336.7" r="71"/><circle class="e" cx="267.1" cy="258.9" r="61.7"/><circle class="e" cx="154.5" cy="181.1" r="52.3"/><circle class="e" cx="41.9" cy="103.3" r="43"/><circle class="e" cx="97.3" cy="-29" r="80.3"/><circle class="e" cx="209.9" cy="48.8" r="71"/><circle class="e" cx="322.4" cy="126.6" r="61.7"/><circle class="e" cx="435" cy="204.4" r="52.4"/><circle class="e" cx="435.5" cy="56" r="43"/><circle class="e" cx="322.9" cy="-21.7" r="33.7"/><circle class="e" cx="109.4" cy="487.5" r="80.3"/><circle class="e" cx="-3.2" cy="409.8" r="71"/></g><path class="f" d="M283.1,68l-11.5,3.3a239.18,239.18,0,0,0-36.9-2.5A229,229,0,0,0,196.8,72c-3.7.7-7.1,1.4-10.1,2.2H150.8V93h4.5v7.7h2.8a84.84,84.84,0,0,0-.9,12.3v4H141.8l-2.2,11,17.6,15v.1h79.2v10H127.5c-23,0-43.2,13.8-49.5,40-7.3,30-7.6,48.8,0,80.2.5,2.1,1.1,4.1,1.7,6.1l-1.2,10.5,13.3,11.5c7,7.5,16.4,12,28.3,12h27.2v-36c0-26,22.6-49,49.5-49H276c22,0,39.6-18.1,39.6-40.1V113c0-12.9-6.6-23.8-16.5-31.3Zm76.8,77.6L345.6,153H325.5v35.1c0,27.2-23.1,50-49.5,50H196.9c-21.7,0-39.6,18.5-39.6,40.1v75.1c0,21.4,18.7,34,39.6,40.1,25.1,7.3,49.1,8.7,79.1,0,19.9-5.7,39.6-17.3,39.6-40.1V323.2h-.1l-11.7-10h51.4c23,0,31.6-16,39.6-40,8.3-24.7,7.9-48.5,0-80.2-3.6-14.5-9.4-26.7-19-33.7ZM236.5,313.2H294v10H236.5Z"/><path class="g" d="M218.9,62.7a229.79,229.79,0,0,1,37.9,3.1,43.53,43.53,0,0,1,23,11.3,29.17,29.17,0,0,1,9.1,20.8v75.2c0,17.1-13.7,31.1-30.6,31.1H179.2c-31.7,0-58.5,26.6-58.5,58v27H102.5c-8.6,0-15.5-2.8-21.2-8.5s-9.7-13.9-12.2-24.6c-7.2-29.5-7.2-46.6,0-76,2.5-10.5,7.8-19,15.2-24.8a41.65,41.65,0,0,1,25.5-8.3H227.7V119H148.5V97.9c0-10.7,1.5-16.8,5.1-21,4.3-5.1,13.2-8.7,27.1-11.2a233.25,233.25,0,0,1,36.4-3.1l1.8.1"/><path class="g" d="M218.9,53.7H217a229,229,0,0,0-37.9,3.2c-33.5,5.9-39.6,18.2-39.6,41V128h79.2v10H109.8c-23,0-43.2,13.8-49.5,40-7.3,30-7.6,48.8,0,80.2,5.6,23.4,19.1,40,42.1,40h27.2v-36c0-26,22.6-49,49.5-49h79.1c22,0,39.6-18.1,39.6-40.1V97.9c0-21.4-18.1-37.4-39.6-41a235.89,235.89,0,0,0-39.3-3.2Z"/><path class="h" d="M258.2,56.9A236.81,236.81,0,0,0,217,53.7a229,229,0,0,0-37.9,3.2c-33.5,5.9-39.6,18.2-39.6,41V128h79.2v10H109.8c-18.9,0-35.9,9.3-44.9,27.2,28.6,13.8,67.9,22.4,111.3,22.4,48.8,0,92.5-10.8,121.5-27.8V97.9C297.8,76.5,279.7,60.5,258.2,56.9Z"/><path class="i" d="M218.9,62.7a229.79,229.79,0,0,1,37.9,3.1,43.53,43.53,0,0,1,23,11.3,29.17,29.17,0,0,1,9.1,20.8v75.2c0,17.1-13.7,31.1-30.6,31.1H179.2c-31.7,0-58.5,26.6-58.5,58v27H102.5c-8.6,0-15.5-2.8-21.2-8.5s-9.7-13.9-12.2-24.6c-7.2-29.5-7.2-46.6,0-76,2.5-10.5,7.8-19,15.2-24.8a41.65,41.65,0,0,1,25.5-8.3H227.7V119H148.5V97.9c0-10.7,1.5-16.8,5.1-21,4.3-5.1,13.2-8.7,27.1-11.2a233.25,233.25,0,0,1,36.4-3.1l1.8.1m0-9H217a229,229,0,0,0-37.9,3.2c-33.5,5.9-39.6,18.2-39.6,41V128h79.2v10H109.8c-23,0-43.2,13.8-49.5,40-7.3,30-7.6,48.8,0,80.2,5.6,23.4,19.1,40,42.1,40h27.2v-36c0-26,22.6-49,49.5-49h79.1c22,0,39.6-18.1,39.6-40.1V97.9c0-21.4-18.1-37.4-39.6-41a235.89,235.89,0,0,0-39.3-3.2Z"/><path class="j" d="M307.8,138v35c0,27.2-23.1,50-49.5,50H179.2c-21.7,0-39.6,18.5-39.6,40.1v75.1c0,21.4,18.7,34,39.6,40.1,25.1,7.3,49.1,8.7,79.1,0,19.9-5.7,39.6-17.3,39.6-40.1V308.1H218.8v-10H337.5c23,0,31.6-16,39.6-40,8.3-24.7,7.9-48.5,0-80.2-5.7-22.8-16.6-40-39.6-40l-29.7.1Z"/><path class="k" d="M307.8,138v35c0,27.2-23.1,50-49.5,50H179.2c-21.7,0-39.6,18.5-39.6,40.1v75.1c0,21.4,18.7,34,39.6,40.1,25.1,7.3,49.1,8.7,79.1,0,19.9-5.7,39.6-17.3,39.6-40.1V308.1H218.8v-10H337.5c23,0,31.6-16,39.6-40,8.3-24.7,7.9-48.5,0-80.2-5.7-22.8-16.6-40-39.6-40l-29.7.1Z"/><path class="l" d="M307.8,138v35c0,27.2-23.1,50-49.5,50H179.2c-21.7,0-39.6,18.5-39.6,40.1v75.1c0,21.4,18.7,34,39.6,40.1,25.1,7.3,49.1,8.7,79.1,0,19.9-5.7,39.6-17.3,39.6-40.1V308.1H218.8v-10H337.5c23,0,31.6-16,39.6-40,8.3-24.7,7.9-48.5,0-80.2-5.7-22.8-16.6-40-39.6-40l-29.7.1Z"/><g class="m"><path class="i" d="M375.2,178.3c-2.6-11.2-12-23.6-21.3-31.1-9.8-8-29.6-5.3-41.3-5.3-.1,0,.4,29,.4,29,0,.2-1.5,17.6-10.2,32.3-5,8.5-15.1,16.2-21.9,19.1-10.7,4.6-21.6,4.7-32.9,4.7H208.4c-9.6,0-19.2-.2-28.8,0-18.1.3-36.1,16.3-36.3,33.8-.1,7.9.2,15.9.6,23.8.1,2.6.3,5.2.5,7.9a266.65,266.65,0,0,1,4.4-31.4c1.4-6.8,4.8-14,10.2-18.5s12.6-5.4,19.3-5.6h1.8c9.8-.1,19.6,0,29.4,0h39.3c11.1,0,21.7-.2,32.2-4.7,20-8.7,34.2-28.4,35.8-50.1.7-9.9.1-23.2,1.2-28.4a2.38,2.38,0,0,1,2.4-1.9H335c4.8,0,9.6.3,14,2.3,19,8.6,28.4,51.5,28.3,66.3C377.2,206.4,378.4,192,375.2,178.3Z"/><path class="i" d="M283.6,348.7c2.4-3,6.4-6.8,6.4-17.8,0-2.6.9-8.7-4.3-8.9H227.2c-4.1,0-9.8.9-13.4-1.5-4.2-2.4-4.2-11.1-4.2-17.6,0-6.9.3-18.4,9.2-18.9,8.2-.5,16.6,0,24.9,0h85.8c8.7,0,21.2,1.9,26.4-5.9,22-32.9,21-46.3,21.1-57.7,0,10.5-.5,22.4-3.6,32.6-3.3,10.7-9.1,21.5-15.7,30.8-6.4,9-15.2,10.2-25.4,10.2H247.8c-9.4,0-19-.2-28.4,0-1,0-3.2,4.6-3.3,8.9-.1,4.7,2,9.2,3.3,9.1,23,.5,50.1.6,73.1.6l.3,23.3c0,6.6-3.9,12.8-7,18.8-4.8,9.2-14.7,14.5-24.1,17.9a132,132,0,0,1-41.7,7.7c-1,0-3.6.1-4.1.1a144.48,144.48,0,0,1-30.6-4.8c-15.7-4-30.6-10.8-37.8-26.3-3.9-8.6-3.6-16.9-2.9-25.9,1.5,10.2,5.3,19.7,12.5,27.3a57.37,57.37,0,0,0,25.8,15.1c10,2.8,28.5,4,35.5,4,13.5.1,29-2.2,41.2-6.7C272,358.9,280.7,352.5,283.6,348.7Z"/></g><path class="n" d="M337.5,144.9c16.7,0,26.8,10.7,32.8,34.7,7.8,31.3,7.8,53.4.1,76.3-3.2,9.5-7.1,20-12.8,26.6-5.1,5.9-11.3,8.6-20.1,8.6H218.8l-7,7v10l7,7h72.1v23.1c0,15.6-11.6,26.8-34.5,33.4a134.17,134.17,0,0,1-37.8,5.7,131.42,131.42,0,0,1-37.4-5.7c-12.9-3.8-34.6-13.1-34.6-33.4V263.1c0-17.9,14.9-33.1,32.6-33.1h79.1c30.6,0,56.5-26.1,56.5-57V144.9h22.7m0-7H307.8V173c0,27.2-23.1,50-49.5,50H179.2c-21.7,0-39.6,18.5-39.6,40.1v75.1c0,21.4,18.7,34,39.6,40.1a138.35,138.35,0,0,0,39.4,6,140.41,140.41,0,0,0,39.7-6c19.9-5.7,39.6-17.3,39.6-40.1V308.1H218.8v-10H337.5c23,0,31.6-16,39.6-40,8.3-24.7,7.9-48.5,0-80.2-5.7-22.8-16.6-40-39.6-40Z"/><path class="c" d="M174.2,77.9a15.05,15.05,0,1,1-14.9,15.2V93a15,15,0,0,1,14.9-15.1Z"/><path class="f" d="M174.2,77.9a15.05,15.05,0,1,1-14.9,15.2V93a15,15,0,0,1,14.9-15.1Z"/><path class="c" d="M263.3,323a15.05,15.05,0,1,1-14.9,15.2V338A15.09,15.09,0,0,1,263.3,323Z"/><path class="f" d="M263.3,323a15.05,15.05,0,1,1-14.9,15.2v-.1A15,15,0,0,1,263.3,323Z"/></g></svg>