<?xml version="1.0" encoding="UTF-8" standalone="no"?>
<!DOCTYPE svg PUBLIC "-//W3C//DTD SVG 1.1//EN" "http://www.w3.org/Graphics/SVG/1.1/DTD/svg11.dtd">
<svg width="100%" height="100%" viewBox="0 0 255 255" version="1.1" xmlns="http://www.w3.org/2000/svg" xmlns:xlink="http://www.w3.org/1999/xlink" xml:space="preserve" xmlns:serif="http://www.serif.com/" style="fill-rule:evenodd;clip-rule:evenodd;stroke-linejoin:round;stroke-miterlimit:2;">
    <rect id="Artboard1" x="0" y="0" width="255" height="255" style="fill:none;"/>
    <g id="Artboard11" serif:id="Artboard1">
        <g transform="matrix(-7.1024,0,0,7.1024,255.459,-0.371575)">
            <path d="M23.216,20.937L21.495,14.077L17.548,5.261C17.046,3.964 17.691,2.505 18.988,2.004C20.284,1.498 21.744,2.147 22.246,3.444L28.449,19.213L23.216,20.937Z" style="fill:rgb(239,150,69);fill-rule:nonzero;"/>
        </g>
        <g transform="matrix(-7.1024,0,0,7.1024,255.459,-0.371575)">
            <path d="M31.565,18.449C31.077,15.868 29.577,11.926 29.577,11.926L23.79,1.437C23.164,0.195 21.648,-0.303 20.407,0.322C19.165,0.948 18.665,2.463 19.292,3.705L24.622,13.252C24.635,13.274 26.035,18.743 26.035,18.743C24.957,17.748 23.428,16.384 22.02,15.125C18.922,12.353 17.084,11.314 17.084,11.314C16.374,10.871 15.905,10.808 14.952,11.255L9.08,13.823C8.923,13.901 8.79,14.011 8.685,14.152L6.372,17.238C5.479,18.305 5.62,19.893 6.687,20.785C7.753,21.678 9.34,21.535 10.235,20.471C10.283,20.413 12.015,17.911 12.171,17.831C13.208,17.298 15.136,16.384 15.979,16.411C16.876,16.44 22.26,22.368 22.26,22.368C22.466,22.627 22.49,22.986 22.32,23.27L19.405,28.498C19.326,28.629 19.212,28.734 19.075,28.801L16.401,30.301C16.247,30.376 16.073,30.4 15.905,30.368L10.635,28.096C10.373,27.983 10.155,27.776 10.043,27.513C9.256,25.663 9.145,23.894 9.144,23.874C9.079,22.484 7.9,21.411 6.51,21.476C5.123,21.532 4.047,22.719 4.112,24.109C4.125,24.372 4.463,29.749 8.839,33.401C11.367,35.509 14.493,36.325 18.488,35.788C23.1,35.169 25.957,34.555 29.994,26.23C31.111,23.925 31.897,20.206 31.565,18.449Z" style="fill:rgb(255,220,93);fill-rule:nonzero;"/>
        </g>
    </g>
</svg>
