<svg width="1037" height="370" viewBox="0 0 1037 370" fill="none" xmlns="http://www.w3.org/2000/svg">
<rect width="1036.27" height="369.5" fill="#B0B2B8"/>
<path d="M237.749 88.0034L229.72 90.2196C221.19 89.0105 212.443 88.48 203.973 88.5398C194.552 88.6067 185.481 89.3431 177.525 90.6828C174.943 91.1192 172.607 91.6112 170.471 92.1559H145.424V104.75H148.564V109.907H150.506C150.06 112.395 149.889 115.132 149.889 118.147V120.826H139.143L137.607 128.194L149.889 138.251V138.309H205.16V145.007H149.889H129.163C113.113 145.007 99.0159 154.251 94.6194 171.801C89.5251 191.897 89.3157 204.491 94.6194 225.524C94.9665 226.916 95.3595 228.27 95.7943 229.585L94.9683 236.577L104.282 244.313C109.189 249.344 115.706 252.318 123.999 252.318H142.981V228.204C142.981 210.788 158.753 195.381 177.525 195.381H232.794C248.147 195.381 260.429 183.256 260.429 168.519V118.147C260.429 109.506 255.836 102.183 248.904 97.1981L237.749 88.0034ZM291.345 139.984L281.365 144.941H267.338V145.007V151.907V168.452C267.338 186.672 251.218 201.945 232.794 201.945H177.594C162.451 201.945 149.96 214.337 149.96 228.806V279.112C149.96 293.447 163.009 301.887 177.594 305.973C195.111 310.863 211.859 311.801 232.794 305.973C246.682 302.155 260.429 294.385 260.429 279.112V260.423V259.017V258.949H260.346L252.167 252.25H260.429H288.064C304.115 252.25 310.117 241.533 315.7 225.456C321.492 208.911 321.213 192.969 315.7 171.735C313.172 162.028 309.173 153.843 302.478 149.161L291.345 139.984ZM205.229 252.25H245.356V258.949H205.229V252.25Z" fill="#7D7E75"/>
<path d="M194.94 130.622V129.122H193.44H139.67V110.459C139.67 102.913 140.736 97.5155 144.339 93.4815C147.975 89.4109 154.455 86.4355 166.054 84.4747C173.919 83.1502 182.91 82.4184 192.264 82.3519C201.68 82.2855 211.434 82.9503 220.763 84.4758L220.767 84.4765C235.336 86.818 247.14 97.1224 247.14 110.459V160.832C247.14 174.707 235.563 186.193 221.005 186.193H165.805C146.264 186.193 129.761 202.212 129.761 220.516V243.131H112.279C104.636 243.131 98.6471 240.497 94.0843 236.039C89.4913 231.551 86.2647 225.133 84.3551 217.474L84.3541 217.47C81.7209 207.027 80.4747 198.752 80.5004 190.629C80.526 182.505 81.8237 174.463 84.3537 164.483L84.3547 164.479C88.5688 147.657 102.016 138.82 117.443 138.82H138.17H193.44H194.94V137.32V130.622ZM174.283 107.177C174.283 100.751 168.897 95.5624 162.385 95.5624C155.88 95.5624 150.487 100.677 150.487 107.177C150.487 113.616 155.886 118.725 162.385 118.725C168.884 118.725 174.283 113.616 174.283 107.177Z" fill="#4F5D2F" stroke="#F5DF46" stroke-width="3"/>
<path d="M220.544 296.357L220.538 296.359C199.987 302.08 183.612 301.161 166.412 296.359C159.284 294.362 152.682 291.338 147.898 287.188C143.158 283.075 140.239 277.9 140.239 271.425V221.119C140.239 207.796 151.794 196.258 165.874 196.258H221.075C240.53 196.258 257.618 180.161 257.618 160.765V139.253H276.345C283.82 139.253 289.198 141.907 293.217 146.277C297.305 150.722 300.093 157.059 302.044 164.552C307.491 185.533 307.714 201.049 302.092 217.109L302.09 217.114C299.304 225.138 296.513 231.495 292.599 235.86C288.797 240.1 283.837 242.564 276.345 242.564H248.71H193.509H191.509V244.564V251.262V253.262H193.509H246.71V271.425C246.71 278.365 243.622 283.595 238.816 287.617C233.953 291.687 227.352 294.486 220.544 296.357ZM236.962 274.774C236.962 268.042 231.322 262.726 224.564 262.726C217.806 262.726 212.166 268.042 212.166 274.774C212.166 281.489 217.789 286.889 224.564 286.889C231.339 286.889 236.962 281.489 236.962 274.774Z" fill="#E5FFAB" stroke="#F5DF46" stroke-width="4"/>
<path d="M330 102C329.28 109.477 326.357 116.602 321.572 122.542C316.788 128.482 310.34 132.992 302.983 135.542C295.626 138.093 287.664 138.58 280.029 136.946C272.394 135.312 265.402 131.624 259.871 126.315C254.34 121.006 250.498 114.294 248.796 106.966C247.093 99.6375 247.601 91.9952 250.258 84.9333C252.915 77.8715 257.613 71.6821 263.801 67.0895C269.99 62.4969 277.413 59.6909 285.202 59C263.801 72.9895 263.231 87.7039 263.801 95.0477C264.372 102.391 267.67 109.295 273.095 114.502C278.519 119.709 285.711 122.874 293.362 123.422C301.013 123.97 313.732 122.542 330 102Z" fill="#423629"/>
<g clip-path="url(#clip0_3_55)">
<g filter="url(#filter0_d_3_55)">
<path d="M300.156 84.0953L299.097 92.4319L305.647 98.0037L297.061 99.6083L293.573 107.31L289.326 99.965L280.614 99.1615L286.577 93.0159L284.679 84.8189L292.617 88.3578L300.156 84.0953Z" fill="#F5DF46"/>
</g>
</g>
<path d="M394 168.445H418.81V139.754H433.363C457.064 139.754 469.122 122.429 469.122 104.965C469.122 87.6399 457.203 70.3146 433.224 70.3146H394V168.445ZM418.81 117.717V93.4612H433.224C448.193 93.3225 448.193 117.855 433.224 117.717H418.81Z" fill="#E5FFAB"/>
<path d="M534.916 168.445V129.775L569.29 70.3146H540.183L522.442 106.351L504.701 70.3146H475.872L510.107 129.775V168.445H534.916Z" fill="#E5FFAB"/>
<path d="M655.534 93.7384V70.176H578.332V93.7384H604.39V168.445H629.477V93.7384H655.534Z" fill="#E5FFAB"/>
<path d="M698.9 131.438H727.175V168.445H752.123V70.3146H727.175V107.46H698.9V70.3146H673.952V168.445H698.9V131.438Z" fill="#E5FFAB"/>
<path d="M773.846 136.151C773.846 158.604 794.22 169.831 814.595 169.831C834.969 169.831 855.206 158.604 855.206 136.151V102.609C855.206 80.1554 834.831 68.9286 814.456 68.9286C794.082 68.9286 773.846 80.0168 773.846 102.609V136.151ZM798.656 102.609C798.656 95.4016 806.417 91.5208 814.179 91.5208C822.218 91.5208 830.396 94.9858 830.396 102.609V136.151C830.396 143.219 822.495 146.823 814.595 146.823C806.695 146.823 798.656 143.358 798.656 136.151V102.609Z" fill="#E5FFAB"/>
<path d="M876.828 168.445H901.638V129.221L898.45 110.232L899.143 110.093L907.737 129.775L929.913 168.445H955V70.3145H930.329L930.32 112.716C930.32 112.716 932.963 131.715 933.101 131.715L932.408 131.854L924.092 112.172L900.391 70.3146H876.829L876.828 168.445Z" fill="#E5FFAB"/>
<path d="M394.067 203.32V301.293H430.738C450.388 301.431 468.792 291.606 468.792 269.05V236.116C468.792 213.283 450.388 203.32 430.738 203.32H394.067ZM418.976 278.045V226.429H431.568C439.871 226.429 443.884 230.442 443.884 236.808V267.39C443.884 273.755 440.009 278.045 431.568 278.045H418.976Z" fill="#4F5D2F"/>
<path d="M509.917 203.32H485.147V301.293H509.917V203.32Z" fill="#4F5D2F"/>
<path d="M523.683 284.964C532.816 296.726 545.27 302.677 557.032 302.677C575.022 302.677 594.948 292.298 595.779 273.34C596.886 249.262 579.45 243.173 562.014 239.991C554.403 238.33 549.283 235.562 549.006 230.857C549.422 219.51 566.996 219.095 577.236 230.027L593.426 217.573C583.325 205.257 571.839 201.936 559.938 201.936C541.949 201.936 524.513 212.038 524.513 231.273C524.513 249.954 538.905 259.917 554.68 262.408C562.706 263.515 571.701 266.698 571.424 272.233C570.732 282.75 549.145 282.196 539.32 270.296L523.683 284.964Z" fill="#4F5D2F"/>
<path d="M659.422 270.711C654.026 284.272 631.885 280.951 631.885 269.189V235.424C631.885 223.247 653.749 220.479 660.391 232.656L680.594 224.492C672.707 207.056 658.177 201.936 646.138 201.936C626.488 201.936 607.115 213.283 607.115 235.424V269.189C607.115 291.468 626.488 302.677 645.723 302.677C658.039 302.677 672.845 296.588 681.01 280.674L659.422 270.711Z" fill="#4F5D2F"/>
<path d="M690.627 269.05C690.627 291.468 710.968 302.677 731.31 302.677C751.652 302.677 771.856 291.468 771.856 269.05V235.562C771.856 213.145 751.514 201.936 731.172 201.936C710.83 201.936 690.627 213.006 690.627 235.562V269.05ZM715.397 235.562C715.397 228.367 723.146 224.492 730.895 224.492C738.921 224.492 747.086 227.952 747.086 235.562V269.05C747.086 276.108 739.198 279.706 731.31 279.706C723.423 279.706 715.397 276.246 715.397 269.05V235.562Z" fill="#4F5D2F"/>
<path d="M840.011 301.293H870.87L844.163 267.666C856.064 263.93 863.398 253.69 863.398 235.562C862.844 212.591 847.207 203.32 827.004 203.32H787.842V301.293H812.889V270.157H817.317L840.011 301.293ZM812.889 248.847V226.429H827.419C843.056 226.429 843.056 248.847 827.419 248.847H812.889Z" fill="#4F5D2F"/>
<path d="M880.273 203.32V301.293H916.944C936.594 301.431 954.998 291.606 954.998 269.05V236.116C954.998 213.283 936.594 203.32 916.944 203.32H880.273ZM905.182 278.045V226.429H917.774C926.077 226.429 930.09 230.442 930.09 236.808V267.39C930.09 273.755 926.215 278.045 917.774 278.045H905.182Z" fill="#4F5D2F"/>
<defs>
<filter id="filter0_d_3_55" x="280.614" y="84.0953" width="28.0329" height="26.2144" filterUnits="userSpaceOnUse" color-interpolation-filters="sRGB">
<feFlood flood-opacity="0" result="BackgroundImageFix"/>
<feColorMatrix in="SourceAlpha" type="matrix" values="0 0 0 0 0 0 0 0 0 0 0 0 0 0 0 0 0 0 127 0" result="hardAlpha"/>
<feOffset dx="3" dy="3"/>
<feComposite in2="hardAlpha" operator="out"/>
<feColorMatrix type="matrix" values="0 0 0 0 0.490196 0 0 0 0 0.494118 0 0 0 0 0.458824 0 0 0 1 0"/>
<feBlend mode="normal" in2="BackgroundImageFix" result="effect1_dropShadow_3_55"/>
<feBlend mode="normal" in="SourceGraphic" in2="effect1_dropShadow_3_55" result="shape"/>
</filter>
<clipPath id="clip0_3_55">
<rect width="29.7225" height="29.2405" fill="white" transform="matrix(0.846546 0.532316 -0.56371 0.825972 288.949 74.1718)"/>
</clipPath>
</defs>
</svg>
