<svg width="1037" height="370" viewBox="0 0 1037 370" fill="none" xmlns="http://www.w3.org/2000/svg">
<rect width="1036.27" height="369.5" fill="#B0B2B8"/>
<path d="M394 168.445H418.81V139.754H433.363C457.064 139.754 469.122 122.429 469.122 104.965C469.122 87.6399 457.203 70.3146 433.224 70.3146H394V168.445ZM418.81 117.717V93.4612H433.224C448.193 93.3225 448.193 117.855 433.224 117.717H418.81Z" fill="#E5FFAB"/>
<path d="M534.916 168.445V129.775L569.29 70.3146H540.183L522.442 106.351L504.701 70.3146H475.872L510.107 129.775V168.445H534.916Z" fill="#E5FFAB"/>
<path d="M655.534 93.7384V70.176H578.332V93.7384H604.39V168.445H629.477V93.7384H655.534Z" fill="#E5FFAB"/>
<path d="M698.9 131.438H727.175V168.445H752.123V70.3146H727.175V107.46H698.9V70.3146H673.952V168.445H698.9V131.438Z" fill="#E5FFAB"/>
<path d="M773.846 136.151C773.846 158.604 794.22 169.831 814.595 169.831C834.969 169.831 855.206 158.604 855.206 136.151V102.609C855.206 80.1554 834.831 68.9286 814.456 68.9286C794.082 68.9286 773.846 80.0168 773.846 102.609V136.151ZM798.656 102.609C798.656 95.4016 806.417 91.5208 814.179 91.5208C822.218 91.5208 830.396 94.9858 830.396 102.609V136.151C830.396 143.219 822.495 146.823 814.595 146.823C806.695 146.823 798.656 143.358 798.656 136.151V102.609Z" fill="#E5FFAB"/>
<path d="M876.828 168.445H901.638V129.221L898.45 110.232L899.143 110.093L907.737 129.775L929.913 168.445H955V70.3145H930.329L930.32 112.716C930.32 112.716 932.963 131.715 933.101 131.715L932.408 131.854L924.092 112.172L900.391 70.3146H876.829L876.828 168.445Z" fill="#E5FFAB"/>
<path d="M394.067 203.32V301.293H430.738C450.388 301.431 468.792 291.606 468.792 269.05V236.116C468.792 213.283 450.388 203.32 430.738 203.32H394.067ZM418.976 278.045V226.429H431.568C439.871 226.429 443.884 230.442 443.884 236.808V267.39C443.884 273.755 440.009 278.045 431.568 278.045H418.976Z" fill="#4F5D2F"/>
<path d="M509.917 203.32H485.147V301.293H509.917V203.32Z" fill="#4F5D2F"/>
<path d="M523.683 284.964C532.816 296.726 545.27 302.677 557.032 302.677C575.022 302.677 594.948 292.298 595.779 273.34C596.886 249.262 579.45 243.173 562.014 239.991C554.403 238.33 549.283 235.562 549.006 230.857C549.422 219.51 566.996 219.095 577.236 230.027L593.426 217.573C583.325 205.257 571.839 201.936 559.938 201.936C541.949 201.936 524.513 212.038 524.513 231.273C524.513 249.954 538.905 259.917 554.68 262.408C562.706 263.515 571.701 266.698 571.424 272.233C570.732 282.75 549.145 282.196 539.32 270.296L523.683 284.964Z" fill="#4F5D2F"/>
<path d="M659.422 270.711C654.026 284.272 631.885 280.951 631.885 269.189V235.424C631.885 223.247 653.749 220.479 660.391 232.656L680.594 224.492C672.707 207.056 658.177 201.936 646.138 201.936C626.488 201.936 607.115 213.283 607.115 235.424V269.189C607.115 291.468 626.488 302.677 645.723 302.677C658.039 302.677 672.845 296.588 681.01 280.674L659.422 270.711Z" fill="#4F5D2F"/>
<path d="M690.627 269.05C690.627 291.468 710.968 302.677 731.31 302.677C751.652 302.677 771.856 291.468 771.856 269.05V235.562C771.856 213.145 751.514 201.936 731.172 201.936C710.83 201.936 690.627 213.006 690.627 235.562V269.05ZM715.397 235.562C715.397 228.367 723.146 224.492 730.895 224.492C738.921 224.492 747.086 227.952 747.086 235.562V269.05C747.086 276.108 739.198 279.706 731.31 279.706C723.423 279.706 715.397 276.246 715.397 269.05V235.562Z" fill="#4F5D2F"/>
<path d="M840.011 301.293H870.87L844.163 267.666C856.064 263.93 863.398 253.69 863.398 235.562C862.844 212.591 847.207 203.32 827.004 203.32H787.842V301.293H812.889V270.157H817.317L840.011 301.293ZM812.889 248.847V226.429H827.419C843.056 226.429 843.056 248.847 827.419 248.847H812.889Z" fill="#4F5D2F"/>
<path d="M880.273 203.32V301.293H916.944C936.594 301.431 954.998 291.606 954.998 269.05V236.116C954.998 213.283 936.594 203.32 916.944 203.32H880.273ZM905.182 278.045V226.429H917.774C926.077 226.429 930.09 230.442 930.09 236.808V267.39C930.09 273.755 926.215 278.045 917.774 278.045H905.182Z" fill="#4F5D2F"/>
<path d="M244.157 70.8492L234.488 73.4987C224.217 72.0532 213.684 71.419 203.485 71.4905C192.141 71.5706 181.218 72.4508 171.638 74.0524C168.529 74.5742 165.716 75.1623 163.145 75.8135H132.984V90.869H136.765V97.0344H139.104C138.567 100.009 138.36 103.28 138.36 106.885V110.088H125.421L123.571 118.897L138.36 130.919V130.988H204.914V138.996H138.36H113.404C94.0764 138.996 77.102 150.047 71.808 171.028C65.6737 195.051 65.4216 210.107 71.808 235.252C72.2259 236.916 72.6992 238.534 73.2228 240.107L72.2282 248.465L83.4428 257.713C89.3518 263.727 97.1997 267.283 107.185 267.283H130.043V238.455C130.043 217.634 149.034 199.216 171.638 199.216H238.191C256.678 199.216 271.467 184.721 271.467 167.103V106.885C271.467 96.5549 265.936 87.801 257.588 81.8413L244.157 70.8492ZM308.693 132.99L296.676 138.916H279.786V138.996V147.245V167.024C279.786 188.805 260.375 207.063 238.191 207.063H171.722C153.487 207.063 138.446 221.877 138.446 239.174V299.315C138.446 316.452 154.159 326.541 171.722 331.426C192.814 337.272 212.981 338.393 238.191 331.426C254.913 326.862 271.467 317.573 271.467 299.315V276.973V275.291V275.21H271.367L261.518 267.202H271.467H304.743C324.07 267.202 331.298 254.389 338.021 235.17C344.995 215.391 344.659 196.333 338.021 170.948C334.977 159.344 330.162 149.558 322.099 143.962L308.693 132.99ZM204.998 267.202H253.316V275.21H204.998V267.202Z" fill="#7D7E75"/>
<path d="M192.302 119.622V118.122H190.802H125.749V95.5183C125.749 86.4808 127.032 79.9364 131.446 75.0304C135.895 70.0852 143.786 66.5128 157.774 64.1653C167.263 62.5788 178.107 61.703 189.384 61.6234C200.738 61.5438 212.502 62.3397 223.754 64.1666L223.758 64.1672C241.398 66.982 255.771 79.3869 255.771 95.5183V155.738C255.771 172.483 241.697 186.349 223.994 186.349H157.525C134.163 186.349 114.43 205.37 114.43 227.088V254.416H93.073C83.7879 254.416 76.498 251.237 70.9458 245.851C65.3639 240.436 61.4583 232.709 59.1506 223.519L59.1496 223.515C55.9753 211.017 54.4695 201.1 54.5005 191.357C54.5314 181.615 56.0994 171.976 59.1491 160.033L59.1502 160.028C64.2592 139.781 80.5799 129.13 99.2914 129.13H124.249H190.802H192.302V127.63V119.622ZM167.428 91.5944C167.428 84.0712 161.078 78.0025 153.408 78.0025C145.744 78.0025 139.387 83.9848 139.387 91.5944C139.387 99.1303 145.751 105.106 153.408 105.106C161.064 105.106 167.428 99.1303 167.428 91.5944Z" fill="#4F5D2F" stroke="#F5DF46" stroke-width="3"/>
<path d="M223.552 318.13L223.546 318.132C198.718 324.993 178.921 323.891 158.143 318.132C149.526 315.735 141.512 312.098 135.69 307.083C129.912 302.105 126.333 295.819 126.333 287.948V227.809C126.333 211.671 140.424 197.697 157.609 197.697H224.078C247.281 197.697 267.674 178.628 267.674 155.657V129.55H290.631C299.75 129.55 306.336 132.77 311.254 138.078C316.239 143.459 319.616 151.104 321.973 160.087C328.545 185.218 328.824 203.848 322.022 223.139L322.02 223.144C318.664 232.739 315.283 240.405 310.512 245.687C305.853 250.845 299.767 253.836 290.631 253.836H257.355H190.886H188.886V255.836V263.844V265.844H190.886H255.355V287.948C255.355 296.374 251.571 302.731 245.709 307.6C239.79 312.518 231.778 315.884 223.552 318.13ZM242.801 291.952C242.801 284.119 236.192 277.94 228.28 277.94C220.368 277.94 213.759 284.119 213.759 291.952C213.759 299.767 220.35 306.044 228.28 306.044C236.21 306.044 242.801 299.767 242.801 291.952Z" fill="#E5FFAB" stroke="#F5DF46" stroke-width="4"/>
<path d="M355.24 85.4059C354.373 94.3439 350.853 102.862 345.092 109.963C339.33 117.064 331.566 122.455 322.707 125.504C313.848 128.554 304.261 129.136 295.068 127.182C285.874 125.229 277.455 120.82 270.794 114.473C264.134 108.126 259.508 100.103 257.458 91.3419C255.408 82.581 256.019 73.4449 259.219 65.0026C262.419 56.5603 268.076 49.1611 275.527 43.6708C282.979 38.1804 291.918 34.826 301.297 34C275.527 50.7241 274.84 68.3148 275.527 77.094C276.214 85.8732 280.185 94.1259 286.718 100.351C293.25 106.576 301.91 110.36 311.123 111.015C320.335 111.669 335.651 109.963 355.24 85.4059Z" fill="#423629"/>
<g clip-path="url(#clip0_4_68)">
<g filter="url(#filter0_d_4_68)">
<path d="M319.304 64.0008L318.028 73.967L325.916 80.6279L315.576 82.5462L311.376 91.753L306.262 82.9727L295.773 82.012L302.952 74.6651L300.667 64.8658L310.226 69.0965L319.304 64.0008Z" fill="#F5DF46"/>
</g>
</g>
<defs>
<filter id="filter0_d_4_68" x="295.773" y="64.0008" width="33.1432" height="30.7522" filterUnits="userSpaceOnUse" color-interpolation-filters="sRGB">
<feFlood flood-opacity="0" result="BackgroundImageFix"/>
<feColorMatrix in="SourceAlpha" type="matrix" values="0 0 0 0 0 0 0 0 0 0 0 0 0 0 0 0 0 0 127 0" result="hardAlpha"/>
<feOffset dx="3" dy="3"/>
<feComposite in2="hardAlpha" operator="out"/>
<feColorMatrix type="matrix" values="0 0 0 0 0.490196 0 0 0 0 0.494118 0 0 0 0 0.458824 0 0 0 1 0"/>
<feBlend mode="normal" in2="BackgroundImageFix" result="effect1_dropShadow_4_68"/>
<feBlend mode="normal" in="SourceGraphic" in2="effect1_dropShadow_4_68" result="shape"/>
</filter>
<clipPath id="clip0_4_68">
<rect width="35.7173" height="35.037" fill="white" transform="matrix(0.848273 0.52956 -0.56649 0.824068 305.809 52.1375)"/>
</clipPath>
</defs>
</svg>
