<svg width="513" height="513" viewBox="0 0 513 513" fill="none" xmlns="http://www.w3.org/2000/svg">
<rect width="513" height="513" rx="79" fill="#B0B2B8"/>
<path d="M317.089 80.7915L304.389 84.4435C290.898 82.451 277.063 81.5769 263.666 81.6754C248.765 81.7858 234.417 82.9991 221.834 85.2066C217.751 85.9259 214.056 86.7364 210.678 87.6341H171.061V108.386H176.028V116.884H179.1C178.394 120.984 178.123 125.493 178.123 130.461V134.877H161.127L158.697 147.018L178.123 163.59V163.685H265.543V174.722H178.123H145.342C119.955 174.722 97.6586 189.955 90.7048 218.873C82.6472 251.987 82.3161 272.739 90.7048 307.398C91.2538 309.691 91.8754 311.921 92.5631 314.089L91.2567 325.61L105.987 338.357C113.749 346.647 124.057 351.549 137.173 351.549H167.197V311.813C167.197 283.115 192.143 257.728 221.834 257.728H309.253C333.536 257.728 352.962 237.748 352.962 213.465V130.461C352.962 116.223 345.697 104.157 334.732 95.9426L317.089 80.7915ZM401.86 166.444L386.075 174.613H363.89V174.722V186.092V213.355C363.89 243.377 338.392 268.543 309.253 268.543H221.944C197.992 268.543 178.235 288.963 178.235 312.804V395.7C178.235 419.321 198.875 433.228 221.944 439.961C249.649 448.018 276.139 449.564 309.253 439.961C331.218 433.669 352.962 420.866 352.962 395.7V364.904V362.587V362.474H352.83L339.893 351.437H352.962H396.671C422.058 351.437 431.552 333.776 440.382 307.286C449.543 280.022 449.102 253.753 440.382 218.764C436.384 202.769 430.059 189.281 419.469 181.567L401.86 166.444ZM265.653 351.437H329.121V362.474H265.653V351.437Z" fill="#7D7E75"/>
<path d="M161.087 146.518H247.006H248.506V148.018V159.056V160.556H247.006H159.587H126.805C102.086 160.556 80.4122 175.338 73.6264 203.558L73.6255 203.562C69.6127 220.052 67.5415 233.394 67.5006 246.893C67.4597 260.393 69.4489 274.119 73.6259 291.377L73.6268 291.381C76.6768 304.125 81.8488 314.885 89.2704 322.44C96.659 329.961 106.345 334.381 118.637 334.381H147.16V296.145C147.16 266.616 172.779 240.56 203.297 240.56H290.605C314.036 240.56 332.815 221.278 332.815 197.798V114.794C332.815 92.1272 313.608 74.9121 290.358 71.019L290.353 71.0183C275.549 68.496 260.074 67.3977 245.141 67.5075C230.31 67.6173 216.046 68.8259 203.557 71.0169L161.087 146.518ZM161.087 146.518V114.794C161.087 102.292 162.775 93.0754 168.714 86.1482C174.673 79.1981 185.169 74.2555 203.556 71.017L161.087 146.518ZM215.834 109.386C215.834 99.4157 207.787 91.2189 197.888 91.2189C187.996 91.2189 179.942 99.2988 179.942 109.386C179.942 119.369 188.002 127.443 197.888 127.443C207.774 127.443 215.834 119.369 215.834 109.386Z" fill="#4F5D2F" stroke="#F5DF46" stroke-width="3"/>
<path d="M290.165 422.371L290.159 422.372C257.444 431.86 231.342 430.335 203.966 422.373C181.06 415.687 161.697 402.208 161.697 380.032V297.138C161.697 274.365 180.595 254.877 203.407 254.877H290.716C320.965 254.877 347.353 228.81 347.353 197.688V160.945H378.135C390.25 160.945 399.06 165.442 405.651 172.907C412.312 180.453 416.792 191.133 419.904 203.58C428.563 238.327 428.953 264.187 419.949 290.982L419.947 290.987C415.535 304.223 411.053 314.922 404.682 322.324C398.426 329.594 390.267 333.77 378.135 333.77H334.425H247.117H245.117V335.77V346.808V348.808H247.117H332.425V380.032C332.425 391.95 327.309 400.919 319.493 407.733C311.62 414.597 301.005 419.266 290.165 422.371ZM314.681 385.551C314.681 375.294 306.399 366.994 296.235 366.994C286.07 366.994 277.788 375.294 277.788 385.551C277.788 395.791 286.053 404.218 296.235 404.218C306.416 404.218 314.681 395.791 314.681 385.551Z" fill="#E5FFAB" stroke="#F5DF46" stroke-width="4"/>
<path d="M463 100.856C461.861 113.176 457.238 124.917 449.67 134.704C442.102 144.492 431.904 151.923 420.267 156.126C408.631 160.329 396.038 161.131 383.962 158.439C371.886 155.746 360.827 149.67 352.079 140.921C343.33 132.173 337.254 121.114 334.561 109.038C331.869 96.9622 332.671 84.3693 336.874 72.7328C341.077 61.0963 348.508 50.8975 358.296 43.3298C368.084 35.7621 379.824 31.1385 392.144 30C358.296 53.0518 357.393 77.2982 358.296 89.3991C359.198 101.5 364.414 112.875 372.994 121.456C381.575 130.036 392.95 135.252 405.051 136.154C417.152 137.057 437.27 134.704 463 100.856Z" fill="#423629"/>
<g clip-path="url(#clip0_2_34)">
<g filter="url(#filter0_d_2_34)">
<path d="M415.797 71.3519L414.121 85.089L424.482 94.2701L410.901 96.9142L405.384 109.605L398.666 97.502L384.888 96.178L394.318 86.0512L391.318 72.5443L403.873 78.3757L415.797 71.3519Z" fill="#F5DF46"/>
</g>
</g>
<defs>
<filter id="filter0_d_2_34" x="384.888" y="71.3519" width="42.5939" height="41.2526" filterUnits="userSpaceOnUse" color-interpolation-filters="sRGB">
<feFlood flood-opacity="0" result="BackgroundImageFix"/>
<feColorMatrix in="SourceAlpha" type="matrix" values="0 0 0 0 0 0 0 0 0 0 0 0 0 0 0 0 0 0 127 0" result="hardAlpha"/>
<feOffset dx="3" dy="3"/>
<feComposite in2="hardAlpha" operator="out"/>
<feColorMatrix type="matrix" values="0 0 0 0 0.490196 0 0 0 0 0.494118 0 0 0 0 0.458824 0 0 0 1 0"/>
<feBlend mode="normal" in2="BackgroundImageFix" result="effect1_dropShadow_2_34"/>
<feBlend mode="normal" in="SourceGraphic" in2="effect1_dropShadow_2_34" result="shape"/>
</filter>
<clipPath id="clip0_2_34">
<rect width="47.5764" height="47.5764" fill="white" transform="translate(398.071 55) rotate(33.2286)"/>
</clipPath>
</defs>
</svg>
