<?xml version="1.0" encoding="UTF-8" standalone="no"?>
<!DOCTYPE svg PUBLIC "-//W3C//DTD SVG 1.1//EN" "http://www.w3.org/Graphics/SVG/1.1/DTD/svg11.dtd">
<svg width="100%" height="100%" viewBox="0 0 255 255" version="1.1" xmlns="http://www.w3.org/2000/svg" xmlns:xlink="http://www.w3.org/1999/xlink" xml:space="preserve" xmlns:serif="http://www.serif.com/" style="fill-rule:evenodd;clip-rule:evenodd;stroke-linejoin:round;stroke-miterlimit:2;">
    <rect id="Artboard1" x="0" y="0" width="255" height="255" style="fill:none;"/>
    <clipPath id="_clip1">
        <rect id="Artboard11" serif:id="Artboard1" x="0" y="0" width="255" height="255"/>
    </clipPath>
    <g clip-path="url(#_clip1)">
        <g id="Lemoji-Base" serif:id="Lemoji Base" transform="matrix(1.01211,-5.55112e-17,0,1,-0.387762,8.03801e-14)">
            <rect x="35.936" y="-0" width="170.214" height="255" style="fill:rgb(125,106,90);fill-opacity:0;"/>
            <clipPath id="_clip2">
                <rect x="35.936" y="-0" width="170.214" height="255"/>
            </clipPath>
            <g clip-path="url(#_clip2)">
                <g id="Source" transform="matrix(0.670026,-0.518942,0.493671,0.655501,-22.1244,109.602)">
                    <g id="Back-leaf" serif:id="Back leaf" transform="matrix(1.12567,6.30636,-6.42053,1.1515,220.143,-2.15814)">
                        <path d="M11.405,3.339C17.885,2.064 19.858,4.604 23.06,3.423C26.262,2.242 23.153,6.243 22.315,6.931C21.475,7.619 14.174,11.74 11.008,10.229C7.842,8.718 7.826,4.043 11.405,3.339Z" style="fill:rgb(92,145,59);fill-rule:nonzero;"/>
                    </g>
                    <g id="Stem" transform="matrix(1.23169,6.28526,-6.39994,1.26745,217.08,-5.05983)">
                        <path d="M15.001,16C14.697,16 14.396,15.862 14.2,15.6C13.513,14.684 12.892,13.645 12.235,12.544C9.967,8.749 7.396,4.446 0.783,2.976C0.244,2.856 -0.096,2.322 0.024,1.783C0.144,1.243 0.678,0.905 1.217,1.024C8.671,2.68 11.599,7.581 13.952,11.519C14.582,12.573 15.176,13.568 15.8,14.4C16.132,14.842 16.042,15.469 15.6,15.8C15.42,15.935 15.21,16 15.001,16Z" style="fill:rgb(119,178,85);fill-rule:nonzero;"/>
                    </g>
                    <g id="Base">
                        <g id="Shape" transform="matrix(0.931358,0.737331,-0.70992,0.963526,99.025,-88.8077)">
                            <path d="M127.599,254.999C121.119,255.06 119.762,246.42 108.518,241.68C74.029,227.142 49.785,192.95 49.785,153.13C49.785,110.611 77.427,74.509 115.669,61.899L115.67,61.898C121.168,59.794 121.751,51.176 127.635,51.26L127.635,51.261C133.483,51.214 134.076,59.799 139.561,61.898L139.562,61.899C177.805,74.509 205.446,110.611 205.446,153.13C205.446,192.951 181.202,227.142 146.714,241.68C135.449,246.429 134.107,255.091 127.599,254.999Z" style="fill:rgb(255,204,77);"/>
                            <clipPath id="_clip3">
                                <path d="M127.599,254.999C121.119,255.06 119.762,246.42 108.518,241.68C74.029,227.142 49.785,192.95 49.785,153.13C49.785,110.611 77.427,74.509 115.669,61.899L115.67,61.898C121.168,59.794 121.751,51.176 127.635,51.26L127.635,51.261C133.483,51.214 134.076,59.799 139.561,61.898L139.562,61.899C177.805,74.509 205.446,110.611 205.446,153.13C205.446,192.951 181.202,227.142 146.714,241.68C135.449,246.429 134.107,255.091 127.599,254.999Z"/>
                            </clipPath>
                            <g clip-path="url(#_clip3)">
                                <g id="Beard" transform="matrix(1.04411,-1.11022e-16,1.11022e-16,1.04616,-5.52752,-7.10573)">
                                    <path d="M52.939,153.166C52.941,153.165 58.372,152.874 60.572,153.8C61.484,154.183 67.393,158.016 68.793,158.005C73.377,157.967 81.826,159.274 93.02,158.348C99.321,157.826 106.22,153.466 109.383,152.221C115.272,149.903 127.5,150.177 127.5,150.177C127.5,150.177 139.342,149.907 145.071,152.225C148.148,153.469 155.294,157.629 161.559,158.148C172.688,159.071 180.677,157.961 185.259,157.998C186.659,158.009 192.835,154.174 193.773,153.79C196.032,152.866 202.03,153.116 202.061,153.117L210.061,153.117C212.945,196.146 177.759,240.107 138.95,250.375C133.694,252.393 133.132,260.621 127.5,260.54C121.868,260.621 121.306,252.393 116.05,250.375C78.428,240.167 42.812,197.77 44.939,153.166L52.939,153.166Z" style="fill:rgb(125,106,90);"/>
                                </g>
                            </g>
                        </g>
                        <g id="Top-visual-correction" serif:id="Top visual correction">
                            <g id="Left" transform="matrix(-0.263185,-1.00003,-0.930706,0.263185,280.108,221.754)">
                                <g id="Top" transform="matrix(0.972438,0.769853,-0.74269,1.008,99.001,-99.6669)">
                                    <path d="M127.418,55.79C133.541,55.811 136.582,63.016 155.722,73.419C167.788,79.977 127.418,87.108 127.418,87.108L127.418,55.79Z" style="fill:rgb(255,204,77);"/>
                                </g>
                                <g id="Bottom" transform="matrix(0.972438,0.769853,-0.74269,1.008,98.9214,-99.7299)">
                                    <path d="M138.529,62.098C142.509,65.412 160.293,72.279 177.205,90.382C189.288,103.316 140.334,99.397 140.334,99.397L130.166,63.142C130.166,63.142 134.377,58.641 138.529,62.098Z" style="fill:rgb(255,204,77);"/>
                                </g>
                            </g>
                            <g id="Right">
                                <g id="Top1" serif:id="Top" transform="matrix(0.972438,0.769853,-0.74269,1.008,99.001,-99.6669)">
                                    <path d="M127.418,55.79C133.541,55.811 136.582,63.016 155.722,73.419C167.788,79.977 127.418,87.108 127.418,87.108L127.418,55.79Z" style="fill:rgb(255,204,77);"/>
                                </g>
                                <g id="Bottom1" serif:id="Bottom" transform="matrix(0.972438,0.769853,-0.74269,1.008,98.9214,-99.7299)">
                                    <path d="M138.529,62.098C142.509,65.412 160.293,72.279 177.205,90.382C189.288,103.316 140.334,99.397 140.334,99.397L130.166,63.142C130.166,63.142 134.377,58.641 138.529,62.098Z" style="fill:rgb(255,204,77);"/>
                                </g>
                            </g>
                        </g>
                    </g>
                    <g transform="matrix(1.13833,6.30395,-6.41818,1.16534,221.153,-3.96215)">
                        <g id="Front-leaf" serif:id="Front leaf">
                            <path d="M8.208,6.583C8.208,6.583 3.938,5.993 1.351,11.182C-1.236,16.37 1.933,20.307 1.641,23.835C1.348,27.365 3.207,25.1 4.262,23.39C5.317,21.68 8.492,18.495 9.2,14.121C9.907,9.745 9.13,7.663 8.208,6.583Z" style="fill:rgb(119,178,85);fill-rule:nonzero;"/>
                        </g>
                    </g>
                </g>
            </g>
        </g>
    </g>
</svg>
