<?xml version="1.0" encoding="UTF-8" standalone="no"?>
<!-- Generator: Adobe Illustrator 23.0.2, SVG Export Plug-In . SVG Version: 6.00 Build 0)  -->

<svg
   xmlns:dc="http://purl.org/dc/elements/1.1/"
   xmlns:cc="http://creativecommons.org/ns#"
   xmlns:rdf="http://www.w3.org/1999/02/22-rdf-syntax-ns#"
   xmlns:svg="http://www.w3.org/2000/svg"
   xmlns="http://www.w3.org/2000/svg"
   xmlns:sodipodi="http://sodipodi.sourceforge.net/DTD/sodipodi-0.dtd"
   xmlns:inkscape="http://www.inkscape.org/namespaces/inkscape"
   version="1.1"
   id="svg6016"
   x="0px"
   y="0px"
   viewBox="0 0 438 438"
   style="enable-background:new 0 0 438 438;"
   xml:space="preserve"
   sodipodi:docname="logo_pride.svg"
   inkscape:version="0.92.4 (5da689c313, 2019-01-14)"
   inkscape:export-filename="C:\Users\Vincent\Desktop\Games\bitmap.png"
   inkscape:export-xdpi="96.064514"
   inkscape:export-ydpi="96.064514"><metadata
   id="metadata51"><rdf:RDF><cc:Work
       rdf:about=""><dc:format>image/svg+xml</dc:format><dc:type
         rdf:resource="http://purl.org/dc/dcmitype/StillImage" /><dc:title></dc:title></cc:Work></rdf:RDF></metadata><defs
   id="defs49"><clipPath
     clipPathUnits="userSpaceOnUse"
     id="clipPath182"><rect
       style="opacity:0.6;fill:#9db3ff;fill-opacity:1;stroke:none;stroke-opacity:1"
       id="rect184"
       width="437.99448"
       height="437.99792"
       x="8.3446503e-07"
       y="2.1308661e-06" /></clipPath></defs>
<style
   type="text/css"
   id="style41">
	.st0{fill:none;stroke:#7289DA;stroke-miterlimit:10;}
	.st1{fill:#231F20;fill-opacity:0.6;}
	.st2{fill:#CAD6FF;}
	.st3{fill:#FFFFFF;}
</style>
<sodipodi:namedview
   bordercolor="#666666"
   borderopacity="1"
   gridtolerance="10"
   guidetolerance="10"
   id="namedview6018"
   inkscape:current-layer="layer4"
   inkscape:cx="162.54598"
   inkscape:cy="227.01383"
   inkscape:pageopacity="0"
   inkscape:pageshadow="2"
   inkscape:window-height="1017"
   inkscape:window-maximized="1"
   inkscape:window-width="1920"
   inkscape:window-x="1912"
   inkscape:window-y="554"
   inkscape:zoom="1.4142136"
   objecttolerance="10"
   pagecolor="#ffffff"
   showgrid="false"
   showguides="true"
   inkscape:guide-bbox="true"
   inkscape:snap-page="false">
	</sodipodi:namedview>




<a
   id="a929" /><g
   inkscape:groupmode="layer"
   id="layer3"
   inkscape:label="Layer 1"
   style="display:inline;opacity:1" /><g
   inkscape:groupmode="layer"
   id="layer4"
   inkscape:label="Layer 2"
   style="display:inline"><g
     id="g175"
     clip-path="url(#clipPath182)"><rect
       style="fill:none;stroke:#7289da;stroke-width:1.20407522;stroke-miterlimit:10"
       y="-36.127357"
       x="-52.986782"
       height="527.38495"
       width="527.38495"
       class="st0"
       inkscape:label="background"
       id="rect6008">
</rect><rect
       transform="matrix(0.70633033,0.70788238,0.70788238,-0.70633033,0,0)"
       ry="0"
       y="-275.28479"
       x="220.80595"
       height="527.38495"
       width="87.897499"
       id="rect53"
       style="display:inline;opacity:1;fill:#ffdb00;fill-opacity:1;stroke:none;stroke-width:0.93599409;stroke-opacity:1" /><rect
       transform="matrix(0.70633033,0.70788238,0.70788238,-0.70633033,0,0)"
       ry="0"
       y="-275.28479"
       x="45.010986"
       height="527.38495"
       width="87.897499"
       id="rect53-9"
       style="display:inline;opacity:1;fill:#e84750;fill-opacity:1;stroke:none;stroke-width:0.93599409;stroke-opacity:1" /><rect
       transform="matrix(0.70633033,0.70788238,0.70788238,-0.70633033,0,0)"
       style="display:inline;opacity:1;fill:#854794;fill-opacity:1;stroke:none;stroke-width:0.93599409;stroke-opacity:1"
       id="rect53-2"
       width="87.897499"
       height="527.38495"
       x="484.49841"
       y="-275.28479"
       ry="0" /><rect
       transform="matrix(0.70633033,0.70788238,0.70788238,-0.70633033,0,0)"
       ry="0"
       y="-275.28479"
       x="132.90846"
       height="527.38495"
       width="87.897499"
       id="rect53-7"
       style="display:inline;opacity:1;fill:#f5a336;fill-opacity:1;stroke:none;stroke-width:0.93599409;stroke-opacity:1" /><rect
       transform="matrix(0.70633033,0.70788238,0.70788238,-0.70633033,0,0)"
       ry="0"
       y="-275.28479"
       x="396.60092"
       height="527.38495"
       width="87.897499"
       id="rect53-73"
       style="display:inline;opacity:1;fill:#00a8de;fill-opacity:1;stroke:none;stroke-width:0.93599409;stroke-opacity:1" /><rect
       transform="matrix(0.70633033,0.70788238,0.70788238,-0.70633033,0,0)"
       ry="0"
       y="-275.28479"
       x="308.7034"
       height="527.38495"
       width="87.897499"
       id="rect53-20"
       style="display:inline;opacity:1;fill:#54ae37;fill-opacity:1;stroke:none;stroke-width:0.93599409;stroke-opacity:1" /><rect
       style="display:inline;opacity:1;fill:#ffdb00;fill-opacity:1;stroke:none;stroke-width:0.93599409;stroke-opacity:1"
       id="rect4646"
       width="87.897499"
       height="527.38495"
       x="220.80595"
       y="-275.28479"
       ry="0"
       transform="matrix(0.70633033,0.70788238,0.70788238,-0.70633033,0,0)" /><rect
       style="display:inline;opacity:1;fill:#e84750;fill-opacity:1;stroke:none;stroke-width:0.93599409;stroke-opacity:1"
       id="rect4648"
       width="87.897499"
       height="527.38495"
       x="45.010986"
       y="-275.28479"
       ry="0"
       transform="matrix(0.70633033,0.70788238,0.70788238,-0.70633033,0,0)" /><rect
       ry="0"
       y="-275.28479"
       x="484.49841"
       height="527.38495"
       width="87.897499"
       id="rect4650"
       style="display:inline;opacity:1;fill:#854794;fill-opacity:1;stroke:none;stroke-width:0.93599409;stroke-opacity:1"
       transform="matrix(0.70633033,0.70788238,0.70788238,-0.70633033,0,0)" /><rect
       style="display:inline;opacity:1;fill:#f5a336;fill-opacity:1;stroke:none;stroke-width:0.93599409;stroke-opacity:1"
       id="rect4652"
       width="87.897499"
       height="527.38495"
       x="132.90846"
       y="-275.28479"
       ry="0"
       transform="matrix(0.70633033,0.70788238,0.70788238,-0.70633033,0,0)" /><rect
       style="display:inline;opacity:1;fill:#00a8de;fill-opacity:1;stroke:none;stroke-width:0.93599409;stroke-opacity:1"
       id="rect4654"
       width="87.897499"
       height="527.38495"
       x="396.60092"
       y="-275.28479"
       ry="0"
       transform="matrix(0.70633033,0.70788238,0.70788238,-0.70633033,0,0)" /><rect
       style="display:inline;opacity:1;fill:#54ae37;fill-opacity:1;stroke:none;stroke-width:0.93599409;stroke-opacity:1"
       id="rect4656"
       width="87.897499"
       height="527.38495"
       x="308.7034"
       y="-275.28479"
       ry="0"
       transform="matrix(0.70633033,0.70788238,0.70788238,-0.70633033,0,0)" /><rect
       transform="rotate(-45.06288)"
       ry="0"
       y="1.0361731"
       x="-56.12215"
       height="527.38495"
       width="87.897499"
       id="rect4658"
       style="display:inline;opacity:1;fill:#ffdb00;fill-opacity:1;stroke:none;stroke-width:0.93599409;stroke-opacity:1" /><rect
       transform="matrix(0.70633033,0.70788238,0.70788238,-0.70633033,0,0)"
       ry="0"
       y="-275.28479"
       x="45.011005"
       height="527.38495"
       width="87.897499"
       id="rect4660"
       style="display:inline;opacity:1;fill:#e84750;fill-opacity:1;stroke:none;stroke-width:0.93599409;stroke-opacity:1" /><rect
       transform="matrix(0.70633033,0.70788238,0.70788238,-0.70633033,0,0)"
       style="display:inline;opacity:1;fill:#854794;fill-opacity:1;stroke:none;stroke-width:0.93599409;stroke-opacity:1"
       id="rect4662"
       width="87.897499"
       height="527.38495"
       x="484.49841"
       y="-275.28479"
       ry="0" /><rect
       transform="matrix(0.70633033,0.70788238,0.70788238,-0.70633033,0,0)"
       ry="0"
       y="-275.28479"
       x="132.90848"
       height="527.38495"
       width="87.897499"
       id="rect4664"
       style="display:inline;opacity:1;fill:#f5a336;fill-opacity:1;stroke:none;stroke-width:0.93599409;stroke-opacity:1" /><rect
       transform="matrix(0.70633033,0.70788238,0.70788238,-0.70633033,0,0)"
       ry="0"
       y="-275.28479"
       x="396.60092"
       height="527.38495"
       width="87.897499"
       id="rect4666"
       style="display:inline;opacity:1;fill:#00a8de;fill-opacity:1;stroke:none;stroke-width:0.93599409;stroke-opacity:1" /><rect
       transform="matrix(0.70633033,0.70788238,0.70788238,-0.70633033,0,0)"
       ry="0"
       y="-275.28479"
       x="308.7034"
       height="527.38495"
       width="87.897499"
       id="rect4668"
       style="display:inline;opacity:1;fill:#54ae37;fill-opacity:1;stroke:none;stroke-width:0.93599409;stroke-opacity:1" /><rect
       transform="matrix(0.70633033,0.70788238,0.70788238,-0.70633033,0,0)"
       ry="0"
       y="239.45735"
       x="220.81982"
       height="527.38495"
       width="87.897499"
       id="rect4658-0"
       style="display:inline;opacity:1;fill:#ffdb00;fill-opacity:1;stroke:none;stroke-width:0.93599409;stroke-opacity:1" /><rect
       transform="matrix(0.70633033,0.70788238,0.70788238,-0.70633033,0,0)"
       ry="0"
       y="239.45735"
       x="308.71735"
       height="527.38495"
       width="87.897499"
       id="rect4668-7"
       style="display:inline;opacity:1;fill:#54ae37;fill-opacity:1;stroke:none;stroke-width:0.93599409;stroke-opacity:1" /><rect
       transform="matrix(0.70633033,0.70788238,0.70788238,-0.70633033,0,0)"
       ry="0"
       y="239.45735"
       x="396.61481"
       height="527.38495"
       width="87.897499"
       id="rect4666-5"
       style="display:inline;opacity:1;fill:#00a8de;fill-opacity:1;stroke:none;stroke-width:0.93599409;stroke-opacity:1" /><rect
       transform="matrix(0.70633033,0.70788238,0.70788238,-0.70633033,0,0)"
       style="display:inline;opacity:1;fill:#854794;fill-opacity:1;stroke:none;stroke-width:0.93599409;stroke-opacity:1"
       id="rect4662-6"
       width="87.897499"
       height="527.38495"
       x="572.26422"
       y="-275.26611"
       ry="0" /><rect
       transform="matrix(0.70633033,0.70788238,0.70788238,-0.70633033,0,0)"
       style="display:inline;opacity:1;fill:#854794;fill-opacity:1;stroke:none;stroke-width:0.93599409;stroke-opacity:1"
       id="rect4662-1"
       width="87.897499"
       height="527.38495"
       x="655.04407"
       y="-274.9707"
       ry="0" /><rect
       transform="matrix(0.70633033,0.70788238,0.70788238,-0.70633033,0,0)"
       ry="0"
       y="239.45735"
       x="132.92233"
       height="527.38495"
       width="87.897499"
       id="rect4664-7"
       style="display:inline;opacity:1;fill:#f5a336;fill-opacity:1;stroke:none;stroke-width:0.93599409;stroke-opacity:1" /><rect
       transform="matrix(0.70633033,0.70788238,0.70788238,-0.70633033,0,0)"
       ry="0"
       y="-274.97748"
       x="-37.167469"
       height="527.38495"
       width="87.897499"
       id="rect4660-0"
       style="display:inline;opacity:1;fill:#e84750;fill-opacity:1;stroke:none;stroke-width:0.93599409;stroke-opacity:1" /><rect
       transform="matrix(0.70633033,0.70788238,0.70788238,-0.70633033,0,0)"
       ry="0"
       y="-274.81458"
       x="-113.77694"
       height="527.38495"
       width="87.897499"
       id="rect4660-4"
       style="display:inline;opacity:1;fill:#e84750;fill-opacity:1;stroke:none;stroke-width:0.93599409;stroke-opacity:1" /><rect
       transform="matrix(0.70633033,0.70788238,0.70788238,-0.70633033,0,0)"
       ry="0"
       y="-649.33105"
       x="132.90811"
       height="527.38495"
       width="87.897499"
       id="rect4664-9"
       style="display:inline;opacity:1;fill:#f5a336;fill-opacity:1;stroke:none;stroke-width:0.93599409;stroke-opacity:1" /><rect
       transform="matrix(0.70633033,0.70788238,0.70788238,-0.70633033,0,0)"
       ry="0"
       y="-649.33105"
       x="220.80562"
       height="527.38495"
       width="87.897499"
       id="rect4658-9"
       style="display:inline;opacity:1;fill:#ffdb00;fill-opacity:1;stroke:none;stroke-width:0.93599409;stroke-opacity:1" /><rect
       transform="matrix(0.70633033,0.70788238,0.70788238,-0.70633033,0,0)"
       ry="0"
       y="-649.33105"
       x="308.70312"
       height="527.38495"
       width="87.897499"
       id="rect4668-3"
       style="display:inline;opacity:1;fill:#54ae37;fill-opacity:1;stroke:none;stroke-width:0.93599409;stroke-opacity:1" /><rect
       transform="matrix(0.70633033,0.70788238,0.70788238,-0.70633033,0,0)"
       ry="0"
       y="-649.33105"
       x="396.60059"
       height="527.38495"
       width="87.897499"
       id="rect4666-8"
       style="display:inline;opacity:1;fill:#00a8de;fill-opacity:1;stroke:none;stroke-width:0.93599409;stroke-opacity:1" /><path
       inkscape:export-ydpi="96.064514"
       inkscape:export-xdpi="96.064514"
       inkscape:export-filename="C:\Users\Vincent\Desktop\Games\bitmap.png"
       inkscape:connector-curvature="0"
       d="m 283.1,68 -11.5,3.3 c -12.2,-1.8 -24.8,-2.6 -36.9,-2.5 -13.5,0.1 -26.5,1.2 -37.9,3.2 -3.7,0.7 -7,1.4 -10.1,2.2 H 150.8 V 93 h 4.5 v 7.7 h 2.8 c -0.6,3.7 -0.9,7.8 -0.9,12.3 v 4 h -15.4 l -2.2,11 17.6,15 v 0.1 h 79.2 v 10 H 127.5 c -23,0 -43.2,13.8 -49.5,40 -7.3,30 -7.6,48.8 0,80.2 0.5,2.1 1.1,4.1 1.7,6.1 l -1.2,10.4 13.3,11.5 c 7,7.5 16.4,12 28.3,12 h 27.2 v -36 c 0,-26 22.6,-49 49.5,-49 H 276 c 22,0 39.6,-18.1 39.6,-40.1 V 113 c 0,-12.9 -6.6,-23.8 -16.5,-31.3 z m 76.8,77.6 -14.3,7.4 h -20.1 v 35.1 c 0,27.2 -23.1,50 -49.5,50 h -79.1 c -21.7,0 -39.6,18.5 -39.6,40.1 v 75.1 c 0,21.4 18.7,34 39.6,40.1 25.1,7.3 49.1,8.7 79.1,0 19.9,-5.7 39.6,-17.3 39.6,-40.1 v -30.1 h -0.1 l -11.7,-10 h 51.4 c 23,0 31.6,-16 39.6,-40 8.3,-24.7 7.9,-48.5 0,-80.2 -3.6,-14.5 -9.4,-26.7 -18.9,-33.7 z M 236.5,313.2 H 294 v 10 h -57.5 z"
       class="st1"
       inkscape:label="shadow"
       id="path6010"
       style="opacity:0.6;fill:#231f20;fill-opacity:0.6" /><path
       inkscape:connector-curvature="0"
       d="m 217,53.7 c -13.5,0.1 -26.5,1.2 -37.9,3.2 -33.5,5.9 -39.6,18.2 -39.6,41 V 128 h 79.2 v 10 H 109.8 c -23,0 -43.2,13.8 -49.5,40 -7.3,30 -7.6,48.8 0,80.2 5.6,23.4 19.1,40 42.1,40 h 27.2 v -36 c 0,-26 22.6,-49 49.5,-49 h 79.1 c 22,0 39.6,-18.1 39.6,-40.1 V 97.9 c 0,-21.4 -18.1,-37.4 -39.6,-41 -13.5,-2.3 -27.6,-3.3 -41.2,-3.2 z m -42.8,24.2 c 8.2,0 14.9,6.8 14.9,15.1 0,8.3 -6.7,15 -14.9,15 -8.2,0 -14.9,-6.7 -14.9,-15 0,-8.4 6.7,-15.1 14.9,-15.1 z"
       class="st2"
       inkscape:label="upper_snake"
       id="path6012"
       style="fill:#cad6ff" /><path
       inkscape:connector-curvature="0"
       d="m 307.8,138 v 35 c 0,27.2 -23.1,50 -49.5,50 h -79.1 c -21.7,0 -39.6,18.5 -39.6,40.1 v 75.1 c 0,21.4 18.7,34 39.6,40.1 25.1,7.3 49.1,8.7 79.1,0 19.9,-5.7 39.6,-17.3 39.6,-40.1 v -30.1 h -79.1 v -10 h 118.7 c 23,0 31.6,-16 39.6,-40 8.3,-24.7 7.9,-48.5 0,-80.2 -5.7,-22.8 -16.6,-40 -39.6,-40 z m -44.5,190.2 c 8.2,0 14.9,6.7 14.9,15 0,8.3 -6.7,15.1 -14.9,15.1 -8.2,0 -14.9,-6.8 -14.9,-15.1 0,-8.3 6.7,-15 14.9,-15 z"
       class="st3"
       inkscape:label="lower_snake"
       id="path6014"
       style="fill:#ffffff" /></g></g></svg>