<?xml version="1.0" encoding="UTF-8" standalone="no"?>
<!-- Created with Inkscape (http://www.inkscape.org/) -->

<svg
   width="508mm"
   height="285.75mm"
   viewBox="0 0 508 285.75"
   version="1.1"
   id="svg1141"
   inkscape:version="1.1.1 (3bf5ae0d25, 2021-09-20)"
   sodipodi:docname="banner.svg"
   xmlns:inkscape="http://www.inkscape.org/namespaces/inkscape"
   xmlns:sodipodi="http://sodipodi.sourceforge.net/DTD/sodipodi-0.dtd"
   xmlns="http://www.w3.org/2000/svg"
   xmlns:svg="http://www.w3.org/2000/svg">
  <sodipodi:namedview
     id="namedview1143"
     pagecolor="#ffffff"
     bordercolor="#666666"
     borderopacity="1.0"
     inkscape:pageshadow="2"
     inkscape:pageopacity="0.0"
     inkscape:pagecheckerboard="0"
     inkscape:document-units="mm"
     showgrid="false"
     inkscape:zoom="0.64052329"
     inkscape:cx="960.15244"
     inkscape:cy="539.40271"
     inkscape:window-width="1920"
     inkscape:window-height="1051"
     inkscape:window-x="-9"
     inkscape:window-y="-9"
     inkscape:window-maximized="1"
     inkscape:current-layer="layer1" />
  <defs
     id="defs1138">
    <rect
       x="1602"
       y="-684"
       width="436"
       height="280"
       id="rect11773" />
  </defs>
  <g
     inkscape:label="Layer 1"
     inkscape:groupmode="layer"
     id="layer1"
     transform="translate(149.07927,-5.6249976)">
    <rect
       style="fill:#323232;fill-opacity:1;stroke-width:0.209709"
       id="rect155017"
       width="508"
       height="285.75"
       x="-149.07927"
       y="5.6249976"
       inkscape:export-filename="D:\Design\Projects\banner.png"
       inkscape:export-xdpi="96"
       inkscape:export-ydpi="96" />
    <path
       inkscape:label="shadow"
       inkscape:connector-curvature="0"
       style="display:inline;fill:#000000;fill-opacity:0.205543;stroke-width:0.30249"
       d="m -29.517421,138.71982 -3.480393,1.00081 c -3.697296,-0.54603 -7.48878,-0.78558 -11.16017,-0.75858 -4.083585,0.0302 -8.015462,0.36275 -11.463835,0.96773 -1.119143,0.19709 -2.131743,0.41923 -3.057374,0.66523 h -10.857098 v 5.68702 h 1.361202 v 2.32892 h 0.841886 c -0.1934,1.12351 -0.267626,2.35931 -0.267626,3.72085 v 1.20996 h -4.657858 l -0.665821,3.32736 5.323679,4.54146 v 0.026 h 23.957436 v 3.02489 H -67.600829 -76.5845 c -6.957241,0 -13.067504,4.17434 -14.97318,12.09954 -2.208163,9.07464 -2.29891,14.76179 0,24.25992 0.150435,0.62862 0.320798,1.23974 0.509269,1.83384 l -0.358027,3.15723 4.036926,3.49339 c 2.127085,2.27179 4.952064,3.61509 8.546478,3.61509 H -70.595 V 202.0309 c 0,-7.8647 6.836241,-14.82193 14.973181,-14.82193 h 23.956849 c 6.654739,0 11.978417,-5.47552 11.978417,-12.13026 v -22.7469 c 0,-3.90199 -1.990949,-7.20865 -4.995785,-9.45985 z m 23.2313476,23.47298 -4.3258236,2.23853 h -6.0799 v 0.0302 3.11586 7.47123 c 0,8.22769 -6.987485,15.12442 -14.973173,15.12442 h -23.926716 c -6.564,0 -11.978425,5.59592 -11.978425,12.12967 v 22.71735 c 0,6.47326 5.656416,10.28449 11.978425,12.12967 7.592455,2.20816 14.852063,2.63165 23.926716,0 6.019517,-1.72419 11.978417,-5.23293 11.978417,-12.12967 v -8.43955 -0.6351 -0.0307 h -0.03603 l -3.545377,-3.0249 h 3.581416 11.9784231 c 6.95723198,0 9.5591127,-4.83981 11.9790131,-12.09953 2.510655,-7.47147 2.3896637,-14.67045 0,-24.25934 -1.095801,-4.38321 -2.8290256,-8.07961 -5.7313248,-10.19362 z M -43.61326,212.88975 h 17.393079 v 3.02487 H -43.61326 Z"
       id="path155014"
       inkscape:export-filename="D:\Design\Projects\banner.png"
       inkscape:export-xdpi="96"
       inkscape:export-ydpi="96" />
    <path
       inkscape:label="upper_snake"
       inkscape:connector-curvature="0"
       id="path155011"
       class="st2"
       d="m -49.511786,134.39422 c -4.083595,0.0303 -8.015946,0.36298 -11.464313,0.96796 -10.133362,1.78469 -11.978542,5.5053 -11.978542,12.40203 v 9.1049 h 23.957078 v 3.02489 h -23.957078 -8.983909 c -6.957232,0 -13.067495,4.17433 -14.973171,12.09953 -2.208171,9.07465 -2.29891,14.76144 0,24.25957 1.69393,7.07823 5.777525,12.09954 12.734757,12.09954 h 8.227686 v -10.88958 c 0,-7.8647 6.836241,-14.82194 14.973179,-14.82194 h 23.926837 c 6.654739,0 11.978537,-5.47504 11.978537,-12.12978 v -22.74713 c 0,-6.47325 -5.475042,-11.31307 -11.978537,-12.40203 -4.083595,-0.69571 -8.348684,-0.99821 -12.462524,-0.96796 z m -12.946504,7.32023 c 2.480403,0 4.507071,2.05691 4.507071,4.56757 0,2.51065 -2.026668,4.53732 -4.507071,4.53732 -2.480405,0 -4.507079,-2.02667 -4.507079,-4.53732 0,-2.54091 2.026674,-4.56757 4.507079,-4.56757 z"
       style="display:inline;fill:#ff6703;fill-opacity:1;stroke-width:0.30249"
       inkscape:export-filename="D:\Design\Projects\banner.png"
       inkscape:export-xdpi="96"
       inkscape:export-ydpi="96" />
    <path
       inkscape:label="lower_snake"
       inkscape:connector-curvature="0"
       id="path155008"
       class="st3"
       d="m -22.045837,159.894 v 10.58709 c 0,8.22769 -6.987484,15.12442 -14.973181,15.12442 h -23.926837 c -6.56399,0 -11.978534,5.59603 -11.978534,12.12979 v 22.71688 c 0,6.47325 5.656535,10.2846 11.978534,12.12978 7.592465,2.20817 14.85219,2.63165 23.926837,0 6.019525,-1.72419 11.978545,-5.23305 11.978545,-12.12978 v -9.1049 H -48.96731 v -3.02489 h 23.926837 11.978534 c 6.9572401,0 9.5586366,-4.83982 11.9785449,-12.09953 2.5106551,-7.47147 2.3896558,-14.67069 0,-24.25958 -1.7241811,-6.89673 -5.0213048,-12.09953 -11.9785449,-12.09953 h -8.983898 z m -13.460738,57.53329 c 2.480405,0 4.507082,2.02668 4.507082,4.53733 0,2.51065 -2.026677,4.56758 -4.507082,4.56758 -2.480402,0 -4.507079,-2.05693 -4.507079,-4.56758 0,-2.51065 2.026677,-4.53733 4.507079,-4.53733 z"
       style="display:inline;fill:#ffa603;fill-opacity:1;stroke-width:0.30249"
       inkscape:export-filename="D:\Design\Projects\banner.png"
       inkscape:export-xdpi="96"
       inkscape:export-ydpi="96" />
    <text
       xml:space="preserve"
       transform="matrix(1.6114363,0,0,1.6114363,-2545.3413,1280.8692)"
       id="text11771"
       style="font-style:normal;font-variant:normal;font-weight:normal;font-stretch:normal;font-size:40px;line-height:1.25;font-family:'CF Halloween';-inkscape-font-specification:'CF Halloween, Normal';font-variant-ligatures:normal;font-variant-caps:normal;font-variant-numeric:normal;font-variant-east-asian:normal;white-space:pre;shape-inside:url(#rect11773);fill:#ff6703;fill-opacity:1;stroke:none"
       inkscape:export-filename="D:\Design\Projects\banner.png"
       inkscape:export-xdpi="96"
       inkscape:export-ydpi="96"><tspan
         x="1602"
         y="-647"
         id="tspan1316">DISCORD</tspan></text>
    <path
       style="fill:none;stroke:none;stroke-width:0.264583px;stroke-linecap:butt;stroke-linejoin:miter;stroke-opacity:1"
       d="m 86.417608,140.07328 0.19072,-0.51537 2.302708,1.31878 -0.82868,0.93915 z"
       id="path18343"
       inkscape:export-filename="D:\Design\Projects\banner.png"
       inkscape:export-xdpi="96"
       inkscape:export-ydpi="96" />
    <g
       id="g44859"
       transform="translate(-24.868065,338.73541)"
       inkscape:export-filename="D:\Design\Projects\banner.png"
       inkscape:export-xdpi="96"
       inkscape:export-ydpi="96">
      <g
         aria-label="PYTHON"
         transform="matrix(1.6733829,0,0,1.6733829,-2619.2978,912.79289)"
         id="text6010"
         style="font-size:40px;line-height:1.25;font-family:'CF Halloween';-inkscape-font-specification:'CF Halloween, Normal';white-space:pre;shape-inside:url(#rect6012);fill:#ffa603"
         inkscape:export-filename="D:\Design\Projects\python_branding.png"
         inkscape:export-xdpi="96"
         inkscape:export-ydpi="96">
        <path
           d="m 1627.08,-664.84 q 0,0.32 0,0.72 0,0.4 -0.24,0.96 -0.28,0.64 -0.48,1.16 -0.16,0.48 -0.4,0.96 -0.2,0.48 -0.52,1.08 -0.32,0.56 -0.88,1.32 -0.44,0.64 -1.04,1 -0.6,0.32 -1.08,0.88 -0.16,0.2 -0.16,0.48 0,0.24 -0.08,0.52 -0.08,0.16 -0.2,0.36 -0.12,0.2 -0.2,0.44 -0.08,0.28 -0.04,0.8 0.08,0.52 -0.24,0.92 -0.08,0.08 -0.32,0.16 -0.24,0.04 -0.4,0.04 -0.24,-0.08 -0.32,-0.36 0,-0.04 0,-0.24 0,-0.24 -0.04,-0.48 -0.04,-0.28 -0.16,-0.48 -0.12,-0.24 -0.36,-0.24 -0.16,0 -0.28,0.2 -0.12,0.16 -0.24,0.4 -0.08,0.24 -0.16,0.48 -0.04,0.24 -0.04,0.32 -0.04,0.24 -0.08,0.52 -0.04,0.24 -0.12,0.52 l 0.36,2.36 q 0.2,0.32 -0.16,0.72 -0.32,0.36 -0.56,0.36 -0.44,0 -0.64,-0.28 -0.16,-0.28 -0.24,-0.64 -0.04,-0.36 -0.04,-0.68 0.04,-0.36 0.04,-0.48 0,-0.08 -0.04,-0.44 0,-0.4 -0.08,-0.8 -0.08,-0.44 -0.24,-0.76 -0.12,-0.36 -0.36,-0.36 -0.12,0 -0.32,0.08 -0.16,0.08 -0.28,0.08 -0.24,0 -0.4,-0.12 -0.12,-0.16 -0.24,-0.32 -0.12,-0.2 -0.24,-0.4 -0.12,-0.24 -0.36,-0.4 -0.52,0.36 -1.28,0.64 -0.08,0.44 -0.16,0.8 -0.04,0.32 -0.52,0.32 -0.32,0 -0.44,-0.28 -0.12,-0.28 -0.2,-0.6 -0.08,-0.32 -0.2,-0.6 -0.08,-0.28 -0.4,-0.28 h -1.08 v 6.76 q 0,0.16 0.04,0.12 0.04,-0.04 0.08,-0.04 -0.08,0.28 -0.08,0.68 0,0.44 -0.2,0.64 -0.32,0.32 -0.8,0.72 -0.48,0.4 -0.64,0.4 -0.12,0 -0.76,-0.16 -0.64,-0.12 -1.08,-0.2 -0.16,0.08 -0.24,0.32 -0.12,0.44 -0.2,1 -0.04,0.56 -0.04,0.72 l 0.32,3.4 q 0,0.36 -0.12,0.88 -0.08,0.56 -0.68,0.56 -0.32,0 -0.52,-0.16 -0.16,-0.16 -0.24,-0.36 -0.08,-0.2 -0.12,-0.4 0,-0.2 0,-0.28 0,-0.08 0.04,-0.68 0.08,-0.56 0.16,-1.28 0.12,-0.68 0.16,-1.28 0.08,-0.56 0.08,-0.64 0,-0.44 -0.08,-0.76 -0.08,-0.32 -0.56,-0.8 0,-0.16 -0.04,-0.36 0,-0.16 -0.12,-0.32 -0.32,-0.04 -0.68,-0.04 -0.36,0.04 -0.68,0.04 -0.44,-0.72 -0.52,-1.56 -0.04,-0.88 -0.04,-1.64 0,-0.04 0,-0.48 0.04,-0.44 0.04,-0.96 0.04,-0.56 0.08,-1.08 0.04,-0.52 0.08,-0.76 0.04,-0.32 -0.04,-0.76 -0.08,-0.44 -0.08,-0.56 v -8.2 l 0.28,-3.96 v -5.72 q 0,-0.12 0.04,-0.36 0.08,-0.24 0.08,-0.44 0.08,-0.56 -0.04,-1.12 -0.08,-0.6 -0.04,-1.2 0,-0.2 0.16,-0.24 0.16,-0.08 0.32,-0.08 l 12.64,0.04 q 0.44,0.04 1.08,0.16 0.68,0.08 1.24,0.24 0.32,0.08 0.84,0.28 0.56,0.2 1.2,0.48 0.64,0.28 1.28,0.68 0.68,0.36 1.28,0.84 0.2,0.16 0.56,0.4 0.36,0.24 0.68,0.52 0.36,0.32 0.72,0.96 0.36,0.64 0.56,1.16 0.08,0.28 0.16,0.68 0.12,0.4 0.2,0.76 0.16,0.76 0.28,1.52 0.12,0.72 0.12,1.56 z m -7.4,0.08 q 0,-0.32 -0.12,-0.96 -0.08,-0.64 -0.32,-1.24 -0.24,-0.64 -0.64,-1.12 -0.36,-0.52 -0.88,-0.52 -0.28,-0.04 -0.56,-0.16 -0.24,-0.12 -0.44,-0.16 -0.16,0 -0.36,-0.04 -0.2,-0.08 -0.32,-0.08 h -1.84 q -0.16,0 -0.8,-0.08 -0.6,-0.08 -1.04,-0.04 -0.4,0.04 -0.8,0.12 -0.36,0.04 -0.68,0 l -0.32,2.6 v 5.84 h 4.84 q 0.16,0 0.92,-0.32 0.76,-0.32 1.28,-0.64 0.44,-0.32 0.76,-0.76 0.32,-0.44 0.52,-0.76 0.12,-0.2 0.24,-0.32 0.16,-0.16 0.24,-0.36 0.12,-0.24 0.2,-0.56 0.12,-0.32 0.12,-0.44 z"
           id="path1254" />
        <path
           d="m 1637.6399,-655.68 -0.08,0.2 -0.08,-0.04 0.08,-0.2 z m 16.88,-18.32 q -0.44,0.8 -0.8,1.68 -0.36,0.84 -0.84,1.6 -0.72,1.12 -1.56,2.16 -0.84,1 -1.52,2.08 -0.24,0.36 -0.6,1.24 -0.32,0.84 -0.68,1.44 -0.48,0.76 -1.24,1.8 -0.72,1 -1.44,1.92 -0.68,0.92 -1.2,1.6 -0.52,0.64 -0.52,0.68 v 3.96 l 0.12,0.84 v 4.32 l -0.64,3.84 q 0.04,0.52 0.12,1.2 0.08,0.68 0.12,1.28 0.04,0.64 0.08,1.08 0.04,0.48 0.04,0.56 0,0.12 0,0.32 0,0.24 -0.08,0.48 -0.04,0.24 -0.2,0.4 -0.16,0.16 -0.44,0.16 -0.16,0 -0.44,-0.24 -0.28,-0.24 -0.28,-0.44 v -1.52 l 0.2,-2.12 v -1.36 q 0,-0.32 -0.4,-0.76 -0.4,-0.4 -0.72,-0.4 -0.4,0 -0.72,0.2 -0.28,0.24 -0.48,0.56 -0.16,0.36 -0.28,0.72 -0.08,0.4 -0.12,0.68 -0.04,0.32 -0.2,0.68 -0.12,0.4 -0.44,0.6 h -0.4 q -0.16,-0.4 -0.2,-0.76 -0.04,-0.36 -0.12,-0.72 -0.04,-0.36 -0.24,-0.68 -0.16,-0.32 -0.6,-0.6 -0.28,-0.2 -0.4,-0.72 -0.12,-0.48 -0.12,-0.64 v -5.32 l 0.28,-2.08 V -655 q -0.64,0.12 -1.28,0.88 0,-0.08 0,-0.16 0,-0.12 -0.08,-0.24 v 0.04 q 0,0 0.08,0.08 l 0.28,-2.2 q 0,-1.04 -0.48,-2.04 -0.44,-1.04 -1.16,-1.84 -0.72,-0.8 -1.6,-1.28 -0.84,-0.48 -1.64,-0.48 -0.12,0 -0.56,0.04 -0.44,0.04 -0.76,0.16 0,-0.24 0.08,-0.56 0.28,0 0.6,-0.16 0.36,-0.2 0.72,-0.48 0.36,-0.28 0.68,-0.56 0.32,-0.28 0.6,-0.4 -0.28,-0.44 -0.64,-0.88 -0.36,-0.48 -0.64,-0.92 -0.24,-0.4 -0.48,-0.84 -0.2,-0.48 -0.44,-0.88 -0.2,-0.32 -0.6,-0.8 -0.36,-0.52 -0.64,-0.96 -0.32,-0.52 -0.56,-1.08 -0.2,-0.56 -0.52,-1.08 -0.2,-0.32 -0.52,-0.68 -0.32,-0.36 -0.6,-0.8 -0.16,-0.24 -0.28,-0.56 -0.12,-0.36 -0.16,-0.64 0.04,-0.04 0.16,-0.12 0.12,-0.08 0.2,-0.08 0.4,-0.04 0.96,-0.04 0.6,0 0.72,0 l 4.88,0.08 q 0.2,0.08 0.32,0.08 0.16,0 0.36,0.2 0.56,-0.68 0.76,-1.56 0.24,-0.92 0.16,-1.56 0.08,0.12 0.28,0.24 0.2,0.08 0.32,0.28 1.04,1.48 2.32,2.08 1.28,0.6 2.48,0.6 0.6,0 1.24,-0.12 0.68,-0.12 1.28,-0.4 0.64,-0.28 1.12,-0.72 0.52,-0.48 0.76,-1.16 0.12,0.12 0.24,0.24 0.12,0.12 0.2,0.24 -0.2,0.4 -0.36,1.04 -0.16,0.64 -0.16,1.12 0,0.64 0.24,1.28 0.24,0.64 0.44,1.2 l 1.8,-3 h 4.16 q 0.04,0 0.36,0.04 0.36,0.04 0.76,0.12 0.44,0.04 0.84,0.12 0.44,0.04 0.72,0.12 z m -8.96,3.08 q -0.56,-1.04 -0.76,-1.84 -0.16,-0.8 -0.12,-1.56 -0.56,0.76 -1.04,1.68 -0.48,0.88 -0.48,1.68 0,0.56 0.24,1.28 0.24,0.68 0.6,0.88 z m -1.68,-3.32 q -0.88,0.4 -1.64,0.56 -0.72,0.16 -1.48,0.16 -1.16,0 -2.24,-0.4 -1.04,-0.44 -2.24,-1.72 0.2,0.8 0.32,1.64 0.16,0.8 0.48,1.24 0.48,0.72 1.36,1.12 0.88,0.36 1.68,0.36 1.28,0 2.08,-0.64 0.84,-0.64 1.68,-2.32 z m -0.28,6.04 q 0,-0.16 -0.24,-0.48 -0.24,-0.32 -0.32,-0.52 -0.2,-0.48 -0.36,-1 -0.12,-0.56 -0.04,-0.92 -0.56,0.8 -0.92,1.4 -0.36,0.6 -0.36,1.16 0,1.28 1.56,1.8 0.12,-0.32 0.4,-0.8 0.28,-0.52 0.28,-0.64 z m -1.64,-2.92 q -0.2,0.08 -0.48,0.16 -0.28,0.04 -0.6,0.12 -0.28,0.04 -0.52,0.08 -0.2,0 -0.24,0 -0.16,0 -0.44,0 -0.28,-0.04 -0.48,-0.08 -0.16,-0.04 -0.36,-0.08 -0.2,-0.08 -0.36,-0.16 -0.2,-0.08 -0.48,-0.24 -0.24,-0.2 -0.48,-0.36 -0.24,-0.16 -0.4,-0.24 -0.16,-0.08 -0.16,-0.04 0,0.44 0.08,0.96 0.12,0.52 0.4,1 0.28,0.44 0.72,0.76 0.44,0.28 1.12,0.28 0.48,0 1,-0.16 0.52,-0.2 0.84,-0.68 0.2,-0.08 0.2,-0.12 0.2,-0.28 0.36,-0.6 0.16,-0.32 0.28,-0.6 z m -5.8,-1.88 -0.44,-2.48 q -0.12,0.32 -0.28,0.72 -0.12,0.36 -0.32,0.68 -0.04,0.08 -0.16,0.24 -0.08,0.16 -0.08,0.28 0,0.12 0.36,0.6 0.4,0.48 0.68,0.8 0.08,-0.2 0.12,-0.4 0.08,-0.24 0.12,-0.44 z m 0.4,1.64 q -0.08,-0.08 -0.08,-0.28 0.04,-0.2 -0.04,-0.28 -0.08,0.08 -0.12,0.08 0,0 0,0.12 0,0.12 0.08,0.2 0.12,0.08 0.16,0.16 z m 6.08,5.08 q -0.2,0 -0.48,-0.16 -0.28,-0.2 -0.56,-0.48 -0.28,-0.28 -0.52,-0.6 -0.24,-0.36 -0.28,-0.64 -0.12,0.12 -0.28,0.36 -0.16,0.24 -0.36,0.52 -0.16,0.24 -0.28,0.52 -0.12,0.24 -0.12,0.4 0,0.44 0.6,0.84 z m -2.2,-2.16 q 0,-0.08 -0.04,-0.12 -0.04,-0.04 -0.04,-0.08 -0.2,0.08 -0.52,0.12 -0.28,0 -0.4,0 -0.2,0 -0.36,0.04 -0.12,0 -0.28,-0.04 -0.16,-0.04 -0.4,-0.12 -0.2,-0.08 -0.6,-0.28 l 1.24,2.16 q 0.12,-0.08 0.28,-0.16 0.16,-0.08 0.24,-0.08 0.24,-0.36 0.44,-0.76 0.24,-0.4 0.44,-0.68 z m 1.84,2.76 h -0.24 q -0.24,0.12 -0.48,0.16 -0.24,0.04 -0.44,0.12 -0.08,0.2 -0.28,0.48 -0.2,0.24 -0.28,0.44 0.16,0.2 0.28,0.36 0.16,0.16 0.24,0.28 z m -8.28,2.48 -0.48,-0.96 -1.04,1.16 0.4,-0.04 q 0.2,-0.04 0.28,0 0.08,0 0.2,0 0.16,0 0.32,-0.08 0.2,-0.08 0.32,-0.08 z m 3.48,6.36 q 0,-0.04 -0.04,-0.28 0,-0.24 -0.04,-0.52 0,-0.32 -0.08,-0.64 -0.04,-0.32 -0.16,-0.52 -0.44,-0.96 -1.2,-1.8 -0.72,-0.84 -1.36,-1.72 -0.08,-0.08 -0.2,-0.2 -0.12,-0.12 -0.24,-0.16 l -1.24,0.24 q 0.84,0.24 1.6,0.84 0.8,0.6 1.36,1.4 0.56,0.76 0.88,1.6 0.32,0.8 0.28,1.48 -0.04,0.32 -0.04,0.68 0,0.32 0,0.6 0.12,-0.24 0.2,-0.32 0.08,-0.12 0.12,-0.16 0.08,-0.08 0.12,-0.16 0.04,-0.12 0.04,-0.36 z m -6.96,-5.44 v -0.2 h -0.12 v 0.2 z"
           id="path1256" />
        <path
           d="m 1687.2398,-660.32 q -1.36,0.52 -1.84,1.28 -0.44,0.76 -0.44,2 l 0.28,2.84 q 0,0.32 -0.12,0.88 -0.12,0.52 -0.56,0.52 -0.48,0 -0.68,-0.48 -0.16,-0.48 -0.16,-0.72 0,-0.52 0.28,-1.44 0.28,-0.96 0.28,-2.36 0,-0.28 0,-0.68 0,-0.44 -0.32,-0.68 -1.52,-0.08 -2.92,-0.08 -1.4,-0.04 -2.68,-0.72 0.36,-0.76 0.72,-1.6 0.36,-0.88 0.68,-1.72 0.2,-0.44 0.56,-1.12 0.36,-0.68 0.64,-1.44 0.12,-0.32 0.28,-0.88 0.2,-0.56 0.2,-0.72 0,-0.12 -0.28,-0.32 -0.24,-0.2 -0.44,-0.4 -0.16,-0.2 -0.24,-0.44 -0.04,-0.28 -0.16,-0.52 -0.08,-0.12 -0.24,-0.12 h -5.6 v 2.32 q 0,0.08 -0.08,0.52 -0.04,0.4 -0.16,0.92 -0.08,0.48 -0.16,0.92 -0.04,0.44 -0.04,0.48 v 10.04 l 0.12,0.88 v 2.72 l -0.12,0.76 v 4.12 q 0,0.24 -0.28,0.56 -0.28,0.32 -0.6,0.76 -0.2,0.32 -0.24,0.72 0,0.4 0,0.6 l 0.28,3.76 q 0,0.56 -0.16,1.04 -0.12,0.48 -0.8,0.48 -0.36,0 -0.56,-0.2 -0.16,-0.16 -0.24,-0.4 -0.04,-0.24 -0.04,-0.48 0,-0.24 0,-0.4 l 0.36,-3.84 q 0,-0.16 -0.04,-0.4 0,-0.24 -0.08,-0.36 -0.12,-0.12 -0.32,-0.2 -0.16,-0.08 -0.28,-0.24 -0.16,-0.2 -0.28,-0.44 -0.12,-0.2 -0.24,-0.4 -0.08,-0.04 -0.12,-0.08 0,-0.04 -0.16,-0.04 -0.2,0 -0.64,0.2 -0.4,0.2 -0.48,0.52 -0.08,0.24 -0.08,0.48 0,0.28 -0.08,0.48 -0.04,0.24 -0.2,0.36 -0.12,0.16 -0.44,0.16 -0.2,0 -0.4,-0.08 -0.2,-0.04 -0.24,-0.32 -0.08,-0.44 -0.12,-1.08 0,-0.6 -0.08,-1.16 -0.04,-0.16 -0.12,-0.36 -0.08,-0.2 -0.08,-0.32 v -14.4 l 0.16,-0.8 0.04,-3.4 q 0,-0.16 -0.08,-0.44 -0.04,-0.32 -0.04,-0.48 v -2.84 q 0,-0.12 -0.08,-0.32 -0.08,-0.2 -0.28,-0.4 h -1.44 l -2.88,-0.2 q -0.68,0 -1.12,0.08 -0.4,0.08 -1.2,0.28 l -2.04,0.6 q -0.2,-0.04 -0.56,-0.4 -0.36,-0.36 -0.72,-0.84 -0.32,-0.52 -0.6,-1 -0.24,-0.52 -0.24,-0.8 0,-0.04 0,-0.32 0.04,-0.32 0.08,-0.68 0.04,-0.36 0.08,-0.72 0.08,-0.4 0.16,-0.6 0.08,-0.2 0.28,-0.24 0.2,-0.04 0.4,-0.08 l 5.88,-0.04 q 0.04,0 0.68,0.04 0.64,0.04 1.56,0.08 0.92,0.04 2,0.12 1.12,0.04 2.04,0.08 0.92,0.04 1.56,0.08 0.64,0.04 0.68,0.04 h 1.88 q 0.4,-0.04 1,-0.12 0.6,-0.12 0.76,-0.12 l 2.4,-0.16 q 0.12,0 0.56,0.08 0.44,0.08 0.56,0.08 h 1.24 q 0.08,-0.4 0.04,-0.64 0.2,-0.12 0.52,-0.32 0.36,-0.2 0.52,-0.2 l 3.12,0.16 q 0.16,0.44 0.24,1 0.08,0.52 0.08,1.04 0.04,0.52 0.04,0.92 0,0.4 0,0.56 0.08,2.88 0.6,5.76 0.56,2.84 2.08,5.48 z"
           id="path1258" />
        <path
           d="m 1713.1197,-670.76 v 0.64 q 0,0.48 -0.04,1.48 0,0.96 -0.04,2.76 v 9.64 q -0.04,0.48 -0.08,1.56 -0.04,1.08 -0.08,2.4 -0.04,1.32 -0.08,2.72 -0.04,1.36 -0.08,2.48 0,0.2 -0.2,0.48 -0.16,0.32 -0.32,0.32 h -3.4 q -0.08,0 -0.36,-0.04 -0.24,-0.04 -0.6,-0.12 -0.32,-0.04 -0.68,-0.16 -0.36,-0.08 -0.6,-0.16 -0.08,-0.04 -0.16,-0.24 -0.08,-0.16 -0.04,-0.28 v -10.8 h -1.96 q -0.84,0.4 -0.84,1.2 v 0.6 q 0,0.44 -0.32,0.68 -0.28,0.2 -0.56,0.2 -0.08,0 -0.24,-0.08 -0.12,-0.08 -0.24,-0.24 v -1.08 q 0,-0.16 -0.2,-0.32 -0.16,-0.16 -0.28,-0.16 -0.12,0 -0.28,0.16 -0.12,0.12 -0.2,0.24 -0.4,1.04 -0.56,1.96 l 0.12,1.32 v 1.52 q 0,0.08 -0.32,0.32 -0.28,0.2 -0.44,0.24 -0.2,0 -0.36,-0.12 -0.16,-0.12 -0.28,-0.28 -0.12,-0.2 -0.2,-0.36 -0.08,-0.16 -0.08,-0.24 l 0.16,-1 V -655 q 0,-0.2 -0.16,-0.6 -0.12,-0.44 -0.44,-0.44 -0.16,0 -0.24,0.04 -0.08,0.04 -0.28,0.04 -0.44,-0.04 -0.68,-0.52 -0.2,-0.48 -0.44,-0.8 -0.04,-0.04 -0.16,-0.08 -0.08,-0.08 -0.2,-0.08 -0.08,-0.08 -0.12,-0.24 0,-0.16 -0.08,-0.28 h -1.2 v 6.84 l 0.12,0.72 v 4.2 h -1.88 q -0.2,0.24 -0.2,0.52 v 0.72 l -0.08,1.04 q -0.08,0 -0.12,0.04 0,0.04 -0.12,0.04 -0.32,0 -0.32,-0.4 v -0.92 q 0,-0.44 -0.28,-0.56 -0.24,-0.08 -0.56,-0.08 l -1.84,0.28 -0.44,-1.16 q -0.08,0.08 -0.08,0.08 0.04,0 -0.08,0 -0.24,0 -0.44,-0.32 -0.16,-0.28 -0.16,-0.36 v -0.36 l 0.16,-22.76 0.16,-0.8 v -3.76 h 3.52 l 0.72,-0.16 h 1.64 q 0.16,0 0.36,0.2 0.2,0.16 0.2,0.28 v 0.88 l -0.12,0.68 v 9.12 l 11.04,-0.2 q -0.08,-0.08 -0.08,-0.08 0,-0.04 -0.04,-0.12 0,-1.56 0,-2.8 0,-1.28 0,-2.44 0.04,-1.2 0.04,-2.44 0.04,-1.24 0.08,-2.84 0.08,0 0.24,-0.08 0.16,-0.08 0.28,-0.08 0.12,0 0.16,0.08 0.04,0.08 0.16,0.08 h 2.6 l 0.8,-0.16 h 1.24 q 0.12,0 0.32,0.08 0.2,0.08 0.32,0.12 0.16,0.12 0.2,0.32 0.08,0.16 0.16,0.32 z"
           id="path1260" />
        <path
           d="m 1745.7197,-659.84 q 0,1.16 -0.12,2.04 -0.12,0.88 -0.4,1.72 -0.28,0.84 -0.68,1.72 -0.4,0.88 -1,2.08 -0.08,0.12 -0.32,0.44 -0.24,0.32 -0.56,0.72 -0.32,0.36 -0.68,0.8 -0.32,0.4 -0.6,0.72 -0.2,0.2 -0.4,0.6 -0.2,0.36 -0.4,0.56 -0.24,0.28 -0.64,0.52 -0.36,0.24 -0.64,0.48 -0.32,0.2 -0.6,0.52 -0.28,0.36 -0.6,0.6 -0.12,0.08 -0.4,0.16 -0.28,0.08 -0.44,0.28 -0.32,0.44 -0.44,1.04 -0.08,0.64 -0.08,1.12 l 0.28,2.84 q 0,0.32 -0.12,0.84 -0.12,0.56 -0.56,0.56 -0.44,0 -0.64,-0.44 -0.2,-0.44 -0.2,-0.76 0,-0.48 0.28,-1.44 0.28,-0.96 0.28,-2.36 0,-0.64 -0.08,-0.96 -0.08,-0.28 -0.28,-0.4 -0.16,-0.12 -0.48,-0.12 -0.32,0.04 -0.8,0.04 -0.32,0 -0.48,0.16 -0.16,0.16 -0.4,0.6 -0.08,0.2 -0.44,0.32 -0.32,0.12 -0.52,0.44 -0.2,0.36 -0.24,0.68 0,0.32 0,0.6 0,0.28 -0.08,0.56 -0.04,0.28 -0.32,0.56 -0.08,0.04 -0.28,0 -0.2,-0.04 -0.32,-0.16 -0.44,-0.4 -0.56,-1.12 -0.12,-0.68 -0.32,-1.2 -0.12,-0.48 -0.72,-0.88 -0.56,-0.36 -0.92,-0.36 -0.28,0 -0.72,0.24 -0.4,0.24 -0.6,0.76 -0.08,0.24 -0.08,0.56 0,0.36 0,0.48 l 0.28,3.76 q 0,0.56 -0.16,1.04 -0.12,0.48 -0.8,0.48 -0.36,0 -0.56,-0.2 -0.16,-0.16 -0.24,-0.4 -0.04,-0.24 -0.04,-0.48 0,-0.24 0,-0.4 l 0.44,-4.4 q 0,-0.16 -0.08,-0.56 -0.08,-0.4 -0.24,-0.8 -0.16,-0.36 -0.44,-0.68 -0.24,-0.28 -0.6,-0.28 -0.32,0 -0.76,0.32 -0.44,0.36 -0.52,0.76 -0.08,0.36 -0.12,0.8 -0.04,0.44 -0.24,0.8 -0.04,0.12 -0.24,0.16 -0.16,0.08 -0.28,0.08 -0.2,0 -0.4,-0.04 -0.2,-0.04 -0.28,-0.36 -0.08,-0.8 -0.12,-1.68 -0.04,-0.84 -0.12,-1.68 -0.08,-0.64 -0.64,-1 -0.56,-0.36 -1,-0.6 -0.36,-0.2 -0.72,-0.64 -0.32,-0.48 -0.64,-0.8 -0.44,-0.52 -0.96,-1 -0.48,-0.52 -0.76,-1.08 -0.32,-0.6 -0.68,-1.4 -0.32,-0.8 -0.64,-1.52 -0.28,-0.76 -0.48,-1.32 -0.2,-0.56 -0.2,-0.64 v -5.32 q 0,-0.12 0.2,-0.76 0.24,-0.68 0.36,-1.04 0.56,-1.6 1.16,-2.76 0.6,-1.16 1.6,-2.44 0.96,-1.24 2.24,-2.2 1.32,-0.96 2.16,-1.44 0.56,-0.32 1.4,-0.6 0.88,-0.28 1.6,-0.48 1.04,-0.32 2.16,-0.48 1.16,-0.16 2.32,-0.16 1.48,0 3.16,0.32 1.68,0.32 3.32,1.04 1.68,0.72 3.28,1.96 1.6,1.2 2.96,3 0.6,0.8 0.92,1.64 0.32,0.84 0.64,1.6 0.2,0.44 0.48,1.24 0.32,0.76 0.44,1.48 0.04,0.36 0.08,0.84 0.04,0.48 0.04,0.96 0.04,0.44 0.04,0.8 0,0.32 0,0.4 z m -7.24,-4.32 q -0.16,-0.52 -0.44,-1.2 -0.24,-0.68 -0.64,-1.4 -0.4,-0.72 -0.92,-1.4 -0.52,-0.72 -1.24,-1.28 -0.08,-0.04 -0.2,-0.08 -0.08,-0.04 -0.16,-0.04 -0.24,0.56 -0.56,1.2 -0.28,0.64 -0.6,1.36 -0.32,0.68 -0.64,1.4 -0.28,0.72 -0.48,1.36 -0.12,0.08 -0.12,0.32 v 0.28 h 3.44 q 0.08,0 0.36,-0.04 0.32,-0.04 0.72,-0.12 0.4,-0.08 0.8,-0.16 0.4,-0.12 0.68,-0.2 z m -6.32,5.44 q -0.16,-0.44 -0.4,-0.96 -0.24,-0.52 -0.52,-1 -0.28,-0.48 -0.56,-0.92 -0.24,-0.44 -0.4,-0.68 -0.36,0.88 -0.84,1.8 -0.44,0.88 -0.92,1.84 z m -4.24,-4.72 q -0.2,-0.52 -0.6,-1.24 -0.36,-0.76 -0.8,-1.52 -0.4,-0.76 -0.84,-1.4 -0.4,-0.64 -0.72,-1 -0.44,0.28 -1,1 -0.52,0.72 -1,1.6 -0.48,0.84 -0.8,1.68 -0.32,0.84 -0.32,1.32 0,0.12 0.04,0.16 0,0.04 0.04,0.04 l 2.6,0.08 q 0.44,0 0.96,-0.04 0.52,-0.08 1,-0.16 0.52,-0.08 0.88,-0.2 0.4,-0.16 0.56,-0.32 z m 13.64,3.84 q 0,-0.92 -0.2,-1.88 -0.16,-1 -0.28,-1.64 -0.12,1.28 -1.16,2.84 -1.04,1.56 -2.56,2.68 v 0.24 q 0,0.44 0.12,0.72 0.16,0.28 0.12,0.52 0,0.24 -0.32,0.48 -0.28,0.24 -1.12,0.6 l -0.12,-0.12 -0.24,-1.92 q -0.32,0.12 -0.96,0.28 -0.6,0.16 -1.32,0.32 -0.68,0.12 -1.32,0.2 -0.6,0.08 -0.96,0.08 h -1.8 v 1.68 h -0.76 q -0.32,0 -0.84,0 -0.48,0 -0.72,-0.2 0.04,-0.4 0.04,-0.76 0.04,-0.4 0.08,-0.72 -1.04,0 -1.88,-0.08 -0.84,-0.12 -1.88,-0.64 -0.2,0.2 -0.44,0.52 -0.24,0.32 -0.36,0.32 -0.12,0 -0.56,-0.2 -0.4,-0.2 -0.6,-0.4 l 0.88,-0.96 q -0.52,-0.24 -1.12,-0.72 -0.56,-0.48 -1.08,-1.08 -0.52,-0.6 -0.88,-1.2 -0.36,-0.6 -0.4,-1.08 -0.08,0.28 -0.12,0.68 -0.04,0.4 -0.04,0.56 0,1.16 0.36,2.52 0.4,1.36 0.84,2.12 0.36,0.64 0.92,1.28 0.56,0.6 1.24,1.16 0.68,0.56 1.36,1 0.72,0.44 1.32,0.72 0.24,-0.36 0.36,-0.76 0.12,-0.4 0.44,-0.68 0.64,0.28 1.28,0.64 0,0.32 -0.04,0.72 0,0.36 0.04,0.68 h 5.52 v -0.56 q 0,-0.12 -0.04,-0.28 -0.04,-0.16 -0.04,-0.36 0.6,-0.2 1.12,-0.36 0.52,-0.2 1.04,-0.28 0.2,0.4 0.4,0.84 0.2,0.4 0.4,0.8 h 0.24 q 0.52,-0.24 1.12,-0.56 0.6,-0.32 1.16,-0.72 0.56,-0.4 1.04,-0.84 0.52,-0.44 0.8,-0.96 -0.16,-0.16 -0.36,-0.32 -0.2,-0.16 -0.28,-0.32 0.44,-0.48 0.56,-0.92 0.12,-0.44 0.56,-0.44 0.12,0 0.36,0.04 0.28,0.04 0.48,0.12 0.12,-0.24 0.24,-0.68 0.12,-0.44 0.2,-0.92 0.08,-0.48 0.12,-0.96 0.04,-0.48 0.04,-0.84 z"
           id="path1262" />
        <path
           d="m 1773.5196,-667.24 q 0,0.08 -0.04,0.32 0,0.24 -0.04,0.6 -0.04,0.32 -0.12,0.72 -0.04,0.36 -0.08,0.64 l 0.08,5.4 -0.24,12.68 q 0,0.32 -0.24,0.6 -0.24,0.32 -0.56,0.6 -0.28,0.32 -0.56,0.6 -0.28,0.28 -0.32,0.56 -0.04,0.24 -0.04,0.48 0.04,0.28 0.04,0.56 0,0.28 -0.08,0.56 -0.08,0.28 -0.32,0.48 -0.72,-0.08 -0.92,-0.6 -0.2,-0.48 -0.32,-1.04 -0.08,-0.56 -0.32,-1.04 -0.24,-0.48 -1.04,-0.56 -0.28,-0.28 -0.8,-0.64 -0.48,-0.32 -0.8,-0.76 -3.2,-4.12 -6.28,-8.36 -3.08,-4.24 -6.32,-8.48 l -0.04,16.76 q -0.08,0.2 -0.12,0.48 0,0.28 -0.16,0.48 -0.12,0.08 -0.36,0.12 -0.2,0.08 -0.32,0.16 -0.12,0.24 -0.36,0.56 -0.24,0.32 -0.24,0.48 v 3.32 q 0,0.12 0.04,0.16 0.04,0.04 0.08,0.08 0.08,0.28 0,0.8 -0.04,0.52 -0.2,0.84 -0.08,0.2 -0.36,0.2 -0.52,0 -0.72,-0.52 -0.16,-0.48 -0.2,-0.76 l 0.44,-3 q -0.12,-0.36 -0.24,-0.8 -0.12,-0.4 -0.56,-0.6 -0.36,0.28 -0.48,0.64 -0.08,0.36 -0.12,0.72 0,0.4 -0.04,0.76 -0.04,0.36 -0.28,0.6 -0.12,0 -0.4,-0.08 -0.24,-0.08 -0.36,-0.24 -0.32,-0.36 -0.44,-0.76 -0.08,-0.4 -0.16,-0.8 -0.08,-0.4 -0.28,-0.8 -0.16,-0.36 -0.6,-0.72 -0.08,-0.08 -0.24,-0.32 -0.16,-0.2 -0.16,-0.4 0,-8.6 0.08,-14.88 0.08,-6.28 0.16,-10.28 l 0.16,-0.88 v -1.76 q 0,-0.2 0.2,-0.28 0.2,-0.08 0.44,-0.12 0.28,-0.04 0.48,0 0.24,0 0.32,0 0.04,0 0.24,0 0.24,0 0.68,0.04 0.48,0 1.28,0 0.8,0 2.04,0 0.28,0.04 0.52,0.4 0.28,0.32 0.48,0.52 0.84,1.12 1.68,2.28 0.88,1.12 1.76,2.28 0.64,0.84 1.4,1.88 0.8,1 1.64,2.12 0.84,1.12 1.68,2.24 0.84,1.08 1.52,2.04 0.48,0.64 1.08,1.56 0.64,0.88 1.36,1.88 0.08,-0.16 0.04,-0.28 0,-0.16 0,-0.32 0,-0.32 -0.04,-0.44 0,-0.12 -0.24,-0.4 l 0.28,-3.8 q 0,-0.36 -0.12,-0.6 -0.08,-0.24 -0.28,-0.48 -0.16,-0.24 -0.44,-0.56 -0.28,-0.32 -0.64,-0.88 0.16,-0.24 0.4,-0.48 0.28,-0.24 0.6,-0.56 0.04,0 0.12,0.08 0.12,0.04 0.28,0.04 v -1.96 l 0.52,-4.72 q 0,-0.12 0.04,-0.12 0.04,-0.04 0.08,-0.12 -0.04,-0.36 0.04,-0.76 0.08,-0.44 0.2,-0.88 0.16,-0.48 0.32,-0.92 0.16,-0.44 0.28,-0.8 0.32,0.96 0.68,1.96 0.36,0.96 0.68,1.96 0.4,-0.16 0.4,-0.64 0.04,-0.52 0.28,-0.92 0.04,0.08 0.04,0.16 0,0.08 0.08,0.16 0.12,0 0.16,-0.08 0.32,-0.72 0.6,-1.4 0.32,-0.72 0.4,-1.44 0.04,-0.08 0.08,-0.16 0.08,-0.08 0.16,-0.08 0,0.08 0,0.16 0.04,0.08 0.04,0.16 -0.04,0.2 0.04,0.56 0.08,0.36 0.12,0.68 0.08,0.56 0.16,1.16 0.12,0.6 0.12,1.2 0,0.08 -0.04,0.24 0,0.16 -0.12,0.28 l 0.12,0.08 q 0.24,-0.24 0.36,-0.56 0,0.16 0,0.4 0,0.2 0.08,0.4 0.28,-0.2 0.44,-0.6 0.2,-0.4 0.36,-0.72 z"
           id="path1264" />
      </g>
      <g
         id="path1437"
         inkscape:export-filename="D:\Design\Projects\banner.png"
         inkscape:export-xdpi="96"
         inkscape:export-ydpi="96">
        <path
           style="color:#000000;fill:#323232;stroke-width:0.01;-inkscape-stroke:none"
           d="m 113.40324,-198.66803 0.80323,0.0669 0.80322,1.60644 1.00403,1.47258 4.5516,6.76047 0.2579,2.68812 0.14371,2.80057 -2.14193,1.47258 -1.89571,-1.8453 -10.3823,-12.04911 z"
           id="path15150" />
        <path
           style="color:#000000;fill:#323232;-inkscape-stroke:none"
           d="m 113.40234,-198.67383 -0.002,0.002 -6.86133,2.9746 10.38672,12.05469 1.89844,1.84961 2.14844,-1.47656 -0.14453,-2.80469 -0.25782,-2.68945 -4.55273,-6.76172 -1.00391,-1.47266 -0.80469,-1.60742 z m 0,0.0117 0.80079,0.0664 0.80273,1.60351 1.00391,1.47266 4.55078,6.75976 0.25781,2.6875 0.14258,2.79688 -2.13477,1.46875 -1.89258,-1.8418 -10.3789,-12.04297 z"
           id="path15152" />
      </g>
      <path
         style="fill:#ffa603;fill-opacity:1;stroke:none;stroke-width:0.264583px;stroke-linecap:butt;stroke-linejoin:miter;stroke-opacity:1"
         d="m 113.40034,-198.67183 0.89139,-0.77439 1.49655,0.80202 -0.57561,1.55965 -0.19905,0.0865 z"
         id="path20088"
         sodipodi:nodetypes="cccccc"
         inkscape:export-filename="D:\Design\Projects\banner.png"
         inkscape:export-xdpi="96"
         inkscape:export-ydpi="96" />
    </g>
  </g>
</svg>
