<?xml version="1.0" encoding="utf-8"?>
<!-- Generator: Adobe Illustrator 23.0.2, SVG Export Plug-In . SVG Version: 6.00 Build 0)  -->
<svg version="1.1"
	 id="svg6016" inkscape:export-xdpi="219.17999" inkscape:export-ydpi="219.17999" inkscape:version="0.92.4 5da689c313, 2019-01-14" xmlns:cc="http://creativecommons.org/ns#" xmlns:dc="http://purl.org/dc/elements/1.1/" xmlns:inkscape="http://www.inkscape.org/namespaces/inkscape" xmlns:rdf="http://www.w3.org/1999/02/22-rdf-syntax-ns#" xmlns:sodipodi="http://sodipodi.sourceforge.net/DTD/sodipodi-0.dtd" xmlns:svg="http://www.w3.org/2000/svg"
	 xmlns="http://www.w3.org/2000/svg" xmlns:xlink="http://www.w3.org/1999/xlink" x="0px" y="0px" viewBox="0 0 438 438"
	 style="enable-background:new 0 0 438 438;" xml:space="preserve">
<style type="text/css">
	.st0{fill:#323232;}
	.st1{fill-opacity:0.2039;}
	.st2{fill:#FF6703;}
	.st3{fill:#FFA603;}
</style>
<sodipodi:namedview  bordercolor="#666666" borderopacity="1" gridtolerance="10" guidetolerance="10" id="namedview6018" inkscape:current-layer="svg6016" inkscape:cx="219" inkscape:cy="219" inkscape:pageopacity="0" inkscape:pageshadow="2" inkscape:window-height="1409" inkscape:window-maximized="1" inkscape:window-width="3440" inkscape:window-x="2560" inkscape:window-y="31" inkscape:zoom="2.7579909" objecttolerance="10" pagecolor="#ffffff" showgrid="false">
	</sodipodi:namedview>
<rect id="rect6008" inkscape:label="background" class="st0" width="438" height="438">
</rect>
<path id="path6010" inkscape:label="shadow" class="st1" d="M283.1,68l-11.5,3.3c-12.2-1.8-24.8-2.6-36.9-2.5
	c-13.5,0.1-26.5,1.2-37.9,3.2c-3.7,0.7-7,1.4-10.1,2.2h-35.9V93h4.5v7.7h2.8c-0.6,3.7-0.9,7.8-0.9,12.3v4h-15.4l-2.2,11l17.6,15v0.1
	h79.2v10H127.5c-23,0-43.2,13.8-49.5,40c-7.3,30-7.6,48.8,0,80.2c0.5,2.1,1.1,4.1,1.7,6.1l-1.2,10.4l13.3,11.5
	c7,7.5,16.4,12,28.3,12h27.2v-36c0-26,22.6-49,49.5-49H276c22,0,39.6-18.1,39.6-40.1V113c0-12.9-6.6-23.8-16.5-31.3L283.1,68z
	 M359.9,145.6l-14.3,7.4h-20.1v35.1c0,27.2-23.1,50-49.5,50h-79.1c-21.7,0-39.6,18.5-39.6,40.1v75.1c0,21.4,18.7,34,39.6,40.1
	c25.1,7.3,49.1,8.7,79.1,0c19.9-5.7,39.6-17.3,39.6-40.1v-30.1h-0.1l-11.7-10h51.4c23,0,31.6-16,39.6-40c8.3-24.7,7.9-48.5,0-80.2
	c-3.6-14.5-9.4-26.7-18.9-33.7L359.9,145.6z M236.5,313.2H294v10h-57.5V313.2z"/>
<path id="path6012" inkscape:label="upper_snake" class="st2" d="M217,53.7c-13.5,0.1-26.5,1.2-37.9,3.2
	c-33.5,5.9-39.6,18.2-39.6,41V128h79.2v10H109.8c-23,0-43.2,13.8-49.5,40c-7.3,30-7.6,48.8,0,80.2c5.6,23.4,19.1,40,42.1,40h27.2
	v-36c0-26,22.6-49,49.5-49h79.1c22,0,39.6-18.1,39.6-40.1V97.9c0-21.4-18.1-37.4-39.6-41C244.7,54.6,230.6,53.6,217,53.7L217,53.7z
	 M174.2,77.9c8.2,0,14.9,6.8,14.9,15.1s-6.7,15-14.9,15s-14.9-6.7-14.9-15C159.3,84.6,166,77.9,174.2,77.9z"/>
<path id="path6014" inkscape:label="lower_snake" class="st3" d="M307.8,138v35c0,27.2-23.1,50-49.5,50h-79.1
	c-21.7,0-39.6,18.5-39.6,40.1v75.1c0,21.4,18.7,34,39.6,40.1c25.1,7.3,49.1,8.7,79.1,0c19.9-5.7,39.6-17.3,39.6-40.1v-30.1h-79.1
	v-10h118.7c23,0,31.6-16,39.6-40c8.3-24.7,7.9-48.5,0-80.2c-5.7-22.8-16.6-40-39.6-40L307.8,138L307.8,138z M263.3,328.2
	c8.2,0,14.9,6.7,14.9,15s-6.7,15.1-14.9,15.1s-14.9-6.8-14.9-15.1S255.1,328.2,263.3,328.2z"/>
</svg>
