<?xml version="1.0" encoding="UTF-8" standalone="no"?>
<!DOCTYPE svg PUBLIC "-//W3C//DTD SVG 1.1//EN" "http://www.w3.org/Graphics/SVG/1.1/DTD/svg11.dtd">
<svg width="100%" height="100%" viewBox="0 0 512 512" version="1.1" xmlns="http://www.w3.org/2000/svg" xmlns:xlink="http://www.w3.org/1999/xlink" xml:space="preserve" xmlns:serif="http://www.serif.com/" style="fill-rule:evenodd;clip-rule:evenodd;stroke-linejoin:round;stroke-miterlimit:2;">
    <g transform="matrix(1,0,0,1,-6880.25,-609.764)">
        <g transform="matrix(0.825702,0,0,0.729787,1420.75,609.764)">
            <g id="Bg" transform="matrix(-4.8666e-17,-0.899232,-0.794776,5.50621e-17,7381,5752.54)">
                <rect x="5616.98" y="187.421" width="780.194" height="780.194" style="fill:none;"/>
                <g id="Face" transform="matrix(1.05231,1.2326e-32,1.2326e-32,1.05231,-302.118,-12.6633)">
                    <g transform="matrix(1.50089,-1.61857,1.68615,1.60046,5603.24,568.128)">
                        <g id="Bg1" serif:id="Bg">
                            <g>
                                <g transform="matrix(7.04762,0,0,7.04762,0.500558,1.45139)">
                                    <path d="M11.405,3.339C17.885,2.064 19.858,4.604 23.06,3.423C26.262,2.242 23.153,6.243 22.315,6.931C21.475,7.619 14.174,11.74 11.008,10.229C7.842,8.718 7.826,4.043 11.405,3.339Z" style="fill:rgb(92,145,59);fill-rule:nonzero;"/>
                                </g>
                                <g transform="matrix(7.04762,0,0,7.04762,0.500558,1.45139)">
                                    <path d="M15.001,16C14.697,16 14.396,15.862 14.2,15.6C13.513,14.684 12.892,13.645 12.235,12.544C9.967,8.749 7.396,4.446 0.783,2.976C0.244,2.856 -0.096,2.322 0.024,1.783C0.144,1.243 0.678,0.905 1.217,1.024C8.671,2.68 11.599,7.581 13.952,11.519C14.582,12.573 15.176,13.568 15.8,14.4C16.132,14.842 16.042,15.469 15.6,15.8C15.42,15.935 15.21,16 15.001,16Z" style="fill:rgb(119,178,85);fill-rule:nonzero;"/>
                                </g>
                                <g transform="matrix(7.11799,3.95128e-16,0,7.11799,0.342192,0.12277)">
                                    <path d="M12.162,31.874L33.276,13.025C32.656,12.157 31.931,11.32 31.09,10.525C31.042,10.48 30.998,10.431 30.951,10.384C25.15,4.584 17.271,4.563 12.184,6.317C10.605,6.931 9.267,6.383 8.369,7.282C7.488,8.163 8.018,10.001 7.655,11.101C4.486,16.303 4.25,24.126 10.343,30.218C10.94,30.815 11.544,31.367 12.162,31.874Z" style="fill:rgb(255,204,77);fill-rule:nonzero;"/>
                                </g>
                                <g transform="matrix(7.04762,0,0,7.04762,0.500558,1.45139)">
                                    <path d="M8.208,6.583C8.208,6.583 3.938,5.993 1.351,11.182C-1.236,16.37 1.933,20.307 1.641,23.835C1.348,27.365 3.207,25.1 4.262,23.39C5.317,21.68 8.492,18.495 9.2,14.121C9.907,9.745 9.13,7.663 8.208,6.583Z" style="fill:rgb(119,178,85);fill-rule:nonzero;"/>
                                </g>
                            </g>
                        </g>
                    </g>
                    <g transform="matrix(-0.000354792,-2.64209,2.53839,0.0884195,5727.02,887.13)">
                        <path d="M127.547,131.948L127.547,131.898C127.547,131.898 141.56,131.628 148.406,134.384C152.083,135.864 160.674,140.81 168.078,141.429C181.23,142.528 190.598,141.209 195.998,141.254C197.648,141.267 204.768,136.709 205.858,136.253C208.489,135.152 215.597,135.454 215.597,135.454L219.614,251.81L44.199,251.728L40.216,135.548C40.216,135.548 46.606,135.202 49.237,136.303C50.327,136.759 57.447,141.317 59.097,141.304C64.497,141.259 74.506,142.814 87.658,141.715C95.062,141.096 103.012,135.914 106.688,134.434C113.532,131.679 127.536,131.948 127.547,131.948Z" style="fill:rgb(125,106,90);"/>
                    </g>
                    <g id="Features">
                        <g id="Mouth" transform="matrix(-1.60615e-16,-2.82755,2.6512,-2.7891e-06,5692.49,1688.82)">
                            <g transform="matrix(4.60728,0,0,4.60215,314.431,64.7038)">
                                <path d="M18,21C14.377,21 11.973,20.578 9,20C8.321,19.869 7,20 7,22C7,26 11.595,31 18,31C24.404,31 29,26 29,22C29,20 27.679,19.868 27,20C24.027,20.578 21.623,21 18,21Z" style="fill:rgb(66,44,1);fill-rule:nonzero;"/>
                            </g>
                            <g transform="matrix(4.60728,0,0,4.9345,314.431,54.6157)">
                                <path d="M9,22C9,22 12,23 18,23C24,23 27,22 27,22C27,22 25,26 18,26C11,26 9,22 9,22Z" style="fill:white;fill-rule:nonzero;"/>
                            </g>
                        </g>
                        <g id="Eyes" transform="matrix(0.957805,1.2326e-32,-1.2326e-32,0.957805,255.455,23.8509)">
                            <g id="Eye" transform="matrix(-1.36151e-22,-16.8763,16.8763,-2.05092e-05,5767.25,866.081)">
                                <ellipse cx="12" cy="13.5" rx="2.5" ry="3.5" style="fill:rgb(102,69,0);"/>
                            </g>
                            <g id="Eye1" serif:id="Eye" transform="matrix(0,-16.8763,16.8763,-2.05092e-05,5767.25,871.974)">
                                <ellipse cx="24" cy="13.5" rx="2.5" ry="3.5" style="fill:rgb(102,69,0);"/>
                            </g>
                        </g>
                    </g>
                </g>
            </g>
        </g>
    </g>
</svg>
