<?xml version="1.0" encoding="UTF-8" standalone="no"?>
<!DOCTYPE svg PUBLIC "-//W3C//DTD SVG 1.1//EN" "http://www.w3.org/Graphics/SVG/1.1/DTD/svg11.dtd">
<svg width="100%" height="100%" viewBox="0 0 512 512" version="1.1" xmlns="http://www.w3.org/2000/svg" xmlns:xlink="http://www.w3.org/1999/xlink" xml:space="preserve" xmlns:serif="http://www.serif.com/" style="fill-rule:evenodd;clip-rule:evenodd;stroke-linejoin:round;stroke-miterlimit:2;">
    <g transform="matrix(1,0,0,1,-6880.25,-2145.76)">
        <g transform="matrix(0.825702,0,0,0.729787,1420.75,609.764)">
            <g transform="matrix(1.27144,0,2.46519e-32,-1.43855,401.278,3192.13)">
                <rect x="4884.75" y="268.209" width="487.696" height="487.696" style="fill:none;"/>
                <g transform="matrix(3.9506e-17,-0.645182,0.645182,3.9506e-17,3421.66,4709.8)">
                    <path d="M6270.08,3023.62C6270.08,2945.34 6206.63,2881.89 6128.35,2881.89C6128.35,2881.89 6128.35,2881.89 6128.35,2881.89L6128.35,2409.45L6128.35,2409.45C6291.24,2409.45 6447.45,2474.16 6562.64,2589.34C6677.81,2704.51 6742.52,2860.73 6742.52,3023.62C6742.52,3023.62 6742.52,3023.62 6742.52,3023.62L6270.08,3023.62L6270.08,3023.62Z" style="fill:rgb(125,106,90);"/>
                </g>
            </g>
        </g>
    </g>
</svg>
