<?xml version="1.0" encoding="UTF-8" standalone="no"?>
<!-- Created with Inkscape (http://www.inkscape.org/) -->

<svg
   xmlns:dc="http://purl.org/dc/elements/1.1/"
   xmlns:cc="http://creativecommons.org/ns#"
   xmlns:rdf="http://www.w3.org/1999/02/22-rdf-syntax-ns#"
   xmlns:svg="http://www.w3.org/2000/svg"
   xmlns="http://www.w3.org/2000/svg"
   xmlns:xlink="http://www.w3.org/1999/xlink"
   xmlns:sodipodi="http://sodipodi.sourceforge.net/DTD/sodipodi-0.dtd"
   xmlns:inkscape="http://www.inkscape.org/namespaces/inkscape"
   width="154.51666mm"
   height="154.51666mm"
   viewBox="0 0 154.51667 154.51666"
   version="1.1"
   id="svg8"
   inkscape:version="0.92.2 2405546, 2018-03-11"
   sodipodi:docname="logo_full.svg"
   inkscape:export-filename="/home/jeremiah/Pictures/Vectors/pythondiscord-logo.svg.png"
   inkscape:export-xdpi="270.42343"
   inkscape:export-ydpi="270.42343">
  <defs
     id="defs2">
    <linearGradient
       id="linearGradient4671">
      <stop
         style="stop-color:#ffd43b;stop-opacity:1;"
         offset="0"
         id="stop4673" />
      <stop
         style="stop-color:#ffe873;stop-opacity:1"
         offset="1"
         id="stop4675" />
    </linearGradient>
    <linearGradient
       id="linearGradient4689">
      <stop
         style="stop-color:#5a9fd4;stop-opacity:1;"
         offset="0"
         id="stop4691" />
      <stop
         style="stop-color:#306998;stop-opacity:1;"
         offset="1"
         id="stop4693" />
    </linearGradient>
    <clipPath
       clipPathUnits="userSpaceOnUse"
       id="clipPath4793">
      <g
         style="fill:#7289da;fill-opacity:1"
         id="use4795"
         inkscape:label="Clip">
        <path
           inkscape:connector-curvature="0"
           class="st0"
           d="M 6.6811787,0.72787837 H 4.7015954 c -0.166935,0 -0.3028467,0.13591169 -0.3028467,0.30432403 v 1.9973109 c 0,0.1684122 0.1359117,0.304324 0.3028467,0.304324 h 1.675259 L 6.2985576,3.0605366 6.4876523,3.2363353 6.6664058,3.4017931 6.9840255,3.6824802 V 1.0322024 c 0,-0.16841234 -0.1359121,-0.30432403 -0.3028468,-0.30432403 z M 6.1109404,2.6572335 c 0,0 -0.053183,-0.063524 -0.097502,-0.1196614 C 6.2069649,2.4829127 6.28083,2.3617734 6.28083,2.3617734 6.2202604,2.4016599 6.1626461,2.4297294 6.1109404,2.448934 6.0370753,2.4799569 5.9661649,2.5006389 5.8967321,2.5124582 5.7549109,2.5390503 5.6249085,2.5316628 5.514111,2.5109831 5.4299049,2.494733 5.357517,2.4710954 5.2969477,2.4474589 5.2629692,2.4341634 5.2260371,2.4179133 5.1891051,2.3972303 c -0.00443,-0.00296 -0.00886,-0.00443 -0.013295,-0.00739 -0.00296,-0.00148 -0.00443,-0.00296 -0.00591,-0.00443 -0.026592,-0.014773 -0.041365,-0.025114 -0.041365,-0.025114 0,0 0.070911,0.118184 0.2585277,0.1743217 -0.044318,0.05614 -0.098979,0.122618 -0.098979,0.122618 C 4.9615985,2.646908 4.8375053,2.432695 4.8375053,2.432695 c 0,-0.475691 0.2127313,-0.8612666 0.2127313,-0.8612666 C 5.262968,1.4118799 5.4653582,1.4163117 5.4653582,1.4163117 l 0.014773,0.017728 c -0.2659142,0.07682 -0.3885301,0.1935264 -0.3885301,0.1935264 0,0 0.0325,-0.017727 0.087161,-0.042842 0.1580713,-0.069433 0.2836418,-0.088638 0.3353474,-0.09307 0.00886,-0.00148 0.01625,-0.00296 0.025114,-0.00296 0.090115,-0.011818 0.1920491,-0.014773 0.2984149,-0.00296 0.1403432,0.01625 0.2910281,0.057615 0.4446674,0.141821 0,0 -0.1167069,-0.1107975 -0.3678481,-0.1876173 l 0.02068,-0.023636 c 0,0 0.2023902,-0.00443 0.4151216,0.1551167 0,0 0.2127315,0.3855754 0.2127315,0.8612664 0,0 -0.1255704,0.2142086 -0.452054,0.2245497 z"
           id="path2641"
           style="fill:#7289da;fill-opacity:1;stroke-width:0.01477302" />
        <path
           style="fill:#7289da;fill-opacity:1;stroke-width:0.03156727"
           d="m 25.763828,13.337981 c -0.329878,-0.292039 -0.903193,-0.813039 -1.274033,-1.157777 -0.370841,-0.344739 -0.67962,-0.621433 -0.686177,-0.614877 -0.0066,0.0066 0.05182,0.23397 0.12972,0.505362 0.0779,0.271393 0.141642,0.50123 0.141642,0.510749 0,0.03331 -6.25855,0.01806 -6.466931,-0.01576 -0.110455,-0.01792 -0.266742,-0.06599 -0.347304,-0.106812 -0.208575,-0.105693 -0.452683,-0.37621 -0.543908,-0.602752 l -0.07595,-0.188606 V 7.6742526 3.6809933 l 0.07616,-0.1894036 C 16.822036,3.2304683 17.109916,2.9431184 17.360228,2.84959 l 0.182696,-0.068264 h 3.954778 c 3.405833,0 3.976387,0.0065 4.110452,0.046856 0.201799,0.060739 0.444602,0.2465305 0.574216,0.4393868 0.210179,0.3127318 0.198035,-0.042792 0.189225,5.5394942 l -0.008,5.061897 z M 20.197624,9.8114052 20.376662,9.5840722 20.244975,9.5269332 C 19.978037,9.4111082 19.845365,9.33514 19.670936,9.1982359 19.572716,9.1211439 19.498443,9.0519734 19.505892,9.0445242 c 0.0074,-0.00745 0.14716,0.049651 0.31047,0.126889 1.130592,0.5347214 2.466111,0.5236751 3.564536,-0.029483 0.124874,-0.062885 0.233335,-0.1080449 0.241025,-0.1003545 0.05185,0.051852 -0.732075,0.5267131 -0.869528,0.5267131 -0.05692,0 -0.0431,0.024678 0.142368,0.2542222 0.173434,0.214656 0.180267,0.219275 0.323564,0.218739 0.518304,-0.0019 1.242726,-0.3483437 1.515258,-0.7245634 0.08377,-0.1156476 0.08811,-0.1375894 0.07619,-0.3853476 C 24.766155,8.0246999 24.523543,7.0285358 24.150705,6.225247 23.997071,5.894237 23.942851,5.8422298 23.538332,5.6378628 23.139264,5.4362497 22.489425,5.2841125 22.387751,5.3684944 c -0.02694,0.022355 -0.04897,0.049687 -0.04897,0.060738 0,0.011051 0.09588,0.053528 0.213079,0.094394 0.248839,0.086771 0.853217,0.3775763 0.88221,0.4244884 0.01275,0.020632 -0.0018,0.023257 -0.0405,0.00729 -0.231235,-0.095447 -0.700913,-0.2427657 -0.912737,-0.286289 -0.804272,-0.1652527 -1.891768,-0.086994 -2.603493,0.1873525 -0.430076,0.1657802 -0.406106,0.1585989 -0.334493,0.1002121 0.115771,-0.094389 0.603068,-0.3287344 0.894456,-0.4301514 0.238269,-0.082929 0.2858,-0.1097957 0.256564,-0.1450222 -0.11049,-0.133133 -0.898649,0.089192 -1.38203,0.3898453 -0.22446,0.1396098 -0.237859,0.1549284 -0.355967,0.4069646 -0.371779,0.7933546 -0.618479,1.7780854 -0.677009,2.7023601 l -0.02143,0.3383288 0.233446,0.2326464 c 0.167978,0.1674034 0.299841,0.2650981 0.4702,0.3483628 0.287371,0.140455 0.649707,0.2382292 0.883884,0.2385112 l 0.17362,2.21e-4 0.179038,-0.2273336 z"
           id="path2643"
           inkscape:connector-curvature="0"
           transform="scale(0.26458333)" />
        <rect
           style="fill:#7289da;fill-opacity:1;stroke-width:0.26458332"
           id="rect2645"
           width="1.9377041"
           height="1.6704345"
           x="4.7356815"
           y="1.1660408" />
      </g>
    </clipPath>
    <clipPath
       clipPathUnits="userSpaceOnUse"
       id="clipPath4823">
      <g
         inkscape:label="Clip"
         id="use4825"
         style="stroke:none;stroke-width:1.0000031;stroke-miterlimit:4;stroke-dasharray:none;stroke-opacity:1">
        <path
           id="path2635"
           d="m 5.9189238,1.0414555 c -0.07816,3.609e-4 -0.1528021,0.00702 -0.218479,0.018651 C 5.506969,1.0942875 5.4718413,1.1658308 5.4718413,1.2977692 v 0.1742499 h 0.457207 v 0.058083 H 5.4718413 5.3002554 c -0.1328772,0 -0.2492281,0.079867 -0.2856214,0.2318007 -0.041979,0.1741517 -0.04384,0.2828252 0,0.4646675 0.032499,0.1353564 0.1101144,0.2318008 0.2429913,0.2318008 H 5.4148235 V 2.2494844 c 0,-0.1509086 0.1305698,-0.2840226 0.2856213,-0.2840226 h 0.4566743 c 0.1271218,0 0.2286036,-0.1046677 0.2286036,-0.2323337 V 1.2977688 c 0,-0.1239053 -0.1045281,-0.2169831 -0.2286036,-0.2376626 -0.078542,-0.013075 -0.160035,-0.019014 -0.2381953,-0.018651 z M 5.6716696,1.1816022 c 0.047227,0 0.085792,0.039196 0.085792,0.087391 -1e-7,0.048024 -0.038567,0.086859 -0.085792,0.086859 -0.047397,0 -0.085793,-0.038834 -0.085793,-0.086859 0,-0.048195 0.038397,-0.087391 0.085793,-0.087391 z"
           style="fill:#cad6ff;fill-opacity:1;stroke:none;stroke-width:1.0000031;stroke-miterlimit:4;stroke-dasharray:none;stroke-opacity:1"
           inkscape:connector-curvature="0" />
        <path
           id="path2637"
           d="m 6.4427404,1.5301027 v 0.2030256 c 0,0.157403 -0.1334473,0.2898841 -0.2856213,0.2898841 H 5.7004448 c -0.1250908,0 -0.2286035,0.1070611 -0.2286035,0.2323338 v 0.4353592 c 0,0.1239059 0.1077446,0.1967857 0.2286035,0.2323338 0.1447262,0.042555 0.2835109,0.050245 0.4566743,0 C 6.2722229,2.8897135 6.3857227,2.8226433 6.3857227,2.6907054 V 2.5164553 H 5.9290483 v -0.058083 h 0.4566744 0.2286036 c 0.1328772,0 0.1823927,-0.092685 0.2286035,-0.2318007 0.047734,-0.1432179 0.045703,-0.2809453 0,-0.4646674 C 6.810091,1.6296236 6.7473721,1.5301027 6.6143263,1.5301027 Z M 6.1858943,2.632622 c 0.047396,10e-8 0.085793,0.038834 0.085793,0.086858 -1e-7,0.048195 -0.038398,0.087391 -0.085793,0.087391 -0.047226,0 -0.085792,-0.039197 -0.085792,-0.087391 1e-7,-0.048024 0.038567,-0.086858 0.085792,-0.086858 z"
           style="fill:#ffffff;fill-opacity:1;stroke:none;stroke-width:1.0000031;stroke-miterlimit:4;stroke-dasharray:none;stroke-opacity:1"
           inkscape:connector-curvature="0" />
      </g>
    </clipPath>
    <clipPath
       clipPathUnits="userSpaceOnUse"
       id="clipPath4837">
      <g
         id="use4839"
         inkscape:label="Clip">
        <path
           inkscape:connector-curvature="0"
           style="fill:#5b6dae;fill-opacity:1;stroke-width:0.01705202"
           d="M 8.8587208,1.3687791 C 8.7805608,1.36914 8.7059187,1.3757991 8.6402418,1.3874301 8.446766,1.4216111 8.4116383,1.4931544 8.4116383,1.6250928 v 0.1742499 h 0.457207 v 0.058083 H 8.4116383 8.2400524 c -0.1328772,0 -0.2492281,0.079867 -0.2856214,0.2318007 -0.041979,0.1741517 -0.04384,0.2828252 0,0.4646675 0.032499,0.1353564 0.1101144,0.2318008 0.2429913,0.2318008 H 8.3546205 V 2.576808 c 0,-0.1509086 0.1305698,-0.2840226 0.2856213,-0.2840226 h 0.4566743 c 0.1271218,0 0.2286036,-0.1046677 0.2286036,-0.2323337 V 1.6250924 c 0,-0.1239053 -0.1045281,-0.2169831 -0.2286036,-0.2376626 -0.078542,-0.013075 -0.160035,-0.019014 -0.2381953,-0.018651 z M 8.6114666,1.5089258 c 0.047227,0 0.085792,0.039196 0.085792,0.087391 -10e-8,0.048024 -0.038567,0.086859 -0.085792,0.086859 -0.047397,0 -0.085793,-0.038834 -0.085793,-0.086859 0,-0.048195 0.038397,-0.087391 0.085793,-0.087391 z"
           id="path2629" />
        <path
           inkscape:connector-curvature="0"
           style="fill:#5b6dae;fill-opacity:1;stroke-width:0.01705202"
           d="m 9.3825374,1.8574263 v 0.2030256 c 0,0.157403 -0.1334473,0.2898841 -0.2856213,0.2898841 H 8.6402418 c -0.1250908,0 -0.2286035,0.1070611 -0.2286035,0.2323338 V 3.018029 c 0,0.1239059 0.1077446,0.1967857 0.2286035,0.2323338 0.1447262,0.042555 0.2835109,0.050245 0.4566743,0 C 9.2120199,3.2170371 9.3255197,3.1499669 9.3255197,3.018029 V 2.8437789 H 8.8688453 v -0.058083 h 0.4566744 0.2286036 c 0.1328771,0 0.1823931,-0.092685 0.2286031,-0.2318007 0.04773,-0.1432179 0.0457,-0.2809453 0,-0.4646674 C 9.7498884,1.9569472 9.6871694,1.8574263 9.5541233,1.8574263 Z M 9.1256913,2.9599456 c 0.047396,10e-8 0.085793,0.038834 0.085793,0.086858 -1e-7,0.048195 -0.038398,0.087391 -0.085793,0.087391 -0.047226,0 -0.085792,-0.039197 -0.085792,-0.087391 10e-8,-0.048024 0.038567,-0.086858 0.085792,-0.086858 z"
           id="path2631" />
      </g>
    </clipPath>
    <clipPath
       clipPathUnits="userSpaceOnUse"
       id="clipPath4855">
      <g
         inkscape:label="Clip"
         id="use4857">
        <g
           clip-path="url(#clipPath4837)"
           id="g2621">
          <g
             id="g2619"
             inkscape:label="Clip">
            <path
               inkscape:connector-curvature="0"
               style="fill:#5b6dae;fill-opacity:1;stroke-width:0.01705202"
               d="M 8.8587208,1.3687791 C 8.7805608,1.36914 8.7059187,1.3757991 8.6402418,1.3874301 8.446766,1.4216111 8.4116383,1.4931544 8.4116383,1.6250928 v 0.1742499 h 0.457207 v 0.058083 H 8.4116383 8.2400524 c -0.1328772,0 -0.2492281,0.079867 -0.2856214,0.2318007 -0.041979,0.1741517 -0.04384,0.2828252 0,0.4646675 0.032499,0.1353564 0.1101144,0.2318008 0.2429913,0.2318008 H 8.3546205 V 2.576808 c 0,-0.1509086 0.1305698,-0.2840226 0.2856213,-0.2840226 h 0.4566743 c 0.1271218,0 0.2286036,-0.1046677 0.2286036,-0.2323337 V 1.6250924 c 0,-0.1239053 -0.1045281,-0.2169831 -0.2286036,-0.2376626 -0.078542,-0.013075 -0.160035,-0.019014 -0.2381953,-0.018651 z M 8.6114666,1.5089258 c 0.047227,0 0.085792,0.039196 0.085792,0.087391 -10e-8,0.048024 -0.038567,0.086859 -0.085792,0.086859 -0.047397,0 -0.085793,-0.038834 -0.085793,-0.086859 0,-0.048195 0.038397,-0.087391 0.085793,-0.087391 z"
               id="path2615" />
            <path
               inkscape:connector-curvature="0"
               style="fill:#5b6dae;fill-opacity:1;stroke-width:0.01705202"
               d="m 9.3825374,1.8574263 v 0.2030256 c 0,0.157403 -0.1334473,0.2898841 -0.2856213,0.2898841 H 8.6402418 c -0.1250908,0 -0.2286035,0.1070611 -0.2286035,0.2323338 V 3.018029 c 0,0.1239059 0.1077446,0.1967857 0.2286035,0.2323338 0.1447262,0.042555 0.2835109,0.050245 0.4566743,0 C 9.2120199,3.2170371 9.3255197,3.1499669 9.3255197,3.018029 V 2.8437789 H 8.8688453 v -0.058083 h 0.4566744 0.2286036 c 0.1328771,0 0.1823931,-0.092685 0.2286031,-0.2318007 0.04773,-0.1432179 0.0457,-0.2809453 0,-0.4646674 C 9.7498884,1.9569472 9.6871694,1.8574263 9.5541233,1.8574263 Z M 9.1256913,2.9599456 c 0.047396,10e-8 0.085793,0.038834 0.085793,0.086858 -1e-7,0.048195 -0.038398,0.087391 -0.085793,0.087391 -0.047226,0 -0.085792,-0.039197 -0.085792,-0.087391 10e-8,-0.048024 0.038567,-0.086858 0.085792,-0.086858 z"
               id="path2617" />
          </g>
        </g>
        <rect
           y="1.4959514"
           x="8.4858074"
           height="0.23803692"
           width="0.26309344"
           id="rect2623"
           style="fill:#5b6dae;fill-opacity:1;stroke-width:0.26458332" />
        <rect
           y="2.9367013"
           x="9.0119944"
           height="0.22133258"
           width="0.22968476"
           id="rect2625"
           style="fill:#5b6dae;fill-opacity:1;stroke-width:0.26458332" />
      </g>
    </clipPath>
    <clipPath
       clipPathUnits="userSpaceOnUse"
       id="clipPath4901">
      <g
         id="use4903"
         inkscape:label="Clip">
        <g
           id="g2609"
           clip-path="url(#clipPath4855)"
           transform="translate(-2.8377931,-0.23976758)">
          <g
             inkscape:label="Clip"
             id="g2607">
            <g
               clip-path="url(#clipPath4837)"
               id="g2601">
              <g
                 id="g2599"
                 inkscape:label="Clip">
                <path
                   inkscape:connector-curvature="0"
                   style="fill:#5b6dae;fill-opacity:1;stroke-width:0.01705202"
                   d="M 8.8587208,1.3687791 C 8.7805608,1.36914 8.7059187,1.3757991 8.6402418,1.3874301 8.446766,1.4216111 8.4116383,1.4931544 8.4116383,1.6250928 v 0.1742499 h 0.457207 v 0.058083 H 8.4116383 8.2400524 c -0.1328772,0 -0.2492281,0.079867 -0.2856214,0.2318007 -0.041979,0.1741517 -0.04384,0.2828252 0,0.4646675 0.032499,0.1353564 0.1101144,0.2318008 0.2429913,0.2318008 H 8.3546205 V 2.576808 c 0,-0.1509086 0.1305698,-0.2840226 0.2856213,-0.2840226 h 0.4566743 c 0.1271218,0 0.2286036,-0.1046677 0.2286036,-0.2323337 V 1.6250924 c 0,-0.1239053 -0.1045281,-0.2169831 -0.2286036,-0.2376626 -0.078542,-0.013075 -0.160035,-0.019014 -0.2381953,-0.018651 z M 8.6114666,1.5089258 c 0.047227,0 0.085792,0.039196 0.085792,0.087391 -10e-8,0.048024 -0.038567,0.086859 -0.085792,0.086859 -0.047397,0 -0.085793,-0.038834 -0.085793,-0.086859 0,-0.048195 0.038397,-0.087391 0.085793,-0.087391 z"
                   id="path2595" />
                <path
                   inkscape:connector-curvature="0"
                   style="fill:#5b6dae;fill-opacity:1;stroke-width:0.01705202"
                   d="m 9.3825374,1.8574263 v 0.2030256 c 0,0.157403 -0.1334473,0.2898841 -0.2856213,0.2898841 H 8.6402418 c -0.1250908,0 -0.2286035,0.1070611 -0.2286035,0.2323338 V 3.018029 c 0,0.1239059 0.1077446,0.1967857 0.2286035,0.2323338 0.1447262,0.042555 0.2835109,0.050245 0.4566743,0 C 9.2120199,3.2170371 9.3255197,3.1499669 9.3255197,3.018029 V 2.8437789 H 8.8688453 v -0.058083 h 0.4566744 0.2286036 c 0.1328771,0 0.1823931,-0.092685 0.2286031,-0.2318007 0.04773,-0.1432179 0.0457,-0.2809453 0,-0.4646674 C 9.7498884,1.9569472 9.6871694,1.8574263 9.5541233,1.8574263 Z M 9.1256913,2.9599456 c 0.047396,10e-8 0.085793,0.038834 0.085793,0.086858 -1e-7,0.048195 -0.038398,0.087391 -0.085793,0.087391 -0.047226,0 -0.085792,-0.039197 -0.085792,-0.087391 10e-8,-0.048024 0.038567,-0.086858 0.085792,-0.086858 z"
                   id="path2597" />
              </g>
            </g>
            <rect
               y="1.4959514"
               x="8.4858074"
               height="0.23803692"
               width="0.26309344"
               id="rect2603"
               style="fill:#5b6dae;fill-opacity:1;stroke-width:0.26458332" />
            <rect
               y="2.9367013"
               x="9.0119944"
               height="0.22133258"
               width="0.22968476"
               id="rect2605"
               style="fill:#5b6dae;fill-opacity:1;stroke-width:0.26458332" />
          </g>
        </g>
        <rect
           style="fill:#5b6dae;fill-opacity:1;stroke-width:0.26458332"
           id="rect2611"
           width="0.2370182"
           height="0.10896251"
           x="5.5366554"
           y="1.1601957" />
      </g>
    </clipPath>
    <clipPath
       clipPathUnits="userSpaceOnUse"
       id="clipPath4957">
      <g
         inkscape:label="Clip"
         id="use4959">
        <g
           transform="matrix(63.8638,0,0,63.8638,-273.24001,-38.357102)"
           clip-path="url(#clipPath4901)"
           id="g2589">
          <g
             id="g2587"
             inkscape:label="Clip">
            <g
               id="g2583"
               clip-path="url(#clipPath4855)"
               transform="translate(-2.8377931,-0.23976758)">
              <g
                 inkscape:label="Clip"
                 id="g2581">
                <g
                   clip-path="url(#clipPath4837)"
                   id="g2575">
                  <g
                     id="g2573"
                     inkscape:label="Clip">
                    <path
                       inkscape:connector-curvature="0"
                       style="fill:#5b6dae;fill-opacity:1;stroke-width:0.01705202"
                       d="M 8.8587208,1.3687791 C 8.7805608,1.36914 8.7059187,1.3757991 8.6402418,1.3874301 8.446766,1.4216111 8.4116383,1.4931544 8.4116383,1.6250928 v 0.1742499 h 0.457207 v 0.058083 H 8.4116383 8.2400524 c -0.1328772,0 -0.2492281,0.079867 -0.2856214,0.2318007 -0.041979,0.1741517 -0.04384,0.2828252 0,0.4646675 0.032499,0.1353564 0.1101144,0.2318008 0.2429913,0.2318008 H 8.3546205 V 2.576808 c 0,-0.1509086 0.1305698,-0.2840226 0.2856213,-0.2840226 h 0.4566743 c 0.1271218,0 0.2286036,-0.1046677 0.2286036,-0.2323337 V 1.6250924 c 0,-0.1239053 -0.1045281,-0.2169831 -0.2286036,-0.2376626 -0.078542,-0.013075 -0.160035,-0.019014 -0.2381953,-0.018651 z M 8.6114666,1.5089258 c 0.047227,0 0.085792,0.039196 0.085792,0.087391 -10e-8,0.048024 -0.038567,0.086859 -0.085792,0.086859 -0.047397,0 -0.085793,-0.038834 -0.085793,-0.086859 0,-0.048195 0.038397,-0.087391 0.085793,-0.087391 z"
                       id="path2569" />
                    <path
                       inkscape:connector-curvature="0"
                       style="fill:#5b6dae;fill-opacity:1;stroke-width:0.01705202"
                       d="m 9.3825374,1.8574263 v 0.2030256 c 0,0.157403 -0.1334473,0.2898841 -0.2856213,0.2898841 H 8.6402418 c -0.1250908,0 -0.2286035,0.1070611 -0.2286035,0.2323338 V 3.018029 c 0,0.1239059 0.1077446,0.1967857 0.2286035,0.2323338 0.1447262,0.042555 0.2835109,0.050245 0.4566743,0 C 9.2120199,3.2170371 9.3255197,3.1499669 9.3255197,3.018029 V 2.8437789 H 8.8688453 v -0.058083 h 0.4566744 0.2286036 c 0.1328771,0 0.1823931,-0.092685 0.2286031,-0.2318007 0.04773,-0.1432179 0.0457,-0.2809453 0,-0.4646674 C 9.7498884,1.9569472 9.6871694,1.8574263 9.5541233,1.8574263 Z M 9.1256913,2.9599456 c 0.047396,10e-8 0.085793,0.038834 0.085793,0.086858 -1e-7,0.048195 -0.038398,0.087391 -0.085793,0.087391 -0.047226,0 -0.085792,-0.039197 -0.085792,-0.087391 10e-8,-0.048024 0.038567,-0.086858 0.085792,-0.086858 z"
                       id="path2571" />
                  </g>
                </g>
                <rect
                   y="1.4959514"
                   x="8.4858074"
                   height="0.23803692"
                   width="0.26309344"
                   id="rect2577"
                   style="fill:#5b6dae;fill-opacity:1;stroke-width:0.26458332" />
                <rect
                   y="2.9367013"
                   x="9.0119944"
                   height="0.22133258"
                   width="0.22968476"
                   id="rect2579"
                   style="fill:#5b6dae;fill-opacity:1;stroke-width:0.26458332" />
              </g>
            </g>
            <rect
               style="fill:#5b6dae;fill-opacity:1;stroke-width:0.26458332"
               id="rect2585"
               width="0.2370182"
               height="0.10896251"
               x="5.5366554"
               y="1.1601957" />
          </g>
        </g>
        <path
           inkscape:connector-curvature="0"
           id="path2591"
           d="m 134.57651,122.35329 6.51435,5.59167 v 0.78632 h -7.97237 v -6.08623 z"
           style="fill:#5b6dae;fill-opacity:1;stroke:none;stroke-width:0.26458332px;stroke-linecap:butt;stroke-linejoin:miter;stroke-opacity:1" />
      </g>
    </clipPath>
    <clipPath
       clipPathUnits="userSpaceOnUse"
       id="clipPath4986">
      <g
         id="use4988"
         inkscape:label="Clip">
        <g
           id="g2563"
           clip-path="url(#clipPath4957)">
          <g
             inkscape:label="Clip"
             id="g2561">
            <g
               transform="matrix(63.8638,0,0,63.8638,-273.24001,-38.357102)"
               clip-path="url(#clipPath4901)"
               id="g2557">
              <g
                 id="g2555"
                 inkscape:label="Clip">
                <g
                   id="g2551"
                   clip-path="url(#clipPath4855)"
                   transform="translate(-2.8377931,-0.23976758)">
                  <g
                     inkscape:label="Clip"
                     id="g2549">
                    <g
                       clip-path="url(#clipPath4837)"
                       id="g2543">
                      <g
                         id="g2541"
                         inkscape:label="Clip">
                        <path
                           inkscape:connector-curvature="0"
                           style="fill:#5b6dae;fill-opacity:1;stroke-width:0.01705202"
                           d="M 8.8587208,1.3687791 C 8.7805608,1.36914 8.7059187,1.3757991 8.6402418,1.3874301 8.446766,1.4216111 8.4116383,1.4931544 8.4116383,1.6250928 v 0.1742499 h 0.457207 v 0.058083 H 8.4116383 8.2400524 c -0.1328772,0 -0.2492281,0.079867 -0.2856214,0.2318007 -0.041979,0.1741517 -0.04384,0.2828252 0,0.4646675 0.032499,0.1353564 0.1101144,0.2318008 0.2429913,0.2318008 H 8.3546205 V 2.576808 c 0,-0.1509086 0.1305698,-0.2840226 0.2856213,-0.2840226 h 0.4566743 c 0.1271218,0 0.2286036,-0.1046677 0.2286036,-0.2323337 V 1.6250924 c 0,-0.1239053 -0.1045281,-0.2169831 -0.2286036,-0.2376626 -0.078542,-0.013075 -0.160035,-0.019014 -0.2381953,-0.018651 z M 8.6114666,1.5089258 c 0.047227,0 0.085792,0.039196 0.085792,0.087391 -10e-8,0.048024 -0.038567,0.086859 -0.085792,0.086859 -0.047397,0 -0.085793,-0.038834 -0.085793,-0.086859 0,-0.048195 0.038397,-0.087391 0.085793,-0.087391 z"
                           id="path2537" />
                        <path
                           inkscape:connector-curvature="0"
                           style="fill:#5b6dae;fill-opacity:1;stroke-width:0.01705202"
                           d="m 9.3825374,1.8574263 v 0.2030256 c 0,0.157403 -0.1334473,0.2898841 -0.2856213,0.2898841 H 8.6402418 c -0.1250908,0 -0.2286035,0.1070611 -0.2286035,0.2323338 V 3.018029 c 0,0.1239059 0.1077446,0.1967857 0.2286035,0.2323338 0.1447262,0.042555 0.2835109,0.050245 0.4566743,0 C 9.2120199,3.2170371 9.3255197,3.1499669 9.3255197,3.018029 V 2.8437789 H 8.8688453 v -0.058083 h 0.4566744 0.2286036 c 0.1328771,0 0.1823931,-0.092685 0.2286031,-0.2318007 0.04773,-0.1432179 0.0457,-0.2809453 0,-0.4646674 C 9.7498884,1.9569472 9.6871694,1.8574263 9.5541233,1.8574263 Z M 9.1256913,2.9599456 c 0.047396,10e-8 0.085793,0.038834 0.085793,0.086858 -1e-7,0.048195 -0.038398,0.087391 -0.085793,0.087391 -0.047226,0 -0.085792,-0.039197 -0.085792,-0.087391 10e-8,-0.048024 0.038567,-0.086858 0.085792,-0.086858 z"
                           id="path2539" />
                      </g>
                    </g>
                    <rect
                       y="1.4959514"
                       x="8.4858074"
                       height="0.23803692"
                       width="0.26309344"
                       id="rect2545"
                       style="fill:#5b6dae;fill-opacity:1;stroke-width:0.26458332" />
                    <rect
                       y="2.9367013"
                       x="9.0119944"
                       height="0.22133258"
                       width="0.22968476"
                       id="rect2547"
                       style="fill:#5b6dae;fill-opacity:1;stroke-width:0.26458332" />
                  </g>
                </g>
                <rect
                   style="fill:#5b6dae;fill-opacity:1;stroke-width:0.26458332"
                   id="rect2553"
                   width="0.2370182"
                   height="0.10896251"
                   x="5.5366554"
                   y="1.1601957" />
              </g>
            </g>
            <path
               inkscape:connector-curvature="0"
               id="path2559"
               d="m 134.57651,122.35329 6.51435,5.59167 v 0.78632 h -7.97237 v -6.08623 z"
               style="fill:#5b6dae;fill-opacity:1;stroke:none;stroke-width:0.26458332px;stroke-linecap:butt;stroke-linejoin:miter;stroke-opacity:1" />
          </g>
        </g>
        <rect
           style="opacity:1;fill:#5b6dae;fill-opacity:1;stroke:none;stroke-width:0.26458332"
           id="rect2565"
           width="2.8442707"
           height="4.299479"
           x="82.020836"
           y="41.280209" />
      </g>
    </clipPath>
    <clipPath
       clipPathUnits="userSpaceOnUse"
       id="clipPath5033">
      <g
         inkscape:label="Clip"
         id="use5035">
        <g
           clip-path="url(#clipPath4986)"
           id="g2531">
          <g
             id="g2529"
             inkscape:label="Clip">
            <g
               id="g2525"
               clip-path="url(#clipPath4957)">
              <g
                 inkscape:label="Clip"
                 id="g2523">
                <g
                   transform="matrix(63.8638,0,0,63.8638,-273.24001,-38.357102)"
                   clip-path="url(#clipPath4901)"
                   id="g2519">
                  <g
                     id="g2517"
                     inkscape:label="Clip">
                    <g
                       id="g2513"
                       clip-path="url(#clipPath4855)"
                       transform="translate(-2.8377931,-0.23976758)">
                      <g
                         inkscape:label="Clip"
                         id="g2511">
                        <g
                           clip-path="url(#clipPath4837)"
                           id="g2505">
                          <g
                             id="g2503"
                             inkscape:label="Clip">
                            <path
                               inkscape:connector-curvature="0"
                               style="fill:#5b6dae;fill-opacity:1;stroke-width:0.01705202"
                               d="M 8.8587208,1.3687791 C 8.7805608,1.36914 8.7059187,1.3757991 8.6402418,1.3874301 8.446766,1.4216111 8.4116383,1.4931544 8.4116383,1.6250928 v 0.1742499 h 0.457207 v 0.058083 H 8.4116383 8.2400524 c -0.1328772,0 -0.2492281,0.079867 -0.2856214,0.2318007 -0.041979,0.1741517 -0.04384,0.2828252 0,0.4646675 0.032499,0.1353564 0.1101144,0.2318008 0.2429913,0.2318008 H 8.3546205 V 2.576808 c 0,-0.1509086 0.1305698,-0.2840226 0.2856213,-0.2840226 h 0.4566743 c 0.1271218,0 0.2286036,-0.1046677 0.2286036,-0.2323337 V 1.6250924 c 0,-0.1239053 -0.1045281,-0.2169831 -0.2286036,-0.2376626 -0.078542,-0.013075 -0.160035,-0.019014 -0.2381953,-0.018651 z M 8.6114666,1.5089258 c 0.047227,0 0.085792,0.039196 0.085792,0.087391 -10e-8,0.048024 -0.038567,0.086859 -0.085792,0.086859 -0.047397,0 -0.085793,-0.038834 -0.085793,-0.086859 0,-0.048195 0.038397,-0.087391 0.085793,-0.087391 z"
                               id="path2499" />
                            <path
                               inkscape:connector-curvature="0"
                               style="fill:#5b6dae;fill-opacity:1;stroke-width:0.01705202"
                               d="m 9.3825374,1.8574263 v 0.2030256 c 0,0.157403 -0.1334473,0.2898841 -0.2856213,0.2898841 H 8.6402418 c -0.1250908,0 -0.2286035,0.1070611 -0.2286035,0.2323338 V 3.018029 c 0,0.1239059 0.1077446,0.1967857 0.2286035,0.2323338 0.1447262,0.042555 0.2835109,0.050245 0.4566743,0 C 9.2120199,3.2170371 9.3255197,3.1499669 9.3255197,3.018029 V 2.8437789 H 8.8688453 v -0.058083 h 0.4566744 0.2286036 c 0.1328771,0 0.1823931,-0.092685 0.2286031,-0.2318007 0.04773,-0.1432179 0.0457,-0.2809453 0,-0.4646674 C 9.7498884,1.9569472 9.6871694,1.8574263 9.5541233,1.8574263 Z M 9.1256913,2.9599456 c 0.047396,10e-8 0.085793,0.038834 0.085793,0.086858 -1e-7,0.048195 -0.038398,0.087391 -0.085793,0.087391 -0.047226,0 -0.085792,-0.039197 -0.085792,-0.087391 10e-8,-0.048024 0.038567,-0.086858 0.085792,-0.086858 z"
                               id="path2501" />
                          </g>
                        </g>
                        <rect
                           y="1.4959514"
                           x="8.4858074"
                           height="0.23803692"
                           width="0.26309344"
                           id="rect2507"
                           style="fill:#5b6dae;fill-opacity:1;stroke-width:0.26458332" />
                        <rect
                           y="2.9367013"
                           x="9.0119944"
                           height="0.22133258"
                           width="0.22968476"
                           id="rect2509"
                           style="fill:#5b6dae;fill-opacity:1;stroke-width:0.26458332" />
                      </g>
                    </g>
                    <rect
                       style="fill:#5b6dae;fill-opacity:1;stroke-width:0.26458332"
                       id="rect2515"
                       width="0.2370182"
                       height="0.10896251"
                       x="5.5366554"
                       y="1.1601957" />
                  </g>
                </g>
                <path
                   inkscape:connector-curvature="0"
                   id="path2521"
                   d="m 134.57651,122.35329 6.51435,5.59167 v 0.78632 h -7.97237 v -6.08623 z"
                   style="fill:#5b6dae;fill-opacity:1;stroke:none;stroke-width:0.26458332px;stroke-linecap:butt;stroke-linejoin:miter;stroke-opacity:1" />
              </g>
            </g>
            <rect
               style="opacity:1;fill:#5b6dae;fill-opacity:1;stroke:none;stroke-width:0.26458332"
               id="rect2527"
               width="2.8442707"
               height="4.299479"
               x="82.020836"
               y="41.280209" />
          </g>
        </g>
        <path
           inkscape:connector-curvature="0"
           id="path2533"
           d="m 76.212572,55.651629 6.514351,5.591662 h 6.935319 V 51.586439 H 77.033759 Z"
           style="fill:#5b6dae;fill-opacity:1;stroke:none;stroke-width:0.26458332px;stroke-linecap:butt;stroke-linejoin:miter;stroke-opacity:1" />
      </g>
    </clipPath>
    <clipPath
       clipPathUnits="userSpaceOnUse"
       id="clipPath5074">
      <g
         id="use5076"
         inkscape:label="Clip">
        <g
           id="g2493"
           clip-path="url(#clipPath5033)">
          <g
             inkscape:label="Clip"
             id="g2491">
            <g
               clip-path="url(#clipPath4986)"
               id="g2487">
              <g
                 id="g2485"
                 inkscape:label="Clip">
                <g
                   id="g2481"
                   clip-path="url(#clipPath4957)">
                  <g
                     inkscape:label="Clip"
                     id="g2479">
                    <g
                       transform="matrix(63.8638,0,0,63.8638,-273.24001,-38.357102)"
                       clip-path="url(#clipPath4901)"
                       id="g2475">
                      <g
                         id="g2473"
                         inkscape:label="Clip">
                        <g
                           id="g2469"
                           clip-path="url(#clipPath4855)"
                           transform="translate(-2.8377931,-0.23976758)">
                          <g
                             inkscape:label="Clip"
                             id="g2467">
                            <g
                               clip-path="url(#clipPath4837)"
                               id="g2461">
                              <g
                                 id="g2459"
                                 inkscape:label="Clip">
                                <path
                                   inkscape:connector-curvature="0"
                                   style="fill:#5b6dae;fill-opacity:1;stroke-width:0.01705202"
                                   d="M 8.8587208,1.3687791 C 8.7805608,1.36914 8.7059187,1.3757991 8.6402418,1.3874301 8.446766,1.4216111 8.4116383,1.4931544 8.4116383,1.6250928 v 0.1742499 h 0.457207 v 0.058083 H 8.4116383 8.2400524 c -0.1328772,0 -0.2492281,0.079867 -0.2856214,0.2318007 -0.041979,0.1741517 -0.04384,0.2828252 0,0.4646675 0.032499,0.1353564 0.1101144,0.2318008 0.2429913,0.2318008 H 8.3546205 V 2.576808 c 0,-0.1509086 0.1305698,-0.2840226 0.2856213,-0.2840226 h 0.4566743 c 0.1271218,0 0.2286036,-0.1046677 0.2286036,-0.2323337 V 1.6250924 c 0,-0.1239053 -0.1045281,-0.2169831 -0.2286036,-0.2376626 -0.078542,-0.013075 -0.160035,-0.019014 -0.2381953,-0.018651 z M 8.6114666,1.5089258 c 0.047227,0 0.085792,0.039196 0.085792,0.087391 -10e-8,0.048024 -0.038567,0.086859 -0.085792,0.086859 -0.047397,0 -0.085793,-0.038834 -0.085793,-0.086859 0,-0.048195 0.038397,-0.087391 0.085793,-0.087391 z"
                                   id="path2455" />
                                <path
                                   inkscape:connector-curvature="0"
                                   style="fill:#5b6dae;fill-opacity:1;stroke-width:0.01705202"
                                   d="m 9.3825374,1.8574263 v 0.2030256 c 0,0.157403 -0.1334473,0.2898841 -0.2856213,0.2898841 H 8.6402418 c -0.1250908,0 -0.2286035,0.1070611 -0.2286035,0.2323338 V 3.018029 c 0,0.1239059 0.1077446,0.1967857 0.2286035,0.2323338 0.1447262,0.042555 0.2835109,0.050245 0.4566743,0 C 9.2120199,3.2170371 9.3255197,3.1499669 9.3255197,3.018029 V 2.8437789 H 8.8688453 v -0.058083 h 0.4566744 0.2286036 c 0.1328771,0 0.1823931,-0.092685 0.2286031,-0.2318007 0.04773,-0.1432179 0.0457,-0.2809453 0,-0.4646674 C 9.7498884,1.9569472 9.6871694,1.8574263 9.5541233,1.8574263 Z M 9.1256913,2.9599456 c 0.047396,10e-8 0.085793,0.038834 0.085793,0.086858 -1e-7,0.048195 -0.038398,0.087391 -0.085793,0.087391 -0.047226,0 -0.085792,-0.039197 -0.085792,-0.087391 10e-8,-0.048024 0.038567,-0.086858 0.085792,-0.086858 z"
                                   id="path2457" />
                              </g>
                            </g>
                            <rect
                               y="1.4959514"
                               x="8.4858074"
                               height="0.23803692"
                               width="0.26309344"
                               id="rect2463"
                               style="fill:#5b6dae;fill-opacity:1;stroke-width:0.26458332" />
                            <rect
                               y="2.9367013"
                               x="9.0119944"
                               height="0.22133258"
                               width="0.22968476"
                               id="rect2465"
                               style="fill:#5b6dae;fill-opacity:1;stroke-width:0.26458332" />
                          </g>
                        </g>
                        <rect
                           style="fill:#5b6dae;fill-opacity:1;stroke-width:0.26458332"
                           id="rect2471"
                           width="0.2370182"
                           height="0.10896251"
                           x="5.5366554"
                           y="1.1601957" />
                      </g>
                    </g>
                    <path
                       inkscape:connector-curvature="0"
                       id="path2477"
                       d="m 134.57651,122.35329 6.51435,5.59167 v 0.78632 h -7.97237 v -6.08623 z"
                       style="fill:#5b6dae;fill-opacity:1;stroke:none;stroke-width:0.26458332px;stroke-linecap:butt;stroke-linejoin:miter;stroke-opacity:1" />
                  </g>
                </g>
                <rect
                   style="opacity:1;fill:#5b6dae;fill-opacity:1;stroke:none;stroke-width:0.26458332"
                   id="rect2483"
                   width="2.8442707"
                   height="4.299479"
                   x="82.020836"
                   y="41.280209" />
              </g>
            </g>
            <path
               inkscape:connector-curvature="0"
               id="path2489"
               d="m 76.212572,55.651629 6.514351,5.591662 h 6.935319 V 51.586439 H 77.033759 Z"
               style="fill:#5b6dae;fill-opacity:1;stroke:none;stroke-width:0.26458332px;stroke-linecap:butt;stroke-linejoin:miter;stroke-opacity:1" />
          </g>
        </g>
        <path
           style="fill:#5b6dae;fill-opacity:1;stroke:none;stroke-width:0.26458332px;stroke-linecap:butt;stroke-linejoin:miter;stroke-opacity:1"
           d="m 129.12239,33.45736 6.26748,5.402184 -2.4712,5.35988 -12.14028,-8.37878 z"
           id="path2495"
           inkscape:connector-curvature="0"
           sodipodi:nodetypes="ccccc" />
      </g>
    </clipPath>
    <clipPath
       clipPathUnits="userSpaceOnUse"
       id="clipPath5112">
      <g
         inkscape:label="Clip"
         id="use5114">
        <g
           clip-path="url(#clipPath5074)"
           id="g2449">
          <g
             id="g2447"
             inkscape:label="Clip">
            <g
               id="g2443"
               clip-path="url(#clipPath5033)">
              <g
                 inkscape:label="Clip"
                 id="g2441">
                <g
                   clip-path="url(#clipPath4986)"
                   id="g2437">
                  <g
                     id="g2435"
                     inkscape:label="Clip">
                    <g
                       id="g2431"
                       clip-path="url(#clipPath4957)">
                      <g
                         inkscape:label="Clip"
                         id="g2429">
                        <g
                           transform="matrix(63.8638,0,0,63.8638,-273.24001,-38.357102)"
                           clip-path="url(#clipPath4901)"
                           id="g2425">
                          <g
                             id="g2423"
                             inkscape:label="Clip">
                            <g
                               id="g2419"
                               clip-path="url(#clipPath4855)"
                               transform="translate(-2.8377931,-0.23976758)">
                              <g
                                 inkscape:label="Clip"
                                 id="g2417">
                                <g
                                   clip-path="url(#clipPath4837)"
                                   id="g2411">
                                <g
                                   id="g2409"
                                   inkscape:label="Clip">
                                <path
                                   inkscape:connector-curvature="0"
                                   style="fill:#5b6dae;fill-opacity:1;stroke-width:0.01705202"
                                   d="M 8.8587208,1.3687791 C 8.7805608,1.36914 8.7059187,1.3757991 8.6402418,1.3874301 8.446766,1.4216111 8.4116383,1.4931544 8.4116383,1.6250928 v 0.1742499 h 0.457207 v 0.058083 H 8.4116383 8.2400524 c -0.1328772,0 -0.2492281,0.079867 -0.2856214,0.2318007 -0.041979,0.1741517 -0.04384,0.2828252 0,0.4646675 0.032499,0.1353564 0.1101144,0.2318008 0.2429913,0.2318008 H 8.3546205 V 2.576808 c 0,-0.1509086 0.1305698,-0.2840226 0.2856213,-0.2840226 h 0.4566743 c 0.1271218,0 0.2286036,-0.1046677 0.2286036,-0.2323337 V 1.6250924 c 0,-0.1239053 -0.1045281,-0.2169831 -0.2286036,-0.2376626 -0.078542,-0.013075 -0.160035,-0.019014 -0.2381953,-0.018651 z M 8.6114666,1.5089258 c 0.047227,0 0.085792,0.039196 0.085792,0.087391 -10e-8,0.048024 -0.038567,0.086859 -0.085792,0.086859 -0.047397,0 -0.085793,-0.038834 -0.085793,-0.086859 0,-0.048195 0.038397,-0.087391 0.085793,-0.087391 z"
                                   id="path2405" />
                                <path
                                   inkscape:connector-curvature="0"
                                   style="fill:#5b6dae;fill-opacity:1;stroke-width:0.01705202"
                                   d="m 9.3825374,1.8574263 v 0.2030256 c 0,0.157403 -0.1334473,0.2898841 -0.2856213,0.2898841 H 8.6402418 c -0.1250908,0 -0.2286035,0.1070611 -0.2286035,0.2323338 V 3.018029 c 0,0.1239059 0.1077446,0.1967857 0.2286035,0.2323338 0.1447262,0.042555 0.2835109,0.050245 0.4566743,0 C 9.2120199,3.2170371 9.3255197,3.1499669 9.3255197,3.018029 V 2.8437789 H 8.8688453 v -0.058083 h 0.4566744 0.2286036 c 0.1328771,0 0.1823931,-0.092685 0.2286031,-0.2318007 0.04773,-0.1432179 0.0457,-0.2809453 0,-0.4646674 C 9.7498884,1.9569472 9.6871694,1.8574263 9.5541233,1.8574263 Z M 9.1256913,2.9599456 c 0.047396,10e-8 0.085793,0.038834 0.085793,0.086858 -1e-7,0.048195 -0.038398,0.087391 -0.085793,0.087391 -0.047226,0 -0.085792,-0.039197 -0.085792,-0.087391 10e-8,-0.048024 0.038567,-0.086858 0.085792,-0.086858 z"
                                   id="path2407" />
                                </g>
                                </g>
                                <rect
                                   y="1.4959514"
                                   x="8.4858074"
                                   height="0.23803692"
                                   width="0.26309344"
                                   id="rect2413"
                                   style="fill:#5b6dae;fill-opacity:1;stroke-width:0.26458332" />
                                <rect
                                   y="2.9367013"
                                   x="9.0119944"
                                   height="0.22133258"
                                   width="0.22968476"
                                   id="rect2415"
                                   style="fill:#5b6dae;fill-opacity:1;stroke-width:0.26458332" />
                              </g>
                            </g>
                            <rect
                               style="fill:#5b6dae;fill-opacity:1;stroke-width:0.26458332"
                               id="rect2421"
                               width="0.2370182"
                               height="0.10896251"
                               x="5.5366554"
                               y="1.1601957" />
                          </g>
                        </g>
                        <path
                           inkscape:connector-curvature="0"
                           id="path2427"
                           d="m 134.57651,122.35329 6.51435,5.59167 v 0.78632 h -7.97237 v -6.08623 z"
                           style="fill:#5b6dae;fill-opacity:1;stroke:none;stroke-width:0.26458332px;stroke-linecap:butt;stroke-linejoin:miter;stroke-opacity:1" />
                      </g>
                    </g>
                    <rect
                       style="opacity:1;fill:#5b6dae;fill-opacity:1;stroke:none;stroke-width:0.26458332"
                       id="rect2433"
                       width="2.8442707"
                       height="4.299479"
                       x="82.020836"
                       y="41.280209" />
                  </g>
                </g>
                <path
                   inkscape:connector-curvature="0"
                   id="path2439"
                   d="m 76.212572,55.651629 6.514351,5.591662 h 6.935319 V 51.586439 H 77.033759 Z"
                   style="fill:#5b6dae;fill-opacity:1;stroke:none;stroke-width:0.26458332px;stroke-linecap:butt;stroke-linejoin:miter;stroke-opacity:1" />
              </g>
            </g>
            <path
               style="fill:#5b6dae;fill-opacity:1;stroke:none;stroke-width:0.26458332px;stroke-linecap:butt;stroke-linejoin:miter;stroke-opacity:1"
               d="m 129.12239,33.45736 6.26748,5.402184 -2.4712,5.35988 -12.14028,-8.37878 z"
               id="path2445"
               inkscape:connector-curvature="0"
               sodipodi:nodetypes="ccccc" />
          </g>
        </g>
        <path
           inkscape:connector-curvature="0"
           id="path2451"
           d="m 53.694446,115.57076 6.302551,5.49574 7.448466,0.25724 -12.932502,-12.93251 z"
           style="fill:#5b6dae;fill-opacity:1;stroke:none;stroke-width:0.26458332px;stroke-linecap:butt;stroke-linejoin:miter;stroke-opacity:1"
           sodipodi:nodetypes="ccccc" />
      </g>
    </clipPath>
    <clipPath
       clipPathUnits="userSpaceOnUse"
       id="clipPath5155">
      <g
         id="use5157"
         inkscape:label="Clip">
        <path
           style="fill:#5b6dae;fill-opacity:1;stroke:none;stroke-width:0.26458332px;stroke-linecap:butt;stroke-linejoin:miter;stroke-opacity:1"
           d="m 139.56325,58.866426 6.53721,5.613429 2.80993,13.671924 -22.00043,-12.701952 z"
           id="path2341"
           inkscape:connector-curvature="0"
           sodipodi:nodetypes="ccccc" />
        <g
           id="g2393"
           clip-path="url(#clipPath5112)"
           transform="translate(-17.859375,-3.3072917)">
          <g
             inkscape:label="Clip"
             id="g2391">
            <g
               clip-path="url(#clipPath5074)"
               id="g2387">
              <g
                 id="g2385"
                 inkscape:label="Clip">
                <g
                   id="g2381"
                   clip-path="url(#clipPath5033)">
                  <g
                     inkscape:label="Clip"
                     id="g2379">
                    <g
                       clip-path="url(#clipPath4986)"
                       id="g2375">
                      <g
                         id="g2373"
                         inkscape:label="Clip">
                        <g
                           id="g2369"
                           clip-path="url(#clipPath4957)">
                          <g
                             inkscape:label="Clip"
                             id="g2367">
                            <g
                               transform="matrix(63.8638,0,0,63.8638,-273.24001,-38.357102)"
                               clip-path="url(#clipPath4901)"
                               id="g2363">
                              <g
                                 id="g2361"
                                 inkscape:label="Clip">
                                <g
                                   id="g2357"
                                   clip-path="url(#clipPath4855)"
                                   transform="translate(-2.8377931,-0.23976758)">
                                <g
                                   inkscape:label="Clip"
                                   id="g2355">
                                <g
                                   clip-path="url(#clipPath4837)"
                                   id="g2349">
                                <g
                                   id="g2347"
                                   inkscape:label="Clip">
                                <path
                                   inkscape:connector-curvature="0"
                                   style="fill:#5b6dae;fill-opacity:1;stroke-width:0.01705202"
                                   d="M 8.8587208,1.3687791 C 8.7805608,1.36914 8.7059187,1.3757991 8.6402418,1.3874301 8.446766,1.4216111 8.4116383,1.4931544 8.4116383,1.6250928 v 0.1742499 h 0.457207 v 0.058083 H 8.4116383 8.2400524 c -0.1328772,0 -0.2492281,0.079867 -0.2856214,0.2318007 -0.041979,0.1741517 -0.04384,0.2828252 0,0.4646675 0.032499,0.1353564 0.1101144,0.2318008 0.2429913,0.2318008 H 8.3546205 V 2.576808 c 0,-0.1509086 0.1305698,-0.2840226 0.2856213,-0.2840226 h 0.4566743 c 0.1271218,0 0.2286036,-0.1046677 0.2286036,-0.2323337 V 1.6250924 c 0,-0.1239053 -0.1045281,-0.2169831 -0.2286036,-0.2376626 -0.078542,-0.013075 -0.160035,-0.019014 -0.2381953,-0.018651 z M 8.6114666,1.5089258 c 0.047227,0 0.085792,0.039196 0.085792,0.087391 -10e-8,0.048024 -0.038567,0.086859 -0.085792,0.086859 -0.047397,0 -0.085793,-0.038834 -0.085793,-0.086859 0,-0.048195 0.038397,-0.087391 0.085793,-0.087391 z"
                                   id="path2343" />
                                <path
                                   inkscape:connector-curvature="0"
                                   style="fill:#5b6dae;fill-opacity:1;stroke-width:0.01705202"
                                   d="m 9.3825374,1.8574263 v 0.2030256 c 0,0.157403 -0.1334473,0.2898841 -0.2856213,0.2898841 H 8.6402418 c -0.1250908,0 -0.2286035,0.1070611 -0.2286035,0.2323338 V 3.018029 c 0,0.1239059 0.1077446,0.1967857 0.2286035,0.2323338 0.1447262,0.042555 0.2835109,0.050245 0.4566743,0 C 9.2120199,3.2170371 9.3255197,3.1499669 9.3255197,3.018029 V 2.8437789 H 8.8688453 v -0.058083 h 0.4566744 0.2286036 c 0.1328771,0 0.1823931,-0.092685 0.2286031,-0.2318007 0.04773,-0.1432179 0.0457,-0.2809453 0,-0.4646674 C 9.7498884,1.9569472 9.6871694,1.8574263 9.5541233,1.8574263 Z M 9.1256913,2.9599456 c 0.047396,10e-8 0.085793,0.038834 0.085793,0.086858 -1e-7,0.048195 -0.038398,0.087391 -0.085793,0.087391 -0.047226,0 -0.085792,-0.039197 -0.085792,-0.087391 10e-8,-0.048024 0.038567,-0.086858 0.085792,-0.086858 z"
                                   id="path2345" />
                                </g>
                                </g>
                                <rect
                                   y="1.4959514"
                                   x="8.4858074"
                                   height="0.23803692"
                                   width="0.26309344"
                                   id="rect2351"
                                   style="fill:#5b6dae;fill-opacity:1;stroke-width:0.26458332" />
                                <rect
                                   y="2.9367013"
                                   x="9.0119944"
                                   height="0.22133258"
                                   width="0.22968476"
                                   id="rect2353"
                                   style="fill:#5b6dae;fill-opacity:1;stroke-width:0.26458332" />
                                </g>
                                </g>
                                <rect
                                   style="fill:#5b6dae;fill-opacity:1;stroke-width:0.26458332"
                                   id="rect2359"
                                   width="0.2370182"
                                   height="0.10896251"
                                   x="5.5366554"
                                   y="1.1601957" />
                              </g>
                            </g>
                            <path
                               inkscape:connector-curvature="0"
                               id="path2365"
                               d="m 134.57651,122.35329 6.51435,5.59167 v 0.78632 h -7.97237 v -6.08623 z"
                               style="fill:#5b6dae;fill-opacity:1;stroke:none;stroke-width:0.26458332px;stroke-linecap:butt;stroke-linejoin:miter;stroke-opacity:1" />
                          </g>
                        </g>
                        <rect
                           style="opacity:1;fill:#5b6dae;fill-opacity:1;stroke:none;stroke-width:0.26458332"
                           id="rect2371"
                           width="2.8442707"
                           height="4.299479"
                           x="82.020836"
                           y="41.280209" />
                      </g>
                    </g>
                    <path
                       inkscape:connector-curvature="0"
                       id="path2377"
                       d="m 76.212572,55.651629 6.514351,5.591662 h 6.935319 V 51.586439 H 77.033759 Z"
                       style="fill:#5b6dae;fill-opacity:1;stroke:none;stroke-width:0.26458332px;stroke-linecap:butt;stroke-linejoin:miter;stroke-opacity:1" />
                  </g>
                </g>
                <path
                   style="fill:#5b6dae;fill-opacity:1;stroke:none;stroke-width:0.26458332px;stroke-linecap:butt;stroke-linejoin:miter;stroke-opacity:1"
                   d="m 129.12239,33.45736 6.26748,5.402184 -2.4712,5.35988 -12.14028,-8.37878 z"
                   id="path2383"
                   inkscape:connector-curvature="0"
                   sodipodi:nodetypes="ccccc" />
              </g>
            </g>
            <path
               inkscape:connector-curvature="0"
               id="path2389"
               d="m 53.694446,115.57076 6.302551,5.49574 7.448466,0.25724 -12.932502,-12.93251 z"
               style="fill:#5b6dae;fill-opacity:1;stroke:none;stroke-width:0.26458332px;stroke-linecap:butt;stroke-linejoin:miter;stroke-opacity:1"
               sodipodi:nodetypes="ccccc" />
          </g>
        </g>
        <g
           style="stroke:none;stroke-width:1.0000031;stroke-miterlimit:4;stroke-dasharray:none;stroke-opacity:1"
           id="g2401"
           clip-path="url(#clipPath4823)"
           transform="matrix(63.863799,0,0,63.863799,-291.09937,-41.664393)">
          <g
             inkscape:label="Clip"
             id="g2399"
             style="stroke:none;stroke-width:1.0000031;stroke-miterlimit:4;stroke-dasharray:none;stroke-opacity:1">
            <path
               id="path2395"
               d="m 5.9189238,1.0414555 c -0.07816,3.609e-4 -0.1528021,0.00702 -0.218479,0.018651 C 5.506969,1.0942875 5.4718413,1.1658308 5.4718413,1.2977692 v 0.1742499 h 0.457207 v 0.058083 H 5.4718413 5.3002554 c -0.1328772,0 -0.2492281,0.079867 -0.2856214,0.2318007 -0.041979,0.1741517 -0.04384,0.2828252 0,0.4646675 0.032499,0.1353564 0.1101144,0.2318008 0.2429913,0.2318008 H 5.4148235 V 2.2494844 c 0,-0.1509086 0.1305698,-0.2840226 0.2856213,-0.2840226 h 0.4566743 c 0.1271218,0 0.2286036,-0.1046677 0.2286036,-0.2323337 V 1.2977688 c 0,-0.1239053 -0.1045281,-0.2169831 -0.2286036,-0.2376626 -0.078542,-0.013075 -0.160035,-0.019014 -0.2381953,-0.018651 z M 5.6716696,1.1816022 c 0.047227,0 0.085792,0.039196 0.085792,0.087391 -1e-7,0.048024 -0.038567,0.086859 -0.085792,0.086859 -0.047397,0 -0.085793,-0.038834 -0.085793,-0.086859 0,-0.048195 0.038397,-0.087391 0.085793,-0.087391 z"
               style="fill:#cad6ff;fill-opacity:1;stroke:none;stroke-width:1.0000031;stroke-miterlimit:4;stroke-dasharray:none;stroke-opacity:1"
               inkscape:connector-curvature="0" />
            <path
               id="path2397"
               d="m 6.4427404,1.5301027 v 0.2030256 c 0,0.157403 -0.1334473,0.2898841 -0.2856213,0.2898841 H 5.7004448 c -0.1250908,0 -0.2286035,0.1070611 -0.2286035,0.2323338 v 0.4353592 c 0,0.1239059 0.1077446,0.1967857 0.2286035,0.2323338 0.1447262,0.042555 0.2835109,0.050245 0.4566743,0 C 6.2722229,2.8897135 6.3857227,2.8226433 6.3857227,2.6907054 V 2.5164553 H 5.9290483 v -0.058083 h 0.4566744 0.2286036 c 0.1328772,0 0.1823927,-0.092685 0.2286035,-0.2318007 0.047734,-0.1432179 0.045703,-0.2809453 0,-0.4646674 C 6.810091,1.6296236 6.7473721,1.5301027 6.6143263,1.5301027 Z M 6.1858943,2.632622 c 0.047396,10e-8 0.085793,0.038834 0.085793,0.086858 -1e-7,0.048195 -0.038398,0.087391 -0.085793,0.087391 -0.047226,0 -0.085792,-0.039197 -0.085792,-0.087391 1e-7,-0.048024 0.038567,-0.086858 0.085792,-0.086858 z"
               style="fill:#ffffff;fill-opacity:1;stroke:none;stroke-width:1.0000031;stroke-miterlimit:4;stroke-dasharray:none;stroke-opacity:1"
               inkscape:connector-curvature="0" />
          </g>
        </g>
      </g>
    </clipPath>
    <clipPath
       clipPathUnits="userSpaceOnUse"
       id="clipPath5112-7">
      <use
         x="0"
         y="0"
         xlink:href="#g5108"
         id="use5114-5"
         width="100%"
         height="100%" />
    </clipPath>
    <clipPath
       clipPathUnits="userSpaceOnUse"
       id="clipPath5074-3">
      <use
         x="0"
         y="0"
         xlink:href="#g5070"
         id="use5076-5"
         width="100%"
         height="100%" />
    </clipPath>
    <clipPath
       clipPathUnits="userSpaceOnUse"
       id="clipPath5033-6">
      <use
         x="0"
         y="0"
         xlink:href="#g5029"
         id="use5035-2"
         width="100%"
         height="100%" />
    </clipPath>
    <clipPath
       clipPathUnits="userSpaceOnUse"
       id="clipPath4986-9">
      <use
         x="0"
         y="0"
         xlink:href="#g4982"
         id="use4988-1"
         width="100%"
         height="100%" />
    </clipPath>
    <clipPath
       clipPathUnits="userSpaceOnUse"
       id="clipPath4957-2">
      <use
         x="0"
         y="0"
         xlink:href="#g4953"
         id="use4959-7"
         width="100%"
         height="100%" />
    </clipPath>
    <clipPath
       clipPathUnits="userSpaceOnUse"
       id="clipPath4901-0">
      <use
         x="0"
         y="0"
         xlink:href="#g4897"
         id="use4903-9"
         width="100%"
         height="100%" />
    </clipPath>
    <clipPath
       clipPathUnits="userSpaceOnUse"
       id="clipPath4855-3">
      <use
         x="0"
         y="0"
         xlink:href="#g4851"
         id="use4857-6"
         width="100%"
         height="100%" />
    </clipPath>
    <clipPath
       clipPathUnits="userSpaceOnUse"
       id="clipPath4837-0">
      <use
         x="0"
         y="0"
         xlink:href="#g4833"
         id="use4839-6"
         width="100%"
         height="100%" />
    </clipPath>
    <clipPath
       clipPathUnits="userSpaceOnUse"
       id="clipPath4793-1">
      <g
         style="fill:#7289da;fill-opacity:1"
         id="use4795-8"
         inkscape:label="Clip">
        <path
           inkscape:connector-curvature="0"
           class="st0"
           d="M 6.6811787,0.72787837 H 4.7015954 c -0.166935,0 -0.3028467,0.13591169 -0.3028467,0.30432403 v 1.9973109 c 0,0.1684122 0.1359117,0.304324 0.3028467,0.304324 h 1.675259 L 6.2985576,3.0605366 6.4876523,3.2363353 6.6664058,3.4017931 6.9840255,3.6824802 V 1.0322024 c 0,-0.16841234 -0.1359121,-0.30432403 -0.3028468,-0.30432403 z M 6.1109404,2.6572335 c 0,0 -0.053183,-0.063524 -0.097502,-0.1196614 C 6.2069649,2.4829127 6.28083,2.3617734 6.28083,2.3617734 6.2202604,2.4016599 6.1626461,2.4297294 6.1109404,2.448934 6.0370753,2.4799569 5.9661649,2.5006389 5.8967321,2.5124582 5.7549109,2.5390503 5.6249085,2.5316628 5.514111,2.5109831 5.4299049,2.494733 5.357517,2.4710954 5.2969477,2.4474589 5.2629692,2.4341634 5.2260371,2.4179133 5.1891051,2.3972303 c -0.00443,-0.00296 -0.00886,-0.00443 -0.013295,-0.00739 -0.00296,-0.00148 -0.00443,-0.00296 -0.00591,-0.00443 -0.026592,-0.014773 -0.041365,-0.025114 -0.041365,-0.025114 0,0 0.070911,0.118184 0.2585277,0.1743217 -0.044318,0.05614 -0.098979,0.122618 -0.098979,0.122618 C 4.9615985,2.646908 4.8375053,2.432695 4.8375053,2.432695 c 0,-0.475691 0.2127313,-0.8612666 0.2127313,-0.8612666 C 5.262968,1.4118799 5.4653582,1.4163117 5.4653582,1.4163117 l 0.014773,0.017728 c -0.2659142,0.07682 -0.3885301,0.1935264 -0.3885301,0.1935264 0,0 0.0325,-0.017727 0.087161,-0.042842 0.1580713,-0.069433 0.2836418,-0.088638 0.3353474,-0.09307 0.00886,-0.00148 0.01625,-0.00296 0.025114,-0.00296 0.090115,-0.011818 0.1920491,-0.014773 0.2984149,-0.00296 0.1403432,0.01625 0.2910281,0.057615 0.4446674,0.141821 0,0 -0.1167069,-0.1107975 -0.3678481,-0.1876173 l 0.02068,-0.023636 c 0,0 0.2023902,-0.00443 0.4151216,0.1551167 0,0 0.2127315,0.3855754 0.2127315,0.8612664 0,0 -0.1255704,0.2142086 -0.452054,0.2245497 z"
           id="path4768"
           style="fill:#7289da;fill-opacity:1;stroke-width:0.01477302" />
        <path
           style="fill:#7289da;fill-opacity:1;stroke-width:0.03156727"
           d="m 25.763828,13.337981 c -0.329878,-0.292039 -0.903193,-0.813039 -1.274033,-1.157777 -0.370841,-0.344739 -0.67962,-0.621433 -0.686177,-0.614877 -0.0066,0.0066 0.05182,0.23397 0.12972,0.505362 0.0779,0.271393 0.141642,0.50123 0.141642,0.510749 0,0.03331 -6.25855,0.01806 -6.466931,-0.01576 -0.110455,-0.01792 -0.266742,-0.06599 -0.347304,-0.106812 -0.208575,-0.105693 -0.452683,-0.37621 -0.543908,-0.602752 l -0.07595,-0.188606 V 7.6742526 3.6809933 l 0.07616,-0.1894036 C 16.822036,3.2304683 17.109916,2.9431184 17.360228,2.84959 l 0.182696,-0.068264 h 3.954778 c 3.405833,0 3.976387,0.0065 4.110452,0.046856 0.201799,0.060739 0.444602,0.2465305 0.574216,0.4393868 0.210179,0.3127318 0.198035,-0.042792 0.189225,5.5394942 l -0.008,5.061897 z M 20.197624,9.8114052 20.376662,9.5840722 20.244975,9.5269332 C 19.978037,9.4111082 19.845365,9.33514 19.670936,9.1982359 19.572716,9.1211439 19.498443,9.0519734 19.505892,9.0445242 c 0.0074,-0.00745 0.14716,0.049651 0.31047,0.126889 1.130592,0.5347214 2.466111,0.5236751 3.564536,-0.029483 0.124874,-0.062885 0.233335,-0.1080449 0.241025,-0.1003545 0.05185,0.051852 -0.732075,0.5267131 -0.869528,0.5267131 -0.05692,0 -0.0431,0.024678 0.142368,0.2542222 0.173434,0.214656 0.180267,0.219275 0.323564,0.218739 0.518304,-0.0019 1.242726,-0.3483437 1.515258,-0.7245634 0.08377,-0.1156476 0.08811,-0.1375894 0.07619,-0.3853476 C 24.766155,8.0246999 24.523543,7.0285358 24.150705,6.225247 23.997071,5.894237 23.942851,5.8422298 23.538332,5.6378628 23.139264,5.4362497 22.489425,5.2841125 22.387751,5.3684944 c -0.02694,0.022355 -0.04897,0.049687 -0.04897,0.060738 0,0.011051 0.09588,0.053528 0.213079,0.094394 0.248839,0.086771 0.853217,0.3775763 0.88221,0.4244884 0.01275,0.020632 -0.0018,0.023257 -0.0405,0.00729 -0.231235,-0.095447 -0.700913,-0.2427657 -0.912737,-0.286289 -0.804272,-0.1652527 -1.891768,-0.086994 -2.603493,0.1873525 -0.430076,0.1657802 -0.406106,0.1585989 -0.334493,0.1002121 0.115771,-0.094389 0.603068,-0.3287344 0.894456,-0.4301514 0.238269,-0.082929 0.2858,-0.1097957 0.256564,-0.1450222 -0.11049,-0.133133 -0.898649,0.089192 -1.38203,0.3898453 -0.22446,0.1396098 -0.237859,0.1549284 -0.355967,0.4069646 -0.371779,0.7933546 -0.618479,1.7780854 -0.677009,2.7023601 l -0.02143,0.3383288 0.233446,0.2326464 c 0.167978,0.1674034 0.299841,0.2650981 0.4702,0.3483628 0.287371,0.140455 0.649707,0.2382292 0.883884,0.2385112 l 0.17362,2.21e-4 0.179038,-0.2273336 z"
           id="path4770"
           inkscape:connector-curvature="0"
           transform="scale(0.26458333)" />
        <rect
           style="fill:#7289da;fill-opacity:1;stroke-width:0.26458332"
           id="rect4772"
           width="1.9377041"
           height="1.6704345"
           x="4.7356815"
           y="1.1660408" />
      </g>
    </clipPath>
  </defs>
  <sodipodi:namedview
     id="base"
     pagecolor="#ffffff"
     bordercolor="#666666"
     borderopacity="1.0"
     inkscape:pageopacity="0.0"
     inkscape:pageshadow="2"
     inkscape:zoom="0.70710678"
     inkscape:cx="-67.806685"
     inkscape:cy="271.80799"
     inkscape:document-units="mm"
     inkscape:current-layer="layer2"
     showgrid="false"
     inkscape:window-width="1912"
     inkscape:window-height="1045"
     inkscape:window-x="4"
     inkscape:window-y="31"
     inkscape:window-maximized="0"
     inkscape:measure-start="288.048,912.183"
     inkscape:measure-end="312.669,891.049"
     fit-margin-top="0"
     fit-margin-left="0"
     fit-margin-right="0"
     fit-margin-bottom="0" />
  <metadata
     id="metadata5">
    <rdf:RDF>
      <cc:Work
         rdf:about="">
        <dc:format>image/svg+xml</dc:format>
        <dc:type
           rdf:resource="http://purl.org/dc/dcmitype/StillImage" />
        <dc:title />
      </cc:Work>
    </rdf:RDF>
  </metadata>
  <g
     inkscape:label="Layer 1"
     inkscape:groupmode="layer"
     id="layer1"
     transform="translate(-11.658899,-6.6740327)">
    <rect
       style="opacity:1;fill:#e7ffe8;fill-opacity:1;stroke:none;stroke-width:2.92799997;stroke-linecap:round;stroke-linejoin:round;stroke-miterlimit:4;stroke-dasharray:none;stroke-opacity:1;paint-order:markers stroke fill"
       id="rect3885"
       width="154.51666"
       height="154.51666"
       x="11.658899"
       y="6.6740327" />
  </g>
  <g
     inkscape:groupmode="layer"
     id="layer2"
     inkscape:label="Layer 2"
     transform="translate(-7.9374867,-2.9193843)">
    <g
       id="g16786"
       style="fill:#013000;fill-opacity:1">
      <path
         style="fill:#013000;fill-opacity:1;stroke:none;stroke-width:0.25272053px;stroke-linecap:butt;stroke-linejoin:miter;stroke-opacity:1"
         d="m 132.59787,52.673702 6.25789,5.349936 2.68987,13.030167 -21.06042,-12.105725 z"
         id="path5041"
         inkscape:connector-curvature="0"
         sodipodi:nodetypes="ccccc" />
      <g
         style="fill:#013000;fill-opacity:1"
         id="g5110"
         clip-path="url(#clipPath5112-7)"
         transform="matrix(0.95727303,0,0,0.95306026,-18.098566,-6.5815978)">
        <g
           style="fill:#013000;fill-opacity:1"
           inkscape:label="Clip"
           id="g5108">
          <g
             style="fill:#013000;fill-opacity:1"
             clip-path="url(#clipPath5074-3)"
             id="g5072">
            <g
               style="fill:#013000;fill-opacity:1"
               id="g5070"
               inkscape:label="Clip">
              <g
                 style="fill:#013000;fill-opacity:1"
                 id="g5031"
                 clip-path="url(#clipPath5033-6)">
                <g
                   style="fill:#013000;fill-opacity:1"
                   inkscape:label="Clip"
                   id="g5029">
                  <g
                     style="fill:#013000;fill-opacity:1"
                     clip-path="url(#clipPath4986-9)"
                     id="g4984">
                    <g
                       style="fill:#013000;fill-opacity:1"
                       id="g4982"
                       inkscape:label="Clip">
                      <g
                         style="fill:#013000;fill-opacity:1"
                         id="g4955"
                         clip-path="url(#clipPath4957-2)">
                        <g
                           style="fill:#013000;fill-opacity:1"
                           inkscape:label="Clip"
                           id="g4953">
                          <g
                             style="fill:#013000;fill-opacity:1"
                             transform="matrix(63.8638,0,0,63.8638,-273.24001,-38.357102)"
                             clip-path="url(#clipPath4901-0)"
                             id="g4899">
                            <g
                               style="fill:#013000;fill-opacity:1"
                               id="g4897"
                               inkscape:label="Clip">
                              <g
                                 style="fill:#013000;fill-opacity:1"
                                 id="g4853"
                                 clip-path="url(#clipPath4855-3)"
                                 transform="translate(-2.8377931,-0.23976758)">
                                <g
                                   style="fill:#013000;fill-opacity:1"
                                   inkscape:label="Clip"
                                   id="g4851">
                                <g
                                   style="fill:#013000;fill-opacity:1"
                                   clip-path="url(#clipPath4837-0)"
                                   id="g4835">
                                <g
                                   style="fill:#013000;fill-opacity:1"
                                   id="g4833"
                                   inkscape:label="Clip">
                                <path
                                   inkscape:connector-curvature="0"
                                   style="fill:#013000;fill-opacity:1;stroke-width:0.01705202"
                                   d="M 8.8587208,1.3687791 C 8.7805608,1.36914 8.7059187,1.3757991 8.6402418,1.3874301 8.446766,1.4216111 8.4116383,1.4931544 8.4116383,1.6250928 v 0.1742499 h 0.457207 v 0.058083 H 8.4116383 8.2400524 c -0.1328772,0 -0.2492281,0.079867 -0.2856214,0.2318007 -0.041979,0.1741517 -0.04384,0.2828252 0,0.4646675 0.032499,0.1353564 0.1101144,0.2318008 0.2429913,0.2318008 H 8.3546205 V 2.576808 c 0,-0.1509086 0.1305698,-0.2840226 0.2856213,-0.2840226 h 0.4566743 c 0.1271218,0 0.2286036,-0.1046677 0.2286036,-0.2323337 V 1.6250924 c 0,-0.1239053 -0.1045281,-0.2169831 -0.2286036,-0.2376626 -0.078542,-0.013075 -0.160035,-0.019014 -0.2381953,-0.018651 z M 8.6114666,1.5089258 c 0.047227,0 0.085792,0.039196 0.085792,0.087391 -10e-8,0.048024 -0.038567,0.086859 -0.085792,0.086859 -0.047397,0 -0.085793,-0.038834 -0.085793,-0.086859 0,-0.048195 0.038397,-0.087391 0.085793,-0.087391 z"
                                   id="path1948-3" />
                                <path
                                   inkscape:connector-curvature="0"
                                   style="fill:#013000;fill-opacity:1;stroke-width:0.01705202"
                                   d="m 9.3825374,1.8574263 v 0.2030256 c 0,0.157403 -0.1334473,0.2898841 -0.2856213,0.2898841 H 8.6402418 c -0.1250908,0 -0.2286035,0.1070611 -0.2286035,0.2323338 V 3.018029 c 0,0.1239059 0.1077446,0.1967857 0.2286035,0.2323338 0.1447262,0.042555 0.2835109,0.050245 0.4566743,0 C 9.2120199,3.2170371 9.3255197,3.1499669 9.3255197,3.018029 V 2.8437789 H 8.8688453 v -0.058083 h 0.4566744 0.2286036 c 0.1328771,0 0.1823931,-0.092685 0.2286031,-0.2318007 0.04773,-0.1432179 0.0457,-0.2809453 0,-0.4646674 C 9.7498884,1.9569472 9.6871694,1.8574263 9.5541233,1.8574263 Z M 9.1256913,2.9599456 c 0.047396,10e-8 0.085793,0.038834 0.085793,0.086858 -1e-7,0.048195 -0.038398,0.087391 -0.085793,0.087391 -0.047226,0 -0.085792,-0.039197 -0.085792,-0.087391 10e-8,-0.048024 0.038567,-0.086858 0.085792,-0.086858 z"
                                   id="path1950-6" />
                                </g>
                                </g>
                                <rect
                                   y="1.4959514"
                                   x="8.4858074"
                                   height="0.23803692"
                                   width="0.26309344"
                                   id="rect4841"
                                   style="fill:#013000;fill-opacity:1;stroke-width:0.26458332" />
                                <rect
                                   y="2.9367013"
                                   x="9.0119944"
                                   height="0.22133258"
                                   width="0.22968476"
                                   id="rect4843"
                                   style="fill:#013000;fill-opacity:1;stroke-width:0.26458332" />
                                </g>
                              </g>
                              <rect
                                 style="fill:#013000;fill-opacity:1;stroke-width:0.26458332"
                                 id="rect4882"
                                 width="0.2370182"
                                 height="0.10896251"
                                 x="5.5366554"
                                 y="1.1601957" />
                            </g>
                          </g>
                          <path
                             inkscape:connector-curvature="0"
                             id="path4939"
                             d="m 134.57651,122.35329 6.51435,5.59167 v 0.78632 h -7.97237 v -6.08623 z"
                             style="fill:#013000;fill-opacity:1;stroke:none;stroke-width:0.26458332px;stroke-linecap:butt;stroke-linejoin:miter;stroke-opacity:1" />
                        </g>
                      </g>
                      <rect
                         style="opacity:1;fill:#013000;fill-opacity:1;stroke:none;stroke-width:0.26458332"
                         id="rect4965"
                         width="2.8442707"
                         height="4.299479"
                         x="82.020836"
                         y="41.280209" />
                    </g>
                  </g>
                  <path
                     inkscape:connector-curvature="0"
                     id="path5009"
                     d="m 76.212572,55.651629 6.514351,5.591662 h 6.935319 V 51.586439 H 77.033759 Z"
                     style="fill:#013000;fill-opacity:1;stroke:none;stroke-width:0.26458332px;stroke-linecap:butt;stroke-linejoin:miter;stroke-opacity:1" />
                </g>
              </g>
              <path
                 style="fill:#013000;fill-opacity:1;stroke:none;stroke-width:0.26458332px;stroke-linecap:butt;stroke-linejoin:miter;stroke-opacity:1"
                 d="m 129.12239,33.45736 6.26748,5.402184 -2.4712,5.35988 -12.14028,-8.37878 z"
                 id="path5047"
                 inkscape:connector-curvature="0"
                 sodipodi:nodetypes="ccccc" />
            </g>
          </g>
          <path
             inkscape:connector-curvature="0"
             id="path5082"
             d="m 53.694446,115.57076 6.302551,5.49574 7.448466,0.25724 -12.932502,-12.93251 z"
             style="fill:#013000;fill-opacity:1;stroke:none;stroke-width:0.26458332px;stroke-linecap:butt;stroke-linejoin:miter;stroke-opacity:1"
             sodipodi:nodetypes="ccccc" />
        </g>
      </g>
    </g>
    <path
       inkscape:connector-curvature="0"
       style="fill:#ff2f2f;fill-opacity:1;stroke:none;stroke-width:61.00061417;stroke-miterlimit:4;stroke-dasharray:none;stroke-opacity:1"
       d="m 82.19011,20.251055 c -4.77832,0.02197 -9.341571,0.42728 -13.356734,1.135212 C 57.005215,23.46673 54.85768,27.821288 54.85768,35.851857 V 46.45776 h 27.951392 v 3.535283 H 54.85768 44.36776 c -8.12346,0 -15.236583,4.861188 -17.461491,14.108792 -2.56639,10.599926 -2.680162,17.214453 0,28.28248 1.986829,8.238605 6.731854,14.108785 14.855295,14.108785 h 9.610328 V 93.779004 c 0,-9.185214 7.982396,-17.287337 17.461484,-17.287337 h 27.918829 c 7.771605,0 13.975695,-6.370709 13.975695,-14.141234 v -26.4986 c 0,-7.541626 -6.39033,-13.206904 -13.975695,-14.465584 C 91.950529,20.590425 86.968447,20.228942 82.19011,20.251055 Z M 67.074201,28.78123 c 2.887227,0 5.244902,2.385706 5.244902,5.319146 -6e-6,2.923031 -2.357797,5.286763 -5.244902,5.286763 -2.89762,0 -5.244963,-2.363671 -5.244963,-5.286763 0,-2.93344 2.347405,-5.319146 5.244963,-5.319146 z"
       id="path1948" />
    <path
       inkscape:connector-curvature="0"
       style="fill:#ffffff;fill-opacity:1;stroke:none;stroke-width:61.00061417;stroke-miterlimit:4;stroke-dasharray:none;stroke-opacity:1"
       d="m 114.21369,49.993079 v 12.357366 c 0,9.580499 -8.15831,17.6441 -17.461485,17.6441 H 68.833376 c -7.647438,0 -13.975696,6.516386 -13.975696,14.141237 v 26.498598 c 0,7.54166 6.586975,11.97757 13.975696,14.14124 8.84785,2.59016 17.332465,3.05821 27.918829,0 7.036875,-2.0284 13.975695,-6.1107 13.975695,-14.14124 V 110.02846 H 82.809072 v -3.53528 h 27.918828 13.97571 c 8.12346,0 11.15059,-5.64136 13.97569,-14.108789 2.91823,-8.71711 2.79406,-17.100032 0,-28.28247 -2.0076,-8.051398 -5.84192,-14.108842 -13.97569,-14.108842 z M 98.511376,117.09907 c 2.897564,1e-5 5.244964,2.36368 5.244964,5.2867 -10e-6,2.93345 -2.34747,5.31915 -5.244964,5.31915 -2.887165,0 -5.244902,-2.38577 -5.244902,-5.31915 7e-6,-2.92302 2.357795,-5.2867 5.244902,-5.2867 z"
       id="path1950" />
  </g>
</svg>
