<?xml version="1.0" encoding="UTF-8"?><svg id="Layer_1" xmlns="http://www.w3.org/2000/svg" xmlns:xlink="http://www.w3.org/1999/xlink" viewBox="0 0 512 512"><defs><style>.cls-1{fill:none;}.cls-2{clip-path:url(#clippath);}.cls-3{fill:#003b28;}.cls-4{fill:#fff;}.cls-5{fill:#bda549;}.cls-6{fill:#dbd97a;}.cls-7{fill:#61592e;}.cls-8{fill:rgba(255,255,255,.2);}.cls-9{opacity:.2;}</style><clipPath id="clippath"><path class="cls-1" d="m440.88,207.95c-6.66-26.65-19.4-46.76-46.29-46.76h-17.38v-7.24h-29.03v-39.52c0-25.02-21.16-43.72-46.29-47.93-15.78-2.69-32.26-3.86-48.16-3.74h0c-15.78.12-30.98,1.4-44.3,3.74-39.16,6.9-46.29,21.27-46.29,47.93v35.19h92.58v11.69h-127.3c-26.89,0-50.5,16.13-57.86,46.76-8.53,35.07-8.88,57.04,0,93.75,6.55,27.35,22.33,46.76,49.21,46.76h31.8v-42.08c0-30.39,26.42-57.28,57.86-57.28h92.46c25.72,0,46.29-21.16,46.29-46.87v-11.56h11.69v11.44c0,31.8-27,58.45-57.86,58.45h-92.46c-25.37,0-46.29,21.63-46.29,46.87v87.79c0,25.02,21.86,39.74,46.29,46.87,29.34,8.53,57.4,10.17,92.46,0,23.26-6.66,46.29-20.22,46.29-46.87v-35.19h-92.46v-11.69h138.75c26.89,0,36.94-18.7,46.29-46.76,9.7-28.87,9.23-56.69,0-93.75Zm-237.18-81.71c-9.59,0-17.42-7.83-17.42-17.53s7.83-17.65,17.42-17.65,17.42,7.95,17.42,17.65-7.83,17.53-17.42,17.53Zm104.15,257.4c9.59,0,17.42,7.83,17.42,17.53s-7.83,17.65-17.42,17.65-17.42-7.95-17.42-17.65,7.83-17.53,17.42-17.53Z"/></clipPath></defs><rect class="cls-6" width="512" height="512"/><g><path id="path6010" class="cls-8" d="m276.52,366.11h67.21v11.69h-67.21v-11.69Z"/><path id="path6012" class="cls-4" d="m253.73,62.77c-15.78.12-30.98,1.4-44.3,3.74-39.16,6.9-46.29,21.27-46.29,47.93v35.19h92.58v11.69h-127.3c-26.89,0-50.5,16.13-57.86,46.76-8.53,35.07-8.88,57.04,0,93.75,6.55,27.35,22.33,46.76,49.21,46.76h31.8v-42.08c0-30.39,26.42-57.28,57.86-57.28h92.46c25.72,0,46.29-21.16,46.29-46.87v-87.91c0-25.02-21.16-43.72-46.29-47.93-15.78-2.69-32.26-3.86-48.16-3.74h0Zm-50.03,28.29c9.59,0,17.42,7.95,17.42,17.65s-7.83,17.53-17.42,17.53-17.42-7.83-17.42-17.53,7.83-17.65,17.42-17.65Z"/><path id="path6014" class="cls-4" d="m359.87,161.31v40.91c0,31.8-27,58.45-57.86,58.45h-92.46c-25.37,0-46.29,21.63-46.29,46.87v87.79c0,25.02,21.86,39.74,46.29,46.87,29.34,8.53,57.4,10.17,92.46,0,23.26-6.66,46.29-20.22,46.29-46.87v-35.19h-92.46v-11.69h138.75c26.89,0,36.94-18.7,46.29-46.76,9.7-28.87,9.23-56.69,0-93.75-6.66-26.65-19.4-46.76-46.29-46.76h-34.72v.12Zm-52.02,222.33c9.59,0,17.42,7.83,17.42,17.53s-7.83,17.65-17.42,17.65-17.42-7.95-17.42-17.65,7.83-17.53,17.42-17.53Z"/></g><g id="path6010-2"><g class="cls-9"><path class="cls-7" d="m276.52,366.11h67.21v11.69h-67.21v-11.69Z"/></g></g><g class="cls-2"><g><rect class="cls-5" x="18.46" y="251.65" width="207.53" height="207.53" transform="translate(-215.51 190.52) rotate(-45)"/><rect class="cls-3" x="7.78" y="288.47" width="368.27" height="207.53" transform="translate(-221.15 250.58) rotate(-45)"/><rect class="cls-5" x="157.14" y="308.34" width="367.88" height="207.53" transform="translate(-191.5 361.88) rotate(-45)"/></g></g></svg>