<?xml version="1.0" encoding="UTF-8"?><svg id="Layer_1" xmlns="http://www.w3.org/2000/svg" viewBox="0 0 1600 900"><defs><style>.cls-1{letter-spacing:.41em;}.cls-2{letter-spacing:.41em;}.cls-3{font-size:158.03px;letter-spacing:.15em;}.cls-3,.cls-4{font-family:KulimPark-Light, 'Kulim Park';font-weight:300;}.cls-5{fill:#003a29;}.cls-6{fill:#baa758;}.cls-7{fill:#dbd990;}.cls-8{font-family:RubikMonoOne-Regular, 'Rubik Mono One';}.cls-8,.cls-9,.cls-4{fill:#61592e;}.cls-10{letter-spacing:.33em;}.cls-11{letter-spacing:.4em;}.cls-12{font-size:171.38px;letter-spacing:-.03em;}.cls-13{letter-spacing:.39em;}.cls-14{fill:#635726;}.cls-14,.cls-15{font-family:KulimPark-Bold, 'Kulim Park';font-size:43.58px;font-weight:700;}.cls-9{stroke:#635726;stroke-miterlimit:10;stroke-width:8.5px;}.cls-16{letter-spacing:.37em;}.cls-17{font-size:85.52px;letter-spacing:-.03em;}.cls-4{font-size:172.73px;letter-spacing:.15em;}</style></defs><rect class="cls-6" x="1361.13" y="307.42" width="1185.17" height="1185.17" transform="translate(-64.17 1645.09) rotate(-45)"/><rect class="cls-7" width="1600" height="900"/><g><rect class="cls-6" x="-377.6" y="-377.21" width="754.43" height="754.43" transform="translate(-.11 -.27) rotate(-45)"/><rect class="cls-5" x="155.86" y="-377.21" width="754.43" height="754.43" transform="translate(156.13 376.94) rotate(-45)"/><rect class="cls-6" x="689.32" y="-377.21" width="754.43" height="754.43" transform="translate(312.38 754.16) rotate(-45)"/></g><g><text class="cls-8" transform="translate(53.88 834.96)"><tspan class="cls-12" x="0" y="0">PYCON</tspan><tspan class="cls-17" x="706.06" y="0"> </tspan><tspan class="cls-12" x="776.53" y="0">US</tspan></text><text class="cls-14" transform="translate(660.59 677.4)"><tspan class="cls-2" x="0" y="0">CELEB</tspan><tspan class="cls-13" x="204.1" y="0">R</tspan><tspan class="cls-10" x="246.24" y="0">A</tspan><tspan class="cls-1" x="289.7" y="0">TING</tspan></text><text class="cls-15" transform="translate(1312.89 676.96)"><tspan class="cls-2" x="0" y="0">Y</tspan><tspan class="cls-11" x="46.15" y="0">E</tspan><tspan class="cls-2" x="84.07" y="0">A</tspan><tspan class="cls-16" x="131.01" y="0">R</tspan><tspan class="cls-1" x="172.28" y="0">S</tspan></text><text class="cls-3" transform="translate(1304.67 606.56)"><tspan x="0" y="0">20</tspan></text><text class="cls-4" transform="translate(1312.89 835.48)"><tspan x="0" y="0">23</tspan></text><line class="cls-9" x1="1210.27" y1="834.96" x2="1210.27" y2="646.19"/></g></svg>