<?xml version="1.0" encoding="UTF-8" standalone="no"?>
<!-- Generator: Adobe Illustrator 22.0.1, SVG Export Plug-In . SVG Version: 6.00 Build 0)  -->

<svg
   xmlns:dc="http://purl.org/dc/elements/1.1/"
   xmlns:cc="http://creativecommons.org/ns#"
   xmlns:rdf="http://www.w3.org/1999/02/22-rdf-syntax-ns#"
   xmlns:svg="http://www.w3.org/2000/svg"
   xmlns="http://www.w3.org/2000/svg"
   xmlns:sodipodi="http://sodipodi.sourceforge.net/DTD/sodipodi-0.dtd"
   xmlns:inkscape="http://www.inkscape.org/namespaces/inkscape"
   version="1.1"
   id="svg8"
   inkscape:export-filename="/home/scragly/Github/PyDisBranding/logos/logo_seasonal/evergreen/logo_evergreen_large.png"
   inkscape:export-xdpi="657.53424"
   inkscape:export-ydpi="657.53424"
   inkscape:version="0.92.4 5da689c313, 2019-01-14"
   sodipodi:docname="logo_evergreen.svg"
   x="0px"
   y="0px"
   viewBox="0 0 438 438"
   style="enable-background:new 0 0 438 438;"
   xml:space="preserve"><metadata
   id="metadata12357"><rdf:RDF><cc:Work
       rdf:about=""><dc:format>image/svg+xml</dc:format><dc:type
         rdf:resource="http://purl.org/dc/dcmitype/StillImage" /><dc:title></dc:title></cc:Work></rdf:RDF></metadata><defs
   id="defs12355"><mask
     maskUnits="userSpaceOnUse"
     id="mask12681"><path
       id="path12683"
       inkscape:connector-curvature="0"
       class="st2"
       d="m 350.52736,945.77127 c -9.69708,-9.3929 -19.73866,-17.72217 -29.27021,-24.28796 -28.02539,-19.27794 -40.9983,-14.78312 -56.98231,1.47577 l -21.1017,21.46459 56.47827,55.52341 -7.01053,7.13112 -56.47826,-55.52344 -21.17935,-20.82127 c -16.40151,-16.12422 -40.48085,-20.44458 -63.34102,-6.17775 -26.23729,16.27559 -39.63102,29.47173 -56.224448,57.19136 -12.411227,20.6127 -14.421731,41.9145 1.979781,58.0387 l 19.396567,19.0686 25.23791,-25.6719 c 18.22738,-18.5408 50.46786,-19.0985 69.65052,-0.2402 l 56.40692,55.4533 c 15.68841,15.4231 40.92819,14.8544 56.35135,-0.834 l 52.71918,-53.6258 c 15.00253,-15.2606 13.3121,-39.35938 0.50405,-56.99921 -8.01456,-11.10437 -17.36835,-21.70232 -27.13672,-31.16532 z M 303.0408,933.02345 c 5.8475,5.74863 5.85817,15.29483 0.0394,21.21364 -5.81874,5.9188 -15.29363,5.99958 -21.14112,0.25095 -5.8475,-5.74864 -5.92827,-15.22352 -0.10954,-21.14233 5.88885,-5.99012 15.36374,-6.07089 21.21123,-0.32226 z"
       style="display:inline;fill:#51b985;fill-opacity:1" /></mask></defs>
<style
   type="text/css"
   id="style12330">
	.st0{fill:#7289DA;}
	.st1{fill:#5B6DAE;}
	.st2{fill:#CAD6FF;}
	.st3{fill:#FFFFFF;}
</style>
<sodipodi:namedview
   bordercolor="#666666"
   borderopacity="1.0"
   fit-margin-bottom="0"
   fit-margin-left="0"
   fit-margin-right="0"
   fit-margin-top="0"
   id="base"
   inkscape:current-layer="svg8"
   inkscape:cx="144.42354"
   inkscape:cy="217.41107"
   inkscape:document-units="mm"
   inkscape:measure-end="312.669,891.049"
   inkscape:measure-start="288.048,912.183"
   inkscape:pageopacity="0.0"
   inkscape:pageshadow="2"
   inkscape:window-height="1409"
   inkscape:window-maximized="1"
   inkscape:window-width="3440"
   inkscape:window-x="2560"
   inkscape:window-y="31"
   inkscape:zoom="2"
   pagecolor="#ffffff"
   showgrid="false">
	</sodipodi:namedview>

<rect
   id="rect3885"
   x="0"
   y="0"
   class="st0"
   width="438"
   height="438"
   style="display:inline;fill:#10685e;fill-opacity:1" /><path
   inkscape:connector-curvature="0"
   style="fill:#000000;fill-opacity:0.20554271"
   d="m 283.09961,68.00004 -11.50586,3.308594 c -12.22293,-1.805126 -24.75727,-2.597057 -36.89453,-2.507813 -13.5,0.1 -26.49844,1.199219 -37.89844,3.199219 -3.69979,0.651605 -7.04735,1.385964 -10.10742,2.199219 H 150.80077 V 93.00004 h 4.5 v 7.69922 h 2.7832 c -0.63936,3.71421 -0.88476,7.79967 -0.88476,12.30078 v 4 h -15.39844 l -2.20117,11 17.59961,15.01367 v 0.0859 h 79.20118 v 10 h -79.20118 -29.69922 c -23,0 -43.199996,13.8 -49.499996,40 -7.3,30 -7.6,48.80117 0,80.20117 0.49734,2.07815 1.06052,4.09848 1.6836,6.0625 l -1.1836,10.43754 13.34571,11.54883 c 7.03195,7.51033 16.371086,11.95117 28.253896,11.95117 h 27.20117 v -36 c 0,-26 22.6,-49 49.50001,-49 H 276 c 22,0 39.59961,-18.10156 39.59961,-40.10156 v -75.19922 c 0,-12.89964 -6.58193,-23.831167 -16.51563,-31.273438 z m 76.80078,77.59961 -14.30078,7.40039 H 325.5 v 0.0996 10.30078 24.69922 c 0,27.2 -23.1,50 -49.5,50 h -79.09961 c -21.7,0 -39.59962,18.49961 -39.59962,40.09961 v 75.10156 c 0,21.4 18.69962,33.99961 39.59962,40.09961 25.1,7.3 49.09961,8.7 79.09961,0 19.9,-5.7 39.59961,-17.29961 39.59961,-40.09961 v -27.90039 -2.09961 -0.10156 h -0.11914 l -11.7207,-10 h 11.83984 39.59961 c 23,0 31.60156,-16 39.60156,-40 8.3,-24.7 7.9,-48.49922 0,-80.19922 -3.62263,-14.49052 -9.35252,-26.7105 -18.94726,-33.69922 z M 236.5,313.19926 H 294 v 10 h -57.5 z"
   id="path5041-2" /><path
   id="path1948"
   inkscape:connector-curvature="0"
   class="st2"
   d="m 217,53.7 c -13.5,0.1 -26.5,1.2 -37.9,3.2 -33.5,5.9 -39.6,18.2 -39.6,41 V 128 h 79.2 v 10 h -79.2 -29.7 c -23,0 -43.2,13.8 -49.5,40 -7.3,30 -7.6,48.8 0,80.2 5.6,23.4 19.1,40 42.1,40 h 27.2 v -36 c 0,-26 22.6,-49 49.5,-49 h 79.1 c 22,0 39.6,-18.1 39.6,-40.1 V 97.9 c 0,-21.4 -18.1,-37.4 -39.6,-41 -13.5,-2.3 -27.6,-3.3 -41.2,-3.2 z m -42.8,24.2 c 8.2,0 14.9,6.8 14.9,15.1 0,8.3 -6.7,15 -14.9,15 -8.2,0 -14.9,-6.7 -14.9,-15 0,-8.4 6.7,-15.1 14.9,-15.1 z"
   style="display:inline;fill:#51b985;fill-opacity:1" /><path
   id="path1950"
   inkscape:connector-curvature="0"
   class="st3"
   d="m 307.8,138 v 35 c 0,27.2 -23.1,50 -49.5,50 h -79.1 c -21.7,0 -39.6,18.5 -39.6,40.1 v 75.1 c 0,21.4 18.7,34 39.6,40.1 25.1,7.3 49.1,8.7 79.1,0 19.9,-5.7 39.6,-17.3 39.6,-40.1 v -30.1 h -79.1 v -10 h 79.1 39.6 c 23,0 31.6,-16 39.6,-40 8.3,-24.7 7.9,-48.5 0,-80.2 -5.7,-22.8 -16.6,-40 -39.6,-40 h -29.7 z m -44.5,190.2 c 8.2,0 14.9,6.7 14.9,15 0,8.3 -6.7,15.1 -14.9,15.1 -8.2,0 -14.9,-6.8 -14.9,-15.1 0,-8.3 6.7,-15 14.9,-15 z"
   style="display:inline;fill:#ffffff" /></svg>