<?xml version="1.0" encoding="utf-8"?>
<!-- Generator: Adobe Illustrator 22.0.1, SVG Export Plug-In . SVG Version: 6.00 Build 0)  -->
<svg version="1.1"
	 id="svg8" inkscape:export-filename="/home/jeremiah/Pictures/Vectors/pythondiscord-logo-spooky.svg.png" inkscape:export-xdpi="157.20769" inkscape:export-ydpi="157.20769" inkscape:version="0.92.2 2405546, 2018-03-11" sodipodi:docname="pythondiscord-logo-spooky.svg" xmlns:cc="http://creativecommons.org/ns#" xmlns:dc="http://purl.org/dc/elements/1.1/" xmlns:inkscape="http://www.inkscape.org/namespaces/inkscape" xmlns:rdf="http://www.w3.org/1999/02/22-rdf-syntax-ns#" xmlns:sodipodi="http://sodipodi.sourceforge.net/DTD/sodipodi-0.dtd" xmlns:svg="http://www.w3.org/2000/svg"
	 xmlns="http://www.w3.org/2000/svg" xmlns:xlink="http://www.w3.org/1999/xlink" x="0px" y="0px" viewBox="0 0 468 468"
	 style="enable-background:new 0 0 468 468;" xml:space="preserve">
<style type="text/css">
	.st0{fill:#323232;}
	.st1{fill:#FF6703;}
	.st2{fill:#FFA603;}
</style>
<rect class="st0" width="468" height="468"/>
<g>
	
		<sodipodi:namedview  bordercolor="#666666" borderopacity="1.0" fit-margin-bottom="0" fit-margin-left="0" fit-margin-right="0" fit-margin-top="0" id="base" inkscape:current-layer="layer2" inkscape:cx="255.26973" inkscape:cy="274.41695" inkscape:document-units="mm" inkscape:measure-end="312.669,891.049" inkscape:measure-start="288.048,912.183" inkscape:pageopacity="0.0" inkscape:pageshadow="2" inkscape:window-height="1042" inkscape:window-maximized="0" inkscape:window-width="1912" inkscape:window-x="4" inkscape:window-y="34" inkscape:zoom="1.0512367" pagecolor="#ffffff" showgrid="false">
		</sodipodi:namedview>
	
		<path id="path1948" inkscape:connector-curvature="0" inkscape:export-xdpi="153.84196" inkscape:export-ydpi="153.84196" sodipodi:nodetypes="ccsccccsccscssssscc" class="st1" d="
		M232.1,68.7c-13.5,0.1-26.5,1.2-37.9,3.2c-33.5,5.9-39.6,18.2-39.6,41V143h79.2v10h-79.2h-29.7c-23,0-43.2,13.8-49.5,40
		c-7.3,30-7.6,48.8,0,80.2c5.6,23.4,19.1,40,42.1,40h27.2v-36c0-26,22.6-49,49.5-49h79.1c22,0,39.6-18.1,39.6-40.1v-75.1
		c0-21.4-18.1-37.4-39.6-41C259.7,69.6,245.6,68.6,232.1,68.7L232.1,68.7z"/>
	
		<path id="path1950" inkscape:connector-curvature="0" inkscape:export-xdpi="153.84196" inkscape:export-ydpi="153.84196" sodipodi:nodetypes="csssssccsccccsccsc" class="st2" d="
		M322.8,153v35c0,27.2-23.1,50-49.5,50h-79.1c-21.7,0-39.6,18.5-39.6,40.1v75.1c0,21.4,18.7,34,39.6,40.1c25.1,7.3,49.1,8.7,79.1,0
		c19.9-5.7,39.6-17.3,39.6-40.1v-30.1h-79.1v-10h79.1h39.6c23,0,31.6-16,39.6-40c8.3-24.7,7.9-48.5,0-80.2
		c-5.7-22.8-16.6-40-39.6-40H322.8z"/>
	
		<path id="path13047" inkscape:flatsided="true" inkscape:randomized="0" inkscape:rounded="0" inkscape:transform-center-x="-0.10387764" inkscape:transform-center-y="-0.78303639" sodipodi:arg1="1.5935197" sodipodi:arg2="2.6407173" sodipodi:cx="65.855209" sodipodi:cy="51.101292" sodipodi:r1="8.2340279" sodipodi:r2="2.1535523" sodipodi:sides="3" sodipodi:type="star" class="st0" d="
		M189,93.9l15.5,26.9l-29.8,0.6L189,93.9z"/>
	
		<path id="path13047-7" inkscape:flatsided="true" inkscape:randomized="0" inkscape:rounded="0" inkscape:transform-center-x="0.50454551" inkscape:transform-center-y="1.8973512" sodipodi:arg1="1.5935197" sodipodi:arg2="2.6407173" sodipodi:cx="65.855209" sodipodi:cy="51.101292" sodipodi:r1="8.2340279" sodipodi:r2="2.1535523" sodipodi:sides="3" sodipodi:type="star" class="st0" d="
		M293.5,344.6l-16.8,26.1l-14.1-26.3L293.5,344.6z"/>
</g>
</svg>
