<?xml version="1.0" encoding="UTF-8" standalone="no"?>
<svg
   xmlns:osb="http://www.openswatchbook.org/uri/2009/osb"
   xmlns:dc="http://purl.org/dc/elements/1.1/"
   xmlns:cc="http://creativecommons.org/ns#"
   xmlns:rdf="http://www.w3.org/1999/02/22-rdf-syntax-ns#"
   xmlns:svg="http://www.w3.org/2000/svg"
   xmlns="http://www.w3.org/2000/svg"
   xmlns:xlink="http://www.w3.org/1999/xlink"
   xmlns:sodipodi="http://sodipodi.sourceforge.net/DTD/sodipodi-0.dtd"
   xmlns:inkscape="http://www.inkscape.org/namespaces/inkscape"
   width="512"
   height="512"
   viewBox="0 0 135.46666 135.46667"
   version="1.1"
   id="svg8"
   inkscape:version="1.0.2 (e86c870879, 2021-01-15)"
   sodipodi:docname="ducky_gopnik.svg"
   inkscape:export-filename="/home/eli/Pictures/logos/pydis/ducky_gopnik.png"
   inkscape:export-xdpi="96"
   inkscape:export-ydpi="96">
  <defs
     id="defs2">
    <linearGradient
       inkscape:collect="always"
       id="linearGradient935">
      <stop
         style="stop-color:#8d5f2a;stop-opacity:1"
         offset="0"
         id="stop931" />
      <stop
         style="stop-color:#b9833d;stop-opacity:0.96515709"
         offset="0.25367603"
         id="stop939" />
      <stop
         style="stop-color:#dca45b;stop-opacity:0.93303496"
         offset="0.49519765"
         id="stop941" />
      <stop
         style="stop-color:#e6af5d;stop-opacity:0.99580079"
         offset="0.75418264"
         id="stop943" />
      <stop
         style="stop-color:#b9844a;stop-opacity:0.97942168"
         offset="1"
         id="stop933" />
    </linearGradient>
    <linearGradient
       inkscape:collect="always"
       id="cigarette_white_fade">
      <stop
         style="stop-color:#969696;stop-opacity:1"
         offset="0"
         id="stop910" />
      <stop
         style="stop-color:#c0c0c0;stop-opacity:1"
         offset="0.30509943"
         id="stop929" />
      <stop
         style="stop-color:#f8f8f8;stop-opacity:0.99918073"
         offset="0.53977937"
         id="stop945" />
      <stop
         style="stop-color:#ffffff;stop-opacity:0.99360758"
         offset="0.76820207"
         id="stop927" />
      <stop
         style="stop-color:#dfdfdf;stop-opacity:1"
         offset="1"
         id="stop912" />
    </linearGradient>
    <linearGradient
       id="linearGradient2733"
       osb:paint="gradient">
      <stop
         id="stop2729"
         offset="0"
         style="stop-color:#225f00;stop-opacity:1" />
      <stop
         id="stop2731"
         offset="1"
         style="stop-color:#8fe247;stop-opacity:1" />
    </linearGradient>
    <linearGradient
       id="linearGradient2372">
      <stop
         style="stop-color:#005a35;stop-opacity:1"
         offset="0"
         id="stop2368" />
      <stop
         style="stop-color:#22b472;stop-opacity:1"
         offset="1"
         id="stop2370" />
    </linearGradient>
    <linearGradient
       id="linearGradient1450">
      <stop
         style="stop-color:#f0f0f0;stop-opacity:1"
         offset="0"
         id="stop1446" />
      <stop
         style="stop-color:#010301;stop-opacity:1"
         offset="1"
         id="stop1448" />
    </linearGradient>
    <linearGradient
       id="linearGradient1485">
      <stop
         id="stop1481"
         offset="0"
         style="stop-color:#e9e9e9;stop-opacity:1" />
      <stop
         id="stop1483"
         offset="1"
         style="stop-color:#212121;stop-opacity:1" />
    </linearGradient>
    <linearGradient
       id="linearGradient1458">
      <stop
         id="stop1454"
         offset="0"
         style="stop-color:#02ac74;stop-opacity:1" />
      <stop
         id="stop1456"
         offset="1"
         style="stop-color:#054110;stop-opacity:1" />
    </linearGradient>
    <linearGradient
       id="linearGradient1294">
      <stop
         id="stop1304"
         offset="0"
         style="stop-color:#040259;stop-opacity:1" />
      <stop
         id="stop1306"
         offset="1"
         style="stop-color:#0a80ff;stop-opacity:1" />
    </linearGradient>
    <linearGradient
       id="linearGradient4671-3">
      <stop
         id="stop4673"
         offset="0"
         style="stop-color:#faab00;stop-opacity:1" />
      <stop
         id="stop4675"
         offset="1"
         style="stop-color:#ffd846;stop-opacity:1" />
    </linearGradient>
    <linearGradient
       id="linearGradient4671-0">
      <stop
         style="stop-color:#ffd43b;stop-opacity:1;"
         offset="0"
         id="stop4673-3" />
      <stop
         style="stop-color:#ffe873;stop-opacity:1"
         offset="1"
         id="stop4675-6" />
    </linearGradient>
    <linearGradient
       id="linearGradient1345">
      <stop
         style="stop-color:#030060;stop-opacity:1"
         offset="0"
         id="stop1341" />
      <stop
         style="stop-color:#a80aff;stop-opacity:1"
         offset="1"
         id="stop1343" />
    </linearGradient>
    <linearGradient
       id="linearGradient3526">
      <stop
         style="stop-color:#1d1d1d;stop-opacity:1"
         offset="0"
         id="stop3522" />
      <stop
         style="stop-color:#4c4c4c;stop-opacity:1"
         offset="1"
         id="stop3524" />
    </linearGradient>
    <linearGradient
       id="linearGradient3284">
      <stop
         style="stop-color:#f4b900;stop-opacity:1"
         offset="0"
         id="stop3280" />
      <stop
         style="stop-color:#e25947;stop-opacity:1"
         offset="1"
         id="stop3282" />
    </linearGradient>
    <linearGradient
       id="linearGradient3518">
      <stop
         id="stop3514"
         offset="0"
         style="stop-color:#bf0202;stop-opacity:1" />
      <stop
         id="stop3516"
         offset="1"
         style="stop-color:#ef2138;stop-opacity:1" />
    </linearGradient>
    <inkscape:path-effect
       effect="bend_path"
       id="path-effect2575"
       is_visible="true"
       bendpath="m 79.112902,59.677527 c 39.299468,11.186994 78.465488,12.827187 117.677978,0"
       prop_scale="0.90838266"
       scale_y_rel="false"
       vertical="false"
       bendpath-nodetypes="cc" />
    <inkscape:path-effect
       effect="bend_path"
       id="path-effect2602"
       is_visible="true"
       bendpath="m 30.261624,91.831206 c 31.187794,4.862344 48.625607,5.945156 77.742926,0.191022"
       prop_scale="1.0135994"
       scale_y_rel="false"
       vertical="false"
       bendpath-nodetypes="cc" />
    <inkscape:path-effect
       effect="bend_path"
       id="path-effect2571"
       is_visible="true"
       bendpath="m 123.38647,59.670602 c 12.47216,1.066118 20.92854,0.933947 28.32153,0"
       prop_scale="1"
       scale_y_rel="false"
       vertical="false"
       bendpath-nodetypes="cc" />
    <linearGradient
       id="linearGradient1890">
      <stop
         style="stop-color:#2361fb;stop-opacity:1"
         offset="0"
         id="stop1886" />
      <stop
         style="stop-color:#55ffb3;stop-opacity:1"
         offset="1"
         id="stop1888" />
    </linearGradient>
    <linearGradient
       id="linearGradient2210">
      <stop
         style="stop-color:#fab200;stop-opacity:1"
         offset="0"
         id="stop2206" />
      <stop
         style="stop-color:#fffb46;stop-opacity:1"
         offset="1"
         id="stop2208" />
    </linearGradient>
    <linearGradient
       id="linearGradient2035">
      <stop
         style="stop-color:#8505f2;stop-opacity:1"
         offset="0"
         id="stop2031" />
      <stop
         style="stop-color:#e755ff;stop-opacity:1"
         offset="1"
         id="stop2033" />
    </linearGradient>
    <linearGradient
       gradientTransform="matrix(1.1179321,0,0,1.1179321,-3.9131407,-2.8601028)"
       inkscape:collect="always"
       xlink:href="#linearGradient3526"
       id="linearGradient1583"
       gradientUnits="userSpaceOnUse"
       x1="65.676674"
       y1="69.573593"
       x2="95.725655"
       y2="131.49524" />
    <linearGradient
       gradientTransform="matrix(1.1179321,0,0,1.1179321,-3.9131407,-2.8601028)"
       inkscape:collect="always"
       xlink:href="#linearGradient3526"
       id="linearGradient1591"
       x1="64.358101"
       y1="62.894947"
       x2="110.51237"
       y2="102.20448"
       gradientUnits="userSpaceOnUse" />
    <linearGradient
       gradientTransform="matrix(1.1179321,0,0,1.1179321,-3.9131407,-2.8601028)"
       inkscape:collect="always"
       xlink:href="#linearGradient3526"
       id="linearGradient1599"
       x1="61.476238"
       y1="58.116425"
       x2="94.263527"
       y2="91.715721"
       gradientUnits="userSpaceOnUse" />
    <linearGradient
       gradientTransform="matrix(1.1179321,0,0,1.1179321,-3.9131407,-2.8601028)"
       inkscape:collect="always"
       xlink:href="#linearGradient4671-3"
       id="linearGradient1639"
       gradientUnits="userSpaceOnUse"
       x1="-49.732952"
       y1="18.701"
       x2="84.119614"
       y2="106.98706" />
    <linearGradient
       inkscape:collect="always"
       xlink:href="#linearGradient1450"
       id="linearGradient1579"
       gradientUnits="userSpaceOnUse"
       gradientTransform="matrix(1.1179321,0,0,1.1179321,-3.9131407,-2.8601028)"
       x1="-49.732952"
       y1="18.701"
       x2="84.119614"
       y2="106.98706" />
    <linearGradient
       inkscape:collect="always"
       xlink:href="#cigarette_white_fade"
       id="linearGradient916"
       x1="-4.5938492"
       y1="71.631803"
       x2="0.25461245"
       y2="71.631803"
       gradientUnits="userSpaceOnUse" />
    <linearGradient
       inkscape:collect="always"
       xlink:href="#linearGradient935"
       id="linearGradient937"
       x1="-4.5938492"
       y1="86.809561"
       x2="0.25461245"
       y2="86.809561"
       gradientUnits="userSpaceOnUse" />
  </defs>
  <sodipodi:namedview
     id="base"
     pagecolor="#ffffff"
     bordercolor="#666666"
     borderopacity="1.0"
     inkscape:pageopacity="0.0"
     inkscape:pageshadow="2"
     inkscape:zoom="0.81640385"
     inkscape:cx="245.56942"
     inkscape:cy="124.21666"
     inkscape:document-units="mm"
     inkscape:current-layer="layer10"
     showgrid="false"
     units="px"
     inkscape:window-width="1676"
     inkscape:window-height="1004"
     inkscape:window-x="1920"
     inkscape:window-y="20"
     inkscape:window-maximized="0"
     inkscape:document-rotation="0"
     inkscape:object-paths="false"
     inkscape:snap-global="false"
     inkscape:snap-intersection-paths="true" />
  <metadata
     id="metadata5">
    <rdf:RDF>
      <cc:Work
         rdf:about="">
        <dc:format>image/svg+xml</dc:format>
        <dc:type
           rdf:resource="http://purl.org/dc/dcmitype/StillImage" />
        <dc:title></dc:title>
      </cc:Work>
    </rdf:RDF>
  </metadata>
  <g
     inkscape:label="Centering"
     inkscape:groupmode="layer"
     id="layer1"
     transform="translate(0,-161.53332)"
     style="display:none">
    <rect
       style="opacity:1;fill:#ffffff;fill-opacity:1;stroke:#000000;stroke-width:0.14791411;stroke-linejoin:round;stroke-miterlimit:4;stroke-dasharray:none;stroke-dashoffset:0;stroke-opacity:1"
       id="rect1404"
       width="135.31874"
       height="135.31876"
       x="0.073957056"
       y="161.60727" />
  </g>
  <g
     inkscape:groupmode="layer"
     id="layer10"
     inkscape:label="ducky"
     style="display:inline">
    <path
       id="path855-3"
       style="display:inline;fill:#ff0010;fill-opacity:1;stroke:#000000;stroke-width:0;stroke-linecap:butt;stroke-linejoin:miter;stroke-miterlimit:4;stroke-dasharray:none;stroke-opacity:1"
       d="m 32.63298,59.431533 c 0,0 -20.570824,5.338298 -25.652572,4.016257 -5.0817524,-1.322035 -2.5519781,3.498981 2.2747549,3.7513 5.1583271,0.269656 27.7246291,3.5307 27.7246291,3.5307 z m -9.555761,-9.930465 c 0,0 -13.9651697,7.911617 -18.4780845,6.09226 -4.51291483,-1.819357 -1.8273426,2.834069 2.363519,4.744168 4.1335675,1.88399 19.6814455,3.145465 19.6814455,3.145465 z" />
    <path
       sodipodi:end="6.2789442"
       sodipodi:start="0"
       sodipodi:ry="0.098506205"
       sodipodi:rx="0.19701239"
       sodipodi:cy="71.392296"
       sodipodi:cx="111.20238"
       sodipodi:type="arc"
       id="path848"
       style="display:inline;fill:#ffff00;fill-opacity:1;stroke:#fbfb00;stroke-width:0;stroke-miterlimit:4;stroke-dasharray:none;stroke-opacity:1"
       sodipodi:arc-type="slice"
       d="m 111.39939,71.392296 a 0.19701239,0.0985062 0 0 1 -0.1968,0.09851 0.19701239,0.0985062 0 0 1 -0.19722,-0.0983 0.19701239,0.0985062 0 0 1 0.19638,-0.09871 0.19701239,0.0985062 0 0 1 0.19764,0.09809 l -0.19701,4.18e-4 z" />
    <path
       style="display:inline;fill:url(#linearGradient1639);fill-opacity:1;stroke:#fbfb00;stroke-width:0;stroke-miterlimit:4;stroke-dasharray:none;stroke-opacity:1"
       d="M 86.04294,43.861202 A 32.77495,32.402507 7.9636418e-6 0 1 53.267982,76.263708 32.77495,32.402507 7.9636418e-6 0 1 20.493036,43.861202 32.77495,32.402507 7.9636418e-6 0 1 53.26799,11.458691 32.77495,32.402507 7.9636418e-6 0 1 86.04294,43.861202 Z"
       id="path1564" />
    <path
       id="path852"
       style="display:inline;fill:url(#linearGradient1579);fill-opacity:1;stroke:#fbfb00;stroke-width:0;stroke-miterlimit:4;stroke-dasharray:none;stroke-opacity:1"
       d="m 125.87694,58.290516 c -1.10063,4.663263 -4.34774,10.82345 -7.2554,13.764432 -2.90766,2.940986 -4.37652,1.550829 -3.28206,-3.106192 1.09447,-4.657026 4.33846,-10.820159 7.24844,-13.771015 2.90998,-2.950861 4.38572,-1.573773 3.29743,3.076991 l -5.27502,5.355917 z m 2.59939,-2.614973 c 3.91408,5.541884 5.76882,20.076993 4.14425,32.477501 -1.62457,12.400496 -6.11421,17.977936 -10.03173,12.462346 -3.91753,-5.515591 -5.78178,-20.038865 -4.16552,-32.451065 1.61626,-12.412195 6.13511,-17.988251 10.05607,-12.498971 l -2.95436,22.469457 z m 4.13556,31.962974 c -2e-5,20.086293 -26.17949,36.369443 -58.473493,36.369443 -32.294009,0 -58.473479,-16.28316 -58.473488,-36.369455 -3e-6,-20.086301 26.17947,-36.369468 58.473488,-36.369468 32.294013,-2e-6 58.473483,16.283156 58.473493,36.369455 z"
       sodipodi:nodetypes="csssccccssscccssssss" />
    <circle
       r="6.3344498"
       cy="39.56522"
       cx="41.924294"
       id="path875"
       style="display:inline;fill:#000000;fill-opacity:1;stroke:#fbfb00;stroke-width:0;stroke-miterlimit:4;stroke-dasharray:none;stroke-opacity:1" />
    <path
       id="rect3587"
       style="fill:#f0f0f0;fill-opacity:1;stroke:#ffffff;stroke-width:0.251485;stroke-miterlimit:4;stroke-dasharray:none;stroke-opacity:1"
       d="m 150.57227,219.9043 c -4.16658,1.88024 -8.22391,3.84802 -12.16407,5.90039 l 213.21875,235.54687 c 4.88326,-1.03663 9.69149,-2.17492 14.41407,-3.41406 z m -23.58789,12.27929 c -3.82309,2.2885 -7.51354,4.66003 -11.06446,7.11329 l 205.48047,227 c 5.24369,-0.61492 10.42155,-1.34266 15.52734,-2.1836 z m -21.34766,14.75586 c -3.43894,2.75126 -6.70961,5.58561 -9.810548,8.49805 L 288.76172,468.57812 c 5.65336,-0.13389 11.25224,-0.39777 16.78906,-0.79101 z"
       transform="scale(0.26458333)" />
    <path
       sodipodi:nodetypes="csccsccc"
       id="path1948-5-1-9-6-8-7"
       d="m 77.158686,83.20003 6.095315,-0.219459 c 4.720252,-0.16994 9.880214,-2.479055 13.126304,-6.635181 3.730165,-4.764211 5.193435,-7.706037 5.973855,-12.568503 0.58565,-3.619603 -1.3878,-7.826787 -5.65181,-5.959029 l -4.060888,2.023512 -3.937731,1.978523 C 74.197906,68.114141 40.286354,83.827198 77.158686,83.200051 Z"
       style="display:inline;fill:url(#linearGradient1599);fill-opacity:1;stroke-width:0.524029"
       inkscape:connector-curvature="0" />
    <path
       sodipodi:nodetypes="csccsccc"
       id="path1948-5-1-9-6-8-0-3"
       d="m 86.607882,84.570462 6.013805,0.803644 c 4.657136,0.622312 10.023433,-0.812677 13.749893,-4.408707 4.28066,-4.120638 6.09901,-6.805944 7.49587,-11.519174 1.04443,-3.507723 -0.34787,-8.029992 -4.77713,-6.884407 l -4.25002,1.334813 -4.12325,1.310661 C 85.656726,69.044982 50.319417,79.011374 86.607877,84.5705 Z"
       style="display:inline;fill:url(#linearGradient1591);fill-opacity:1;stroke-width:0.524029"
       inkscape:connector-curvature="0" />
    <path
       sodipodi:nodetypes="cccccccsccsccsccccc"
       id="path1948-5-1-9-6-9-6"
       d="m 74.196562,108.82953 c 2.778469,-0.006 4.357531,-0.3523 6.846215,-0.65858 7.330611,-0.90085 11.66601,-5.95804 13.461414,-9.467313 l 2.615158,-4.367651 -16.20248,2.142733 0.723384,-2.187643 15.859069,-2.047947 5.976548,-0.98601 c 4.65029,-0.767201 9.17256,-1.562495 13.26404,-5.285296 3.85947,-4.630258 5.70855,-7.114248 6.62735,-11.952744 0.68868,-3.601578 -1.15942,-7.886688 -5.46819,-6.175815 l -4.11056,1.874366 -3.91228,1.799781 c -5.87348,2.46089 -9.66862,1.718965 -15.361468,1.174 0,0 -11.265933,-2.096289 -19.466629,-2.252961 -21.944632,1.870385 -31.86107,33.00592 -8.71731,37.43805 2.738502,0.53579 5.087279,0.95935 7.865739,0.95304 z m 11.635939,-7.04466 c -93.263116,31.29148 -46.631548,15.64571 0,0 z"
       style="display:inline;fill:url(#linearGradient1583);fill-opacity:1;stroke-width:0.524029"
       inkscape:connector-curvature="0" />
    <ellipse
       ry="2.4994321"
       rx="2.4003344"
       transform="matrix(0.972792,0.23168024,-0.20154908,0.97947842,0,0)"
       cy="78.040276"
       cx="105.18977"
       id="path1188-1"
       style="display:inline;fill:#000000;fill-opacity:1;stroke:#fbfb00;stroke-width:0;stroke-miterlimit:4;stroke-dasharray:none;stroke-opacity:1" />
    <g
       id="g3686"
       style="display:inline">
      <path
         id="path1506"
         style="display:inline;fill:#9baaad;fill-opacity:1;stroke:#9baaad;stroke-width:0.264583px;stroke-linecap:butt;stroke-linejoin:miter;stroke-opacity:1"
         d="m 50.713095,26.967366 -1.770222,-0.627878 c 0,0 -3.742348,0.289338 -6.880878,0.371438 -3.138533,0.0821 -3.952036,0.216604 -7.493677,0.10396 -3.541639,-0.112641 -3.949441,-0.0066 -6.33775,-0.29486 -2.388309,-0.288205 -3.203445,-0.362934 -5.040842,-0.746516 -1.837393,-0.383583 -0.353512,-0.05834 -0.96784,-0.189461 -0.614331,-0.131116 -0.996522,-0.217222 -1.590548,-0.39393 -0.594024,-0.176707 -1.076833,-0.278143 -1.692659,-0.529987 -0.615828,-0.251843 -0.972031,-0.320619 -1.627769,-0.705127 -0.655738,-0.384509 -0.936776,-0.535581 -1.347386,-0.81306 -0.410609,-0.277479 -0.631372,-0.401579 -0.772908,-0.615802 -0.141537,-0.214219 -0.212167,-0.308803 -0.212167,-0.308803 0,0 -0.105159,-0.135046 -0.167839,-0.338918 -0.06268,-0.203872 -0.09145,-0.327017 -0.09145,-0.327017 0,0 -0.02751,-0.02717 -0.01818,-0.119718 0.0093,-0.09255 0.04206,-0.197644 0.102467,-0.268936 0.06041,-0.0713 0.112983,-0.133371 0.223301,-0.244134 0.11032,-0.110762 0.241017,-0.209878 0.241017,-0.209878 0,0 -0.225632,0.03086 -0.716876,0.258871 -0.491244,0.22801 -0.68848,0.302369 -0.873458,0.441164 -0.184978,0.138795 -0.292195,0.175593 -0.308776,0.28122 -0.01658,0.105627 -0.0281,0.428334 0.02361,0.518605 0.0517,0.09027 0.130002,0.345299 0.319862,0.572894 0.189857,0.227594 0.250917,0.351496 0.726818,0.705786 0.475901,0.354288 0.506656,0.486037 1.153933,0.839642 0.647279,0.353608 0.844822,0.455221 1.347443,0.679977 0.502621,0.224756 0.7766,0.361365 1.287786,0.52909 0.511188,0.167722 0.737989,0.291894 1.458851,0.492839 0.720863,0.200946 0.651015,0.203018 1.819108,0.444908 1.168094,0.24189 1.929017,0.403407 2.8482,0.551112 0.919184,0.147704 1.290024,0.204109 2.23955,0.297407 0.949529,0.0933 0.971259,0.105054 2.434172,0.210113 1.462913,0.105059 -0.01468,0.06477 1.889395,0.135734 1.904087,0.07097 1.844786,0.139069 4.678317,0.113301 2.833532,-0.02577 2.812198,0.02202 4.868299,-0.07164 2.056101,-0.09366 2.681335,-0.110627 4.796404,-0.243058 2.115066,-0.132431 2.766724,-0.184717 3.843099,-0.295201 1.076378,-0.110485 1.60958,-0.204136 1.60958,-0.204136 z m 11.40098,1.769645 c 0,0 0.238191,0.07177 1.080384,0.07926 0.842192,0.0075 1.44278,0.01344 2.558198,-0.0016 1.115419,-0.01499 1.741958,-0.02523 3.121403,-0.04541 1.379445,-0.02018 1.228384,0.01298 2.900952,-0.04691 1.672569,-0.05989 1.973353,-0.04817 4.005313,-0.2285 2.03196,-0.180331 1.852655,-0.112012 3.213616,-0.321433 1.360961,-0.209422 1.277678,-0.107713 2.751854,-0.477024 1.474177,-0.369311 1.470793,-0.288001 2.396012,-0.632359 0.925216,-0.344359 1.813112,-0.749904 1.813112,-0.749904 0,0 -6.3e-5,0.272105 -0.02865,0.655735 -0.02859,0.383629 -0.03868,0.579663 -0.148252,0.976046 -0.109572,0.396383 -0.163808,0.661762 -0.274381,0.893786 -0.110574,0.232024 -0.432038,0.636774 -0.432038,0.636774 0,0 -0.470058,0.166403 -0.741013,0.211532 -0.270957,0.04513 -0.809463,0.158615 -1.353569,0.219827 -0.544105,0.06121 -1.023249,0.199601 -2.376275,0.210416 -1.353027,0.01081 -1.763787,0.01261 -3.357819,-0.0165 -1.594033,-0.02911 -2.107933,0.02717 -4.397232,-0.153634 -2.289302,-0.180805 -2.912322,-0.200031 -4.759167,-0.409765 -1.846844,-0.209734 -2.077532,-0.245112 -3.477704,-0.382537 -1.40017,-0.137425 -1.909495,-0.18462 -1.909495,-0.18462 0,0 -0.290836,-0.04984 -0.438042,-0.14153 -0.147206,-0.0917 -0.147206,-0.0917 -0.147206,-0.0917 z M 50.201343,25.728424 c 0,0 1.033994,0.370837 4.208629,0.957159 3.174632,0.586322 3.773429,0.758791 5.647698,0.935899 1.874271,0.177108 2.917073,0.391584 4.805756,0.380715 1.888681,-0.01087 4.188024,-0.03747 7.266247,-0.278746 3.078221,-0.241275 4.020008,-0.259202 6.476966,-0.603704 2.45696,-0.344502 3.54444,-0.487575 4.61696,-0.772971 1.07253,-0.285398 1.0428,-0.279831 1.0428,-0.279831 0,0 0.51352,-0.124672 0.8288,-0.271875 0.31529,-0.147204 0.48867,-0.21567 0.63982,-0.312576 0.15116,-0.0969 0.30688,-0.211701 0.41915,-0.323377 0.11227,-0.111672 0.25756,-0.283363 0.33214,-0.423778 0.0746,-0.140411 0.31386,-0.495839 0.47728,-1.128514 0.163415,-0.632674 0.310355,-1.13683 0.373405,-1.738436 0.0631,-0.601605 0.12388,-0.449498 0.0891,-1.896584 -0.0348,-1.447083 -0.0444,-1.889633 -0.17016,-2.592631 -0.12572,-0.702998 -0.0969,-0.871074 -0.365035,-1.770073 -0.26812,-0.898996 -0.3657,-1.095404 -0.59191,-1.633379 -0.22621,-0.537974 -0.23151,-0.645057 -0.55556,-1.14554 -0.32405,-0.500483 -0.72293,-1.109525 -1.19338,-1.534131 -0.47045,-0.424603 -0.90999,-0.898126 -1.89546,-1.5831188 -0.98548,-0.68499 -1.83829,-1.305171 -3.19004,-1.876711 -1.35174,-0.57154 -2.529039,-1.08935 -4.277805,-1.570773 -1.748766,-0.481422 -2.96401,-0.81103 -4.743013,-1.053142 -1.779006,-0.242115 -3.92866,-0.458414 -5.649569,-0.494279 -1.72091,-0.03586 -2.68375,-0.073 -3.598116,-0.0468 -0.914366,0.02619 -1.670087,0.04139 -2.55029,0.130336 -0.8802,0.08895 -1.481706,0.126725 -2.834772,0.304903 -1.353066,0.178181 -4.955013,0.770935 -4.955013,0.770935 l -2.822805,0.596165 -2.750672,0.627766 -3.45172,0.849392 -2.698657,0.744469 c 0,0 -0.824781,0.212283 -1.660202,0.474691 -0.835422,0.262411 -3.434104,1.1222378 -3.434104,1.1222378 l -2.305341,0.795146 c 0,0 -3.74301,1.364107 -5.453624,2.153187 -1.71061,0.789077 -3.742896,1.707883 -4.860602,2.344695 -1.117708,0.63681 -2.205707,1.261687 -2.522426,1.499693 -0.31672,0.238006 -1.205918,0.813133 -1.444731,1.060844 -0.238813,0.247711 -0.607086,0.614701 -0.700389,0.781209 -0.0933,0.16651 -0.16569,0.253238 -0.173995,0.598352 -0.0083,0.345115 -0.0263,0.562139 0.06733,0.653031 0.09362,0.0909 0.184176,0.194435 0.499649,0.331949 0.315476,0.137512 0.603036,0.279932 0.954297,0.3662 0.351258,0.08627 0.93808,0.158911 1.383869,0.292555 0.445791,0.133643 0.882581,0.208198 1.839293,0.65864 0.956715,0.450445 1.376653,0.562647 2.194147,1.032068 0.817494,0.469424 1.225809,0.756881 1.991074,1.053579 0.765265,0.296696 0.982324,0.465429 2.137103,0.724548 1.154777,0.259117 2.316848,0.560774 3.993399,0.667044 1.676548,0.10627 3.177725,0.14379 4.507198,0.147272 1.329473,0.0035 2.26228,0.03576 3.619974,-0.03483 1.357693,-0.07059 2.323875,-0.129077 4.161054,-0.195583 1.837179,-0.0665 2.107203,-0.08042 2.876735,-0.07626 0.769533,0.0042 2.360769,-0.043 4.273725,0.02352 1.912958,0.06651 3.544985,0.113721 4.890701,0.207944 1.345716,0.09422 1.383956,0.09627 2.121045,0.159359 0.73709,0.06308 1.338147,0.134027 2.017501,0.233137 0.679352,0.09911 1.375127,0.180235 1.509898,0.288386 0.134771,0.108148 0.184333,0.186176 0.147053,0.242286 -0.03728,0.05611 -0.16211,0.128009 -0.381072,0.149715 -0.218958,0.0217 -2.205572,0.02476 -2.810682,0.0051 -0.605107,-0.01968 -1.193427,-0.04993 -1.942049,-0.09307 -0.748626,-0.04314 -1.654551,-0.0898 -2.375485,-0.167788 -0.720934,-0.07799 -1.485892,-0.134503 -2.016241,-0.21082 -0.53035,-0.07632 -0.917006,-0.117361 -1.339123,-0.168508 -0.422119,-0.05114 -0.695769,-0.08628 -0.695769,-0.08628 z" />
      <path
         id="path673"
         style="display:inline;fill:#778689;fill-opacity:1;stroke:#778689;stroke-width:0.065;stroke-linecap:butt;stroke-linejoin:miter;stroke-miterlimit:4;stroke-dasharray:none;stroke-opacity:1"
         d="m 47.170481,6.6704502 5.186335,-1.06943 c 0,0 0.297842,-0.174146 0.196779,-0.250145 -0.101063,-0.076 -0.359317,-0.158647 -0.92003,-0.164817 -0.560713,-0.0062 -1.105228,0.05063 -1.631474,0.140438 -0.526248,0.08981 -1.128623,0.249545 -1.591104,0.371057 -0.462478,0.121513 -0.862634,0.231003 -1.071229,0.339657 -0.208595,0.108656 -0.414128,0.210179 -0.414128,0.210179 0,0 -0.130109,0.03613 -0.169701,0.07724 -0.03959,0.04112 -0.118735,0.210945 -0.06742,0.269989 0.05132,0.05904 0.08133,0.12061 0.284146,0.101063 0.202814,-0.01955 0.197822,-0.02524 0.197822,-0.02524 z m 3.030862,19.0579748 0.700746,0.0869 c 0,0 0.371163,0.06582 1.392179,0.176054 1.021017,0.110228 1.133721,0.137297 2.063703,0.213733 0.929981,0.07644 1.005083,0.08542 1.956112,0.138827 0.951026,0.05341 0.793752,0.09691 2.241126,0.110484 1.447374,0.01357 1.616665,0.01939 2.159008,0.0105 0.542343,-0.0089 0.857298,-0.04163 0.922486,-0.07593 0.06519,-0.0343 0.207634,-0.154297 0.05708,-0.261612 -0.150561,-0.107315 -0.417221,-0.19055 -0.90805,-0.260604 -0.490829,-0.07005 -0.661236,-0.12042 -1.565116,-0.215315 -0.903883,-0.09489 -1.200955,-0.130821 -2.323288,-0.209159 -1.122333,-0.07834 -1.41877,-0.120234 -3.515511,-0.193156 -2.096741,-0.07292 -2.432087,-0.127603 -4.67257,-0.115893 -2.240484,0.01172 -2.142922,-0.01474 -4.289288,0.07047 -2.146366,0.08521 -2.005483,0.08554 -3.761978,0.166339 -1.756495,0.0808 -1.95829,0.09836 -3.469515,0.08891 -1.511224,-0.0094 -1.445652,0.09502 -3.958172,-0.0705 -2.512518,-0.16552 -1.826776,-0.04482 -2.800911,-0.201308 -0.974135,-0.156493 -1.022318,-0.153966 -1.619422,-0.286903 -0.597104,-0.132938 -0.486519,-0.06365 -1.332307,-0.300533 -0.845788,-0.236876 -0.05475,0.02384 -0.56085,-0.146581 -0.506098,-0.170427 -0.703744,-0.256943 -1.132012,-0.428319 -0.428268,-0.171375 -0.703906,-0.262331 -1.141304,-0.511291 -0.437399,-0.24896 -0.976781,-0.566319 -0.976781,-0.566319 0,0 -0.156374,-0.14862 -0.871929,-0.464072 -0.715555,-0.315454 -0.533339,-0.282379 -1.541772,-0.687379 -1.008433,-0.405003 -0.93799,-0.407085 -1.579978,-0.572101 -0.641988,-0.165012 -1.181444,-0.266829 -1.181444,-0.266829 0,0 -0.258064,-0.02593 -0.51662,-0.113541 -0.258556,-0.0876 -0.420291,-0.122074 -0.780365,-0.310743 -0.360077,-0.188671 -0.336518,-0.172669 -0.336518,-0.172669 l -0.07324,-0.05279 -1.517062,0.401643 c 0,0 -0.04555,0.0021 -0.250884,0.220329 -0.205327,0.218308 -0.349136,0.339916 -0.309538,0.561242 0.0396,0.22133 0.136445,0.562706 0.304771,0.771935 0.168328,0.20923 0.120086,0.370152 1.017428,0.920563 0.897345,0.55041 1.263867,0.817371 2.100329,1.148429 0.836459,0.331054 0.926177,0.403921 1.61073,0.596352 0.684557,0.192432 1.443001,0.454041 2.392212,0.639075 0.949214,0.185031 1.946619,0.38945 3.088823,0.566716 1.142203,0.177265 1.632079,0.280482 2.776553,0.368321 1.144474,0.08784 1.275038,0.13326 3.468997,0.218207 2.193959,0.08495 2.053455,0.113589 5.612236,0.08578 3.558783,-0.02781 2.994885,-0.0049 4.494802,-0.07246 1.499918,-0.06754 2.06284,-0.101705 3.386495,-0.167089 1.323657,-0.06539 1.623531,-0.130384 2.42589,-0.177173 0.80236,-0.04679 1.420379,-0.06224 1.420379,-0.06224 0,0 0.129746,0.0028 0.185682,0.02625 0.05594,0.02341 0.635809,0.226245 1.565748,0.558762 0.929937,0.332518 0.753462,0.302306 1.604444,0.564871 0.850982,0.262565 0.988907,0.333209 1.904458,0.58415 0.915551,0.250941 1.693566,0.479914 2.685042,0.702442 0.991473,0.222529 1.278898,0.291963 2.544884,0.525183 1.265986,0.233221 2.052852,0.399143 3.480811,0.573715 1.427961,0.174571 2.478529,0.321717 3.798154,0.426483 1.319628,0.104767 1.982724,0.150767 4.100277,0.326526 2.11755,0.175758 0.288978,0.08278 3.509613,0.301214 3.220636,0.218435 2.931173,0.371687 5.095915,0.275439 2.164741,-0.09625 3.06628,-0.122743 3.599458,-0.310963 0.533177,-0.188219 1.084855,-0.386352 1.429501,-0.631885 0.344644,-0.245532 0.384463,-0.211843 0.556583,-0.462356 0.172119,-0.250512 0.204025,-0.311038 0.204025,-0.311038 0,0 -0.121877,0.113695 -0.766913,0.215678 -0.645036,0.101985 -1.269286,0.25839 -2.684433,0.337446 -1.415148,0.07906 -0.245804,0.131424 -3.319076,0.08761 -3.073271,-0.04382 -4.228158,-0.06285 -6.242873,-0.229906 -2.014712,-0.167053 -2.576386,-0.182715 -4.879319,-0.451952 -2.302933,-0.269238 -4.47966,-0.464158 -4.47966,-0.464158 0,0 -0.229339,-0.04358 -0.310288,-0.07465 -0.08095,-0.03108 -0.27496,-0.158575 -0.27496,-0.158575 0,0 -0.220117,0.09891 4.812223,0.0618 5.161431,-0.03806 5.693293,-0.0586 7.88408,-0.228689 2.190788,-0.170087 3.28235,-0.263147 4.53198,-0.447166 1.249629,-0.184019 2.3833,-0.393665 3.461482,-0.684377 1.07818,-0.290712 1.49718,-0.404155 2.064481,-0.638244 0.567298,-0.234088 0.56979,-0.226034 0.825137,-0.357003 0.255347,-0.130966 0.261461,-0.130156 0.261461,-0.130156 l -0.02453,-0.965184 c 0,0 -0.253379,0.189767 -0.64719,0.360553 -0.393811,0.170786 -0.456843,0.209875 -1.195361,0.407315 -0.738518,0.197443 -1.032393,0.318236 -1.945629,0.472956 -0.913233,0.154718 -0.897546,0.160822 -2.210935,0.345083 -1.313392,0.184264 -1.840955,0.285475 -3.018356,0.400239 -1.177401,0.114763 -1.541921,0.147787 -2.340232,0.20645 -0.798311,0.05866 -0.825368,0.05851 -1.865196,0.13821 -1.039828,0.0797 -1.366374,0.115191 -2.39372,0.168716 -1.027345,0.05353 -1.318225,0.07857 -2.364428,0.104876 -1.046202,0.02631 -1.188172,0.03494 -2.116653,0.04225 -0.928481,0.0073 -1.351608,0.0375 -2.149218,-0.01705 -0.797608,-0.05455 -1.343838,-0.105593 -2.06955,-0.188119 -0.725712,-0.08253 -0.982874,-0.110815 -1.512406,-0.16383 -0.529532,-0.05302 -0.861025,-0.07594 -1.447109,-0.167359 -0.586081,-0.09142 -1.022697,-0.164289 -1.601595,-0.274076 -0.5789,-0.109787 -0.816599,-0.155804 -1.325467,-0.251892 C 55.21848,26.836224 54.869378,26.774287 54.229994,26.652142 53.59061,26.529999 53.309305,26.478427 52.839185,26.37879 52.369063,26.27915 52.383784,26.33441 51.292553,26.031424 50.201324,25.728436 50.20134,25.728418 50.20134,25.728418 Z" />
    </g>
    <g
       id="g3799"
       transform="translate(-6.6490522,-3.0001482)">
      <rect
         style="fill:url(#linearGradient916);fill-opacity:1;stroke:none;stroke-width:0.435728;stroke-miterlimit:4;stroke-dasharray:none;stroke-opacity:1"
         id="rect3698"
         width="4.8484616"
         height="21.057795"
         x="-4.5938492"
         y="61.102905"
         transform="rotate(-62.96542)" />
      <rect
         style="fill:url(#linearGradient937);fill-opacity:1;stroke:none;stroke-width:0.435727;stroke-miterlimit:4;stroke-dasharray:none;stroke-opacity:1"
         id="rect3702"
         width="4.8484616"
         height="9.2977266"
         x="-4.5938492"
         y="82.160698"
         transform="rotate(-62.96542)" />
    </g>
    <path
       style="fill:#fd9e2f;fill-opacity:1;fill-rule:evenodd;stroke:none;stroke-width:0.265;stroke-miterlimit:4;stroke-dasharray:none;stroke-opacity:1"
       id="path3788"
       sodipodi:type="arc"
       sodipodi:cx="41.727684"
       sodipodi:cy="52.110916"
       sodipodi:rx="5.5234675"
       sodipodi:ry="5.0625038"
       sodipodi:start="4.712389"
       sodipodi:end="1.5707963"
       sodipodi:arc-type="slice"
       d="m 41.727684,47.048412 a 5.5234675,5.0625038 0 0 1 5.523468,5.062504 5.5234675,5.0625038 0 0 1 -5.523468,5.062504 v -5.062504 z"
       transform="rotate(-16.447104)" />
  </g>
</svg>
