<?xml version="1.0" encoding="UTF-8" standalone="no"?>
<!DOCTYPE svg PUBLIC "-//W3C//DTD SVG 1.1//EN" "http://www.w3.org/Graphics/SVG/1.1/DTD/svg11.dtd">
<svg width="100%" height="100%" viewBox="0 0 1300 1359" version="1.1" xmlns="http://www.w3.org/2000/svg" xmlns:xlink="http://www.w3.org/1999/xlink" xml:space="preserve" xmlns:serif="http://www.serif.com/" style="fill-rule:evenodd;clip-rule:evenodd;stroke-linejoin:round;stroke-miterlimit:2;">
    <g transform="matrix(1,0,0,1,-2531.81,-1172.51)">
        <g id="Artboard2" transform="matrix(0.535285,0,0,0.559616,2583.81,384.159)">
            <rect x="-97.148" y="1408.74" width="2427.14" height="2427.14" style="fill:none;"/>
            <g id="ducky_lemon" transform="matrix(8.18337,7.82757,-8.1833,7.8275,830.885,1305.87)">
                <g id="rhair" transform="matrix(0.890779,0.126251,-0.126249,0.890779,15.4142,-5.95545)">
                    <path d="M43.107,12.633C67.598,7.814 75.055,17.414 87.157,12.95C99.259,8.486 87.509,23.608 84.341,26.209C81.167,28.809 53.572,44.384 41.606,38.674C29.64,32.963 29.58,15.293 43.107,12.633Z" style="fill:rgb(92,145,59);fill-rule:nonzero;"/>
                </g>
                <g>
                    <g transform="matrix(0.114144,-0.114145,0.114144,0.114145,-313.974,-90.1539)">
                        <path d="M1059.97,2043.09L1022.31,2092.5L1058.94,2105.56L1059.97,2043.09Z" style="fill:rgb(119,178,85);"/>
                    </g>
                    <g id="mhair" transform="matrix(0.890779,0.126251,-0.126249,0.890779,15.4142,-5.95545)">
                        <path d="M56.698,60.485C55.549,60.485 54.411,59.964 53.671,58.973C51.074,55.511 48.727,51.584 46.244,47.423C42.031,40.374 37.542,32.861 31.098,26.384C24.431,19.681 15.671,14.086 2.961,11.261C0.923,10.807 -0.362,8.789 0.092,6.752C0.546,4.711 2.564,3.433 4.601,3.883C32.774,10.142 43.84,28.665 52.733,43.549C55.114,47.533 57.359,51.293 59.718,54.438C60.973,56.108 60.632,58.478 58.962,59.729C58.282,60.24 57.488,60.485 56.698,60.485Z" style="fill:rgb(119,178,85);fill-rule:nonzero;"/>
                    </g>
                </g>
                <g id="g2625" transform="matrix(1.26271,-1.26272,1.26271,1.26272,-364.339,-81.0909)">
                    <path id="path848" d="M164.319,256.674C164.319,256.722 164.239,256.762 164.143,256.762C164.046,256.762 163.966,256.722 163.966,256.674C163.966,256.626 164.045,256.586 164.142,256.586C164.238,256.586 164.318,256.625 164.319,256.674L164.142,256.674L164.319,256.674Z" style="fill:rgb(255,255,0);fill-rule:nonzero;"/>
                    <path id="path852" d="M177.276,244.922C176.298,249.066 173.362,254.654 170.779,257.267C168.195,259.88 166.871,258.626 167.843,254.488C168.816,250.35 171.741,244.792 174.327,242.17C176.912,239.548 178.243,240.79 177.276,244.922L172.558,249.713L177.276,244.922ZM179.567,242.577C183.045,247.501 184.745,260.648 183.301,271.667C181.858,282.685 177.809,287.715 174.328,282.814C170.847,277.913 169.165,264.815 170.602,253.786C172.038,242.758 176.083,237.7 179.567,242.577L176.954,262.705L179.567,242.577ZM183.293,271.206C183.293,289.053 159.682,303.739 130.988,303.739C102.295,303.739 78.683,289.053 78.683,271.206C78.683,253.359 102.295,238.673 130.988,238.673L130.988,238.673C159.682,238.673 183.293,253.359 183.293,271.206L183.293,271.206ZM141.637,232.047L141.637,232.047C141.637,247.947 128.403,261.031 112.32,261.031L112.32,261.031C96.236,261.031 83.002,247.947 83.002,232.047L83.002,232.047C83.002,216.147 96.236,203.063 112.32,203.063L112.32,203.063C128.403,203.063 141.637,216.147 141.637,232.047Z" style="fill:url(#_Linear1);fill-rule:nonzero;"/>
                    <g id="beard" transform="matrix(-0.438683,0.117545,0.100688,0.375772,129.752,205.328)">
                        <path d="M114.57,30.368C111.299,29.721 110.562,32.414 109.744,36.487C107.999,45.174 101.781,63.539 86.141,70.914C66.118,80.354 134.118,153.89 134.936,184.854C135.175,193.905 152.715,182.989 153.972,172.787C158.39,136.943 123.109,32.055 114.57,30.368Z" style="fill:rgb(125,106,90);fill-rule:nonzero;"/>
                    </g>
                    <g id="path855" transform="matrix(0.0903961,5.20417e-18,1.73472e-18,0.0903961,25.054,13.2678)">
                        <path d="M644.378,2455.93C661.393,2509.6 709.973,2538.51 738.65,2551.4C737.953,2568.47 734.623,2587.83 721.391,2601.41C666.341,2619.64 570.9,2618.29 546.68,2617.02C498.917,2614.52 473.884,2566.82 524.17,2579.9C544.32,2585.14 589.079,2579.8 635.475,2571.52C592.222,2566.08 544.254,2558.36 523.994,2549.12C482.524,2530.22 454.585,2488.02 500.606,2502.18C539.145,2514.03 608.132,2485.94 644.378,2455.93Z" style="fill:rgb(249,142,10);fill-rule:nonzero;"/>
                    </g>
                    <g id="leye" transform="matrix(0.234371,0.0627994,-0.0627994,0.234371,304.468,90.7607)">
                        <ellipse cx="-682.334" cy="763.639" rx="17.358" ry="21.621" style="fill:rgb(104,70,1);"/>
                    </g>
                    <g>
                        <path id="path1948-5-1-9-6-8-7" d="M133.69,267.236L139.142,267.04C143.365,266.888 147.98,264.822 150.884,261.105C154.221,256.843 155.529,254.211 156.228,249.862C156.751,246.624 154.986,242.861 151.172,244.531L147.539,246.342L144.017,248.111C131.042,253.742 100.707,267.797 133.69,267.236L133.69,267.236Z" style="fill:rgb(226,167,5);fill-opacity:0.42;fill-rule:nonzero;"/>
                        <path id="path1948-5-1-9-6-8-0-3" d="M142.142,268.462L147.522,269.181C151.688,269.737 156.488,268.454 159.821,265.237C163.65,261.551 165.277,259.149 166.526,254.933C167.461,251.795 166.215,247.75 162.253,248.775L158.451,249.969L154.763,251.141C141.292,254.574 109.682,263.489 142.142,268.462L142.142,268.462Z" style="fill:rgb(226,167,5);fill-opacity:0.72;fill-rule:nonzero;"/>
                        <path id="path1948-5-1-9-6-9-6" d="M131.04,290.162C133.526,290.156 134.938,289.847 137.164,289.573C143.722,288.767 147.6,284.243 149.206,281.104L151.545,277.197L137.052,279.114L137.699,277.157L151.885,275.325L157.231,274.443C161.391,273.757 165.436,273.046 169.096,269.715C172.548,265.574 174.202,263.352 175.024,259.024C175.64,255.802 173.987,251.969 170.133,253.499L166.456,255.176L162.956,256.786C157.702,258.987 154.307,258.323 149.215,257.836C149.215,257.836 139.138,255.961 131.802,255.821C112.172,257.494 103.302,285.345 124.004,289.309C126.454,289.789 128.555,290.168 131.04,290.162L131.04,290.162Z" style="fill:rgb(226,167,5);fill-rule:nonzero;"/>
                    </g>
                    <g id="path1188-1" transform="matrix(0.972792,0.23168,-0.201549,0.979478,0,0)">
                        <ellipse cx="196.347" cy="242.474" rx="2.147" ry="2.236" style="fill:rgb(255,218,82);"/>
                    </g>
                </g>
                <g id="lhair" transform="matrix(0.890779,0.126251,-0.126249,0.890779,15.4142,-5.95545)">
                    <path d="M31.024,24.893C31.024,24.893 14.885,22.663 5.107,42.275C-4.67,61.884 7.307,76.764 6.203,90.098C5.096,103.44 12.122,94.879 16.11,88.416C20.097,81.953 32.097,69.915 34.773,53.383C37.445,36.844 34.508,28.975 31.024,24.893Z" style="fill:rgb(119,178,85);fill-rule:nonzero;"/>
                </g>
            </g>
        </g>
    </g>
    <defs>
        <linearGradient id="_Linear1" x1="0" y1="0" x2="1" y2="0" gradientUnits="userSpaceOnUse" gradientTransform="matrix(133.853,88.2861,-88.2861,133.853,11.4376,208.956)"><stop offset="0" style="stop-color:rgb(255,204,77);stop-opacity:1"/><stop offset="1" style="stop-color:rgb(255,216,70);stop-opacity:1"/></linearGradient>
    </defs>
</svg>
