<?xml version="1.0" encoding="utf-8"?>
<!-- Generator: Adobe Illustrator 24.1.1, SVG Export Plug-In . SVG Version: 6.00 Build 0)  -->
<svg version="1.1"
	 id="svg8" inkscape:export-filename="/files/Art/Duckies/PNG/ducky.png" inkscape:export-xdpi="96" inkscape:export-ydpi="96" inkscape:version="0.92.4 5da689c313, 2019-01-14" sodipodi:docname="ducky.svg" xmlns:cc="http://creativecommons.org/ns#" xmlns:dc="http://purl.org/dc/elements/1.1/" xmlns:inkscape="http://www.inkscape.org/namespaces/inkscape" xmlns:osb="http://www.openswatchbook.org/uri/2009/osb" xmlns:rdf="http://www.w3.org/1999/02/22-rdf-syntax-ns#" xmlns:sodipodi="http://sodipodi.sourceforge.net/DTD/sodipodi-0.dtd" xmlns:svg="http://www.w3.org/2000/svg"
	 xmlns="http://www.w3.org/2000/svg" xmlns:xlink="http://www.w3.org/1999/xlink" x="0px" y="0px" viewBox="0 0 512 512"
	 style="enable-background:new 0 0 512 512;" xml:space="preserve">
<style type="text/css">
	.st0{display:none;}
	.st1{display:inline;fill:#FFFFFF;stroke:#000000;stroke-width:0.559;stroke-linejoin:round;stroke-miterlimit:15.1181;}
	.st2{fill:#E6E6E6;}
	.st3{fill:#D2D2D2;}
	.st4{fill:#FFFF00;}
	.st5{fill:url(#path852_1_);}
	.st6{fill:#FFFFFF;}
	.st7{fill:url(#path1948-5-1-9-6-8-7_1_);}
	.st8{fill:url(#path1948-5-1-9-6-8-0-3_1_);}
	.st9{fill:url(#path1948-5-1-9-6-9-6_1_);}
	.st10{fill:#DCDCDC;}
</style>
<defs  class="st0">
	
		<inkscape:path-effect  bendpath="m 79.112902,59.677527 c 39.299468,11.186994 78.465488,12.827187 117.677978,0" bendpath-nodetypes="cc" effect="bend_path" id="path-effect2575" is_visible="true" prop_scale="0.90838266" scale_y_rel="false" vertical="false">
		</inkscape:path-effect>
	
		<inkscape:path-effect  bendpath="m 30.261624,91.831206 c 31.187794,4.862344 48.625607,5.945156 77.742926,0.191022" bendpath-nodetypes="cc" effect="bend_path" id="path-effect2602" is_visible="true" prop_scale="1.0135994" scale_y_rel="false" vertical="false">
		</inkscape:path-effect>
	
		<inkscape:path-effect  bendpath="m 123.38647,59.670602 c 12.47216,1.066118 20.92854,0.933947 28.32153,0" bendpath-nodetypes="cc" effect="bend_path" id="path-effect2571" is_visible="true" prop_scale="1" scale_y_rel="false" vertical="false">
		</inkscape:path-effect>
</defs>
<sodipodi:namedview  bordercolor="#666666" borderopacity="1.0" id="base" inkscape:current-layer="layer10" inkscape:cx="97.993908" inkscape:cy="319.84683" inkscape:document-units="mm" inkscape:pageopacity="0.0" inkscape:pageshadow="2" inkscape:window-height="1040" inkscape:window-maximized="0" inkscape:window-width="952" inkscape:window-x="0" inkscape:window-y="32" inkscape:zoom="0.98994949" pagecolor="#ffffff" showgrid="false" units="px">
	</sodipodi:namedview>
<g id="layer1" transform="translate(0,-161.53332)" inkscape:groupmode="layer" inkscape:label="Centering" class="st0">
	<rect id="rect1404" x="0.3" y="161.8" class="st1" width="511.4" height="511.4"/>
</g>
<g id="layer10" inkscape:groupmode="layer" inkscape:label="ducky">
	<g id="g2625" transform="matrix(4.2252552,0,0,4.2252552,-72.297637,-215.55173)">
		<path id="path855" inkscape:connector-curvature="0" sodipodi:nodetypes="csscc" class="st2" d="M37.8,95.3c0,0-12.5,7.1-16.5,5.4
			c-4-1.6-1.6,2.5,2.1,4.2c3.7,1.7,17.6,2.8,17.6,2.8L37.8,95.3z"/>
		<path id="path855-3" inkscape:connector-curvature="0" sodipodi:nodetypes="csscc" class="st3" d="M46.3,104.2
			c0,0-18.4,4.8-22.9,3.6c-4.5-1.2-2.3,3.1,2,3.4c4.6,0.2,24.8,3.2,24.8,3.2L46.3,104.2z"/>
		
			<path id="path848" sodipodi:cx="43.429333" sodipodi:cy="67.911644" sodipodi:end="6.2789442" sodipodi:rx="0.046627335" sodipodi:ry="0.023313669" sodipodi:start="0" sodipodi:type="arc" class="st4" d="
			M116.8,114.9c0,0-0.1,0.1-0.2,0.1c-0.1,0-0.2,0-0.2-0.1c0,0,0.1-0.1,0.2-0.1C116.7,114.8,116.8,114.8,116.8,114.9h-0.2H116.8z"/>
		<linearGradient id="path852_1_" gradientUnits="userSpaceOnUse" x1="42.1424" y1="72.8485" x2="245.4757" y2="311.5151">
			<stop  offset="0" style="stop-color:#3A3A3A"/>
			<stop  offset="1" style="stop-color:#ACACAC"/>
		</linearGradient>
		<path id="path852" inkscape:connector-curvature="0" class="st5" d="M129.7,103.2c-1,4.2-3.9,9.7-6.5,12.3
			c-2.6,2.6-3.9,1.4-2.9-2.8c1-4.2,3.9-9.7,6.5-12.3C129.4,97.7,130.7,99,129.7,103.2l-4.7,4.8L129.7,103.2z M132,100.8
			c3.5,5,5.2,18,3.7,29.1c-1.5,11.1-5.5,16.1-9,11.1c-3.5-4.9-5.2-17.9-3.7-29C124.5,100.9,128.5,95.9,132,100.8l-2.6,20.1
			L132,100.8z M135.7,129.4c0,18-23.4,32.5-52.3,32.5s-52.3-14.6-52.3-32.5s23.4-32.5,52.3-32.5h0
			C112.3,96.9,135.7,111.4,135.7,129.4C135.7,129.4,135.7,129.4,135.7,129.4L135.7,129.4z M94.1,90.2c0,16-13.1,29-29.3,29
			s-29.3-13-29.3-29s13.1-29,29.3-29l0,0C81,61.3,94.1,74.2,94.1,90.2L94.1,90.2L94.1,90.2z"/>
		<circle id="path875" class="st6" cx="54.6" cy="86.4" r="5.7"/>
		
			<linearGradient id="path1948-5-1-9-6-8-7_1_" gradientUnits="userSpaceOnUse" x1="-36.5579" y1="205.9281" x2="-3.7706" y2="172.3288" gradientTransform="matrix(4.2253 0 0 -4.2253 233.6674 972.6569)">
			<stop  offset="0" style="stop-color:#535353"/>
			<stop  offset="1" style="stop-color:#A0A0A0"/>
		</linearGradient>
		<path id="path1948-5-1-9-6-8-7" inkscape:connector-curvature="0" sodipodi:nodetypes="csccsccc" class="st7" d="M86.1,125.4
			l5.5-0.2c4.2-0.2,8.8-2.2,11.7-5.9c3.3-4.3,4.6-6.9,5.3-11.2c0.5-3.2-1.2-7-5.1-5.3l-3.6,1.8l-3.5,1.8
			C83.5,111.9,53.1,126,86.1,125.4L86.1,125.4z"/>
		
			<linearGradient id="path1948-5-1-9-6-8-0-3_1_" gradientUnits="userSpaceOnUse" x1="-35.1354" y1="205.8596" x2="11.0189" y2="166.5501" gradientTransform="matrix(4.2253 0 0 -4.2253 233.6674 972.6569)">
			<stop  offset="0" style="stop-color:#555555"/>
			<stop  offset="1" style="stop-color:#DCDCDC"/>
		</linearGradient>
		<path id="path1948-5-1-9-6-8-0-3" inkscape:connector-curvature="0" sodipodi:nodetypes="csccsccc" class="st8" d="M94.6,126.7
			l5.4,0.7c4.2,0.6,9-0.7,12.3-3.9c3.8-3.7,5.5-6.1,6.7-10.3c0.9-3.1-0.3-7.2-4.3-6.2l-3.8,1.2l-3.7,1.2
			C93.7,112.8,62.1,121.7,94.6,126.7L94.6,126.7z"/>
		
			<linearGradient id="path1948-5-1-9-6-9-6_1_" gradientUnits="userSpaceOnUse" x1="-34.0614" y1="203.4679" x2="-4.0124" y2="141.5462" gradientTransform="matrix(4.2253 0 0 -4.2253 233.6674 972.6569)">
			<stop  offset="0" style="stop-color:#535353"/>
			<stop  offset="0.6931" style="stop-color:#FFFFFF"/>
		</linearGradient>
		<path id="path1948-5-1-9-6-9-6" inkscape:connector-curvature="0" sodipodi:nodetypes="cccccccsccsccsccccc" class="st9" d="
			M83.5,148.4c2.5,0,3.9-0.3,6.1-0.6c6.6-0.8,10.4-5.3,12-8.5l2.3-3.9l-14.5,1.9l0.6-2l14.2-1.8l5.3-0.9c4.2-0.7,8.2-1.4,11.9-4.7
			c3.5-4.1,5.1-6.4,5.9-10.7c0.6-3.2-1-7.1-4.9-5.5l-3.7,1.7l-3.5,1.6c-5.3,2.2-8.6,1.5-13.7,1.1c0,0-10.1-1.9-17.4-2
			c-19.6,1.7-28.5,29.5-7.8,33.5C78.9,148,81,148.4,83.5,148.4L83.5,148.4z M93.9,142.1C93.9,142.1,52.2,156.1,93.9,142.1z"/>
		
			<ellipse id="path1188-1" transform="matrix(0.9942 -0.1075 0.1075 0.9942 -14.6305 10.9855)" class="st10" cx="94.6" cy="141.2" rx="2.1" ry="2.2"/>
	</g>
</g>
</svg>
