<svg id="svg8" xmlns="http://www.w3.org/2000/svg" viewBox="0 0 463.86 463.86"><defs><style>.cls-1{fill:#57a679;}.cls-2{fill-opacity:0.21;}.cls-3{fill:#cafbe2;}.cls-4{fill:#fff;}</style></defs><rect id="rect1995" class="cls-1" width="463.86" height="463.86" rx="52.77"/><path id="path5041-2" class="cls-2" d="M296.09,80.93l-11.51,3.31a241.54,241.54,0,0,0-36.89-2.51,233,233,0,0,0-37.9,3.2c-3.7.65-7,1.39-10.11,2.2H163.79v18.8h4.5v7.7h2.78a72.94,72.94,0,0,0-.88,12.3v4h-15.4l-2.2,11,17.6,15V156h79.2v10H140.49c-23,0-43.2,13.8-49.5,40-7.3,30-7.6,48.8,0,80.2.49,2.08,1.06,4.1,1.68,6.06l-1.18,10.44,13.34,11.55c7,7.51,16.37,12,28.26,12h27.2v-36c0-26,22.6-49,49.5-49H289c22,0,39.6-18.1,39.6-40.1v-75.2c0-12.9-6.59-23.83-16.52-31.27Zm76.8,77.6-14.3,7.4h-20.1V201c0,27.2-23.1,50-49.5,50h-79.1c-21.7,0-39.6,18.5-39.6,40.1v75.1c0,21.4,18.7,34,39.6,40.1,25.1,7.3,49.1,8.7,79.1,0,19.9-5.7,39.6-17.3,39.6-40.1v-30.1h-.12l-11.72-10h51.44c23,0,31.6-16,39.6-40,8.3-24.7,7.9-48.5,0-80.2-3.62-14.49-9.35-26.71-19-33.7Zm-123.4,167.6H307v10h-57.5Z"/><path id="path1948" class="cls-3" d="M230,66.63a233,233,0,0,0-37.9,3.2c-33.5,5.9-39.6,18.2-39.6,41v30.1h79.2v10H122.79c-23,0-43.2,13.8-49.5,40-7.3,30-7.6,48.8,0,80.2,5.6,23.4,19.1,40,42.1,40h27.2v-36c0-26,22.6-49,49.5-49h79.1c22,0,39.6-18.1,39.6-40.1v-75.2c0-21.4-18.1-37.4-39.6-41a237.57,237.57,0,0,0-41.2-3.2Zm-42.8,24.2a15.05,15.05,0,1,1-14.9,15.1A15,15,0,0,1,187.19,90.83Z"/><path id="path1950" class="cls-4" d="M320.79,150.93v35c0,27.2-23.1,50-49.5,50h-79.1c-21.7,0-39.6,18.5-39.6,40.1v75.1c0,21.4,18.7,34,39.6,40.1,25.1,7.3,49.1,8.7,79.1,0,19.9-5.7,39.6-17.3,39.6-40.1V321h-79.1V311h118.7c23,0,31.6-16,39.6-40,8.3-24.7,7.9-48.5,0-80.2-5.7-22.8-16.6-40-39.6-40h-29.7Zm-44.5,190.2a15.05,15.05,0,1,1-14.9,15A15,15,0,0,1,276.29,341.13Z"/></svg>