<svg id="svg8" xmlns="http://www.w3.org/2000/svg" viewBox="0 0 500 600"><defs><style>.cls-1{fill:#c3e8f5;opacity:0.61;}.cls-2{fill:#434345;}</style></defs><path class="cls-1" d="M34.33,250.59s1.17,36.08,14.8,62.89c2.87,3.35,5,3,5,3s-2.5-8.33-2.5-9.5-4.34-28.17-4.5-28.83-3.5-22.34-3.5-22.34l-6.5-8A4,4,0,0,0,34.33,250.59Z"/><path class="cls-2" d="M269.71,286.64s-.76,2.65-4.42,3.77-9.56,1.21-13.54-2.58-25.09-30.27-33.91-34.72-21.91-5-30.9-4.43l-88.89,5.88-4.84,2.06L51.38,259.1a9.54,9.54,0,0,0-1.05,3c.06.87,9,51.81,9,51.81s.19,2.89-1.65,3.3-6.08,2.14-7.89-1.8.56-.9.56-.9l-.29-4.33c-.15-2.3-6.55-44.5-15.73-59.18-.31-4.61-.23-3.46-.23-3.46a3.79,3.79,0,0,1,3.31-1.67c2.19.15,3.68-.82,6.64,1.59l5.26,4.28,43.07-2.55,5,.82,101.28-6.7s14.79-2.14,26.27,6.95,34.41,26.39,34.41,26.39S268.42,281.22,269.71,286.64Z"/></svg>
